<svg id="Instagram" xmlns="http://www.w3.org/2000/svg" width="78.926" height="78.925" viewBox="0 0 78.926 78.925">
  <path id="Trazado_3" data-name="Trazado 3" d="M39.463,7.016c10.523,0,11.839,0,15.785.438A20.337,20.337,0,0,1,62.7,8.769a15.4,15.4,0,0,1,7.454,7.454,20.337,20.337,0,0,1,1.315,7.454c0,3.946.438,5.262.438,15.785s0,11.839-.438,15.785A20.337,20.337,0,0,1,70.156,62.7,15.4,15.4,0,0,1,62.7,70.156a20.337,20.337,0,0,1-7.454,1.315c-3.946,0-5.262.438-15.785.438s-11.839,0-15.785-.438a20.337,20.337,0,0,1-7.454-1.315A15.4,15.4,0,0,1,8.769,62.7a20.337,20.337,0,0,1-1.315-7.454c0-3.946-.438-5.262-.438-15.785s0-11.839.438-15.785a20.337,20.337,0,0,1,1.315-7.454,15.748,15.748,0,0,1,3.069-4.385,7.413,7.413,0,0,1,4.385-3.069,20.337,20.337,0,0,1,7.454-1.315c3.946-.438,5.262-.438,15.785-.438m0-7.016C28.939,0,27.185,0,23.239.438a27.07,27.07,0,0,0-9.646,1.754A17.165,17.165,0,0,0,6.577,6.577a17.165,17.165,0,0,0-4.385,7.016C.877,16.224.438,18.854.438,23.239,0,27.185,0,28.939,0,39.463S0,51.74.438,55.686a27.07,27.07,0,0,0,1.754,9.646,17.165,17.165,0,0,0,4.385,7.016,17.165,17.165,0,0,0,7.016,4.385,27.07,27.07,0,0,0,9.646,1.754c3.946.438,5.7.438,16.224.438s12.277,0,16.224-.438a27.07,27.07,0,0,0,9.646-1.754,18.4,18.4,0,0,0,11.4-11.4,27.07,27.07,0,0,0,1.754-9.646c0-4.385.438-5.7.438-16.224s0-12.277-.438-16.224a27.07,27.07,0,0,0-1.754-9.646,17.165,17.165,0,0,0-4.385-7.016,17.165,17.165,0,0,0-7.016-4.385A27.07,27.07,0,0,0,55.686.438C51.74,0,49.986,0,39.463,0m0,19.293a19.845,19.845,0,0,0-20.17,20.17,20.17,20.17,0,1,0,20.17-20.17m0,33.324A12.919,12.919,0,0,1,26.308,39.463,12.919,12.919,0,0,1,39.463,26.308,12.919,12.919,0,0,1,52.617,39.463,12.919,12.919,0,0,1,39.463,52.617M60.51,13.593a4.823,4.823,0,1,0,4.823,4.823,4.866,4.866,0,0,0-4.823-4.823" fill="#5e5b5c" fill-rule="evenodd"/>
</svg>
