<svg id="Group_1811" data-name="Group 1811" xmlns="http://www.w3.org/2000/svg" width="38.646" height="39.324" viewBox="0 0 38.646 39.324">
  <path id="Path_8422" data-name="Path 8422" d="M19.323,0A19.5,19.5,0,0,1,38.646,19.662,19.5,19.5,0,0,1,19.323,39.324,19.5,19.5,0,0,1,0,19.662,19.5,19.5,0,0,1,19.323,0Z" transform="translate(0 0)" fill="#5e5b5c"/>
  <g id="Instagram" transform="translate(10.849 11.099)">
    <path id="Path_3" data-name="Path 3" d="M8.463,1.5a25.948,25.948,0,0,1,3.385.094,4.361,4.361,0,0,1,1.6.282,3.3,3.3,0,0,1,1.6,1.6,4.361,4.361,0,0,1,.282,1.6c0,.846.094,1.128.094,3.385a25.949,25.949,0,0,1-.094,3.385,4.361,4.361,0,0,1-.282,1.6,3.3,3.3,0,0,1-1.6,1.6,4.361,4.361,0,0,1-1.6.282c-.846,0-1.128.094-3.385.094a25.949,25.949,0,0,1-3.385-.094,4.361,4.361,0,0,1-1.6-.282,3.3,3.3,0,0,1-1.6-1.6,4.361,4.361,0,0,1-.282-1.6C1.6,11,1.5,10.719,1.5,8.463A25.948,25.948,0,0,1,1.6,5.078a4.361,4.361,0,0,1,.282-1.6,3.377,3.377,0,0,1,.658-.94,1.59,1.59,0,0,1,.94-.658,4.361,4.361,0,0,1,1.6-.282A25.948,25.948,0,0,1,8.463,1.5m0-1.5A27.783,27.783,0,0,0,4.983.094,5.8,5.8,0,0,0,2.915.47a3.681,3.681,0,0,0-1.5.94,3.681,3.681,0,0,0-.94,1.5A4.284,4.284,0,0,0,.094,4.983,27.783,27.783,0,0,0,0,8.463a27.783,27.783,0,0,0,.094,3.479A5.8,5.8,0,0,0,.47,14.01a3.681,3.681,0,0,0,.94,1.5,3.681,3.681,0,0,0,1.5.94,5.8,5.8,0,0,0,2.069.376,27.783,27.783,0,0,0,3.479.094,27.783,27.783,0,0,0,3.479-.094,5.8,5.8,0,0,0,2.069-.376,3.945,3.945,0,0,0,2.445-2.445,5.8,5.8,0,0,0,.376-2.069c0-.94.094-1.222.094-3.479a27.783,27.783,0,0,0-.094-3.479,5.8,5.8,0,0,0-.376-2.069,3.681,3.681,0,0,0-.94-1.5,3.681,3.681,0,0,0-1.5-.94A5.8,5.8,0,0,0,11.942.094,27.783,27.783,0,0,0,8.463,0m0,4.137A4.256,4.256,0,0,0,4.137,8.463,4.325,4.325,0,1,0,8.463,4.137m0,7.146A2.77,2.77,0,0,1,5.642,8.463,2.77,2.77,0,0,1,8.463,5.642a2.77,2.77,0,0,1,2.821,2.821,2.77,2.77,0,0,1-2.821,2.821m4.513-8.368A1.034,1.034,0,1,0,14.01,3.949a1.043,1.043,0,0,0-1.034-1.034" fill="#fff" fill-rule="evenodd"/>
  </g>
</svg>
