<svg xmlns="http://www.w3.org/2000/svg" width="57" height="58" viewBox="0 0 57 58">
  <g id="Group_1447" data-name="Group 1447" transform="translate(-1001.919 -2578)">
    <ellipse id="Ellipse_2568" data-name="Ellipse 2568" cx="28.5" cy="29" rx="28.5" ry="29" transform="translate(1001.919 2578)" fill="#fff"/>
    <g id="Instagram" transform="translate(1017.92 2594.37)">
      <path id="Path_3" data-name="Path 3" d="M12.482,2.219a38.271,38.271,0,0,1,4.993.139,6.432,6.432,0,0,1,2.358.416,4.871,4.871,0,0,1,2.358,2.358,6.432,6.432,0,0,1,.416,2.358c0,1.248.139,1.664.139,4.993a38.272,38.272,0,0,1-.139,4.993,6.432,6.432,0,0,1-.416,2.358,4.87,4.87,0,0,1-2.358,2.358,6.432,6.432,0,0,1-2.358.416c-1.248,0-1.664.139-4.993.139a38.272,38.272,0,0,1-4.993-.139,6.432,6.432,0,0,1-2.358-.416,4.871,4.871,0,0,1-2.358-2.358,6.432,6.432,0,0,1-.416-2.358c0-1.248-.139-1.664-.139-4.993a38.271,38.271,0,0,1,.139-4.993,6.432,6.432,0,0,1,.416-2.358,4.981,4.981,0,0,1,.971-1.387,2.345,2.345,0,0,1,1.387-.971,6.432,6.432,0,0,1,2.358-.416,38.271,38.271,0,0,1,4.993-.139m0-2.219A40.977,40.977,0,0,0,7.35.139,8.562,8.562,0,0,0,4.3.693,5.429,5.429,0,0,0,2.08,2.08,5.429,5.429,0,0,0,.693,4.3,6.319,6.319,0,0,0,.139,7.35,40.977,40.977,0,0,0,0,12.482a40.977,40.977,0,0,0,.139,5.131,8.562,8.562,0,0,0,.555,3.051A5.429,5.429,0,0,0,2.08,22.883,5.429,5.429,0,0,0,4.3,24.27a8.562,8.562,0,0,0,3.051.555,40.978,40.978,0,0,0,5.131.139,40.978,40.978,0,0,0,5.131-.139,8.562,8.562,0,0,0,3.051-.555,5.818,5.818,0,0,0,3.606-3.606,8.562,8.562,0,0,0,.555-3.051c0-1.387.139-1.8.139-5.131a40.978,40.978,0,0,0-.139-5.131A8.562,8.562,0,0,0,24.27,4.3,5.429,5.429,0,0,0,22.883,2.08,5.429,5.429,0,0,0,20.664.693,8.562,8.562,0,0,0,17.613.139,40.977,40.977,0,0,0,12.482,0m0,6.1A6.277,6.277,0,0,0,6.1,12.482,6.379,6.379,0,1,0,12.482,6.1m0,10.54a4.086,4.086,0,0,1-4.161-4.161,4.086,4.086,0,0,1,4.161-4.161,4.086,4.086,0,0,1,4.161,4.161,4.086,4.086,0,0,1-4.161,4.161M19.138,4.3a1.526,1.526,0,1,0,1.526,1.526A1.539,1.539,0,0,0,19.138,4.3" fill="#5e5b5c" fill-rule="evenodd"/>
    </g>
  </g>
</svg>
