<svg xmlns="http://www.w3.org/2000/svg" width="185.834" height="58" viewBox="0 0 185.834 58">
  <g id="Group_1445" data-name="Group 1445" transform="translate(-429.118 -298.501)">
    <rect id="Rectangle_3066" data-name="Rectangle 3066" width="7.954" height="36.302" transform="translate(494.001 311.462)" fill="#fff"/>
    <path id="Path_7198" data-name="Path 7198" d="M507.529,308.578v36.315h-8.051l-4.11-18.171v18.171h-8.052V308.578h8.47l3.789,17.373V308.578Z" transform="translate(16.532 2.863)" fill="#fff"/>
    <path id="Path_7199" data-name="Path 7199" d="M522.125,344.891l-1.36-3.326c-1.46,2.286-3.728,3.326-6.785,3.326-5.945,0-8.909-3.576-8.909-10.958V318.452a12.652,12.652,0,0,1,.7-4.417,7.926,7.926,0,0,1,1.719-2.906,7.521,7.521,0,0,1,2.488-1.627,11.059,11.059,0,0,1,2.682-.769,18.737,18.737,0,0,1,2.609-.172,19.3,19.3,0,0,1,3.129.232,8.813,8.813,0,0,1,2.423.737,9.893,9.893,0,0,1,1.786,1.1,5.027,5.027,0,0,1,1.276,1.532,12.412,12.412,0,0,1,.824,1.794,10.807,10.807,0,0,1,.475,2.125c.11.836.182,1.608.223,2.329s.054,1.559.054,2.533H517.61V318.12a4.578,4.578,0,0,0-.185-1.416,1.561,1.561,0,0,0-.529-.792,1.931,1.931,0,0,0-1.249-.4,2.967,2.967,0,0,0-1.136.185,1.683,1.683,0,0,0-.67.448,1.791,1.791,0,0,0-.366.972,9.338,9.338,0,0,0-.151,1.332q-.017.632-.018,1.976v13.82a11.349,11.349,0,0,0,.062,1.325,5.563,5.563,0,0,0,.262,1.167,1.784,1.784,0,0,0,.7.949,2.1,2.1,0,0,0,1.224.327,1.622,1.622,0,0,0,1.649-.926,7.96,7.96,0,0,0,.411-3.021v-4.131h-2.2v-6.166h9.958l-.037,21.118Z" transform="translate(21.576 2.858)" fill="#fff"/>
    <path id="Path_7200" data-name="Path 7200" d="M531.324,328.364v16.522h-8.33V308.578h12.634a9.512,9.512,0,0,1,3.319.512,5.136,5.136,0,0,1,3.43,3.556,13.05,13.05,0,0,1,.593,2.762,32.451,32.451,0,0,1,.148,3.337c0,.681-.017,1.239-.039,1.676a11.96,11.96,0,0,1-.254,1.638,5.834,5.834,0,0,1-.627,1.654,5.106,5.106,0,0,1-1.2,1.3,5.963,5.963,0,0,1-1.956.98,4.438,4.438,0,0,1,1.89.76,3.242,3.242,0,0,1,1.081,1.383,7.487,7.487,0,0,1,.44,1.513,9.615,9.615,0,0,1,.12,1.565q0,9.008-.1,13.671h-8.051V330.733a4.263,4.263,0,0,0-.168-1.341,1.179,1.179,0,0,0-.66-.718,2.811,2.811,0,0,0-.921-.266c-.291-.03-.749-.045-1.356-.045m.045-13.068v6.775h2.06c1.09,0,1.64-1.107,1.64-3.326,0-1.477-.218-2.419-.642-2.83a3.937,3.937,0,0,0-2.614-.619Z" transform="translate(26.667 2.863)" fill="#fff"/>
    <path id="Path_7201" data-name="Path 7201" d="M540.319,334.967v-26.4h8v25.857c0,.393,0,.7.015.923a6.352,6.352,0,0,0,.116.927,2.682,2.682,0,0,0,.3.919,1.8,1.8,0,0,0,.6.6,1.762,1.762,0,0,0,.985.257,2.15,2.15,0,0,0,.851-.154,1.224,1.224,0,0,0,.574-.487,4.785,4.785,0,0,0,.347-.629,3.114,3.114,0,0,0,.168-.813c.035-.338.054-.6.067-.777s.006-.435.006-.768V308.572h8v26.4c0,3.251-.8,5.712-2.42,7.4s-4.127,2.539-7.543,2.525c-3.477.014-6.02-.841-7.636-2.525s-2.422-4.146-2.422-7.4" transform="translate(31.588 2.861)" fill="#fff"/>
    <path id="Path_7202" data-name="Path 7202" d="M558.249,344.888v-36.31h10.879a11.57,11.57,0,0,1,3.764.547,7.433,7.433,0,0,1,2.851,1.775,7.846,7.846,0,0,1,1.884,3.409,18.749,18.749,0,0,1,.645,5.279,23.73,23.73,0,0,1-.384,4.571,10.047,10.047,0,0,1-1.32,3.384,5.744,5.744,0,0,1-2.658,2.221,10.652,10.652,0,0,1-4.219.74h-3.348v14.384Zm8.092-29.707v8.786h.474c.435,0,.76-.013.989-.035a6.009,6.009,0,0,0,.791-.159,1.255,1.255,0,0,0,.683-.416,3.858,3.858,0,0,0,.769-2.035,17.764,17.764,0,0,0,.078-1.871,6.235,6.235,0,0,0-.637-3.333,2.528,2.528,0,0,0-2.237-.936Z" transform="translate(36.682 2.863)" fill="#fff"/>
    <path id="Path_7203" data-name="Path 7203" d="M430.965,346.557c9.533-9.178,18-27.466,18-27.466l7.558,4.122c-1.728,3.658-7.255,17.063-18.08,27.389a.191.191,0,0,1-.239.015c-1.031-.624-7.243-4.06-7.243-4.06" transform="translate(0.525 5.849)" fill="#fff"/>
    <path id="Path_7204" data-name="Path 7204" d="M455.489,322.418s-7.308,17.629-18.145,27.289a93.9,93.9,0,0,1,47.8-8.084s-18.7-6.754-29.654-19.2" transform="translate(2.337 6.794)" fill="#fff"/>
    <path id="Path_7205" data-name="Path 7205" d="M439.355,320.2l3.624,2.4c4.472-2.824,23.041-10.261,23.041-10.261l2.236-3.012Z" transform="translate(2.908 3.074)" fill="#fff"/>
    <path id="Path_7206" data-name="Path 7206" d="M442.1,322.01l29.03-10.862L445.44,302.3l.047,4.99c-18.239,3.7-16.31,19.817-16.31,19.817.1-8.943,15.274-10.262,15.274-10.262Z" transform="translate(0 1.08)" fill="#fff"/>
    <path id="Path_7207" data-name="Path 7207" d="M434.569,319.041c-5.037,3.973.88,8.791,7.4,10.644.245-.446.479-.869.669-1.217-9.3-2.269-9.769-6.524-8.067-9.426" transform="translate(1.012 5.835)" fill="#fff"/>
    <path id="Path_7208" data-name="Path 7208" d="M461.141,309.956c-.731-2.6-1.4-5.328-1.985-8.239,0,0-.641,3.2-1.536,7.017Z" transform="translate(8.096 0.914)" fill="#fff"/>
    <path id="Path_7209" data-name="Path 7209" d="M463.154,311.723l-7.363,3.131c-.092.272-.182.538-.272.787,0,0,10.672,20.548,26.245,29.36l3.812.379s-14.1-8.756-22.422-33.657" transform="translate(7.5 3.756)" fill="#fff"/>
    <path id="Path_7210" data-name="Path 7210" d="M459,309.5l1.8-7.007L453.2,298.5a73.856,73.856,0,0,1-1.984,8.3Z" transform="translate(6.279 0)" fill="#fff"/>
    <path id="Path_7211" data-name="Path 7211" d="M456.218,314.949l.17-.659-4.338,1.845c15.174,23.126,30.468,28.327,30.468,28.327-15.744-9.356-26.3-29.513-26.3-29.513" transform="translate(6.514 4.485)" fill="#fff"/>
    <path id="Path_7212" data-name="Path 7212" d="M461.151,327.06c-1.473.309-2.734.526-3.607.663.413.317.94.722,1.488,1.138,1.086-.191,2.185-.416,3.274-.66-.424-.416-.829-.818-1.156-1.14" transform="translate(8.075 8.113)" fill="#fff"/>
    <path id="Path_7213" data-name="Path 7213" d="M475.449,319.014c-.1,3.265-3.481,5.709-7.562,7.441.19.343.446.741.725,1.143a17.288,17.288,0,0,0,2.875-1.529c5.319-3.688,3.961-7.055,3.961-7.055" transform="translate(11.013 5.827)" fill="#fff"/>
    <path id="Path_7214" data-name="Path 7214" d="M471.957,315.42a42.738,42.738,0,0,0-7.46-3.247c16.074,6.908,13.285,12.344,8.308,15.908a16.918,16.918,0,0,1-3.082,1.668c.32.451.65.887.922,1.238a17.763,17.763,0,0,0,5.938-4.777c3.636-4.788-1.871-9.072-4.625-10.79" transform="translate(10.05 3.884)" fill="#fff"/>
    <path id="Path_7215" data-name="Path 7215" d="M462.1,328.083c-1.309.3-2.433.528-3.208.675.7.533,1.4,1.059,1.893,1.412.969-.175,1.93-.375,2.872-.6-.425-.392-1-.94-1.558-1.488" transform="translate(8.459 8.403)" fill="#fff"/>
    <path id="Path_7216" data-name="Path 7216" d="M441.944,317.819l1.836-3.978c-18.523,2.589-19.641,16.686-2.369,20.1.4-.679.922-1.618,1.41-2.5-8.317-2.31-15.714-9.483-.877-13.618" transform="translate(0.006 4.358)" fill="#fff"/>
  </g>
</svg>
