<svg xmlns="http://www.w3.org/2000/svg" width="67.497" height="87.521" viewBox="0 0 67.497 87.521">
  <g id="Grupo_1851" data-name="Grupo 1851" transform="translate(-1260.079 -565.663)">
    <g id="multimedia-option" transform="translate(1260.663 565.663)">
      <path id="Trazado_8395" data-name="Trazado 8395" d="M0,447.793H66.912v4.78H0Z" transform="translate(0 -385.66)" fill="#44d62c"/>
      <path id="Trazado_8396" data-name="Trazado 8396" d="M129.182,31.062l-3.37-3.379L110.069,43.426V0h-4.779V43.426L89.542,27.678l-3.361,3.379,21.5,21.517Z" transform="translate(-74.223)" fill="#44d62c"/>
    </g>
    <path id="Trazado_8397" data-name="Trazado 8397" d="M4.825-3.27l.1.492h.053l.1-.466L7.207-12.8H9.835L6.258,0h-2.6L.079-12.8H2.707ZM17.692-5.616h-4.3V-2h5.054V0H10.89V-12.8h7.541v2H13.395v3.19h4.3Zm4.562.527V0h-2.5V-12.788h4.175a4.2,4.2,0,0,1,2.966,1,3.593,3.593,0,0,1,1.077,2.773,3.219,3.219,0,0,1-.448,1.727,3.146,3.146,0,0,1-1.31,1.156,2.449,2.449,0,0,1,1.419,1.107,3.9,3.9,0,0,1,.435,1.934v.905A5.655,5.655,0,0,0,28.2-1.059a1.548,1.548,0,0,0,.431.875V0H26.042a1.442,1.442,0,0,1-.387-.914,10.408,10.408,0,0,1-.079-1.292v-.87a2.454,2.454,0,0,0-.391-1.485,1.311,1.311,0,0,0-1.121-.527Zm0-2h1.67a1.437,1.437,0,0,0,1.16-.466,1.994,1.994,0,0,0,.4-1.327,2.249,2.249,0,0,0-.4-1.4,1.359,1.359,0,0,0-1.151-.519H22.254ZM37.107-12.8,39.4-3.4h.053l2.32-9.4h3.261V0H42.548V-3.718l.211-4.975L42.706-8.7,40.263,0H38.6L36.185-8.631l-.053.009.22,4.9V0H33.864V-12.8ZM52.84-2.733H49.465L48.779,0H46.257l3.6-12.8h2.6L56.057,0H53.534Zm-2.865-2H52.33L51.179-9.255h-.053Zm1.459-11.32h2.628l.026.053L51.9-13.711l-2.013,0ZM62.736-3.34a1.715,1.715,0,0,0-.387-1.182,3.938,3.938,0,0,0-1.362-.857,9.006,9.006,0,0,1-2.993-1.578,3.132,3.132,0,0,1-1-2.474,3.209,3.209,0,0,1,1.16-2.562,4.406,4.406,0,0,1,2.962-.989,4.1,4.1,0,0,1,2.971,1.1A3.592,3.592,0,0,1,65.2-9.1l-.018.053H62.754a2.2,2.2,0,0,0-.439-1.424,1.5,1.5,0,0,0-1.239-.545,1.505,1.505,0,0,0-1.165.453,1.614,1.614,0,0,0-.417,1.138,1.324,1.324,0,0,0,.466,1.042,6.565,6.565,0,0,0,1.617.91,6.807,6.807,0,0,1,2.738,1.56,3.507,3.507,0,0,1,.918,2.553,3.23,3.23,0,0,1-1.107,2.6,4.4,4.4,0,0,1-2.944.94A4.931,4.931,0,0,1,58.012-.883a3.578,3.578,0,0,1-1.3-3.063L56.733-4h2.435a2.4,2.4,0,0,0,.5,1.705,2.012,2.012,0,0,0,1.512.519A1.507,1.507,0,0,0,62.354-2.2,1.637,1.637,0,0,0,62.736-3.34Z" transform="translate(1260 653)" fill="#44d62c"/>
  </g>
</svg>
