<svg xmlns="http://www.w3.org/2000/svg" width="128.168" height="155.306" viewBox="0 0 128.168 155.306"><g transform="translate(-53 -30.66)"><rect width="128.168" height="155.306" rx="14" transform="translate(53 30.66)" fill="#fff" opacity="0.93"/><text transform="translate(117 168)" fill="#5e5b5c" font-size="13" font-family="RobotoCondensed-Bold, Roboto" font-weight="700"><tspan x="-20.284" y="0">Bebidas</tspan></text><g transform="translate(-44.047 60)"><g transform="translate(144.047)"><path d="M179.018,53.073a5.541,5.541,0,0,0-2.138-4.384,5.52,5.52,0,0,0-.243-8.924,6.142,6.142,0,0,0,2.322-4.853V23.241L167.723,8.611h2.469V0H152.814V8.611h2.625l-11.392,14.63V34.913a6.21,6.21,0,0,0,2.4,4.853,5.555,5.555,0,0,0-.182,8.924,5.579,5.579,0,0,0,.179,8.924,6.207,6.207,0,0,0-2.4,4.853v10.02a6.326,6.326,0,0,0,6.262,6.262h6.262v-.1A6.22,6.22,0,0,0,160.329,80h2.5a6.219,6.219,0,0,0,3.757-1.355v.1h6.262a6.192,6.192,0,0,0,6.106-6.262V62.467a6.14,6.14,0,0,0-2.319-4.853A5.572,5.572,0,0,0,179.018,53.073ZM155.163,6.262V2.348h12.681V6.262Zm3.24,2.348h6.358l10.718,13.934H147.684ZM173.48,49.942a3.209,3.209,0,1,1,0,6.419h-3.131v2.348h2.5a3.707,3.707,0,0,1,3.757,3.757v10.02a3.842,3.842,0,0,1-3.757,3.914h-4.4a7.082,7.082,0,0,0,.567-2.661H166.67a3.908,3.908,0,0,1-3.836,3.914h-2.505a3.908,3.908,0,0,1-3.836-3.914h-2.348a7.081,7.081,0,0,0,.568,2.661h-4.4a3.975,3.975,0,0,1-3.914-3.914V62.467a3.842,3.842,0,0,1,3.914-3.757h12.525V56.361H149.683a3.209,3.209,0,0,1,0-6.419h13.151V47.594H149.683a3.209,3.209,0,0,1,0-6.419h13.151V38.827H150.309a3.975,3.975,0,0,1-3.914-3.914V24.893h30.216v10.02a3.842,3.842,0,0,1-3.757,3.914h-2.5v2.348h3.131a3.209,3.209,0,1,1,0,6.419h-3.131v2.348Z" transform="translate(-144.047)" fill="#5e5b5c"/></g><g transform="translate(152.815 17.534)"><rect width="2.505" height="2.348" fill="#5e5b5c"/></g><g transform="translate(155.32 15.03)"><g transform="translate(0)"><rect width="2.505" height="2.348" fill="#5e5b5c"/></g></g><g transform="translate(165.34 47.594)"><g transform="translate(0)"><rect width="2.505" height="2.348" fill="#5e5b5c"/></g></g><g transform="translate(165.34 38.826)"><g transform="translate(0)"><rect width="2.505" height="2.348" fill="#5e5b5c"/></g></g><g transform="translate(165.34 56.361)"><g transform="translate(0)"><rect width="2.505" height="2.348" fill="#5e5b5c"/></g></g></g></g></svg>