<svg xmlns="http://www.w3.org/2000/svg" xmlns:xlink="http://www.w3.org/1999/xlink" width="160" height="190" viewBox="0 0 160 190"><defs><clipPath id="b"><rect width="160" height="190"/></clipPath></defs><g id="a" clip-path="url(#b)"><g transform="translate(-200 -12.66)"><rect width="128" height="155" rx="14" transform="translate(216 30.66)" fill="none" opacity="0.93"/><g transform="translate(214.992 72.659)"><path d="M86.855,59.675c3.93-10.594,3.93-41.417,0-52.01L88.008,1.56A1.316,1.316,0,0,0,86.715,0H43.1A1.316,1.316,0,0,0,41.8,1.56l1.152,6.106c-3.93,10.593-3.93,41.416,0,52.01L41.8,65.781a1.316,1.316,0,0,0,1.293,1.56H86.718a1.317,1.317,0,0,0,1.268-1.667ZM85.128,2.631,84.4,6.469h-39l-.724-3.838ZM45.237,9.1H84.572c3.467,10.276,3.467,38.862,0,49.139H45.237C41.771,47.963,41.771,19.376,45.237,9.1Zm-.555,55.609.725-3.838h39l.724,3.838Z" transform="translate(0)" fill="#5e5b5c"/><path d="M79.235,125.378l.011,0,.076.012a2.581,2.581,0,0,0,.321.019,17.863,17.863,0,0,0,4.262-1.035,29.214,29.214,0,0,1,5.755-1.407c.145-.008.288-.012.431-.012a16.5,16.5,0,0,1,3.684.576,22.591,22.591,0,0,0,5.321.758c1.678,0,5.878-.308,8.618-3.163a8.638,8.638,0,0,0,2.277-6.606c-.3-7.374-8.3-10.564-12.318-10.564-6.1,0-9.5,5.024-10.707,8.3-8.213,1.2-10.982,7.848-10.982,9.607A3.457,3.457,0,0,0,79.235,125.378Zm18.437-18.789c2.754,0,9.453,2.314,9.689,8.041a6.112,6.112,0,0,1-1.546,4.675c-2.1,2.184-5.673,2.354-6.72,2.354a20.144,20.144,0,0,1-4.725-.69,18.747,18.747,0,0,0-4.28-.644c-.194,0-.388.005-.578.016a19.028,19.028,0,0,0-3.79.744,28.322,28.322,0,0,0,3.49-7.232c0-.006,0-.013.005-.02s0-.008,0-.012C89.305,113.527,91.359,106.588,97.672,106.588Zm-11.74,8.562c-1.255,3.006-3.6,7.2-6.442,7.606-.873-.156-.875-.594-.875-.881C78.652,121.179,80.344,116.6,85.932,115.15Z" transform="translate(-28.087 -81.161)" fill="#5e5b5c"/></g><path d="M-20.773-1.974H-23.21L-23.705,0h-1.822l2.6-9.242h1.879L-18.449,0h-1.822Zm-2.069-1.441h1.7l-.832-3.269h-.038ZM-15.961,0h-1.8V-9.9h1.8Zm3.142,0h-1.8V-6.868h1.8Zm0-8.525h-1.8V-9.9h1.8Zm2.945,1.657.07.876a2.046,2.046,0,0,1,.686-.743A1.735,1.735,0,0,1-8.173-7a1.523,1.523,0,0,1,.908.276,1.7,1.7,0,0,1,.59.841A2.151,2.151,0,0,1-5.989-6.7,1.667,1.667,0,0,1-5.011-7a1.555,1.555,0,0,1,1.343.7,3.757,3.757,0,0,1,.492,2.142V0H-4.986V-4.156a2.434,2.434,0,0,0-.171-1.1.571.571,0,0,0-.533-.3.751.751,0,0,0-.463.153,1.161,1.161,0,0,0-.336.419q.006.121.013.238t.006.245V0h-1.8V-4.156a2.4,2.4,0,0,0-.175-1.093.582.582,0,0,0-.543-.305.8.8,0,0,0-.441.124,1.09,1.09,0,0,0-.333.346V0h-1.8V-6.868Zm10.55,7A2.623,2.623,0,0,1-1.381-.717a3.1,3.1,0,0,1-.762-2.146v-.965a3.545,3.545,0,0,1,.708-2.279A2.365,2.365,0,0,1,.524-7a2.276,2.276,0,0,1,1.866.806,3.366,3.366,0,0,1,.66,2.2v1.1h-3.4v.025A1.9,1.9,0,0,0-.038-1.746a1.061,1.061,0,0,0,.93.438,2.482,2.482,0,0,0,.825-.114A4.341,4.341,0,0,0,2.472-1.8L2.929-.654a2.723,2.723,0,0,1-.949.565A3.694,3.694,0,0,1,.676.133ZM.524-5.554a.67.67,0,0,0-.635.4A2.564,2.564,0,0,0-.34-4.094H1.279v-.255A1.831,1.831,0,0,0,1.1-5.239.612.612,0,0,0,.524-5.554ZM5.608-6.868l.076.946a2.289,2.289,0,0,1,.7-.79A1.6,1.6,0,0,1,7.3-7a1.591,1.591,0,0,1,1.349.66,3.5,3.5,0,0,1,.492,2.076V0H7.335V-4.264a1.842,1.842,0,0,0-.2-1,.7.7,0,0,0-.619-.289.822.822,0,0,0-.444.127,1.083,1.083,0,0,0-.343.349V0h-1.8V-6.868Zm6.811-1.708v1.708h.952v1.308h-.952v3.447a1.122,1.122,0,0,0,.121.6.377.377,0,0,0,.33.181,2.076,2.076,0,0,0,.279-.016A2.043,2.043,0,0,0,13.4-1.4l.14,1.371A3.6,3.6,0,0,1,13,.1a4.109,4.109,0,0,1-.59.038A1.656,1.656,0,0,1,11.077-.4a2.589,2.589,0,0,1-.46-1.7V-5.561H9.8V-6.868h.813V-8.576Zm1.625,4.723a3.415,3.415,0,0,1,.733-2.263A2.526,2.526,0,0,1,16.831-7a2.536,2.536,0,0,1,2.057.879,3.4,3.4,0,0,1,.736,2.263V-3a3.387,3.387,0,0,1-.736,2.266,2.541,2.541,0,0,1-2.05.87,2.546,2.546,0,0,1-2.06-.87A3.4,3.4,0,0,1,14.044-3Zm1.8.848a2.867,2.867,0,0,0,.222,1.246.791.791,0,0,0,.774.451.782.782,0,0,0,.759-.455,2.835,2.835,0,0,0,.225-1.243v-.852A2.843,2.843,0,0,0,17.6-5.093a.785.785,0,0,0-.765-.461.785.785,0,0,0-.765.464,2.847,2.847,0,0,0-.225,1.233ZM23.566-1.8a.667.667,0,0,0-.229-.5,3.847,3.847,0,0,0-.876-.524A4.619,4.619,0,0,1,20.909-3.7a1.667,1.667,0,0,1-.517-1.27A1.854,1.854,0,0,1,21.055-6.4,2.533,2.533,0,0,1,22.81-7a2.626,2.626,0,0,1,1.822.609,1.922,1.922,0,0,1,.654,1.555l-.019.038H23.528a1.176,1.176,0,0,0-.178-.686.621.621,0,0,0-.546-.254.685.685,0,0,0-.5.2.638.638,0,0,0-.2.476.638.638,0,0,0,.2.492,4.091,4.091,0,0,0,.882.511,4.278,4.278,0,0,1,1.6.873,1.76,1.76,0,0,1,.521,1.323,1.756,1.756,0,0,1-.7,1.435,2.849,2.849,0,0,1-1.834.559A2.539,2.539,0,0,1,20.9-.559a2.043,2.043,0,0,1-.66-1.562l.013-.038H21.9a1.12,1.12,0,0,0,.254.787.9.9,0,0,0,.667.241.781.781,0,0,0,.552-.178A.636.636,0,0,0,23.566-1.8Z" transform="translate(280.528 168)" fill="#5e5b5c"/></g></g></svg>