<svg xmlns="http://www.w3.org/2000/svg" xmlns:xlink="http://www.w3.org/1999/xlink" width="160" height="190" viewBox="0 0 160 190"><defs><clipPath id="b"><rect width="160" height="190"/></clipPath></defs><g id="a" clip-path="url(#b)"><g transform="translate(-37 -12.66)"><rect width="128" height="155" rx="14" transform="translate(53 30.66)" fill="none" opacity="0.93"/><path d="M-19.586,0V-9.242h2.723a3.512,3.512,0,0,1,2.231.635,2.265,2.265,0,0,1,.8,1.892,2.318,2.318,0,0,1-.292,1.171A1.8,1.8,0,0,1-15-4.78a1.64,1.64,0,0,1,1.079.743A2.517,2.517,0,0,1-13.568-2.7a2.574,2.574,0,0,1-.759,2.012A3.134,3.134,0,0,1-16.5,0Zm1.809-4.075v2.634H-16.5a1.084,1.084,0,0,0,.854-.317,1.384,1.384,0,0,0,.282-.946,1.8,1.8,0,0,0-.241-1.016.868.868,0,0,0-.774-.355Zm0-1.263h1a1.157,1.157,0,0,0,.847-.321,1.235,1.235,0,0,0,.3-.888,1.293,1.293,0,0,0-.3-.951,1.257,1.257,0,0,0-.92-.3h-.914ZM-9.817.133a2.623,2.623,0,0,1-2.057-.851,3.1,3.1,0,0,1-.762-2.146v-.965a3.545,3.545,0,0,1,.708-2.279A2.365,2.365,0,0,1-9.969-7,2.276,2.276,0,0,1-8.1-6.189a3.366,3.366,0,0,1,.66,2.2v1.1h-3.4v.025a1.9,1.9,0,0,0,.308,1.117,1.061,1.061,0,0,0,.93.438,2.482,2.482,0,0,0,.825-.114A4.341,4.341,0,0,0-8.02-1.8l.457,1.149a2.723,2.723,0,0,1-.949.565A3.694,3.694,0,0,1-9.817.133Zm-.152-5.687a.67.67,0,0,0-.635.4,2.564,2.564,0,0,0-.229,1.065h1.619v-.255a1.831,1.831,0,0,0-.178-.889A.612.612,0,0,0-9.969-5.554Zm8.817,2.647A3.812,3.812,0,0,1-1.727-.692,1.923,1.923,0,0,1-3.412.133a1.564,1.564,0,0,1-.841-.222,1.865,1.865,0,0,1-.613-.647L-4.973,0H-6.535V-9.9h1.8v3.618a1.739,1.739,0,0,1,.568-.527A1.481,1.481,0,0,1-3.425-7a1.912,1.912,0,0,1,1.695.86A4.055,4.055,0,0,1-1.152-3.84Zm-1.8-.937a3.188,3.188,0,0,0-.2-1.259.737.737,0,0,0-.74-.451.854.854,0,0,0-.5.146,1.077,1.077,0,0,0-.343.413v3.21a.854.854,0,0,0,.34.353,1.041,1.041,0,0,0,.511.118.741.741,0,0,0,.74-.4A2.857,2.857,0,0,0-2.948-2.91ZM1.666,0h-1.8V-6.868h1.8Zm0-8.525h-1.8V-9.9h1.8ZM2.682-3.4A5.013,5.013,0,0,1,3.279-6,1.867,1.867,0,0,1,4.961-7a1.4,1.4,0,0,1,.724.19,1.9,1.9,0,0,1,.578.546V-9.9h1.8V0H6.5L6.376-.749a2.019,2.019,0,0,1-.619.657,1.458,1.458,0,0,1-.8.225A1.882,1.882,0,0,1,3.275-.8a4.531,4.531,0,0,1-.594-2.466Zm1.8.134A3.889,3.889,0,0,0,4.7-1.823a.737.737,0,0,0,.72.516.9.9,0,0,0,.489-.131,1.078,1.078,0,0,0,.355-.379V-4.949A1.272,1.272,0,0,0,5.906-5.4a.766.766,0,0,0-.476-.159.764.764,0,0,0-.724.592A4.553,4.553,0,0,0,4.485-3.4ZM12.584,0a3.082,3.082,0,0,1-.136-.375,3.057,3.057,0,0,1-.092-.413,2.147,2.147,0,0,1-.619.67,1.46,1.46,0,0,1-.847.251A1.756,1.756,0,0,1,9.528-.425a2.124,2.124,0,0,1-.511-1.492,1.955,1.955,0,0,1,.651-1.568A2.9,2.9,0,0,1,11.6-4.043h.679V-4.6a1.381,1.381,0,0,0-.181-.771.61.61,0,0,0-.543-.27.523.523,0,0,0-.457.216,1.085,1.085,0,0,0-.152.628L9.2-4.805l-.019-.038a1.883,1.883,0,0,1,.663-1.523A2.626,2.626,0,0,1,11.677-7a2.451,2.451,0,0,1,1.742.625,2.317,2.317,0,0,1,.67,1.781v2.78a6.016,6.016,0,0,0,.07.946A5.153,5.153,0,0,0,14.374,0ZM11.41-1.225a.929.929,0,0,0,.5-.146,1.084,1.084,0,0,0,.365-.375V-3.009H11.6a.657.657,0,0,0-.6.286A1.312,1.312,0,0,0,10.82-2a.919.919,0,0,0,.159.559A.507.507,0,0,0,11.41-1.225ZM18.221-1.8a.667.667,0,0,0-.229-.5,3.847,3.847,0,0,0-.876-.524A4.619,4.619,0,0,1,15.564-3.7a1.667,1.667,0,0,1-.517-1.27A1.854,1.854,0,0,1,15.71-6.4,2.533,2.533,0,0,1,17.466-7a2.626,2.626,0,0,1,1.822.609,1.922,1.922,0,0,1,.654,1.555l-.019.038H18.183a1.176,1.176,0,0,0-.178-.686.621.621,0,0,0-.546-.254.685.685,0,0,0-.5.2.638.638,0,0,0-.2.476.638.638,0,0,0,.2.492,4.091,4.091,0,0,0,.882.511,4.278,4.278,0,0,1,1.6.873,1.76,1.76,0,0,1,.521,1.323,1.756,1.756,0,0,1-.7,1.435,2.849,2.849,0,0,1-1.834.559,2.539,2.539,0,0,1-1.879-.692,2.043,2.043,0,0,1-.66-1.562l.013-.038h1.65a1.12,1.12,0,0,0,.254.787.9.9,0,0,0,.667.241.781.781,0,0,0,.552-.178A.636.636,0,0,0,18.221-1.8Z" transform="translate(116.586 168)" fill="#5e5b5c"/><g transform="translate(-44.047 60)"><g transform="translate(144.047)"><path d="M179.018,53.073a5.541,5.541,0,0,0-2.138-4.384,5.52,5.52,0,0,0-.243-8.924,6.142,6.142,0,0,0,2.322-4.853V23.241L167.723,8.611h2.469V0H152.814V8.611h2.625l-11.392,14.63V34.913a6.21,6.21,0,0,0,2.4,4.853,5.555,5.555,0,0,0-.182,8.924,5.579,5.579,0,0,0,.179,8.924,6.207,6.207,0,0,0-2.4,4.853v10.02a6.326,6.326,0,0,0,6.262,6.262h6.262v-.1A6.22,6.22,0,0,0,160.329,80h2.5a6.219,6.219,0,0,0,3.757-1.355v.1h6.262a6.192,6.192,0,0,0,6.106-6.262V62.467a6.14,6.14,0,0,0-2.319-4.853A5.572,5.572,0,0,0,179.018,53.073ZM155.163,6.262V2.348h12.681V6.262Zm3.24,2.348h6.358l10.718,13.934H147.684ZM173.48,49.942a3.209,3.209,0,1,1,0,6.419h-3.131v2.348h2.5a3.707,3.707,0,0,1,3.757,3.757v10.02a3.842,3.842,0,0,1-3.757,3.914h-4.4a7.082,7.082,0,0,0,.567-2.661H166.67a3.908,3.908,0,0,1-3.836,3.914h-2.505a3.908,3.908,0,0,1-3.836-3.914h-2.348a7.081,7.081,0,0,0,.568,2.661h-4.4a3.975,3.975,0,0,1-3.914-3.914V62.467a3.842,3.842,0,0,1,3.914-3.757h12.525V56.361H149.683a3.209,3.209,0,0,1,0-6.419h13.151V47.594H149.683a3.209,3.209,0,0,1,0-6.419h13.151V38.827H150.309a3.975,3.975,0,0,1-3.914-3.914V24.893h30.216v10.02a3.842,3.842,0,0,1-3.757,3.914h-2.5v2.348h3.131a3.209,3.209,0,1,1,0,6.419h-3.131v2.348Z" transform="translate(-144.047)" fill="#5e5b5c"/></g><g transform="translate(152.815 17.534)"><rect width="2.505" height="2.348" fill="#5e5b5c"/></g><g transform="translate(155.32 15.03)"><g transform="translate(0)"><rect width="2.505" height="2.348" fill="#5e5b5c"/></g></g><g transform="translate(165.34 47.594)"><g transform="translate(0)"><rect width="2.505" height="2.348" fill="#5e5b5c"/></g></g><g transform="translate(165.34 38.826)"><g transform="translate(0)"><rect width="2.505" height="2.348" fill="#5e5b5c"/></g></g><g transform="translate(165.34 56.361)"><g transform="translate(0)"><rect width="2.505" height="2.348" fill="#5e5b5c"/></g></g></g></g></g></svg>