<svg xmlns="http://www.w3.org/2000/svg" xmlns:xlink="http://www.w3.org/1999/xlink" width="160" height="190" viewBox="0 0 160 190">
  <defs>
    <filter id="Rect치ngulo_2917" x="-2" y="2" width="164" height="191" filterUnits="userSpaceOnUse">
      <feOffset dy="2" input="SourceAlpha"/>
      <feGaussianBlur stdDeviation="6" result="blur"/>
      <feFlood flood-color="#44d62c" flood-opacity="0.651"/>
      <feComposite operator="in" in2="blur"/>
      <feComposite in="SourceGraphic"/>
    </filter>
    <clipPath id="clip-CajillasPlegadizas01">
      <rect width="160" height="190"/>
    </clipPath>
  </defs>
  <g id="CajillasPlegadizas01" clip-path="url(#clip-CajillasPlegadizas01)">
    <g id="Grupo_1628" data-name="Grupo 1628">
      <g id="Grupo_1563" data-name="Grupo 1563" transform="translate(-4211 -328.66)">
        <g transform="matrix(1, 0, 0, 1, 4211, 328.66)" filter="url(#Rect치ngulo_2917)">
          <g id="Rect치ngulo_2917-2" data-name="Rect치ngulo 2917" transform="translate(16 18)" fill="#44d62c" stroke="#fff" stroke-width="1" opacity="0.93">
            <rect width="128" height="155" rx="14" stroke="none"/>
            <rect x="0.5" y="0.5" width="127" height="154" rx="13.5" fill="none"/>
          </g>
        </g>
        <path id="Trazado_9421" data-name="Trazado 9421" d="M-44.341-3.206l.021.041A3.421,3.421,0,0,1-45.1-.69a3.077,3.077,0,0,1-2.338.834A3.288,3.288,0,0,1-49.906-.8a3.685,3.685,0,0,1-.923-2.683V-6.46a3.777,3.777,0,0,1,.892-2.683,3.115,3.115,0,0,1,2.389-.954,3.163,3.163,0,0,1,2.4.848,3.591,3.591,0,0,1,.837,2.509l-.021.041h-1.873a2.323,2.323,0,0,0-.267-1.413,1.228,1.228,0,0,0-1.073-.432,1.141,1.141,0,0,0-1,.513A2.788,2.788,0,0,0-48.9-6.478v2.99a2.674,2.674,0,0,0,.373,1.567,1.263,1.263,0,0,0,1.09.513,1.1,1.1,0,0,0,.981-.407,2.43,2.43,0,0,0,.243-1.391ZM-39.666,0a3.319,3.319,0,0,1-.147-.4,3.293,3.293,0,0,1-.1-.444,2.312,2.312,0,0,1-.667.721,1.572,1.572,0,0,1-.913.27,1.891,1.891,0,0,1-1.466-.6,2.288,2.288,0,0,1-.55-1.606,2.105,2.105,0,0,1,.7-1.688,3.121,3.121,0,0,1,2.082-.6h.731v-.6a1.487,1.487,0,0,0-.195-.831.657.657,0,0,0-.584-.291.563.563,0,0,0-.492.232,1.168,1.168,0,0,0-.164.677l-1.88-.007-.021-.041a2.027,2.027,0,0,1,.714-1.641,2.828,2.828,0,0,1,1.972-.677,2.639,2.639,0,0,1,1.876.673,2.5,2.5,0,0,1,.721,1.917v2.994A6.479,6.479,0,0,0-37.97-.93a5.549,5.549,0,0,0,.232.93ZM-40.93-1.319a1,1,0,0,0,.543-.157,1.167,1.167,0,0,0,.393-.4V-3.24h-.731a.707.707,0,0,0-.643.308,1.413,1.413,0,0,0-.2.779.99.99,0,0,0,.171.6A.547.547,0,0,0-40.93-1.319ZM-34.744-7.4V.226a3.05,3.05,0,0,1-.615,2.044,2.13,2.13,0,0,1-1.709.718,2.889,2.889,0,0,1-.437-.03q-.2-.03-.437-.091l.082-1.512a2.8,2.8,0,0,0,.273.062,1.67,1.67,0,0,0,.273.021.5.5,0,0,0,.461-.3,1.963,1.963,0,0,0,.161-.9V-7.4Zm-.041-1.784h-1.941v-1.483h1.941ZM-31.456,0H-33.4V-7.4h1.941Zm0-9.181H-33.4v-1.483h1.941ZM-28.072,0h-1.941V-10.664h1.941Zm3.384,0h-1.941V-10.664h1.941Zm4.956,0a3.319,3.319,0,0,1-.147-.4,3.293,3.293,0,0,1-.1-.444,2.312,2.312,0,0,1-.667.721,1.572,1.572,0,0,1-.913.27,1.891,1.891,0,0,1-1.466-.6,2.288,2.288,0,0,1-.55-1.606,2.105,2.105,0,0,1,.7-1.688,3.121,3.121,0,0,1,2.082-.6h.731v-.6a1.487,1.487,0,0,0-.195-.831.657.657,0,0,0-.584-.291.563.563,0,0,0-.492.232,1.168,1.168,0,0,0-.164.677l-1.88-.007-.021-.041a2.027,2.027,0,0,1,.714-1.641,2.828,2.828,0,0,1,1.972-.677,2.639,2.639,0,0,1,1.876.673,2.5,2.5,0,0,1,.721,1.917v2.994A6.479,6.479,0,0,0-18.037-.93,5.549,5.549,0,0,0-17.8,0ZM-21-1.319a1,1,0,0,0,.543-.157,1.167,1.167,0,0,0,.393-.4V-3.24h-.731a.707.707,0,0,0-.643.308,1.413,1.413,0,0,0-.2.779.99.99,0,0,0,.171.6A.547.547,0,0,0-21-1.319Zm7.335-.615a.718.718,0,0,0-.246-.543,4.143,4.143,0,0,0-.943-.564,4.974,4.974,0,0,1-1.671-.943,1.8,1.8,0,0,1-.557-1.367,2,2,0,0,1,.714-1.542,2.728,2.728,0,0,1,1.89-.639,2.828,2.828,0,0,1,1.962.656,2.07,2.07,0,0,1,.7,1.675l-.021.041H-13.7a1.266,1.266,0,0,0-.191-.738.669.669,0,0,0-.588-.273.738.738,0,0,0-.533.212.688.688,0,0,0-.219.513.687.687,0,0,0,.219.53,4.406,4.406,0,0,0,.95.55,4.607,4.607,0,0,1,1.723.94A1.9,1.9,0,0,1-11.782-2a1.891,1.891,0,0,1-.752,1.545,3.068,3.068,0,0,1-1.976.6A2.734,2.734,0,0,1-16.533-.6a2.2,2.2,0,0,1-.711-1.682l.014-.041h1.777a1.207,1.207,0,0,0,.273.848.97.97,0,0,0,.718.26.841.841,0,0,0,.595-.191A.685.685,0,0,0-13.662-1.935ZM-5.67-3.575V0H-7.619V-9.953H-4.16a3.138,3.138,0,0,1,2.352.881A3.16,3.16,0,0,1-.947-6.764a3.151,3.151,0,0,1-.865,2.312,3.147,3.147,0,0,1-2.348.877Zm0-1.552H-4.16a1.1,1.1,0,0,0,.95-.459A1.954,1.954,0,0,0-2.881-6.75a2.029,2.029,0,0,0-.325-1.182A1.086,1.086,0,0,0-4.16-8.4H-5.67ZM2.2,0H.263V-10.664H2.2ZM6.436.144A2.824,2.824,0,0,1,4.221-.772,3.334,3.334,0,0,1,3.4-3.083V-4.122a3.818,3.818,0,0,1,.762-2.454,2.547,2.547,0,0,1,2.109-.957,2.451,2.451,0,0,1,2.01.868A3.625,3.625,0,0,1,8.993-4.3V-3.11H5.335v.027a2.044,2.044,0,0,0,.332,1.2,1.142,1.142,0,0,0,1,.472,2.673,2.673,0,0,0,.889-.123,4.675,4.675,0,0,0,.813-.41L8.863-.7A2.932,2.932,0,0,1,7.841-.1,3.978,3.978,0,0,1,6.436.144ZM6.272-5.981a.721.721,0,0,0-.684.426,2.761,2.761,0,0,0-.246,1.147H7.085v-.275a1.972,1.972,0,0,0-.191-.958A.659.659,0,0,0,6.272-5.981ZM9.71-4.04a4.467,4.467,0,0,1,.646-2.529,2.069,2.069,0,0,1,1.822-.964,1.534,1.534,0,0,1,.868.25,2.2,2.2,0,0,1,.656.714l.123-.827h1.688V-.144A3.085,3.085,0,0,1,14.67,2.15a3.141,3.141,0,0,1-2.314.837,3.725,3.725,0,0,1-1.019-.154,4.679,4.679,0,0,1-1-.414l.342-1.5a3.477,3.477,0,0,0,.793.328,3.334,3.334,0,0,0,.875.109,1.109,1.109,0,0,0,.923-.386A1.773,1.773,0,0,0,13.573-.15V-.574a1.884,1.884,0,0,1-.622.537,1.679,1.679,0,0,1-.786.181,2.1,2.1,0,0,1-1.812-.9A4,4,0,0,1,9.71-3.131Zm1.941.913a2.819,2.819,0,0,0,.232,1.263.807.807,0,0,0,.779.455,1.1,1.1,0,0,0,.53-.123,1.012,1.012,0,0,0,.379-.363V-5.4a1.194,1.194,0,0,0-.373-.424.909.909,0,0,0-.523-.151.811.811,0,0,0-.786.531,3.465,3.465,0,0,0-.239,1.407ZM20.368,0a3.319,3.319,0,0,1-.147-.4,3.293,3.293,0,0,1-.1-.444,2.312,2.312,0,0,1-.667.721,1.572,1.572,0,0,1-.913.27,1.891,1.891,0,0,1-1.466-.6,2.288,2.288,0,0,1-.55-1.606,2.105,2.105,0,0,1,.7-1.688,3.121,3.121,0,0,1,2.082-.6h.731v-.6a1.487,1.487,0,0,0-.195-.831.657.657,0,0,0-.584-.291.563.563,0,0,0-.492.232,1.168,1.168,0,0,0-.164.677l-1.88-.007L16.7-5.216a2.027,2.027,0,0,1,.714-1.641,2.828,2.828,0,0,1,1.972-.677,2.639,2.639,0,0,1,1.876.673,2.5,2.5,0,0,1,.721,1.917v2.994A6.479,6.479,0,0,0,22.063-.93,5.549,5.549,0,0,0,22.3,0ZM19.1-1.319a1,1,0,0,0,.543-.157,1.167,1.167,0,0,0,.393-.4V-3.24h-.731a.707.707,0,0,0-.643.308,1.413,1.413,0,0,0-.2.779.99.99,0,0,0,.171.6A.547.547,0,0,0,19.1-1.319Zm3.855-2.338a5.4,5.4,0,0,1,.643-2.81,2.01,2.01,0,0,1,1.812-1.066,1.508,1.508,0,0,1,.779.205,2.045,2.045,0,0,1,.622.588v-3.924h1.941V0H27.067l-.13-.807a2.174,2.174,0,0,1-.667.708,1.57,1.57,0,0,1-.865.243,2.027,2.027,0,0,1-1.808-1,4.879,4.879,0,0,1-.639-2.656Zm1.941.144a4.189,4.189,0,0,0,.229,1.55.794.794,0,0,0,.776.555.975.975,0,0,0,.526-.141,1.161,1.161,0,0,0,.383-.408V-5.33a1.37,1.37,0,0,0-.383-.48.825.825,0,0,0-.513-.171.822.822,0,0,0-.779.638A4.9,4.9,0,0,0,24.9-3.657ZM32.05,0H30.109V-7.4H32.05Zm0-9.181H30.109v-1.483H32.05Zm3.4,7.629h2.892V0h-5.12V-1.155l2.816-4.689H33.3V-7.4h4.99v1.128ZM43.042,0A3.319,3.319,0,0,1,42.9-.4a3.293,3.293,0,0,1-.1-.444,2.312,2.312,0,0,1-.667.721,1.572,1.572,0,0,1-.913.27,1.891,1.891,0,0,1-1.466-.6,2.288,2.288,0,0,1-.55-1.606,2.105,2.105,0,0,1,.7-1.688,3.121,3.121,0,0,1,2.082-.6h.731v-.6a1.487,1.487,0,0,0-.195-.831.657.657,0,0,0-.584-.291.563.563,0,0,0-.492.232,1.168,1.168,0,0,0-.164.677L39.4-5.175l-.021-.041a2.027,2.027,0,0,1,.714-1.641,2.828,2.828,0,0,1,1.972-.677,2.639,2.639,0,0,1,1.876.673,2.5,2.5,0,0,1,.721,1.917v2.994A6.479,6.479,0,0,0,44.738-.93,5.549,5.549,0,0,0,44.97,0ZM41.778-1.319a1,1,0,0,0,.543-.157,1.167,1.167,0,0,0,.393-.4V-3.24h-.731a.707.707,0,0,0-.643.308,1.413,1.413,0,0,0-.2.779.99.99,0,0,0,.171.6A.547.547,0,0,0,41.778-1.319Zm7.335-.615a.718.718,0,0,0-.246-.543,4.143,4.143,0,0,0-.943-.564,4.974,4.974,0,0,1-1.671-.943,1.8,1.8,0,0,1-.557-1.367,2,2,0,0,1,.714-1.542,2.728,2.728,0,0,1,1.89-.639,2.828,2.828,0,0,1,1.962.656,2.07,2.07,0,0,1,.7,1.675l-.021.041H49.072A1.266,1.266,0,0,0,48.88-5.9a.669.669,0,0,0-.588-.273.738.738,0,0,0-.533.212.688.688,0,0,0-.219.513.687.687,0,0,0,.219.53,4.406,4.406,0,0,0,.95.55,4.607,4.607,0,0,1,1.723.94A1.9,1.9,0,0,1,50.993-2a1.891,1.891,0,0,1-.752,1.545,3.068,3.068,0,0,1-1.976.6A2.734,2.734,0,0,1,46.242-.6a2.2,2.2,0,0,1-.711-1.682l.014-.041h1.777a1.207,1.207,0,0,0,.273.848.97.97,0,0,0,.718.26.841.841,0,0,0,.595-.191A.685.685,0,0,0,49.113-1.935Z" transform="translate(4288 483.66)" fill="#fff"/>
      </g>
      <g id="sandwich" transform="translate(37.135 70)">
        <path id="Trazado_9417" data-name="Trazado 9417" d="M189.152,172a1.394,1.394,0,0,0,0,2.788h17.509a1.394,1.394,0,1,0,0-2.788Zm0,0" transform="translate(-155.042 -142.03)" fill="#fff"/>
        <path id="Trazado_9418" data-name="Trazado 9418" d="M84.335,15.508H80.453L75.651,4.9A8.351,8.351,0,0,0,68.027,0H17.7a8.351,8.351,0,0,0-7.623,4.9l-4.8,10.611H1.394a1.394,1.394,0,1,0,0,2.788h3.72L10.521,39.71A8.331,8.331,0,0,0,18.631,46H67.1a8.329,8.329,0,0,0,8.11-6.291L80.615,18.3h3.72a1.394,1.394,0,1,0,0-2.788ZM12.619,6.043A5.56,5.56,0,0,1,17.7,2.788H68.027A5.56,5.56,0,0,1,73.11,6.043l4.284,9.465H51.133A1.394,1.394,0,0,0,49.739,16.9a6.9,6.9,0,0,1-13.8,0,1.394,1.394,0,0,0-1.394-1.394H8.335ZM72.5,39.027A5.544,5.544,0,0,1,67.1,43.213H18.631a5.545,5.545,0,0,1-5.406-4.185L7.99,18.3H33.25a9.689,9.689,0,0,0,19.183,0H77.74Zm0,0" fill="#fff"/>
        <path id="Trazado_9419" data-name="Trazado 9419" d="M147.758,206.394a1.394,1.394,0,0,0,1.394,1.394H180.6a1.394,1.394,0,1,0,0-2.788H149.152A1.394,1.394,0,0,0,147.758,206.394Zm0,0" transform="translate(-122.012 -169.28)" fill="#fff"/>
      </g>
    </g>
  </g>
</svg>
