<svg xmlns="http://www.w3.org/2000/svg" xmlns:xlink="http://www.w3.org/1999/xlink" width="160" height="190" viewBox="0 0 160 190"><defs><filter id="a" x="-2" y="2" width="164" height="191" filterUnits="userSpaceOnUse"><feOffset dy="2" input="SourceAlpha"/><feGaussianBlur stdDeviation="6" result="b"/><feFlood flood-color="#44d62c" flood-opacity="0.651"/><feComposite operator="in" in2="b"/><feComposite in="SourceGraphic"/></filter><clipPath id="d"><rect width="160" height="190"/></clipPath></defs><g id="c" clip-path="url(#d)"><g transform="translate(-531 -13)"><g transform="matrix(1, 0, 0, 1, 531, 13)" filter="url(#a)"><g transform="translate(16 18)" fill="#44d62c" opacity="0.93"><path d="M 114 154.5 L 14 154.5 C 10.39402008056641 154.5 7.003880023956299 153.0957641601563 4.454060077667236 150.5459442138672 C 1.904240012168884 147.9961395263672 0.5 144.6059875488281 0.5 141 L 0.5 14 C 0.5 10.39402008056641 1.904240012168884 7.003880023956299 4.454060077667236 4.454060077667236 C 7.003880023956299 1.904240012168884 10.39402008056641 0.5 14 0.5 L 114 0.5 C 117.6059799194336 0.5 120.9961166381836 1.904240012168884 123.5459365844727 4.454060077667236 C 126.0957565307617 7.003880023956299 127.5 10.39402008056641 127.5 14 L 127.5 141 C 127.5 144.6059875488281 126.0957565307617 147.9961395263672 123.5459365844727 150.5459442138672 C 120.9961166381836 153.0957641601563 117.6059799194336 154.5 114 154.5 Z" stroke="none"/><path d="M 14 1 C 10.52758026123047 1 7.262977600097656 2.35223388671875 4.8076171875 4.807601928710938 C 2.352241516113281 7.262985229492188 1 10.52757263183594 1 14 L 1 141 C 1 144.472412109375 2.352241516113281 147.7370147705078 4.8076171875 150.1923980712891 C 7.262977600097656 152.6477661132813 10.52758026123047 154 14 154 L 114 154 C 117.4724197387695 154 120.7370223999023 152.6477661132813 123.1923828125 150.1923980712891 C 125.6477584838867 147.7370147705078 127 144.472412109375 127 141 L 127 14 C 127 10.52757263183594 125.6477584838867 7.262985229492188 123.1923828125 4.807601928710938 C 120.7370223999023 2.35223388671875 117.4724197387695 1 114 1 L 14 1 M 14 0 L 114 0 C 121.7319793701172 0 128 6.26800537109375 128 14 L 128 141 C 128 148.7319946289063 121.7319793701172 155 114 155 L 14 155 C 6.268020629882813 155 0 148.7319946289063 0 141 L 0 14 C 0 6.26800537109375 6.268020629882813 0 14 0 Z" stroke="none" fill="#fff"/></g></g><g transform="translate(579.993 77)"><g transform="translate(0.007)"><path d="M60.8,16.707A1.211,1.211,0,0,0,62.007,15.5V10.653A1.211,1.211,0,0,0,60.8,9.442H52.78a5.194,5.194,0,0,0-5.033,3.9L45.016,23.992H37.768l.256-3.349a5.515,5.515,0,0,0,2.4-8.289,5.007,5.007,0,0,0-5.966-7.417,4.8,4.8,0,0,0-7.908-1.693,6.866,6.866,0,0,0-11.658-.006,4.8,4.8,0,0,0-7.9,1.7,5.006,5.006,0,0,0-5.966,7.417,5.518,5.518,0,0,0,2.329,8.262L6.421,60.882A1.211,1.211,0,0,0,7.628,62H33.745a1.211,1.211,0,0,0,1.207-1.119l1.412-18.5L38.4,60.922A1.211,1.211,0,0,0,39.6,62H55.831a1.211,1.211,0,0,0,1.2-1.079l3.151-28.7h.61a1.211,1.211,0,0,0,1.211-1.211V25.2A1.211,1.211,0,0,0,60.8,23.992H52.517l1.869-7.285H60.8ZM27.582,6.617a2.378,2.378,0,0,1,4.757,0,1.213,1.213,0,0,0,.012.159,1.21,1.21,0,0,0,2.056,1.015A2.581,2.581,0,0,1,38.574,10.7a5.486,5.486,0,0,0-2.657-.683,1.211,1.211,0,0,0,0,2.422,3.1,3.1,0,0,1,1.738,5.666A5.345,5.345,0,0,0,29.834,15.6a5.373,5.373,0,0,0-2.3-7.883,6.866,6.866,0,0,0,.049-1.024C27.58,6.665,27.582,6.641,27.582,6.617Zm-.239,25.6a9.056,9.056,0,0,0-5.438-2.826V19.9a2.719,2.719,0,0,1,5.438,0V32.221Zm-13.3-12.1V19.9a2.719,2.719,0,0,1,5.438,0v9.491a9.056,9.056,0,0,0-5.438,2.826Zm6.649,11.612a6.649,6.649,0,1,1-6.649,6.649A6.656,6.656,0,0,1,20.694,31.733ZM23.86,3.723A4.437,4.437,0,0,1,25.143,7.25a5.349,5.349,0,0,0-1.794.38,1.207,1.207,0,0,0-.562.336l-.018.019a1.211,1.211,0,0,0,1.372,1.939,2.961,2.961,0,0,1,2.618,5.306,5.129,5.129,0,0,0-6.065,1.365,5.129,5.129,0,0,0-6.052-1.371,2.961,2.961,0,0,1,2.63-5.3,1.211,1.211,0,0,0,1.7-1.01l0-.019a1.211,1.211,0,0,0-.942-1.278,5.345,5.345,0,0,0-1.736-.365,4.458,4.458,0,0,1-.015-.543c0-.018,0-.036,0-.054A4.442,4.442,0,0,1,23.86,3.723ZM2.429,15.539a3.1,3.1,0,0,1,3.1-3.1,1.211,1.211,0,0,0,0-2.422,5.486,5.486,0,0,0-2.657.683A2.582,2.582,0,0,1,7.039,7.791,1.21,1.21,0,0,0,9.095,6.776a1.214,1.214,0,0,0,.012-.159,2.377,2.377,0,0,1,4.754-.043A6.893,6.893,0,0,0,13.908,7.7,5.373,5.373,0,0,0,11.6,15.627a5.349,5.349,0,0,0-7.861,2.444A3.085,3.085,0,0,1,2.429,15.539Zm3.331,4.8a2.936,2.936,0,0,1,2.928-3.159,2.939,2.939,0,0,1,2.936,2.936V59.579H8.75ZM21.905,59.135V55.929a1.211,1.211,0,0,0-2.422,0v3.65H14.045V44.544a9.052,9.052,0,0,0,13.3,0V59.579H21.905v-.444Zm10.718.444H29.765V20.116A2.934,2.934,0,0,1,32.7,17.185a2.931,2.931,0,0,1,2.922,3.154l-.279,3.653h-.7A1.211,1.211,0,0,0,33.428,25.2v5.813a1.211,1.211,0,0,0,1.211,1.211h.071Zm22.123,0h-6.3a13.814,13.814,0,0,1,.326-13.074,16.115,16.115,0,0,0,1.962-5.637,1.211,1.211,0,1,0-2.395-.36A13.7,13.7,0,0,1,46.667,45.3a16.252,16.252,0,0,0-.89,14.278H40.689l-3-27.352H57.749ZM59.585,29.8H35.85V26.414H59.585ZM52.274,15.2l-2.257,8.8h-2.5l2.577-10.044a2.773,2.773,0,0,1,2.687-2.084h6.8v2.422H53.447A1.211,1.211,0,0,0,52.274,15.2Z" transform="translate(-0.007)" fill="#fff"/><path d="M162.046,411.86a1.211,1.211,0,1,0,.856.355A1.222,1.222,0,0,0,162.046,411.86Z" transform="translate(-141.359 -361.985)" fill="#fff"/><path d="M399.666,288.422a1.211,1.211,0,1,0-.856-.355A1.217,1.217,0,0,0,399.666,288.422Z" transform="translate(-350.205 -251.367)" fill="#fff"/></g></g><path d="M-27.368-3.84H-30.5V0h-1.809V-9.242h5.5V-7.8H-30.5v2.52h3.136Zm1.041-.013a3.415,3.415,0,0,1,.733-2.263A2.526,2.526,0,0,1-23.54-7a2.536,2.536,0,0,1,2.057.879,3.4,3.4,0,0,1,.736,2.263V-3a3.387,3.387,0,0,1-.736,2.266,2.541,2.541,0,0,1-2.05.87,2.546,2.546,0,0,1-2.06-.87A3.4,3.4,0,0,1-26.327-3Zm1.8.848a2.867,2.867,0,0,0,.222,1.246.791.791,0,0,0,.774.451.782.782,0,0,0,.759-.455,2.835,2.835,0,0,0,.225-1.243v-.852a2.843,2.843,0,0,0-.225-1.237.785.785,0,0,0-.765-.461.785.785,0,0,0-.765.464,2.847,2.847,0,0,0-.225,1.233Zm4.52-.848a3.415,3.415,0,0,1,.733-2.263A2.526,2.526,0,0,1-17.224-7a2.536,2.536,0,0,1,2.057.879,3.4,3.4,0,0,1,.736,2.263V-3a3.387,3.387,0,0,1-.736,2.266,2.541,2.541,0,0,1-2.05.87,2.546,2.546,0,0,1-2.06-.87A3.4,3.4,0,0,1-20.011-3Zm1.8.848a2.867,2.867,0,0,0,.222,1.246.791.791,0,0,0,.774.451.782.782,0,0,0,.759-.455,2.835,2.835,0,0,0,.225-1.243v-.852a2.843,2.843,0,0,0-.225-1.237.785.785,0,0,0-.765-.461.785.785,0,0,0-.765.464,2.847,2.847,0,0,0-.225,1.233ZM-13.72-3.4A5.013,5.013,0,0,1-13.124-6,1.867,1.867,0,0,1-11.442-7a1.4,1.4,0,0,1,.724.19,1.9,1.9,0,0,1,.578.546V-9.9h1.8V0H-9.906l-.121-.749a2.019,2.019,0,0,1-.619.657,1.458,1.458,0,0,1-.8.225A1.882,1.882,0,0,1-13.127-.8a4.531,4.531,0,0,1-.594-2.466Zm1.8.134a3.889,3.889,0,0,0,.213,1.439.737.737,0,0,0,.72.516.9.9,0,0,0,.489-.131,1.078,1.078,0,0,0,.355-.379V-4.949A1.272,1.272,0,0,0-10.5-5.4a.766.766,0,0,0-.476-.159.764.764,0,0,0-.724.592A4.553,4.553,0,0,0-11.918-3.4Zm11.826.85a1.239,1.239,0,0,0-.279-.854,2.844,2.844,0,0,0-.984-.619A6.5,6.5,0,0,1-3.517-5.024a2.262,2.262,0,0,1-.72-1.787A2.318,2.318,0,0,1-3.4-8.661,3.182,3.182,0,0,1-1.26-9.375a2.96,2.96,0,0,1,2.146.8,2.594,2.594,0,0,1,.8,2.009l-.013.038H-.079A1.588,1.588,0,0,0-.4-7.56a1.084,1.084,0,0,0-.9-.394,1.087,1.087,0,0,0-.841.327,1.166,1.166,0,0,0-.3.822.956.956,0,0,0,.336.752A4.741,4.741,0,0,0-.93-5.4,4.916,4.916,0,0,1,1.047-4.269a2.533,2.533,0,0,1,.663,1.844,2.333,2.333,0,0,1-.8,1.879A3.175,3.175,0,0,1-1.216.133,3.561,3.561,0,0,1-3.5-.638,2.584,2.584,0,0,1-4.44-2.85l.013-.038h1.758a1.734,1.734,0,0,0,.362,1.231,1.453,1.453,0,0,0,1.092.375,1.088,1.088,0,0,0,.847-.3A1.183,1.183,0,0,0-.092-2.412ZM5.4.133A2.623,2.623,0,0,1,3.342-.717,3.1,3.1,0,0,1,2.58-2.863v-.965a3.545,3.545,0,0,1,.708-2.279A2.365,2.365,0,0,1,5.246-7a2.276,2.276,0,0,1,1.866.806,3.366,3.366,0,0,1,.66,2.2v1.1h-3.4v.025a1.9,1.9,0,0,0,.308,1.117,1.061,1.061,0,0,0,.93.438,2.482,2.482,0,0,0,.825-.114A4.341,4.341,0,0,0,7.2-1.8L7.652-.654A2.723,2.723,0,0,1,6.7-.089,3.694,3.694,0,0,1,5.4.133ZM5.246-5.554a.67.67,0,0,0-.635.4,2.564,2.564,0,0,0-.229,1.065H6v-.255a1.831,1.831,0,0,0-.178-.889A.612.612,0,0,0,5.246-5.554Zm6.678.33-.679-.019a.769.769,0,0,0-.473.14.887.887,0,0,0-.289.394V0H8.68V-6.868h1.682l.07.92.032.013a1.873,1.873,0,0,1,.46-.778A.965.965,0,0,1,11.613-7a1.6,1.6,0,0,1,.257.022,1.746,1.746,0,0,1,.238.054ZM15.155-2.59l.083.521h.038l.089-.521.793-4.278h1.885L16.139,0H14.374L12.464-6.868h1.885ZM20.608,0H18.8V-6.868h1.8Zm0-8.525H18.8V-9.9h1.8Zm3.764,7.217a.63.63,0,0,0,.555-.273,1.387,1.387,0,0,0,.187-.787h1.638l.019.038a2.353,2.353,0,0,1-.663,1.771,2.335,2.335,0,0,1-1.736.692,2.5,2.5,0,0,1-2.047-.87,3.426,3.426,0,0,1-.714-2.247v-.882a3.465,3.465,0,0,1,.711-2.25A2.469,2.469,0,0,1,24.359-7a2.288,2.288,0,0,1,1.774.717,2.69,2.69,0,0,1,.638,1.936l-.013.032H25.115a1.876,1.876,0,0,0-.187-.9.609.609,0,0,0-.568-.341.743.743,0,0,0-.743.458,3.072,3.072,0,0,0-.2,1.227v.884a3.036,3.036,0,0,0,.2,1.233A.755.755,0,0,0,24.372-1.308ZM30.313.133a2.623,2.623,0,0,1-2.057-.851,3.1,3.1,0,0,1-.762-2.146v-.965A3.545,3.545,0,0,1,28.2-6.106,2.365,2.365,0,0,1,30.161-7a2.276,2.276,0,0,1,1.866.806,3.366,3.366,0,0,1,.66,2.2v1.1h-3.4v.025A1.9,1.9,0,0,0,29.6-1.746a1.061,1.061,0,0,0,.93.438,2.482,2.482,0,0,0,.825-.114A4.341,4.341,0,0,0,32.11-1.8l.457,1.149a2.723,2.723,0,0,1-.949.565A3.694,3.694,0,0,1,30.313.133Zm-.152-5.687a.67.67,0,0,0-.635.4A2.564,2.564,0,0,0,29.3-4.094h1.619v-.255a1.831,1.831,0,0,0-.178-.889A.612.612,0,0,0,30.161-5.554Z" transform="translate(611.313 168)" fill="#fff"/></g></g></svg>