<svg xmlns="http://www.w3.org/2000/svg" xmlns:xlink="http://www.w3.org/1999/xlink" width="160" height="190" viewBox="0 0 160 190"><defs><filter id="a" x="-2" y="2" width="164" height="191" filterUnits="userSpaceOnUse"><feOffset dy="2" input="SourceAlpha"/><feGaussianBlur stdDeviation="6" result="b"/><feFlood flood-color="#44d62c" flood-opacity="0.651"/><feComposite operator="in" in2="b"/><feComposite in="SourceGraphic"/></filter><clipPath id="d"><rect width="160" height="190"/></clipPath></defs><g id="c" clip-path="url(#d)"><g transform="translate(-369 -13)"><g transform="matrix(1, 0, 0, 1, 369, 13)" filter="url(#a)"><g transform="translate(16 18)" fill="#44d62c" opacity="0.93"><path d="M 114 154.5 L 14 154.5 C 10.39402008056641 154.5 7.003880023956299 153.0957641601563 4.454060077667236 150.5459442138672 C 1.904240012168884 147.9961395263672 0.5 144.6059875488281 0.5 141 L 0.5 14 C 0.5 10.39402008056641 1.904240012168884 7.003880023956299 4.454060077667236 4.454060077667236 C 7.003880023956299 1.904240012168884 10.39402008056641 0.5 14 0.5 L 114 0.5 C 117.6059799194336 0.5 120.9961166381836 1.904240012168884 123.5459365844727 4.454060077667236 C 126.0957565307617 7.003880023956299 127.5 10.39402008056641 127.5 14 L 127.5 141 C 127.5 144.6059875488281 126.0957565307617 147.9961395263672 123.5459365844727 150.5459442138672 C 120.9961166381836 153.0957641601563 117.6059799194336 154.5 114 154.5 Z" stroke="none"/><path d="M 14 1 C 10.52758026123047 1 7.262977600097656 2.35223388671875 4.8076171875 4.807601928710938 C 2.352241516113281 7.262985229492188 1 10.52757263183594 1 14 L 1 141 C 1 144.472412109375 2.352241516113281 147.7370147705078 4.8076171875 150.1923980712891 C 7.262977600097656 152.6477661132813 10.52758026123047 154 14 154 L 114 154 C 117.4724197387695 154 120.7370223999023 152.6477661132813 123.1923828125 150.1923980712891 C 125.6477584838867 147.7370147705078 127 144.472412109375 127 141 L 127 14 C 127 10.52757263183594 125.6477584838867 7.262985229492188 123.1923828125 4.807601928710938 C 120.7370223999023 2.35223388671875 117.4724197387695 1 114 1 L 14 1 M 14 0 L 114 0 C 121.7319793701172 0 128 6.26800537109375 128 14 L 128 141 C 128 148.7319946289063 121.7319793701172 155 114 155 L 14 155 C 6.268020629882813 155 0 148.7319946289063 0 141 L 0 14 C 0 6.26800537109375 6.268020629882813 0 14 0 Z" stroke="none" fill="#fff"/></g></g><path d="M-20.547,0h-1.8V-3.828h-2.869V0h-1.809V-9.242h1.809v3.974h2.869V-9.242h1.8Zm1.066-3.853a3.415,3.415,0,0,1,.733-2.263A2.526,2.526,0,0,1-16.694-7a2.536,2.536,0,0,1,2.057.879A3.4,3.4,0,0,1-13.9-3.853V-3a3.387,3.387,0,0,1-.736,2.266,2.541,2.541,0,0,1-2.05.87,2.546,2.546,0,0,1-2.06-.87A3.4,3.4,0,0,1-19.481-3Zm1.8.848a2.867,2.867,0,0,0,.222,1.246.791.791,0,0,0,.774.451.782.782,0,0,0,.759-.455A2.835,2.835,0,0,0-15.7-3.005v-.852a2.843,2.843,0,0,0-.225-1.237.785.785,0,0,0-.765-.461.785.785,0,0,0-.765.464,2.847,2.847,0,0,0-.225,1.233Zm6.424-3.863.07.876a2.046,2.046,0,0,1,.686-.743A1.735,1.735,0,0,1-9.56-7a1.523,1.523,0,0,1,.908.276,1.7,1.7,0,0,1,.59.841A2.151,2.151,0,0,1-7.376-6.7,1.667,1.667,0,0,1-6.4-7a1.555,1.555,0,0,1,1.343.7,3.757,3.757,0,0,1,.492,2.142V0H-6.373V-4.156a2.434,2.434,0,0,0-.171-1.1.571.571,0,0,0-.533-.3.751.751,0,0,0-.463.153,1.161,1.161,0,0,0-.336.419q.006.121.013.238t.006.245V0h-1.8V-4.156a2.4,2.4,0,0,0-.175-1.093.582.582,0,0,0-.543-.305.8.8,0,0,0-.441.124,1.09,1.09,0,0,0-.333.346V0h-1.8V-6.868Zm10.55,7A2.623,2.623,0,0,1-2.768-.717a3.1,3.1,0,0,1-.762-2.146v-.965a3.545,3.545,0,0,1,.708-2.279A2.365,2.365,0,0,1-.863-7,2.276,2.276,0,0,1,1-6.189a3.366,3.366,0,0,1,.66,2.2v1.1h-3.4v.025a1.9,1.9,0,0,0,.308,1.117,1.061,1.061,0,0,0,.93.438A2.482,2.482,0,0,0,.33-1.422,4.341,4.341,0,0,0,1.085-1.8L1.542-.654a2.723,2.723,0,0,1-.949.565A3.694,3.694,0,0,1-.711.133ZM-.863-5.554a.67.67,0,0,0-.635.4,2.564,2.564,0,0,0-.229,1.065H-.108v-.255a1.831,1.831,0,0,0-.178-.889A.612.612,0,0,0-.863-5.554ZM11.331-2.977l.019.038a3.177,3.177,0,0,1-.724,2.3A2.857,2.857,0,0,1,8.455.133,3.054,3.054,0,0,1,6.164-.746a3.422,3.422,0,0,1-.857-2.491V-6A3.508,3.508,0,0,1,6.135-8.49a2.893,2.893,0,0,1,2.219-.885,2.937,2.937,0,0,1,2.225.787,3.334,3.334,0,0,1,.778,2.33l-.019.038H9.6A2.157,2.157,0,0,0,9.35-7.533a1.14,1.14,0,0,0-1-.4,1.059,1.059,0,0,0-.933.477A2.589,2.589,0,0,0,7.1-6.016v2.777a2.483,2.483,0,0,0,.346,1.455,1.172,1.172,0,0,0,1.012.477,1.023,1.023,0,0,0,.911-.378,2.256,2.256,0,0,0,.225-1.292ZM15.672,0a3.082,3.082,0,0,1-.136-.375,3.057,3.057,0,0,1-.092-.413,2.147,2.147,0,0,1-.619.67,1.46,1.46,0,0,1-.847.251,1.756,1.756,0,0,1-1.362-.559A2.124,2.124,0,0,1,12.1-1.917a1.955,1.955,0,0,1,.651-1.568,2.9,2.9,0,0,1,1.933-.559h.679V-4.6a1.381,1.381,0,0,0-.181-.771.61.61,0,0,0-.543-.27.523.523,0,0,0-.457.216,1.085,1.085,0,0,0-.152.628l-1.746-.006-.019-.038a1.883,1.883,0,0,1,.663-1.523A2.626,2.626,0,0,1,14.765-7a2.451,2.451,0,0,1,1.742.625,2.317,2.317,0,0,1,.67,1.781v2.78a6.017,6.017,0,0,0,.07.946A5.153,5.153,0,0,0,17.462,0ZM14.5-1.225a.929.929,0,0,0,.5-.146,1.084,1.084,0,0,0,.365-.375V-3.009h-.679a.657.657,0,0,0-.6.286A1.312,1.312,0,0,0,13.908-2a.919.919,0,0,0,.159.559A.507.507,0,0,0,14.5-1.225Zm7.065-4-.679-.019a.769.769,0,0,0-.473.14.887.887,0,0,0-.289.394V0h-1.8V-6.868H20l.07.92.032.013a1.873,1.873,0,0,1,.46-.778A.965.965,0,0,1,21.252-7a1.6,1.6,0,0,1,.257.022,1.746,1.746,0,0,1,.238.054ZM25.029.133a2.623,2.623,0,0,1-2.057-.851,3.1,3.1,0,0,1-.762-2.146v-.965a3.545,3.545,0,0,1,.708-2.279A2.365,2.365,0,0,1,24.876-7a2.276,2.276,0,0,1,1.866.806,3.366,3.366,0,0,1,.66,2.2v1.1h-3.4v.025a1.9,1.9,0,0,0,.308,1.117,1.061,1.061,0,0,0,.93.438,2.482,2.482,0,0,0,.825-.114,4.341,4.341,0,0,0,.755-.381l.457,1.149a2.723,2.723,0,0,1-.949.565A3.694,3.694,0,0,1,25.029.133Zm-.152-5.687a.67.67,0,0,0-.635.4,2.564,2.564,0,0,0-.229,1.065h1.619v-.255a1.831,1.831,0,0,0-.178-.889A.612.612,0,0,0,24.876-5.554Z" transform="translate(449.029 168)" fill="#fff"/><g transform="translate(-2720.904 -5807.994)"><path d="M3213.44,5908.406l-6.728-7.654v-3.486a.914.914,0,0,0-.913-.914h-1.524v-2.3a.915.915,0,0,0-.914-.914h-8.707a.915.915,0,0,0-.915.914v2.3h-1.524a.914.914,0,0,0-.914.914v3.486l-3.157,3.591-.007,0a16.182,16.182,0,0,0-2.081-5.8,17.05,17.05,0,0,0-8.012-6.9,6.576,6.576,0,0,1-4.085-5.539.978.978,0,0,0-.028-1.955v-1.531a.979.979,0,0,0-.019-1.958h-11.954a.979.979,0,0,0-.174,1.943v1.563a.98.98,0,0,0-.027,1.922,6.6,6.6,0,0,1-4.147,5.582,15.963,15.963,0,0,0-2.29,1.157,18.422,18.422,0,0,0-4.2,3.643h0l-.076.1a3.123,3.123,0,0,0-2.1-.812H3145.8v-5.224a1.045,1.045,0,0,0-1.045-1.045h-3.135v-5.224a1.045,1.045,0,0,0-1.045-1.045H3136.4a1.045,1.045,0,0,0-1.045,1.045v5.224h-3.135a1.045,1.045,0,0,0-1.045,1.045v5.224h-3.135a3.135,3.135,0,0,0-3.134,3.135v12.957a3.12,3.12,0,0,0,.53,1.743l.96,1.436a1.044,1.044,0,0,1,0,1.161l-.967,1.452a3.116,3.116,0,0,0-.522,1.732v25.5a3.134,3.134,0,0,0,3.134,3.134h20.9a3.134,3.134,0,0,0,2.762-1.651,8.679,8.679,0,0,0,4.387,1.187h23.548a8.675,8.675,0,0,0,4.657-1.354,3.41,3.41,0,0,0,2.849,1.536h23.738a3.418,3.418,0,0,0,3.414-3.414v-33.639A3.41,3.41,0,0,0,3213.44,5908.406Zm-17.873-13.435h6.878v1.381h-6.878Zm-2.438,3.209h11.754v2h-11.754Zm-41.582,19.445-.965-1.447a1.047,1.047,0,0,1,0-1.16l.96-1.435a3.124,3.124,0,0,0,.331-.65h2.922v5.337h-2.921A3.1,3.1,0,0,0,3151.547,5917.625Zm.522,2.605h2.725v4.851h-2.725Zm2.725,6.81v5.292h-2.725v-5.292Zm-2.725,7.251h31.654v4.85H3152.07Zm4.686-1.96v-19.4h22.362v19.4Zm26.969,0h-2.648v-5.292h2.648Zm0-14.061h-2.648v-5.337h2.648Zm0,1.959v4.851h-2.648v-4.851Zm.849-11.825a3.41,3.41,0,0,0-.849,2.251v.317H3152.07v-4.882h34.537Zm-20.829-25.79h8.228v1.53h-8.228Zm-10.717,14.633c.026-.029.049-.061.071-.091a13.159,13.159,0,0,1,3.031-2.566.935.935,0,0,0,.206-.093,14.536,14.536,0,0,1,2.072-1.042,8.529,8.529,0,0,0,5.315-7.35h8.272a8.532,8.532,0,0,0,5.368,7.373,14.54,14.54,0,0,1,8.75,10.655H3152.07v-5.25a3.16,3.16,0,0,0-.028-.41A14.23,14.23,0,0,1,3153.027,5897.249Zm-15.586-11.948h2.09v4.18h-2.09Zm-4.179,6.269h10.448v4.179h-10.448Zm-6.269,7.314a1.044,1.044,0,0,1,1.044-1.044h20.9a1.037,1.037,0,0,1,.936.582l.012.026a1.023,1.023,0,0,1,.05.129h0a1.117,1.117,0,0,1,.03.133c0,.011,0,.022.005.034a.948.948,0,0,1,.011.141h0v3.134h-22.987Zm0,20.48a1.041,1.041,0,0,1,.176-.579l.964-1.446a3.122,3.122,0,0,0,0-3.483l-.961-1.436a1.046,1.046,0,0,1-.178-.579v-7.732h22.987v7.732a1.054,1.054,0,0,1-.012.154,1.067,1.067,0,0,1-.067.237,1.025,1.025,0,0,1-.1.189l-.16.24-.182.272h0l-.618.923c-.027.04-.052.083-.076.125a3.12,3.12,0,0,0,.076,3.358l.5.751h0l.12.181h0l.343.514a1.1,1.1,0,0,1,.173.579v5.642h-22.987Zm21.942,26.54h-20.9a1.045,1.045,0,0,1-1.044-1.044V5927.1h22.987v17.763c0,.028,0,.056,0,.085s-.006.049-.009.073h0A1.044,1.044,0,0,1,3148.935,5945.9Zm30.273-.334h-23.124a6.717,6.717,0,0,1-4.014-1.325V5941.1h31.654v3.082a6.724,6.724,0,0,1-4.092,1.386Zm33.253-1.271a1.586,1.586,0,0,1-1.585,1.585h-23.738a1.586,1.586,0,0,1-1.405-.852,1.653,1.653,0,0,1-.071-.159c0-.01-.008-.02-.012-.031-.016-.044-.03-.089-.043-.135,0-.016-.008-.031-.012-.046-.01-.043-.018-.087-.025-.132,0-.016-.006-.032-.007-.048a1.739,1.739,0,0,1-.012-.179v-2.584h26.908Zm0-4.41h-26.908V5928h26.908Zm0-13.714h-26.91v-15.517a1.576,1.576,0,0,1,.394-1.044h0l2.137-2.432h0l.467-.531,4.078-4.638h12.756l6.683,7.6a1.579,1.579,0,0,1,.395,1.044Z" transform="translate(0 0)" fill="#fff"/><path d="M3720.208,6069.971a.914.914,0,0,0-1.6.6V6086.7a.914.914,0,0,0,.914.915h4.92a.914.914,0,0,0,.914-.915v-10.514a.914.914,0,0,0-.227-.6Zm3.318,15.818h-3.091V6073l3.091,3.529Z" transform="translate(-516.16 -164.316)" fill="#fff"/><path d="M3157.262,6356.215h-7.314a1.045,1.045,0,0,0,0,2.09h7.314a1.045,1.045,0,0,0,0-2.09Z" transform="translate(-20.865 -413.446)" fill="#fff"/><path d="M3230.993,6356.215h-1.045a1.045,1.045,0,0,0,0,2.09h1.045a1.045,1.045,0,0,0,0-2.09Z" transform="translate(-90.417 -413.446)" fill="#fff"/></g></g></g></svg>