<svg xmlns="http://www.w3.org/2000/svg" xmlns:xlink="http://www.w3.org/1999/xlink" width="160" height="190" viewBox="0 0 160 190"><defs><filter id="a" x="-2" y="2" width="164" height="191" filterUnits="userSpaceOnUse"><feOffset dy="2" input="SourceAlpha"/><feGaussianBlur stdDeviation="6" result="b"/><feFlood flood-color="#44d62c" flood-opacity="0.651"/><feComposite operator="in" in2="b"/><feComposite in="SourceGraphic"/></filter><clipPath id="d"><rect width="160" height="190"/></clipPath></defs><g id="c" clip-path="url(#d)"><g transform="translate(-1178 -13)"><g transform="matrix(1, 0, 0, 1, 1178, 13)" filter="url(#a)"><g transform="translate(16 18)" fill="#44d62c" opacity="0.93"><path d="M 114 154.5 L 14 154.5 C 10.39402008056641 154.5 7.003880023956299 153.0957641601563 4.454060077667236 150.5459442138672 C 1.904240012168884 147.9961395263672 0.5 144.6059875488281 0.5 141 L 0.5 14 C 0.5 10.39402008056641 1.904240012168884 7.003880023956299 4.454060077667236 4.454060077667236 C 7.003880023956299 1.904240012168884 10.39402008056641 0.5 14 0.5 L 114 0.5 C 117.6059799194336 0.5 120.9961166381836 1.904240012168884 123.5459365844727 4.454060077667236 C 126.0957565307617 7.003880023956299 127.5 10.39402008056641 127.5 14 L 127.5 141 C 127.5 144.6059875488281 126.0957565307617 147.9961395263672 123.5459365844727 150.5459442138672 C 120.9961166381836 153.0957641601563 117.6059799194336 154.5 114 154.5 Z" stroke="none"/><path d="M 14 1 C 10.52758026123047 1 7.262977600097656 2.35223388671875 4.8076171875 4.807601928710938 C 2.352241516113281 7.262985229492188 1 10.52757263183594 1 14 L 1 141 C 1 144.472412109375 2.352241516113281 147.7370147705078 4.8076171875 150.1923980712891 C 7.262977600097656 152.6477661132813 10.52758026123047 154 14 154 L 114 154 C 117.4724197387695 154 120.7370223999023 152.6477661132813 123.1923828125 150.1923980712891 C 125.6477584838867 147.7370147705078 127 144.472412109375 127 141 L 127 14 C 127 10.52757263183594 125.6477584838867 7.262985229492188 123.1923828125 4.807601928710938 C 120.7370223999023 2.35223388671875 117.4724197387695 1 114 1 L 14 1 M 14 0 L 114 0 C 121.7319793701172 0 128 6.26800537109375 128 14 L 128 141 C 128 148.7319946289063 121.7319793701172 155 114 155 L 14 155 C 6.268020629882813 155 0 148.7319946289063 0 141 L 0 14 C 0 6.26800537109375 6.268020629882813 0 14 0 Z" stroke="none" fill="#fff"/></g></g><path d="M-22.442-1.441h3.377V0h-5.186V-9.242h1.809ZM-16.336,0h-1.809V-6.868h1.809Zm-.7-9.414h1.9l.019.038L-16.7-7.725l-1.454,0Zm3.669,2.545.076.946a2.289,2.289,0,0,1,.7-.79A1.6,1.6,0,0,1-11.677-7a1.591,1.591,0,0,1,1.349.66,3.5,3.5,0,0,1,.492,2.076V0h-1.809V-4.264a1.842,1.842,0,0,0-.2-1,.7.7,0,0,0-.619-.289.822.822,0,0,0-.444.127,1.083,1.083,0,0,0-.343.349V0h-1.8V-6.868Zm7.338,7A2.623,2.623,0,0,1-8.09-.717a3.1,3.1,0,0,1-.762-2.146v-.965a3.545,3.545,0,0,1,.708-2.279A2.365,2.365,0,0,1-6.186-7a2.276,2.276,0,0,1,1.866.806,3.366,3.366,0,0,1,.66,2.2v1.1h-3.4v.025a1.9,1.9,0,0,0,.308,1.117,1.061,1.061,0,0,0,.93.438,2.482,2.482,0,0,0,.825-.114A4.341,4.341,0,0,0-4.237-1.8L-3.78-.654a2.723,2.723,0,0,1-.949.565A3.694,3.694,0,0,1-6.033.133Zm-.152-5.687a.67.67,0,0,0-.635.4,2.564,2.564,0,0,0-.229,1.065H-5.43v-.255a1.831,1.831,0,0,0-.178-.889A.612.612,0,0,0-6.186-5.554ZM.594,0A3.082,3.082,0,0,1,.457-.375,3.057,3.057,0,0,1,.365-.787a2.147,2.147,0,0,1-.619.67A1.46,1.46,0,0,1-1.1.133,1.756,1.756,0,0,1-2.463-.425a2.124,2.124,0,0,1-.511-1.492,1.955,1.955,0,0,1,.651-1.568A2.9,2.9,0,0,1-.39-4.043H.289V-4.6a1.381,1.381,0,0,0-.181-.771.61.61,0,0,0-.543-.27.523.523,0,0,0-.457.216,1.085,1.085,0,0,0-.152.628L-2.79-4.805l-.019-.038a1.883,1.883,0,0,1,.663-1.523A2.626,2.626,0,0,1-.314-7a2.451,2.451,0,0,1,1.742.625A2.317,2.317,0,0,1,2.1-4.589v2.78a6.017,6.017,0,0,0,.07.946A5.153,5.153,0,0,0,2.384,0ZM-.581-1.225a.929.929,0,0,0,.5-.146,1.084,1.084,0,0,0,.365-.375V-3.009H-.39a.657.657,0,0,0-.6.286A1.312,1.312,0,0,0-1.171-2a.919.919,0,0,0,.159.559A.507.507,0,0,0-.581-1.225ZM8.991-2.361l.07.355H9.1l.07-.336,1.542-6.9h1.9L10.026,0H8.147L5.564-9.242h1.9ZM15.142,0h-1.8V-6.868h1.8Zm0-8.525h-1.8V-9.9h1.8ZM19.744,0a3.082,3.082,0,0,1-.136-.375,3.057,3.057,0,0,1-.092-.413,2.147,2.147,0,0,1-.619.67,1.46,1.46,0,0,1-.847.251,1.756,1.756,0,0,1-1.362-.559,2.124,2.124,0,0,1-.511-1.492,1.955,1.955,0,0,1,.651-1.568,2.9,2.9,0,0,1,1.933-.559h.679V-4.6a1.381,1.381,0,0,0-.181-.771.61.61,0,0,0-.543-.27.523.523,0,0,0-.457.216,1.085,1.085,0,0,0-.152.628l-1.746-.006-.019-.038a1.883,1.883,0,0,1,.663-1.523A2.626,2.626,0,0,1,18.837-7a2.451,2.451,0,0,1,1.742.625,2.317,2.317,0,0,1,.67,1.781v2.78a6.017,6.017,0,0,0,.07.946A5.153,5.153,0,0,0,21.534,0ZM18.57-1.225a.929.929,0,0,0,.5-.146,1.084,1.084,0,0,0,.365-.375V-3.009H18.76a.657.657,0,0,0-.6.286A1.312,1.312,0,0,0,17.98-2a.919.919,0,0,0,.159.559A.507.507,0,0,0,18.57-1.225ZM24.277,0h-1.8V-9.9h1.8Z" transform="translate(1258.251 168)" fill="#fff"/><g transform="translate(1158.2 73.695)"><g transform="translate(75.8 -1)"><path d="M118.426,57.331h-.208l-2.562-11.056a.838.838,0,0,0-.035-.386l-2.58-11.217a1.154,1.154,0,0,0-.17-.416l-2.393-10.328a.839.839,0,0,0-.017-.473l-2.58-11.217a1.133,1.133,0,0,0-.225-.491L105.3,1.58A3.367,3.367,0,0,0,102.049-1H96.664a3.367,3.367,0,0,0-3.253,2.58L80.495,57.331h-.208a4.487,4.487,0,1,0,0,8.974h38.139a4.487,4.487,0,0,0,0-8.974Zm-5.384-12.339H85.7l.87-3.788L87.8,36.018H111.02l.095.409ZM92.963,13.583h12.859l1.418,6.119.642,2.855H90.854l.656-2.855ZM90.338,24.8h18.082l2.079,8.974H88.277Zm5.2-22.659a1.092,1.092,0,0,1,1.122-.9h5.384a1.092,1.092,0,0,1,1.122.9l2.131,9.2H93.43ZM85.186,47.235h28.433l2.339,10.1H82.867Zm33.241,16.826H80.287a2.244,2.244,0,1,1,0-4.487h38.139a2.244,2.244,0,0,1,0,4.487Z" transform="translate(-75.8 1)" fill="#fff"/></g></g></g></g></svg>