<svg xmlns="http://www.w3.org/2000/svg" xmlns:xlink="http://www.w3.org/1999/xlink" width="160" height="190" viewBox="0 0 160 190"><defs><filter id="a" x="-2" y="2" width="164" height="191" filterUnits="userSpaceOnUse"><feOffset dy="2" input="SourceAlpha"/><feGaussianBlur stdDeviation="6" result="b"/><feFlood flood-color="#44d62c" flood-opacity="0.651"/><feComposite operator="in" in2="b"/><feComposite in="SourceGraphic"/></filter><clipPath id="d"><rect width="160" height="190"/></clipPath></defs><g id="c" clip-path="url(#d)"><g transform="translate(-1015 -13)"><g transform="matrix(1, 0, 0, 1, 1015, 13)" filter="url(#a)"><g transform="translate(16 18)" fill="#44d62c" opacity="0.93"><path d="M 114 154.5 L 14 154.5 C 10.39402008056641 154.5 7.003880023956299 153.0957641601563 4.454060077667236 150.5459442138672 C 1.904240012168884 147.9961395263672 0.5 144.6059875488281 0.5 141 L 0.5 14 C 0.5 10.39402008056641 1.904240012168884 7.003880023956299 4.454060077667236 4.454060077667236 C 7.003880023956299 1.904240012168884 10.39402008056641 0.5 14 0.5 L 114 0.5 C 117.6059799194336 0.5 120.9961166381836 1.904240012168884 123.5459365844727 4.454060077667236 C 126.0957565307617 7.003880023956299 127.5 10.39402008056641 127.5 14 L 127.5 141 C 127.5 144.6059875488281 126.0957565307617 147.9961395263672 123.5459365844727 150.5459442138672 C 120.9961166381836 153.0957641601563 117.6059799194336 154.5 114 154.5 Z" stroke="none"/><path d="M 14 1 C 10.52758026123047 1 7.262977600097656 2.35223388671875 4.8076171875 4.807601928710938 C 2.352241516113281 7.262985229492188 1 10.52757263183594 1 14 L 1 141 C 1 144.472412109375 2.352241516113281 147.7370147705078 4.8076171875 150.1923980712891 C 7.262977600097656 152.6477661132813 10.52758026123047 154 14 154 L 114 154 C 117.4724197387695 154 120.7370223999023 152.6477661132813 123.1923828125 150.1923980712891 C 125.6477584838867 147.7370147705078 127 144.472412109375 127 141 L 127 14 C 127 10.52757263183594 125.6477584838867 7.262985229492188 123.1923828125 4.807601928710938 C 120.7370223999023 2.35223388671875 117.4724197387695 1 114 1 L 14 1 M 14 0 L 114 0 C 121.7319793701172 0 128 6.26800537109375 128 14 L 128 141 C 128 148.7319946289063 121.7319793701172 155 114 155 L 14 155 C 6.268020629882813 155 0 148.7319946289063 0 141 L 0 14 C 0 6.26800537109375 6.268020629882813 0 14 0 Z" stroke="none" fill="#fff"/></g></g><path d="M-48.785-1.441h3.377V0h-5.186V-9.242h1.809ZM-42.678,0h-1.809V-6.868h1.809Zm-.7-9.414h1.9l.019.038-1.581,1.65-1.454,0Zm3.669,2.545.076.946a2.289,2.289,0,0,1,.7-.79A1.6,1.6,0,0,1-38.019-7a1.591,1.591,0,0,1,1.349.66,3.5,3.5,0,0,1,.492,2.076V0h-1.809V-4.264a1.842,1.842,0,0,0-.2-1,.7.7,0,0,0-.619-.289.822.822,0,0,0-.444.127,1.083,1.083,0,0,0-.343.349V0h-1.8V-6.868Zm7.338,7a2.623,2.623,0,0,1-2.057-.851,3.1,3.1,0,0,1-.762-2.146v-.965a3.545,3.545,0,0,1,.708-2.279A2.365,2.365,0,0,1-32.529-7a2.276,2.276,0,0,1,1.866.806,3.366,3.366,0,0,1,.66,2.2v1.1h-3.4v.025a1.9,1.9,0,0,0,.308,1.117,1.061,1.061,0,0,0,.93.438,2.482,2.482,0,0,0,.825-.114A4.341,4.341,0,0,0-30.58-1.8l.457,1.149a2.723,2.723,0,0,1-.949.565A3.694,3.694,0,0,1-32.376.133Zm-.152-5.687a.67.67,0,0,0-.635.4,2.564,2.564,0,0,0-.229,1.065h1.619v-.255a1.831,1.831,0,0,0-.178-.889A.612.612,0,0,0-32.529-5.554ZM-25.749,0a3.082,3.082,0,0,1-.136-.375,3.057,3.057,0,0,1-.092-.413,2.147,2.147,0,0,1-.619.67,1.46,1.46,0,0,1-.847.251,1.756,1.756,0,0,1-1.362-.559,2.124,2.124,0,0,1-.511-1.492,1.955,1.955,0,0,1,.651-1.568,2.9,2.9,0,0,1,1.933-.559h.679V-4.6a1.381,1.381,0,0,0-.181-.771.61.61,0,0,0-.543-.27.523.523,0,0,0-.457.216,1.085,1.085,0,0,0-.152.628l-1.746-.006-.019-.038a1.883,1.883,0,0,1,.663-1.523A2.626,2.626,0,0,1-26.657-7a2.451,2.451,0,0,1,1.742.625,2.317,2.317,0,0,1,.67,1.781v2.78a6.017,6.017,0,0,0,.07.946A5.153,5.153,0,0,0-23.959,0Zm-1.174-1.225a.929.929,0,0,0,.5-.146,1.084,1.084,0,0,0,.365-.375V-3.009h-.679a.657.657,0,0,0-.6.286A1.312,1.312,0,0,0-27.514-2a.919.919,0,0,0,.159.559A.507.507,0,0,0-26.924-1.225Zm10.943-.749h-2.437L-18.913,0h-1.822l2.6-9.242h1.879L-13.657,0h-1.822ZM-18.05-3.415h1.7l-.832-3.269h-.038Zm4.754-.336A4.148,4.148,0,0,1-12.7-6.1,1.921,1.921,0,0,1-11-7a1.424,1.424,0,0,1,.806.232,2.042,2.042,0,0,1,.609.663l.114-.768h1.568V-.133A2.864,2.864,0,0,1-8.69,2a2.917,2.917,0,0,1-2.149.778,3.459,3.459,0,0,1-.946-.143,4.344,4.344,0,0,1-.933-.384L-12.4.857a3.228,3.228,0,0,0,.736.3,3.1,3.1,0,0,0,.813.1A1.029,1.029,0,0,0-9.994.9,1.646,1.646,0,0,0-9.709-.14V-.533a1.749,1.749,0,0,1-.578.5,1.559,1.559,0,0,1-.73.168A1.947,1.947,0,0,1-12.7-.7a3.714,3.714,0,0,1-.6-2.206Zm1.8.848a2.617,2.617,0,0,0,.216,1.173.749.749,0,0,0,.724.423,1.022,1.022,0,0,0,.492-.114.94.94,0,0,0,.352-.337V-5.014a1.109,1.109,0,0,0-.346-.394.845.845,0,0,0-.486-.14.753.753,0,0,0-.73.493,3.217,3.217,0,0,0-.222,1.306ZM-3.5-5.224l-.679-.019a.769.769,0,0,0-.473.14.887.887,0,0,0-.289.394V0h-1.8V-6.868h1.682l.07.92.032.013a1.873,1.873,0,0,1,.46-.778A.965.965,0,0,1-3.812-7a1.6,1.6,0,0,1,.257.022,1.746,1.746,0,0,1,.238.054Zm.571,1.371A3.415,3.415,0,0,1-2.2-6.116,2.526,2.526,0,0,1-.143-7a2.536,2.536,0,0,1,2.057.879A3.4,3.4,0,0,1,2.65-3.853V-3A3.387,3.387,0,0,1,1.914-.736a2.541,2.541,0,0,1-2.05.87A2.546,2.546,0,0,1-2.2-.736,3.4,3.4,0,0,1-2.929-3Zm1.8.848A2.867,2.867,0,0,0-.911-1.759a.791.791,0,0,0,.774.451.782.782,0,0,0,.759-.455A2.835,2.835,0,0,0,.847-3.005v-.852A2.843,2.843,0,0,0,.622-5.093a.785.785,0,0,0-.765-.461.785.785,0,0,0-.765.464,2.847,2.847,0,0,0-.225,1.233ZM5.488,0h-1.8V-6.868h1.8Zm0-8.525h-1.8V-9.9h1.8ZM8.395-6.868l.076.946a2.289,2.289,0,0,1,.7-.79A1.6,1.6,0,0,1,10.09-7a1.591,1.591,0,0,1,1.349.66,3.5,3.5,0,0,1,.492,2.076V0H10.121V-4.264a1.842,1.842,0,0,0-.2-1A.7.7,0,0,0,9.3-5.554a.822.822,0,0,0-.444.127,1.083,1.083,0,0,0-.343.349V0h-1.8V-6.868ZM12.819-3.4A5.013,5.013,0,0,1,13.416-6,1.867,1.867,0,0,1,15.1-7a1.4,1.4,0,0,1,.724.19,1.9,1.9,0,0,1,.578.546V-9.9h1.8V0H16.634l-.121-.749a2.019,2.019,0,0,1-.619.657,1.458,1.458,0,0,1-.8.225A1.882,1.882,0,0,1,13.413-.8a4.531,4.531,0,0,1-.594-2.466Zm1.8.134a3.889,3.889,0,0,0,.213,1.439.737.737,0,0,0,.72.516.9.9,0,0,0,.489-.131,1.078,1.078,0,0,0,.355-.379V-4.949a1.272,1.272,0,0,0-.355-.446.766.766,0,0,0-.476-.159.764.764,0,0,0-.724.592A4.553,4.553,0,0,0,14.622-3.4ZM22.861-.793a2.027,2.027,0,0,1-.676.689,1.712,1.712,0,0,1-.9.238,1.691,1.691,0,0,1-1.438-.7,3.621,3.621,0,0,1-.517-2.155V-6.868h1.8V-2.7a2.361,2.361,0,0,0,.178,1.061.567.567,0,0,0,.527.33,1.169,1.169,0,0,0,.524-.111,1.05,1.05,0,0,0,.384-.327V-6.868h1.809V0H22.969Zm5.821-1a.667.667,0,0,0-.229-.5,3.847,3.847,0,0,0-.876-.524A4.619,4.619,0,0,1,26.025-3.7a1.667,1.667,0,0,1-.517-1.27A1.854,1.854,0,0,1,26.171-6.4,2.533,2.533,0,0,1,27.927-7a2.626,2.626,0,0,1,1.822.609A1.922,1.922,0,0,1,30.4-4.831l-.019.038H28.644a1.176,1.176,0,0,0-.178-.686.621.621,0,0,0-.546-.254.685.685,0,0,0-.5.2.638.638,0,0,0-.2.476.638.638,0,0,0,.2.492,4.091,4.091,0,0,0,.882.511,4.278,4.278,0,0,1,1.6.873,1.76,1.76,0,0,1,.521,1.323,1.756,1.756,0,0,1-.7,1.435,2.849,2.849,0,0,1-1.834.559,2.539,2.539,0,0,1-1.879-.692,2.043,2.043,0,0,1-.66-1.562l.013-.038h1.65a1.12,1.12,0,0,0,.254.787.9.9,0,0,0,.667.241.781.781,0,0,0,.552-.178A.636.636,0,0,0,28.682-1.8Zm4.792-6.779v1.708h.952v1.308h-.952v3.447a1.122,1.122,0,0,0,.121.6.377.377,0,0,0,.33.181,2.076,2.076,0,0,0,.279-.016,2.043,2.043,0,0,0,.254-.054L34.6-.032A3.6,3.6,0,0,1,34.052.1a4.109,4.109,0,0,1-.59.038A1.656,1.656,0,0,1,32.132-.4a2.589,2.589,0,0,1-.46-1.7V-5.561h-.812V-6.868h.813V-8.576Zm5.211,3.352-.679-.019a.769.769,0,0,0-.473.14.887.887,0,0,0-.289.394V0h-1.8V-6.868h1.682l.07.92.032.013a1.873,1.873,0,0,1,.46-.778A.965.965,0,0,1,38.375-7a1.6,1.6,0,0,1,.257.022,1.746,1.746,0,0,1,.238.054ZM41.485,0h-1.8V-6.868h1.8Zm0-8.525h-1.8V-9.9h1.8ZM46.087,0a3.082,3.082,0,0,1-.136-.375,3.057,3.057,0,0,1-.092-.413,2.147,2.147,0,0,1-.619.67,1.46,1.46,0,0,1-.847.251,1.756,1.756,0,0,1-1.362-.559,2.124,2.124,0,0,1-.511-1.492,1.955,1.955,0,0,1,.651-1.568A2.9,2.9,0,0,1,45.1-4.043h.679V-4.6a1.381,1.381,0,0,0-.181-.771.61.61,0,0,0-.543-.27.523.523,0,0,0-.457.216,1.085,1.085,0,0,0-.152.628L42.7-4.805l-.019-.038a1.883,1.883,0,0,1,.663-1.523A2.626,2.626,0,0,1,45.179-7a2.451,2.451,0,0,1,1.742.625,2.317,2.317,0,0,1,.67,1.781v2.78a6.016,6.016,0,0,0,.07.946A5.153,5.153,0,0,0,47.877,0ZM44.913-1.225a.929.929,0,0,0,.5-.146,1.084,1.084,0,0,0,.365-.375V-3.009H45.1a.657.657,0,0,0-.6.286A1.312,1.312,0,0,0,44.323-2a.919.919,0,0,0,.159.559A.507.507,0,0,0,44.913-1.225ZM50.619,0h-1.8V-9.9h1.8Z" transform="translate(1094.594 168)" fill="#fff"/><path d="M4592.735,5920.677a5.287,5.287,0,0,0-1.92-.442l-.144-.012-.059-.005c.239-6.37.447-11.94.5-13.452a9.781,9.781,0,0,0,2.047-2.873,1.039,1.039,0,0,0,.078-.4v-4.976a2.616,2.616,0,0,0-1.763-2.468v-1.82a3.6,3.6,0,0,0,.992-2.4v-3.156c0-2.449-2.812-4.539-8.13-6.042a77.921,77.921,0,0,0-36.106,0c-5.319,1.5-8.131,3.593-8.131,6.042v3.156a3.594,3.594,0,0,0,.993,2.4v1.82a2.616,2.616,0,0,0-1.764,2.468v4.976a1.057,1.057,0,0,0,.078.4,9.8,9.8,0,0,0,2.078,2.9c.15,3.993,1.279,34.11,1.364,36.657.044,1.32,2.246,4.055,5.853,6.35,3.318,2.11,9.064,4.625,17.6,4.625,8.972,0,14.7-2.52,17.929-4.633,3.744-2.453,5.482-5.185,5.52-6.342.042-1.241.331-9.023.634-17.142.188,0,.375.008.566.008a3.152,3.152,0,0,0,3.333-3.116A2.674,2.674,0,0,0,4592.735,5920.677Zm-24.783-11.686a2.474,2.474,0,1,0-2.036.618c.1.274.209.566.335.878H4560.3v-5.4c0-.93.314-1.244,1.244-1.244h9.481c.93,0,1.243.314,1.243,1.244v5.4h-3.71C4568.318,5909.94,4568.117,5909.437,4567.952,5908.991Zm19.892-2.229c-3.981,2.829-9.331,3.6-13.455,3.709v-3.527c12.22-.289,15.768-5.561,16.733-7.859v4.17A10.546,10.546,0,0,1,4587.844,5906.763Zm2.214-14.122a1.061,1.061,0,0,0-.647.67,17.43,17.43,0,0,1-5.647,2.528,75.863,75.863,0,0,1-34.954,0,17.424,17.424,0,0,1-5.646-2.528,1.061,1.061,0,0,0-.648-.67,1.613,1.613,0,0,1-.255-.525,19.3,19.3,0,0,0,5.974,2.6,77.921,77.921,0,0,0,36.106,0,19.311,19.311,0,0,0,5.974-2.6A1.616,1.616,0,0,1,4590.058,5892.641Zm-46.844,3.246a22.413,22.413,0,0,0,5.021,1.991,77.939,77.939,0,0,0,36.106,0,22.384,22.384,0,0,0,5.02-1.991v1.84a7.217,7.217,0,0,1-2.467,3.463c-3.315,2.772-8.447,3.531-12.513,3.636a3.059,3.059,0,0,0-3.352-3.1h-9.481a3.059,3.059,0,0,0-3.353,3.1c-4.066-.105-9.2-.864-12.513-3.636a7.231,7.231,0,0,1-2.467-3.461Zm30.116,16.718c7.782,0,12.638-1.946,15.6-4-.121,3.2-.348,9.288-.58,15.493a25.159,25.159,0,0,1-9.543-2.582,21.613,21.613,0,0,1-7.146-5.888,23.769,23.769,0,0,1-2.029-3.023Zm-24.52-27.929a75.9,75.9,0,0,1,34.954,0c3.039.859,6.587,2.423,6.587,4s-3.548,3.143-6.587,4a75.9,75.9,0,0,1-34.954,0c-3.039-.859-6.586-2.423-6.586-4S4545.771,5885.536,4548.81,5884.676Zm-7.359,14.41c.967,2.3,4.515,7.57,16.734,7.859v3.527c-4.125-.106-9.473-.88-13.455-3.709a10.54,10.54,0,0,1-3.279-3.507Zm46.184,44.261c-.282,1.181-5.789,8.963-21.332,8.963-7.815,0-13.087-2.225-16.136-4.091-3.5-2.144-5.039-4.386-5.2-4.89-.089-2.609-1-26.968-1.291-34.7,2.961,2.047,7.809,3.979,15.566,3.979h7.976a26.217,26.217,0,0,0,2.717,4.262c3.1,3.956,8.744,8.607,18.331,9.348C4587.968,5934.267,4587.681,5941.994,4587.635,5943.347Zm3.317-19.146c-.165,0-.326,0-.488-.005q.034-.932.07-1.857l.11.009c1.413.113,1.522.427,1.522.857C4592.167,5924.083,4591.31,5924.194,4590.952,5924.2Z" transform="translate(-3471.332 -5814.429)" fill="#fff"/></g></g></svg>