<svg xmlns="http://www.w3.org/2000/svg" xmlns:xlink="http://www.w3.org/1999/xlink" width="160" height="190" viewBox="0 0 160 190"><defs><clipPath id="b"><rect width="160" height="190"/></clipPath></defs><g id="a" clip-path="url(#b)"><g transform="translate(-689 -12.66)"><path d="M14,0H114a14,14,0,0,1,14,14V141a14,14,0,0,1-14,14H14A14,14,0,0,1,0,141V14A14,14,0,0,1,14,0Z" transform="translate(705 30.66)" fill="none" opacity="0.93"/><path d="M-46.5-3.675V0h-1.8V-9.236h3.015a3.03,3.03,0,0,1,2.142.72,2.6,2.6,0,0,1,.778,2,2.325,2.325,0,0,1-.324,1.247,2.272,2.272,0,0,1-.946.835,1.769,1.769,0,0,1,1.025.8,2.817,2.817,0,0,1,.314,1.4v.654a4.084,4.084,0,0,0,.089.816,1.118,1.118,0,0,0,.311.632V0h-1.866a1.042,1.042,0,0,1-.279-.66,7.517,7.517,0,0,1-.057-.933v-.628a1.773,1.773,0,0,0-.282-1.073.947.947,0,0,0-.809-.381Zm0-1.441h1.206a1.038,1.038,0,0,0,.838-.336,1.44,1.44,0,0,0,.286-.958,1.624,1.624,0,0,0-.286-1.009.982.982,0,0,0-.832-.375H-46.5Zm8.125,5.25a2.623,2.623,0,0,1-2.057-.851,3.1,3.1,0,0,1-.762-2.146v-.965a3.545,3.545,0,0,1,.708-2.279A2.365,2.365,0,0,1-38.524-7a2.276,2.276,0,0,1,1.866.806,3.366,3.366,0,0,1,.66,2.2v1.1h-3.4v.025a1.9,1.9,0,0,0,.308,1.117,1.061,1.061,0,0,0,.93.438,2.482,2.482,0,0,0,.825-.114,4.341,4.341,0,0,0,.755-.381l.457,1.149a2.723,2.723,0,0,1-.949.565A3.694,3.694,0,0,1-38.372.133Zm-.152-5.687a.67.67,0,0,0-.635.4,2.564,2.564,0,0,0-.229,1.065h1.619v-.255a1.831,1.831,0,0,0-.178-.889A.612.612,0,0,0-38.524-5.554ZM-32.1-1.8a.667.667,0,0,0-.229-.5,3.847,3.847,0,0,0-.876-.524A4.619,4.619,0,0,1-34.757-3.7a1.667,1.667,0,0,1-.517-1.27A1.854,1.854,0,0,1-34.611-6.4,2.533,2.533,0,0,1-32.855-7a2.626,2.626,0,0,1,1.822.609,1.922,1.922,0,0,1,.654,1.555l-.019.038h-1.739a1.176,1.176,0,0,0-.178-.686.621.621,0,0,0-.546-.254.685.685,0,0,0-.5.2.638.638,0,0,0-.2.476.638.638,0,0,0,.2.492,4.091,4.091,0,0,0,.882.511,4.278,4.278,0,0,1,1.6.873,1.76,1.76,0,0,1,.521,1.323,1.756,1.756,0,0,1-.7,1.435,2.849,2.849,0,0,1-1.834.559,2.539,2.539,0,0,1-1.879-.692,2.043,2.043,0,0,1-.66-1.562l.013-.038h1.65a1.12,1.12,0,0,0,.254.787.9.9,0,0,0,.667.241.781.781,0,0,0,.552-.178A.636.636,0,0,0-32.1-1.8ZM-27.568,0h-1.8V-6.868h1.8Zm0-8.525h-1.8V-9.9h1.8Zm2.907,1.657.076.946a2.289,2.289,0,0,1,.7-.79A1.6,1.6,0,0,1-22.966-7a1.591,1.591,0,0,1,1.349.66,3.5,3.5,0,0,1,.492,2.076V0h-1.809V-4.264a1.842,1.842,0,0,0-.2-1,.7.7,0,0,0-.619-.289.822.822,0,0,0-.444.127,1.083,1.083,0,0,0-.343.349V0h-1.8V-6.868ZM-16.65,0a3.082,3.082,0,0,1-.136-.375,3.057,3.057,0,0,1-.092-.413,2.147,2.147,0,0,1-.619.67,1.46,1.46,0,0,1-.847.251,1.756,1.756,0,0,1-1.362-.559,2.124,2.124,0,0,1-.511-1.492,1.955,1.955,0,0,1,.651-1.568,2.9,2.9,0,0,1,1.933-.559h.679V-4.6a1.381,1.381,0,0,0-.181-.771.61.61,0,0,0-.543-.27.523.523,0,0,0-.457.216,1.085,1.085,0,0,0-.152.628l-1.746-.006-.019-.038a1.883,1.883,0,0,1,.663-1.523A2.626,2.626,0,0,1-17.558-7a2.451,2.451,0,0,1,1.742.625,2.317,2.317,0,0,1,.67,1.781v2.78a6.016,6.016,0,0,0,.07.946A5.153,5.153,0,0,0-14.86,0Zm-1.174-1.225a.929.929,0,0,0,.5-.146,1.084,1.084,0,0,0,.365-.375V-3.009h-.679a.657.657,0,0,0-.6.286A1.312,1.312,0,0,0-18.415-2a.919.919,0,0,0,.159.559A.507.507,0,0,0-17.824-1.225Zm6.811-.571a.667.667,0,0,0-.229-.5,3.847,3.847,0,0,0-.876-.524A4.619,4.619,0,0,1-13.67-3.7a1.667,1.667,0,0,1-.517-1.27A1.854,1.854,0,0,1-13.524-6.4,2.533,2.533,0,0,1-11.769-7a2.626,2.626,0,0,1,1.822.609,1.922,1.922,0,0,1,.654,1.555l-.019.038h-1.739a1.176,1.176,0,0,0-.178-.686.621.621,0,0,0-.546-.254.685.685,0,0,0-.5.2.638.638,0,0,0-.2.476.638.638,0,0,0,.2.492,4.091,4.091,0,0,0,.882.511,4.278,4.278,0,0,1,1.6.873A1.76,1.76,0,0,1-9.268-1.86a1.756,1.756,0,0,1-.7,1.435A2.849,2.849,0,0,1-11.8.133a2.539,2.539,0,0,1-1.879-.692,2.043,2.043,0,0,1-.66-1.562l.013-.038h1.65a1.12,1.12,0,0,0,.254.787.9.9,0,0,0,.667.241.781.781,0,0,0,.552-.178A.636.636,0,0,0-11.013-1.8Zm7.42-1.879V0H-5.4V-9.236H-2.38a3.03,3.03,0,0,1,2.142.72,2.6,2.6,0,0,1,.778,2A2.325,2.325,0,0,1,.216-5.265a2.272,2.272,0,0,1-.946.835,1.769,1.769,0,0,1,1.025.8,2.817,2.817,0,0,1,.314,1.4v.654A4.084,4.084,0,0,0,.7-.765a1.118,1.118,0,0,0,.311.632V0H-.857a1.042,1.042,0,0,1-.279-.66,7.517,7.517,0,0,1-.057-.933v-.628a1.773,1.773,0,0,0-.282-1.073.947.947,0,0,0-.809-.381Zm0-1.441h1.206a1.038,1.038,0,0,0,.838-.336,1.44,1.44,0,0,0,.286-.958A1.624,1.624,0,0,0-1.549-7.42a.982.982,0,0,0-.832-.375H-3.593ZM4.532.133A2.623,2.623,0,0,1,2.476-.717a3.1,3.1,0,0,1-.762-2.146v-.965a3.545,3.545,0,0,1,.708-2.279A2.365,2.365,0,0,1,4.38-7a2.276,2.276,0,0,1,1.866.806,3.366,3.366,0,0,1,.66,2.2v1.1H3.51v.025a1.9,1.9,0,0,0,.308,1.117,1.061,1.061,0,0,0,.93.438,2.482,2.482,0,0,0,.825-.114A4.341,4.341,0,0,0,6.329-1.8L6.786-.654a2.723,2.723,0,0,1-.949.565A3.694,3.694,0,0,1,4.532.133ZM4.38-5.554a.67.67,0,0,0-.635.4,2.564,2.564,0,0,0-.229,1.065H5.135v-.255a1.831,1.831,0,0,0-.178-.889A.612.612,0,0,0,4.38-5.554Zm5.941,4.247a.63.63,0,0,0,.555-.273,1.387,1.387,0,0,0,.187-.787H12.7l.019.038a2.353,2.353,0,0,1-.663,1.771,2.335,2.335,0,0,1-1.736.692,2.5,2.5,0,0,1-2.047-.87A3.426,3.426,0,0,1,7.56-2.983v-.882a3.465,3.465,0,0,1,.711-2.25A2.469,2.469,0,0,1,10.309-7a2.288,2.288,0,0,1,1.774.717,2.69,2.69,0,0,1,.638,1.936l-.013.032H11.064a1.876,1.876,0,0,0-.187-.9.609.609,0,0,0-.568-.341.743.743,0,0,0-.743.458,3.072,3.072,0,0,0-.2,1.227v.884a3.036,3.036,0,0,0,.2,1.233A.755.755,0,0,0,10.321-1.308ZM15.476,0h-1.8V-6.868h1.8Zm0-8.525h-1.8V-9.9h1.8ZM19.24-1.308a.63.63,0,0,0,.555-.273,1.387,1.387,0,0,0,.187-.787H21.62l.019.038a2.353,2.353,0,0,1-.663,1.771A2.335,2.335,0,0,1,19.24.133a2.5,2.5,0,0,1-2.047-.87,3.426,3.426,0,0,1-.714-2.247v-.882a3.465,3.465,0,0,1,.711-2.25A2.469,2.469,0,0,1,19.227-7,2.288,2.288,0,0,1,21-6.278a2.69,2.69,0,0,1,.638,1.936l-.013.032H19.982a1.876,1.876,0,0,0-.187-.9.609.609,0,0,0-.568-.341.743.743,0,0,0-.743.458,3.072,3.072,0,0,0-.2,1.227v.884a3.036,3.036,0,0,0,.2,1.233A.755.755,0,0,0,19.24-1.308ZM24.394,0h-1.8V-9.9h1.8ZM29,0a3.082,3.082,0,0,1-.136-.375,3.057,3.057,0,0,1-.092-.413,2.147,2.147,0,0,1-.619.67A1.46,1.46,0,0,1,27.3.133,1.756,1.756,0,0,1,25.94-.425a2.124,2.124,0,0,1-.511-1.492,1.955,1.955,0,0,1,.651-1.568,2.9,2.9,0,0,1,1.933-.559h.679V-4.6a1.381,1.381,0,0,0-.181-.771.61.61,0,0,0-.543-.27.523.523,0,0,0-.457.216,1.085,1.085,0,0,0-.152.628l-1.746-.006-.019-.038a1.883,1.883,0,0,1,.663-1.523A2.626,2.626,0,0,1,28.088-7a2.451,2.451,0,0,1,1.742.625,2.317,2.317,0,0,1,.67,1.781v2.78a6.017,6.017,0,0,0,.07.946A5.153,5.153,0,0,0,30.786,0ZM27.822-1.225a.929.929,0,0,0,.5-.146,1.084,1.084,0,0,0,.365-.375V-3.009h-.679a.657.657,0,0,0-.6.286A1.312,1.312,0,0,0,27.231-2a.919.919,0,0,0,.159.559A.507.507,0,0,0,27.822-1.225ZM31.4-3.4A5.013,5.013,0,0,1,32-6,1.867,1.867,0,0,1,33.681-7a1.4,1.4,0,0,1,.724.19,1.9,1.9,0,0,1,.578.546V-9.9h1.8V0H35.217L35.1-.749a2.019,2.019,0,0,1-.619.657,1.458,1.458,0,0,1-.8.225A1.882,1.882,0,0,1,32-.8,4.531,4.531,0,0,1,31.4-3.263Zm1.8.134a3.889,3.889,0,0,0,.213,1.439.737.737,0,0,0,.72.516.9.9,0,0,0,.489-.131,1.078,1.078,0,0,0,.355-.379V-4.949a1.272,1.272,0,0,0-.355-.446.766.766,0,0,0-.476-.159.764.764,0,0,0-.724.592A4.553,4.553,0,0,0,33.2-3.4ZM41.3,0a3.082,3.082,0,0,1-.136-.375,3.057,3.057,0,0,1-.092-.413,2.147,2.147,0,0,1-.619.67,1.46,1.46,0,0,1-.847.251,1.756,1.756,0,0,1-1.362-.559,2.124,2.124,0,0,1-.511-1.492,1.955,1.955,0,0,1,.651-1.568,2.9,2.9,0,0,1,1.933-.559H41V-4.6a1.381,1.381,0,0,0-.181-.771.61.61,0,0,0-.543-.27.523.523,0,0,0-.457.216,1.085,1.085,0,0,0-.152.628l-1.746-.006L37.9-4.843a1.883,1.883,0,0,1,.663-1.523A2.626,2.626,0,0,1,40.4-7a2.451,2.451,0,0,1,1.742.625,2.317,2.317,0,0,1,.67,1.781v2.78a6.016,6.016,0,0,0,.07.946A5.153,5.153,0,0,0,43.094,0ZM40.13-1.225a.929.929,0,0,0,.5-.146A1.084,1.084,0,0,0,41-1.746V-3.009H40.32a.657.657,0,0,0-.6.286A1.312,1.312,0,0,0,39.54-2a.919.919,0,0,0,.159.559A.507.507,0,0,0,40.13-1.225ZM46.941-1.8a.667.667,0,0,0-.229-.5,3.847,3.847,0,0,0-.876-.524A4.619,4.619,0,0,1,44.284-3.7a1.667,1.667,0,0,1-.517-1.27A1.854,1.854,0,0,1,44.43-6.4,2.533,2.533,0,0,1,46.186-7a2.626,2.626,0,0,1,1.822.609,1.922,1.922,0,0,1,.654,1.555l-.019.038H46.9a1.176,1.176,0,0,0-.178-.686.621.621,0,0,0-.546-.254.685.685,0,0,0-.5.2.638.638,0,0,0-.2.476.638.638,0,0,0,.2.492,4.091,4.091,0,0,0,.882.511,4.278,4.278,0,0,1,1.6.873,1.76,1.76,0,0,1,.521,1.323,1.756,1.756,0,0,1-.7,1.435,2.849,2.849,0,0,1-1.834.559,2.539,2.539,0,0,1-1.879-.692,2.043,2.043,0,0,1-.66-1.562l.013-.038h1.65a1.12,1.12,0,0,0,.254.787.9.9,0,0,0,.667.241.781.781,0,0,0,.552-.178A.636.636,0,0,0,46.941-1.8Z" transform="translate(769 168)" fill="#5e5b5c"/><g transform="translate(732.998 68.625)"><path d="M61.388,48.21a4.995,4.995,0,1,1,5,4.951A4.974,4.974,0,0,1,61.388,48.21Zm5-20.51a4.951,4.951,0,1,0-5-4.95A4.971,4.971,0,0,0,66.383,27.7ZM47.449,28.732a4.995,4.995,0,1,0,4.995-4.951A4.971,4.971,0,0,0,47.449,28.732ZM22.684,61.474a4.951,4.951,0,1,0,4.995,4.95A4.973,4.973,0,0,0,22.684,61.474ZM42.452,23.78a4.951,4.951,0,1,0-4.994-4.951A4.975,4.975,0,0,0,42.452,23.78ZM52.443,37.4a4.951,4.951,0,1,0,4.995,4.95A4.972,4.972,0,0,0,52.443,37.4ZM28.928,47.3a4.951,4.951,0,1,0,4.995,4.95A4.973,4.973,0,0,0,28.928,47.3ZM48.636,61.474a4.951,4.951,0,1,0,4.995,4.95A4.973,4.973,0,0,0,48.636,61.474Zm0-51.572a4.951,4.951,0,1,0-4.995-4.951A4.974,4.974,0,0,0,48.636,9.9Zm-29.7,37.4a4.951,4.951,0,1,0-4.993-4.95A4.974,4.974,0,0,0,18.938,47.3ZM5,27.7A4.951,4.951,0,1,0,0,22.75,4.974,4.974,0,0,0,5,27.7ZM5,53.162A4.951,4.951,0,1,0,0,48.21,4.974,4.974,0,0,0,5,53.162ZM18.938,33.683a4.951,4.951,0,1,0-4.993-4.95A4.973,4.973,0,0,0,18.938,33.683ZM42.452,57.2a4.951,4.951,0,1,0-4.994-4.95A4.974,4.974,0,0,0,42.452,57.2ZM23.933,18.83a4.995,4.995,0,1,0,4.995-4.95A4.973,4.973,0,0,0,23.933,18.83ZM22.684,9.9a4.951,4.951,0,1,0-4.995-4.95A4.973,4.973,0,0,0,22.684,9.9Z" fill="#5e5b5c"/></g></g></g></svg>