<svg xmlns="http://www.w3.org/2000/svg" xmlns:xlink="http://www.w3.org/1999/xlink" width="160" height="190" viewBox="0 0 160 190"><defs><clipPath id="b"><rect width="160" height="190"/></clipPath></defs><g id="a" clip-path="url(#b)"><g transform="translate(-3905 -12.66)"><path d="M14,0H114a14,14,0,0,1,14,14V141a14,14,0,0,1-14,14H14A14,14,0,0,1,0,141V14A14,14,0,0,1,14,0Z" transform="translate(3921 30.66)" fill="none" opacity="0.93"/><path d="M-18.83,0V-9.242h2.723a3.512,3.512,0,0,1,2.231.635,2.265,2.265,0,0,1,.8,1.892,2.318,2.318,0,0,1-.292,1.171,1.8,1.8,0,0,1-.876.765,1.64,1.64,0,0,1,1.079.743A2.517,2.517,0,0,1-12.813-2.7a2.574,2.574,0,0,1-.759,2.012A3.134,3.134,0,0,1-15.745,0Zm1.809-4.075v2.634h1.276a1.084,1.084,0,0,0,.854-.317,1.384,1.384,0,0,0,.282-.946A1.8,1.8,0,0,0-14.85-3.72a.868.868,0,0,0-.774-.355Zm0-1.263h1a1.157,1.157,0,0,0,.847-.321,1.235,1.235,0,0,0,.3-.888,1.293,1.293,0,0,0-.3-.951,1.257,1.257,0,0,0-.92-.3h-.914ZM-9.848,0h-1.8V-6.868h1.8Zm0-8.525h-1.8V-9.9h1.8Zm1.041,4.672a3.415,3.415,0,0,1,.733-2.263A2.526,2.526,0,0,1-6.021-7a2.536,2.536,0,0,1,2.057.879,3.4,3.4,0,0,1,.736,2.263V-3A3.387,3.387,0,0,1-3.964-.736a2.541,2.541,0,0,1-2.05.87,2.546,2.546,0,0,1-2.06-.87A3.4,3.4,0,0,1-8.807-3Zm1.8.848a2.867,2.867,0,0,0,.222,1.246.791.791,0,0,0,.774.451.782.782,0,0,0,.759-.455,2.835,2.835,0,0,0,.225-1.243v-.852a2.843,2.843,0,0,0-.225-1.237.785.785,0,0,0-.765-.461.785.785,0,0,0-.765.464,2.847,2.847,0,0,0-.225,1.233Zm13.5.028.019.038a3.177,3.177,0,0,1-.724,2.3A2.857,2.857,0,0,1,3.609.133,3.054,3.054,0,0,1,1.317-.746,3.422,3.422,0,0,1,.46-3.237V-6A3.508,3.508,0,0,1,1.289-8.49a2.893,2.893,0,0,1,2.219-.885,2.937,2.937,0,0,1,2.225.787,3.334,3.334,0,0,1,.778,2.33l-.019.038H4.751A2.157,2.157,0,0,0,4.5-7.533a1.14,1.14,0,0,0-1-.4,1.059,1.059,0,0,0-.933.477A2.589,2.589,0,0,0,2.25-6.016v2.777A2.483,2.483,0,0,0,2.6-1.784a1.172,1.172,0,0,0,1.012.477,1.023,1.023,0,0,0,.911-.378,2.256,2.256,0,0,0,.225-1.292ZM10.966-.793A2.027,2.027,0,0,1,10.29-.1a1.712,1.712,0,0,1-.9.238,1.691,1.691,0,0,1-1.438-.7,3.621,3.621,0,0,1-.517-2.155V-6.868h1.8V-2.7a2.361,2.361,0,0,0,.178,1.061.567.567,0,0,0,.527.33,1.169,1.169,0,0,0,.524-.111,1.05,1.05,0,0,0,.384-.327V-6.868H12.66V0H11.073Zm8.214-2.114a3.714,3.714,0,0,1-.6,2.206,1.935,1.935,0,0,1-1.669.835,1.607,1.607,0,0,1-.746-.168,1.623,1.623,0,0,1-.568-.5V2.641H13.8V-6.868h1.669l.063.679a1.863,1.863,0,0,1,.587-.6A1.463,1.463,0,0,1,16.9-7a1.909,1.909,0,0,1,1.682.892,4.162,4.162,0,0,1,.6,2.352Zm-1.8-.848a3.138,3.138,0,0,0-.229-1.306.753.753,0,0,0-.717-.493.857.857,0,0,0-.5.143,1.012,1.012,0,0,0-.336.4v3.242a.854.854,0,0,0,.333.343,1.027,1.027,0,0,0,.5.114.75.75,0,0,0,.72-.426,2.605,2.605,0,0,0,.219-1.176Z" transform="translate(3985 168)" fill="#5e5b5c"/><path d="M52.191,53.758a1.485,1.485,0,0,0-1.483,1.483V61.79a1.485,1.485,0,0,0,1.483,1.483h1.965l8.023,64.186a1.486,1.486,0,0,0,1.472,1.3h39.291a1.486,1.486,0,0,0,1.472-1.3l8.023-64.186H114.4a1.485,1.485,0,0,0,1.483-1.483V55.241a1.485,1.485,0,0,0-1.483-1.483m-11.874,65.485H96.521A1.516,1.516,0,0,0,95,120.506a1.484,1.484,0,0,0,1.468,1.7h5.687l-.448,3.583H65.037l-.448-3.583H89.87a1.515,1.515,0,0,0,1.518-1.262,1.483,1.483,0,0,0-1.467-1.7h-25.7L60.1,86.266l.2.024c5.985.729,13.864,5.606,21.482,10.322,8.028,4.97,15.61,9.663,22.1,10.666l.148.023Zm1.861-14.849-.158-.025c-5.908-.96-13.528-5.677-20.9-10.238-8.593-5.32-16.71-10.345-23.489-10.824L59.72,83.3,58.456,73.192l.192.018c6.928.668,15.46,5.83,23.711,10.822,8.482,5.132,16.494,9.98,23.115,10.36l.164.009Zm1.618-12.988-.141-.005c-5.915-.23-14.078-5.17-21.972-9.946C75.095,76.13,66,70.624,58.21,70.164l-.128-.007-.86-6.884h52.3Zm6.912-34.682v3.583H53.674V56.724Z" transform="translate(3901.292 11.242)" fill="#5e5b5c"/></g></g></svg>