<svg xmlns="http://www.w3.org/2000/svg" xmlns:xlink="http://www.w3.org/1999/xlink" width="160" height="190" viewBox="0 0 160 190"><defs><filter id="a" x="-2" y="2" width="164" height="191" filterUnits="userSpaceOnUse"><feOffset dy="2" input="SourceAlpha"/><feGaussianBlur stdDeviation="6" result="b"/><feFlood flood-color="#44d62c" flood-opacity="0.651"/><feComposite operator="in" in2="b"/><feComposite in="SourceGraphic"/></filter><clipPath id="d"><rect width="160" height="190"/></clipPath></defs><g id="c" clip-path="url(#d)"><g transform="translate(-1194 -328.66)"><g transform="matrix(1, 0, 0, 1, 1194, 328.66)" filter="url(#a)"><g transform="translate(16 18)" fill="#44d62c" stroke="#fff" stroke-width="1" opacity="0.93"><rect width="128" height="155" rx="14" stroke="none"/><rect x="0.5" y="0.5" width="127" height="154" rx="13.5" fill="none"/></g></g><path d="M-41.174-2.977l.019.038a3.177,3.177,0,0,1-.724,2.3A2.857,2.857,0,0,1-44.05.133a3.054,3.054,0,0,1-2.292-.879A3.422,3.422,0,0,1-47.2-3.237V-6A3.508,3.508,0,0,1-46.37-8.49a2.893,2.893,0,0,1,2.219-.885,2.937,2.937,0,0,1,2.225.787,3.334,3.334,0,0,1,.778,2.33l-.019.038h-1.739a2.157,2.157,0,0,0-.248-1.312,1.14,1.14,0,0,0-1-.4,1.059,1.059,0,0,0-.933.477,2.589,2.589,0,0,0-.324,1.442v2.777a2.483,2.483,0,0,0,.346,1.455,1.172,1.172,0,0,0,1.012.477,1.023,1.023,0,0,0,.911-.378,2.256,2.256,0,0,0,.225-1.292ZM-36.832,0a3.082,3.082,0,0,1-.136-.375,3.057,3.057,0,0,1-.092-.413,2.147,2.147,0,0,1-.619.67,1.46,1.46,0,0,1-.847.251,1.756,1.756,0,0,1-1.362-.559A2.124,2.124,0,0,1-40.4-1.917a1.955,1.955,0,0,1,.651-1.568,2.9,2.9,0,0,1,1.933-.559h.679V-4.6a1.381,1.381,0,0,0-.181-.771.61.61,0,0,0-.543-.27.523.523,0,0,0-.457.216,1.085,1.085,0,0,0-.152.628l-1.746-.006-.019-.038a1.883,1.883,0,0,1,.663-1.523A2.626,2.626,0,0,1-37.74-7,2.451,2.451,0,0,1-36-6.37a2.317,2.317,0,0,1,.67,1.781v2.78a6.016,6.016,0,0,0,.07.946A5.153,5.153,0,0,0-35.042,0Zm-1.174-1.225a.929.929,0,0,0,.5-.146,1.084,1.084,0,0,0,.365-.375V-3.009h-.679a.657.657,0,0,0-.6.286A1.312,1.312,0,0,0-38.6-2a.919.919,0,0,0,.159.559A.507.507,0,0,0-38.007-1.225Zm5.745-5.643V.209a2.832,2.832,0,0,1-.571,1.9,1.978,1.978,0,0,1-1.587.667,2.682,2.682,0,0,1-.406-.028q-.184-.028-.406-.085l.076-1.4a2.6,2.6,0,0,0,.254.057,1.551,1.551,0,0,0,.254.019.466.466,0,0,0,.428-.28A1.823,1.823,0,0,0-34.071.22V-6.868ZM-32.3-8.525h-1.8V-9.9h1.8ZM-29.209,0h-1.8V-6.868h1.8Zm0-8.525h-1.8V-9.9h1.8ZM-26.067,0h-1.8V-9.9h1.8Zm3.142,0h-1.8V-9.9h1.8Zm4.6,0a3.082,3.082,0,0,1-.136-.375,3.057,3.057,0,0,1-.092-.413,2.147,2.147,0,0,1-.619.67,1.46,1.46,0,0,1-.847.251,1.756,1.756,0,0,1-1.362-.559,2.124,2.124,0,0,1-.511-1.492,1.955,1.955,0,0,1,.651-1.568,2.9,2.9,0,0,1,1.933-.559h.679V-4.6a1.381,1.381,0,0,0-.181-.771.61.61,0,0,0-.543-.27.523.523,0,0,0-.457.216,1.085,1.085,0,0,0-.152.628l-1.746-.006-.019-.038a1.883,1.883,0,0,1,.663-1.523A2.626,2.626,0,0,1-19.23-7a2.451,2.451,0,0,1,1.742.625,2.317,2.317,0,0,1,.67,1.781v2.78a6.017,6.017,0,0,0,.07.946A5.153,5.153,0,0,0-16.532,0ZM-19.5-1.225a.929.929,0,0,0,.5-.146,1.084,1.084,0,0,0,.365-.375V-3.009h-.679a.657.657,0,0,0-.6.286A1.312,1.312,0,0,0-20.087-2a.919.919,0,0,0,.159.559A.507.507,0,0,0-19.5-1.225Zm6.811-.571a.667.667,0,0,0-.229-.5,3.847,3.847,0,0,0-.876-.524A4.619,4.619,0,0,1-15.342-3.7a1.667,1.667,0,0,1-.517-1.27A1.854,1.854,0,0,1-15.2-6.4,2.533,2.533,0,0,1-13.441-7a2.626,2.626,0,0,1,1.822.609,1.922,1.922,0,0,1,.654,1.555l-.019.038h-1.739a1.176,1.176,0,0,0-.178-.686.621.621,0,0,0-.546-.254.685.685,0,0,0-.5.2.638.638,0,0,0-.2.476.638.638,0,0,0,.2.492,4.091,4.091,0,0,0,.882.511,4.278,4.278,0,0,1,1.6.873A1.76,1.76,0,0,1-10.94-1.86a1.756,1.756,0,0,1-.7,1.435,2.849,2.849,0,0,1-1.834.559,2.539,2.539,0,0,1-1.879-.692,2.043,2.043,0,0,1-.66-1.562L-16-2.158h1.65a1.12,1.12,0,0,0,.254.787.9.9,0,0,0,.667.241.781.781,0,0,0,.552-.178A.636.636,0,0,0-12.686-1.8Zm7.42-1.523V0H-7.074V-9.242h3.212a2.914,2.914,0,0,1,2.184.818,2.935,2.935,0,0,1,.8,2.143,2.926,2.926,0,0,1-.8,2.146,2.922,2.922,0,0,1-2.18.815Zm0-1.441h1.4a1.017,1.017,0,0,0,.882-.426,1.814,1.814,0,0,0,.3-1.081,1.884,1.884,0,0,0-.3-1.1A1.008,1.008,0,0,0-3.863-7.8h-1.4ZM2.047,0H.244V-9.9h1.8ZM5.976.133A2.623,2.623,0,0,1,3.92-.717a3.1,3.1,0,0,1-.762-2.146v-.965a3.545,3.545,0,0,1,.708-2.279A2.365,2.365,0,0,1,5.824-7a2.276,2.276,0,0,1,1.866.806,3.366,3.366,0,0,1,.66,2.2v1.1h-3.4v.025a1.9,1.9,0,0,0,.308,1.117,1.061,1.061,0,0,0,.93.438,2.482,2.482,0,0,0,.825-.114A4.341,4.341,0,0,0,7.773-1.8L8.23-.654a2.723,2.723,0,0,1-.949.565A3.694,3.694,0,0,1,5.976.133ZM5.824-5.554a.67.67,0,0,0-.635.4,2.564,2.564,0,0,0-.229,1.065H6.579v-.255A1.831,1.831,0,0,0,6.4-5.239.612.612,0,0,0,5.824-5.554Zm3.193,1.8a4.148,4.148,0,0,1,.6-2.349A1.921,1.921,0,0,1,11.308-7a1.424,1.424,0,0,1,.806.232,2.042,2.042,0,0,1,.609.663l.114-.768h1.568V-.133A2.864,2.864,0,0,1,13.622,2a2.917,2.917,0,0,1-2.149.778,3.459,3.459,0,0,1-.946-.143,4.344,4.344,0,0,1-.933-.384L9.912.857a3.228,3.228,0,0,0,.736.3,3.1,3.1,0,0,0,.813.1A1.029,1.029,0,0,0,12.318.9,1.646,1.646,0,0,0,12.6-.14V-.533a1.749,1.749,0,0,1-.578.5,1.559,1.559,0,0,1-.73.168A1.947,1.947,0,0,1,9.614-.7a3.714,3.714,0,0,1-.6-2.206Zm1.8.848a2.617,2.617,0,0,0,.216,1.173.749.749,0,0,0,.724.423,1.022,1.022,0,0,0,.492-.114.94.94,0,0,0,.352-.337V-5.014a1.109,1.109,0,0,0-.346-.394.845.845,0,0,0-.486-.14.753.753,0,0,0-.73.493,3.217,3.217,0,0,0-.222,1.306ZM18.913,0a3.082,3.082,0,0,1-.136-.375,3.057,3.057,0,0,1-.092-.413,2.147,2.147,0,0,1-.619.67,1.46,1.46,0,0,1-.847.251,1.756,1.756,0,0,1-1.362-.559,2.124,2.124,0,0,1-.511-1.492A1.955,1.955,0,0,1,16-3.485a2.9,2.9,0,0,1,1.933-.559h.679V-4.6a1.381,1.381,0,0,0-.181-.771.61.61,0,0,0-.543-.27.523.523,0,0,0-.457.216,1.085,1.085,0,0,0-.152.628L15.53-4.805l-.019-.038a1.883,1.883,0,0,1,.663-1.523A2.626,2.626,0,0,1,18.005-7a2.451,2.451,0,0,1,1.742.625,2.317,2.317,0,0,1,.67,1.781v2.78a6.017,6.017,0,0,0,.07.946A5.153,5.153,0,0,0,20.7,0ZM17.739-1.225a.929.929,0,0,0,.5-.146,1.084,1.084,0,0,0,.365-.375V-3.009h-.679a.657.657,0,0,0-.6.286A1.312,1.312,0,0,0,17.148-2a.919.919,0,0,0,.159.559A.507.507,0,0,0,17.739-1.225ZM21.319-3.4A5.013,5.013,0,0,1,21.915-6,1.867,1.867,0,0,1,23.6-7a1.4,1.4,0,0,1,.724.19,1.9,1.9,0,0,1,.578.546V-9.9h1.8V0H25.134l-.121-.749a2.019,2.019,0,0,1-.619.657,1.458,1.458,0,0,1-.8.225A1.882,1.882,0,0,1,21.912-.8a4.531,4.531,0,0,1-.594-2.466Zm1.8.134a3.89,3.89,0,0,0,.213,1.439.737.737,0,0,0,.72.516.9.9,0,0,0,.489-.131,1.078,1.078,0,0,0,.355-.379V-4.949a1.272,1.272,0,0,0-.355-.446.766.766,0,0,0-.476-.159.764.764,0,0,0-.724.592A4.553,4.553,0,0,0,23.121-3.4ZM29.761,0h-1.8V-6.868h1.8Zm0-8.525h-1.8V-9.9h1.8Zm3.155,7.084H35.6V0H30.846V-1.073l2.615-4.354H30.923V-6.868h4.634v1.047ZM39.968,0a3.082,3.082,0,0,1-.136-.375,3.057,3.057,0,0,1-.092-.413,2.147,2.147,0,0,1-.619.67,1.46,1.46,0,0,1-.847.251,1.756,1.756,0,0,1-1.362-.559A2.124,2.124,0,0,1,36.4-1.917a1.955,1.955,0,0,1,.651-1.568,2.9,2.9,0,0,1,1.933-.559h.679V-4.6a1.381,1.381,0,0,0-.181-.771.61.61,0,0,0-.543-.27.523.523,0,0,0-.457.216,1.085,1.085,0,0,0-.152.628l-1.746-.006-.019-.038a1.883,1.883,0,0,1,.663-1.523A2.626,2.626,0,0,1,39.06-7,2.451,2.451,0,0,1,40.8-6.37a2.317,2.317,0,0,1,.67,1.781v2.78a6.016,6.016,0,0,0,.07.946A5.153,5.153,0,0,0,41.758,0ZM38.794-1.225a.929.929,0,0,0,.5-.146,1.084,1.084,0,0,0,.365-.375V-3.009h-.679a.657.657,0,0,0-.6.286A1.312,1.312,0,0,0,38.2-2a.919.919,0,0,0,.159.559A.507.507,0,0,0,38.794-1.225ZM45.6-1.8a.667.667,0,0,0-.229-.5,3.847,3.847,0,0,0-.876-.524A4.619,4.619,0,0,1,42.948-3.7a1.667,1.667,0,0,1-.517-1.27A1.854,1.854,0,0,1,43.094-6.4,2.533,2.533,0,0,1,44.849-7a2.626,2.626,0,0,1,1.822.609,1.922,1.922,0,0,1,.654,1.555l-.019.038H45.567a1.176,1.176,0,0,0-.178-.686.621.621,0,0,0-.546-.254.685.685,0,0,0-.5.2.638.638,0,0,0-.2.476.638.638,0,0,0,.2.492,4.091,4.091,0,0,0,.882.511,4.278,4.278,0,0,1,1.6.873A1.76,1.76,0,0,1,47.35-1.86a1.756,1.756,0,0,1-.7,1.435,2.849,2.849,0,0,1-1.834.559,2.539,2.539,0,0,1-1.879-.692,2.043,2.043,0,0,1-.66-1.562l.013-.038h1.65a1.12,1.12,0,0,0,.254.787.9.9,0,0,0,.667.241.781.781,0,0,0,.552-.178A.636.636,0,0,0,45.6-1.8Z" transform="translate(1274 484)" fill="#fff"/><path d="M49.679,93.372V128.3h54.346V93.372Zm2.368,2.368h49.61v4.644H52.047Zm37.127,23.184V102.752h5.057v16.172ZM64.53,102.752v16.172H59.473V102.752Zm2.368,0h5.057v16.172H66.9Zm7.425,0h5.058v16.172H74.323Zm7.426,0h5.057v16.172H81.749Zm-29.7,0H57.1v16.172H52.047Zm49.61,23.184H52.047v-4.644h49.61Zm0-7.012H96.6V102.752h5.057Z" transform="translate(1197.321 302.662)" fill="#fff"/><path d="M123.121,44.552l-1.674-1.674-4.338,4.338V34.153H114.74V47.215L110.4,42.877l-1.674,1.674,7.2,7.2Z" transform="translate(1158.249 341.847)" fill="#fff"/><path d="M108.728,211.033l1.674,1.674,4.338-4.338v13.062h2.368V208.369l4.338,4.338,1.674-1.674-7.2-7.2Z" transform="translate(1158.249 229.569)" fill="#fff"/></g></g></svg>