<svg xmlns="http://www.w3.org/2000/svg" xmlns:xlink="http://www.w3.org/1999/xlink" width="160" height="190" viewBox="0 0 160 190"><defs><clipPath id="b"><rect width="160" height="190"/></clipPath></defs><g id="a" clip-path="url(#b)"><g transform="translate(-1032 -12.66)"><g transform="translate(501)"><path d="M14,0H114a14,14,0,0,1,14,14V141a14,14,0,0,1-14,14H14A14,14,0,0,1,0,141V14A14,14,0,0,1,14,0Z" transform="translate(547 30.66)" fill="none" opacity="0.93"/></g><path d="M-11.743-2.361l.07.355h.038l.07-.336,1.542-6.9h1.9L-10.708,0h-1.879l-2.583-9.242h1.9ZM-4.424,0a3.082,3.082,0,0,1-.136-.375,3.057,3.057,0,0,1-.092-.413,2.147,2.147,0,0,1-.619.67,1.46,1.46,0,0,1-.847.251A1.756,1.756,0,0,1-7.481-.425a2.124,2.124,0,0,1-.511-1.492,1.955,1.955,0,0,1,.651-1.568,2.9,2.9,0,0,1,1.933-.559h.679V-4.6a1.381,1.381,0,0,0-.181-.771.61.61,0,0,0-.543-.27.523.523,0,0,0-.457.216,1.085,1.085,0,0,0-.152.628l-1.746-.006-.019-.038a1.883,1.883,0,0,1,.663-1.523A2.626,2.626,0,0,1-5.332-7,2.451,2.451,0,0,1-3.59-6.37a2.317,2.317,0,0,1,.67,1.781v2.78a6.017,6.017,0,0,0,.07.946A5.153,5.153,0,0,0-2.634,0ZM-5.6-1.225a.929.929,0,0,0,.5-.146,1.084,1.084,0,0,0,.365-.375V-3.009h-.679a.657.657,0,0,0-.6.286A1.312,1.312,0,0,0-6.189-2a.919.919,0,0,0,.159.559A.507.507,0,0,0-5.6-1.225ZM1.212-1.8a.667.667,0,0,0-.229-.5,3.847,3.847,0,0,0-.876-.524A4.619,4.619,0,0,1-1.444-3.7a1.667,1.667,0,0,1-.517-1.27A1.854,1.854,0,0,1-1.3-6.4,2.533,2.533,0,0,1,.457-7a2.626,2.626,0,0,1,1.822.609,1.922,1.922,0,0,1,.654,1.555l-.019.038H1.174A1.176,1.176,0,0,0,1-5.478a.621.621,0,0,0-.546-.254.685.685,0,0,0-.5.2.638.638,0,0,0-.2.476.638.638,0,0,0,.2.492,4.091,4.091,0,0,0,.882.511,4.278,4.278,0,0,1,1.6.873A1.76,1.76,0,0,1,2.958-1.86a1.756,1.756,0,0,1-.7,1.435A2.849,2.849,0,0,1,.425.133,2.539,2.539,0,0,1-1.454-.559a2.043,2.043,0,0,1-.66-1.562l.013-.038h1.65A1.12,1.12,0,0,0-.2-1.371.9.9,0,0,0,.47-1.13a.781.781,0,0,0,.552-.178A.636.636,0,0,0,1.212-1.8ZM3.644-3.853a3.415,3.415,0,0,1,.733-2.263A2.526,2.526,0,0,1,6.43-7a2.536,2.536,0,0,1,2.057.879,3.4,3.4,0,0,1,.736,2.263V-3A3.387,3.387,0,0,1,8.487-.736a2.541,2.541,0,0,1-2.05.87,2.546,2.546,0,0,1-2.06-.87A3.4,3.4,0,0,1,3.644-3Zm1.8.848a2.867,2.867,0,0,0,.222,1.246.791.791,0,0,0,.774.451A.782.782,0,0,0,7.2-1.762,2.835,2.835,0,0,0,7.42-3.005v-.852A2.843,2.843,0,0,0,7.2-5.093a.785.785,0,0,0-.765-.461.785.785,0,0,0-.765.464A2.847,2.847,0,0,0,5.44-3.857ZM13.165-1.8a.667.667,0,0,0-.229-.5,3.847,3.847,0,0,0-.876-.524A4.619,4.619,0,0,1,10.509-3.7a1.667,1.667,0,0,1-.517-1.27A1.854,1.854,0,0,1,10.655-6.4,2.533,2.533,0,0,1,12.41-7a2.626,2.626,0,0,1,1.822.609,1.922,1.922,0,0,1,.654,1.555l-.019.038H13.127a1.176,1.176,0,0,0-.178-.686.621.621,0,0,0-.546-.254.685.685,0,0,0-.5.2.638.638,0,0,0-.2.476.638.638,0,0,0,.2.492,4.091,4.091,0,0,0,.882.511,4.278,4.278,0,0,1,1.6.873,1.76,1.76,0,0,1,.521,1.323,1.756,1.756,0,0,1-.7,1.435,2.849,2.849,0,0,1-1.834.559A2.539,2.539,0,0,1,10.5-.559a2.043,2.043,0,0,1-.66-1.562l.013-.038H11.5a1.12,1.12,0,0,0,.254.787.9.9,0,0,0,.667.241.781.781,0,0,0,.552-.178A.636.636,0,0,0,13.165-1.8Z" transform="translate(1112 168)" fill="#5e5b5c"/><path d="M52.191,53.758a1.485,1.485,0,0,0-1.483,1.483V61.79a1.485,1.485,0,0,0,1.483,1.483h1.965l8.023,64.186a1.486,1.486,0,0,0,1.472,1.3h39.291a1.486,1.486,0,0,0,1.472-1.3l8.023-64.186H114.4a1.485,1.485,0,0,0,1.483-1.483V55.241a1.485,1.485,0,0,0-1.483-1.483m-11.874,65.485H96.521A1.516,1.516,0,0,0,95,120.506a1.484,1.484,0,0,0,1.468,1.7h5.687l-.448,3.583H65.037l-.448-3.583H89.87a1.515,1.515,0,0,0,1.518-1.262,1.483,1.483,0,0,0-1.467-1.7h-25.7L60.1,86.266l.2.024c5.985.729,13.864,5.606,21.482,10.322,8.028,4.97,15.61,9.663,22.1,10.666l.148.023Zm1.861-14.849-.158-.025c-5.908-.96-13.528-5.677-20.9-10.238-8.593-5.32-16.71-10.345-23.489-10.824L59.72,83.3,58.456,73.192l.192.018c6.928.668,15.46,5.83,23.711,10.822,8.482,5.132,16.494,9.98,23.115,10.36l.164.009Zm1.618-12.988-.141-.005c-5.915-.23-14.078-5.17-21.972-9.946C75.095,76.13,66,70.624,58.21,70.164l-.128-.007-.86-6.884h52.3Zm6.912-34.682v3.583H53.674V56.724Z" transform="translate(1028.292 11.242)" fill="#5e5b5c"/></g></g></svg>