<svg xmlns="http://www.w3.org/2000/svg" xmlns:xlink="http://www.w3.org/1999/xlink" width="160" height="190" viewBox="0 0 160 190"><defs><clipPath id="b"><rect width="160" height="190"/></clipPath></defs><g id="a" clip-path="url(#b)"><g transform="translate(-1820 -12.66)"><rect width="128" height="155" rx="14" transform="translate(1836 30.66)" fill="none" opacity="0.93"/><path d="M-32.716-3.84h-3.136V0h-1.809V-9.242h5.5V-7.8h-3.688v2.52h3.136Zm1.041-.013a3.415,3.415,0,0,1,.733-2.263A2.526,2.526,0,0,1-28.888-7a2.536,2.536,0,0,1,2.057.879A3.4,3.4,0,0,1-26.1-3.853V-3a3.387,3.387,0,0,1-.736,2.266,2.541,2.541,0,0,1-2.05.87,2.546,2.546,0,0,1-2.06-.87A3.4,3.4,0,0,1-31.675-3Zm1.8.848a2.867,2.867,0,0,0,.222,1.246.791.791,0,0,0,.774.451.782.782,0,0,0,.759-.455A2.835,2.835,0,0,0-27.9-3.005v-.852a2.843,2.843,0,0,0-.225-1.237.785.785,0,0,0-.765-.461.785.785,0,0,0-.765.464,2.847,2.847,0,0,0-.225,1.233ZM-22.153-1.8a.667.667,0,0,0-.229-.5,3.847,3.847,0,0,0-.876-.524A4.619,4.619,0,0,1-24.81-3.7a1.667,1.667,0,0,1-.517-1.27A1.854,1.854,0,0,1-24.664-6.4,2.533,2.533,0,0,1-22.909-7a2.626,2.626,0,0,1,1.822.609,1.922,1.922,0,0,1,.654,1.555l-.019.038h-1.739a1.176,1.176,0,0,0-.178-.686.621.621,0,0,0-.546-.254.685.685,0,0,0-.5.2.638.638,0,0,0-.2.476.638.638,0,0,0,.2.492,4.091,4.091,0,0,0,.882.511,4.278,4.278,0,0,1,1.6.873,1.76,1.76,0,0,1,.521,1.323,1.756,1.756,0,0,1-.7,1.435A2.849,2.849,0,0,1-22.94.133a2.539,2.539,0,0,1-1.879-.692,2.043,2.043,0,0,1-.66-1.562l.013-.038h1.65a1.12,1.12,0,0,0,.254.787.9.9,0,0,0,.667.241.781.781,0,0,0,.552-.178A.636.636,0,0,0-22.153-1.8ZM-16.161,0A3.082,3.082,0,0,1-16.3-.375a3.057,3.057,0,0,1-.092-.413,2.147,2.147,0,0,1-.619.67,1.46,1.46,0,0,1-.847.251,1.756,1.756,0,0,1-1.362-.559,2.124,2.124,0,0,1-.511-1.492,1.955,1.955,0,0,1,.651-1.568,2.9,2.9,0,0,1,1.933-.559h.679V-4.6a1.381,1.381,0,0,0-.181-.771.61.61,0,0,0-.543-.27.523.523,0,0,0-.457.216A1.085,1.085,0,0,0-17.8-4.8l-1.746-.006-.019-.038A1.883,1.883,0,0,1-18.9-6.367,2.626,2.626,0,0,1-17.069-7a2.451,2.451,0,0,1,1.742.625,2.317,2.317,0,0,1,.67,1.781v2.78a6.016,6.016,0,0,0,.07.946A5.153,5.153,0,0,0-14.371,0Zm-1.174-1.225a.929.929,0,0,0,.5-.146,1.084,1.084,0,0,0,.365-.375V-3.009h-.679a.657.657,0,0,0-.6.286A1.312,1.312,0,0,0-17.926-2a.919.919,0,0,0,.159.559A.507.507,0,0,0-17.335-1.225Zm6.811-.571a.667.667,0,0,0-.229-.5,3.847,3.847,0,0,0-.876-.524A4.619,4.619,0,0,1-13.181-3.7,1.667,1.667,0,0,1-13.7-4.97,1.854,1.854,0,0,1-13.035-6.4,2.533,2.533,0,0,1-11.28-7a2.626,2.626,0,0,1,1.822.609A1.922,1.922,0,0,1-8.8-4.831l-.019.038h-1.739a1.176,1.176,0,0,0-.178-.686.621.621,0,0,0-.546-.254.685.685,0,0,0-.5.2.638.638,0,0,0-.2.476.638.638,0,0,0,.2.492,4.091,4.091,0,0,0,.882.511,4.278,4.278,0,0,1,1.6.873A1.76,1.76,0,0,1-8.779-1.86a1.756,1.756,0,0,1-.7,1.435,2.849,2.849,0,0,1-1.834.559A2.539,2.539,0,0,1-13.19-.559a2.043,2.043,0,0,1-.66-1.562l.013-.038h1.65a1.12,1.12,0,0,0,.254.787.9.9,0,0,0,.667.241.781.781,0,0,0,.552-.178A.636.636,0,0,0-10.524-1.8Zm9.718-.616a1.239,1.239,0,0,0-.279-.854,2.844,2.844,0,0,0-.984-.619A6.5,6.5,0,0,1-4.231-5.024a2.262,2.262,0,0,1-.72-1.787,2.318,2.318,0,0,1,.838-1.85,3.182,3.182,0,0,1,2.139-.714,2.96,2.96,0,0,1,2.146.8,2.594,2.594,0,0,1,.8,2.009l-.013.038H-.793A1.588,1.588,0,0,0-1.111-7.56a1.084,1.084,0,0,0-.9-.394,1.087,1.087,0,0,0-.841.327,1.166,1.166,0,0,0-.3.822.956.956,0,0,0,.336.752A4.741,4.741,0,0,0-1.644-5.4,4.916,4.916,0,0,1,.333-4.269,2.533,2.533,0,0,1,1-2.425,2.333,2.333,0,0,1,.2-.546,3.175,3.175,0,0,1-1.93.133,3.561,3.561,0,0,1-4.218-.638,2.584,2.584,0,0,1-5.154-2.85l.013-.038h1.758a1.734,1.734,0,0,0,.362,1.231,1.453,1.453,0,0,0,1.092.375,1.088,1.088,0,0,0,.847-.3A1.183,1.183,0,0,0-.806-2.412ZM4.685.133A2.623,2.623,0,0,1,2.628-.717a3.1,3.1,0,0,1-.762-2.146v-.965a3.545,3.545,0,0,1,.708-2.279A2.365,2.365,0,0,1,4.532-7,2.276,2.276,0,0,1,6.4-6.189a3.366,3.366,0,0,1,.66,2.2v1.1h-3.4v.025A1.9,1.9,0,0,0,3.97-1.746a1.061,1.061,0,0,0,.93.438,2.482,2.482,0,0,0,.825-.114A4.341,4.341,0,0,0,6.481-1.8L6.938-.654a2.723,2.723,0,0,1-.949.565A3.694,3.694,0,0,1,4.685.133ZM4.532-5.554a.67.67,0,0,0-.635.4,2.564,2.564,0,0,0-.229,1.065H5.288v-.255a1.831,1.831,0,0,0-.178-.889A.612.612,0,0,0,4.532-5.554Zm.051-4h1.9l.019.038L4.919-7.865l-1.454,0Zm8.766,6.646a3.714,3.714,0,0,1-.6,2.206,1.935,1.935,0,0,1-1.669.835,1.607,1.607,0,0,1-.746-.168,1.623,1.623,0,0,1-.568-.5V2.641h-1.8V-6.868H9.636l.063.679a1.863,1.863,0,0,1,.587-.6A1.463,1.463,0,0,1,11.07-7a1.909,1.909,0,0,1,1.682.892,4.162,4.162,0,0,1,.6,2.352Zm-1.8-.848a3.138,3.138,0,0,0-.229-1.306.753.753,0,0,0-.717-.493.857.857,0,0,0-.5.143,1.012,1.012,0,0,0-.336.4v3.242a.854.854,0,0,0,.333.343,1.027,1.027,0,0,0,.5.114.75.75,0,0,0,.72-.426,2.605,2.605,0,0,0,.219-1.176Zm4.881-4.821v1.708h.952v1.308h-.952v3.447a1.122,1.122,0,0,0,.121.6.377.377,0,0,0,.33.181,2.076,2.076,0,0,0,.279-.016,2.043,2.043,0,0,0,.254-.054l.14,1.371A3.6,3.6,0,0,1,17.005.1a4.109,4.109,0,0,1-.59.038A1.656,1.656,0,0,1,15.085-.4a2.589,2.589,0,0,1-.46-1.7V-5.561h-.812V-6.868h.813V-8.576ZM20.281,0h-1.8V-6.868h1.8Zm0-8.525h-1.8V-9.9h1.8Zm3.764,7.217a.63.63,0,0,0,.555-.273,1.387,1.387,0,0,0,.187-.787h1.638l.019.038a2.353,2.353,0,0,1-.663,1.771,2.335,2.335,0,0,1-1.736.692A2.5,2.5,0,0,1,22-.736a3.426,3.426,0,0,1-.714-2.247v-.882a3.465,3.465,0,0,1,.711-2.25A2.469,2.469,0,0,1,24.032-7a2.288,2.288,0,0,1,1.774.717,2.69,2.69,0,0,1,.638,1.936l-.013.032H24.788a1.876,1.876,0,0,0-.187-.9.609.609,0,0,0-.568-.341.743.743,0,0,0-.743.458,3.072,3.072,0,0,0-.2,1.227v.884a3.036,3.036,0,0,0,.2,1.233A.755.755,0,0,0,24.045-1.308ZM30.659,0a3.082,3.082,0,0,1-.136-.375,3.057,3.057,0,0,1-.092-.413,2.147,2.147,0,0,1-.619.67,1.46,1.46,0,0,1-.847.251A1.756,1.756,0,0,1,27.6-.425a2.124,2.124,0,0,1-.511-1.492,1.955,1.955,0,0,1,.651-1.568,2.9,2.9,0,0,1,1.933-.559h.679V-4.6a1.381,1.381,0,0,0-.181-.771.61.61,0,0,0-.543-.27.523.523,0,0,0-.457.216,1.085,1.085,0,0,0-.152.628l-1.746-.006-.019-.038a1.883,1.883,0,0,1,.663-1.523A2.626,2.626,0,0,1,29.751-7a2.451,2.451,0,0,1,1.742.625,2.317,2.317,0,0,1,.67,1.781v2.78a6.016,6.016,0,0,0,.07.946A5.153,5.153,0,0,0,32.449,0ZM29.485-1.225a.929.929,0,0,0,.5-.146,1.084,1.084,0,0,0,.365-.375V-3.009h-.679a.657.657,0,0,0-.6.286A1.312,1.312,0,0,0,28.895-2a.919.919,0,0,0,.159.559A.507.507,0,0,0,29.485-1.225ZM36.3-1.8a.667.667,0,0,0-.229-.5,3.847,3.847,0,0,0-.876-.524A4.619,4.619,0,0,1,33.639-3.7a1.667,1.667,0,0,1-.517-1.27A1.854,1.854,0,0,1,33.785-6.4,2.533,2.533,0,0,1,35.541-7a2.626,2.626,0,0,1,1.822.609,1.922,1.922,0,0,1,.654,1.555L38-4.792H36.258a1.176,1.176,0,0,0-.178-.686.621.621,0,0,0-.546-.254.685.685,0,0,0-.5.2.638.638,0,0,0-.2.476.638.638,0,0,0,.2.492,4.091,4.091,0,0,0,.882.511,4.278,4.278,0,0,1,1.6.873,1.76,1.76,0,0,1,.521,1.323,1.756,1.756,0,0,1-.7,1.435,2.849,2.849,0,0,1-1.834.559A2.539,2.539,0,0,1,33.63-.559a2.043,2.043,0,0,1-.66-1.562l.013-.038h1.65a1.12,1.12,0,0,0,.254.787.9.9,0,0,0,.667.241.781.781,0,0,0,.552-.178A.636.636,0,0,0,36.3-1.8Z" transform="translate(1900 168)" fill="#5e5b5c"/><g transform="translate(-2177.738 -5801.443)"><path d="M4102.267,5920.593v-7.114a1.186,1.186,0,0,0,0-.228v-7.8a1.168,1.168,0,0,0,0-.261v-7.032a1.1,1.1,0,0,0,0-.26v-10.3a1.735,1.735,0,0,0-.451-1.3,3.454,3.454,0,0,0-.375-.388v-5.827c0-2.555-1.243-3.055-3.39-3.055h-6.8v-3.134a1.126,1.126,0,0,0-1.1-1.125l-3.371-.084v-.7a1.126,1.126,0,0,0-1.126-1.125h-4.637a1.125,1.125,0,0,0-1.125,1.125v.127h-3.784v-.127a1.125,1.125,0,0,0-1.125-1.125h-4.637a1.125,1.125,0,0,0-1.125,1.125v.7l-3.372.084a1.126,1.126,0,0,0-1.1,1.125v3.134h-6.795c-2.147,0-3.39.5-3.39,3.055v5.827a3.461,3.461,0,0,0-.375.388,1.732,1.732,0,0,0-.451,1.3v10.3a1.1,1.1,0,0,0,0,.26v7.032a1.113,1.113,0,0,0,0,.261v7.788a1.14,1.14,0,0,0,0,.261v7.1a1.136,1.136,0,0,0,0,.261v7.2a1.1,1.1,0,0,0,0,.253v4.083c0,2.467,1.279,5.807,7.374,7.713a34.006,34.006,0,0,0,9.244,1.339h15.284a34.006,34.006,0,0,0,9.244-1.339c6.094-1.906,7.374-5.246,7.374-7.713v-4.1a1.143,1.143,0,0,0,0-.216v-7.221A1.164,1.164,0,0,0,4102.267,5920.593Zm-2.251-.608c-1.887.734-8.321,2.755-22.009,2.755a86.15,86.15,0,0,1-17.579-1.51,29.229,29.229,0,0,1-4.43-1.247v-5.11c2.751.7,9.42,1.957,22.009,1.957s19.258-1.254,22.009-1.957Zm0-30.8v1.92H4056v-1.92Zm0,4.171v3.7c-2.243.31-8.813,1.02-22.009,1.02-13.158,0-19.758-.711-22.009-1.02v-3.7Zm-22.009,6.972c12.788,0,19.4-.651,22.009-1v5.116c-2.106.486-8.624,1.672-22.009,1.672-11.97,0-19.177-.992-22.009-1.662v-5.126C4058.6,5899.678,4065.219,5900.329,4078.006,5900.329Zm0,8.043c12.655,0,19.306-1.042,22.009-1.616v5.781c-2.047.574-8.594,2.041-22.009,2.041s-19.966-1.468-22.009-2.041v-5.781C4058.7,5907.331,4065.351,5908.373,4078.006,5908.373Zm5.4-21.437v-5.771h5.716a1.122,1.122,0,0,0,.426.474c.243.148,5.967,3.641,8.694,4.924.287.135.53.259.736.373Zm5.6-8.021h-5.6v-.757c0-.059,0-.117,0-.174H4089Zm-7.854-.757v8.778h-6.289v-8.778c0-.066,0-.124,0-.174h6.283C4081.15,5878.034,4081.15,5878.091,4081.15,5878.157Zm-8.54,0v.757h-5.6v-.931h5.605C4072.612,5878.04,4072.611,5878.1,4072.611,5878.157Zm-6.141,3.481a1.118,1.118,0,0,0,.425-.474h5.716v5.771h-15.572c.207-.114.45-.238.737-.373C4060.5,5885.279,4066.228,5881.787,4066.47,5881.639ZM4056,5922.377c2.829.957,9.524,2.613,22.009,2.613s19.18-1.656,22.009-2.613v5.118c-1.81.836-8.286,3.288-22.009,3.288s-20.207-2.454-22.009-3.287Zm42.053-43.107a3.851,3.851,0,0,1,1.083.091,2.931,2.931,0,0,1,.056.713v4.449c-2.147-1.011-6.428-3.569-7.934-4.478v-.774Zm-27.671-4.373a1.125,1.125,0,0,0,1.1-1.125v-.668h2.386v.127a1.125,1.125,0,0,0,1.125,1.125h6.035a1.125,1.125,0,0,0,1.126-1.125v-.127h2.386v.668a1.125,1.125,0,0,0,1.1,1.125l3.371.084v.751h-22v-.751Zm-13.5,4.463a3.848,3.848,0,0,1,1.083-.091h6.795v.774c-1.506.909-5.787,3.467-7.934,4.479v-4.449A2.917,2.917,0,0,1,4056.88,5879.361Zm23.438,59.832h-4.624v-2.361a1.166,1.166,0,0,1,1.049-1.128h2.525a1.166,1.166,0,0,1,1.049,1.128Zm13.9-1.237a32.2,32.2,0,0,1-8.572,1.237h-3.079v-2.361a3.428,3.428,0,0,0-3.3-3.379h-2.525a3.428,3.428,0,0,0-3.3,3.379v2.361h-3.079a32.2,32.2,0,0,1-8.572-1.237c-3.845-1.2-5.795-3.074-5.795-5.564v-2.442c2.877,1.144,9.588,3.084,22.009,3.084s19.133-1.941,22.009-3.084v2.442C4100.016,5934.881,4098.066,5936.753,4094.221,5937.956Z" fill="#5e5b5c"/><circle cx="1.269" cy="1.269" r="1.269" transform="translate(4076.737 5936.313)" fill="#5e5b5c"/><circle cx="1.402" cy="1.402" r="1.402" transform="translate(4076.604 5879.353)" fill="#5e5b5c"/></g></g></g></svg>