<svg xmlns="http://www.w3.org/2000/svg" xmlns:xlink="http://www.w3.org/1999/xlink" width="160" height="190" viewBox="0 0 160 190"><defs><filter id="a" x="-2" y="2" width="164" height="191" filterUnits="userSpaceOnUse"><feOffset dy="2" input="SourceAlpha"/><feGaussianBlur stdDeviation="6" result="b"/><feFlood flood-color="#44d62c" flood-opacity="0.651"/><feComposite operator="in" in2="b"/><feComposite in="SourceGraphic"/></filter><clipPath id="d"><rect width="160" height="190"/></clipPath></defs><g id="c" clip-path="url(#d)"><g transform="translate(-2147 -328.66)"><g transform="matrix(1, 0, 0, 1, 2147, 328.66)" filter="url(#a)"><g transform="translate(16 18)" fill="#44d62c" stroke="#fff" stroke-width="1" opacity="0.93"><rect width="128" height="155" rx="14" stroke="none"/><rect x="0.5" y="0.5" width="127" height="154" rx="13.5" fill="none"/></g></g><path d="M-23.445-1.441h3.377V0h-5.186V-9.242h1.809ZM-15.936,0a3.082,3.082,0,0,1-.136-.375,3.057,3.057,0,0,1-.092-.413,2.147,2.147,0,0,1-.619.67,1.46,1.46,0,0,1-.847.251,1.756,1.756,0,0,1-1.362-.559A2.124,2.124,0,0,1-19.5-1.917a1.955,1.955,0,0,1,.651-1.568,2.9,2.9,0,0,1,1.933-.559h.679V-4.6a1.381,1.381,0,0,0-.181-.771.61.61,0,0,0-.543-.27.523.523,0,0,0-.457.216,1.085,1.085,0,0,0-.152.628l-1.746-.006-.019-.038a1.883,1.883,0,0,1,.663-1.523A2.626,2.626,0,0,1-16.844-7,2.451,2.451,0,0,1-15.1-6.37a2.317,2.317,0,0,1,.67,1.781v2.78a6.016,6.016,0,0,0,.07.946A5.153,5.153,0,0,0-14.146,0ZM-17.11-1.225a.929.929,0,0,0,.5-.146,1.084,1.084,0,0,0,.365-.375V-3.009h-.679a.657.657,0,0,0-.6.286A1.312,1.312,0,0,0-17.7-2a.919.919,0,0,0,.159.559A.507.507,0,0,0-17.11-1.225Zm5.929-1.365.083.521h.038l.089-.521.793-4.278h1.885L-10.2,0h-1.765l-1.911-6.868h1.885ZM-4.364,0A3.082,3.082,0,0,1-4.5-.375a3.057,3.057,0,0,1-.092-.413,2.147,2.147,0,0,1-.619.67,1.46,1.46,0,0,1-.847.251A1.756,1.756,0,0,1-7.42-.425a2.124,2.124,0,0,1-.511-1.492,1.955,1.955,0,0,1,.651-1.568,2.9,2.9,0,0,1,1.933-.559h.679V-4.6a1.381,1.381,0,0,0-.181-.771.61.61,0,0,0-.543-.27.523.523,0,0,0-.457.216A1.085,1.085,0,0,0-6-4.8l-1.746-.006-.019-.038A1.883,1.883,0,0,1-7.1-6.367,2.626,2.626,0,0,1-5.272-7a2.451,2.451,0,0,1,1.742.625,2.317,2.317,0,0,1,.67,1.781v2.78a6.017,6.017,0,0,0,.07.946A5.153,5.153,0,0,0-2.574,0ZM-5.538-1.225a.929.929,0,0,0,.5-.146,1.084,1.084,0,0,0,.365-.375V-3.009h-.679a.657.657,0,0,0-.6.286A1.312,1.312,0,0,0-6.129-2a.919.919,0,0,0,.159.559A.507.507,0,0,0-5.538-1.225ZM-1.958-3.4A5.013,5.013,0,0,1-1.362-6,1.867,1.867,0,0,1,.321-7a1.4,1.4,0,0,1,.724.19,1.9,1.9,0,0,1,.578.546V-9.9h1.8V0H1.857L1.736-.749a2.019,2.019,0,0,1-.619.657,1.458,1.458,0,0,1-.8.225A1.882,1.882,0,0,1-1.365-.8a4.531,4.531,0,0,1-.594-2.466Zm1.8.134A3.889,3.889,0,0,0,.057-1.823a.737.737,0,0,0,.72.516.9.9,0,0,0,.489-.131,1.078,1.078,0,0,0,.355-.379V-4.949A1.272,1.272,0,0,0,1.266-5.4.766.766,0,0,0,.79-5.554a.764.764,0,0,0-.724.592A4.553,4.553,0,0,0-.156-3.4ZM7.271.133A2.623,2.623,0,0,1,5.215-.717a3.1,3.1,0,0,1-.762-2.146v-.965a3.545,3.545,0,0,1,.708-2.279A2.365,2.365,0,0,1,7.119-7a2.276,2.276,0,0,1,1.866.806,3.366,3.366,0,0,1,.66,2.2v1.1h-3.4v.025a1.9,1.9,0,0,0,.308,1.117,1.061,1.061,0,0,0,.93.438,2.482,2.482,0,0,0,.825-.114A4.341,4.341,0,0,0,9.068-1.8L9.525-.654a2.723,2.723,0,0,1-.949.565A3.694,3.694,0,0,1,7.271.133ZM7.119-5.554a.67.67,0,0,0-.635.4,2.564,2.564,0,0,0-.229,1.065H7.874v-.255A1.831,1.831,0,0,0,7.7-5.239.612.612,0,0,0,7.119-5.554Zm6.678.33-.679-.019a.769.769,0,0,0-.473.14.887.887,0,0,0-.289.394V0h-1.8V-6.868h1.682l.07.92.032.013a1.873,1.873,0,0,1,.46-.778A.965.965,0,0,1,13.486-7a1.6,1.6,0,0,1,.257.022,1.746,1.746,0,0,1,.238.054Zm.571,1.371A3.415,3.415,0,0,1,15.1-6.116,2.526,2.526,0,0,1,17.155-7a2.536,2.536,0,0,1,2.057.879,3.4,3.4,0,0,1,.736,2.263V-3a3.387,3.387,0,0,1-.736,2.266,2.541,2.541,0,0,1-2.05.87,2.546,2.546,0,0,1-2.06-.87A3.4,3.4,0,0,1,14.368-3Zm1.8.848a2.867,2.867,0,0,0,.222,1.246.791.791,0,0,0,.774.451.782.782,0,0,0,.759-.455,2.835,2.835,0,0,0,.225-1.243v-.852a2.843,2.843,0,0,0-.225-1.237.785.785,0,0,0-.765-.461.785.785,0,0,0-.765.464,2.847,2.847,0,0,0-.225,1.233ZM23.889-1.8a.667.667,0,0,0-.229-.5,3.847,3.847,0,0,0-.876-.524A4.619,4.619,0,0,1,21.233-3.7a1.667,1.667,0,0,1-.517-1.27A1.854,1.854,0,0,1,21.379-6.4,2.533,2.533,0,0,1,23.134-7a2.626,2.626,0,0,1,1.822.609,1.922,1.922,0,0,1,.654,1.555l-.019.038H23.851a1.176,1.176,0,0,0-.178-.686.621.621,0,0,0-.546-.254.685.685,0,0,0-.5.2.638.638,0,0,0-.2.476.638.638,0,0,0,.2.492,4.091,4.091,0,0,0,.882.511,4.278,4.278,0,0,1,1.6.873,1.76,1.76,0,0,1,.521,1.323,1.756,1.756,0,0,1-.7,1.435A2.849,2.849,0,0,1,23.1.133a2.539,2.539,0,0,1-1.879-.692,2.043,2.043,0,0,1-.66-1.562l.013-.038h1.65a1.12,1.12,0,0,0,.254.787.9.9,0,0,0,.667.241.781.781,0,0,0,.552-.178A.636.636,0,0,0,23.889-1.8Z" transform="translate(2227 484)" fill="#fff"/><path d="M1813.741,1159.518q-.224,1.747-.448,3.493c-.138,1.068-.3,2.132-.413,3.2-.1.952-.288,1.893-.313,2.853-.072.117,0,.256-.057.375l-.015.206c-.073.116,0,.255-.057.373-.149,1.165-.349,2.326-.433,3.5a1.922,1.922,0,0,1-1.48,1.774,5.569,5.569,0,0,1-2.47.36c-.673-.076-1.336-.25-2-.379-1.073-.207-2.149-.406-3.221-.619-1.132-.226-2.261-.471-3.394-.7-.939-.187-1.884-.349-2.823-.536-1.141-.227-2.277-.475-3.418-.7-.931-.186-1.867-.349-2.8-.531-1.013-.2-2.024-.411-3.037-.607-1.2-.231-2.382-.508-3.586-.7-1.017-.164-2.02-.413-3.03-.619-1.263-.257-2.523-.522-3.79-.758-1.312-.245-2.618-.523-3.929-.772-1.175-.224-2.342-.484-3.523-.68a4.7,4.7,0,0,1-2.3-.79,3.909,3.909,0,0,1-1.613-2.461c-.117-.8-.234-1.6-.309-2.41-.035-.383-.118-.765-.145-1.152a.433.433,0,0,0-.409-.422c-1.33-.235-2.66-.467-3.987-.719-1.191-.226-2.375-.487-3.566-.713-1.226-.233-2.462-.418-3.684-.669-.766-.158-1.536-.3-2.3-.444-1.02-.2-2.042-.382-3.062-.578-.9-.173-1.805-.343-2.706-.527-.844-.172-1.695-.309-2.541-.472-1.191-.229-2.378-.476-3.569-.7-1.112-.21-2.234-.376-3.341-.61-.891-.188-1.786-.347-2.679-.518-1.009-.193-2.01-.426-3.029-.56-.2-.026-.251-.2-.3-.32-.455-1.162-.889-2.331-1.331-3.5q-.556-1.467-1.119-2.932-.612-1.595-1.228-3.188c-.543-1.4-1.09-2.8-1.645-4.221a1.913,1.913,0,0,1,.848.06c1.854.22,3.7.465,5.555.709,1.779.234,3.557.484,5.336.714,1.4.182,2.807.337,4.208.518,1.59.206,3.177.435,4.768.641,1.4.181,2.806.336,4.207.517,1.59.206,3.176.435,4.766.641,1.223.158,2.45.289,3.673.446s2.419.336,3.63.492,2.449.292,3.673.449,2.418.332,3.629.489c1.033.134,2.069.246,3.1.379s2.038.286,3.058.417,2.068.247,3.1.378,2.064.279,3.1.413c1.01.131,2.021.251,3.031.382,1.044.135,2.087.28,3.132.416,1.009.13,2.02.25,3.029.381,1.044.135,2.088.28,3.132.415.819.107,1.639.2,2.458.308.866.111,1.731.229,2.6.34.819.106,1.638.206,2.458.311l3.171.407c1.022.131,2.044.257,3.065.39,1.044.136,2.087.283,3.131.417,1.021.131,2.044.251,3.065.38.285.036.567.114.852.121.268.007.285.134.257.34-.216,1.638-.45,3.273-.632,4.915a18.741,18.741,0,0,0-.234,2.213C1813.726,1159.261,1813.8,1159.4,1813.741,1159.518Z" transform="translate(457.881 -720.578)" fill="#fff"/><g transform="translate(2177 397)"><path d="M1806.963,1073.305c0-1.182.031-2.365.009-3.547a3.867,3.867,0,0,0-.334-1.711c-.241-.477-.5-.585-.981-.4-.067.026-.127.076-.2.057a10.309,10.309,0,0,0-1.224-.081c-.39-.068-.787.028-1.176-.053l-1.069-.019c-.39-.068-.788.027-1.178-.053l-1.068-.019c-.391-.068-.789.027-1.179-.053l-1.139-.02c-.367-.067-.742.029-1.109-.052l-1.137-.02c-.368-.067-.743.029-1.11-.052l-1.135-.02c-.39-.068-.787.028-1.176-.054l-1.069-.018c-.39-.068-.788.028-1.177-.054l-1.068-.018c-.391-.068-.789.027-1.179-.054l-1.139-.02c-.367-.067-.742.029-1.109-.052-.651-.009-1.3-.009-1.953-.029q-7.563-.24-15.126-.488-3.329-.109-6.658-.227c-.367-.067-.743.029-1.109-.052l-1.136-.02c-.39-.068-.787.028-1.176-.054l-1.069-.018c-.39-.068-.788.028-1.177-.054l-1.068-.018c-.391-.068-.789.027-1.179-.054l-1.139-.02c-.367-.067-.741.029-1.108-.052l-1.137-.02c-.367-.067-.743.029-1.11-.052l-1.136-.02c-.345-.068-.7.027-1.042-.052l-1.2-.02c-.39-.068-.788.028-1.177-.054l-1.068-.018c-.391-.068-.789.027-1.179-.054l-1.139-.02c-.367-.067-.741.029-1.108-.052l-1.137-.02c-.367-.067-.743.029-1.11-.052-.325,0-.651.005-.975-.009a.748.748,0,0,0-.467.135q-1.1.74-2.207,1.479-6.242,4.16-12.486,8.318-5.989,3.986-11.983,7.963a24.383,24.383,0,0,1-2.459,1.56c-.633.319-.685.6-.589,1.2a.825.825,0,0,0,.814.747,2.675,2.675,0,0,1,.383.037c1.058.244,2.129.417,3.2.6.15.053.313-.013.462.05.164-.063.291.071.448.083.516.039,1.029.11,1.543.176.43.055.858.125,1.288.177.654.079,1.309.143,1.963.222.5.061,1,.134,1.5.2.477.067.953.141,1.43.2.442.057.885.1,1.328.152.48.058.96.117,1.44.181.639.086,1.276.183,1.915.266.455.059.913.1,1.368.152.5.062,1,.138,1.5.2.454.059.911.106,1.365.169s.878.155,1.32.2c.526.053,1.049.124,1.573.194.419.056.84.1,1.258.167.51.085,1.028.123,1.542.188.628.08,1.255.171,1.884.248.654.081,1.309.149,1.963.228.487.059.974.127,1.461.192.467.062.935.123,1.4.186.639.087,1.276.195,1.917.256.458.043.906.141,1.368.167.5.029,1,.125,1.5.195.477.067.951.156,1.429.2.422.041.839.108,1.258.166.49.068.987.081,1.474.162.671.111,1.345.184,2.02.264q.666.078,1.332.169c.476.065.951.142,1.428.2.654.082,1.31.146,1.963.232s1.275.2,1.914.279,1.309.143,1.963.22c.5.059,1,.1,1.5.2s.979.129,1.467.2c.416.062.837.127,1.257.17.492.051.985.1,1.476.163.662.082,1.323.176,1.985.262.444.058.889.107,1.333.165.488.064.975.136,1.463.2l1.43.194c.43.058.861.116,1.291.171.513.066,1.026.128,1.539.194.43.055.859.115,1.289.168.5.063,1.006.118,1.509.18.651.081,1.3.165,1.953.247s1.285.157,1.927.244c.441.06.879.143,1.32.2.513.068,1.029.116,1.543.181.43.055.857.129,1.287.181.654.079,1.31.142,1.964.22.513.061,1.023.137,1.535.2.443.058.888.106,1.33.169s.879.147,1.321.2c.49.062.985.09,1.475.155.639.084,1.273.2,1.913.281s1.313.112,1.96.225,1.278.193,1.915.269c.9.107,1.8.256,2.7.322.105.034.234.012.306.127l.347.018c.2.062.4-.023.6.053l.56.02c.2.062.4-.023.6.053.143,0,.287.012.429,0,1.081-.079,2.136-.624,2.007-1.936a27.817,27.817,0,0,1,0-2.938q.01-2.6.02-5.192a1.29,1.29,0,0,0,.021-.4q0-2.188,0-4.376a.92.92,0,0,1,.029-.392l.02-5.194a1.286,1.286,0,0,0,.021-.4q0-2.188,0-4.375a.9.9,0,0,1,.03-.392C1806.973,1073.714,1806.962,1073.51,1806.963,1073.305Zm-5.4-.84q-.574,4.248-1.144,8.5-.564,4.23-1.119,8.462a2.481,2.481,0,0,1-1.477,1.968,6.251,6.251,0,0,1-3.5.48c-2.039-.216-4.075-.458-6.112-.688q-3.415-.387-6.83-.773-3.361-.378-6.724-.753-3.379-.381-6.758-.768-3.361-.379-6.723-.753c-1.678-.189-3.356-.368-5.031-.581a1.48,1.48,0,0,1-1.418-1.141,1.6,1.6,0,0,1,.136-.882,4.363,4.363,0,0,1,.674-1.109q4.322-5.444,8.642-10.889c.089-.112.175-.227.309-.4-.3-.014-.54-.032-.779-.035-1.328-.013-2.656-.019-3.983-.035a.563.563,0,0,0-.469.2q-5.247,5.777-10.5,11.551a5.487,5.487,0,0,1-2.777,1.439,5.986,5.986,0,0,1-2.226-.029c-2.2-.193-4.4-.413-6.593-.624q-4-.383-8-.768-3.224-.307-6.449-.607-2.288-.216-4.575-.437a1.314,1.314,0,0,1-.314-.081c-1.067-.389-1.249-1.109-.5-1.966a3.95,3.95,0,0,1,.679-.6q8.768-6.312,17.535-12.626a5.663,5.663,0,0,1,3.491-1.1c2.281.04,4.561.111,6.842.173q3.348.091,6.7.191l9.591.281a1.986,1.986,0,0,1,.839.2.656.656,0,0,1,.167,1.149c-.571.521-1.154,1.027-1.73,1.543a.616.616,0,0,0-.268.361c.956,0,1.878,0,2.8,0,.664,0,1.328.012,1.991.037a.483.483,0,0,0,.471-.249c.406-.6.834-1.183,1.245-1.779a1.3,1.3,0,0,1,.586-.457,7.062,7.062,0,0,1,3.4-.476c1.926.138,3.855.223,5.782.333q4.247.241,8.494.484c2.313.13,4.627.255,6.94.385,2.036.115,4.072.229,6.107.36a3.321,3.321,0,0,1,1.69.586A1.89,1.89,0,0,1,1801.562,1072.465Z" transform="translate(-1706.362 -1065.463)" fill="#fff"/></g><path d="M1914.759,1076.272c1.81.1,3.725.2,5.64.311s3.854.223,5.781.333q4.3.245,8.6.488,3.505.2,7.01.385a5.943,5.943,0,0,1,1.985.341,1.678,1.678,0,0,1,1.191,2.006c-.23,1.781-.484,3.559-.713,5.341-.032.247-.26.32-.343.539-1.418,3.713-2.863,7.415-4.289,11.125-.117.3-.227.41-.583.361q-4.353-.6-8.713-1.142c-2.321-.291-4.645-.553-6.968-.826-2.179-.256-4.359-.5-6.537-.77-.869-.106-.858-.126-1.036-.987q-1.72-8.3-3.457-16.592c-.082-.388.018-.526.369-.628A6.159,6.159,0,0,1,1914.759,1076.272Z" transform="translate(326.855 -676.006)" fill="#fff"/><path d="M1775.553,1073.435l11.471.329a2.5,2.5,0,0,1,.888.139c.381.155.424.364.118.639-.709.637-1.417,1.276-2.142,1.895a.6.6,0,0,0-.247.588,4.6,4.6,0,0,1,.018.47c.02.484.019.516-.482.487a1.355,1.355,0,0,0-1.177.533c-1.989,2.22-4,4.417-6.006,6.626a.423.423,0,0,1-.4.167c-2.536-.218-5.072-.424-7.608-.635-1.19-.1-2.378-.224-3.57-.295a3.864,3.864,0,0,0-2.672.826c-1.968,1.537-3.941,3.068-5.875,4.648a.941.941,0,0,1-.786.228q-3.242-.311-6.482-.622-2.827-.269-5.655-.535c-.528-.05-1.057-.1-1.584-.151a1.039,1.039,0,0,1-.243-.064c-.817-.291-.936-.73-.354-1.362a4.137,4.137,0,0,1,.621-.551q8.821-6.358,17.647-12.709a5.69,5.69,0,0,1,1.454-.714c.26-.093.343-.018.4.24q.974,4.3,1.968,8.595c.14.611.279,1.221.429,1.83.031.124-.039.35.244.289s.135-.244.107-.363q-.907-3.981-1.83-7.959c-.192-.833-.37-1.67-.581-2.5-.065-.255.015-.308.239-.335a13.929,13.929,0,0,1,2.061-.013c2.232.057,4.463.137,6.695.187,1.109.025,2.22,0,3.33,0Z" transform="translate(445.472 -673.812)" fill="#fff"/><path d="M1880.828,1078.362c.359,1.725.705,3.383,1.05,5.041q1.292,6.209,2.586,12.417a.813.813,0,0,1-.164.794,4.1,4.1,0,0,0-.547.763.775.775,0,0,1-.9.422c-2.668-.326-5.34-.623-8.011-.924-1.845-.208-3.691-.407-5.536-.612a2.664,2.664,0,0,1-1.006-.266.835.835,0,0,1-.477-1.018,3.053,3.053,0,0,1,.669-1.268q4.46-5.63,8.925-11.259c.175-.221.314-.276.561-.124s.542.263.806.406c.18.1.253.073.27-.144.039-.517.113-1.031.136-1.549a1.338,1.338,0,0,1,.274-.762c.384-.525.748-1.066,1.122-1.6C1880.647,1078.586,1880.721,1078.5,1880.828,1078.362Z" transform="translate(357.931 -677.469)" fill="#fff"/><path d="M1920.924,1139.872c.333-.463.633-.869.921-1.283.09-.129.2-.1.319-.089,3.27.381,6.541.748,9.809,1.143,4.381.529,8.763,1.047,13.134,1.655a.525.525,0,0,1,.48.432c.264.8.275.807-.574.8a33.548,33.548,0,0,1-3.419-.332c-2.038-.215-4.074-.457-6.111-.688q-3.4-.385-6.793-.769-3.038-.343-6.075-.681Z" transform="translate(320.833 -719.449)" fill="#fff"/><path d="M1823.743,1112.546c-.767.842-1.482,1.623-2.19,2.408-.105.116-.22.072-.334.059q-2.841-.306-5.682-.616-2.823-.309-5.645-.622l-1.27-.143c1.148-.869,2.087-1.94,3.6-2a19.074,19.074,0,0,1,2.2.148c1.936.145,3.871.316,5.806.477Z" transform="translate(399.242 -700.694)" fill="#fff"/><path d="M2007.545,1112.516q-.279,2.131-.557,4.262-.345,2.632-.692,5.264a2.2,2.2,0,0,1-1.351,1.748c-.358.174-.816.449-1.111.292-.312-.166-.309-.718-.464-1.094a.3.3,0,0,1,.034-.241q2.031-5.232,4.065-10.463C2007.642,1112.312,2007.548,1112.429,2007.545,1112.516Z" transform="translate(263.281 -701.153)" fill="#fff"/><path d="M1798.618,1123.665l1.279-1.007c.111-.088.23-.04.347-.024q4.173.566,8.346,1.133,2.149.292,4.3.59a1.456,1.456,0,0,1-1.345.863q-4.756-.573-9.511-1.15C1800.931,1123.937,1799.83,1123.808,1798.618,1123.665Z" transform="translate(406.226 -708.36)" fill="#fff"/><path d="M1804.558,1120.1a1.612,1.612,0,0,1,1.434-.616c2.089.277,4.188.479,6.284.71l6.044.665c-.3.334-.566.625-.828.919a.214.214,0,0,1-.223.059q-5.385-.745-10.772-1.48C1805.868,1120.27,1805.24,1120.189,1804.558,1120.1Z" transform="translate(402.079 -706.169)" fill="#fff"/><path d="M1807.915,1128.781a3.45,3.45,0,0,1-1.945.321c-2.208-.226-4.417-.429-6.627-.639l-4.791-.454c-.071-.007-.141-.027-.308-.062.493-.309.752-.761,1.428-.664,2.327.333,4.665.587,7,.869Q1805.293,1128.47,1807.915,1128.781Z" transform="translate(409.279 -711.617)" fill="#fff"/><path d="M1891.988,1087.469c-.046-.006-.061,0-.07-.01a3.778,3.778,0,0,0-2.34-.5c-.8.005-1.593-.018-2.389-.015-.19,0-.267-.042-.29-.25-.1-.856-.106-.858.751-.841,1.387.027,2.774.069,4.162.083.3,0,.38.105.322.377C1892.053,1086.691,1892.1,1087.084,1891.988,1087.469Z" transform="translate(344.62 -682.697)" fill="#fff"/><path d="M2017.06,1111.852c-.028-.076.009-.174-.076-.231a.437.437,0,0,1,.134-.287A.887.887,0,0,1,2017.06,1111.852Z" transform="translate(253.765 -700.489)" fill="#fff"/></g></g></svg>