<svg xmlns="http://www.w3.org/2000/svg" xmlns:xlink="http://www.w3.org/1999/xlink" width="160" height="190" viewBox="0 0 160 190"><defs><filter id="a" x="-2" y="2" width="164" height="191" filterUnits="userSpaceOnUse"><feOffset dy="2" input="SourceAlpha"/><feGaussianBlur stdDeviation="6" result="b"/><feFlood flood-color="#44d62c" flood-opacity="0.651"/><feComposite operator="in" in2="b"/><feComposite in="SourceGraphic"/></filter><clipPath id="d"><rect width="160" height="190"/></clipPath></defs><g id="c" clip-path="url(#d)"><g transform="translate(-1989 -328.66)"><g transform="matrix(1, 0, 0, 1, 1989, 328.66)" filter="url(#a)"><g transform="translate(16 18)" fill="#44d62c" stroke="#fff" stroke-width="1" opacity="0.93"><rect width="128" height="155" rx="14" stroke="none"/><rect x="0.5" y="0.5" width="127" height="154" rx="13.5" fill="none"/></g></g><path d="M-10.125-3.32V0h-1.809V-9.242h3.212a2.914,2.914,0,0,1,2.184.818,2.935,2.935,0,0,1,.8,2.143,2.926,2.926,0,0,1-.8,2.146,2.922,2.922,0,0,1-2.18.815Zm0-1.441h1.4a1.017,1.017,0,0,0,.882-.426,1.814,1.814,0,0,0,.3-1.081,1.884,1.884,0,0,0-.3-1.1A1.008,1.008,0,0,0-8.722-7.8h-1.4ZM-2.812,0h-1.8V-6.868h1.8Zm0-8.525h-1.8V-9.9h1.8ZM.33,0h-1.8V-9.9H.33Zm4.6,0A3.082,3.082,0,0,1,4.8-.375,3.057,3.057,0,0,1,4.7-.787a2.147,2.147,0,0,1-.619.67,1.46,1.46,0,0,1-.847.251A1.756,1.756,0,0,1,1.876-.425a2.124,2.124,0,0,1-.511-1.492,1.955,1.955,0,0,1,.651-1.568,2.9,2.9,0,0,1,1.933-.559h.679V-4.6a1.381,1.381,0,0,0-.181-.771.61.61,0,0,0-.543-.27.523.523,0,0,0-.457.216,1.085,1.085,0,0,0-.152.628L1.549-4.805,1.53-4.843a1.883,1.883,0,0,1,.663-1.523A2.626,2.626,0,0,1,4.024-7a2.451,2.451,0,0,1,1.742.625,2.317,2.317,0,0,1,.67,1.781v2.78a6.017,6.017,0,0,0,.07.946A5.153,5.153,0,0,0,6.722,0ZM3.758-1.225a.929.929,0,0,0,.5-.146,1.084,1.084,0,0,0,.365-.375V-3.009H3.948a.657.657,0,0,0-.6.286A1.312,1.312,0,0,0,3.167-2a.919.919,0,0,0,.159.559A.507.507,0,0,0,3.758-1.225ZM10.569-1.8a.667.667,0,0,0-.229-.5,3.847,3.847,0,0,0-.876-.524A4.619,4.619,0,0,1,7.912-3.7,1.667,1.667,0,0,1,7.4-4.97,1.854,1.854,0,0,1,8.058-6.4,2.533,2.533,0,0,1,9.813-7a2.626,2.626,0,0,1,1.822.609,1.922,1.922,0,0,1,.654,1.555l-.019.038H10.531a1.176,1.176,0,0,0-.178-.686.621.621,0,0,0-.546-.254.685.685,0,0,0-.5.2.638.638,0,0,0-.2.476.638.638,0,0,0,.2.492,4.091,4.091,0,0,0,.882.511,4.278,4.278,0,0,1,1.6.873,1.76,1.76,0,0,1,.521,1.323,1.756,1.756,0,0,1-.7,1.435A2.849,2.849,0,0,1,9.782.133,2.539,2.539,0,0,1,7.9-.559a2.043,2.043,0,0,1-.66-1.562l.013-.038h1.65a1.12,1.12,0,0,0,.254.787.9.9,0,0,0,.667.241.781.781,0,0,0,.552-.178A.636.636,0,0,0,10.569-1.8Z" transform="translate(2069 484)" fill="#fff"/><path d="M1194.7,3070.5q-.633,3.639-1.267,7.276a.35.35,0,0,1-.053.1h-.281c.227-1.329.45-2.658.68-3.987.184-1.061.375-2.121.565-3.18a1.5,1.5,0,0,1,.067-.207Z" transform="translate(916.15 -2677.53)" fill="#fff"/><path d="M408.971,3094.222a1.256,1.256,0,0,1-.071-.161c-.05-.173-.442-.47.15-.422.041,0,.088-.073.133-.112-.048.259.148.2.28.207.923.037,1.847.069,2.77.1a.211.211,0,0,1-.074.352,6.672,6.672,0,0,1-1.686.021A5.948,5.948,0,0,0,408.971,3094.222Z" transform="translate(1642.12 -2698.841)" fill="#fefefe"/><path d="M834.966,3091.164c-.1-.167-.038-.359-.084-.534.062.089.109.173.253.167.964-.04,1.928-.068,2.892-.1a.134.134,0,0,0,.146-.131l.276.133c-.365.087-.163.365-.229.549a1.61,1.61,0,0,0-.94-.1c-.724.1-1.455.008-2.18.071A.186.186,0,0,1,834.966,3091.164Z" transform="translate(1247.694 -2696.102)" fill="#fcfcfc"/><g transform="translate(2014.518 392)"><path d="M28.642,3065.653q-4.673-3.839-9.34-7.685a2.053,2.053,0,0,0-1.426-.508c-2.642.054-5.285.092-7.927.133q-4.969.077-9.937.149c-3.561.05-7.121.1-10.682.143q-7.072.075-14.145.125v.025c-.384,0-.769,0-1.153,0-5.546.041-11.092.114-16.638.114-4.479,0-8.958-.091-13.437-.138-3.859-.041-7.718-.072-11.576-.116a1.967,1.967,0,0,0-1.305.447c-.474.38-.947.762-1.424,1.138-2.67,2.1-5.332,4.217-8.023,6.293a1.728,1.728,0,0,0-.789,1.5c.005.223.01.447.026.669q.208,2.913.42,5.826c.134,1.88.268,3.76.391,5.641a1.518,1.518,0,0,0,.689,1.173,3.233,3.233,0,0,0,1.975.543q13.569.012,27.139.014c.521,0,.616.088.628.59q.146,5.86.29,11.721c.089,3.721.185,7.442.248,11.164a2.071,2.071,0,0,0,1.189,1.942,3.341,3.341,0,0,0,.82.344c.273.063.345.212.351.47.016.682.054,1.363.084,2.045.107,2.379.2,4.759.33,7.137a2.993,2.993,0,0,0,.278,1.625,4.57,4.57,0,0,0,1.058,1.188,5.679,5.679,0,0,0,3.376,1.089c1.439.026,2.879-.02,4.318.017a1.8,1.8,0,0,0,1.7-.984,7.032,7.032,0,0,0,.514-1.312q2.622-7.269,5.244-14.539a2.4,2.4,0,0,1,2.119-1.714,2.545,2.545,0,0,1,2.608,1.6c.674,1.705,1.423,3.378,2.139,5.065q2.127,5.011,4.277,10.013a2.892,2.892,0,0,0,2.83,1.861c.906.008,1.812,0,2.718,0a10.125,10.125,0,0,0,2.259-.149,4.956,4.956,0,0,0,3.077-1.723,1.551,1.551,0,0,0,.353-.917c.056-1.86.131-3.719.2-5.579.059-1.636.13-3.272.166-4.91.009-.428.133-.6.579-.667a1.7,1.7,0,0,0,1.505-1.708c.062-1.338.1-2.678.149-4.017q.254-6.9.508-13.8c.062-1.662.137-3.322.189-4.983.009-.275.12-.338.36-.326.272.014.545.008.817.006q9.362-.073,18.723-.148c2.444-.019,4.889-.026,7.333-.047a3.83,3.83,0,0,0,1.736-.34,1.551,1.551,0,0,0,.939-1.286c.082-.826.2-1.649.3-2.474q.436-3.579.874-7.16c.136-1.106.249-2.217.438-3.315A1.213,1.213,0,0,0,28.642,3065.653Zm-11.472-7.221c.033-.236.166-.269.368-.19a1.051,1.051,0,0,1,.335.227q3.566,3.352,7.134,6.7l.054.051c.156.148.326.307.224.543a.523.523,0,0,1-.536.262c-1.042.011-2.084.016-3.126.024-1.823.015-3.647.027-5.471.053-.237,0-.342-.058-.3-.3a.936.936,0,0,1,.005-.476q.569-3.211,1.132-6.423A.764.764,0,0,1,17.17,3058.432Zm-28.861.282c.488.323.442.845.588,1.273a2.73,2.73,0,0,1,.174.564.152.152,0,0,0,.154.079,19.739,19.739,0,0,0,2.843-.113c.074-.191.219-.367.12-.593-.075-.21-.157-.417-.225-.629-.141-.441.029-.695.5-.717.619-.029,1.238-.042,1.858-.052q5.668-.1,11.337-.187,5.445-.1,10.89-.208c.233,0,.387.013.332.3a3.717,3.717,0,0,1-.144,1.248c-.332,1.881-.659,3.763-1,5.643a.917.917,0,0,1-.171.484c.01.266-.136.3-.372.3q-7.2.038-14.4.092c-1.835.013-3.67.034-5.505.048a1.1,1.1,0,0,1-1.308-.932c-.02-.059-.036-.119-.056-.177-.335-1-.335-1-1.371-.96-.657.023-1.313.068-1.97.069-.337,0-.36.123-.262.392.106.29.19.589.275.886a.551.551,0,0,1-.479.785,21.483,21.483,0,0,1-2.489.069c-.214.005-.154-.156-.143-.265.122-1.183.249-2.365.375-3.548q.181-1.7.362-3.4C-11.755,3059.035-11.724,3058.9-11.691,3058.714Zm-26.179.168c1.476,0,2.953-.015,4.429-.017q4.168-.005,8.337,0v-.158q5.4,0,10.793,0c.632,0,1.266,0,1.9-.038.328-.02.368.116.338.383-.135,1.232-.262,2.465-.393,3.7-.114,1.072-.245,2.143-.339,3.217-.029.332-.135.43-.473.432q-8.951.039-17.9.1c-1.96.013-3.92.027-5.88.055-.283,0-.4-.042-.433-.362-.2-2.1-.426-4.192-.643-6.288-.023-.222-.04-.445-.075-.665C-38.258,3058.959-38.148,3058.881-37.87,3058.882Zm-28.591-.254c5.1.055,10.2.091,15.3.133q4.113.035,8.226.074c.05,0,.1,0,.149,0,.8.023.954.28.594.992-.055.109-.123.212-.185.317-.039.035-.026.112-.058.125-.429.174-.145.355-.008.534.637.081,1.28.065,1.917.123a3.343,3.343,0,0,1,.661.067c.18.054.5-.056.494.228,0,.014,0,.025,0,.038a.425.425,0,0,0,.028-.19c-.008-.24.166-.459.162-.711l.542-1.251a2.1,2.1,0,0,1,.188.961c.224,2.066.422,4.136.644,6.2.026.238-.027.289-.254.287-1.028-.005-2.056.009-3.084.009-.535,0-.708-.266-.5-.772.153-.375.328-.743.517-1.168-1.186-.009-2.325-.126-3.47-.084a11.829,11.829,0,0,1-.764,1.565,1.015,1.015,0,0,1-.942.424c-.347.014-.695,0-1.042,0q-9.214,0-18.428.01c-.359,0-.46-.109-.487-.443q-.285-3.5-.6-7C-66.9,3058.76-66.854,3058.623-66.461,3058.627Zm-8.91,6.912q3.784-3.272,7.573-6.54c.047-.04.092-.082.14-.122.107-.087.233-.192.364-.14s.1.211.108.331c.2,2.346.392,4.692.6,7.037.029.329-.034.444-.4.438-1.339-.024-2.678-.01-4.018-.01v0c-1.327,0-2.654,0-3.98,0-.3,0-.68.06-.816-.289S-75.588,3065.727-75.37,3065.539Zm32.5,15.669c-.027.223-.179.16-.3.147-.592-.061-1.183-.124-1.774-.193-.283-.033-.41-.042-.366.364.094.872.071,1.758.092,2.638q.131,5.506.261,11.012.137,5.6.284,11.2c0,.087,0,.174,0,.261,0,.1,0,.2-.147.2s-.164-.077-.168-.189c-.014-.409-.035-.818-.045-1.227q-.13-5.432-.257-10.863-.149-6.12-.31-12.239a2.719,2.719,0,0,0-.123-1.1,1.234,1.234,0,0,0-.688-.071c-.469-.011-.939-.007-1.408,0-.124,0-.217-.011-.214-.172,0-.13.063-.177.182-.173.627.022,1.256-.039,1.883.015a.476.476,0,0,1,.258.03,14.582,14.582,0,0,1,2.592.194C-43.036,3081.046-42.848,3080.982-42.875,3081.208Zm40.263.394c-.021.174-.138.15-.246.134a9.935,9.935,0,0,0-1.41-.076c-.28,0-.351.1-.358.373q-.108,4.241-.238,8.482-.188,6.343-.383,12.685-.044,1.451-.106,2.9c0,.116.064.3-.168.3s-.149-.193-.146-.307c.085-2.877.185-5.753.26-8.63.029-1.127,0-2.256,0-3.385h.091c.124-3.967.243-7.936.381-11.9.012-.356-.066-.467-.433-.456-.569.019-1.14-.03-1.711-.051-.108,0-.234.018-.223-.163s.124-.16.238-.153c1.265.074,2.53-.021,3.795.017a3.765,3.765,0,0,1,.442.053C-2.717,3081.435-2.591,3081.423-2.612,3081.6Zm31.457-15.007a.972.972,0,0,1-.538.112q-3.536.042-7.072.085-6.849.078-13.7.153-8.207.082-16.415.148-6.775.051-13.55.074-7.52.023-15.039.019-11.242-.02-22.484-.073-7.129-.027-14.257-.074c-1.265-.007-2.531-.024-3.8-.036a2.569,2.569,0,0,1-.26-.008c-.236-.027-.516-.047-.579-.314-.066-.282.193-.406.42-.572-.27.625-.238.669.467.673q8.618.048,17.235.092,11.782.047,23.564.075c4.628.012,9.257.026,13.885.018q6.831-.013,13.661-.073,8.263-.062,16.527-.148,6.681-.066,13.361-.149c2.655-.032,5.31-.075,7.965-.113a.971.971,0,0,0,.507-.087.116.116,0,0,1,.185.051C28.96,3066.519,28.894,3066.563,28.845,3066.594Z" transform="translate(79.161 -3057.46)" fill="#fff"/><path d="M391.118,3112.547c.812.029,1.626-.023,2.438.074a.791.791,0,0,0,.67-.1c.114-.177.062-.378.086-.569a10.172,10.172,0,0,1,.959-2.086.8.8,0,0,0-.171.005l-.015,0h0s0,0-.02,0a18.9,18.9,0,0,1-2.325-.075.717.717,0,0,0-.824.45c-.269.525-.516,1.065-.827,1.568a.482.482,0,0,1-.235.152c-.069.022.041.021.029.053a.371.371,0,0,1,.07.285.683.683,0,0,1-.105.25A.914.914,0,0,1,391.118,3112.547Z" transform="translate(-355.836 -3105.887)" fill="#fff"/><path d="M447.912,3110.954c-.008,0,0,0,0,0Z" transform="translate(-408.663 -3106.971)" fill="#fff"/><path d="M366.547,3370.925c.086.008.172.017.258.029A.468.468,0,0,0,366.547,3370.925Z" transform="translate(-333.36 -3347.575)" fill="#fff"/></g><path d="M447.222,3096.771c.117-.073.084-.191.087-.3l.143-.1c.164.437-.125,1.04-.505,1.052-.125.075-.245.121-.321-.062a.4.4,0,0,0,.073-.014c.167-.065.48.136.49-.124.007-.185-.314-.056-.481-.1.013-.159.146-.142.245-.153A.276.276,0,0,0,447.222,3096.771Z" transform="translate(1607.042 -2701.479)" fill="#e1e1e2"/><path d="M839.964,3104.788c1.054-.044,2.067-.084,3.081-.129a.189.189,0,0,1,.221.144c.225.678.453,1.356.687,2.052-1.069.078-2.094.151-3.118.23a.191.191,0,0,1-.235-.166C840.4,3106.221,840.185,3105.525,839.964,3104.788Z" transform="translate(1242.991 -2709.144)" fill="#fff"/><path d="M836.015,3096.69c1.007-.124,2.023-.07,3.032-.152.2-.016.145.161.222.236a6.191,6.191,0,0,1-1.356.106c-.566.05-1.139.027-1.706.067C835.949,3096.967,836.059,3096.788,836.015,3096.69Z" transform="translate(1246.646 -2701.628)" fill="#fff"/><path d="M851.308,3139.079c-.445,0-.89,0-1.335,0-.09,0-.227.032-.235-.108s.134-.112.222-.118q1.369-.1,2.738-.2c.112-.008.258-.066.265.146.006.19-.117.189-.245.189-.47,0-.94,0-1.41,0Z" transform="translate(1233.945 -2740.592)" fill="#fff"/><path d="M396.456,3108.585l.321.062-.9,2.082a.365.365,0,0,1-.427.307c-.873-.045-1.746-.077-2.619-.116a.708.708,0,0,1-.357-.074.131.131,0,0,1-.023-.187c.316-.616.645-1.226.944-1.85a.455.455,0,0,1,.5-.31C394.747,3108.543,395.6,3108.558,396.456,3108.585Z" transform="translate(1657.212 -2712.696)" fill="#fff"/><path d="M390.018,3143.422c1.015.051,2.031.1,3.046.155.129.007.276-.049.385.076-.02.121-.014.243-.208.229-1.121-.083-2.249-.034-3.368-.155Z" transform="translate(1659.569 -2745.021)" fill="#fff"/><path d="M415.188,3100.565c.179.2.148.3-.135.294-.127,0-.272-.069-.381.061a7.946,7.946,0,0,0-1.466-.119c-.318-.037-.642-.019-.964-.029-.092,0-.21.033-.229-.117.049-.192.2-.181.349-.176Q413.775,3100.524,415.188,3100.565Z" transform="translate(1639.076 -2705.272)" fill="#fff"/><path d="M389.977,3137.663l-.162.011c-.025-.019-.144,0-.039-.074a.824.824,0,0,1,.186-.079Z" transform="translate(1659.698 -2739.56)" fill="#dfe0e1"/></g></g></svg>