<svg xmlns="http://www.w3.org/2000/svg" xmlns:xlink="http://www.w3.org/1999/xlink" width="160" height="190" viewBox="0 0 160 190"><defs><filter id="a" x="-2" y="2" width="164" height="191" filterUnits="userSpaceOnUse"><feOffset dy="2" input="SourceAlpha"/><feGaussianBlur stdDeviation="6" result="b"/><feFlood flood-color="#44d62c" flood-opacity="0.651"/><feComposite operator="in" in2="b"/><feComposite in="SourceGraphic"/></filter><clipPath id="d"><rect width="160" height="190"/></clipPath></defs><g id="c" clip-path="url(#d)"><g transform="translate(-708 -328.66)"><g transform="translate(177 316)"><g transform="matrix(1, 0, 0, 1, 531, 12.66)" filter="url(#a)"><g transform="translate(16 18)" fill="#44d62c" stroke="#fff" stroke-width="1" opacity="0.93"><rect width="128" height="155" rx="14" stroke="none"/><rect x="0.5" y="0.5" width="127" height="154" rx="13.5" fill="none"/></g></g></g><path d="M-12.029-2.977l.019.038a3.177,3.177,0,0,1-.724,2.3A2.857,2.857,0,0,1-14.9.133,3.054,3.054,0,0,1-17.2-.746a3.422,3.422,0,0,1-.857-2.491V-6a3.508,3.508,0,0,1,.828-2.491,2.893,2.893,0,0,1,2.219-.885,2.937,2.937,0,0,1,2.225.787A3.334,3.334,0,0,1-12-6.259l-.019.038h-1.739a2.157,2.157,0,0,0-.248-1.312,1.14,1.14,0,0,0-1-.4,1.059,1.059,0,0,0-.933.477,2.589,2.589,0,0,0-.324,1.442v2.777a2.483,2.483,0,0,0,.346,1.455,1.172,1.172,0,0,0,1.012.477,1.023,1.023,0,0,0,.911-.378,2.256,2.256,0,0,0,.225-1.292ZM-7.687,0a3.082,3.082,0,0,1-.136-.375,3.057,3.057,0,0,1-.092-.413,2.147,2.147,0,0,1-.619.67,1.46,1.46,0,0,1-.847.251,1.756,1.756,0,0,1-1.362-.559,2.124,2.124,0,0,1-.511-1.492A1.955,1.955,0,0,1-10.6-3.485a2.9,2.9,0,0,1,1.933-.559h.679V-4.6a1.381,1.381,0,0,0-.181-.771.61.61,0,0,0-.543-.27.523.523,0,0,0-.457.216,1.085,1.085,0,0,0-.152.628l-1.746-.006-.019-.038a1.883,1.883,0,0,1,.663-1.523A2.626,2.626,0,0,1-8.595-7a2.451,2.451,0,0,1,1.742.625,2.317,2.317,0,0,1,.67,1.781v2.78a6.017,6.017,0,0,0,.07.946A5.153,5.153,0,0,0-5.9,0ZM-8.861-1.225a.929.929,0,0,0,.5-.146,1.084,1.084,0,0,0,.365-.375V-3.009h-.679a.657.657,0,0,0-.6.286A1.312,1.312,0,0,0-9.452-2a.919.919,0,0,0,.159.559A.507.507,0,0,0-8.861-1.225Zm5.745-5.643V.209a2.832,2.832,0,0,1-.571,1.9,1.978,1.978,0,0,1-1.587.667,2.682,2.682,0,0,1-.406-.028q-.184-.028-.406-.085l.076-1.4a2.6,2.6,0,0,0,.254.057,1.551,1.551,0,0,0,.254.019.466.466,0,0,0,.428-.28A1.823,1.823,0,0,0-4.926.22V-6.868Zm-.038-1.657h-1.8V-9.9h1.8ZM-.063,0h-1.8V-6.868h1.8Zm0-8.525h-1.8V-9.9h1.8ZM3.079,0h-1.8V-9.9h1.8ZM6.221,0h-1.8V-9.9h1.8Zm4.6,0a3.082,3.082,0,0,1-.136-.375,3.057,3.057,0,0,1-.092-.413,2.147,2.147,0,0,1-.619.67,1.46,1.46,0,0,1-.847.251A1.756,1.756,0,0,1,7.766-.425a2.124,2.124,0,0,1-.511-1.492,1.955,1.955,0,0,1,.651-1.568,2.9,2.9,0,0,1,1.933-.559h.679V-4.6a1.381,1.381,0,0,0-.181-.771.61.61,0,0,0-.543-.27.523.523,0,0,0-.457.216,1.085,1.085,0,0,0-.152.628L7.439-4.805,7.42-4.843a1.883,1.883,0,0,1,.663-1.523A2.626,2.626,0,0,1,9.915-7a2.451,2.451,0,0,1,1.742.625,2.317,2.317,0,0,1,.67,1.781v2.78a6.016,6.016,0,0,0,.07.946A5.153,5.153,0,0,0,12.613,0ZM9.648-1.225a.929.929,0,0,0,.5-.146,1.084,1.084,0,0,0,.365-.375V-3.009H9.839a.657.657,0,0,0-.6.286A1.312,1.312,0,0,0,9.058-2a.919.919,0,0,0,.159.559A.507.507,0,0,0,9.648-1.225ZM16.459-1.8a.667.667,0,0,0-.229-.5,3.847,3.847,0,0,0-.876-.524A4.619,4.619,0,0,1,13.8-3.7a1.667,1.667,0,0,1-.517-1.27A1.854,1.854,0,0,1,13.949-6.4,2.533,2.533,0,0,1,15.7-7a2.626,2.626,0,0,1,1.822.609,1.922,1.922,0,0,1,.654,1.555l-.019.038H16.421a1.176,1.176,0,0,0-.178-.686.621.621,0,0,0-.546-.254.685.685,0,0,0-.5.2.638.638,0,0,0-.2.476.638.638,0,0,0,.2.492,4.091,4.091,0,0,0,.882.511,4.278,4.278,0,0,1,1.6.873,1.76,1.76,0,0,1,.521,1.323,1.756,1.756,0,0,1-.7,1.435,2.849,2.849,0,0,1-1.834.559,2.539,2.539,0,0,1-1.879-.692,2.043,2.043,0,0,1-.66-1.562l.013-.038H14.8a1.12,1.12,0,0,0,.254.787.9.9,0,0,0,.667.241.781.781,0,0,0,.552-.178A.636.636,0,0,0,16.459-1.8Z" transform="translate(788 484)" fill="#fff"/><g transform="translate(751 395)"><path d="M120.524,82.99V72.584a7.764,7.764,0,0,0-7.755-7.756H73.1a7.765,7.765,0,0,0-7.756,7.756V82.99A7.765,7.765,0,0,0,73.1,90.746h39.666a7.765,7.765,0,0,0,7.755-7.756Zm-15.9,5.574a31.466,31.466,0,0,0,1.884-10.737V76.768h5.128v1.059A31.464,31.464,0,0,0,113.5,88.514a5.651,5.651,0,0,1-.731.049Zm1.427-13.978.074-.688h5.893l.074.688Zm6.064-2.871h-6.086v-.789a.259.259,0,0,1,.259-.259h5.569a.259.259,0,0,1,.258.259ZM67.529,82.99V72.584A5.58,5.58,0,0,1,73.1,67.01h39.666a5.58,5.58,0,0,1,5.573,5.574V82.99a5.574,5.574,0,0,1-2.778,4.819,29.286,29.286,0,0,1-1.749-9.981V76.073a1.987,1.987,0,0,0,.468-1.5l-.16-1.485a1.5,1.5,0,0,0,.172-.7V70.926a2.444,2.444,0,0,0-2.441-2.441h-5.569a2.444,2.444,0,0,0-2.441,2.441v1.463a1.494,1.494,0,0,0,.172.7l-.16,1.485a1.988,1.988,0,0,0,.468,1.5v1.754a29.289,29.289,0,0,1-1.794,10.11l-.23.626H99.706l-.23-.626a29.288,29.288,0,0,1-1.794-10.11V76.073a1.989,1.989,0,0,0,.468-1.5l-.16-1.485a1.5,1.5,0,0,0,.172-.7V70.926a2.444,2.444,0,0,0-2.441-2.441H90.152a2.444,2.444,0,0,0-2.442,2.441v1.463a1.5,1.5,0,0,0,.172.7l-.16,1.485a1.985,1.985,0,0,0,.468,1.5v1.754a29.289,29.289,0,0,1-1.795,10.11l-.229.626H83.572l-.23-.626a29.289,29.289,0,0,1-1.795-10.11V76.073a1.986,1.986,0,0,0,.468-1.5l-.16-1.485a1.5,1.5,0,0,0,.172-.7V70.926a2.444,2.444,0,0,0-2.441-2.441H74.017a2.444,2.444,0,0,0-2.441,2.441v1.463a1.5,1.5,0,0,0,.172.7l-.16,1.485a1.989,1.989,0,0,0,.468,1.5v1.754a29.273,29.273,0,0,1-1.749,9.981,5.576,5.576,0,0,1-2.777-4.819Zm22.386-8.4.074-.688h5.893l.074.688Zm6.064-2.871H89.893v-.789a.259.259,0,0,1,.259-.259H95.72a.259.259,0,0,1,.259.259Zm-5.607,6.112V76.768H95.5v1.059a31.46,31.46,0,0,0,1.883,10.737h-8.9a31.461,31.461,0,0,0,1.883-10.737ZM73.759,71.715v-.789a.259.259,0,0,1,.259-.259h5.568a.259.259,0,0,1,.259.259v.789Zm-1.387,16.8a31.465,31.465,0,0,0,1.866-10.687v-1.3a1.09,1.09,0,0,0-.459-1.925l.077-.71h5.893l.074.688H78.016a1.091,1.091,0,1,0,0,2.182h1.351v1.059A31.466,31.466,0,0,0,81.25,88.564H73.1a5.649,5.649,0,0,1-.731-.049Zm0,0" transform="translate(-55.866 -55.422)" fill="#fff"/><path d="M72.167,0H2.117A2.121,2.121,0,0,0,0,2.118V6.03A2.121,2.121,0,0,0,2.117,8.148h.227V58.759a3.065,3.065,0,0,0,3.062,3.062H45.949a1.091,1.091,0,0,0,0-2.182H5.406a.88.88,0,0,1-.88-.88V8.148h3.01a1.091,1.091,0,1,0,0-2.182H2.181V2.182H72.1V5.966H12.241a1.091,1.091,0,0,0,0,2.183H69.757V58.759a.88.88,0,0,1-.88.879H50.794a1.091,1.091,0,1,0,0,2.182H68.878a3.065,3.065,0,0,0,3.062-3.062V8.148h.227A2.121,2.121,0,0,0,74.285,6.03V2.118A2.121,2.121,0,0,0,72.167,0Zm0,0" fill="#fff"/></g></g></g></svg>