<svg xmlns="http://www.w3.org/2000/svg" xmlns:xlink="http://www.w3.org/1999/xlink" width="160" height="190" viewBox="0 0 160 190"><defs><filter id="a" x="-2" y="2" width="164" height="191" filterUnits="userSpaceOnUse"><feOffset dy="2" input="SourceAlpha"/><feGaussianBlur stdDeviation="6" result="b"/><feFlood flood-color="#44d62c" flood-opacity="0.651"/><feComposite operator="in" in2="b"/><feComposite in="SourceGraphic"/></filter><clipPath id="d"><rect width="160" height="190"/></clipPath></defs><g id="c" clip-path="url(#d)"><g transform="translate(-200 -328.66)"><g transform="matrix(1, 0, 0, 1, 200, 328.66)" filter="url(#a)"><g transform="translate(16 18)" fill="#44d62c" opacity="0.93"><path d="M 114 154.5 L 14 154.5 C 10.39402008056641 154.5 7.003880023956299 153.0957641601563 4.454060077667236 150.5459442138672 C 1.904240012168884 147.9961395263672 0.5 144.6059875488281 0.5 141 L 0.5 14 C 0.5 10.39402008056641 1.904240012168884 7.003880023956299 4.454060077667236 4.454060077667236 C 7.003880023956299 1.904240012168884 10.39402008056641 0.5 14 0.5 L 114 0.5 C 117.6059799194336 0.5 120.9961166381836 1.904240012168884 123.5459365844727 4.454060077667236 C 126.0957565307617 7.003880023956299 127.5 10.39402008056641 127.5 14 L 127.5 141 C 127.5 144.6059875488281 126.0957565307617 147.9961395263672 123.5459365844727 150.5459442138672 C 120.9961166381836 153.0957641601563 117.6059799194336 154.5 114 154.5 Z" stroke="none"/><path d="M 14 1 C 10.52758026123047 1 7.262977600097656 2.35223388671875 4.8076171875 4.807601928710938 C 2.352241516113281 7.262985229492188 1 10.52757263183594 1 14 L 1 141 C 1 144.472412109375 2.352241516113281 147.7370147705078 4.8076171875 150.1923980712891 C 7.262977600097656 152.6477661132813 10.52758026123047 154 14 154 L 114 154 C 117.4724197387695 154 120.7370223999023 152.6477661132813 123.1923828125 150.1923980712891 C 125.6477584838867 147.7370147705078 127 144.472412109375 127 141 L 127 14 C 127 10.52757263183594 125.6477584838867 7.262985229492188 123.1923828125 4.807601928710938 C 120.7370223999023 2.35223388671875 117.4724197387695 1 114 1 L 14 1 M 14 0 L 114 0 C 121.7319793701172 0 128 6.26800537109375 128 14 L 128 141 C 128 148.7319946289063 121.7319793701172 155 114 155 L 14 155 C 6.268020629882813 155 0 148.7319946289063 0 141 L 0 14 C 0 6.26800537109375 6.268020629882813 0 14 0 Z" stroke="none" fill="#fff"/></g></g><g transform="translate(214.993 388.659)"><path d="M86.855,59.675c3.93-10.594,3.93-41.417,0-52.01L88.008,1.56A1.316,1.316,0,0,0,86.715,0H43.1A1.316,1.316,0,0,0,41.8,1.56l1.152,6.106c-3.93,10.593-3.93,41.416,0,52.01L41.8,65.781a1.316,1.316,0,0,0,1.293,1.56H86.718a1.317,1.317,0,0,0,1.268-1.667ZM85.128,2.631,84.4,6.469h-39l-.724-3.838ZM45.237,9.1H84.572c3.467,10.276,3.467,38.862,0,49.139H45.237C41.771,47.963,41.771,19.376,45.237,9.1Zm-.555,55.609.725-3.838h39l.724,3.838Z" transform="translate(0)" fill="#fff"/><path d="M79.235,125.378l.011,0,.076.012a2.581,2.581,0,0,0,.321.019,17.863,17.863,0,0,0,4.262-1.035,29.214,29.214,0,0,1,5.755-1.407c.145-.008.288-.012.431-.012a16.5,16.5,0,0,1,3.684.576,22.591,22.591,0,0,0,5.321.758c1.678,0,5.878-.308,8.618-3.163a8.638,8.638,0,0,0,2.277-6.606c-.3-7.374-8.3-10.564-12.318-10.564-6.1,0-9.5,5.024-10.707,8.3-8.213,1.2-10.982,7.848-10.982,9.607A3.457,3.457,0,0,0,79.235,125.378Zm18.437-18.789c2.754,0,9.453,2.314,9.689,8.041a6.112,6.112,0,0,1-1.546,4.675c-2.1,2.184-5.673,2.354-6.72,2.354a20.144,20.144,0,0,1-4.725-.69,18.747,18.747,0,0,0-4.28-.644c-.194,0-.388.005-.578.016a19.028,19.028,0,0,0-3.79.744,28.322,28.322,0,0,0,3.49-7.232c0-.006,0-.013.005-.02s0-.008,0-.012C89.305,113.527,91.359,106.588,97.672,106.588Zm-11.74,8.562c-1.255,3.006-3.6,7.2-6.442,7.606-.873-.156-.875-.594-.875-.881C78.652,121.179,80.344,116.6,85.932,115.15Z" transform="translate(-28.087 -81.161)" fill="#fff"/></g><path d="M-39.178-4.056h-3.1v2.615h3.65V0h-5.459V-9.242h5.446V-7.8h-3.637v2.3h3.1Zm3.06-2.812.07.876a2.046,2.046,0,0,1,.686-.743A1.735,1.735,0,0,1-34.417-7a1.523,1.523,0,0,1,.908.276,1.7,1.7,0,0,1,.59.841,2.151,2.151,0,0,1,.686-.825A1.667,1.667,0,0,1-31.256-7a1.555,1.555,0,0,1,1.343.7,3.757,3.757,0,0,1,.492,2.142V0H-31.23V-4.156a2.434,2.434,0,0,0-.171-1.1.571.571,0,0,0-.533-.3A.751.751,0,0,0-32.4-5.4a1.161,1.161,0,0,0-.336.419q.006.121.013.238t.006.245V0h-1.8V-4.156a2.4,2.4,0,0,0-.175-1.093.582.582,0,0,0-.543-.305.8.8,0,0,0-.441.124A1.09,1.09,0,0,0-36-5.084V0h-1.8V-6.868Zm13.26,3.961a3.714,3.714,0,0,1-.6,2.206,1.935,1.935,0,0,1-1.669.835,1.607,1.607,0,0,1-.746-.168,1.623,1.623,0,0,1-.568-.5V2.641h-1.8V-6.868h1.669l.063.679a1.863,1.863,0,0,1,.587-.6A1.463,1.463,0,0,1-25.137-7a1.909,1.909,0,0,1,1.682.892,4.162,4.162,0,0,1,.6,2.352Zm-1.8-.848a3.138,3.138,0,0,0-.229-1.306.753.753,0,0,0-.717-.493.857.857,0,0,0-.5.143,1.012,1.012,0,0,0-.336.4v3.242a.854.854,0,0,0,.333.343,1.027,1.027,0,0,0,.5.114.75.75,0,0,0,.72-.426,2.605,2.605,0,0,0,.219-1.176ZM-18.58,0a3.082,3.082,0,0,1-.136-.375,3.057,3.057,0,0,1-.092-.413,2.147,2.147,0,0,1-.619.67,1.46,1.46,0,0,1-.847.251,1.756,1.756,0,0,1-1.362-.559,2.124,2.124,0,0,1-.511-1.492A1.955,1.955,0,0,1-21.5-3.485a2.9,2.9,0,0,1,1.933-.559h.679V-4.6a1.381,1.381,0,0,0-.181-.771.61.61,0,0,0-.543-.27.523.523,0,0,0-.457.216,1.085,1.085,0,0,0-.152.628l-1.746-.006-.019-.038a1.883,1.883,0,0,1,.663-1.523A2.626,2.626,0,0,1-19.487-7a2.451,2.451,0,0,1,1.742.625,2.317,2.317,0,0,1,.67,1.781v2.78a6.017,6.017,0,0,0,.07.946A5.153,5.153,0,0,0-16.79,0Zm-1.174-1.225a.929.929,0,0,0,.5-.146,1.084,1.084,0,0,0,.365-.375V-3.009h-.679a.657.657,0,0,0-.6.286A1.312,1.312,0,0,0-20.344-2a.919.919,0,0,0,.159.559A.507.507,0,0,0-19.754-1.225Zm3.58-2.526a4.165,4.165,0,0,1,.6-2.349A1.908,1.908,0,0,1-13.9-7a1.427,1.427,0,0,1,.8.225,2.026,2.026,0,0,1,.606.644l.127-.743H-10.8V2.641h-1.809V-.527a1.727,1.727,0,0,1-.568.492A1.54,1.54,0,0,1-13.9.133,1.941,1.941,0,0,1-15.577-.7a3.714,3.714,0,0,1-.6-2.206Zm1.8.844a2.662,2.662,0,0,0,.213,1.177.743.743,0,0,0,.72.422,1,1,0,0,0,.489-.114.9.9,0,0,0,.343-.336V-5.027a1.051,1.051,0,0,0-.336-.384.845.845,0,0,0-.482-.136.749.749,0,0,0-.724.492,3.208,3.208,0,0,0-.222,1.3ZM-6.132-.793A2.027,2.027,0,0,1-6.808-.1a1.712,1.712,0,0,1-.9.238,1.691,1.691,0,0,1-1.438-.7,3.621,3.621,0,0,1-.517-2.155V-6.868h1.8V-2.7a2.361,2.361,0,0,0,.178,1.061.567.567,0,0,0,.527.33,1.169,1.169,0,0,0,.524-.111,1.05,1.05,0,0,0,.384-.327V-6.868h1.809V0H-6.024Zm5.5.927A2.623,2.623,0,0,1-2.685-.717a3.1,3.1,0,0,1-.762-2.146v-.965a3.545,3.545,0,0,1,.708-2.279A2.365,2.365,0,0,1-.781-7a2.276,2.276,0,0,1,1.866.806,3.366,3.366,0,0,1,.66,2.2v1.1h-3.4v.025a1.9,1.9,0,0,0,.308,1.117,1.061,1.061,0,0,0,.93.438,2.482,2.482,0,0,0,.825-.114A4.341,4.341,0,0,0,1.168-1.8L1.625-.654a2.723,2.723,0,0,1-.949.565A3.694,3.694,0,0,1-.628.133ZM-.781-5.554a.67.67,0,0,0-.635.4,2.564,2.564,0,0,0-.229,1.065H-.025v-.255A1.831,1.831,0,0,0-.2-5.239.612.612,0,0,0-.781-5.554ZM10.563-3.84H7.427V0H5.618V-9.242h5.5V-7.8H7.427v2.52h3.136ZM13.838,0h-1.8V-9.9h1.8Zm3.929.133A2.623,2.623,0,0,1,15.71-.717a3.1,3.1,0,0,1-.762-2.146v-.965a3.545,3.545,0,0,1,.708-2.279A2.365,2.365,0,0,1,17.615-7a2.276,2.276,0,0,1,1.866.806,3.366,3.366,0,0,1,.66,2.2v1.1h-3.4v.025a1.9,1.9,0,0,0,.308,1.117,1.061,1.061,0,0,0,.93.438,2.482,2.482,0,0,0,.825-.114,4.341,4.341,0,0,0,.755-.381l.457,1.149a2.723,2.723,0,0,1-.949.565A3.694,3.694,0,0,1,17.767.133Zm-.152-5.687a.67.67,0,0,0-.635.4,2.564,2.564,0,0,0-.229,1.065H18.37v-.255a1.831,1.831,0,0,0-.178-.889A.612.612,0,0,0,17.615-5.554Zm5.713.851h.038l.724-2.165h2.031l-1.7,3.4L26.171,0H24.146l-.755-2.228h-.038L22.6,0H20.566l1.746-3.472-1.7-3.4h2.025ZM28.7,0H26.9V-6.868h1.8Zm0-8.525H26.9V-9.9h1.8Zm6.64,5.618a3.812,3.812,0,0,1-.574,2.215,1.923,1.923,0,0,1-1.685.825,1.564,1.564,0,0,1-.841-.222,1.865,1.865,0,0,1-.613-.647L31.522,0H29.961V-9.9h1.8v3.618a1.739,1.739,0,0,1,.568-.527A1.481,1.481,0,0,1,33.071-7a1.912,1.912,0,0,1,1.695.86,4.055,4.055,0,0,1,.578,2.295Zm-1.8-.937a3.188,3.188,0,0,0-.2-1.259.737.737,0,0,0-.74-.451.854.854,0,0,0-.5.146,1.077,1.077,0,0,0-.343.413v3.21a.854.854,0,0,0,.34.353,1.041,1.041,0,0,0,.511.118.741.741,0,0,0,.74-.4,2.857,2.857,0,0,0,.194-1.192ZM38.162,0h-1.8V-9.9h1.8Zm3.929.133a2.623,2.623,0,0,1-2.057-.851,3.1,3.1,0,0,1-.762-2.146v-.965a3.545,3.545,0,0,1,.708-2.279A2.365,2.365,0,0,1,41.939-7a2.276,2.276,0,0,1,1.866.806,3.366,3.366,0,0,1,.66,2.2v1.1h-3.4v.025a1.9,1.9,0,0,0,.308,1.117,1.061,1.061,0,0,0,.93.438,2.482,2.482,0,0,0,.825-.114,4.341,4.341,0,0,0,.755-.381l.457,1.149a2.723,2.723,0,0,1-.949.565A3.694,3.694,0,0,1,42.091.133Zm-.152-5.687a.67.67,0,0,0-.635.4,2.564,2.564,0,0,0-.229,1.065h1.619v-.255a1.831,1.831,0,0,0-.178-.889A.612.612,0,0,0,41.939-5.554Z" transform="translate(280 484)" fill="#fff"/></g></g></svg>