<svg xmlns="http://www.w3.org/2000/svg" xmlns:xlink="http://www.w3.org/1999/xlink" width="160" height="190" viewBox="0 0 160 190"><defs><filter id="a" x="-2" y="2" width="164" height="191" filterUnits="userSpaceOnUse"><feOffset dy="2" input="SourceAlpha"/><feGaussianBlur stdDeviation="6" result="b"/><feFlood flood-color="#44d62c" flood-opacity="0.651"/><feComposite operator="in" in2="b"/><feComposite in="SourceGraphic"/></filter><clipPath id="d"><rect width="160" height="190"/></clipPath></defs><g id="c" clip-path="url(#d)"><g transform="translate(-531 -328.66)"><g transform="translate(0 316)"><g transform="matrix(1, 0, 0, 1, 531, 12.66)" filter="url(#a)"><g transform="translate(16 18)" fill="#44d62c" stroke="#fff" stroke-width="1" opacity="0.93"><rect width="128" height="155" rx="14" stroke="none"/><rect x="0.5" y="0.5" width="127" height="154" rx="13.5" fill="none"/></g></g></g><path d="M-46.966-4.056h-3.1v2.615h3.65V0h-5.459V-9.242h5.446V-7.8H-50.07v2.3h3.1Zm3.06-2.812.07.876a2.046,2.046,0,0,1,.686-.743A1.735,1.735,0,0,1-42.206-7a1.523,1.523,0,0,1,.908.276,1.7,1.7,0,0,1,.59.841,2.151,2.151,0,0,1,.686-.825A1.667,1.667,0,0,1-39.044-7a1.555,1.555,0,0,1,1.343.7,3.757,3.757,0,0,1,.492,2.142V0h-1.809V-4.156a2.434,2.434,0,0,0-.171-1.1.571.571,0,0,0-.533-.3.751.751,0,0,0-.463.153,1.161,1.161,0,0,0-.336.419q.006.121.013.238t.006.245V0h-1.8V-4.156a2.4,2.4,0,0,0-.175-1.093.582.582,0,0,0-.543-.305.8.8,0,0,0-.441.124,1.09,1.09,0,0,0-.333.346V0h-1.8V-6.868Zm13.26,3.961a3.714,3.714,0,0,1-.6,2.206,1.935,1.935,0,0,1-1.669.835,1.607,1.607,0,0,1-.746-.168,1.623,1.623,0,0,1-.568-.5V2.641h-1.8V-6.868h1.669l.063.679a1.863,1.863,0,0,1,.587-.6A1.463,1.463,0,0,1-32.925-7a1.909,1.909,0,0,1,1.682.892,4.162,4.162,0,0,1,.6,2.352Zm-1.8-.848a3.138,3.138,0,0,0-.229-1.306.753.753,0,0,0-.717-.493.857.857,0,0,0-.5.143,1.012,1.012,0,0,0-.336.4v3.242a.854.854,0,0,0,.333.343,1.027,1.027,0,0,0,.5.114.75.75,0,0,0,.72-.426,2.605,2.605,0,0,0,.219-1.176ZM-26.368,0A3.082,3.082,0,0,1-26.5-.375,3.057,3.057,0,0,1-26.6-.787a2.147,2.147,0,0,1-.619.67,1.46,1.46,0,0,1-.847.251,1.756,1.756,0,0,1-1.362-.559,2.124,2.124,0,0,1-.511-1.492,1.955,1.955,0,0,1,.651-1.568,2.9,2.9,0,0,1,1.933-.559h.679V-4.6a1.381,1.381,0,0,0-.181-.771.61.61,0,0,0-.543-.27.523.523,0,0,0-.457.216,1.085,1.085,0,0,0-.152.628l-1.746-.006-.019-.038a1.883,1.883,0,0,1,.663-1.523A2.626,2.626,0,0,1-27.276-7a2.451,2.451,0,0,1,1.742.625,2.317,2.317,0,0,1,.67,1.781v2.78a6.017,6.017,0,0,0,.07.946A5.153,5.153,0,0,0-24.578,0Zm-1.174-1.225a.929.929,0,0,0,.5-.146,1.084,1.084,0,0,0,.365-.375V-3.009h-.679a.657.657,0,0,0-.6.286A1.312,1.312,0,0,0-28.133-2a.919.919,0,0,0,.159.559A.507.507,0,0,0-27.542-1.225Zm3.58-2.526a4.165,4.165,0,0,1,.6-2.349A1.908,1.908,0,0,1-21.684-7a1.427,1.427,0,0,1,.8.225,2.026,2.026,0,0,1,.606.644l.127-.743h1.568V2.641H-20.4V-.527a1.727,1.727,0,0,1-.568.492,1.54,1.54,0,0,1-.727.168A1.941,1.941,0,0,1-23.366-.7a3.714,3.714,0,0,1-.6-2.206Zm1.8.844a2.662,2.662,0,0,0,.213,1.177.743.743,0,0,0,.72.422,1,1,0,0,0,.489-.114.9.9,0,0,0,.343-.336V-5.027a1.051,1.051,0,0,0-.336-.384.845.845,0,0,0-.482-.136.749.749,0,0,0-.724.492,3.208,3.208,0,0,0-.222,1.3ZM-13.92-.793A2.027,2.027,0,0,1-14.6-.1a1.712,1.712,0,0,1-.9.238,1.691,1.691,0,0,1-1.438-.7,3.621,3.621,0,0,1-.517-2.155V-6.868h1.8V-2.7a2.361,2.361,0,0,0,.178,1.061.567.567,0,0,0,.527.33,1.169,1.169,0,0,0,.524-.111,1.05,1.05,0,0,0,.384-.327V-6.868h1.809V0h-1.587Zm5.5.927a2.623,2.623,0,0,1-2.057-.851,3.1,3.1,0,0,1-.762-2.146v-.965a3.545,3.545,0,0,1,.708-2.279A2.365,2.365,0,0,1-8.569-7,2.276,2.276,0,0,1-6.7-6.189a3.366,3.366,0,0,1,.66,2.2v1.1h-3.4v.025a1.9,1.9,0,0,0,.308,1.117,1.061,1.061,0,0,0,.93.438,2.482,2.482,0,0,0,.825-.114A4.341,4.341,0,0,0-6.621-1.8l.457,1.149a2.723,2.723,0,0,1-.949.565A3.694,3.694,0,0,1-8.417.133Zm-.152-5.687a.67.67,0,0,0-.635.4,2.564,2.564,0,0,0-.229,1.065h1.619v-.255a1.831,1.831,0,0,0-.178-.889A.612.612,0,0,0-8.569-5.554ZM-.362-1.441H3.015V0H-2.171V-9.242H-.362ZM5.688,0h-1.8V-6.868h1.8Zm0-8.525h-1.8V-9.9h1.8Zm3.4-.051v1.708h.952v1.308H9.09v3.447a1.122,1.122,0,0,0,.121.6.377.377,0,0,0,.33.181,2.076,2.076,0,0,0,.279-.016,2.043,2.043,0,0,0,.254-.054l.14,1.371A3.6,3.6,0,0,1,9.667.1a4.109,4.109,0,0,1-.59.038A1.656,1.656,0,0,1,7.747-.4a2.589,2.589,0,0,1-.46-1.7V-5.561H6.475V-6.868h.813V-8.576Zm1.625,4.723a3.415,3.415,0,0,1,.733-2.263A2.526,2.526,0,0,1,13.5-7a2.536,2.536,0,0,1,2.057.879,3.4,3.4,0,0,1,.736,2.263V-3a3.387,3.387,0,0,1-.736,2.266,2.541,2.541,0,0,1-2.05.87,2.546,2.546,0,0,1-2.06-.87A3.4,3.4,0,0,1,10.715-3Zm1.8.848a2.867,2.867,0,0,0,.222,1.246.791.791,0,0,0,.774.451.782.782,0,0,0,.759-.455,2.835,2.835,0,0,0,.225-1.243v-.852a2.843,2.843,0,0,0-.225-1.237.785.785,0,0,0-.765-.461.785.785,0,0,0-.765.464,2.847,2.847,0,0,0-.225,1.233Zm4.494-.746a4.148,4.148,0,0,1,.6-2.349A1.921,1.921,0,0,1,19.3-7a1.424,1.424,0,0,1,.806.232,2.042,2.042,0,0,1,.609.663l.114-.768h1.568V-.133A2.864,2.864,0,0,1,21.611,2a2.917,2.917,0,0,1-2.149.778,3.459,3.459,0,0,1-.946-.143,4.344,4.344,0,0,1-.933-.384L17.9.857a3.228,3.228,0,0,0,.736.3,3.1,3.1,0,0,0,.813.1A1.029,1.029,0,0,0,20.306.9,1.646,1.646,0,0,0,20.592-.14V-.533a1.749,1.749,0,0,1-.578.5,1.559,1.559,0,0,1-.73.168A1.947,1.947,0,0,1,17.6-.7a3.714,3.714,0,0,1-.6-2.206Zm1.8.848a2.617,2.617,0,0,0,.216,1.173.749.749,0,0,0,.724.423,1.022,1.022,0,0,0,.492-.114.94.94,0,0,0,.352-.337V-5.014a1.109,1.109,0,0,0-.346-.394.845.845,0,0,0-.486-.14.753.753,0,0,0-.73.493,3.217,3.217,0,0,0-.222,1.306ZM26.8-5.224l-.679-.019a.769.769,0,0,0-.473.14.887.887,0,0,0-.289.394V0h-1.8V-6.868h1.682l.07.92.032.013a1.873,1.873,0,0,1,.46-.778A.965.965,0,0,1,26.489-7a1.6,1.6,0,0,1,.257.022,1.746,1.746,0,0,1,.238.054ZM31.059,0a3.082,3.082,0,0,1-.136-.375,3.057,3.057,0,0,1-.092-.413,2.147,2.147,0,0,1-.619.67,1.46,1.46,0,0,1-.847.251A1.756,1.756,0,0,1,28-.425a2.124,2.124,0,0,1-.511-1.492,1.955,1.955,0,0,1,.651-1.568,2.9,2.9,0,0,1,1.933-.559h.679V-4.6a1.381,1.381,0,0,0-.181-.771.61.61,0,0,0-.543-.27.523.523,0,0,0-.457.216,1.085,1.085,0,0,0-.152.628l-1.746-.006-.019-.038a1.883,1.883,0,0,1,.663-1.523A2.626,2.626,0,0,1,30.151-7a2.451,2.451,0,0,1,1.742.625,2.317,2.317,0,0,1,.67,1.781v2.78a6.016,6.016,0,0,0,.07.946A5.153,5.153,0,0,0,32.849,0ZM29.885-1.225a.929.929,0,0,0,.5-.146,1.084,1.084,0,0,0,.365-.375V-3.009h-.679a.657.657,0,0,0-.6.286A1.312,1.312,0,0,0,29.294-2a.919.919,0,0,0,.159.559A.507.507,0,0,0,29.885-1.225ZM34.112,0V-5.561h-.844V-6.868h.844V-7.63a2.478,2.478,0,0,1,.6-1.781,2.206,2.206,0,0,1,1.676-.625A2.566,2.566,0,0,1,36.8-10q.209.035.482.1l-.152,1.372q-.127-.025-.244-.044a1.748,1.748,0,0,0-.276-.019.6.6,0,0,0-.521.249,1.211,1.211,0,0,0-.178.71v.767h1.1v1.308h-1.1V0Zm5.643,0H37.946V-6.868h1.809Zm-.7-9.414h1.9l.019.038-1.581,1.65-1.454,0Zm4.526,8.106a.63.63,0,0,0,.555-.273,1.387,1.387,0,0,0,.187-.787h1.638l.019.038a2.353,2.353,0,0,1-.663,1.771,2.335,2.335,0,0,1-1.736.692,2.5,2.5,0,0,1-2.047-.87,3.426,3.426,0,0,1-.714-2.247v-.882a3.465,3.465,0,0,1,.711-2.25A2.469,2.469,0,0,1,43.564-7a2.288,2.288,0,0,1,1.774.717,2.69,2.69,0,0,1,.638,1.936l-.013.032H44.319a1.876,1.876,0,0,0-.187-.9.609.609,0,0,0-.568-.341.743.743,0,0,0-.743.458,3.072,3.072,0,0,0-.2,1.227v.884a3.036,3.036,0,0,0,.2,1.233A.755.755,0,0,0,43.577-1.308ZM46.63-3.853a3.415,3.415,0,0,1,.733-2.263A2.526,2.526,0,0,1,49.417-7a2.536,2.536,0,0,1,2.057.879,3.4,3.4,0,0,1,.736,2.263V-3a3.387,3.387,0,0,1-.736,2.266,2.541,2.541,0,0,1-2.05.87,2.546,2.546,0,0,1-2.06-.87A3.4,3.4,0,0,1,46.63-3Zm1.8.848a2.867,2.867,0,0,0,.222,1.246.791.791,0,0,0,.774.451.782.782,0,0,0,.759-.455,2.835,2.835,0,0,0,.225-1.243v-.852a2.843,2.843,0,0,0-.225-1.237.785.785,0,0,0-.765-.461.785.785,0,0,0-.765.464,2.847,2.847,0,0,0-.225,1.233Z" transform="translate(611 484)" fill="#fff"/><g transform="translate(577 388.903)"><path d="M66.485,9.015H62.19L61.977,5.6V3.381A3.381,3.381,0,0,0,58.6,0H54.089a3.381,3.381,0,0,0-3.381,3.381V5.6L50.5,9.015H39.653L39.44,5.6V3.381A3.381,3.381,0,0,0,36.06,0H31.552a3.381,3.381,0,0,0-3.381,3.381V5.6l-.213,3.416H17.116L16.9,5.6V3.381A3.381,3.381,0,0,0,13.522,0H9.015A3.381,3.381,0,0,0,5.634,3.381V5.6L5.421,9.015H1.127A1.127,1.127,0,0,0,0,10.142V66.485a1.127,1.127,0,0,0,1.127,1.127H66.485a1.127,1.127,0,0,0,1.127-1.127V10.142A1.127,1.127,0,0,0,66.485,9.015ZM52.962,3.381a1.127,1.127,0,0,1,1.127-1.127H58.6a1.127,1.127,0,0,1,1.127,1.127V4.507H52.962ZM51.778,24.02a1.127,1.127,0,0,0,.057-.285L52.894,6.761h6.9L60.85,23.735a1.13,1.13,0,0,0,.055.285l1.011,3.024H50.77ZM50.355,11.269l-.762,12.179-1.2,3.6H41.755l-1.127-3.381h1.066a4.507,4.507,0,0,0,0-9.015H40l-.212-3.381ZM40.428,21.41,40.147,16.9h1.547a2.254,2.254,0,1,1,0,4.507Zm-10-18.03a1.127,1.127,0,0,1,1.127-1.127H36.06a1.127,1.127,0,0,1,1.127,1.127V4.507H30.425ZM29.241,24.02a1.126,1.126,0,0,0,.057-.285L30.356,6.761h6.9l1.058,16.974a1.13,1.13,0,0,0,.055.285l1.011,3.024H28.232ZM27.818,11.269l-.21,3.381h-1.69a4.507,4.507,0,0,0,0,9.015h1.066l-1.127,3.381H19.217l-1.2-3.6-.762-12.179ZM27.465,16.9l-.282,4.507H25.918a2.254,2.254,0,0,1,0-4.507ZM7.888,3.381A1.127,1.127,0,0,1,9.015,2.254h4.507a1.127,1.127,0,0,1,1.127,1.127V4.507H7.888ZM6.7,24.02a1.126,1.126,0,0,0,.057-.285L7.819,6.761h6.9l1.058,16.974a1.13,1.13,0,0,0,.055.285l1.014,3.024H5.7ZM2.254,11.269H5.28L4.519,23.448l-1.2,3.6H2.254Zm63.1,54.089H2.254V29.3h63.1Zm0-38.313H64.292l-1.2-3.6-.762-12.179h3.027Z" fill="#fff"/><g transform="translate(10.142 33.806)"><path d="M95.664,240C83.9,240,72,242.7,72,247.888s11.9,7.888,23.664,7.888,23.664-2.7,23.664-7.888S107.424,240,95.664,240Zm0,13.522c-13.265,0-21.41-3.281-21.41-5.634s8.145-5.634,21.41-5.634,21.41,3.281,21.41,5.634S108.929,253.522,95.664,253.522Z" transform="translate(-72 -240)" fill="#fff"/></g></g></g></g></svg>