<svg xmlns="http://www.w3.org/2000/svg" xmlns:xlink="http://www.w3.org/1999/xlink" width="160" height="190" viewBox="0 0 160 190"><defs><clipPath id="b"><rect width="160" height="190"/></clipPath></defs><g id="a" clip-path="url(#b)"><g transform="translate(-3738 -12.66)"><rect width="128" height="155" rx="14" transform="translate(3754 30.66)" fill="none" opacity="0.93"/><path d="M-22.385-1.441h3.377V0h-5.186V-9.242h1.809ZM-16.336,0h-1.8V-6.868h1.8Zm0-8.525h-1.8V-9.9h1.8Zm2.907,1.657.076.946a2.289,2.289,0,0,1,.7-.79A1.6,1.6,0,0,1-11.734-7a1.591,1.591,0,0,1,1.349.66,3.5,3.5,0,0,1,.492,2.076V0H-11.7V-4.264a1.842,1.842,0,0,0-.2-1,.7.7,0,0,0-.619-.289.822.822,0,0,0-.444.127,1.083,1.083,0,0,0-.343.349V0h-1.8V-6.868Zm7.338,7A2.623,2.623,0,0,1-8.147-.717a3.1,3.1,0,0,1-.762-2.146v-.965A3.545,3.545,0,0,1-8.2-6.106,2.365,2.365,0,0,1-6.243-7a2.276,2.276,0,0,1,1.866.806,3.366,3.366,0,0,1,.66,2.2v1.1h-3.4v.025A1.9,1.9,0,0,0-6.8-1.746a1.061,1.061,0,0,0,.93.438,2.482,2.482,0,0,0,.825-.114A4.341,4.341,0,0,0-4.294-1.8l.457,1.149a2.723,2.723,0,0,1-.949.565A3.694,3.694,0,0,1-6.091.133Zm-.152-5.687a.67.67,0,0,0-.635.4,2.564,2.564,0,0,0-.229,1.065h1.619v-.255a1.831,1.831,0,0,0-.178-.889A.612.612,0,0,0-6.243-5.554ZM.536,0A3.082,3.082,0,0,1,.4-.375,3.057,3.057,0,0,1,.308-.787a2.147,2.147,0,0,1-.619.67,1.46,1.46,0,0,1-.847.251A1.756,1.756,0,0,1-2.52-.425a2.124,2.124,0,0,1-.511-1.492A1.955,1.955,0,0,1-2.38-3.485,2.9,2.9,0,0,1-.448-4.043H.232V-4.6a1.381,1.381,0,0,0-.181-.771.61.61,0,0,0-.543-.27.523.523,0,0,0-.457.216A1.085,1.085,0,0,0-1.1-4.8l-1.746-.006-.019-.038A1.883,1.883,0,0,1-2.2-6.367,2.626,2.626,0,0,1-.371-7a2.451,2.451,0,0,1,1.742.625,2.317,2.317,0,0,1,.67,1.781v2.78a6.017,6.017,0,0,0,.07.946A5.153,5.153,0,0,0,2.326,0ZM-.638-1.225a.929.929,0,0,0,.5-.146,1.084,1.084,0,0,0,.365-.375V-3.009H-.448a.657.657,0,0,0-.6.286A1.312,1.312,0,0,0-1.228-2a.919.919,0,0,0,.159.559A.507.507,0,0,0-.638-1.225ZM8.934-2.361,9-2.006h.038l.07-.336,1.542-6.9h1.9L9.969,0H8.09L5.507-9.242H7.4ZM15.085,0h-1.8V-6.868h1.8Zm0-8.525h-1.8V-9.9h1.8ZM19.687,0a3.082,3.082,0,0,1-.136-.375,3.057,3.057,0,0,1-.092-.413,2.147,2.147,0,0,1-.619.67,1.46,1.46,0,0,1-.847.251,1.756,1.756,0,0,1-1.362-.559,2.124,2.124,0,0,1-.511-1.492,1.955,1.955,0,0,1,.651-1.568A2.9,2.9,0,0,1,18.7-4.043h.679V-4.6a1.381,1.381,0,0,0-.181-.771.61.61,0,0,0-.543-.27.523.523,0,0,0-.457.216,1.085,1.085,0,0,0-.152.628L16.3-4.805l-.019-.038a1.883,1.883,0,0,1,.663-1.523A2.626,2.626,0,0,1,18.78-7a2.451,2.451,0,0,1,1.742.625,2.317,2.317,0,0,1,.67,1.781v2.78a6.017,6.017,0,0,0,.07.946A5.153,5.153,0,0,0,21.477,0ZM18.513-1.225a.929.929,0,0,0,.5-.146,1.084,1.084,0,0,0,.365-.375V-3.009H18.7a.657.657,0,0,0-.6.286A1.312,1.312,0,0,0,17.923-2a.919.919,0,0,0,.159.559A.507.507,0,0,0,18.513-1.225ZM24.219,0h-1.8V-9.9h1.8Z" transform="translate(3818 168)" fill="#5e5b5c"/><g transform="translate(3718.2 73.695)"><g transform="translate(75.8 -1)"><path d="M118.426,57.331h-.208l-2.562-11.056a.838.838,0,0,0-.035-.386l-2.58-11.217a1.154,1.154,0,0,0-.17-.416l-2.393-10.328a.839.839,0,0,0-.017-.473l-2.58-11.217a1.133,1.133,0,0,0-.225-.491L105.3,1.58A3.367,3.367,0,0,0,102.049-1H96.664a3.367,3.367,0,0,0-3.253,2.58L80.495,57.331h-.208a4.487,4.487,0,1,0,0,8.974h38.139a4.487,4.487,0,0,0,0-8.974Zm-5.384-12.339H85.7l.87-3.788L87.8,36.018H111.02l.095.409ZM92.963,13.583h12.859l1.418,6.119.642,2.855H90.854l.656-2.855ZM90.338,24.8h18.082l2.079,8.974H88.277Zm5.2-22.659a1.092,1.092,0,0,1,1.122-.9h5.384a1.092,1.092,0,0,1,1.122.9l2.131,9.2H93.43ZM85.186,47.235h28.433l2.339,10.1H82.867Zm33.241,16.826H80.287a2.244,2.244,0,1,1,0-4.487h38.139a2.244,2.244,0,0,1,0,4.487Z" transform="translate(-75.8 1)" fill="#5e5b5c"/></g></g></g></g></svg>