<svg xmlns="http://www.w3.org/2000/svg" xmlns:xlink="http://www.w3.org/1999/xlink" width="160" height="190" viewBox="0 0 160 190"><defs><clipPath id="b"><rect width="160" height="190"/></clipPath></defs><g id="a" clip-path="url(#b)"><path d="M14,0H114a14,14,0,0,1,14,14V141a14,14,0,0,1-14,14H14A14,14,0,0,1,0,141V14A14,14,0,0,1,14,0Z" transform="translate(16 18)" fill="none" opacity="0.93"/><path d="M-24.051-3.32V0H-25.86V-9.242h3.212a2.914,2.914,0,0,1,2.184.818,2.935,2.935,0,0,1,.8,2.143,2.926,2.926,0,0,1-.8,2.146,2.922,2.922,0,0,1-2.18.815Zm0-1.441h1.4a1.017,1.017,0,0,0,.882-.426,1.814,1.814,0,0,0,.3-1.081,1.884,1.884,0,0,0-.3-1.1,1.008,1.008,0,0,0-.885-.436h-1.4Zm8.671-.463-.679-.019a.769.769,0,0,0-.473.14.887.887,0,0,0-.289.394V0h-1.8V-6.868h1.682l.07.92.032.013a1.873,1.873,0,0,1,.46-.778A.965.965,0,0,1-15.691-7a1.6,1.6,0,0,1,.257.022,1.746,1.746,0,0,1,.238.054ZM-11.915.133a2.623,2.623,0,0,1-2.057-.851,3.1,3.1,0,0,1-.762-2.146v-.965a3.545,3.545,0,0,1,.708-2.279A2.365,2.365,0,0,1-12.067-7a2.276,2.276,0,0,1,1.866.806,3.366,3.366,0,0,1,.66,2.2v1.1h-3.4v.025a1.9,1.9,0,0,0,.308,1.117,1.061,1.061,0,0,0,.93.438,2.482,2.482,0,0,0,.825-.114,4.341,4.341,0,0,0,.755-.381l.457,1.149a2.723,2.723,0,0,1-.949.565A3.694,3.694,0,0,1-11.915.133Zm-.152-5.687a.67.67,0,0,0-.635.4,2.564,2.564,0,0,0-.229,1.065h1.619v-.255a1.831,1.831,0,0,0-.178-.889A.612.612,0,0,0-12.067-5.554ZM-8.227,0V-5.561h-.844V-6.868h.844V-7.63a2.478,2.478,0,0,1,.6-1.781,2.206,2.206,0,0,1,1.676-.625A2.566,2.566,0,0,1-5.535-10q.209.035.482.1l-.152,1.372q-.127-.025-.244-.044a1.748,1.748,0,0,0-.276-.019.6.6,0,0,0-.521.249,1.211,1.211,0,0,0-.178.71v.767h1.1v1.308h-1.1V0Zm3.485-3.853a3.415,3.415,0,0,1,.733-2.263A2.526,2.526,0,0,1-1.955-7,2.536,2.536,0,0,1,.1-6.116,3.4,3.4,0,0,1,.838-3.853V-3A3.387,3.387,0,0,1,.1-.736a2.541,2.541,0,0,1-2.05.87,2.546,2.546,0,0,1-2.06-.87A3.4,3.4,0,0,1-4.742-3Zm1.8.848a2.867,2.867,0,0,0,.222,1.246.791.791,0,0,0,.774.451.782.782,0,0,0,.759-.455A2.835,2.835,0,0,0-.965-3.005v-.852A2.843,2.843,0,0,0-1.19-5.093a.785.785,0,0,0-.765-.461.785.785,0,0,0-.765.464,2.847,2.847,0,0,0-.225,1.233ZM5.034-5.224l-.679-.019a.769.769,0,0,0-.473.14.887.887,0,0,0-.289.394V0H1.79V-6.868H3.472l.07.92.032.013a1.873,1.873,0,0,1,.46-.778A.965.965,0,0,1,4.723-7a1.6,1.6,0,0,1,.257.022,1.746,1.746,0,0,1,.238.054Zm2.6-1.644.07.876a2.046,2.046,0,0,1,.686-.743A1.735,1.735,0,0,1,9.337-7a1.523,1.523,0,0,1,.908.276,1.7,1.7,0,0,1,.59.841,2.151,2.151,0,0,1,.686-.825A1.667,1.667,0,0,1,12.5-7a1.555,1.555,0,0,1,1.343.7,3.757,3.757,0,0,1,.492,2.142V0H12.524V-4.156a2.434,2.434,0,0,0-.171-1.1.571.571,0,0,0-.533-.3.751.751,0,0,0-.463.153,1.161,1.161,0,0,0-.336.419q.006.121.013.238t.006.245V0h-1.8V-4.156a2.4,2.4,0,0,0-.175-1.093.582.582,0,0,0-.543-.305.8.8,0,0,0-.441.124,1.09,1.09,0,0,0-.333.346V0h-1.8V-6.868ZM18.859,0a3.082,3.082,0,0,1-.136-.375,3.057,3.057,0,0,1-.092-.413,2.147,2.147,0,0,1-.619.67,1.46,1.46,0,0,1-.847.251A1.756,1.756,0,0,1,15.8-.425a2.124,2.124,0,0,1-.511-1.492,1.955,1.955,0,0,1,.651-1.568,2.9,2.9,0,0,1,1.933-.559h.679V-4.6a1.381,1.381,0,0,0-.181-.771.61.61,0,0,0-.543-.27.523.523,0,0,0-.457.216,1.085,1.085,0,0,0-.152.628l-1.746-.006-.019-.038a1.883,1.883,0,0,1,.663-1.523A2.626,2.626,0,0,1,17.951-7a2.451,2.451,0,0,1,1.742.625,2.317,2.317,0,0,1,.67,1.781v2.78a6.017,6.017,0,0,0,.07.946A5.153,5.153,0,0,0,20.649,0ZM17.685-1.225a.929.929,0,0,0,.5-.146,1.084,1.084,0,0,0,.365-.375V-3.009h-.679a.657.657,0,0,0-.6.286A1.312,1.312,0,0,0,17.094-2a.919.919,0,0,0,.159.559A.507.507,0,0,0,17.685-1.225ZM24.5-1.8a.667.667,0,0,0-.229-.5,3.847,3.847,0,0,0-.876-.524A4.619,4.619,0,0,1,21.839-3.7a1.667,1.667,0,0,1-.517-1.27A1.854,1.854,0,0,1,21.985-6.4,2.533,2.533,0,0,1,23.74-7a2.626,2.626,0,0,1,1.822.609,1.922,1.922,0,0,1,.654,1.555l-.019.038H24.458a1.176,1.176,0,0,0-.178-.686.621.621,0,0,0-.546-.254.685.685,0,0,0-.5.2.638.638,0,0,0-.2.476.638.638,0,0,0,.2.492,4.091,4.091,0,0,0,.882.511,4.278,4.278,0,0,1,1.6.873,1.76,1.76,0,0,1,.521,1.323,1.756,1.756,0,0,1-.7,1.435,2.849,2.849,0,0,1-1.834.559A2.539,2.539,0,0,1,21.83-.559a2.043,2.043,0,0,1-.66-1.562l.013-.038h1.65a1.12,1.12,0,0,0,.254.787.9.9,0,0,0,.667.241.781.781,0,0,0,.552-.178A.636.636,0,0,0,24.5-1.8Z" transform="translate(80 155.34)" fill="#5e5b5c"/><g transform="translate(-2149.003 -5780.021)"><path d="M2238.418,5839.478v-7.633c0-2.555-3.918-4.483-9.115-4.483s-9.115,1.928-9.115,4.483v7.633a4.226,4.226,0,0,0-2.186,3.41,4.007,4.007,0,0,0,1.769,3.085v50.769a9.531,9.531,0,0,0,19.062,0v-50.769a4.006,4.006,0,0,0,1.769-3.085A4.226,4.226,0,0,0,2238.418,5839.478Zm-14.688-9.532a15.774,15.774,0,0,1,11.147,0c1.236.549,1.975,1.259,1.975,1.9a1.556,1.556,0,0,1-.648,1.1,16.656,16.656,0,0,0-13.8,0,1.556,1.556,0,0,1-.648-1.1C2221.754,5831.2,2222.492,5830.495,2223.729,5829.945Zm10.813,3.94a16.118,16.118,0,1,1-5.24-.875A14.69,14.69,0,0,1,2234.543,5833.885Zm-12.789.542a15.939,15.939,0,0,0,15.1,0v4.056c0,.87-.753,1.761-2.067,2.445a13.515,13.515,0,0,1-10.963,0c-1.314-.684-2.067-1.575-2.067-2.445Zm14.5,7.438c-1.124,1.243-3.73,2-6.95,2s-5.826-.759-6.95-2a14.387,14.387,0,0,0,13.9,0Zm1.015,54.876a7.965,7.965,0,1,1-15.93,0v-49.8a20.514,20.514,0,0,0,15.93,0Zm-.858-51.111a19.275,19.275,0,0,1-14.213,0c-1.67-.776-2.627-1.775-2.627-2.743a2.2,2.2,0,0,1,.751-1.507c.7,2.465,4.209,4.054,8.982,4.054s8.282-1.589,8.983-4.054a2.2,2.2,0,0,1,.751,1.507C2239.037,5843.854,2238.079,5844.854,2236.41,5845.63Z" fill="#5e5b5c"/><path d="M2267.7,5901.475a11,11,0,0,0,4.886,0c1.282-.235,2.122-.449,2.122-1.241v-1.064h-1.566v.583a10.653,10.653,0,0,1-6,0v-.583h-1.566v1.064C2265.574,5901.026,2266.414,5901.24,2267.7,5901.475Z" transform="translate(-40.836 -61.643)" fill="#5e5b5c"/><path d="M2247.547,5976.4l-.08-.045v48.174a6.944,6.944,0,0,0,1.764,4.134l.091.1v-51.8l-.047-.005A5.031,5.031,0,0,1,2247.547,5976.4Z" transform="translate(-25.293 -127.897)" fill="#5e5b5c"/></g></g></svg>