<svg xmlns="http://www.w3.org/2000/svg" xmlns:xlink="http://www.w3.org/1999/xlink" width="160" height="190" viewBox="0 0 160 190"><defs><filter id="a" x="-2" y="2" width="164" height="191" filterUnits="userSpaceOnUse"><feOffset dy="2" input="SourceAlpha"/><feGaussianBlur stdDeviation="6" result="b"/><feFlood flood-color="#44d62c" flood-opacity="0.651"/><feComposite operator="in" in2="b"/><feComposite in="SourceGraphic"/></filter><clipPath id="d"><rect width="160" height="190"/></clipPath></defs><g id="c" clip-path="url(#d)"><g transform="translate(-369 -328.66)"><g transform="matrix(1, 0, 0, 1, 369, 328.66)" filter="url(#a)"><g transform="translate(16 18)" fill="#44d62c" stroke="#fff" stroke-width="1" opacity="0.93"><rect width="128" height="155" rx="14" stroke="none"/><rect x="0.5" y="0.5" width="127" height="154" rx="13.5" fill="none"/></g></g><path d="M-8.626-7.8h-2.082V0h-1.8V-7.8h-2.069V-9.242h5.954ZM-5.243,0A3.082,3.082,0,0,1-5.38-.375a3.057,3.057,0,0,1-.092-.413,2.147,2.147,0,0,1-.619.67,1.46,1.46,0,0,1-.847.251A1.756,1.756,0,0,1-8.3-.425a2.124,2.124,0,0,1-.511-1.492A1.955,1.955,0,0,1-8.16-3.485a2.9,2.9,0,0,1,1.933-.559h.679V-4.6a1.381,1.381,0,0,0-.181-.771.61.61,0,0,0-.543-.27.523.523,0,0,0-.457.216,1.085,1.085,0,0,0-.152.628l-1.746-.006-.019-.038a1.883,1.883,0,0,1,.663-1.523A2.626,2.626,0,0,1-6.151-7a2.451,2.451,0,0,1,1.742.625,2.317,2.317,0,0,1,.67,1.781v2.78a6.017,6.017,0,0,0,.07.946A5.153,5.153,0,0,0-3.453,0ZM-6.417-1.225a.929.929,0,0,0,.5-.146,1.084,1.084,0,0,0,.365-.375V-3.009h-.679a.657.657,0,0,0-.6.286A1.312,1.312,0,0,0-7.008-2a.919.919,0,0,0,.159.559A.507.507,0,0,0-6.417-1.225Zm9.2-1.682A3.714,3.714,0,0,1,2.19-.7,1.935,1.935,0,0,1,.521.133,1.607,1.607,0,0,1-.225-.035a1.623,1.623,0,0,1-.568-.5V2.641H-2.6V-6.868H-.927l.063.679a1.863,1.863,0,0,1,.587-.6A1.463,1.463,0,0,1,.508-7,1.909,1.909,0,0,1,2.19-6.1a4.162,4.162,0,0,1,.6,2.352Zm-1.8-.848A3.138,3.138,0,0,0,.755-5.062a.753.753,0,0,0-.717-.493.857.857,0,0,0-.5.143,1.012,1.012,0,0,0-.336.4v3.242a.854.854,0,0,0,.333.343,1.027,1.027,0,0,0,.5.114.75.75,0,0,0,.72-.426A2.605,2.605,0,0,0,.984-2.91ZM7.065,0a3.082,3.082,0,0,1-.136-.375,3.057,3.057,0,0,1-.092-.413,2.147,2.147,0,0,1-.619.67A1.46,1.46,0,0,1,5.37.133,1.756,1.756,0,0,1,4.009-.425,2.124,2.124,0,0,1,3.5-1.917a1.955,1.955,0,0,1,.651-1.568,2.9,2.9,0,0,1,1.933-.559H6.76V-4.6a1.381,1.381,0,0,0-.181-.771.61.61,0,0,0-.543-.27.523.523,0,0,0-.457.216,1.085,1.085,0,0,0-.152.628L3.682-4.805l-.019-.038a1.883,1.883,0,0,1,.663-1.523A2.626,2.626,0,0,1,6.157-7,2.451,2.451,0,0,1,7.9-6.37a2.317,2.317,0,0,1,.67,1.781v2.78a6.016,6.016,0,0,0,.07.946A5.153,5.153,0,0,0,8.855,0ZM5.891-1.225a.929.929,0,0,0,.5-.146,1.084,1.084,0,0,0,.365-.375V-3.009H6.081a.657.657,0,0,0-.6.286A1.312,1.312,0,0,0,5.3-2a.919.919,0,0,0,.159.559A.507.507,0,0,0,5.891-1.225ZM12.7-1.8a.667.667,0,0,0-.229-.5,3.847,3.847,0,0,0-.876-.524A4.619,4.619,0,0,1,10.045-3.7a1.667,1.667,0,0,1-.517-1.27A1.854,1.854,0,0,1,10.191-6.4,2.533,2.533,0,0,1,11.946-7a2.626,2.626,0,0,1,1.822.609,1.922,1.922,0,0,1,.654,1.555l-.019.038H12.664a1.176,1.176,0,0,0-.178-.686.621.621,0,0,0-.546-.254.685.685,0,0,0-.5.2.638.638,0,0,0-.2.476.638.638,0,0,0,.2.492,4.091,4.091,0,0,0,.882.511,4.278,4.278,0,0,1,1.6.873,1.76,1.76,0,0,1,.521,1.323,1.756,1.756,0,0,1-.7,1.435,2.849,2.849,0,0,1-1.834.559,2.539,2.539,0,0,1-1.879-.692,2.043,2.043,0,0,1-.66-1.562l.013-.038h1.65a1.12,1.12,0,0,0,.254.787.9.9,0,0,0,.667.241.781.781,0,0,0,.552-.178A.636.636,0,0,0,12.7-1.8Z" transform="translate(449 484)" fill="#fff"/><g transform="translate(-4448.91 -5549.844)"><path d="M4899.1,5988.206l-.014,0-.528-11.939.014-.061-.017,0-.33-7.464-.085,0c-.473-3.878-2.906-7.464-6.974-10.215a31.986,31.986,0,0,0-33.3,0c-4.067,2.751-6.5,6.337-6.973,10.215l-.086,0-.331,7.464-.016,0c0,.009.006.03.013.061l-.561,12.662v.035c0,4.569,2.6,8.843,7.323,12.035a33.22,33.22,0,0,0,34.567,0c4.722-3.191,7.322-7.465,7.322-12.035l-.031-.707C4899.1,5988.23,4899.1,5988.212,4899.1,5988.206Zm-5.847-6.167c-4.1,4.043-10.583,6.181-18.739,6.181s-14.635-2.138-18.738-6.181a14.4,14.4,0,0,1-3.728-5.933l.029-.657a16.82,16.82,0,0,0,5.785,6.3,31.983,31.983,0,0,0,33.3,0,16.812,16.812,0,0,0,5.785-6.3l.029.657A14.383,14.383,0,0,1,4893.255,5982.039Zm-37.385,2.195a20.225,20.225,0,0,0,2.972,2.037v11.047a19.265,19.265,0,0,1-2.972-2.384Zm4.542,2.841q.729.338,1.5.637.719.278,1.475.517v11.338c-.308-.112-.611-.226-.909-.348a22.594,22.594,0,0,1-2.063-.971Zm4.542,1.6q1.431.367,2.972.615v11.483a28.893,28.893,0,0,1-2.972-.7Zm4.542.831q1.443.168,2.971.234v11.54q-1.529-.075-2.971-.263Zm4.542.275c.16,0,.318,0,.479,0q1.356,0,2.651-.074v11.536q-1.295.083-2.651.084c-.161,0-.319,0-.479,0Zm4.7-.19q1.533-.146,2.972-.4v11.472q-1.436.289-2.972.454Zm4.542-.722a28.871,28.871,0,0,0,2.972-.845v11.313a25.767,25.767,0,0,1-2.972.962Zm4.542-1.444a22.607,22.607,0,0,0,2.972-1.512v11a20.989,20.989,0,0,1-2.972,1.738Zm4.542-2.567a18.849,18.849,0,0,0,2.073-1.783q.485-.484.9-.965v10.29a18.147,18.147,0,0,1-1.754,2.127q-.58.6-1.218,1.157Zm5.15,3.211a12.538,12.538,0,0,1-.608,1.6v-9.682c.082-.131.159-.26.233-.387Zm-23-32.657c12.209,0,22.142,6.6,22.142,14.722s-9.933,14.722-22.142,14.722-22.142-6.6-22.142-14.722S4862.307,5955.416,4874.516,5955.416Zm-20.216,27.36v10.4a15.638,15.638,0,0,1-2.774-5.222l.369-8.35A17.084,17.084,0,0,0,4854.3,5982.776Zm20.216,21.5c-10.458,0-19.31-4.658-22.111-11.017a19.652,19.652,0,0,0,1.934,2.361,21.744,21.744,0,0,0,7.477,5.026,36.806,36.806,0,0,0,25.407,0,21.821,21.821,0,0,0,7.49-5.025,19.664,19.664,0,0,0,1.868-2.258C4893.729,5999.667,4884.917,6004.274,4874.516,6004.274Z" fill="#fff"/><path d="M5304.569,5983.282c0-.012.005-.021.006-.025l-.007,0-.451-10.186c0-.019.008-.033.009-.039l-.011,0-.283-6.388-.073,0c-.4-3.34-2.495-6.427-5.991-8.792a27.357,27.357,0,0,0-28.5,0c-3.5,2.365-5.587,5.452-5.991,8.792l-.073,0-.283,6.388-.01,0c0,.006,0,.02.008.038l-.477,10.77v.035c0,3.932,2.233,7.607,6.289,10.348a28.414,28.414,0,0,0,29.574,0c4.055-2.741,6.288-6.416,6.288-10.348Zm-5.109-5.447c-3.471,3.462-8.983,5.292-15.941,5.292-6.907,0-12.395-1.806-15.869-5.222a12.053,12.053,0,0,1-3.15-5.006l0-.1a14.687,14.687,0,0,0,4.765,5.028,27.36,27.36,0,0,0,28.5,0,14.683,14.683,0,0,0,4.765-5.028l0,.1A11.893,11.893,0,0,1,5299.46,5977.834Zm-32.037,1.986a16.984,16.984,0,0,0,2.36,1.669v9.1a15.852,15.852,0,0,1-2.338-1.983l-.022-.023Zm3.93,2.5a21.484,21.484,0,0,0,2.214.89v9.388a19.157,19.157,0,0,1-2.214-1.033Zm3.784,1.364c.707.188,1.416.346,2.119.475v9.531q-1.095-.23-2.119-.544Zm3.689.721c.791.1,1.567.175,2.321.222v9.594q-1.192-.083-2.321-.25Zm3.891.286c.271.005.54.009.8.009.6,0,1.228-.014,1.874-.046v9.6q-.919.05-1.874.05c-.269,0-.536,0-.8-.01Zm4.246-.147c.709-.066,1.433-.155,2.167-.273v9.548q-1.054.193-2.167.309Zm3.736-.569c.789-.172,1.58-.38,2.364-.631v9.412a22.575,22.575,0,0,1-2.364.726Zm3.934-1.2a19.816,19.816,0,0,0,2.211-1.05v9.147a18.1,18.1,0,0,1-2.211,1.227Zm3.781-2.03a16.2,16.2,0,0,0,1.918-1.571v8.636c-.2.242-.423.486-.657.73a15.692,15.692,0,0,1-1.261,1.173Zm4.577,2.36a12.043,12.043,0,0,1-1.089,2.464v-8.142c.3-.39.561-.771.787-1.135Zm-19.471-27.688c10.336,0,18.745,5.573,18.745,12.424s-8.409,12.423-18.745,12.423-18.744-5.573-18.744-12.423S5273.184,5955.416,5283.519,5955.416Zm-17.666,22.876v8.369a12.877,12.877,0,0,1-1.8-3.664l.3-6.706A14.694,14.694,0,0,0,5265.854,5978.292Zm17.666,18.508c-8.185,0-15.207-3.359-18.1-8.106.254.308.528.619.826.93,4.939,5.16,12.118,6.243,17.271,6.243s12.334-1.083,17.288-6.243c.268-.279.518-.559.751-.836C5298.633,5993.486,5291.649,5996.8,5283.519,5996.8Z" transform="translate(-358.565)" fill="#fff"/></g></g></g></svg>