<svg xmlns="http://www.w3.org/2000/svg" xmlns:xlink="http://www.w3.org/1999/xlink" width="288" height="388" viewBox="0 0 288 388"><defs><clipPath id="b"><rect width="288" height="388"/></clipPath></defs><g id="a" clip-path="url(#b)"><g transform="translate(-155 -1627.66)"><g transform="translate(167 1640.66)" fill="#fff" stroke="#00ff4e" stroke-width="1" opacity="0.7"><rect width="264" height="362" rx="39" stroke="none"/><rect x="0.5" y="0.5" width="263" height="361" rx="38.5" fill="none"/></g><path d="M-41.9-27.727l4.97,20.357h.114l5.027-20.357h7.065V0h-5.389V-8.055l.457-10.778-.114-.019L-35.068,0h-3.6L-43.9-18.7l-.114.019.476,10.626V0h-5.389V-27.727ZM-15.32,0h-5.408V-20.6h5.408Zm0-25.575h-5.408v-4.132h5.408ZM-2.58-5.389A2,2,0,0,0-3.266-6.9,11.54,11.54,0,0,0-5.894-8.474,13.856,13.856,0,0,1-10.55-11.1,5,5,0,0,1-12.1-14.911a5.561,5.561,0,0,1,1.99-4.294,7.6,7.6,0,0,1,5.265-1.781A7.879,7.879,0,0,1,.619-19.157,5.766,5.766,0,0,1,2.58-14.492l-.057.114H-2.695a3.527,3.527,0,0,0-.533-2.057A1.863,1.863,0,0,0-4.865-17.2a2.055,2.055,0,0,0-1.485.59,1.915,1.915,0,0,0-.609,1.428A1.913,1.913,0,0,0-6.351-13.7,12.274,12.274,0,0,0-3.7-12.168a12.833,12.833,0,0,1,4.8,2.618A5.28,5.28,0,0,1,2.656-5.58a5.267,5.267,0,0,1-2.095,4.3A8.546,8.546,0,0,1-4.942.4a7.617,7.617,0,0,1-5.637-2.076,6.129,6.129,0,0,1-1.98-4.685l.038-.114H-7.57a3.361,3.361,0,0,0,.762,2.361,2.7,2.7,0,0,0,2,.724,2.342,2.342,0,0,0,1.657-.533A1.908,1.908,0,0,0-2.58-5.389ZM11.016,0H5.608V-20.6h5.408Zm0-25.575H5.608v-4.132h5.408Zm3.123,14.016a10.244,10.244,0,0,1,2.2-6.789,7.579,7.579,0,0,1,6.16-2.637,7.607,7.607,0,0,1,6.17,2.637,10.215,10.215,0,0,1,2.209,6.789v2.552a10.16,10.16,0,0,1-2.209,6.8A7.623,7.623,0,0,1,22.518.4a7.639,7.639,0,0,1-6.179-2.609,10.189,10.189,0,0,1-2.2-6.8Zm5.389,2.544A8.6,8.6,0,0,0,20.2-5.277a2.374,2.374,0,0,0,2.323,1.354,2.345,2.345,0,0,0,2.276-1.364,8.506,8.506,0,0,0,.676-3.729V-11.57a8.529,8.529,0,0,0-.676-3.71A2.356,2.356,0,0,0,22.5-16.663,2.354,2.354,0,0,0,20.2-15.27a8.541,8.541,0,0,0-.676,3.7Zm3.542-19.626h5.694l.057.114L24.08-23.575l-4.361-.01ZM38.686-20.6l.229,2.837a6.866,6.866,0,0,1,2.1-2.371,4.791,4.791,0,0,1,2.752-.847A4.772,4.772,0,0,1,47.817-19q1.476,1.98,1.476,6.227V0H43.865V-12.792a5.526,5.526,0,0,0-.6-3,2.1,2.1,0,0,0-1.857-.867,2.465,2.465,0,0,0-1.333.381,3.249,3.249,0,0,0-1.028,1.048V0H33.639V-20.6Z" transform="translate(299 1743)" fill="#44d62c"/><path d="M2.184,10.344V14H.9V4.758H3.929a2.678,2.678,0,0,1,2.031.77A2.8,2.8,0,0,1,6.7,7.551,2.8,2.8,0,0,1,5.96,9.577a2.684,2.684,0,0,1-2.031.766Zm0-.978H3.929a1.281,1.281,0,0,0,1.1-.513,2.13,2.13,0,0,0,.375-1.29,2.194,2.194,0,0,0-.371-1.309,1.273,1.273,0,0,0-1.108-.519H2.184Zm8.7-1.149-.6-.032a.945.945,0,0,0-.663.241,1.527,1.527,0,0,0-.4.679V14H7.922V7.132H9.1l.1,1.035a2.183,2.183,0,0,1,.565-.854A1.183,1.183,0,0,1,10.563,7a1.582,1.582,0,0,1,.26.022.985.985,0,0,1,.209.054Zm.679,1.917a3.457,3.457,0,0,1,.714-2.247A2.383,2.383,0,0,1,14.231,7a2.389,2.389,0,0,1,1.955.879,3.444,3.444,0,0,1,.717,2.25v.876a3.439,3.439,0,0,1-.714,2.25,2.387,2.387,0,0,1-1.952.873,2.4,2.4,0,0,1-1.965-.873,3.439,3.439,0,0,1-.714-2.25ZM12.848,11a3.108,3.108,0,0,0,.343,1.546,1.2,1.2,0,0,0,2.079,0A3.085,3.085,0,0,0,15.615,11v-.878a3.074,3.074,0,0,0-.346-1.537,1.194,1.194,0,0,0-2.079,0,3.094,3.094,0,0,0-.343,1.54Zm7.179.932.108.533h.038l.108-.533,1.168-4.805h1.327L20.719,14H19.583L17.513,7.132h1.333Zm6.068,2.2a2.465,2.465,0,0,1-1.961-.851,3.207,3.207,0,0,1-.736-2.177v-1a3.382,3.382,0,0,1,.72-2.222A2.269,2.269,0,0,1,25.949,7a2.154,2.154,0,0,1,1.8.8,3.365,3.365,0,0,1,.628,2.142v.889H24.68v.273a2.58,2.58,0,0,0,.39,1.469,1.257,1.257,0,0,0,1.108.581,2.253,2.253,0,0,0,.914-.168,2.568,2.568,0,0,0,.724-.492l.406.8a2.4,2.4,0,0,1-.87.6A3.156,3.156,0,0,1,26.1,14.133Zm-.146-6.151a1.016,1.016,0,0,0-.9.546,2.854,2.854,0,0,0-.375,1.383H27.1V9.65a2.232,2.232,0,0,0-.292-1.2A.949.949,0,0,0,25.949,7.982ZM32,14.133a2.465,2.465,0,0,1-1.961-.851,3.207,3.207,0,0,1-.736-2.177v-1a3.382,3.382,0,0,1,.72-2.222A2.269,2.269,0,0,1,31.853,7a2.154,2.154,0,0,1,1.8.8,3.365,3.365,0,0,1,.628,2.142v.889H30.583v.273a2.58,2.58,0,0,0,.39,1.469,1.257,1.257,0,0,0,1.108.581A2.253,2.253,0,0,0,33,12.988a2.568,2.568,0,0,0,.724-.492l.406.8a2.4,2.4,0,0,1-.87.6A3.156,3.156,0,0,1,32,14.133Zm-.146-6.151a1.016,1.016,0,0,0-.9.546,2.854,2.854,0,0,0-.375,1.383H33V9.65a2.232,2.232,0,0,0-.292-1.2A.949.949,0,0,0,31.853,7.982Zm4.742-.851.07.933a2.117,2.117,0,0,1,.711-.784A1.832,1.832,0,0,1,38.384,7a1.54,1.54,0,0,1,.971.314,1.919,1.919,0,0,1,.616.955,2.334,2.334,0,0,1,.711-.933A1.7,1.7,0,0,1,41.736,7a1.6,1.6,0,0,1,1.381.72,3.847,3.847,0,0,1,.5,2.193V14H42.333V9.912a3.024,3.024,0,0,0-.26-1.479.845.845,0,0,0-.768-.425.94.94,0,0,0-.733.333,2.029,2.029,0,0,0-.428.885q-.006-.051.006.162t.013.308V14H38.879V9.912a2.973,2.973,0,0,0-.267-1.463.853.853,0,0,0-.774-.441,1.083,1.083,0,0,0-.692.225,1.461,1.461,0,0,0-.444.625V14H35.42V7.132Zm8.252,3a3.457,3.457,0,0,1,.714-2.247,2.614,2.614,0,0,1,3.913,0,3.444,3.444,0,0,1,.717,2.25v.876a3.439,3.439,0,0,1-.714,2.25,2.633,2.633,0,0,1-3.917,0,3.439,3.439,0,0,1-.714-2.25ZM46.135,11a3.108,3.108,0,0,0,.343,1.546,1.2,1.2,0,0,0,2.079,0A3.085,3.085,0,0,0,48.9,11v-.878a3.074,3.074,0,0,0-.346-1.537,1.194,1.194,0,0,0-2.079,0,3.094,3.094,0,0,0-.343,1.54Zm8.48,1.275a.943.943,0,0,0-.263-.676A3.349,3.349,0,0,0,53.358,11a5.1,5.1,0,0,1-1.571-.879,1.562,1.562,0,0,1-.511-1.209A1.739,1.739,0,0,1,51.9,7.56,2.379,2.379,0,0,1,53.542,7a2.344,2.344,0,0,1,1.688.6,1.9,1.9,0,0,1,.6,1.495l-.013.038H54.583a1.322,1.322,0,0,0-.276-.841.918.918,0,0,0-.765-.352,1.01,1.01,0,0,0-.752.273.883.883,0,0,0-.27.641.834.834,0,0,0,.232.622,4.167,4.167,0,0,0,1,.6,4.635,4.635,0,0,1,1.6.879,1.652,1.652,0,0,1,.524,1.26,1.709,1.709,0,0,1-.647,1.384,2.59,2.59,0,0,1-1.7.533,2.439,2.439,0,0,1-1.79-.644,1.943,1.943,0,0,1-.622-1.508l.013-.038h1.2a1.274,1.274,0,0,0,.368.962,1.258,1.258,0,0,0,.851.3,1.122,1.122,0,0,0,.784-.257A.856.856,0,0,0,54.615,12.28Zm8.487,0a.943.943,0,0,0-.263-.676A3.349,3.349,0,0,0,61.845,11a5.1,5.1,0,0,1-1.571-.879,1.562,1.562,0,0,1-.511-1.209,1.739,1.739,0,0,1,.625-1.349A2.379,2.379,0,0,1,62.029,7a2.344,2.344,0,0,1,1.688.6,1.9,1.9,0,0,1,.6,1.495l-.013.038H63.07a1.322,1.322,0,0,0-.276-.841.918.918,0,0,0-.765-.352,1.01,1.01,0,0,0-.752.273.883.883,0,0,0-.27.641.834.834,0,0,0,.232.622,4.167,4.167,0,0,0,1,.6,4.635,4.635,0,0,1,1.6.879,1.652,1.652,0,0,1,.524,1.26,1.709,1.709,0,0,1-.647,1.384,2.59,2.59,0,0,1-1.7.533,2.439,2.439,0,0,1-1.79-.644,1.943,1.943,0,0,1-.622-1.508l.013-.038h1.2a1.274,1.274,0,0,0,.368.962,1.258,1.258,0,0,0,.851.3,1.122,1.122,0,0,0,.784-.257A.856.856,0,0,0,63.1,12.28Zm2.2-2.146a3.457,3.457,0,0,1,.714-2.247,2.614,2.614,0,0,1,3.913,0,3.444,3.444,0,0,1,.717,2.25v.876a3.439,3.439,0,0,1-.714,2.25,2.633,2.633,0,0,1-3.917,0,3.439,3.439,0,0,1-.714-2.25ZM66.593,11a3.108,3.108,0,0,0,.343,1.546,1.2,1.2,0,0,0,2.079,0A3.085,3.085,0,0,0,69.361,11v-.878a3.074,3.074,0,0,0-.346-1.537,1.194,1.194,0,0,0-2.079,0,3.094,3.094,0,0,0-.343,1.54Zm6.652,3H71.957V4.1h1.289Zm5.186-.92a2.062,2.062,0,0,1-.7.781,1.77,1.77,0,0,1-.978.273,1.694,1.694,0,0,1-1.454-.717,3.82,3.82,0,0,1-.521-2.228V7.132h1.282V11.2a3.228,3.228,0,0,0,.251,1.495.813.813,0,0,0,.752.441,1.365,1.365,0,0,0,.8-.222,1.529,1.529,0,0,0,.511-.635V7.132h1.289V14H78.514Zm5.078.076a1.045,1.045,0,0,0,.813-.371,1.44,1.44,0,0,0,.33-.993h1.155l.013.038a2.117,2.117,0,0,1-.657,1.638,2.279,2.279,0,0,1-1.654.667,2.349,2.349,0,0,1-1.965-.87,3.48,3.48,0,0,1-.682-2.215V10.1a3.507,3.507,0,0,1,.682-2.222A2.335,2.335,0,0,1,83.5,7a2.211,2.211,0,0,1,1.692.7,2.462,2.462,0,0,1,.632,1.8l-.019.038H84.652a1.864,1.864,0,0,0-.314-1.123.983.983,0,0,0-.835-.432,1.08,1.08,0,0,0-1.044.6,3.3,3.3,0,0,0-.308,1.514v.948a3.288,3.288,0,0,0,.308,1.521A1.087,1.087,0,0,0,83.51,13.156ZM88.34,14H87.052V7.132H88.34Zm0-8.671H87.052V4.1H88.34Zm1.308,4.805a3.457,3.457,0,0,1,.714-2.247,2.614,2.614,0,0,1,3.913,0,3.444,3.444,0,0,1,.717,2.25v.876a3.439,3.439,0,0,1-.714,2.25,2.633,2.633,0,0,1-3.917,0,3.439,3.439,0,0,1-.714-2.25ZM90.937,11a3.108,3.108,0,0,0,.343,1.546,1.2,1.2,0,0,0,2.079,0A3.085,3.085,0,0,0,93.7,11v-.878a3.074,3.074,0,0,0-.346-1.537,1.194,1.194,0,0,0-2.079,0,3.094,3.094,0,0,0-.343,1.54Zm6.449-3.873.07,1.016a2.3,2.3,0,0,1,.724-.841,1.705,1.705,0,0,1,.99-.3,1.655,1.655,0,0,1,1.4.667,3.449,3.449,0,0,1,.5,2.069V14H99.785V9.753A2.476,2.476,0,0,0,99.512,8.4a.937.937,0,0,0-.825-.394,1.085,1.085,0,0,0-.7.244,1.769,1.769,0,0,0-.5.663V14H96.205V7.132Zm7.63,7a2.465,2.465,0,0,1-1.961-.851,3.207,3.207,0,0,1-.736-2.177v-1a3.382,3.382,0,0,1,.72-2.222A2.269,2.269,0,0,1,104.87,7a2.154,2.154,0,0,1,1.8.8,3.365,3.365,0,0,1,.628,2.142v.889H103.6v.273a2.58,2.58,0,0,0,.39,1.469,1.257,1.257,0,0,0,1.108.581,2.253,2.253,0,0,0,.914-.168,2.568,2.568,0,0,0,.724-.492l.406.8a2.4,2.4,0,0,1-.87.6A3.156,3.156,0,0,1,105.016,14.133Zm-.146-6.151a1.016,1.016,0,0,0-.9.546,2.854,2.854,0,0,0-.375,1.383h2.418V9.65a2.232,2.232,0,0,0-.292-1.2A.949.949,0,0,0,104.87,7.982Zm6.767,4.3a.943.943,0,0,0-.263-.676,3.349,3.349,0,0,0-.993-.606,5.1,5.1,0,0,1-1.571-.879,1.562,1.562,0,0,1-.511-1.209,1.739,1.739,0,0,1,.625-1.349A2.379,2.379,0,0,1,110.563,7a2.344,2.344,0,0,1,1.688.6,1.9,1.9,0,0,1,.6,1.495l-.013.038H111.6a1.322,1.322,0,0,0-.276-.841.918.918,0,0,0-.765-.352,1.01,1.01,0,0,0-.752.273.883.883,0,0,0-.27.641.834.834,0,0,0,.232.622,4.166,4.166,0,0,0,1,.6,4.635,4.635,0,0,1,1.6.879,1.652,1.652,0,0,1,.524,1.26,1.709,1.709,0,0,1-.647,1.384,2.59,2.59,0,0,1-1.7.533,2.439,2.439,0,0,1-1.79-.644,1.943,1.943,0,0,1-.622-1.508l.013-.038h1.2a1.274,1.274,0,0,0,.368.962,1.258,1.258,0,0,0,.851.3,1.122,1.122,0,0,0,.784-.257A.856.856,0,0,0,111.636,12.28Zm5.046-1.631A5.145,5.145,0,0,1,117.276,8a1.852,1.852,0,0,1,1.673-1,1.7,1.7,0,0,1,.86.216,1.954,1.954,0,0,1,.651.622V4.1h1.282V14h-1.124l-.1-.787a1.946,1.946,0,0,1-.67.686,1.754,1.754,0,0,1-.911.235,1.879,1.879,0,0,1-1.666-.914,4.422,4.422,0,0,1-.594-2.437Zm1.289.133a3.956,3.956,0,0,0,.311,1.72,1.031,1.031,0,0,0,.984.635,1.132,1.132,0,0,0,.714-.229,1.629,1.629,0,0,0,.479-.641V8.928a1.783,1.783,0,0,0-.479-.673,1.057,1.057,0,0,0-.7-.248,1.045,1.045,0,0,0-.99.73,4.847,4.847,0,0,0-.317,1.911Zm7.75,3.352a2.465,2.465,0,0,1-1.961-.851,3.207,3.207,0,0,1-.736-2.177v-1a3.382,3.382,0,0,1,.72-2.222A2.269,2.269,0,0,1,125.576,7a2.154,2.154,0,0,1,1.8.8A3.365,3.365,0,0,1,128,9.944v.889h-3.694v.273a2.58,2.58,0,0,0,.39,1.469,1.257,1.257,0,0,0,1.108.581,2.253,2.253,0,0,0,.914-.168,2.568,2.568,0,0,0,.724-.492l.406.8a2.4,2.4,0,0,1-.87.6A3.156,3.156,0,0,1,125.722,14.133Zm-.146-6.151a1.016,1.016,0,0,0-.9.546,2.854,2.854,0,0,0-.375,1.383h2.418V9.65a2.232,2.232,0,0,0-.292-1.2A.949.949,0,0,0,125.576,7.982Zm8.88,6.151a2.465,2.465,0,0,1-1.961-.851,3.207,3.207,0,0,1-.736-2.177v-1a3.382,3.382,0,0,1,.72-2.222A2.269,2.269,0,0,1,134.31,7a2.154,2.154,0,0,1,1.8.8,3.365,3.365,0,0,1,.628,2.142v.889h-3.694v.273a2.58,2.58,0,0,0,.39,1.469,1.257,1.257,0,0,0,1.108.581,2.253,2.253,0,0,0,.914-.168,2.568,2.568,0,0,0,.724-.492l.406.8a2.4,2.4,0,0,1-.87.6A3.156,3.156,0,0,1,134.456,14.133Zm-.146-6.151a1.016,1.016,0,0,0-.9.546,2.854,2.854,0,0,0-.375,1.383h2.418V9.65a2.232,2.232,0,0,0-.292-1.2A.949.949,0,0,0,134.31,7.982Zm4.742-.851.07.933a2.117,2.117,0,0,1,.711-.784A1.832,1.832,0,0,1,140.842,7a1.54,1.54,0,0,1,.971.314,1.919,1.919,0,0,1,.616.955,2.334,2.334,0,0,1,.711-.933A1.7,1.7,0,0,1,144.193,7a1.6,1.6,0,0,1,1.381.72,3.847,3.847,0,0,1,.5,2.193V14H144.79V9.912a3.024,3.024,0,0,0-.26-1.479.845.845,0,0,0-.768-.425.94.94,0,0,0-.733.333,2.029,2.029,0,0,0-.428.885q-.006-.051.006.162t.013.308V14h-1.282V9.912a2.973,2.973,0,0,0-.267-1.463.853.853,0,0,0-.774-.441,1.083,1.083,0,0,0-.692.225,1.461,1.461,0,0,0-.444.625V14h-1.282V7.132Zm13.584,4.005a3.617,3.617,0,0,1-.6,2.177,1.935,1.935,0,0,1-1.657.819,1.9,1.9,0,0,1-.882-.2,1.843,1.843,0,0,1-.654-.578v3.282h-1.289V7.132h1.149l.083.787a2.018,2.018,0,0,1,.667-.676A1.731,1.731,0,0,1,150.37,7a1.893,1.893,0,0,1,1.669.9,4.261,4.261,0,0,1,.6,2.387Zm-1.289-.844a3.551,3.551,0,0,0-.333-1.647,1.065,1.065,0,0,0-.993-.638,1.089,1.089,0,0,0-.7.235,1.654,1.654,0,0,0-.47.641v3.472a1.4,1.4,0,0,0,.463.594,1.212,1.212,0,0,0,.717.206,1.077,1.077,0,0,0,.993-.555,2.866,2.866,0,0,0,.327-1.463ZM157.371,14q-.07-.235-.114-.46a3.287,3.287,0,0,1-.057-.454,2.451,2.451,0,0,1-.717.755,1.673,1.673,0,0,1-.958.292,1.734,1.734,0,0,1-1.362-.549,2.12,2.12,0,0,1-.492-1.469,1.909,1.909,0,0,1,.67-1.546,2.846,2.846,0,0,1,1.882-.562h.958v-.7a1.525,1.525,0,0,0-.279-.975,1.057,1.057,0,0,0-1.539-.035,1.138,1.138,0,0,0-.282.788l-1.225-.006-.019-.038a1.785,1.785,0,0,1,.635-1.416A2.424,2.424,0,0,1,156.19,7a2.294,2.294,0,0,1,1.647.6,2.247,2.247,0,0,1,.632,1.711V12.5a6.063,6.063,0,0,0,.048.771,4.442,4.442,0,0,0,.156.727Zm-1.555-.844a1.373,1.373,0,0,0,.822-.268,1.581,1.581,0,0,0,.543-.67v-1.41H156.2a1.145,1.145,0,0,0-.917.38,1.374,1.374,0,0,0-.327.929,1.2,1.2,0,0,0,.222.753A.755.755,0,0,0,155.816,13.156Zm3.878-2.863a4.261,4.261,0,0,1,.6-2.387A1.893,1.893,0,0,1,161.96,7a1.7,1.7,0,0,1,.885.229,2.035,2.035,0,0,1,.663.66l.1-.762h1.117v9.509h-1.289V13.384a1.863,1.863,0,0,1-.641.559,1.8,1.8,0,0,1-.838.19,1.939,1.939,0,0,1-1.666-.819,3.631,3.631,0,0,1-.594-2.177Zm1.289.844a2.982,2.982,0,0,0,.311,1.466,1.048,1.048,0,0,0,.984.552,1.15,1.15,0,0,0,.686-.2,1.506,1.506,0,0,0,.47-.579V8.8a1.582,1.582,0,0,0-.463-.6,1.082,1.082,0,0,0-.679-.22,1.043,1.043,0,0,0-.99.641,3.764,3.764,0,0,0-.317,1.667Zm8.893,1.942a2.062,2.062,0,0,1-.7.781,1.77,1.77,0,0,1-.978.273,1.694,1.694,0,0,1-1.454-.717,3.82,3.82,0,0,1-.521-2.228V7.132h1.282V11.2a3.228,3.228,0,0,0,.251,1.495.813.813,0,0,0,.752.441,1.365,1.365,0,0,0,.8-.222,1.529,1.529,0,0,0,.511-.635V7.132h1.289V14h-1.149Zm5.173,1.054a2.465,2.465,0,0,1-1.961-.851,3.207,3.207,0,0,1-.736-2.177v-1a3.382,3.382,0,0,1,.72-2.222A2.269,2.269,0,0,1,174.9,7a2.154,2.154,0,0,1,1.8.8,3.365,3.365,0,0,1,.628,2.142v.889h-3.694v.273a2.58,2.58,0,0,0,.39,1.469,1.257,1.257,0,0,0,1.108.581,2.253,2.253,0,0,0,.914-.168,2.568,2.568,0,0,0,.724-.492l.406.8a2.4,2.4,0,0,1-.87.6A3.156,3.156,0,0,1,175.049,14.133ZM174.9,7.982a1.016,1.016,0,0,0-.9.546,2.854,2.854,0,0,0-.375,1.383h2.418V9.65a2.232,2.232,0,0,0-.292-1.2A.949.949,0,0,0,174.9,7.982ZM4.234,32q-.07-.235-.114-.46a3.285,3.285,0,0,1-.057-.454,2.451,2.451,0,0,1-.717.755,1.673,1.673,0,0,1-.958.292,1.734,1.734,0,0,1-1.362-.549,2.12,2.12,0,0,1-.492-1.469,1.909,1.909,0,0,1,.67-1.546,2.846,2.846,0,0,1,1.882-.562h.958v-.7a1.525,1.525,0,0,0-.279-.975.956.956,0,0,0-.793-.35.953.953,0,0,0-.746.315,1.138,1.138,0,0,0-.282.788L.717,27.08.7,27.042a1.785,1.785,0,0,1,.635-1.416A2.424,2.424,0,0,1,3.053,25a2.294,2.294,0,0,1,1.647.6,2.247,2.247,0,0,1,.632,1.711V30.5a6.063,6.063,0,0,0,.048.771A4.442,4.442,0,0,0,5.535,32Zm-1.555-.844a1.373,1.373,0,0,0,.822-.268,1.581,1.581,0,0,0,.543-.67v-1.41H3.066a1.145,1.145,0,0,0-.917.38,1.374,1.374,0,0,0-.327.929,1.2,1.2,0,0,0,.222.753A.755.755,0,0,0,2.679,31.156ZM10.8,25.132l.07,1.016a2.3,2.3,0,0,1,.724-.841,1.705,1.705,0,0,1,.99-.3,1.655,1.655,0,0,1,1.4.667,3.449,3.449,0,0,1,.5,2.069V32H13.2V27.753a2.476,2.476,0,0,0-.273-1.352.937.937,0,0,0-.825-.394,1.085,1.085,0,0,0-.7.244,1.769,1.769,0,0,0-.5.663V32H9.617V25.132ZM17.316,32H16.028V25.132h1.289Zm0-8.671H16.028V22.1h1.289Zm3.555,6.608.108.533h.038l.108-.533,1.168-4.805H23.62L21.563,32H20.427l-2.069-6.868H19.69Zm6.068,2.2a2.465,2.465,0,0,1-1.961-.851,3.207,3.207,0,0,1-.736-2.177v-1a3.382,3.382,0,0,1,.72-2.222A2.269,2.269,0,0,1,26.793,25a2.154,2.154,0,0,1,1.8.8,3.365,3.365,0,0,1,.628,2.142v.889H25.524v.273a2.58,2.58,0,0,0,.39,1.469,1.257,1.257,0,0,0,1.108.581,2.253,2.253,0,0,0,.914-.168,2.568,2.568,0,0,0,.724-.492l.406.8a2.4,2.4,0,0,1-.87.6A3.156,3.156,0,0,1,26.939,32.133Zm-.146-6.151a1.016,1.016,0,0,0-.9.546,2.854,2.854,0,0,0-.375,1.383h2.418V27.65a2.232,2.232,0,0,0-.292-1.2A.949.949,0,0,0,26.793,25.982ZM31.732,32H30.443V22.1h1.289Zm7.351-5.783-.6-.032a.945.945,0,0,0-.663.241,1.527,1.527,0,0,0-.4.679V32H36.125V25.132H37.3l.1,1.035a2.183,2.183,0,0,1,.565-.854A1.182,1.182,0,0,1,38.765,25a1.582,1.582,0,0,1,.26.022.985.985,0,0,1,.209.054ZM42.5,32.133a2.465,2.465,0,0,1-1.961-.851,3.207,3.207,0,0,1-.736-2.177v-1a3.382,3.382,0,0,1,.72-2.222A2.269,2.269,0,0,1,42.358,25a2.154,2.154,0,0,1,1.8.8,3.365,3.365,0,0,1,.628,2.142v.889H41.088v.273a2.58,2.58,0,0,0,.39,1.469,1.257,1.257,0,0,0,1.108.581,2.253,2.253,0,0,0,.914-.168,2.568,2.568,0,0,0,.724-.492l.406.8a2.4,2.4,0,0,1-.87.6A3.156,3.156,0,0,1,42.5,32.133Zm-.146-6.151a1.016,1.016,0,0,0-.9.546,2.854,2.854,0,0,0-.375,1.383h2.418V27.65a2.232,2.232,0,0,0-.292-1.2A.949.949,0,0,0,42.358,25.982Zm3.326,2.311a4.212,4.212,0,0,1,.606-2.384,1.92,1.92,0,0,1,1.685-.9,1.7,1.7,0,0,1,.914.244,2.066,2.066,0,0,1,.673.708l.1-.825h1.111v6.836a2.885,2.885,0,0,1-.7,2.063,2.563,2.563,0,0,1-1.958.743,3.822,3.822,0,0,1-1.8-.5l.273-.965a2.932,2.932,0,0,0,1.517.419,1.223,1.223,0,0,0,1.044-.451,2.171,2.171,0,0,0,.34-1.32V31.34a1.745,1.745,0,0,1-1.517.793,1.961,1.961,0,0,1-1.676-.822,3.592,3.592,0,0,1-.6-2.174Zm1.289.844a2.878,2.878,0,0,0,.317,1.457,1.072,1.072,0,0,0,1,.543A1.177,1.177,0,0,0,49,30.921a1.546,1.546,0,0,0,.479-.609V26.89A1.8,1.8,0,0,0,49,26.246a1.118,1.118,0,0,0-1.7.4,3.606,3.606,0,0,0-.327,1.65ZM53.606,32H52.317V25.132h1.289Zm0-8.671H52.317V22.1h1.289Zm1.308,4.805a3.457,3.457,0,0,1,.714-2.247,2.614,2.614,0,0,1,3.913,0,3.444,3.444,0,0,1,.717,2.25v.876a3.439,3.439,0,0,1-.714,2.25,2.633,2.633,0,0,1-3.917,0,3.439,3.439,0,0,1-.714-2.25ZM56.2,29a3.108,3.108,0,0,0,.343,1.546,1.2,1.2,0,0,0,2.079,0A3.085,3.085,0,0,0,58.97,29v-.878a3.074,3.074,0,0,0-.346-1.537,1.194,1.194,0,0,0-2.079,0,3.094,3.094,0,0,0-.343,1.54Zm6.449-3.873.07,1.016a2.3,2.3,0,0,1,.724-.841,1.705,1.705,0,0,1,.99-.3,1.655,1.655,0,0,1,1.4.667,3.449,3.449,0,0,1,.5,2.069V32H65.051V27.753a2.476,2.476,0,0,0-.273-1.352.937.937,0,0,0-.825-.394,1.085,1.085,0,0,0-.7.244,1.769,1.769,0,0,0-.5.663V32H61.471V25.132ZM71.3,32q-.07-.235-.114-.46a3.284,3.284,0,0,1-.057-.454,2.451,2.451,0,0,1-.717.755,1.673,1.673,0,0,1-.958.292,1.734,1.734,0,0,1-1.362-.549,2.12,2.12,0,0,1-.492-1.469,1.909,1.909,0,0,1,.67-1.546,2.846,2.846,0,0,1,1.882-.562h.958v-.7a1.525,1.525,0,0,0-.279-.975,1.057,1.057,0,0,0-1.539-.035,1.138,1.138,0,0,0-.282.788L67.78,27.08l-.019-.038a1.785,1.785,0,0,1,.635-1.416A2.424,2.424,0,0,1,70.116,25a2.294,2.294,0,0,1,1.647.6,2.247,2.247,0,0,1,.632,1.711V30.5a6.063,6.063,0,0,0,.048.771A4.443,4.443,0,0,0,72.6,32Zm-1.555-.844a1.373,1.373,0,0,0,.822-.268,1.581,1.581,0,0,0,.543-.67v-1.41h-.978a1.145,1.145,0,0,0-.917.38,1.374,1.374,0,0,0-.327.929,1.2,1.2,0,0,0,.222.753A.755.755,0,0,0,69.742,31.156ZM75.232,32H73.944V22.1h1.289Zm2.736-.152-.806,1.873h-.768l.375-1.917V30.642h1.2Zm5.351-6.716.07.933a2.117,2.117,0,0,1,.711-.784A1.832,1.832,0,0,1,85.109,25a1.54,1.54,0,0,1,.971.314,1.919,1.919,0,0,1,.616.955,2.334,2.334,0,0,1,.711-.933A1.7,1.7,0,0,1,88.461,25a1.6,1.6,0,0,1,1.381.72,3.847,3.847,0,0,1,.5,2.193V32H89.058V27.912a3.024,3.024,0,0,0-.26-1.479.845.845,0,0,0-.768-.425.94.94,0,0,0-.733.333,2.029,2.029,0,0,0-.428.885q-.006-.051.006.162t.013.308V32H85.6V27.912a2.973,2.973,0,0,0-.267-1.463.853.853,0,0,0-.774-.441,1.083,1.083,0,0,0-.692.225,1.461,1.461,0,0,0-.444.625V32H82.145V25.132Zm10.988,7a2.465,2.465,0,0,1-1.961-.851,3.207,3.207,0,0,1-.736-2.177v-1a3.382,3.382,0,0,1,.72-2.222A2.269,2.269,0,0,1,94.161,25a2.154,2.154,0,0,1,1.8.8,3.365,3.365,0,0,1,.628,2.142v.889H92.892v.273a2.58,2.58,0,0,0,.39,1.469,1.257,1.257,0,0,0,1.108.581,2.253,2.253,0,0,0,.914-.168,2.568,2.568,0,0,0,.724-.492l.406.8a2.4,2.4,0,0,1-.87.6A3.156,3.156,0,0,1,94.307,32.133Zm-.146-6.151a1.016,1.016,0,0,0-.9.546,2.854,2.854,0,0,0-.375,1.383H95.31V27.65a2.232,2.232,0,0,0-.292-1.2A.949.949,0,0,0,94.161,25.982Zm3.326,2.666A5.145,5.145,0,0,1,98.081,26a1.852,1.852,0,0,1,1.673-1,1.7,1.7,0,0,1,.86.216,1.954,1.954,0,0,1,.651.622V22.1h1.282V32h-1.124l-.1-.787a1.946,1.946,0,0,1-.67.686,1.754,1.754,0,0,1-.911.235,1.879,1.879,0,0,1-1.666-.914,4.422,4.422,0,0,1-.594-2.437Zm1.289.133a3.956,3.956,0,0,0,.311,1.72,1.031,1.031,0,0,0,.984.635,1.132,1.132,0,0,0,.714-.229,1.629,1.629,0,0,0,.479-.641V26.928a1.783,1.783,0,0,0-.479-.673,1.057,1.057,0,0,0-.7-.248,1.045,1.045,0,0,0-.99.73,4.847,4.847,0,0,0-.317,1.911ZM105.416,32h-1.289V25.132h1.289Zm0-8.671h-1.289V22.1h1.289ZM110.475,32q-.07-.235-.114-.46a3.284,3.284,0,0,1-.057-.454,2.451,2.451,0,0,1-.717.755,1.673,1.673,0,0,1-.958.292,1.734,1.734,0,0,1-1.362-.549,2.12,2.12,0,0,1-.492-1.469,1.909,1.909,0,0,1,.67-1.546,2.846,2.846,0,0,1,1.882-.562h.958v-.7a1.525,1.525,0,0,0-.279-.975,1.057,1.057,0,0,0-1.539-.035,1.138,1.138,0,0,0-.282.788l-1.225-.006-.019-.038a1.785,1.785,0,0,1,.635-1.416,2.424,2.424,0,0,1,1.72-.621,2.294,2.294,0,0,1,1.647.6,2.247,2.247,0,0,1,.632,1.711V30.5a6.063,6.063,0,0,0,.048.771,4.443,4.443,0,0,0,.156.727Zm-1.555-.844a1.373,1.373,0,0,0,.822-.268,1.581,1.581,0,0,0,.543-.67v-1.41h-.978a1.145,1.145,0,0,0-.917.38,1.374,1.374,0,0,0-.327.929,1.2,1.2,0,0,0,.222.753A.755.755,0,0,0,108.919,31.156Zm5.288-6.024.07,1.016a2.3,2.3,0,0,1,.724-.841,1.705,1.705,0,0,1,.99-.3,1.655,1.655,0,0,1,1.4.667,3.449,3.449,0,0,1,.5,2.069V32h-1.289V27.753a2.476,2.476,0,0,0-.273-1.352.937.937,0,0,0-.825-.394,1.085,1.085,0,0,0-.7.244,1.769,1.769,0,0,0-.5.663V32h-1.289V25.132ZM121,23.424v1.708h1.073v.92H121V30.14a1.363,1.363,0,0,0,.159.759.484.484,0,0,0,.413.225,1.955,1.955,0,0,0,.282-.019q.13-.019.308-.057l.133.889a2.631,2.631,0,0,1-.486.143,2.826,2.826,0,0,1-.555.054,1.4,1.4,0,0,1-1.133-.479,2.33,2.33,0,0,1-.4-1.514V26.052h-.9v-.92h.9V23.424Zm4.824,8.709a2.465,2.465,0,0,1-1.961-.851,3.207,3.207,0,0,1-.736-2.177v-1a3.382,3.382,0,0,1,.72-2.222A2.269,2.269,0,0,1,125.677,25a2.154,2.154,0,0,1,1.8.8,3.365,3.365,0,0,1,.628,2.142v.889h-3.694v.273a2.58,2.58,0,0,0,.39,1.469,1.257,1.257,0,0,0,1.108.581,2.253,2.253,0,0,0,.914-.168,2.568,2.568,0,0,0,.724-.492l.406.8a2.4,2.4,0,0,1-.87.6A3.156,3.156,0,0,1,125.823,32.133Zm-.146-6.151a1.016,1.016,0,0,0-.9.546,2.854,2.854,0,0,0-.375,1.383h2.418V27.65a2.232,2.232,0,0,0-.292-1.2A.949.949,0,0,0,125.677,25.982ZM2.38,41.424v1.708H3.453v.92H2.38V48.14a1.363,1.363,0,0,0,.159.759.484.484,0,0,0,.413.225,1.955,1.955,0,0,0,.282-.019q.13-.019.308-.057l.133.889a2.631,2.631,0,0,1-.486.143,2.826,2.826,0,0,1-.555.054A1.4,1.4,0,0,1,1.5,49.654a2.33,2.33,0,0,1-.4-1.514V44.052H.2v-.92h.9V41.424ZM7.2,50.133a2.465,2.465,0,0,1-1.961-.851,3.207,3.207,0,0,1-.736-2.177v-1a3.382,3.382,0,0,1,.72-2.222A2.269,2.269,0,0,1,7.059,43a2.154,2.154,0,0,1,1.8.8,3.365,3.365,0,0,1,.628,2.142v.889H5.789v.273a2.58,2.58,0,0,0,.39,1.469,1.257,1.257,0,0,0,1.108.581,2.253,2.253,0,0,0,.914-.168,2.568,2.568,0,0,0,.724-.492l.406.8a2.4,2.4,0,0,1-.87.6A3.156,3.156,0,0,1,7.2,50.133Zm-.146-6.151a1.016,1.016,0,0,0-.9.546,2.854,2.854,0,0,0-.375,1.383H8.208V45.65a2.232,2.232,0,0,0-.292-1.2A.949.949,0,0,0,7.059,43.982Zm5.954,5.173a1.045,1.045,0,0,0,.813-.371,1.44,1.44,0,0,0,.33-.993h1.155l.013.038a2.117,2.117,0,0,1-.657,1.638,2.279,2.279,0,0,1-1.654.667,2.349,2.349,0,0,1-1.965-.87,3.48,3.48,0,0,1-.682-2.215V46.1a3.507,3.507,0,0,1,.682-2.222A2.335,2.335,0,0,1,13.006,43a2.211,2.211,0,0,1,1.692.7,2.462,2.462,0,0,1,.632,1.8l-.019.038H14.155a1.864,1.864,0,0,0-.314-1.123.983.983,0,0,0-.835-.432,1.08,1.08,0,0,0-1.044.6,3.3,3.3,0,0,0-.308,1.514v.948a3.288,3.288,0,0,0,.308,1.521A1.087,1.087,0,0,0,13.013,49.156Zm4.627-6.024.07,1.016a2.3,2.3,0,0,1,.724-.841,1.705,1.705,0,0,1,.99-.3,1.655,1.655,0,0,1,1.4.667,3.449,3.449,0,0,1,.5,2.069V50H20.04V45.753a2.476,2.476,0,0,0-.273-1.352.937.937,0,0,0-.825-.394,1.085,1.085,0,0,0-.7.244,1.769,1.769,0,0,0-.5.663V50H16.459V43.132Zm4.894,3a3.457,3.457,0,0,1,.714-2.247,2.614,2.614,0,0,1,3.913,0,3.444,3.444,0,0,1,.717,2.25v.876a3.439,3.439,0,0,1-.714,2.25,2.633,2.633,0,0,1-3.917,0,3.439,3.439,0,0,1-.714-2.25ZM23.823,47a3.108,3.108,0,0,0,.343,1.546,1.2,1.2,0,0,0,2.079,0A3.085,3.085,0,0,0,26.59,47v-.878a3.074,3.074,0,0,0-.346-1.537,1.194,1.194,0,0,0-2.079,0,3.094,3.094,0,0,0-.343,1.54Zm6.652,3H29.187V40.1h1.289Zm1.308-3.866a3.457,3.457,0,0,1,.714-2.247,2.614,2.614,0,0,1,3.913,0,3.444,3.444,0,0,1,.717,2.25v.876a3.439,3.439,0,0,1-.714,2.25,2.633,2.633,0,0,1-3.917,0,3.439,3.439,0,0,1-.714-2.25ZM33.071,47a3.108,3.108,0,0,0,.343,1.546,1.2,1.2,0,0,0,2.079,0A3.085,3.085,0,0,0,35.839,47v-.878a3.074,3.074,0,0,0-.346-1.537,1.194,1.194,0,0,0-2.079,0,3.094,3.094,0,0,0-.343,1.54Zm5.04-.712a4.212,4.212,0,0,1,.606-2.384A1.92,1.92,0,0,1,40.4,43a1.7,1.7,0,0,1,.914.244,2.066,2.066,0,0,1,.673.708l.1-.825H43.2v6.836a2.885,2.885,0,0,1-.7,2.063,2.563,2.563,0,0,1-1.958.743,3.822,3.822,0,0,1-1.8-.5l.273-.965a2.932,2.932,0,0,0,1.517.419,1.223,1.223,0,0,0,1.044-.451,2.171,2.171,0,0,0,.34-1.32V49.34a1.745,1.745,0,0,1-1.517.793,1.961,1.961,0,0,1-1.676-.822,3.592,3.592,0,0,1-.6-2.174Zm1.289.844a2.878,2.878,0,0,0,.317,1.457,1.072,1.072,0,0,0,1,.543,1.177,1.177,0,0,0,.714-.216,1.546,1.546,0,0,0,.479-.609V44.89a1.8,1.8,0,0,0-.482-.644,1.118,1.118,0,0,0-1.7.4,3.606,3.606,0,0,0-.327,1.65ZM46.033,50H44.745V43.132h1.289Zm-.2-9.407h1.435l.013.032-1.511,1.657H44.745ZM51.13,50q-.07-.235-.114-.46a3.286,3.286,0,0,1-.057-.454,2.451,2.451,0,0,1-.717.755,1.673,1.673,0,0,1-.958.292,1.734,1.734,0,0,1-1.362-.549,2.12,2.12,0,0,1-.492-1.469,1.909,1.909,0,0,1,.67-1.546,2.846,2.846,0,0,1,1.882-.562h.958v-.7a1.525,1.525,0,0,0-.279-.975,1.057,1.057,0,0,0-1.539-.035,1.138,1.138,0,0,0-.282.788l-1.225-.006-.019-.038a1.785,1.785,0,0,1,.635-1.416A2.424,2.424,0,0,1,49.95,43a2.294,2.294,0,0,1,1.647.6,2.247,2.247,0,0,1,.632,1.711V48.5a6.063,6.063,0,0,0,.048.771,4.442,4.442,0,0,0,.156.727Zm-1.555-.844a1.373,1.373,0,0,0,.822-.268,1.581,1.581,0,0,0,.543-.67v-1.41h-.978a1.145,1.145,0,0,0-.917.38,1.374,1.374,0,0,0-.327.929,1.2,1.2,0,0,0,.222.753A.755.755,0,0,0,49.575,49.156Zm6.709-2.507A5.145,5.145,0,0,1,56.878,44a1.852,1.852,0,0,1,1.673-1,1.7,1.7,0,0,1,.86.216,1.954,1.954,0,0,1,.651.622V40.1h1.282V50H60.22l-.1-.787a1.946,1.946,0,0,1-.67.686,1.754,1.754,0,0,1-.911.235,1.879,1.879,0,0,1-1.666-.914,4.422,4.422,0,0,1-.594-2.437Zm1.289.133a3.956,3.956,0,0,0,.311,1.72,1.031,1.031,0,0,0,.984.635,1.132,1.132,0,0,0,.714-.229,1.629,1.629,0,0,0,.479-.641V44.928a1.783,1.783,0,0,0-.479-.673,1.057,1.057,0,0,0-.7-.248,1.045,1.045,0,0,0-.99.73,4.847,4.847,0,0,0-.317,1.911Zm7.75,3.352a2.465,2.465,0,0,1-1.961-.851,3.207,3.207,0,0,1-.736-2.177v-1a3.382,3.382,0,0,1,.72-2.222A2.269,2.269,0,0,1,65.178,43a2.154,2.154,0,0,1,1.8.8,3.365,3.365,0,0,1,.628,2.142v.889H63.908v.273a2.58,2.58,0,0,0,.39,1.469,1.257,1.257,0,0,0,1.108.581,2.253,2.253,0,0,0,.914-.168,2.568,2.568,0,0,0,.724-.492l.406.8a2.4,2.4,0,0,1-.87.6A3.156,3.156,0,0,1,65.324,50.133Zm-.146-6.151a1.016,1.016,0,0,0-.9.546,2.854,2.854,0,0,0-.375,1.383h2.418V45.65a2.232,2.232,0,0,0-.292-1.2A.949.949,0,0,0,65.178,43.982Zm11.477,3.155a3.617,3.617,0,0,1-.6,2.177,1.935,1.935,0,0,1-1.657.819,1.9,1.9,0,0,1-.882-.2,1.843,1.843,0,0,1-.654-.578v3.282H71.576V43.132h1.149l.083.787a2.018,2.018,0,0,1,.667-.676A1.731,1.731,0,0,1,74.388,43a1.893,1.893,0,0,1,1.669.9,4.261,4.261,0,0,1,.6,2.387Zm-1.289-.844a3.551,3.551,0,0,0-.333-1.647,1.065,1.065,0,0,0-.993-.638,1.089,1.089,0,0,0-.7.235,1.654,1.654,0,0,0-.47.641v3.472a1.4,1.4,0,0,0,.463.594,1.212,1.212,0,0,0,.717.206,1.077,1.077,0,0,0,.993-.555,2.866,2.866,0,0,0,.327-1.463Zm6.151,2.787a2.062,2.062,0,0,1-.7.781,1.77,1.77,0,0,1-.978.273,1.694,1.694,0,0,1-1.454-.717,3.82,3.82,0,0,1-.521-2.228V43.132h1.282V47.2A3.228,3.228,0,0,0,79.4,48.7a.813.813,0,0,0,.752.441,1.365,1.365,0,0,0,.8-.222,1.529,1.529,0,0,0,.511-.635V43.132h1.289V50H81.6Zm3.859-5.948.07,1.016a2.3,2.3,0,0,1,.724-.841,1.705,1.705,0,0,1,.99-.3,1.655,1.655,0,0,1,1.4.667,3.449,3.449,0,0,1,.5,2.069V50H87.775V45.753A2.476,2.476,0,0,0,87.5,44.4a.937.937,0,0,0-.825-.394,1.085,1.085,0,0,0-.7.244,1.769,1.769,0,0,0-.5.663V50H84.2V43.132Zm6.792-1.708v1.708h1.073v.92H92.168V48.14a1.363,1.363,0,0,0,.159.759.484.484,0,0,0,.413.225,1.955,1.955,0,0,0,.282-.019q.13-.019.308-.057l.133.889a2.631,2.631,0,0,1-.486.143,2.826,2.826,0,0,1-.555.054,1.4,1.4,0,0,1-1.133-.479,2.33,2.33,0,0,1-.4-1.514V44.052h-.9v-.92h.9V41.424ZM98.008,50q-.07-.235-.114-.46a3.284,3.284,0,0,1-.057-.454,2.451,2.451,0,0,1-.717.755,1.673,1.673,0,0,1-.958.292,1.734,1.734,0,0,1-1.362-.549,2.12,2.12,0,0,1-.492-1.469,1.909,1.909,0,0,1,.67-1.546,2.846,2.846,0,0,1,1.882-.562h.958v-.7a1.525,1.525,0,0,0-.279-.975A1.057,1.057,0,0,0,96,44.3a1.138,1.138,0,0,0-.282.788l-1.225-.006-.019-.038a1.785,1.785,0,0,1,.635-1.416A2.424,2.424,0,0,1,96.827,43a2.294,2.294,0,0,1,1.647.6,2.247,2.247,0,0,1,.632,1.711V48.5a6.063,6.063,0,0,0,.048.771,4.443,4.443,0,0,0,.156.727Zm-1.555-.844a1.373,1.373,0,0,0,.822-.268,1.581,1.581,0,0,0,.543-.67v-1.41H96.84a1.145,1.145,0,0,0-.917.38,1.374,1.374,0,0,0-.327.929,1.2,1.2,0,0,0,.222.753A.755.755,0,0,0,96.453,49.156Zm8.88-1.523.1.451h.038l1.32-4.951h1.4l-2.406,7.935a3.777,3.777,0,0,1-.654,1.209,1.453,1.453,0,0,1-1.187.5,1.8,1.8,0,0,1-.34-.035q-.181-.035-.359-.079l.14-.952q.07.013.19.025t.19.013a.684.684,0,0,0,.594-.321,2.52,2.52,0,0,0,.34-.759l.229-.7-2.12-6.836h1.4Zm10.188,1.447a2.062,2.062,0,0,1-.7.781,1.77,1.77,0,0,1-.978.273,1.694,1.694,0,0,1-1.454-.717,3.82,3.82,0,0,1-.521-2.228V43.132h1.282V47.2A3.228,3.228,0,0,0,113.4,48.7a.813.813,0,0,0,.752.441,1.365,1.365,0,0,0,.8-.222,1.529,1.529,0,0,0,.511-.635V43.132h1.289V50H115.6Zm3.859-5.948.07,1.016a2.3,2.3,0,0,1,.724-.841,1.705,1.705,0,0,1,.99-.3,1.655,1.655,0,0,1,1.4.667,3.449,3.449,0,0,1,.5,2.069V50H121.78V45.753a2.476,2.476,0,0,0-.273-1.352.937.937,0,0,0-.825-.394,1.085,1.085,0,0,0-.7.244,1.769,1.769,0,0,0-.5.663V50H118.2V43.132Zm10.461,7a2.465,2.465,0,0,1-1.961-.851,3.207,3.207,0,0,1-.736-2.177v-1a3.382,3.382,0,0,1,.72-2.222A2.269,2.269,0,0,1,129.7,43a2.154,2.154,0,0,1,1.8.8,3.365,3.365,0,0,1,.628,2.142v.889h-3.694v.273a2.58,2.58,0,0,0,.39,1.469,1.257,1.257,0,0,0,1.108.581,2.253,2.253,0,0,0,.914-.168,2.568,2.568,0,0,0,.724-.492l.406.8a2.4,2.4,0,0,1-.87.6A3.156,3.156,0,0,1,129.841,50.133Zm-.146-6.151a1.016,1.016,0,0,0-.9.546,2.854,2.854,0,0,0-.375,1.383h2.418V45.65a2.232,2.232,0,0,0-.292-1.2A.949.949,0,0,0,129.7,43.982Zm3.326,2.311a4.261,4.261,0,0,1,.6-2.387,1.893,1.893,0,0,1,1.669-.9,1.7,1.7,0,0,1,.885.229,2.035,2.035,0,0,1,.663.66l.1-.762h1.117v9.509H136.76V49.384a1.863,1.863,0,0,1-.641.559,1.8,1.8,0,0,1-.838.19,1.939,1.939,0,0,1-1.666-.819,3.631,3.631,0,0,1-.594-2.177Zm1.289.844a2.982,2.982,0,0,0,.311,1.466,1.048,1.048,0,0,0,.984.552,1.15,1.15,0,0,0,.686-.2,1.506,1.506,0,0,0,.47-.579V44.8a1.582,1.582,0,0,0-.463-.6,1.082,1.082,0,0,0-.679-.22,1.043,1.043,0,0,0-.99.641,3.764,3.764,0,0,0-.317,1.667ZM143.2,49.08a2.062,2.062,0,0,1-.7.781,1.77,1.77,0,0,1-.978.273,1.694,1.694,0,0,1-1.454-.717,3.82,3.82,0,0,1-.521-2.228V43.132h1.282V47.2a3.228,3.228,0,0,0,.251,1.495.813.813,0,0,0,.752.441,1.365,1.365,0,0,0,.8-.222,1.529,1.529,0,0,0,.511-.635V43.132h1.289V50h-1.149Zm4.063.92h-1.289V43.132h1.289Zm0-8.671h-1.289V40.1h1.289Zm6.64,5.808a3.617,3.617,0,0,1-.6,2.177,1.935,1.935,0,0,1-1.657.819,1.9,1.9,0,0,1-.882-.2,1.843,1.843,0,0,1-.654-.578v3.282h-1.289V43.132h1.149l.083.787a2.018,2.018,0,0,1,.667-.676,1.731,1.731,0,0,1,.914-.238,1.893,1.893,0,0,1,1.669.9,4.261,4.261,0,0,1,.6,2.387Zm-1.289-.844a3.551,3.551,0,0,0-.333-1.647,1.065,1.065,0,0,0-.993-.638,1.089,1.089,0,0,0-.7.235,1.654,1.654,0,0,0-.47.641v3.472a1.4,1.4,0,0,0,.463.594,1.212,1.212,0,0,0,.717.206,1.077,1.077,0,0,0,.993-.555,2.866,2.866,0,0,0,.327-1.463Zm2.272-.159a3.457,3.457,0,0,1,.714-2.247,2.614,2.614,0,0,1,3.913,0,3.444,3.444,0,0,1,.717,2.25v.876a3.439,3.439,0,0,1-.714,2.25,2.633,2.633,0,0,1-3.917,0,3.439,3.439,0,0,1-.714-2.25Zm1.289.871a3.108,3.108,0,0,0,.343,1.546,1.2,1.2,0,0,0,2.079,0A3.085,3.085,0,0,0,158.945,47v-.878a3.074,3.074,0,0,0-.346-1.537,1.194,1.194,0,0,0-2.079,0,3.094,3.094,0,0,0-.343,1.54ZM2.006,62.052a2.245,2.245,0,0,1,.7-.771A1.659,1.659,0,0,1,3.644,61a1.7,1.7,0,0,1,1.441.686A3.513,3.513,0,0,1,5.6,63.8V68H4.31V63.785a2.545,2.545,0,0,0-.276-1.362.922.922,0,0,0-.822-.416,1.157,1.157,0,0,0-.7.225,1.679,1.679,0,0,0-.5.619V68H.717V58.1H2.006Zm8.671,5.027a2.062,2.062,0,0,1-.7.781A1.77,1.77,0,0,1,9,68.133a1.694,1.694,0,0,1-1.454-.717,3.82,3.82,0,0,1-.521-2.228V61.132H8.309V65.2A3.228,3.228,0,0,0,8.56,66.7a.813.813,0,0,0,.752.441,1.365,1.365,0,0,0,.8-.222,1.529,1.529,0,0,0,.511-.635V61.132h1.289V68H10.759Zm3.866-5.948.07.933a2.117,2.117,0,0,1,.711-.784A1.832,1.832,0,0,1,16.333,61a1.54,1.54,0,0,1,.971.314,1.919,1.919,0,0,1,.616.955,2.334,2.334,0,0,1,.711-.933A1.7,1.7,0,0,1,19.684,61a1.6,1.6,0,0,1,1.381.72,3.847,3.847,0,0,1,.5,2.193V68H20.281V63.912a3.024,3.024,0,0,0-.26-1.479.845.845,0,0,0-.768-.425.94.94,0,0,0-.733.333,2.029,2.029,0,0,0-.428.885q-.006-.051.006.162t.013.308V68H16.828V63.912a2.973,2.973,0,0,0-.267-1.463.853.853,0,0,0-.774-.441,1.083,1.083,0,0,0-.692.225,1.461,1.461,0,0,0-.444.625V68H13.368V61.132Zm12,6.868q-.07-.235-.114-.46a3.285,3.285,0,0,1-.057-.454,2.451,2.451,0,0,1-.717.755,1.673,1.673,0,0,1-.958.292,1.734,1.734,0,0,1-1.362-.549,2.12,2.12,0,0,1-.492-1.469,1.909,1.909,0,0,1,.67-1.546,2.846,2.846,0,0,1,1.882-.562h.958v-.7a1.525,1.525,0,0,0-.279-.975,1.057,1.057,0,0,0-1.539-.035,1.138,1.138,0,0,0-.282.788l-1.225-.006-.019-.038a1.785,1.785,0,0,1,.635-1.416A2.424,2.424,0,0,1,25.365,61a2.294,2.294,0,0,1,1.647.6,2.247,2.247,0,0,1,.632,1.711V66.5a6.063,6.063,0,0,0,.048.771,4.442,4.442,0,0,0,.156.727Zm-1.555-.844a1.373,1.373,0,0,0,.822-.268,1.581,1.581,0,0,0,.543-.67v-1.41h-.978a1.145,1.145,0,0,0-.917.38,1.374,1.374,0,0,0-.327.929,1.2,1.2,0,0,0,.222.753A.755.755,0,0,0,24.991,67.156Zm5.288-6.024.07,1.016a2.3,2.3,0,0,1,.724-.841,1.705,1.705,0,0,1,.99-.3,1.655,1.655,0,0,1,1.4.667,3.449,3.449,0,0,1,.5,2.069V68H32.678V63.753A2.476,2.476,0,0,0,32.4,62.4a.937.937,0,0,0-.825-.394,1.085,1.085,0,0,0-.7.244,1.769,1.769,0,0,0-.5.663V68H29.1V61.132Zm4.894,3a3.457,3.457,0,0,1,.714-2.247,2.614,2.614,0,0,1,3.913,0,3.444,3.444,0,0,1,.717,2.25v.876a3.439,3.439,0,0,1-.714,2.25,2.633,2.633,0,0,1-3.917,0,3.439,3.439,0,0,1-.714-2.25ZM36.461,65a3.108,3.108,0,0,0,.343,1.546,1.2,1.2,0,0,0,2.079,0A3.085,3.085,0,0,0,39.229,65v-.878a3.074,3.074,0,0,0-.346-1.537,1.194,1.194,0,0,0-2.079,0,3.094,3.094,0,0,0-.343,1.54Zm10.5,2.151a1.045,1.045,0,0,0,.813-.371,1.44,1.44,0,0,0,.33-.993h1.155l.013.038a2.117,2.117,0,0,1-.657,1.638,2.279,2.279,0,0,1-1.654.667A2.349,2.349,0,0,1,45,67.264a3.48,3.48,0,0,1-.682-2.215V64.1A3.507,3.507,0,0,1,45,61.881,2.335,2.335,0,0,1,46.954,61a2.211,2.211,0,0,1,1.692.7,2.462,2.462,0,0,1,.632,1.8l-.019.038H48.1a1.864,1.864,0,0,0-.314-1.123.983.983,0,0,0-.835-.432,1.08,1.08,0,0,0-1.044.6A3.3,3.3,0,0,0,45.6,64.1v.948a3.288,3.288,0,0,0,.308,1.521A1.087,1.087,0,0,0,46.96,67.156Zm3.206-3.021a3.457,3.457,0,0,1,.714-2.247,2.614,2.614,0,0,1,3.913,0,3.444,3.444,0,0,1,.717,2.25v.876a3.439,3.439,0,0,1-.714,2.25,2.633,2.633,0,0,1-3.917,0,3.439,3.439,0,0,1-.714-2.25ZM51.454,65a3.108,3.108,0,0,0,.343,1.546,1.2,1.2,0,0,0,2.079,0A3.085,3.085,0,0,0,54.222,65v-.878a3.074,3.074,0,0,0-.346-1.537,1.194,1.194,0,0,0-2.079,0,3.094,3.094,0,0,0-.343,1.54Zm6.456-3.873.07.933a2.117,2.117,0,0,1,.711-.784A1.832,1.832,0,0,1,59.7,61a1.54,1.54,0,0,1,.971.314,1.919,1.919,0,0,1,.616.955A2.334,2.334,0,0,1,62,61.341,1.7,1.7,0,0,1,63.051,61a1.6,1.6,0,0,1,1.381.72,3.847,3.847,0,0,1,.5,2.193V68H63.648V63.912a3.024,3.024,0,0,0-.26-1.479.845.845,0,0,0-.768-.425.94.94,0,0,0-.733.333,2.029,2.029,0,0,0-.428.885q-.006-.051.006.162t.013.308V68H60.195V63.912a2.973,2.973,0,0,0-.267-1.463.853.853,0,0,0-.774-.441,1.083,1.083,0,0,0-.692.225,1.461,1.461,0,0,0-.444.625V68H56.735V61.132Zm13.584,4.005a3.617,3.617,0,0,1-.6,2.177,1.935,1.935,0,0,1-1.657.819,1.9,1.9,0,0,1-.882-.2,1.843,1.843,0,0,1-.654-.578v3.282H66.416V61.132h1.149l.083.787a2.018,2.018,0,0,1,.667-.676A1.731,1.731,0,0,1,69.228,61a1.893,1.893,0,0,1,1.669.9,4.261,4.261,0,0,1,.6,2.387Zm-1.289-.844a3.551,3.551,0,0,0-.333-1.647,1.065,1.065,0,0,0-.993-.638,1.089,1.089,0,0,0-.7.235,1.654,1.654,0,0,0-.47.641v3.472a1.4,1.4,0,0,0,.463.594,1.212,1.212,0,0,0,.717.206,1.077,1.077,0,0,0,.993-.555,2.866,2.866,0,0,0,.327-1.463Zm5.008,3.84a2.465,2.465,0,0,1-1.961-.851,3.207,3.207,0,0,1-.736-2.177v-1a3.382,3.382,0,0,1,.72-2.222A2.269,2.269,0,0,1,75.067,61a2.154,2.154,0,0,1,1.8.8,3.365,3.365,0,0,1,.628,2.142v.889H73.8v.273a2.58,2.58,0,0,0,.39,1.469,1.257,1.257,0,0,0,1.108.581,2.253,2.253,0,0,0,.914-.168,2.568,2.568,0,0,0,.724-.492l.406.8a2.4,2.4,0,0,1-.87.6A3.156,3.156,0,0,1,75.213,68.133Zm-.146-6.151a1.016,1.016,0,0,0-.9.546,2.854,2.854,0,0,0-.375,1.383h2.418V63.65a2.232,2.232,0,0,0-.292-1.2A.949.949,0,0,0,75.067,61.982Zm5.211-2.558v1.708h1.073v.92H80.279V66.14a1.363,1.363,0,0,0,.159.759.484.484,0,0,0,.413.225,1.955,1.955,0,0,0,.282-.019q.13-.019.308-.057l.133.889a2.632,2.632,0,0,1-.486.143,2.825,2.825,0,0,1-.555.054,1.4,1.4,0,0,1-1.133-.479A2.33,2.33,0,0,1,79,66.14V62.052h-.9v-.92H79V59.424ZM85.1,68.133a2.465,2.465,0,0,1-1.961-.851,3.207,3.207,0,0,1-.736-2.177v-1a3.382,3.382,0,0,1,.72-2.222A2.269,2.269,0,0,1,84.957,61a2.154,2.154,0,0,1,1.8.8,3.365,3.365,0,0,1,.628,2.142v.889H83.688v.273a2.58,2.58,0,0,0,.39,1.469,1.257,1.257,0,0,0,1.108.581,2.253,2.253,0,0,0,.914-.168,2.568,2.568,0,0,0,.724-.492l.406.8a2.4,2.4,0,0,1-.87.6A3.156,3.156,0,0,1,85.1,68.133Zm-.146-6.151a1.016,1.016,0,0,0-.9.546,2.854,2.854,0,0,0-.375,1.383h2.418V63.65a2.232,2.232,0,0,0-.292-1.2A.949.949,0,0,0,84.957,61.982Zm4.735-.851.07,1.016a2.3,2.3,0,0,1,.724-.841,1.705,1.705,0,0,1,.99-.3,1.655,1.655,0,0,1,1.4.667,3.449,3.449,0,0,1,.5,2.069V68H92.092V63.753a2.476,2.476,0,0,0-.273-1.352.937.937,0,0,0-.825-.394,1.085,1.085,0,0,0-.7.244,1.769,1.769,0,0,0-.5.663V68H88.512V61.132Zm6.792-1.708v1.708h1.073v.92H96.484V66.14a1.363,1.363,0,0,0,.159.759.484.484,0,0,0,.413.225,1.955,1.955,0,0,0,.282-.019q.13-.019.308-.057l.133.889a2.632,2.632,0,0,1-.486.143,2.825,2.825,0,0,1-.555.054,1.4,1.4,0,0,1-1.133-.479,2.33,2.33,0,0,1-.4-1.514V62.052h-.9v-.92h.9V59.424Zm4.824,8.709a2.465,2.465,0,0,1-1.961-.851,3.207,3.207,0,0,1-.736-2.177v-1a3.382,3.382,0,0,1,.72-2.222A2.269,2.269,0,0,1,101.163,61a2.154,2.154,0,0,1,1.8.8,3.365,3.365,0,0,1,.628,2.142v.889H99.893v.273a2.58,2.58,0,0,0,.39,1.469,1.257,1.257,0,0,0,1.108.581,2.253,2.253,0,0,0,.914-.168,2.568,2.568,0,0,0,.724-.492l.406.8a2.4,2.4,0,0,1-.87.6A3.156,3.156,0,0,1,101.309,68.133Zm-.146-6.151a1.016,1.016,0,0,0-.9.546,2.854,2.854,0,0,0-.375,1.383h2.418V63.65a2.232,2.232,0,0,0-.292-1.2A.949.949,0,0,0,101.163,61.982Zm8.328,3.65.1.451h.038l1.32-4.951h1.4l-2.406,7.935a3.777,3.777,0,0,1-.654,1.209,1.453,1.453,0,0,1-1.187.5,1.8,1.8,0,0,1-.34-.035q-.181-.035-.359-.079l.14-.952q.07.013.19.025t.19.013a.684.684,0,0,0,.594-.321,2.52,2.52,0,0,0,.34-.759l.229-.7-2.12-6.836h1.4ZM3.123,85.156a1.045,1.045,0,0,0,.813-.371,1.44,1.44,0,0,0,.33-.993H5.421l.013.038a2.117,2.117,0,0,1-.657,1.638,2.279,2.279,0,0,1-1.654.667,2.349,2.349,0,0,1-1.965-.87,3.48,3.48,0,0,1-.682-2.215V82.1a3.507,3.507,0,0,1,.682-2.222A2.335,2.335,0,0,1,3.117,79a2.211,2.211,0,0,1,1.692.7,2.462,2.462,0,0,1,.632,1.8l-.019.038H4.266a1.864,1.864,0,0,0-.314-1.123.983.983,0,0,0-.835-.432,1.08,1.08,0,0,0-1.044.6A3.3,3.3,0,0,0,1.765,82.1v.948a3.288,3.288,0,0,0,.308,1.521A1.087,1.087,0,0,0,3.123,85.156Zm3.206-3.021a3.457,3.457,0,0,1,.714-2.247A2.383,2.383,0,0,1,9,79a2.389,2.389,0,0,1,1.955.879,3.444,3.444,0,0,1,.717,2.25v.876a3.439,3.439,0,0,1-.714,2.25,2.387,2.387,0,0,1-1.952.873,2.4,2.4,0,0,1-1.965-.873,3.439,3.439,0,0,1-.714-2.25ZM7.617,83a3.108,3.108,0,0,0,.343,1.546,1.2,1.2,0,0,0,2.079,0A3.085,3.085,0,0,0,10.385,83v-.878a3.074,3.074,0,0,0-.346-1.537,1.194,1.194,0,0,0-2.079,0,3.094,3.094,0,0,0-.343,1.54Zm6.456-3.873.07.933a2.117,2.117,0,0,1,.711-.784A1.832,1.832,0,0,1,15.863,79a1.54,1.54,0,0,1,.971.314,1.919,1.919,0,0,1,.616.955,2.334,2.334,0,0,1,.711-.933A1.7,1.7,0,0,1,19.214,79a1.6,1.6,0,0,1,1.381.72,3.847,3.847,0,0,1,.5,2.193V86H19.811V81.912a3.024,3.024,0,0,0-.26-1.479.845.845,0,0,0-.768-.425.94.94,0,0,0-.733.333,2.029,2.029,0,0,0-.428.885q-.006-.051.006.162t.013.308V86H16.358V81.912a2.973,2.973,0,0,0-.267-1.463.853.853,0,0,0-.774-.441,1.083,1.083,0,0,0-.692.225,1.461,1.461,0,0,0-.444.625V86H12.9V79.132Zm13.584,4.005a3.617,3.617,0,0,1-.6,2.177,1.935,1.935,0,0,1-1.657.819,1.9,1.9,0,0,1-.882-.2,1.843,1.843,0,0,1-.654-.578v3.282H22.579V79.132h1.149l.083.787a2.018,2.018,0,0,1,.667-.676A1.731,1.731,0,0,1,25.391,79a1.893,1.893,0,0,1,1.669.9,4.261,4.261,0,0,1,.6,2.387Zm-1.289-.844a3.551,3.551,0,0,0-.333-1.647,1.065,1.065,0,0,0-.993-.638,1.089,1.089,0,0,0-.7.235,1.654,1.654,0,0,0-.47.641v3.472a1.4,1.4,0,0,0,.463.594,1.212,1.212,0,0,0,.717.206,1.077,1.077,0,0,0,.993-.555,2.866,2.866,0,0,0,.327-1.463Zm5.484-2.076-.6-.032a.945.945,0,0,0-.663.241,1.527,1.527,0,0,0-.4.679V86H28.895V79.132h1.174l.1,1.035a2.183,2.183,0,0,1,.565-.854A1.183,1.183,0,0,1,31.535,79a1.582,1.582,0,0,1,.26.022.985.985,0,0,1,.209.054Zm.679,1.917a3.457,3.457,0,0,1,.714-2.247,2.614,2.614,0,0,1,3.913,0,3.444,3.444,0,0,1,.717,2.25v.876a3.439,3.439,0,0,1-.714,2.25,2.633,2.633,0,0,1-3.917,0,3.439,3.439,0,0,1-.714-2.25ZM33.82,83a3.108,3.108,0,0,0,.343,1.546,1.2,1.2,0,0,0,2.079,0A3.085,3.085,0,0,0,36.588,83v-.878a3.074,3.074,0,0,0-.346-1.537,1.194,1.194,0,0,0-2.079,0,3.094,3.094,0,0,0-.343,1.54Zm6.456-3.873.07.933a2.117,2.117,0,0,1,.711-.784A1.832,1.832,0,0,1,42.066,79a1.54,1.54,0,0,1,.971.314,1.919,1.919,0,0,1,.616.955,2.334,2.334,0,0,1,.711-.933A1.7,1.7,0,0,1,45.417,79a1.6,1.6,0,0,1,1.381.72,3.847,3.847,0,0,1,.5,2.193V86H46.014V81.912a3.024,3.024,0,0,0-.26-1.479.845.845,0,0,0-.768-.425.94.94,0,0,0-.733.333,2.029,2.029,0,0,0-.428.885q-.006-.051.006.162t.013.308V86H42.561V81.912a2.973,2.973,0,0,0-.267-1.463.853.853,0,0,0-.774-.441,1.083,1.083,0,0,0-.692.225,1.461,1.461,0,0,0-.444.625V86H39.1V79.132Zm10.988,7a2.465,2.465,0,0,1-1.961-.851,3.207,3.207,0,0,1-.736-2.177v-1a3.382,3.382,0,0,1,.72-2.222A2.269,2.269,0,0,1,51.118,79a2.154,2.154,0,0,1,1.8.8,3.365,3.365,0,0,1,.628,2.142v.889H49.848v.273a2.58,2.58,0,0,0,.39,1.469,1.257,1.257,0,0,0,1.108.581,2.253,2.253,0,0,0,.914-.168,2.568,2.568,0,0,0,.724-.492l.406.8a2.4,2.4,0,0,1-.87.6A3.156,3.156,0,0,1,51.264,86.133Zm-.146-6.151a1.016,1.016,0,0,0-.9.546,2.854,2.854,0,0,0-.375,1.383h2.418V81.65a2.232,2.232,0,0,0-.292-1.2A.949.949,0,0,0,51.118,79.982Zm5.211-2.558v1.708H57.4v.92H56.329V84.14a1.363,1.363,0,0,0,.159.759.484.484,0,0,0,.413.225,1.955,1.955,0,0,0,.282-.019q.13-.019.308-.057l.133.889a2.631,2.631,0,0,1-.486.143,2.825,2.825,0,0,1-.555.054,1.4,1.4,0,0,1-1.133-.479,2.33,2.33,0,0,1-.4-1.514V80.052h-.9v-.92h.9V77.424ZM60.042,86H58.754V79.132h1.289Zm0-8.671H58.754V76.1h1.289Zm1.32,5.319A5.145,5.145,0,0,1,61.956,80a1.852,1.852,0,0,1,1.673-1,1.7,1.7,0,0,1,.86.216,1.954,1.954,0,0,1,.651.622V76.1h1.282V86H65.3l-.1-.787a1.946,1.946,0,0,1-.67.686,1.754,1.754,0,0,1-.911.235,1.879,1.879,0,0,1-1.666-.914,4.422,4.422,0,0,1-.594-2.437Zm1.289.133a3.956,3.956,0,0,0,.311,1.72,1.031,1.031,0,0,0,.984.635,1.132,1.132,0,0,0,.714-.229,1.629,1.629,0,0,0,.479-.641V80.928a1.783,1.783,0,0,0-.479-.673,1.057,1.057,0,0,0-.7-.248,1.045,1.045,0,0,0-.99.73,4.847,4.847,0,0,0-.317,1.911Zm5.015-.647a3.457,3.457,0,0,1,.714-2.247,2.614,2.614,0,0,1,3.913,0,3.444,3.444,0,0,1,.717,2.25v.876a3.439,3.439,0,0,1-.714,2.25,2.633,2.633,0,0,1-3.917,0,3.439,3.439,0,0,1-.714-2.25ZM68.955,83a3.108,3.108,0,0,0,.343,1.546,1.2,1.2,0,0,0,2.079,0A3.085,3.085,0,0,0,71.722,83v-.878a3.074,3.074,0,0,0-.346-1.537,1.194,1.194,0,0,0-2.079,0,3.094,3.094,0,0,0-.343,1.54Zm6.456,2.843L74.6,87.72h-.768L74.21,85.8V84.642h1.2Zm3.936-3.555a4.212,4.212,0,0,1,.606-2.384,1.92,1.92,0,0,1,1.685-.9,1.7,1.7,0,0,1,.914.244,2.066,2.066,0,0,1,.673.708l.1-.825H84.43v6.836a2.885,2.885,0,0,1-.7,2.063,2.563,2.563,0,0,1-1.958.743,3.822,3.822,0,0,1-1.8-.5l.273-.965a2.932,2.932,0,0,0,1.517.419,1.223,1.223,0,0,0,1.044-.451,2.171,2.171,0,0,0,.34-1.32V85.34a1.745,1.745,0,0,1-1.517.793,1.961,1.961,0,0,1-1.676-.822,3.592,3.592,0,0,1-.6-2.174Zm1.289.844a2.878,2.878,0,0,0,.317,1.457,1.072,1.072,0,0,0,1,.543,1.177,1.177,0,0,0,.714-.216,1.546,1.546,0,0,0,.479-.609V80.89a1.8,1.8,0,0,0-.482-.644,1.118,1.118,0,0,0-1.7.4,3.606,3.606,0,0,0-.327,1.65Zm7.744,3a2.465,2.465,0,0,1-1.961-.851,3.207,3.207,0,0,1-.736-2.177v-1a3.382,3.382,0,0,1,.72-2.222A2.269,2.269,0,0,1,88.232,79a2.154,2.154,0,0,1,1.8.8,3.365,3.365,0,0,1,.628,2.142v.889H86.963v.273a2.58,2.58,0,0,0,.39,1.469,1.257,1.257,0,0,0,1.108.581,2.253,2.253,0,0,0,.914-.168A2.568,2.568,0,0,0,90.1,84.5l.406.8a2.4,2.4,0,0,1-.87.6A3.156,3.156,0,0,1,88.378,86.133Zm-.146-6.151a1.016,1.016,0,0,0-.9.546,2.854,2.854,0,0,0-.375,1.383h2.418V81.65a2.232,2.232,0,0,0-.292-1.2A.949.949,0,0,0,88.232,79.982Zm4.735-.851.07,1.016a2.3,2.3,0,0,1,.724-.841,1.705,1.705,0,0,1,.99-.3,1.655,1.655,0,0,1,1.4.667,3.449,3.449,0,0,1,.5,2.069V86H95.367V81.753a2.476,2.476,0,0,0-.273-1.352.937.937,0,0,0-.825-.394,1.085,1.085,0,0,0-.7.244,1.769,1.769,0,0,0-.5.663V86H91.787V79.132Zm7.63,7a2.465,2.465,0,0,1-1.961-.851,3.207,3.207,0,0,1-.736-2.177v-1a3.382,3.382,0,0,1,.72-2.222A2.269,2.269,0,0,1,100.452,79a2.154,2.154,0,0,1,1.8.8,3.365,3.365,0,0,1,.628,2.142v.889H99.182v.273a2.58,2.58,0,0,0,.39,1.469,1.257,1.257,0,0,0,1.108.581,2.253,2.253,0,0,0,.914-.168,2.568,2.568,0,0,0,.724-.492l.406.8a2.4,2.4,0,0,1-.87.6A3.156,3.156,0,0,1,100.6,86.133Zm-.146-6.151a1.016,1.016,0,0,0-.9.546,2.854,2.854,0,0,0-.375,1.383H101.6V81.65a2.232,2.232,0,0,0-.292-1.2A.949.949,0,0,0,100.452,79.982Zm6.525.235-.6-.032a.945.945,0,0,0-.663.241,1.527,1.527,0,0,0-.4.679V86h-1.289V79.132h1.174l.1,1.035a2.183,2.183,0,0,1,.565-.854A1.183,1.183,0,0,1,106.66,79a1.582,1.582,0,0,1,.26.022.985.985,0,0,1,.209.054ZM111.535,86q-.07-.235-.114-.46a3.284,3.284,0,0,1-.057-.454,2.451,2.451,0,0,1-.717.755,1.673,1.673,0,0,1-.958.292,1.734,1.734,0,0,1-1.362-.549,2.12,2.12,0,0,1-.492-1.469,1.909,1.909,0,0,1,.67-1.546,2.846,2.846,0,0,1,1.882-.562h.958v-.7a1.525,1.525,0,0,0-.279-.975,1.057,1.057,0,0,0-1.539-.035,1.138,1.138,0,0,0-.282.788l-1.225-.006L108,81.042a1.785,1.785,0,0,1,.635-1.416,2.424,2.424,0,0,1,1.72-.621,2.294,2.294,0,0,1,1.647.6,2.247,2.247,0,0,1,.632,1.711V84.5a6.063,6.063,0,0,0,.048.771,4.442,4.442,0,0,0,.156.727Zm-1.555-.844a1.373,1.373,0,0,0,.822-.268,1.581,1.581,0,0,0,.543-.67v-1.41h-.978a1.145,1.145,0,0,0-.917.38,1.374,1.374,0,0,0-.327.929,1.2,1.2,0,0,0,.222.753A.755.755,0,0,0,109.979,85.156Zm5.288-6.024.07,1.016a2.3,2.3,0,0,1,.724-.841,1.705,1.705,0,0,1,.99-.3,1.655,1.655,0,0,1,1.4.667,3.449,3.449,0,0,1,.5,2.069V86h-1.289V81.753a2.476,2.476,0,0,0-.273-1.352.937.937,0,0,0-.825-.394,1.085,1.085,0,0,0-.7.244,1.769,1.769,0,0,0-.5.663V86h-1.289V79.132Zm4.907,3.517A5.145,5.145,0,0,1,120.767,80a1.852,1.852,0,0,1,1.673-1,1.7,1.7,0,0,1,.86.216,1.954,1.954,0,0,1,.651.622V76.1h1.282V86h-1.124l-.1-.787a1.946,1.946,0,0,1-.67.686,1.754,1.754,0,0,1-.911.235,1.879,1.879,0,0,1-1.666-.914,4.422,4.422,0,0,1-.594-2.437Zm1.289.133a3.956,3.956,0,0,0,.311,1.72,1.031,1.031,0,0,0,.984.635,1.132,1.132,0,0,0,.714-.229,1.629,1.629,0,0,0,.479-.641V80.928a1.783,1.783,0,0,0-.479-.673,1.057,1.057,0,0,0-.7-.248,1.045,1.045,0,0,0-.99.73,4.847,4.847,0,0,0-.317,1.911Zm5.015-.647a3.457,3.457,0,0,1,.714-2.247,2.614,2.614,0,0,1,3.913,0,3.444,3.444,0,0,1,.717,2.25v.876a3.439,3.439,0,0,1-.714,2.25,2.633,2.633,0,0,1-3.917,0,3.439,3.439,0,0,1-.714-2.25Zm1.289.871a3.108,3.108,0,0,0,.343,1.546,1.2,1.2,0,0,0,2.079,0A3.085,3.085,0,0,0,130.533,83v-.878a3.074,3.074,0,0,0-.346-1.537,1.194,1.194,0,0,0-2.079,0,3.094,3.094,0,0,0-.343,1.54ZM5.821,101.137a3.642,3.642,0,0,1-.59,2.18,1.933,1.933,0,0,1-1.663.816,1.819,1.819,0,0,1-.943-.238,1.926,1.926,0,0,1-.676-.7l-.1.806H.736V94.1H2.025v3.758a1.9,1.9,0,0,1,.647-.632A1.739,1.739,0,0,1,3.555,97a1.905,1.905,0,0,1,1.676.873,4.088,4.088,0,0,1,.59,2.326ZM4.539,100.2a3.457,3.457,0,0,0-.314-1.593,1.046,1.046,0,0,0-.993-.6,1.092,1.092,0,0,0-.733.257,1.716,1.716,0,0,0-.473.689v3.3a1.514,1.514,0,0,0,.476.651,1.191,1.191,0,0,0,.743.232,1.052,1.052,0,0,0,.987-.54,2.948,2.948,0,0,0,.308-1.46Zm5,3.929a2.465,2.465,0,0,1-1.961-.851,3.207,3.207,0,0,1-.736-2.177v-1a3.382,3.382,0,0,1,.72-2.222A2.269,2.269,0,0,1,9.388,97a2.154,2.154,0,0,1,1.8.8,3.365,3.365,0,0,1,.628,2.142v.889H8.119v.273a2.58,2.58,0,0,0,.39,1.469,1.257,1.257,0,0,0,1.108.581,2.253,2.253,0,0,0,.914-.168,2.568,2.568,0,0,0,.724-.492l.406.8a2.4,2.4,0,0,1-.87.6A3.156,3.156,0,0,1,9.534,104.133Zm-.146-6.151a1.016,1.016,0,0,0-.9.546,2.854,2.854,0,0,0-.375,1.383h2.418V99.65a2.232,2.232,0,0,0-.292-1.2A.949.949,0,0,0,9.388,97.982Zm4.735-.851.07,1.016a2.3,2.3,0,0,1,.724-.841,1.705,1.705,0,0,1,.99-.3,1.655,1.655,0,0,1,1.4.667,3.449,3.449,0,0,1,.5,2.069V104H16.523V99.753A2.476,2.476,0,0,0,16.25,98.4a.937.937,0,0,0-.825-.394,1.085,1.085,0,0,0-.7.244,1.769,1.769,0,0,0-.5.663V104H12.943V97.132Zm7.63,7a2.465,2.465,0,0,1-1.961-.851,3.207,3.207,0,0,1-.736-2.177v-1a3.382,3.382,0,0,1,.72-2.222A2.269,2.269,0,0,1,21.607,97a2.154,2.154,0,0,1,1.8.8,3.365,3.365,0,0,1,.628,2.142v.889H20.338v.273a2.58,2.58,0,0,0,.39,1.469,1.257,1.257,0,0,0,1.108.581,2.253,2.253,0,0,0,.914-.168,2.568,2.568,0,0,0,.724-.492l.406.8a2.4,2.4,0,0,1-.87.6A3.156,3.156,0,0,1,21.753,104.133Zm-.146-6.151a1.016,1.016,0,0,0-.9.546,2.854,2.854,0,0,0-.375,1.383h2.418V99.65a2.232,2.232,0,0,0-.292-1.2A.949.949,0,0,0,21.607,97.982ZM25.518,104V98.052h-.9v-.92h.9v-.7a2.517,2.517,0,0,1,.619-1.822,2.283,2.283,0,0,1,1.723-.641,3.273,3.273,0,0,1,.79.1,6.751,6.751,0,0,1,.86.282l-.2,1a4.269,4.269,0,0,0-.647-.225,2.849,2.849,0,0,0-.717-.086,1.039,1.039,0,0,0-.863.349,1.643,1.643,0,0,0-.279,1.041v.7h1.162v.92H26.806V104Zm4.6,0H28.831V97.132H30.12Zm3.948-.844a1.045,1.045,0,0,0,.813-.371,1.44,1.44,0,0,0,.33-.993h1.155l.013.038a2.117,2.117,0,0,1-.657,1.638,2.279,2.279,0,0,1-1.654.667,2.349,2.349,0,0,1-1.965-.87,3.48,3.48,0,0,1-.682-2.215V100.1a3.507,3.507,0,0,1,.682-2.222A2.335,2.335,0,0,1,34.062,97a2.211,2.211,0,0,1,1.692.7,2.462,2.462,0,0,1,.632,1.8l-.019.038H35.21a1.864,1.864,0,0,0-.314-1.123.983.983,0,0,0-.835-.432,1.08,1.08,0,0,0-1.044.6,3.3,3.3,0,0,0-.308,1.514v.948a3.288,3.288,0,0,0,.308,1.521A1.087,1.087,0,0,0,34.068,103.156ZM38.9,104H37.61V97.132H38.9Zm0-8.671H37.61V94.1H38.9Zm1.308,4.805a3.457,3.457,0,0,1,.714-2.247,2.614,2.614,0,0,1,3.913,0,3.444,3.444,0,0,1,.717,2.25v.876a3.439,3.439,0,0,1-.714,2.25,2.633,2.633,0,0,1-3.917,0,3.439,3.439,0,0,1-.714-2.25Zm1.289.871a3.108,3.108,0,0,0,.343,1.546,1.2,1.2,0,0,0,2.079,0A3.085,3.085,0,0,0,44.262,101v-.878a3.074,3.074,0,0,0-.346-1.537,1.194,1.194,0,0,0-2.079,0,3.094,3.094,0,0,0-.343,1.54Zm8.48,1.275a.943.943,0,0,0-.263-.676,3.349,3.349,0,0,0-.993-.606,5.1,5.1,0,0,1-1.571-.879,1.562,1.562,0,0,1-.511-1.209,1.739,1.739,0,0,1,.625-1.349A2.379,2.379,0,0,1,48.9,97a2.344,2.344,0,0,1,1.688.6,1.9,1.9,0,0,1,.6,1.495l-.013.038H49.943a1.322,1.322,0,0,0-.276-.841.918.918,0,0,0-.765-.352,1.01,1.01,0,0,0-.752.273.883.883,0,0,0-.27.641.834.834,0,0,0,.232.622,4.167,4.167,0,0,0,1,.6,4.635,4.635,0,0,1,1.6.879,1.652,1.652,0,0,1,.524,1.26,1.709,1.709,0,0,1-.647,1.384,2.59,2.59,0,0,1-1.7.533,2.439,2.439,0,0,1-1.79-.644,1.943,1.943,0,0,1-.622-1.508l.013-.038h1.2a1.274,1.274,0,0,0,.368.962,1.258,1.258,0,0,0,.851.3,1.122,1.122,0,0,0,.784-.257A.856.856,0,0,0,49.975,102.28Zm10.366-1.143a3.617,3.617,0,0,1-.6,2.177,1.935,1.935,0,0,1-1.657.819,1.9,1.9,0,0,1-.882-.2,1.843,1.843,0,0,1-.654-.578v3.282H55.263V97.132h1.149l.083.787a2.018,2.018,0,0,1,.667-.676A1.731,1.731,0,0,1,58.075,97a1.893,1.893,0,0,1,1.669.9,4.261,4.261,0,0,1,.6,2.387Zm-1.289-.844a3.551,3.551,0,0,0-.333-1.647,1.065,1.065,0,0,0-.993-.638,1.089,1.089,0,0,0-.7.235,1.654,1.654,0,0,0-.47.641v3.472a1.4,1.4,0,0,0,.463.594,1.212,1.212,0,0,0,.717.206,1.077,1.077,0,0,0,.993-.555,2.866,2.866,0,0,0,.327-1.463ZM65.076,104q-.07-.235-.114-.46a3.284,3.284,0,0,1-.057-.454,2.451,2.451,0,0,1-.717.755,1.673,1.673,0,0,1-.958.292,1.734,1.734,0,0,1-1.362-.549,2.12,2.12,0,0,1-.492-1.469,1.909,1.909,0,0,1,.67-1.546,2.846,2.846,0,0,1,1.882-.562h.958v-.7a1.525,1.525,0,0,0-.279-.975,1.057,1.057,0,0,0-1.539-.035,1.138,1.138,0,0,0-.282.788L61.56,99.08l-.019-.038a1.785,1.785,0,0,1,.635-1.416A2.424,2.424,0,0,1,63.9,97a2.294,2.294,0,0,1,1.647.6,2.247,2.247,0,0,1,.632,1.711V102.5a6.063,6.063,0,0,0,.048.771,4.442,4.442,0,0,0,.156.727Zm-1.555-.844a1.373,1.373,0,0,0,.822-.268,1.581,1.581,0,0,0,.543-.67v-1.41h-.978a1.145,1.145,0,0,0-.917.38,1.374,1.374,0,0,0-.327.929,1.2,1.2,0,0,0,.222.753A.755.755,0,0,0,63.521,103.156ZM70.6,98.217l-.6-.032a.945.945,0,0,0-.663.241,1.527,1.527,0,0,0-.4.679V104H67.641V97.132h1.174l.1,1.035a2.183,2.183,0,0,1,.565-.854A1.183,1.183,0,0,1,70.281,97a1.582,1.582,0,0,1,.26.022.985.985,0,0,1,.209.054ZM75.156,104q-.07-.235-.114-.46a3.284,3.284,0,0,1-.057-.454,2.451,2.451,0,0,1-.717.755,1.673,1.673,0,0,1-.958.292,1.734,1.734,0,0,1-1.362-.549,2.12,2.12,0,0,1-.492-1.469,1.909,1.909,0,0,1,.67-1.546,2.846,2.846,0,0,1,1.882-.562h.958v-.7a1.525,1.525,0,0,0-.279-.975,1.057,1.057,0,0,0-1.539-.035,1.138,1.138,0,0,0-.282.788L71.64,99.08l-.019-.038a1.785,1.785,0,0,1,.635-1.416A2.424,2.424,0,0,1,73.976,97a2.294,2.294,0,0,1,1.647.6,2.247,2.247,0,0,1,.632,1.711V102.5a6.063,6.063,0,0,0,.048.771,4.442,4.442,0,0,0,.156.727Zm-1.555-.844a1.373,1.373,0,0,0,.822-.268,1.581,1.581,0,0,0,.543-.67v-1.41h-.978a1.145,1.145,0,0,0-.917.38,1.374,1.374,0,0,0-.327.929,1.2,1.2,0,0,0,.222.753A.755.755,0,0,0,73.6,103.156Zm8.119-6.024.07,1.016a2.3,2.3,0,0,1,.724-.841,1.705,1.705,0,0,1,.99-.3,1.655,1.655,0,0,1,1.4.667,3.449,3.449,0,0,1,.5,2.069V104H84.119V99.753a2.476,2.476,0,0,0-.273-1.352.937.937,0,0,0-.825-.394,1.085,1.085,0,0,0-.7.244,1.769,1.769,0,0,0-.5.663V104H80.539V97.132Zm8.772,5.948a2.062,2.062,0,0,1-.7.781,1.77,1.77,0,0,1-.978.273,1.694,1.694,0,0,1-1.454-.717,3.82,3.82,0,0,1-.521-2.228V97.132h1.282V101.2a3.228,3.228,0,0,0,.251,1.495.813.813,0,0,0,.752.441,1.365,1.365,0,0,0,.8-.222,1.529,1.529,0,0,0,.511-.635V97.132h1.289V104H90.575Zm5.173,1.054a2.465,2.465,0,0,1-1.961-.851,3.207,3.207,0,0,1-.736-2.177v-1a3.382,3.382,0,0,1,.72-2.222A2.269,2.269,0,0,1,95.52,97a2.154,2.154,0,0,1,1.8.8,3.365,3.365,0,0,1,.628,2.142v.889H94.25v.273a2.58,2.58,0,0,0,.39,1.469,1.257,1.257,0,0,0,1.108.581,2.253,2.253,0,0,0,.914-.168,2.568,2.568,0,0,0,.724-.492l.406.8a2.4,2.4,0,0,1-.87.6A3.156,3.156,0,0,1,95.666,104.133Zm-.146-6.151a1.016,1.016,0,0,0-.9.546,2.854,2.854,0,0,0-.375,1.383h2.418V99.65a2.232,2.232,0,0,0-.292-1.2A.949.949,0,0,0,95.52,97.982Zm6.767,4.3a.943.943,0,0,0-.263-.676,3.349,3.349,0,0,0-.993-.606,5.1,5.1,0,0,1-1.571-.879,1.562,1.562,0,0,1-.511-1.209,1.739,1.739,0,0,1,.625-1.349A2.379,2.379,0,0,1,101.213,97a2.344,2.344,0,0,1,1.688.6,1.9,1.9,0,0,1,.6,1.495l-.013.038h-1.238a1.322,1.322,0,0,0-.276-.841.918.918,0,0,0-.765-.352,1.01,1.01,0,0,0-.752.273.883.883,0,0,0-.27.641.834.834,0,0,0,.232.622,4.167,4.167,0,0,0,1,.6,4.635,4.635,0,0,1,1.6.879,1.652,1.652,0,0,1,.524,1.26,1.709,1.709,0,0,1-.647,1.384,2.59,2.59,0,0,1-1.7.533,2.439,2.439,0,0,1-1.79-.644,1.943,1.943,0,0,1-.622-1.508l.013-.038H100a1.274,1.274,0,0,0,.368.962,1.258,1.258,0,0,0,.851.3,1.122,1.122,0,0,0,.784-.257A.856.856,0,0,0,102.286,102.28Zm4.1-6.855v1.708h1.073v.92h-1.073v4.088a1.363,1.363,0,0,0,.159.759.484.484,0,0,0,.413.225,1.955,1.955,0,0,0,.282-.019q.13-.019.308-.057l.133.889a2.632,2.632,0,0,1-.486.143,2.825,2.825,0,0,1-.555.054,1.4,1.4,0,0,1-1.133-.479,2.33,2.33,0,0,1-.4-1.514V98.052h-.9v-.92h.9V95.424Zm5.3,2.793-.6-.032a.945.945,0,0,0-.663.241,1.527,1.527,0,0,0-.4.679V104h-1.289V97.132H109.9l.1,1.035a2.183,2.183,0,0,1,.565-.854A1.183,1.183,0,0,1,111.37,97a1.582,1.582,0,0,1,.26.022.985.985,0,0,1,.209.054Zm.679,1.917a3.457,3.457,0,0,1,.714-2.247,2.614,2.614,0,0,1,3.913,0,3.444,3.444,0,0,1,.717,2.25v.876a3.439,3.439,0,0,1-.714,2.25,2.633,2.633,0,0,1-3.917,0,3.439,3.439,0,0,1-.714-2.25Zm1.289.871a3.108,3.108,0,0,0,.343,1.546,1.2,1.2,0,0,0,2.079,0,3.085,3.085,0,0,0,.346-1.546v-.878a3.074,3.074,0,0,0-.346-1.537,1.194,1.194,0,0,0-2.079,0,3.094,3.094,0,0,0-.343,1.54Zm8.48,1.275a.943.943,0,0,0-.263-.676,3.349,3.349,0,0,0-.993-.606,5.1,5.1,0,0,1-1.571-.879,1.562,1.562,0,0,1-.511-1.209,1.739,1.739,0,0,1,.625-1.349A2.379,2.379,0,0,1,121.063,97a2.344,2.344,0,0,1,1.688.6,1.9,1.9,0,0,1,.6,1.495l-.013.038H122.1a1.322,1.322,0,0,0-.276-.841.918.918,0,0,0-.765-.352,1.01,1.01,0,0,0-.752.273.883.883,0,0,0-.27.641.834.834,0,0,0,.232.622,4.167,4.167,0,0,0,1,.6,4.635,4.635,0,0,1,1.6.879,1.652,1.652,0,0,1,.524,1.26,1.709,1.709,0,0,1-.647,1.384,2.59,2.59,0,0,1-1.7.533,2.439,2.439,0,0,1-1.79-.644,1.943,1.943,0,0,1-.622-1.508l.013-.038h1.2a1.274,1.274,0,0,0,.368.962,1.258,1.258,0,0,0,.851.3,1.122,1.122,0,0,0,.784-.257A.856.856,0,0,0,122.135,102.28Zm7.674.876a1.045,1.045,0,0,0,.813-.371,1.44,1.44,0,0,0,.33-.993h1.155l.013.038a2.117,2.117,0,0,1-.657,1.638,2.279,2.279,0,0,1-1.654.667,2.349,2.349,0,0,1-1.965-.87,3.48,3.48,0,0,1-.682-2.215V100.1a3.507,3.507,0,0,1,.682-2.222A2.335,2.335,0,0,1,129.8,97a2.211,2.211,0,0,1,1.692.7,2.462,2.462,0,0,1,.632,1.8l-.019.038h-1.155a1.864,1.864,0,0,0-.314-1.123.983.983,0,0,0-.835-.432,1.08,1.08,0,0,0-1.044.6,3.3,3.3,0,0,0-.308,1.514v.948a3.288,3.288,0,0,0,.308,1.521A1.087,1.087,0,0,0,129.81,103.156Zm4.831.844h-1.289V94.1h1.289Zm2.933,0h-1.289V97.132h1.289Zm0-8.671h-1.289V94.1h1.289Zm4.043,8.8a2.465,2.465,0,0,1-1.961-.851,3.207,3.207,0,0,1-.736-2.177v-1a3.382,3.382,0,0,1,.72-2.222A2.269,2.269,0,0,1,141.47,97a2.154,2.154,0,0,1,1.8.8,3.365,3.365,0,0,1,.628,2.142v.889H140.2v.273a2.58,2.58,0,0,0,.39,1.469,1.257,1.257,0,0,0,1.108.581,2.253,2.253,0,0,0,.914-.168,2.568,2.568,0,0,0,.724-.492l.406.8a2.4,2.4,0,0,1-.87.6A3.156,3.156,0,0,1,141.616,104.133Zm-.146-6.151a1.016,1.016,0,0,0-.9.546,2.854,2.854,0,0,0-.375,1.383h2.418V99.65a2.232,2.232,0,0,0-.292-1.2A.949.949,0,0,0,141.47,97.982Zm4.735-.851.07,1.016a2.3,2.3,0,0,1,.724-.841,1.705,1.705,0,0,1,.99-.3,1.655,1.655,0,0,1,1.4.667,3.449,3.449,0,0,1,.5,2.069V104H148.6V99.753a2.476,2.476,0,0,0-.273-1.352.937.937,0,0,0-.825-.394,1.085,1.085,0,0,0-.7.244,1.769,1.769,0,0,0-.5.663V104h-1.289V97.132ZM153,95.424v1.708h1.073v.92H153v4.088a1.363,1.363,0,0,0,.159.759.484.484,0,0,0,.413.225,1.955,1.955,0,0,0,.282-.019q.13-.019.308-.057l.133.889a2.631,2.631,0,0,1-.486.143,2.825,2.825,0,0,1-.555.054,1.4,1.4,0,0,1-1.133-.479,2.33,2.33,0,0,1-.4-1.514V98.052h-.9v-.92h.9V95.424Zm4.824,8.709a2.465,2.465,0,0,1-1.961-.851,3.207,3.207,0,0,1-.736-2.177v-1a3.382,3.382,0,0,1,.72-2.222A2.269,2.269,0,0,1,157.676,97a2.154,2.154,0,0,1,1.8.8,3.365,3.365,0,0,1,.628,2.142v.889h-3.694v.273a2.58,2.58,0,0,0,.39,1.469,1.257,1.257,0,0,0,1.108.581,2.253,2.253,0,0,0,.914-.168,2.568,2.568,0,0,0,.724-.492l.406.8a2.4,2.4,0,0,1-.87.6A3.156,3.156,0,0,1,157.822,104.133Zm-.146-6.151a1.016,1.016,0,0,0-.9.546,2.854,2.854,0,0,0-.375,1.383h2.418V99.65a2.232,2.232,0,0,0-.292-1.2A.949.949,0,0,0,157.676,97.982Zm6.767,4.3a.943.943,0,0,0-.263-.676,3.349,3.349,0,0,0-.993-.606,5.1,5.1,0,0,1-1.571-.879,1.562,1.562,0,0,1-.511-1.209,1.739,1.739,0,0,1,.625-1.349A2.379,2.379,0,0,1,163.37,97a2.344,2.344,0,0,1,1.688.6,1.9,1.9,0,0,1,.6,1.495l-.013.038h-1.238a1.322,1.322,0,0,0-.276-.841.918.918,0,0,0-.765-.352,1.01,1.01,0,0,0-.752.273.883.883,0,0,0-.27.641.834.834,0,0,0,.232.622,4.167,4.167,0,0,0,1,.6,4.635,4.635,0,0,1,1.6.879,1.652,1.652,0,0,1,.524,1.26,1.709,1.709,0,0,1-.647,1.384,2.59,2.59,0,0,1-1.7.533,2.439,2.439,0,0,1-1.79-.644,1.943,1.943,0,0,1-.622-1.508l.013-.038h1.2a1.274,1.274,0,0,0,.368.962,1.258,1.258,0,0,0,.851.3,1.122,1.122,0,0,0,.784-.257A.856.856,0,0,0,164.442,102.28Zm3.631,1.568-.806,1.873H166.5l.375-1.917v-1.162h1.2ZM2.107,122H.819v-6.868H2.107Zm0-8.671H.819V112.1H2.107Zm2.729,1.8.07,1.016a2.3,2.3,0,0,1,.724-.841,1.705,1.705,0,0,1,.99-.3,1.655,1.655,0,0,1,1.4.667,3.449,3.449,0,0,1,.5,2.069V122H7.236v-4.247a2.476,2.476,0,0,0-.273-1.352.937.937,0,0,0-.825-.394,1.085,1.085,0,0,0-.7.244,1.769,1.769,0,0,0-.5.663V122H3.656v-6.868Zm7.141,4.805.108.533h.038l.108-.533,1.168-4.805h1.327L12.67,122H11.534l-2.069-6.868H10.8Zm6.068,2.2a2.465,2.465,0,0,1-1.961-.851,3.207,3.207,0,0,1-.736-2.177v-1a3.382,3.382,0,0,1,.72-2.222A2.269,2.269,0,0,1,17.9,115a2.154,2.154,0,0,1,1.8.8,3.365,3.365,0,0,1,.628,2.142v.889H16.631v.273a2.58,2.58,0,0,0,.39,1.469,1.257,1.257,0,0,0,1.108.581,2.253,2.253,0,0,0,.914-.168,2.568,2.568,0,0,0,.724-.492l.406.8a2.4,2.4,0,0,1-.87.6A3.156,3.156,0,0,1,18.046,122.133Zm-.146-6.151a1.016,1.016,0,0,0-.9.546,2.854,2.854,0,0,0-.375,1.383h2.418v-.262a2.232,2.232,0,0,0-.292-1.2A.949.949,0,0,0,17.9,115.982Zm6.525.235-.6-.032a.945.945,0,0,0-.663.241,1.527,1.527,0,0,0-.4.679V122H21.468v-6.868h1.174l.1,1.035a2.183,2.183,0,0,1,.565-.854,1.183,1.183,0,0,1,.806-.308,1.582,1.582,0,0,1,.26.022.985.985,0,0,1,.209.054Zm4.259,4.063a.943.943,0,0,0-.263-.676,3.349,3.349,0,0,0-.993-.606,5.1,5.1,0,0,1-1.571-.879,1.562,1.562,0,0,1-.511-1.209,1.739,1.739,0,0,1,.625-1.349A2.379,2.379,0,0,1,27.612,115a2.344,2.344,0,0,1,1.688.6,1.9,1.9,0,0,1,.6,1.495l-.013.038H28.653a1.322,1.322,0,0,0-.276-.841.918.918,0,0,0-.765-.352,1.01,1.01,0,0,0-.752.273.883.883,0,0,0-.27.641.834.834,0,0,0,.232.622,4.167,4.167,0,0,0,1,.6,4.635,4.635,0,0,1,1.6.879,1.652,1.652,0,0,1,.524,1.26A1.709,1.709,0,0,1,29.3,121.6a2.59,2.59,0,0,1-1.7.533,2.439,2.439,0,0,1-1.79-.644,1.943,1.943,0,0,1-.622-1.508l.013-.038h1.2a1.274,1.274,0,0,0,.368.962,1.258,1.258,0,0,0,.851.3,1.122,1.122,0,0,0,.784-.257A.856.856,0,0,0,28.685,120.28ZM32.513,122H31.224v-6.868h1.289Zm0-8.671H31.224V112.1h1.289Zm1.308,4.805a3.457,3.457,0,0,1,.714-2.247,2.614,2.614,0,0,1,3.913,0,3.444,3.444,0,0,1,.717,2.25v.876a3.439,3.439,0,0,1-.714,2.25,2.633,2.633,0,0,1-3.917,0,3.439,3.439,0,0,1-.714-2.25Zm1.289.871a3.108,3.108,0,0,0,.343,1.546,1.2,1.2,0,0,0,2.079,0A3.085,3.085,0,0,0,37.876,119v-.878a3.074,3.074,0,0,0-.346-1.537,1.194,1.194,0,0,0-2.079,0,3.094,3.094,0,0,0-.343,1.54Zm6.449-3.873.07,1.016a2.3,2.3,0,0,1,.724-.841,1.705,1.705,0,0,1,.99-.3,1.655,1.655,0,0,1,1.4.667,3.449,3.449,0,0,1,.5,2.069V122H43.958v-4.247a2.476,2.476,0,0,0-.273-1.352.937.937,0,0,0-.825-.394,1.085,1.085,0,0,0-.7.244,1.769,1.769,0,0,0-.5.663V122H40.377v-6.868ZM48.077,122H46.789v-6.868h1.289Zm0-8.671H46.789V112.1h1.289Zm4.761,6.951a.943.943,0,0,0-.263-.676,3.349,3.349,0,0,0-.993-.606,5.1,5.1,0,0,1-1.571-.879,1.562,1.562,0,0,1-.511-1.209,1.739,1.739,0,0,1,.625-1.349A2.379,2.379,0,0,1,51.765,115a2.344,2.344,0,0,1,1.688.6,1.9,1.9,0,0,1,.6,1.495l-.013.038H52.806a1.322,1.322,0,0,0-.276-.841.918.918,0,0,0-.765-.352,1.01,1.01,0,0,0-.752.273.883.883,0,0,0-.27.641.834.834,0,0,0,.232.622,4.167,4.167,0,0,0,1,.6,4.635,4.635,0,0,1,1.6.879,1.652,1.652,0,0,1,.524,1.26,1.709,1.709,0,0,1-.647,1.384,2.59,2.59,0,0,1-1.7.533,2.439,2.439,0,0,1-1.79-.644,1.943,1.943,0,0,1-.622-1.508l.013-.038h1.2a1.274,1.274,0,0,0,.368.962,1.258,1.258,0,0,0,.851.3,1.122,1.122,0,0,0,.784-.257A.856.856,0,0,0,52.838,120.28Zm4.1-6.855v1.708h1.073v.92H56.938v4.088a1.363,1.363,0,0,0,.159.759.484.484,0,0,0,.413.225,1.955,1.955,0,0,0,.282-.019q.13-.019.308-.057l.133.889a2.631,2.631,0,0,1-.486.143,2.825,2.825,0,0,1-.555.054,1.4,1.4,0,0,1-1.133-.479,2.33,2.33,0,0,1-.4-1.514v-4.088h-.9v-.92h.9v-1.708ZM62.778,122q-.07-.235-.114-.46a3.286,3.286,0,0,1-.057-.454,2.451,2.451,0,0,1-.717.755,1.673,1.673,0,0,1-.958.292,1.734,1.734,0,0,1-1.362-.549,2.12,2.12,0,0,1-.492-1.469,1.909,1.909,0,0,1,.67-1.546,2.846,2.846,0,0,1,1.882-.562h.958v-.7a1.525,1.525,0,0,0-.279-.975,1.057,1.057,0,0,0-1.539-.035,1.138,1.138,0,0,0-.282.788l-1.225-.006-.019-.038a1.785,1.785,0,0,1,.635-1.416A2.424,2.424,0,0,1,61.6,115a2.294,2.294,0,0,1,1.647.6,2.247,2.247,0,0,1,.632,1.711V120.5a6.063,6.063,0,0,0,.048.771,4.442,4.442,0,0,0,.156.727Zm-1.555-.844a1.373,1.373,0,0,0,.822-.268,1.581,1.581,0,0,0,.543-.67v-1.41H61.61a1.145,1.145,0,0,0-.917.38,1.374,1.374,0,0,0-.327.929,1.2,1.2,0,0,0,.222.753A.755.755,0,0,0,61.223,121.156Zm7.319-.876a.943.943,0,0,0-.263-.676,3.349,3.349,0,0,0-.993-.606,5.1,5.1,0,0,1-1.571-.879,1.562,1.562,0,0,1-.511-1.209,1.739,1.739,0,0,1,.625-1.349A2.379,2.379,0,0,1,67.469,115a2.344,2.344,0,0,1,1.688.6,1.9,1.9,0,0,1,.6,1.495l-.013.038H68.51a1.322,1.322,0,0,0-.276-.841.918.918,0,0,0-.765-.352,1.01,1.01,0,0,0-.752.273.883.883,0,0,0-.27.641.834.834,0,0,0,.232.622,4.167,4.167,0,0,0,1,.6,4.635,4.635,0,0,1,1.6.879,1.652,1.652,0,0,1,.524,1.26,1.709,1.709,0,0,1-.647,1.384,2.59,2.59,0,0,1-1.7.533,2.439,2.439,0,0,1-1.79-.644,1.943,1.943,0,0,1-.622-1.508l.013-.038h1.2a1.274,1.274,0,0,0,.368.962,1.258,1.258,0,0,0,.851.3,1.122,1.122,0,0,0,.784-.257A.856.856,0,0,0,68.542,120.28Zm7.217-.647.1.451h.038l1.32-4.951h1.4l-2.406,7.935a3.777,3.777,0,0,1-.654,1.209,1.453,1.453,0,0,1-1.187.5,1.8,1.8,0,0,1-.34-.035q-.181-.035-.359-.079l.14-.952q.07.013.19.025t.19.013a.684.684,0,0,0,.594-.321,2.52,2.52,0,0,0,.34-.759l.229-.7-2.12-6.836h1.4Zm8.95,1.523a1.045,1.045,0,0,0,.813-.371,1.44,1.44,0,0,0,.33-.993h1.155l.013.038a2.117,2.117,0,0,1-.657,1.638,2.279,2.279,0,0,1-1.654.667,2.349,2.349,0,0,1-1.965-.87,3.48,3.48,0,0,1-.682-2.215V118.1a3.507,3.507,0,0,1,.682-2.222A2.335,2.335,0,0,1,84.7,115a2.211,2.211,0,0,1,1.692.7,2.462,2.462,0,0,1,.632,1.8l-.019.038H85.852a1.864,1.864,0,0,0-.314-1.123.983.983,0,0,0-.835-.432,1.08,1.08,0,0,0-1.044.6,3.3,3.3,0,0,0-.308,1.514v.948a3.288,3.288,0,0,0,.308,1.521A1.087,1.087,0,0,0,84.709,121.156Zm3.206-3.021a3.457,3.457,0,0,1,.714-2.247,2.614,2.614,0,0,1,3.913,0,3.444,3.444,0,0,1,.717,2.25v.876a3.439,3.439,0,0,1-.714,2.25,2.633,2.633,0,0,1-3.917,0,3.439,3.439,0,0,1-.714-2.25ZM89.2,119a3.108,3.108,0,0,0,.343,1.546,1.2,1.2,0,0,0,2.079,0A3.085,3.085,0,0,0,91.971,119v-.878a3.074,3.074,0,0,0-.346-1.537,1.194,1.194,0,0,0-2.079,0,3.094,3.094,0,0,0-.343,1.54Zm6.652,3H94.567v-9.9h1.289Zm5.059,0q-.07-.235-.114-.46a3.284,3.284,0,0,1-.057-.454,2.451,2.451,0,0,1-.717.755,1.673,1.673,0,0,1-.958.292,1.734,1.734,0,0,1-1.362-.549,2.12,2.12,0,0,1-.492-1.469,1.909,1.909,0,0,1,.67-1.546,2.846,2.846,0,0,1,1.882-.562h.958v-.7a1.525,1.525,0,0,0-.279-.975,1.057,1.057,0,0,0-1.539-.035,1.138,1.138,0,0,0-.282.788L97.4,117.08l-.019-.038a1.785,1.785,0,0,1,.635-1.416,2.424,2.424,0,0,1,1.72-.621,2.294,2.294,0,0,1,1.647.6,2.247,2.247,0,0,1,.632,1.711V120.5a6.063,6.063,0,0,0,.048.771,4.442,4.442,0,0,0,.156.727Zm-1.555-.844a1.373,1.373,0,0,0,.822-.268,1.581,1.581,0,0,0,.543-.67v-1.41h-.978a1.145,1.145,0,0,0-.917.38,1.374,1.374,0,0,0-.327.929,1.2,1.2,0,0,0,.222.753A.755.755,0,0,0,99.36,121.156Zm9.2-2.019a3.642,3.642,0,0,1-.59,2.18,1.933,1.933,0,0,1-1.663.816,1.819,1.819,0,0,1-.943-.238,1.926,1.926,0,0,1-.676-.7l-.1.806h-1.117v-9.9h1.289v3.758a1.9,1.9,0,0,1,.647-.632A1.739,1.739,0,0,1,106.3,115a1.905,1.905,0,0,1,1.676.873,4.088,4.088,0,0,1,.59,2.326Zm-1.282-.933a3.457,3.457,0,0,0-.314-1.593,1.046,1.046,0,0,0-.993-.6,1.092,1.092,0,0,0-.733.257,1.716,1.716,0,0,0-.473.689v3.3a1.514,1.514,0,0,0,.476.651,1.191,1.191,0,0,0,.743.232,1.052,1.052,0,0,0,.987-.54,2.948,2.948,0,0,0,.308-1.46Zm2.26-.07a3.457,3.457,0,0,1,.714-2.247,2.614,2.614,0,0,1,3.913,0,3.444,3.444,0,0,1,.717,2.25v.876a3.439,3.439,0,0,1-.714,2.25,2.633,2.633,0,0,1-3.917,0,3.439,3.439,0,0,1-.714-2.25Zm1.289.871a3.108,3.108,0,0,0,.343,1.546,1.2,1.2,0,0,0,2.079,0A3.085,3.085,0,0,0,113.6,119v-.878a3.074,3.074,0,0,0-.346-1.537,1.194,1.194,0,0,0-2.079,0,3.094,3.094,0,0,0-.343,1.54Zm8.239-2.788-.6-.032a.945.945,0,0,0-.663.241,1.527,1.527,0,0,0-.4.679V122h-1.289v-6.868h1.174l.1,1.035a2.183,2.183,0,0,1,.565-.854,1.183,1.183,0,0,1,.806-.308,1.582,1.582,0,0,1,.26.022.985.985,0,0,1,.209.054ZM123.627,122q-.07-.235-.114-.46a3.284,3.284,0,0,1-.057-.454,2.451,2.451,0,0,1-.717.755,1.673,1.673,0,0,1-.958.292,1.734,1.734,0,0,1-1.362-.549,2.12,2.12,0,0,1-.492-1.469,1.909,1.909,0,0,1,.67-1.546,2.846,2.846,0,0,1,1.882-.562h.958v-.7a1.525,1.525,0,0,0-.279-.975,1.057,1.057,0,0,0-1.539-.035,1.138,1.138,0,0,0-.282.788l-1.225-.006-.019-.038a1.785,1.785,0,0,1,.635-1.416,2.424,2.424,0,0,1,1.72-.621,2.294,2.294,0,0,1,1.647.6,2.247,2.247,0,0,1,.632,1.711V120.5a6.063,6.063,0,0,0,.048.771,4.442,4.442,0,0,0,.156.727Zm-1.555-.844a1.373,1.373,0,0,0,.822-.268,1.581,1.581,0,0,0,.543-.67v-1.41h-.978a1.145,1.145,0,0,0-.917.38,1.374,1.374,0,0,0-.327.929,1.2,1.2,0,0,0,.222.753A.755.755,0,0,0,122.072,121.156Zm3.878-2.507a5.145,5.145,0,0,1,.594-2.644,1.852,1.852,0,0,1,1.673-1,1.7,1.7,0,0,1,.86.216,1.954,1.954,0,0,1,.651.622V112.1h1.282V122h-1.124l-.1-.787a1.946,1.946,0,0,1-.67.686,1.754,1.754,0,0,1-.911.235,1.879,1.879,0,0,1-1.666-.914,4.422,4.422,0,0,1-.594-2.437Zm1.289.133a3.956,3.956,0,0,0,.311,1.72,1.031,1.031,0,0,0,.984.635,1.132,1.132,0,0,0,.714-.229,1.629,1.629,0,0,0,.479-.641v-3.339a1.783,1.783,0,0,0-.479-.673,1.057,1.057,0,0,0-.7-.248,1.045,1.045,0,0,0-.99.73,4.847,4.847,0,0,0-.317,1.911Zm5.015-.647a3.457,3.457,0,0,1,.714-2.247,2.614,2.614,0,0,1,3.913,0,3.444,3.444,0,0,1,.717,2.25v.876a3.439,3.439,0,0,1-.714,2.25,2.633,2.633,0,0,1-3.917,0,3.439,3.439,0,0,1-.714-2.25Zm1.289.871a3.108,3.108,0,0,0,.343,1.546,1.2,1.2,0,0,0,2.079,0A3.085,3.085,0,0,0,136.31,119v-.878a3.074,3.074,0,0,0-.346-1.537,1.194,1.194,0,0,0-2.079,0,3.094,3.094,0,0,0-.343,1.54Zm8.239-2.788-.6-.032a.945.945,0,0,0-.663.241,1.527,1.527,0,0,0-.4.679V122h-1.289v-6.868H140l.1,1.035a2.183,2.183,0,0,1,.565-.854,1.183,1.183,0,0,1,.806-.308,1.582,1.582,0,0,1,.26.022.985.985,0,0,1,.209.054Zm3.421,5.916a2.465,2.465,0,0,1-1.961-.851,3.207,3.207,0,0,1-.736-2.177v-1a3.382,3.382,0,0,1,.72-2.222,2.269,2.269,0,0,1,1.831-.876,2.154,2.154,0,0,1,1.8.8,3.365,3.365,0,0,1,.628,2.142v.889h-3.694v.273a2.58,2.58,0,0,0,.39,1.469,1.257,1.257,0,0,0,1.108.581,2.253,2.253,0,0,0,.914-.168,2.568,2.568,0,0,0,.724-.492l.406.8a2.4,2.4,0,0,1-.87.6A3.156,3.156,0,0,1,145.2,122.133Zm-.146-6.151a1.016,1.016,0,0,0-.9.546,2.854,2.854,0,0,0-.375,1.383h2.418v-.262a2.232,2.232,0,0,0-.292-1.2A.949.949,0,0,0,145.057,115.982Zm6.767,4.3a.943.943,0,0,0-.263-.676,3.349,3.349,0,0,0-.993-.606,5.1,5.1,0,0,1-1.571-.879,1.562,1.562,0,0,1-.511-1.209,1.739,1.739,0,0,1,.625-1.349A2.379,2.379,0,0,1,150.75,115a2.344,2.344,0,0,1,1.688.6,1.9,1.9,0,0,1,.6,1.495l-.013.038h-1.238a1.322,1.322,0,0,0-.276-.841.918.918,0,0,0-.765-.352,1.01,1.01,0,0,0-.752.273.883.883,0,0,0-.27.641.834.834,0,0,0,.232.622,4.167,4.167,0,0,0,1,.6,4.635,4.635,0,0,1,1.6.879,1.652,1.652,0,0,1,.524,1.26,1.709,1.709,0,0,1-.647,1.384,2.59,2.59,0,0,1-1.7.533,2.439,2.439,0,0,1-1.79-.644,1.943,1.943,0,0,1-.622-1.508l.013-.038h1.2a1.274,1.274,0,0,0,.368.962,1.258,1.258,0,0,0,.851.3,1.122,1.122,0,0,0,.784-.257A.856.856,0,0,0,151.823,120.28Zm3.885,1.72h-1.295v-1.289h1.295ZM5.611,153.7H2.184v3.32H6.157V158H.9v-9.242H6.119v.978H2.184v2.99H5.611ZM10.4,156.28a.943.943,0,0,0-.263-.676A3.349,3.349,0,0,0,9.141,155a5.1,5.1,0,0,1-1.571-.879,1.562,1.562,0,0,1-.511-1.209,1.739,1.739,0,0,1,.625-1.349A2.379,2.379,0,0,1,9.325,151a2.344,2.344,0,0,1,1.688.6,1.9,1.9,0,0,1,.6,1.495l-.013.038H10.366a1.322,1.322,0,0,0-.276-.841.918.918,0,0,0-.765-.352,1.01,1.01,0,0,0-.752.273.883.883,0,0,0-.27.641.834.834,0,0,0,.232.622,4.166,4.166,0,0,0,1,.6,4.635,4.635,0,0,1,1.6.879,1.652,1.652,0,0,1,.524,1.26,1.709,1.709,0,0,1-.647,1.384,2.59,2.59,0,0,1-1.7.533,2.439,2.439,0,0,1-1.79-.644,1.943,1.943,0,0,1-.622-1.508l.013-.038h1.2a1.274,1.274,0,0,0,.368.962,1.258,1.258,0,0,0,.851.3,1.122,1.122,0,0,0,.784-.257A.856.856,0,0,0,10.4,156.28Zm4.1-6.855v1.708h1.073v.92H14.5v4.088a1.363,1.363,0,0,0,.159.759.484.484,0,0,0,.413.225,1.955,1.955,0,0,0,.282-.019q.13-.019.308-.057l.133.889a2.63,2.63,0,0,1-.486.143,2.826,2.826,0,0,1-.555.054,1.4,1.4,0,0,1-1.133-.479,2.33,2.33,0,0,1-.4-1.514v-4.088h-.9v-.92h.9v-1.708ZM20.338,158q-.07-.235-.114-.46a3.285,3.285,0,0,1-.057-.454,2.451,2.451,0,0,1-.717.755,1.673,1.673,0,0,1-.958.292,1.734,1.734,0,0,1-1.362-.549,2.12,2.12,0,0,1-.492-1.469,1.909,1.909,0,0,1,.67-1.546,2.846,2.846,0,0,1,1.882-.562h.958v-.7a1.525,1.525,0,0,0-.279-.975,1.057,1.057,0,0,0-1.539-.035,1.138,1.138,0,0,0-.282.788l-1.225-.006-.019-.038a1.785,1.785,0,0,1,.635-1.416,2.424,2.424,0,0,1,1.72-.621,2.294,2.294,0,0,1,1.647.6,2.247,2.247,0,0,1,.632,1.711V156.5a6.063,6.063,0,0,0,.048.771,4.442,4.442,0,0,0,.156.727Zm-1.555-.844a1.373,1.373,0,0,0,.822-.268,1.581,1.581,0,0,0,.543-.67v-1.41H19.17a1.145,1.145,0,0,0-.917.38,1.374,1.374,0,0,0-.327.929,1.2,1.2,0,0,0,.222.753A.755.755,0,0,0,18.783,157.156Zm5.294-6.024.07.933a2.117,2.117,0,0,1,.711-.784A1.832,1.832,0,0,1,25.867,151a1.54,1.54,0,0,1,.971.314,1.919,1.919,0,0,1,.616.955,2.334,2.334,0,0,1,.711-.933A1.7,1.7,0,0,1,29.218,151a1.6,1.6,0,0,1,1.381.72,3.847,3.847,0,0,1,.5,2.193V158H29.815v-4.088a3.024,3.024,0,0,0-.26-1.479.845.845,0,0,0-.768-.425.94.94,0,0,0-.733.333,2.029,2.029,0,0,0-.428.885q-.006-.051.006.162t.013.308V158H26.362v-4.088a2.973,2.973,0,0,0-.267-1.463.853.853,0,0,0-.774-.441,1.083,1.083,0,0,0-.692.225,1.461,1.461,0,0,0-.444.625V158H22.9v-6.868Zm8.252,3a3.457,3.457,0,0,1,.714-2.247,2.614,2.614,0,0,1,3.913,0,3.444,3.444,0,0,1,.717,2.25v.876a3.439,3.439,0,0,1-.714,2.25,2.633,2.633,0,0,1-3.917,0,3.439,3.439,0,0,1-.714-2.25Zm1.289.871a3.108,3.108,0,0,0,.343,1.546,1.2,1.2,0,0,0,2.079,0,3.085,3.085,0,0,0,.346-1.546v-.878a3.074,3.074,0,0,0-.346-1.537,1.194,1.194,0,0,0-2.079,0,3.094,3.094,0,0,0-.343,1.54Zm8.48,1.275a.943.943,0,0,0-.263-.676,3.349,3.349,0,0,0-.993-.606,5.1,5.1,0,0,1-1.571-.879,1.562,1.562,0,0,1-.511-1.209,1.739,1.739,0,0,1,.625-1.349A2.379,2.379,0,0,1,41.025,151a2.344,2.344,0,0,1,1.688.6,1.9,1.9,0,0,1,.6,1.495l-.013.038H42.066a1.322,1.322,0,0,0-.276-.841.918.918,0,0,0-.765-.352,1.01,1.01,0,0,0-.752.273.883.883,0,0,0-.27.641.834.834,0,0,0,.232.622,4.166,4.166,0,0,0,1,.6,4.635,4.635,0,0,1,1.6.879,1.652,1.652,0,0,1,.524,1.26,1.709,1.709,0,0,1-.647,1.384,2.59,2.59,0,0,1-1.7.533,2.439,2.439,0,0,1-1.79-.644,1.943,1.943,0,0,1-.622-1.508l.013-.038h1.2a1.274,1.274,0,0,0,.368.962,1.258,1.258,0,0,0,.851.3,1.122,1.122,0,0,0,.784-.257A.856.856,0,0,0,42.1,156.28Zm7.674.876a1.045,1.045,0,0,0,.813-.371,1.44,1.44,0,0,0,.33-.993H52.07l.013.038a2.117,2.117,0,0,1-.657,1.638,2.279,2.279,0,0,1-1.654.667,2.349,2.349,0,0,1-1.965-.87,3.48,3.48,0,0,1-.682-2.215V154.1a3.507,3.507,0,0,1,.682-2.222A2.335,2.335,0,0,1,49.766,151a2.211,2.211,0,0,1,1.692.7,2.462,2.462,0,0,1,.632,1.8l-.019.038H50.915a1.864,1.864,0,0,0-.314-1.123.983.983,0,0,0-.835-.432,1.08,1.08,0,0,0-1.044.6,3.3,3.3,0,0,0-.308,1.514v.948a3.288,3.288,0,0,0,.308,1.521A1.087,1.087,0,0,0,49.772,157.156Zm3.206-3.021a3.457,3.457,0,0,1,.714-2.247,2.614,2.614,0,0,1,3.913,0,3.444,3.444,0,0,1,.717,2.25v.876a3.439,3.439,0,0,1-.714,2.25,2.633,2.633,0,0,1-3.917,0,3.439,3.439,0,0,1-.714-2.25Zm1.289.871a3.108,3.108,0,0,0,.343,1.546,1.2,1.2,0,0,0,2.079,0,3.085,3.085,0,0,0,.346-1.546v-.878a3.074,3.074,0,0,0-.346-1.537,1.194,1.194,0,0,0-2.079,0,3.094,3.094,0,0,0-.343,1.54Zm6.456-3.873.07.933a2.117,2.117,0,0,1,.711-.784A1.832,1.832,0,0,1,62.512,151a1.54,1.54,0,0,1,.971.314,1.919,1.919,0,0,1,.616.955,2.334,2.334,0,0,1,.711-.933A1.7,1.7,0,0,1,65.863,151a1.6,1.6,0,0,1,1.381.72,3.847,3.847,0,0,1,.5,2.193V158H66.46v-4.088a3.024,3.024,0,0,0-.26-1.479.845.845,0,0,0-.768-.425.94.94,0,0,0-.733.333,2.029,2.029,0,0,0-.428.885q-.006-.051.006.162t.013.308V158H63.007v-4.088a2.973,2.973,0,0,0-.267-1.463.853.853,0,0,0-.774-.441,1.083,1.083,0,0,0-.692.225,1.461,1.461,0,0,0-.444.625V158H59.547v-6.868Zm13.584,4.005a3.617,3.617,0,0,1-.6,2.177,1.935,1.935,0,0,1-1.657.819,1.9,1.9,0,0,1-.882-.2,1.843,1.843,0,0,1-.654-.578v3.282H69.228v-9.509h1.149l.083.787a2.018,2.018,0,0,1,.667-.676A1.731,1.731,0,0,1,72.04,151a1.893,1.893,0,0,1,1.669.9,4.261,4.261,0,0,1,.6,2.387Zm-1.289-.844a3.551,3.551,0,0,0-.333-1.647,1.065,1.065,0,0,0-.993-.638,1.089,1.089,0,0,0-.7.235,1.654,1.654,0,0,0-.47.641v3.472a1.4,1.4,0,0,0,.463.594,1.212,1.212,0,0,0,.717.206,1.077,1.077,0,0,0,.993-.555,2.866,2.866,0,0,0,.327-1.463Zm5.484-2.076-.6-.032a.945.945,0,0,0-.663.241,1.527,1.527,0,0,0-.4.679V158H75.543v-6.868h1.174l.1,1.035a2.183,2.183,0,0,1,.565-.854,1.182,1.182,0,0,1,.806-.308,1.581,1.581,0,0,1,.26.022.985.985,0,0,1,.209.054Zm.679,1.917a3.457,3.457,0,0,1,.714-2.247,2.614,2.614,0,0,1,3.913,0,3.444,3.444,0,0,1,.717,2.25v.876a3.439,3.439,0,0,1-.714,2.25,2.633,2.633,0,0,1-3.917,0,3.439,3.439,0,0,1-.714-2.25Zm1.289.871a3.108,3.108,0,0,0,.343,1.546,1.2,1.2,0,0,0,2.079,0,3.085,3.085,0,0,0,.346-1.546v-.878a3.074,3.074,0,0,0-.346-1.537,1.194,1.194,0,0,0-2.079,0,3.094,3.094,0,0,0-.343,1.54Zm6.456-3.873.07.933a2.117,2.117,0,0,1,.711-.784A1.832,1.832,0,0,1,88.715,151a1.54,1.54,0,0,1,.971.314,1.919,1.919,0,0,1,.616.955,2.334,2.334,0,0,1,.711-.933A1.7,1.7,0,0,1,92.066,151a1.6,1.6,0,0,1,1.381.72,3.847,3.847,0,0,1,.5,2.193V158H92.663v-4.088a3.024,3.024,0,0,0-.26-1.479.845.845,0,0,0-.768-.425.94.94,0,0,0-.733.333,2.029,2.029,0,0,0-.428.885q-.006-.051.006.162t.013.308V158H89.21v-4.088a2.973,2.973,0,0,0-.267-1.463.853.853,0,0,0-.774-.441,1.083,1.083,0,0,0-.692.225,1.461,1.461,0,0,0-.444.625V158H85.75v-6.868Zm10.988,7a2.465,2.465,0,0,1-1.961-.851,3.207,3.207,0,0,1-.736-2.177v-1a3.382,3.382,0,0,1,.72-2.222A2.269,2.269,0,0,1,97.767,151a2.154,2.154,0,0,1,1.8.8,3.365,3.365,0,0,1,.628,2.142v.889H96.5v.273a2.58,2.58,0,0,0,.39,1.469,1.257,1.257,0,0,0,1.108.581,2.253,2.253,0,0,0,.914-.168,2.568,2.568,0,0,0,.724-.492l.406.8a2.4,2.4,0,0,1-.87.6A3.156,3.156,0,0,1,97.913,158.133Zm-.146-6.151a1.016,1.016,0,0,0-.9.546,2.854,2.854,0,0,0-.375,1.383h2.418v-.262a2.232,2.232,0,0,0-.292-1.2A.949.949,0,0,0,97.767,151.982Zm5.211-2.558v1.708h1.073v.92h-1.073v4.088a1.363,1.363,0,0,0,.159.759.484.484,0,0,0,.413.225,1.955,1.955,0,0,0,.282-.019q.13-.019.308-.057l.133.889a2.63,2.63,0,0,1-.486.143,2.826,2.826,0,0,1-.555.054,1.4,1.4,0,0,1-1.133-.479,2.33,2.33,0,0,1-.4-1.514v-4.088h-.9v-.92h.9v-1.708ZM106.691,158H105.4v-6.868h1.289Zm0-8.671H105.4V148.1h1.289Zm1.32,5.319a5.145,5.145,0,0,1,.594-2.644,1.852,1.852,0,0,1,1.673-1,1.7,1.7,0,0,1,.86.216,1.954,1.954,0,0,1,.651.622V148.1h1.282V158h-1.124l-.1-.787a1.946,1.946,0,0,1-.67.686,1.754,1.754,0,0,1-.911.235,1.879,1.879,0,0,1-1.666-.914,4.422,4.422,0,0,1-.594-2.437Zm1.289.133a3.956,3.956,0,0,0,.311,1.72,1.031,1.031,0,0,0,.984.635,1.132,1.132,0,0,0,.714-.229,1.629,1.629,0,0,0,.479-.641v-3.339a1.783,1.783,0,0,0-.479-.673,1.057,1.057,0,0,0-.7-.248,1.045,1.045,0,0,0-.99.73,4.847,4.847,0,0,0-.317,1.911Zm5.015-.647a3.457,3.457,0,0,1,.714-2.247,2.614,2.614,0,0,1,3.913,0,3.444,3.444,0,0,1,.717,2.25v.876a3.439,3.439,0,0,1-.714,2.25,2.633,2.633,0,0,1-3.917,0,3.439,3.439,0,0,1-.714-2.25Zm1.289.871a3.108,3.108,0,0,0,.343,1.546,1.2,1.2,0,0,0,2.079,0,3.085,3.085,0,0,0,.346-1.546v-.878a3.074,3.074,0,0,0-.346-1.537,1.194,1.194,0,0,0-2.079,0,3.094,3.094,0,0,0-.343,1.54Zm8.48,1.275a.943.943,0,0,0-.263-.676,3.349,3.349,0,0,0-.993-.606,5.1,5.1,0,0,1-1.571-.879,1.562,1.562,0,0,1-.511-1.209,1.739,1.739,0,0,1,.625-1.349,2.379,2.379,0,0,1,1.641-.555,2.344,2.344,0,0,1,1.688.6,1.9,1.9,0,0,1,.6,1.495l-.013.038h-1.238a1.322,1.322,0,0,0-.276-.841.918.918,0,0,0-.765-.352,1.01,1.01,0,0,0-.752.273.883.883,0,0,0-.27.641.834.834,0,0,0,.232.622,4.166,4.166,0,0,0,1,.6,4.635,4.635,0,0,1,1.6.879,1.652,1.652,0,0,1,.524,1.26,1.709,1.709,0,0,1-.647,1.384,2.59,2.59,0,0,1-1.7.533,2.439,2.439,0,0,1-1.79-.644,1.943,1.943,0,0,1-.622-1.508l.013-.038h1.2a1.274,1.274,0,0,0,.368.962,1.258,1.258,0,0,0,.851.3,1.122,1.122,0,0,0,.784-.257A.856.856,0,0,0,124.084,156.28Zm7.674.876a1.045,1.045,0,0,0,.813-.371,1.44,1.44,0,0,0,.33-.993h1.155l.013.038a2.117,2.117,0,0,1-.657,1.638,2.279,2.279,0,0,1-1.654.667,2.349,2.349,0,0,1-1.965-.87,3.481,3.481,0,0,1-.682-2.215V154.1a3.507,3.507,0,0,1,.682-2.222,2.335,2.335,0,0,1,1.958-.876,2.211,2.211,0,0,1,1.692.7,2.462,2.462,0,0,1,.632,1.8l-.019.038H132.9a1.864,1.864,0,0,0-.314-1.123.983.983,0,0,0-.835-.432,1.08,1.08,0,0,0-1.044.6,3.3,3.3,0,0,0-.308,1.514v.948a3.287,3.287,0,0,0,.308,1.521A1.087,1.087,0,0,0,131.758,157.156Zm3.206-3.021a3.457,3.457,0,0,1,.714-2.247,2.614,2.614,0,0,1,3.913,0,3.444,3.444,0,0,1,.717,2.25v.876a3.439,3.439,0,0,1-.714,2.25,2.633,2.633,0,0,1-3.917,0,3.439,3.439,0,0,1-.714-2.25Zm1.289.871a3.108,3.108,0,0,0,.343,1.546,1.2,1.2,0,0,0,2.079,0,3.085,3.085,0,0,0,.346-1.546v-.878a3.074,3.074,0,0,0-.346-1.537,1.194,1.194,0,0,0-2.079,0,3.094,3.094,0,0,0-.343,1.54Zm6.449-3.873.07,1.016a2.3,2.3,0,0,1,.724-.841,1.705,1.705,0,0,1,.99-.3,1.655,1.655,0,0,1,1.4.667,3.449,3.449,0,0,1,.5,2.069V158H145.1v-4.247a2.476,2.476,0,0,0-.273-1.352.937.937,0,0,0-.825-.394,1.085,1.085,0,0,0-.7.244,1.769,1.769,0,0,0-.5.663V158h-1.289v-6.868Zm10.461,7a2.465,2.465,0,0,1-1.961-.851,3.207,3.207,0,0,1-.736-2.177v-1a3.382,3.382,0,0,1,.72-2.222,2.269,2.269,0,0,1,1.831-.876,2.154,2.154,0,0,1,1.8.8,3.365,3.365,0,0,1,.628,2.142v.889h-3.694v.273a2.58,2.58,0,0,0,.39,1.469,1.257,1.257,0,0,0,1.108.581,2.253,2.253,0,0,0,.914-.168,2.568,2.568,0,0,0,.724-.492l.406.8a2.4,2.4,0,0,1-.87.6A3.156,3.156,0,0,1,153.163,158.133Zm-.146-6.151a1.016,1.016,0,0,0-.9.546,2.854,2.854,0,0,0-.375,1.383h2.418v-.262a2.232,2.232,0,0,0-.292-1.2A.949.949,0,0,0,153.017,151.982ZM157.955,158h-1.289v-9.9h1.289ZM1.911,169.132l.07.933a2.117,2.117,0,0,1,.711-.784A1.832,1.832,0,0,1,3.7,169a1.54,1.54,0,0,1,.971.314,1.919,1.919,0,0,1,.616.955A2.334,2.334,0,0,1,6,169.341,1.7,1.7,0,0,1,7.052,169a1.6,1.6,0,0,1,1.381.72,3.847,3.847,0,0,1,.5,2.193V176H7.649v-4.088a3.024,3.024,0,0,0-.26-1.479.845.845,0,0,0-.768-.425.94.94,0,0,0-.733.333,2.029,2.029,0,0,0-.428.885q-.006-.051.006.162t.013.308V176H4.2v-4.088a2.973,2.973,0,0,0-.267-1.463.853.853,0,0,0-.774-.441,1.083,1.083,0,0,0-.692.225,1.461,1.461,0,0,0-.444.625V176H.736v-6.868Zm10.988,7a2.465,2.465,0,0,1-1.961-.851,3.207,3.207,0,0,1-.736-2.177v-1a3.382,3.382,0,0,1,.72-2.222A2.269,2.269,0,0,1,12.752,169a2.154,2.154,0,0,1,1.8.8,3.365,3.365,0,0,1,.628,2.142v.889H11.483v.273a2.58,2.58,0,0,0,.39,1.469,1.257,1.257,0,0,0,1.108.581,2.253,2.253,0,0,0,.914-.168,2.568,2.568,0,0,0,.724-.492l.406.8a2.4,2.4,0,0,1-.87.6A3.156,3.156,0,0,1,12.9,176.133Zm-.146-6.151a1.016,1.016,0,0,0-.9.546,2.854,2.854,0,0,0-.375,1.383H13.9v-.262a2.232,2.232,0,0,0-.292-1.2A.949.949,0,0,0,12.752,169.982Zm3.326,2.666A5.145,5.145,0,0,1,16.672,170a1.852,1.852,0,0,1,1.673-1,1.7,1.7,0,0,1,.86.216,1.954,1.954,0,0,1,.651.622V166.1h1.282V176H20.014l-.1-.787a1.946,1.946,0,0,1-.67.686,1.754,1.754,0,0,1-.911.235,1.879,1.879,0,0,1-1.666-.914,4.422,4.422,0,0,1-.594-2.437Zm1.289.133a3.956,3.956,0,0,0,.311,1.72,1.031,1.031,0,0,0,.984.635,1.132,1.132,0,0,0,.714-.229,1.629,1.629,0,0,0,.479-.641v-3.339a1.783,1.783,0,0,0-.479-.673,1.057,1.057,0,0,0-.7-.248,1.045,1.045,0,0,0-.99.73,4.847,4.847,0,0,0-.317,1.911ZM24.007,176H22.718v-6.868h1.289Zm0-8.671H22.718V166.1h1.289Zm1.308,4.805a3.457,3.457,0,0,1,.714-2.247,2.614,2.614,0,0,1,3.913,0,3.444,3.444,0,0,1,.717,2.25v.876a3.439,3.439,0,0,1-.714,2.25,2.633,2.633,0,0,1-3.917,0,3.439,3.439,0,0,1-.714-2.25Zm1.289.871a3.108,3.108,0,0,0,.343,1.546,1.2,1.2,0,0,0,2.079,0,3.085,3.085,0,0,0,.346-1.546v-.878a3.074,3.074,0,0,0-.346-1.537,1.194,1.194,0,0,0-2.079,0,3.094,3.094,0,0,0-.343,1.54ZM38.213,176q-.07-.235-.114-.46a3.285,3.285,0,0,1-.057-.454,2.451,2.451,0,0,1-.717.755,1.673,1.673,0,0,1-.958.292A1.734,1.734,0,0,1,35,175.584a2.12,2.12,0,0,1-.492-1.469,1.909,1.909,0,0,1,.67-1.546,2.846,2.846,0,0,1,1.882-.562h.958v-.7a1.525,1.525,0,0,0-.279-.975A1.057,1.057,0,0,0,36.2,170.3a1.138,1.138,0,0,0-.282.788L34.7,171.08l-.019-.038a1.785,1.785,0,0,1,.635-1.416,2.424,2.424,0,0,1,1.72-.621,2.294,2.294,0,0,1,1.647.6,2.247,2.247,0,0,1,.632,1.711V174.5a6.063,6.063,0,0,0,.048.771,4.442,4.442,0,0,0,.156.727Zm-1.555-.844a1.373,1.373,0,0,0,.822-.268,1.581,1.581,0,0,0,.543-.67v-1.41h-.978a1.145,1.145,0,0,0-.917.38,1.374,1.374,0,0,0-.327.929,1.2,1.2,0,0,0,.222.753A.755.755,0,0,0,36.658,175.156Zm5.294-6.024.07.933a2.117,2.117,0,0,1,.711-.784A1.832,1.832,0,0,1,43.742,169a1.54,1.54,0,0,1,.971.314,1.919,1.919,0,0,1,.616.955,2.334,2.334,0,0,1,.711-.933A1.7,1.7,0,0,1,47.093,169a1.6,1.6,0,0,1,1.381.72,3.847,3.847,0,0,1,.5,2.193V176H47.69v-4.088a3.024,3.024,0,0,0-.26-1.479.845.845,0,0,0-.768-.425.94.94,0,0,0-.733.333,2.029,2.029,0,0,0-.428.885q-.006-.051.006.162t.013.308V176H44.237v-4.088a2.973,2.973,0,0,0-.267-1.463.853.853,0,0,0-.774-.441,1.083,1.083,0,0,0-.692.225,1.461,1.461,0,0,0-.444.625V176H40.777v-6.868Zm13.59,4.005a3.642,3.642,0,0,1-.59,2.18,1.933,1.933,0,0,1-1.663.816,1.819,1.819,0,0,1-.943-.238,1.926,1.926,0,0,1-.676-.7l-.1.806H50.458v-9.9h1.289v3.758a1.9,1.9,0,0,1,.647-.632,1.739,1.739,0,0,1,.882-.219,1.905,1.905,0,0,1,1.676.873,4.088,4.088,0,0,1,.59,2.326ZM54.26,172.2a3.457,3.457,0,0,0-.314-1.593,1.046,1.046,0,0,0-.993-.6,1.092,1.092,0,0,0-.733.257,1.716,1.716,0,0,0-.473.689v3.3a1.514,1.514,0,0,0,.476.651,1.191,1.191,0,0,0,.743.232,1.052,1.052,0,0,0,.987-.54,2.948,2.948,0,0,0,.308-1.46Zm3.885,3.8H56.856v-6.868h1.289Zm0-8.671H56.856V166.1h1.289Zm4.043,8.8a2.465,2.465,0,0,1-1.961-.851,3.207,3.207,0,0,1-.736-2.177v-1a3.382,3.382,0,0,1,.72-2.222A2.269,2.269,0,0,1,62.042,169a2.154,2.154,0,0,1,1.8.8,3.365,3.365,0,0,1,.628,2.142v.889H60.772v.273a2.58,2.58,0,0,0,.39,1.469,1.257,1.257,0,0,0,1.108.581,2.253,2.253,0,0,0,.914-.168,2.568,2.568,0,0,0,.724-.492l.406.8a2.4,2.4,0,0,1-.87.6A3.156,3.156,0,0,1,62.188,176.133Zm-.146-6.151a1.016,1.016,0,0,0-.9.546,2.854,2.854,0,0,0-.375,1.383h2.418v-.262a2.232,2.232,0,0,0-.292-1.2A.949.949,0,0,0,62.042,169.982Zm4.735-.851.07,1.016a2.3,2.3,0,0,1,.724-.841,1.705,1.705,0,0,1,.99-.3,1.655,1.655,0,0,1,1.4.667,3.449,3.449,0,0,1,.5,2.069V176H69.177v-4.247A2.476,2.476,0,0,0,68.9,170.4a.937.937,0,0,0-.825-.394,1.085,1.085,0,0,0-.7.244,1.769,1.769,0,0,0-.5.663V176H65.6v-6.868Zm6.792-1.708v1.708h1.073v.92H73.569v4.088a1.363,1.363,0,0,0,.159.759.484.484,0,0,0,.413.225,1.955,1.955,0,0,0,.282-.019q.13-.019.308-.057l.133.889a2.63,2.63,0,0,1-.486.143,2.826,2.826,0,0,1-.555.054,1.4,1.4,0,0,1-1.133-.479,2.33,2.33,0,0,1-.4-1.514v-4.088h-.9v-.92h.9v-1.708Zm4.824,8.709a2.465,2.465,0,0,1-1.961-.851,3.207,3.207,0,0,1-.736-2.177v-1a3.382,3.382,0,0,1,.72-2.222A2.269,2.269,0,0,1,78.248,169a2.154,2.154,0,0,1,1.8.8,3.365,3.365,0,0,1,.628,2.142v.889H76.978v.273a2.58,2.58,0,0,0,.39,1.469,1.257,1.257,0,0,0,1.108.581,2.253,2.253,0,0,0,.914-.168,2.568,2.568,0,0,0,.724-.492l.406.8a2.4,2.4,0,0,1-.87.6A3.156,3.156,0,0,1,78.394,176.133Zm-.146-6.151a1.016,1.016,0,0,0-.9.546,2.854,2.854,0,0,0-.375,1.383H79.4v-.262a2.232,2.232,0,0,0-.292-1.2A.949.949,0,0,0,78.248,169.982Z" transform="translate(216 1770)" fill="#5e5b5c"/></g><g transform="translate(462.266 553.887)" opacity="0.27"><path d="M-399.606-218.554h-81.66V-326.812l14.075-14.075h28.476V-261.1h53.187v28.476Zm-79-2.658h77.9l12.517-12.517v-24.715h-53.187v-79.786h-24.715l-12.517,12.52Z" transform="translate(0 0)" fill="#fff"/><path d="M-396.27-232.792h-81.115V-340.5h2.661V-235.45h78.453Z" transform="translate(9.414 0.943)" fill="#fff"/><rect width="18.806" height="2.66" transform="matrix(0.707, -0.707, 0.707, 0.707, -414.391, -220.821)" fill="#fff"/><rect width="18.806" height="2.66" transform="matrix(0.707, -0.707, 0.707, 0.707, -427.688, -220.822)" fill="#fff"/><rect width="18.806" height="2.66" transform="matrix(0.707, -0.707, 0.707, 0.707, -440.985, -220.822)" fill="#fff"/><rect width="18.806" height="2.66" transform="matrix(0.707, -0.707, 0.707, 0.707, -454.282, -220.822)" fill="#fff"/><rect width="18.807" height="2.661" transform="matrix(0.706, -0.708, 0.708, 0.706, -467.575, -220.815)" fill="#fff"/><rect width="18.806" height="2.662" transform="matrix(0.706, -0.708, 0.708, 0.706, -480.873, -220.815)" fill="#fff"/><rect width="18.806" height="2.662" transform="matrix(0.706, -0.708, 0.708, 0.706, -480.873, -234.112)" fill="#fff"/><rect width="18.806" height="2.662" transform="matrix(0.706, -0.708, 0.708, 0.706, -480.873, -247.41)" fill="#fff"/><rect width="18.806" height="2.662" transform="matrix(0.706, -0.708, 0.708, 0.706, -480.873, -260.707)" fill="#fff"/><rect width="18.806" height="2.662" transform="matrix(0.706, -0.708, 0.708, 0.706, -480.873, -274.004)" fill="#fff"/><rect width="18.806" height="2.662" transform="matrix(0.706, -0.708, 0.708, 0.706, -480.873, -287.302)" fill="#fff"/><rect width="18.806" height="2.662" transform="matrix(0.706, -0.708, 0.708, 0.706, -480.873, -300.599)" fill="#fff"/><rect width="18.806" height="2.662" transform="matrix(0.706, -0.708, 0.708, 0.706, -480.873, -313.896)" fill="#fff"/></g></g></svg>