<svg xmlns="http://www.w3.org/2000/svg" xmlns:xlink="http://www.w3.org/1999/xlink" width="289" height="388" viewBox="0 0 289 388"><defs><filter id="a" x="-56" y="-36" width="402" height="500" filterUnits="userSpaceOnUse"><feOffset dy="20" input="SourceAlpha"/><feGaussianBlur stdDeviation="23" result="b"/><feFlood flood-color="#010101" flood-opacity="0.129"/><feComposite operator="in" in2="b"/><feComposite in="SourceGraphic"/></filter><clipPath id="c"><g transform="matrix(1, 0, 0, 1, 0, 0)" filter="url(#a)"><rect width="264" height="362" rx="39" opacity="0.7" fill="#fff" stroke="#00ff4e" stroke-width="1" transform="translate(167 2056.66)"/></g></clipPath><linearGradient id="d" x1="-0.12" y1="-0.622" x2="1" y2="1" gradientUnits="objectBoundingBox"><stop offset="0" stop-color="#00ff4e"/><stop offset="1" stop-color="#93a5ff" stop-opacity="0"/></linearGradient><clipPath id="f"><rect width="289" height="388"/></clipPath></defs><g id="e" clip-path="url(#f)"><g transform="translate(462.266 553.887)" opacity="0.27"><path d="M-399.606-218.554h-81.66V-326.812l14.075-14.075h28.476V-261.1h53.187v28.476Zm-79-2.658h77.9l12.517-12.517v-24.715h-53.187v-79.786h-24.715l-12.517,12.52Z" transform="translate(0 0)" fill="#fff"/><path d="M-396.27-232.792h-81.115V-340.5h2.661V-235.45h78.453Z" transform="translate(9.414 0.943)" fill="#fff"/><rect width="18.806" height="2.66" transform="matrix(0.707, -0.707, 0.707, 0.707, -414.391, -220.821)" fill="#fff"/><rect width="18.806" height="2.66" transform="matrix(0.707, -0.707, 0.707, 0.707, -427.688, -220.822)" fill="#fff"/><rect width="18.806" height="2.66" transform="matrix(0.707, -0.707, 0.707, 0.707, -440.985, -220.822)" fill="#fff"/><rect width="18.806" height="2.66" transform="matrix(0.707, -0.707, 0.707, 0.707, -454.282, -220.822)" fill="#fff"/><rect width="18.807" height="2.661" transform="matrix(0.706, -0.708, 0.708, 0.706, -467.575, -220.815)" fill="#fff"/><rect width="18.806" height="2.662" transform="matrix(0.706, -0.708, 0.708, 0.706, -480.873, -220.815)" fill="#fff"/><rect width="18.806" height="2.662" transform="matrix(0.706, -0.708, 0.708, 0.706, -480.873, -234.112)" fill="#fff"/><rect width="18.806" height="2.662" transform="matrix(0.706, -0.708, 0.708, 0.706, -480.873, -247.41)" fill="#fff"/><rect width="18.806" height="2.662" transform="matrix(0.706, -0.708, 0.708, 0.706, -480.873, -260.707)" fill="#fff"/><rect width="18.806" height="2.662" transform="matrix(0.706, -0.708, 0.708, 0.706, -480.873, -274.004)" fill="#fff"/><rect width="18.806" height="2.662" transform="matrix(0.706, -0.708, 0.708, 0.706, -480.873, -287.302)" fill="#fff"/><rect width="18.806" height="2.662" transform="matrix(0.706, -0.708, 0.708, 0.706, -480.873, -300.599)" fill="#fff"/><rect width="18.806" height="2.662" transform="matrix(0.706, -0.708, 0.708, 0.706, -480.873, -313.896)" fill="#fff"/></g><g transform="translate(-154 -2043.66)"><g transform="translate(167 2056.66)" fill="#fff" stroke="#00ff4e" stroke-width="1" opacity="0.7"><rect width="264" height="362" rx="39" stroke="none"/><rect x="0.5" y="0.5" width="263" height="361" rx="38.5" fill="none"/></g><path d="M-66.593-9.959V0h-5.427V-27.727h9.636a8.741,8.741,0,0,1,6.551,2.454,8.8,8.8,0,0,1,2.4,6.43A8.777,8.777,0,0,1-55.844-12.4a8.767,8.767,0,0,1-6.541,2.444Zm0-4.323h4.208a3.052,3.052,0,0,0,2.647-1.279,5.442,5.442,0,0,0,.914-3.244,5.652,5.652,0,0,0-.9-3.292A3.024,3.024,0,0,0-62.385-23.4h-4.208Zm26.013-1.39-2.038-.057a2.308,2.308,0,0,0-1.419.419A2.662,2.662,0,0,0-44.9-14.13V0h-5.408V-20.6h5.046l.209,2.761.1.038a5.619,5.619,0,0,1,1.381-2.333,2.9,2.9,0,0,1,2.066-.847,4.811,4.811,0,0,1,.771.067,5.239,5.239,0,0,1,.714.162Zm1.714,4.113a10.244,10.244,0,0,1,2.2-6.789,7.579,7.579,0,0,1,6.16-2.637,7.607,7.607,0,0,1,6.17,2.637,10.215,10.215,0,0,1,2.209,6.789v2.552a10.16,10.16,0,0,1-2.209,6.8A7.623,7.623,0,0,1-30.488.4a7.639,7.639,0,0,1-6.179-2.609,10.189,10.189,0,0,1-2.2-6.8Zm5.389,2.544a8.6,8.6,0,0,0,.667,3.738,2.374,2.374,0,0,0,2.323,1.354,2.345,2.345,0,0,0,2.276-1.364,8.506,8.506,0,0,0,.676-3.729V-11.57a8.529,8.529,0,0,0-.676-3.71,2.356,2.356,0,0,0-2.295-1.383A2.354,2.354,0,0,0-32.8-15.27a8.541,8.541,0,0,0-.676,3.7Zm30.354.293A11.142,11.142,0,0,1-4.913-2.1,5.805,5.805,0,0,1-9.921.4a4.82,4.82,0,0,1-2.238-.5,4.87,4.87,0,0,1-1.7-1.495V7.922h-5.408V-20.6h5.008l.19,2.038a5.589,5.589,0,0,1,1.761-1.79,4.388,4.388,0,0,1,2.352-.628A5.728,5.728,0,0,1-4.913-18.31a12.485,12.485,0,0,1,1.79,7.055Zm-5.408-2.544a9.414,9.414,0,0,0-.686-3.919,2.258,2.258,0,0,0-2.152-1.478,2.57,2.57,0,0,0-1.485.429,3.035,3.035,0,0,0-1.009,1.211V-5.3a2.562,2.562,0,0,0,1,1.03,3.082,3.082,0,0,0,1.514.343A2.25,2.25,0,0,0-9.188-5.2a7.816,7.816,0,0,0,.657-3.528Zm7.56-.294a10.244,10.244,0,0,1,2.2-6.789,7.579,7.579,0,0,1,6.16-2.637,7.607,7.607,0,0,1,6.17,2.637,10.215,10.215,0,0,1,2.209,6.789v2.552a10.16,10.16,0,0,1-2.209,6.8A7.623,7.623,0,0,1,7.408.4,7.639,7.639,0,0,1,1.228-2.209a10.189,10.189,0,0,1-2.2-6.8ZM4.418-9.015a8.6,8.6,0,0,0,.667,3.738A2.374,2.374,0,0,0,7.408-3.923,2.345,2.345,0,0,0,9.683-5.287a8.506,8.506,0,0,0,.676-3.729V-11.57a8.529,8.529,0,0,0-.676-3.71,2.356,2.356,0,0,0-2.295-1.383A2.354,2.354,0,0,0,5.094-15.27a8.541,8.541,0,0,0-.676,3.7ZM7.96-28.641h5.694l.057.114L8.969-23.575l-4.361-.01ZM27.593-5.389A2,2,0,0,0,26.908-6.9,11.54,11.54,0,0,0,24.28-8.474,13.856,13.856,0,0,1,19.624-11.1a5,5,0,0,1-1.552-3.809,5.561,5.561,0,0,1,1.99-4.294,7.6,7.6,0,0,1,5.265-1.781,7.879,7.879,0,0,1,5.465,1.828,5.766,5.766,0,0,1,1.961,4.666l-.057.114H27.479a3.527,3.527,0,0,0-.533-2.057,1.863,1.863,0,0,0-1.638-.762,2.055,2.055,0,0,0-1.485.59,1.915,1.915,0,0,0-.609,1.428,1.913,1.913,0,0,0,.609,1.476,12.275,12.275,0,0,0,2.647,1.533,12.833,12.833,0,0,1,4.8,2.618A5.28,5.28,0,0,1,32.83-5.58a5.267,5.267,0,0,1-2.095,4.3A8.546,8.546,0,0,1,25.232.4,7.617,7.617,0,0,1,19.6-1.676a6.129,6.129,0,0,1-1.98-4.685l.038-.114H22.6a3.361,3.361,0,0,0,.762,2.361,2.7,2.7,0,0,0,2,.724,2.342,2.342,0,0,0,1.657-.533A1.908,1.908,0,0,0,27.593-5.389ZM41.19,0H35.782V-20.6H41.19Zm0-25.575H35.782v-4.132H41.19ZM51.4-25.727V-20.6h2.856v3.923H51.4v10.34a3.366,3.366,0,0,0,.362,1.8,1.131,1.131,0,0,0,.99.543,6.227,6.227,0,0,0,.838-.048,6.129,6.129,0,0,0,.762-.162L54.768-.1A10.785,10.785,0,0,1,53.13.286,12.326,12.326,0,0,1,51.359.4a4.968,4.968,0,0,1-3.99-1.609q-1.381-1.609-1.381-5.113V-16.682H43.551V-20.6h2.438v-5.123Zm4.875,14.168a10.244,10.244,0,0,1,2.2-6.789,7.579,7.579,0,0,1,6.16-2.637,7.607,7.607,0,0,1,6.17,2.637,10.215,10.215,0,0,1,2.209,6.789v2.552a10.16,10.16,0,0,1-2.209,6.8A7.623,7.623,0,0,1,64.651.4a7.639,7.639,0,0,1-6.179-2.609,10.189,10.189,0,0,1-2.2-6.8Zm5.389,2.544a8.6,8.6,0,0,0,.667,3.738,2.374,2.374,0,0,0,2.323,1.354,2.345,2.345,0,0,0,2.276-1.364A8.506,8.506,0,0,0,67.6-9.015V-11.57a8.529,8.529,0,0,0-.676-3.71,2.356,2.356,0,0,0-2.295-1.383,2.354,2.354,0,0,0-2.295,1.392,8.541,8.541,0,0,0-.676,3.7Z" transform="translate(299 2164)" fill="#44d62c"/><path d="M5.1,11.664H2.152L1.479,14H.171L3.015,4.758H4.259L7.078,14H5.77ZM2.45,10.642H4.805L3.65,6.6H3.612Zm5.262-.349a4.212,4.212,0,0,1,.606-2.384A1.92,1.92,0,0,1,10,7a1.7,1.7,0,0,1,.914.244,2.066,2.066,0,0,1,.673.708l.1-.825H12.8v6.836a2.885,2.885,0,0,1-.7,2.063,2.563,2.563,0,0,1-1.958.743,3.822,3.822,0,0,1-1.8-.5l.273-.965a2.932,2.932,0,0,0,1.517.419,1.223,1.223,0,0,0,1.044-.451,2.171,2.171,0,0,0,.34-1.32V13.34a1.745,1.745,0,0,1-1.517.793,1.961,1.961,0,0,1-1.676-.822,3.592,3.592,0,0,1-.6-2.174ZM9,11.137a2.878,2.878,0,0,0,.317,1.457,1.072,1.072,0,0,0,1,.543,1.177,1.177,0,0,0,.714-.216,1.546,1.546,0,0,0,.479-.609V8.89a1.8,1.8,0,0,0-.482-.644,1.118,1.118,0,0,0-1.7.4A3.606,3.606,0,0,0,9,10.293Zm8.22-2.92-.6-.032a.945.945,0,0,0-.663.241,1.527,1.527,0,0,0-.4.679V14H14.263V7.132h1.174l.1,1.035a2.183,2.183,0,0,1,.565-.854A1.183,1.183,0,0,1,16.9,7a1.582,1.582,0,0,1,.26.022.985.985,0,0,1,.209.054Zm3.421,5.916a2.465,2.465,0,0,1-1.961-.851,3.207,3.207,0,0,1-.736-2.177v-1a3.382,3.382,0,0,1,.72-2.222A2.269,2.269,0,0,1,20.5,7a2.154,2.154,0,0,1,1.8.8,3.365,3.365,0,0,1,.628,2.142v.889H19.227v.273a2.58,2.58,0,0,0,.39,1.469,1.257,1.257,0,0,0,1.108.581,2.253,2.253,0,0,0,.914-.168,2.568,2.568,0,0,0,.724-.492l.406.8a2.4,2.4,0,0,1-.87.6A3.156,3.156,0,0,1,20.643,14.133ZM20.5,7.982a1.016,1.016,0,0,0-.9.546,2.854,2.854,0,0,0-.375,1.383h2.418V9.65a2.232,2.232,0,0,0-.292-1.2A.949.949,0,0,0,20.5,7.982Zm3.326,2.311a4.212,4.212,0,0,1,.606-2.384A1.92,1.92,0,0,1,26.114,7a1.7,1.7,0,0,1,.914.244,2.066,2.066,0,0,1,.673.708l.1-.825h1.111v6.836a2.885,2.885,0,0,1-.7,2.063,2.563,2.563,0,0,1-1.958.743,3.822,3.822,0,0,1-1.8-.5l.273-.965a2.932,2.932,0,0,0,1.517.419,1.223,1.223,0,0,0,1.044-.451,2.171,2.171,0,0,0,.34-1.32V13.34a1.745,1.745,0,0,1-1.517.793,1.961,1.961,0,0,1-1.676-.822,3.592,3.592,0,0,1-.6-2.174Zm1.289.844a2.878,2.878,0,0,0,.317,1.457,1.072,1.072,0,0,0,1,.543,1.177,1.177,0,0,0,.714-.216,1.546,1.546,0,0,0,.479-.609V8.89a1.8,1.8,0,0,0-.482-.644,1.118,1.118,0,0,0-1.7.4,3.606,3.606,0,0,0-.327,1.65ZM33.871,14q-.07-.235-.114-.46a3.286,3.286,0,0,1-.057-.454,2.451,2.451,0,0,1-.717.755,1.673,1.673,0,0,1-.958.292,1.734,1.734,0,0,1-1.362-.549,2.12,2.12,0,0,1-.492-1.469,1.909,1.909,0,0,1,.67-1.546,2.846,2.846,0,0,1,1.882-.562h.958v-.7a1.525,1.525,0,0,0-.279-.975A1.057,1.057,0,0,0,31.862,8.3a1.138,1.138,0,0,0-.282.788L30.354,9.08l-.019-.038a1.785,1.785,0,0,1,.635-1.416A2.424,2.424,0,0,1,32.69,7a2.294,2.294,0,0,1,1.647.6,2.247,2.247,0,0,1,.632,1.711V12.5a6.063,6.063,0,0,0,.048.771,4.442,4.442,0,0,0,.156.727Zm-1.555-.844a1.373,1.373,0,0,0,.822-.268,1.581,1.581,0,0,0,.543-.67v-1.41H32.7a1.145,1.145,0,0,0-.917.38,1.374,1.374,0,0,0-.327.929,1.2,1.2,0,0,0,.222.753A.755.755,0,0,0,32.316,13.156Zm7.078-4.938-.6-.032a.945.945,0,0,0-.663.241,1.527,1.527,0,0,0-.4.679V14H36.436V7.132H37.61l.1,1.035a2.183,2.183,0,0,1,.565-.854A1.183,1.183,0,0,1,39.076,7a1.582,1.582,0,0,1,.26.022.985.985,0,0,1,.209.054Zm5.884,3.72.108.533h.038l.108-.533L46.7,7.132h1.327L45.97,14H44.833L42.764,7.132H44.1ZM52.349,14q-.07-.235-.114-.46a3.286,3.286,0,0,1-.057-.454,2.451,2.451,0,0,1-.717.755,1.673,1.673,0,0,1-.958.292,1.734,1.734,0,0,1-1.362-.549,2.12,2.12,0,0,1-.492-1.469,1.909,1.909,0,0,1,.67-1.546,2.846,2.846,0,0,1,1.882-.562h.958v-.7a1.525,1.525,0,0,0-.279-.975A1.057,1.057,0,0,0,50.34,8.3a1.138,1.138,0,0,0-.282.788L48.833,9.08l-.019-.038a1.785,1.785,0,0,1,.635-1.416A2.424,2.424,0,0,1,51.168,7a2.294,2.294,0,0,1,1.647.6,2.247,2.247,0,0,1,.632,1.711V12.5a6.063,6.063,0,0,0,.048.771A4.442,4.442,0,0,0,53.65,14Zm-1.555-.844a1.373,1.373,0,0,0,.822-.268,1.581,1.581,0,0,0,.543-.67v-1.41h-.978a1.145,1.145,0,0,0-.917.38,1.374,1.374,0,0,0-.327.929,1.2,1.2,0,0,0,.222.753A.755.755,0,0,0,50.794,13.156ZM56.285,14H55V4.1h1.289Zm1.308-3.866a3.457,3.457,0,0,1,.714-2.247,2.614,2.614,0,0,1,3.913,0,3.444,3.444,0,0,1,.717,2.25v.876a3.439,3.439,0,0,1-.714,2.25,2.633,2.633,0,0,1-3.917,0,3.439,3.439,0,0,1-.714-2.25ZM58.881,11a3.108,3.108,0,0,0,.343,1.546,1.2,1.2,0,0,0,2.079,0A3.085,3.085,0,0,0,61.648,11v-.878A3.074,3.074,0,0,0,61.3,8.59a1.194,1.194,0,0,0-2.079,0,3.094,3.094,0,0,0-.343,1.54ZM67.12,8.217l-.6-.032a.945.945,0,0,0-.663.241,1.527,1.527,0,0,0-.4.679V14H64.162V7.132h1.174l.1,1.035A2.183,2.183,0,0,1,66,7.313,1.183,1.183,0,0,1,66.8,7a1.582,1.582,0,0,1,.26.022.985.985,0,0,1,.209.054ZM74.509,14q-.07-.235-.114-.46a3.284,3.284,0,0,1-.057-.454,2.451,2.451,0,0,1-.717.755,1.673,1.673,0,0,1-.958.292,1.734,1.734,0,0,1-1.362-.549,2.12,2.12,0,0,1-.492-1.469,1.909,1.909,0,0,1,.67-1.546,2.846,2.846,0,0,1,1.882-.562h.958v-.7a1.525,1.525,0,0,0-.279-.975A1.057,1.057,0,0,0,72.5,8.3a1.138,1.138,0,0,0-.282.788L70.992,9.08l-.019-.038a1.785,1.785,0,0,1,.635-1.416A2.424,2.424,0,0,1,73.328,7a2.294,2.294,0,0,1,1.647.6,2.247,2.247,0,0,1,.632,1.711V12.5a6.063,6.063,0,0,0,.048.771A4.443,4.443,0,0,0,75.81,14Zm-1.555-.844a1.373,1.373,0,0,0,.822-.268,1.581,1.581,0,0,0,.543-.67v-1.41h-.978a1.145,1.145,0,0,0-.917.38,1.374,1.374,0,0,0-.327.929,1.2,1.2,0,0,0,.222.753A.755.755,0,0,0,72.954,13.156ZM81.275,14H79.987V4.1h1.289Zm5.059,0q-.07-.235-.114-.46a3.284,3.284,0,0,1-.057-.454,2.451,2.451,0,0,1-.717.755,1.673,1.673,0,0,1-.958.292,1.734,1.734,0,0,1-1.362-.549,2.12,2.12,0,0,1-.492-1.469,1.909,1.909,0,0,1,.67-1.546,2.846,2.846,0,0,1,1.882-.562h.958v-.7a1.525,1.525,0,0,0-.279-.975A1.057,1.057,0,0,0,84.325,8.3a1.138,1.138,0,0,0-.282.788L82.818,9.08,82.8,9.042a1.785,1.785,0,0,1,.635-1.416A2.424,2.424,0,0,1,85.154,7a2.294,2.294,0,0,1,1.647.6,2.247,2.247,0,0,1,.632,1.711V12.5a6.063,6.063,0,0,0,.048.771,4.443,4.443,0,0,0,.156.727Zm-1.555-.844a1.373,1.373,0,0,0,.822-.268,1.581,1.581,0,0,0,.543-.67v-1.41h-.978a1.145,1.145,0,0,0-.917.38,1.374,1.374,0,0,0-.327.929,1.2,1.2,0,0,0,.222.753A.755.755,0,0,0,84.779,13.156ZM92.1,12.28a.943.943,0,0,0-.263-.676A3.349,3.349,0,0,0,90.841,11a5.1,5.1,0,0,1-1.571-.879,1.562,1.562,0,0,1-.511-1.209,1.739,1.739,0,0,1,.625-1.349A2.379,2.379,0,0,1,91.025,7a2.344,2.344,0,0,1,1.688.6,1.9,1.9,0,0,1,.6,1.495l-.013.038H92.066A1.322,1.322,0,0,0,91.79,8.3a.918.918,0,0,0-.765-.352,1.01,1.01,0,0,0-.752.273.883.883,0,0,0-.27.641.834.834,0,0,0,.232.622,4.166,4.166,0,0,0,1,.6,4.635,4.635,0,0,1,1.6.879,1.652,1.652,0,0,1,.524,1.26,1.709,1.709,0,0,1-.647,1.384,2.59,2.59,0,0,1-1.7.533,2.439,2.439,0,0,1-1.79-.644,1.943,1.943,0,0,1-.622-1.508l.013-.038h1.2a1.274,1.274,0,0,0,.368.962,1.258,1.258,0,0,0,.851.3,1.122,1.122,0,0,0,.784-.257A.856.856,0,0,0,92.1,12.28ZM98.56,7.132l.07.933a2.117,2.117,0,0,1,.711-.784A1.832,1.832,0,0,1,100.35,7a1.54,1.54,0,0,1,.971.314,1.919,1.919,0,0,1,.616.955,2.334,2.334,0,0,1,.711-.933A1.7,1.7,0,0,1,103.7,7a1.6,1.6,0,0,1,1.381.72,3.847,3.847,0,0,1,.5,2.193V14H104.3V9.912a3.024,3.024,0,0,0-.26-1.479.845.845,0,0,0-.768-.425.94.94,0,0,0-.733.333,2.029,2.029,0,0,0-.428.885q-.006-.051.006.162t.013.308V14h-1.282V9.912a2.973,2.973,0,0,0-.267-1.463.853.853,0,0,0-.774-.441,1.083,1.083,0,0,0-.692.225,1.461,1.461,0,0,0-.444.625V14H97.386V7.132Zm12,6.868q-.07-.235-.114-.46a3.284,3.284,0,0,1-.057-.454,2.451,2.451,0,0,1-.717.755,1.673,1.673,0,0,1-.958.292,1.734,1.734,0,0,1-1.362-.549,2.12,2.12,0,0,1-.492-1.469,1.909,1.909,0,0,1,.67-1.546,2.846,2.846,0,0,1,1.882-.562h.958v-.7a1.525,1.525,0,0,0-.279-.975,1.057,1.057,0,0,0-1.539-.035,1.138,1.138,0,0,0-.282.788l-1.225-.006-.019-.038a1.785,1.785,0,0,1,.635-1.416A2.424,2.424,0,0,1,109.383,7a2.294,2.294,0,0,1,1.647.6,2.247,2.247,0,0,1,.632,1.711V12.5a6.063,6.063,0,0,0,.048.771,4.443,4.443,0,0,0,.156.727Zm-1.555-.844a1.373,1.373,0,0,0,.822-.268,1.581,1.581,0,0,0,.543-.67v-1.41H109.4a1.145,1.145,0,0,0-.917.38,1.374,1.374,0,0,0-.327.929,1.2,1.2,0,0,0,.222.753A.755.755,0,0,0,109.008,13.156Zm7.078-4.938-.6-.032a.945.945,0,0,0-.663.241,1.527,1.527,0,0,0-.4.679V14h-1.289V7.132H114.3l.1,1.035a2.183,2.183,0,0,1,.565-.854A1.183,1.183,0,0,1,115.769,7a1.582,1.582,0,0,1,.26.022.985.985,0,0,1,.209.054Zm3.326,4.938a1.045,1.045,0,0,0,.813-.371,1.44,1.44,0,0,0,.33-.993h1.155l.013.038a2.117,2.117,0,0,1-.657,1.638,2.279,2.279,0,0,1-1.654.667,2.349,2.349,0,0,1-1.965-.87,3.48,3.48,0,0,1-.682-2.215V10.1a3.507,3.507,0,0,1,.682-2.222A2.335,2.335,0,0,1,119.406,7a2.211,2.211,0,0,1,1.692.7,2.462,2.462,0,0,1,.632,1.8l-.019.038h-1.155a1.864,1.864,0,0,0-.314-1.123.983.983,0,0,0-.835-.432,1.08,1.08,0,0,0-1.044.6,3.3,3.3,0,0,0-.308,1.514v.948a3.288,3.288,0,0,0,.308,1.521A1.087,1.087,0,0,0,119.412,13.156Zm6.957.844q-.07-.235-.114-.46a3.284,3.284,0,0,1-.057-.454,2.451,2.451,0,0,1-.717.755,1.673,1.673,0,0,1-.958.292,1.734,1.734,0,0,1-1.362-.549,2.12,2.12,0,0,1-.492-1.469,1.909,1.909,0,0,1,.67-1.546,2.846,2.846,0,0,1,1.882-.562h.958v-.7a1.525,1.525,0,0,0-.279-.975A1.057,1.057,0,0,0,124.36,8.3a1.138,1.138,0,0,0-.282.788l-1.225-.006-.019-.038a1.785,1.785,0,0,1,.635-1.416A2.424,2.424,0,0,1,125.188,7a2.294,2.294,0,0,1,1.647.6,2.247,2.247,0,0,1,.632,1.711V12.5a6.063,6.063,0,0,0,.048.771,4.443,4.443,0,0,0,.156.727Zm-1.555-.844a1.373,1.373,0,0,0,.822-.268,1.581,1.581,0,0,0,.543-.67v-1.41H125.2a1.145,1.145,0,0,0-.917.38,1.374,1.374,0,0,0-.327.929,1.2,1.2,0,0,0,.222.753A.755.755,0,0,0,124.814,13.156Zm7.319-.876a.943.943,0,0,0-.263-.676,3.349,3.349,0,0,0-.993-.606,5.1,5.1,0,0,1-1.571-.879,1.562,1.562,0,0,1-.511-1.209,1.739,1.739,0,0,1,.625-1.349A2.379,2.379,0,0,1,131.06,7a2.344,2.344,0,0,1,1.688.6,1.9,1.9,0,0,1,.6,1.495l-.013.038H132.1a1.322,1.322,0,0,0-.276-.841.918.918,0,0,0-.765-.352,1.01,1.01,0,0,0-.752.273.883.883,0,0,0-.27.641.834.834,0,0,0,.232.622,4.167,4.167,0,0,0,1,.6,4.635,4.635,0,0,1,1.6.879,1.652,1.652,0,0,1,.524,1.26,1.709,1.709,0,0,1-.647,1.384,2.59,2.59,0,0,1-1.7.533,2.439,2.439,0,0,1-1.79-.644,1.943,1.943,0,0,1-.622-1.508l.013-.038h1.2a1.274,1.274,0,0,0,.368.962,1.258,1.258,0,0,0,.851.3,1.122,1.122,0,0,0,.784-.257A.856.856,0,0,0,132.133,12.28Zm5.046-1.631A5.145,5.145,0,0,1,137.773,8a1.852,1.852,0,0,1,1.673-1,1.7,1.7,0,0,1,.86.216,1.954,1.954,0,0,1,.651.622V4.1h1.282V14h-1.124l-.1-.787a1.946,1.946,0,0,1-.67.686,1.754,1.754,0,0,1-.911.235,1.879,1.879,0,0,1-1.666-.914,4.422,4.422,0,0,1-.594-2.437Zm1.289.133a3.957,3.957,0,0,0,.311,1.72,1.031,1.031,0,0,0,.984.635,1.132,1.132,0,0,0,.714-.229,1.629,1.629,0,0,0,.479-.641V8.928a1.783,1.783,0,0,0-.479-.673,1.057,1.057,0,0,0-.7-.248,1.045,1.045,0,0,0-.99.73,4.847,4.847,0,0,0-.317,1.911Zm7.75,3.352a2.465,2.465,0,0,1-1.961-.851,3.207,3.207,0,0,1-.736-2.177v-1a3.382,3.382,0,0,1,.72-2.222A2.269,2.269,0,0,1,146.072,7a2.154,2.154,0,0,1,1.8.8,3.365,3.365,0,0,1,.628,2.142v.889H144.8v.273a2.58,2.58,0,0,0,.39,1.469,1.257,1.257,0,0,0,1.108.581,2.253,2.253,0,0,0,.914-.168,2.568,2.568,0,0,0,.724-.492l.406.8a2.4,2.4,0,0,1-.87.6A3.156,3.156,0,0,1,146.218,14.133Zm-.146-6.151a1.016,1.016,0,0,0-.9.546,2.854,2.854,0,0,0-.375,1.383h2.418V9.65a2.232,2.232,0,0,0-.292-1.2A.949.949,0,0,0,146.072,7.982ZM1.9,25.132l.07,1.016a2.3,2.3,0,0,1,.724-.841,1.705,1.705,0,0,1,.99-.3,1.655,1.655,0,0,1,1.4.667,3.449,3.449,0,0,1,.5,2.069V32H4.3V27.753A2.476,2.476,0,0,0,4.031,26.4a.937.937,0,0,0-.825-.394,1.085,1.085,0,0,0-.7.244,1.769,1.769,0,0,0-.5.663V32H.724V25.132Zm8.772,5.948a2.062,2.062,0,0,1-.7.781A1.77,1.77,0,0,1,9,32.133a1.694,1.694,0,0,1-1.454-.717,3.82,3.82,0,0,1-.521-2.228V25.132H8.309V29.2A3.228,3.228,0,0,0,8.56,30.7a.813.813,0,0,0,.752.441,1.365,1.365,0,0,0,.8-.222,1.529,1.529,0,0,0,.511-.635V25.132h1.289V32H10.759Zm5.173,1.054a2.465,2.465,0,0,1-1.961-.851,3.207,3.207,0,0,1-.736-2.177v-1a3.382,3.382,0,0,1,.72-2.222A2.269,2.269,0,0,1,15.7,25a2.154,2.154,0,0,1,1.8.8,3.365,3.365,0,0,1,.628,2.142v.889H14.435v.273a2.58,2.58,0,0,0,.39,1.469,1.257,1.257,0,0,0,1.108.581,2.253,2.253,0,0,0,.914-.168,2.568,2.568,0,0,0,.724-.492l.406.8a2.4,2.4,0,0,1-.87.6A3.156,3.156,0,0,1,15.85,32.133ZM15.7,25.982a1.016,1.016,0,0,0-.9.546,2.854,2.854,0,0,0-.375,1.383h2.418V27.65a2.232,2.232,0,0,0-.292-1.2A.949.949,0,0,0,15.7,25.982Zm6.767,4.3a.943.943,0,0,0-.263-.676A3.349,3.349,0,0,0,21.214,29a5.1,5.1,0,0,1-1.571-.879,1.562,1.562,0,0,1-.511-1.209,1.739,1.739,0,0,1,.625-1.349A2.379,2.379,0,0,1,21.4,25a2.344,2.344,0,0,1,1.688.6,1.9,1.9,0,0,1,.6,1.495l-.013.038H22.439a1.322,1.322,0,0,0-.276-.841.918.918,0,0,0-.765-.352,1.01,1.01,0,0,0-.752.273.883.883,0,0,0-.27.641.834.834,0,0,0,.232.622,4.167,4.167,0,0,0,1,.6,4.635,4.635,0,0,1,1.6.879,1.652,1.652,0,0,1,.524,1.26,1.709,1.709,0,0,1-.647,1.384,2.59,2.59,0,0,1-1.7.533,2.439,2.439,0,0,1-1.79-.644,1.943,1.943,0,0,1-.622-1.508l.013-.038h1.2a1.274,1.274,0,0,0,.368.962,1.258,1.258,0,0,0,.851.3,1.122,1.122,0,0,0,.784-.257A.856.856,0,0,0,22.471,30.28Zm4.1-6.855v1.708h1.073v.92H26.571V30.14a1.363,1.363,0,0,0,.159.759.484.484,0,0,0,.413.225,1.955,1.955,0,0,0,.282-.019q.13-.019.308-.057l.133.889a2.631,2.631,0,0,1-.486.143,2.826,2.826,0,0,1-.555.054,1.4,1.4,0,0,1-1.133-.479,2.33,2.33,0,0,1-.4-1.514V26.052h-.9v-.92h.9V23.424Zm5.3,2.793-.6-.032a.945.945,0,0,0-.663.241,1.527,1.527,0,0,0-.4.679V32H28.914V25.132h1.174l.1,1.035a2.183,2.183,0,0,1,.565-.854A1.183,1.183,0,0,1,31.554,25a1.582,1.582,0,0,1,.26.022.985.985,0,0,1,.209.054Zm.679,1.917a3.457,3.457,0,0,1,.714-2.247,2.614,2.614,0,0,1,3.913,0,3.444,3.444,0,0,1,.717,2.25v.876a3.439,3.439,0,0,1-.714,2.25,2.633,2.633,0,0,1-3.917,0,3.439,3.439,0,0,1-.714-2.25ZM33.839,29a3.108,3.108,0,0,0,.343,1.546,1.2,1.2,0,0,0,2.079,0A3.085,3.085,0,0,0,36.607,29v-.878a3.074,3.074,0,0,0-.346-1.537,1.194,1.194,0,0,0-2.079,0,3.094,3.094,0,0,0-.343,1.54Zm8.48,1.275a.943.943,0,0,0-.263-.676A3.349,3.349,0,0,0,41.063,29a5.1,5.1,0,0,1-1.571-.879,1.562,1.562,0,0,1-.511-1.209,1.739,1.739,0,0,1,.625-1.349A2.379,2.379,0,0,1,41.247,25a2.344,2.344,0,0,1,1.688.6,1.9,1.9,0,0,1,.6,1.495l-.013.038H42.288a1.322,1.322,0,0,0-.276-.841.918.918,0,0,0-.765-.352,1.01,1.01,0,0,0-.752.273.883.883,0,0,0-.27.641.834.834,0,0,0,.232.622,4.167,4.167,0,0,0,1,.6,4.635,4.635,0,0,1,1.6.879,1.652,1.652,0,0,1,.524,1.26,1.709,1.709,0,0,1-.647,1.384,2.59,2.59,0,0,1-1.7.533,2.439,2.439,0,0,1-1.79-.644,1.943,1.943,0,0,1-.622-1.508l.013-.038h1.2a1.274,1.274,0,0,0,.368.962,1.258,1.258,0,0,0,.851.3,1.122,1.122,0,0,0,.784-.257A.856.856,0,0,0,42.32,30.28Zm7.674.876a1.045,1.045,0,0,0,.813-.371,1.44,1.44,0,0,0,.33-.993h1.155l.013.038a2.117,2.117,0,0,1-.657,1.638,2.279,2.279,0,0,1-1.654.667,2.349,2.349,0,0,1-1.965-.87,3.48,3.48,0,0,1-.682-2.215V28.1a3.507,3.507,0,0,1,.682-2.222A2.335,2.335,0,0,1,49.988,25a2.211,2.211,0,0,1,1.692.7,2.462,2.462,0,0,1,.632,1.8l-.019.038H51.137a1.864,1.864,0,0,0-.314-1.123.983.983,0,0,0-.835-.432,1.08,1.08,0,0,0-1.044.6,3.3,3.3,0,0,0-.308,1.514v.948a3.288,3.288,0,0,0,.308,1.521A1.087,1.087,0,0,0,49.994,31.156ZM54.825,32H53.536V22.1h1.289Zm2.933,0H56.469V25.132h1.289Zm0-8.671H56.469V22.1h1.289Zm4.043,8.8a2.465,2.465,0,0,1-1.961-.851,3.207,3.207,0,0,1-.736-2.177v-1a3.382,3.382,0,0,1,.72-2.222A2.269,2.269,0,0,1,61.655,25a2.154,2.154,0,0,1,1.8.8,3.365,3.365,0,0,1,.628,2.142v.889H60.385v.273a2.58,2.58,0,0,0,.39,1.469,1.257,1.257,0,0,0,1.108.581,2.253,2.253,0,0,0,.914-.168,2.568,2.568,0,0,0,.724-.492l.406.8a2.4,2.4,0,0,1-.87.6A3.156,3.156,0,0,1,61.8,32.133Zm-.146-6.151a1.016,1.016,0,0,0-.9.546,2.854,2.854,0,0,0-.375,1.383H62.8V27.65a2.232,2.232,0,0,0-.292-1.2A.949.949,0,0,0,61.655,25.982Zm4.735-.851.07,1.016a2.3,2.3,0,0,1,.724-.841,1.705,1.705,0,0,1,.99-.3,1.655,1.655,0,0,1,1.4.667,3.449,3.449,0,0,1,.5,2.069V32H68.79V27.753a2.476,2.476,0,0,0-.273-1.352.937.937,0,0,0-.825-.394,1.085,1.085,0,0,0-.7.244,1.769,1.769,0,0,0-.5.663V32H65.209V25.132Zm6.792-1.708v1.708h1.073v.92H73.182V30.14a1.363,1.363,0,0,0,.159.759.484.484,0,0,0,.413.225,1.955,1.955,0,0,0,.282-.019q.13-.019.308-.057l.133.889a2.631,2.631,0,0,1-.486.143,2.826,2.826,0,0,1-.555.054,1.4,1.4,0,0,1-1.133-.479,2.33,2.33,0,0,1-.4-1.514V26.052H71v-.92h.9V23.424Zm4.824,8.709a2.465,2.465,0,0,1-1.961-.851,3.207,3.207,0,0,1-.736-2.177v-1a3.382,3.382,0,0,1,.72-2.222A2.269,2.269,0,0,1,77.86,25a2.154,2.154,0,0,1,1.8.8,3.365,3.365,0,0,1,.628,2.142v.889H76.591v.273a2.58,2.58,0,0,0,.39,1.469,1.257,1.257,0,0,0,1.108.581A2.253,2.253,0,0,0,79,30.988a2.568,2.568,0,0,0,.724-.492l.406.8a2.4,2.4,0,0,1-.87.6A3.156,3.156,0,0,1,78.006,32.133Zm-.146-6.151a1.016,1.016,0,0,0-.9.546,2.854,2.854,0,0,0-.375,1.383h2.418V27.65a2.232,2.232,0,0,0-.292-1.2A.949.949,0,0,0,77.86,25.982Zm6.767,4.3a.943.943,0,0,0-.263-.676A3.349,3.349,0,0,0,83.37,29a5.1,5.1,0,0,1-1.571-.879,1.562,1.562,0,0,1-.511-1.209,1.739,1.739,0,0,1,.625-1.349A2.379,2.379,0,0,1,83.554,25a2.344,2.344,0,0,1,1.688.6,1.9,1.9,0,0,1,.6,1.495l-.013.038H84.6a1.322,1.322,0,0,0-.276-.841.918.918,0,0,0-.765-.352,1.01,1.01,0,0,0-.752.273.883.883,0,0,0-.27.641.834.834,0,0,0,.232.622,4.166,4.166,0,0,0,1,.6,4.635,4.635,0,0,1,1.6.879,1.652,1.652,0,0,1,.524,1.26,1.709,1.709,0,0,1-.647,1.384,2.59,2.59,0,0,1-1.7.533,2.439,2.439,0,0,1-1.79-.644,1.943,1.943,0,0,1-.622-1.508l.013-.038h1.2a1.274,1.274,0,0,0,.368.962,1.258,1.258,0,0,0,.851.3,1.122,1.122,0,0,0,.784-.257A.856.856,0,0,0,84.627,30.28Zm7.674.876a1.045,1.045,0,0,0,.813-.371,1.44,1.44,0,0,0,.33-.993H94.6l.013.038a2.117,2.117,0,0,1-.657,1.638,2.279,2.279,0,0,1-1.654.667,2.349,2.349,0,0,1-1.965-.87,3.48,3.48,0,0,1-.682-2.215V28.1a3.507,3.507,0,0,1,.682-2.222A2.335,2.335,0,0,1,92.295,25a2.211,2.211,0,0,1,1.692.7,2.462,2.462,0,0,1,.632,1.8l-.019.038H93.444a1.864,1.864,0,0,0-.314-1.123.983.983,0,0,0-.835-.432,1.08,1.08,0,0,0-1.044.6,3.3,3.3,0,0,0-.308,1.514v.948a3.288,3.288,0,0,0,.308,1.521A1.087,1.087,0,0,0,92.3,31.156Zm3.206-3.021a3.457,3.457,0,0,1,.714-2.247,2.614,2.614,0,0,1,3.913,0,3.444,3.444,0,0,1,.717,2.25v.876a3.439,3.439,0,0,1-.714,2.25,2.633,2.633,0,0,1-3.917,0,3.439,3.439,0,0,1-.714-2.25ZM96.8,29a3.108,3.108,0,0,0,.343,1.546,1.2,1.2,0,0,0,2.079,0A3.085,3.085,0,0,0,99.563,29v-.878a3.074,3.074,0,0,0-.346-1.537,1.194,1.194,0,0,0-2.079,0,3.094,3.094,0,0,0-.343,1.54Zm6.449-3.873.07,1.016a2.3,2.3,0,0,1,.724-.841,1.705,1.705,0,0,1,.99-.3,1.655,1.655,0,0,1,1.4.667,3.449,3.449,0,0,1,.5,2.069V32h-1.289V27.753a2.476,2.476,0,0,0-.273-1.352.937.937,0,0,0-.825-.394,1.085,1.085,0,0,0-.7.244,1.769,1.769,0,0,0-.5.663V32h-1.289V25.132Zm11.178,5.148a.943.943,0,0,0-.263-.676,3.349,3.349,0,0,0-.993-.606,5.1,5.1,0,0,1-1.571-.879,1.562,1.562,0,0,1-.511-1.209,1.739,1.739,0,0,1,.625-1.349A2.379,2.379,0,0,1,113.35,25a2.344,2.344,0,0,1,1.688.6,1.9,1.9,0,0,1,.6,1.495l-.013.038h-1.238a1.322,1.322,0,0,0-.276-.841.918.918,0,0,0-.765-.352,1.01,1.01,0,0,0-.752.273.883.883,0,0,0-.27.641.834.834,0,0,0,.232.622,4.166,4.166,0,0,0,1,.6,4.635,4.635,0,0,1,1.6.879,1.652,1.652,0,0,1,.524,1.26,1.709,1.709,0,0,1-.647,1.384,2.59,2.59,0,0,1-1.7.533,2.439,2.439,0,0,1-1.79-.644,1.943,1.943,0,0,1-.622-1.508l.013-.038h1.2a1.274,1.274,0,0,0,.368.962,1.258,1.258,0,0,0,.851.3,1.122,1.122,0,0,0,.784-.257A.856.856,0,0,0,114.423,30.28Zm2.2-2.146a3.457,3.457,0,0,1,.714-2.247,2.614,2.614,0,0,1,3.913,0,3.444,3.444,0,0,1,.717,2.25v.876a3.439,3.439,0,0,1-.714,2.25,2.633,2.633,0,0,1-3.917,0,3.439,3.439,0,0,1-.714-2.25Zm1.289.871a3.108,3.108,0,0,0,.343,1.546,1.2,1.2,0,0,0,2.079,0A3.085,3.085,0,0,0,120.682,29v-.878a3.074,3.074,0,0,0-.346-1.537,1.194,1.194,0,0,0-2.079,0,3.094,3.094,0,0,0-.343,1.54Zm6.652,3h-1.289V22.1h1.289Zm5.186-.92a2.062,2.062,0,0,1-.7.781,1.77,1.77,0,0,1-.978.273,1.694,1.694,0,0,1-1.454-.717,3.82,3.82,0,0,1-.521-2.228V25.132h1.282V29.2a3.228,3.228,0,0,0,.251,1.495.813.813,0,0,0,.752.441,1.365,1.365,0,0,0,.8-.222,1.529,1.529,0,0,0,.511-.635V25.132h1.289V32h-1.149Zm5.078.076a1.045,1.045,0,0,0,.813-.371,1.44,1.44,0,0,0,.33-.993h1.155l.013.038a2.117,2.117,0,0,1-.657,1.638,2.279,2.279,0,0,1-1.654.667,2.349,2.349,0,0,1-1.965-.87,3.481,3.481,0,0,1-.682-2.215V28.1a3.507,3.507,0,0,1,.682-2.222A2.335,2.335,0,0,1,134.824,25a2.211,2.211,0,0,1,1.692.7,2.462,2.462,0,0,1,.632,1.8l-.019.038h-1.155a1.864,1.864,0,0,0-.314-1.123.983.983,0,0,0-.835-.432,1.08,1.08,0,0,0-1.044.6,3.3,3.3,0,0,0-.308,1.514v.948a3.287,3.287,0,0,0,.308,1.521A1.087,1.087,0,0,0,134.831,31.156Zm4.831.844h-1.289V25.132h1.289Zm0-8.671h-1.289V22.1h1.289Zm1.308,4.805a3.457,3.457,0,0,1,.714-2.247,2.614,2.614,0,0,1,3.913,0,3.444,3.444,0,0,1,.717,2.25v.876a3.439,3.439,0,0,1-.714,2.25,2.633,2.633,0,0,1-3.917,0,3.439,3.439,0,0,1-.714-2.25Zm1.289.871a3.108,3.108,0,0,0,.343,1.546,1.2,1.2,0,0,0,2.079,0A3.085,3.085,0,0,0,145.025,29v-.878a3.074,3.074,0,0,0-.346-1.537,1.194,1.194,0,0,0-2.079,0,3.094,3.094,0,0,0-.343,1.54Zm6.449-3.873.07,1.016a2.3,2.3,0,0,1,.724-.841,1.705,1.705,0,0,1,.99-.3,1.655,1.655,0,0,1,1.4.667,3.449,3.449,0,0,1,.5,2.069V32h-1.289V27.753a2.476,2.476,0,0,0-.273-1.352.937.937,0,0,0-.825-.394,1.085,1.085,0,0,0-.7.244,1.769,1.769,0,0,0-.5.663V32h-1.289V25.132Zm7.63,7a2.465,2.465,0,0,1-1.961-.851,3.207,3.207,0,0,1-.736-2.177v-1a3.382,3.382,0,0,1,.72-2.222A2.269,2.269,0,0,1,156.19,25a2.154,2.154,0,0,1,1.8.8,3.365,3.365,0,0,1,.628,2.142v.889h-3.694v.273a2.58,2.58,0,0,0,.39,1.469,1.257,1.257,0,0,0,1.108.581,2.253,2.253,0,0,0,.914-.168,2.568,2.568,0,0,0,.724-.492l.406.8a2.4,2.4,0,0,1-.87.6A3.156,3.156,0,0,1,156.336,32.133Zm-.146-6.151a1.016,1.016,0,0,0-.9.546,2.854,2.854,0,0,0-.375,1.383h2.418V27.65a2.232,2.232,0,0,0-.292-1.2A.949.949,0,0,0,156.19,25.982Zm6.767,4.3a.943.943,0,0,0-.263-.676A3.349,3.349,0,0,0,161.7,29a5.1,5.1,0,0,1-1.571-.879,1.562,1.562,0,0,1-.511-1.209,1.739,1.739,0,0,1,.625-1.349A2.379,2.379,0,0,1,161.884,25a2.344,2.344,0,0,1,1.688.6,1.9,1.9,0,0,1,.6,1.495l-.013.038h-1.238a1.322,1.322,0,0,0-.276-.841.918.918,0,0,0-.765-.352,1.01,1.01,0,0,0-.752.273.883.883,0,0,0-.27.641.834.834,0,0,0,.232.622,4.167,4.167,0,0,0,1,.6,4.635,4.635,0,0,1,1.6.879,1.652,1.652,0,0,1,.524,1.26,1.709,1.709,0,0,1-.647,1.384,2.59,2.59,0,0,1-1.7.533,2.439,2.439,0,0,1-1.79-.644,1.943,1.943,0,0,1-.622-1.508l.013-.038h1.2a1.274,1.274,0,0,0,.368.962,1.258,1.258,0,0,0,.851.3,1.122,1.122,0,0,0,.784-.257A.856.856,0,0,0,162.957,30.28ZM.5,46.648A5.145,5.145,0,0,1,1.089,44a1.852,1.852,0,0,1,1.673-1,1.7,1.7,0,0,1,.86.216,1.954,1.954,0,0,1,.651.622V40.1H5.554V50H4.431l-.1-.787a1.946,1.946,0,0,1-.67.686,1.754,1.754,0,0,1-.911.235,1.879,1.879,0,0,1-1.666-.914A4.422,4.422,0,0,1,.5,46.782Zm1.289.133a3.956,3.956,0,0,0,.311,1.72,1.031,1.031,0,0,0,.984.635,1.132,1.132,0,0,0,.714-.229,1.629,1.629,0,0,0,.479-.641V44.928a1.783,1.783,0,0,0-.479-.673,1.057,1.057,0,0,0-.7-.248,1.045,1.045,0,0,0-.99.73,4.847,4.847,0,0,0-.317,1.911Zm7.75,3.352a2.465,2.465,0,0,1-1.961-.851,3.207,3.207,0,0,1-.736-2.177v-1a3.382,3.382,0,0,1,.72-2.222A2.269,2.269,0,0,1,9.388,43a2.154,2.154,0,0,1,1.8.8,3.365,3.365,0,0,1,.628,2.142v.889H8.119v.273a2.58,2.58,0,0,0,.39,1.469,1.257,1.257,0,0,0,1.108.581,2.253,2.253,0,0,0,.914-.168,2.568,2.568,0,0,0,.724-.492l.406.8a2.4,2.4,0,0,1-.87.6A3.156,3.156,0,0,1,9.534,50.133Zm-.146-6.151a1.016,1.016,0,0,0-.9.546,2.854,2.854,0,0,0-.375,1.383h2.418V45.65a2.232,2.232,0,0,0-.292-1.2A.949.949,0,0,0,9.388,43.982Zm8.88,6.151a2.465,2.465,0,0,1-1.961-.851,3.207,3.207,0,0,1-.736-2.177v-1a3.382,3.382,0,0,1,.72-2.222A2.269,2.269,0,0,1,18.123,43a2.154,2.154,0,0,1,1.8.8,3.365,3.365,0,0,1,.628,2.142v.889H16.853v.273a2.58,2.58,0,0,0,.39,1.469,1.257,1.257,0,0,0,1.108.581,2.253,2.253,0,0,0,.914-.168,2.568,2.568,0,0,0,.724-.492l.406.8a2.4,2.4,0,0,1-.87.6A3.156,3.156,0,0,1,18.269,50.133Zm-.146-6.151a1.016,1.016,0,0,0-.9.546,2.854,2.854,0,0,0-.375,1.383h2.418V45.65a2.232,2.232,0,0,0-.292-1.2A.949.949,0,0,0,18.123,43.982Zm4.742-.851.07.933a2.117,2.117,0,0,1,.711-.784A1.832,1.832,0,0,1,24.654,43a1.54,1.54,0,0,1,.971.314,1.919,1.919,0,0,1,.616.955,2.334,2.334,0,0,1,.711-.933A1.7,1.7,0,0,1,28.006,43a1.6,1.6,0,0,1,1.381.72,3.847,3.847,0,0,1,.5,2.193V50H28.6V45.912a3.024,3.024,0,0,0-.26-1.479.845.845,0,0,0-.768-.425.94.94,0,0,0-.733.333,2.029,2.029,0,0,0-.428.885q-.006-.051.006.162t.013.308V50H25.149V45.912a2.973,2.973,0,0,0-.267-1.463.853.853,0,0,0-.774-.441,1.083,1.083,0,0,0-.692.225,1.461,1.461,0,0,0-.444.625V50H21.69V43.132Zm13.584,4.005a3.617,3.617,0,0,1-.6,2.177,1.935,1.935,0,0,1-1.657.819,1.9,1.9,0,0,1-.882-.2,1.843,1.843,0,0,1-.654-.578v3.282H31.37V43.132h1.149l.083.787a2.018,2.018,0,0,1,.667-.676A1.731,1.731,0,0,1,34.182,43a1.893,1.893,0,0,1,1.669.9,4.261,4.261,0,0,1,.6,2.387Zm-1.289-.844a3.551,3.551,0,0,0-.333-1.647,1.065,1.065,0,0,0-.993-.638,1.089,1.089,0,0,0-.7.235,1.654,1.654,0,0,0-.47.641v3.472a1.4,1.4,0,0,0,.463.594,1.212,1.212,0,0,0,.717.206,1.077,1.077,0,0,0,.993-.555,2.866,2.866,0,0,0,.327-1.463ZM41.184,50q-.07-.235-.114-.46a3.286,3.286,0,0,1-.057-.454,2.451,2.451,0,0,1-.717.755,1.673,1.673,0,0,1-.958.292,1.734,1.734,0,0,1-1.362-.549,2.12,2.12,0,0,1-.492-1.469,1.909,1.909,0,0,1,.67-1.546,2.846,2.846,0,0,1,1.882-.562h.958v-.7a1.525,1.525,0,0,0-.279-.975,1.057,1.057,0,0,0-1.539-.035,1.138,1.138,0,0,0-.282.788l-1.225-.006-.019-.038a1.785,1.785,0,0,1,.635-1.416A2.424,2.424,0,0,1,40,43a2.294,2.294,0,0,1,1.647.6,2.247,2.247,0,0,1,.632,1.711V48.5a6.063,6.063,0,0,0,.048.771,4.442,4.442,0,0,0,.156.727Zm-1.555-.844a1.373,1.373,0,0,0,.822-.268,1.581,1.581,0,0,0,.543-.67v-1.41h-.978a1.145,1.145,0,0,0-.917.38,1.374,1.374,0,0,0-.327.929,1.2,1.2,0,0,0,.222.753A.755.755,0,0,0,39.628,49.156Zm3.878-2.863a4.261,4.261,0,0,1,.6-2.387,1.893,1.893,0,0,1,1.669-.9,1.7,1.7,0,0,1,.885.229,2.035,2.035,0,0,1,.663.66l.1-.762h1.117v9.509H47.246V49.384a1.863,1.863,0,0,1-.641.559,1.8,1.8,0,0,1-.838.19,1.939,1.939,0,0,1-1.666-.819,3.631,3.631,0,0,1-.594-2.177Zm1.289.844a2.982,2.982,0,0,0,.311,1.466,1.048,1.048,0,0,0,.984.552,1.15,1.15,0,0,0,.686-.2,1.506,1.506,0,0,0,.47-.579V44.8a1.582,1.582,0,0,0-.463-.6,1.082,1.082,0,0,0-.679-.22,1.042,1.042,0,0,0-.99.641A3.764,3.764,0,0,0,44.8,46.29Zm8.893,1.942a2.062,2.062,0,0,1-.7.781,1.77,1.77,0,0,1-.978.273,1.694,1.694,0,0,1-1.454-.717,3.82,3.82,0,0,1-.521-2.228V43.132h1.282V47.2a3.228,3.228,0,0,0,.251,1.495.813.813,0,0,0,.752.441,1.365,1.365,0,0,0,.8-.222,1.529,1.529,0,0,0,.511-.635V43.132H54.92V50H53.771Zm5.173,1.054a2.465,2.465,0,0,1-1.961-.851,3.207,3.207,0,0,1-.736-2.177v-1a3.382,3.382,0,0,1,.72-2.222A2.269,2.269,0,0,1,58.716,43a2.154,2.154,0,0,1,1.8.8,3.365,3.365,0,0,1,.628,2.142v.889H57.446v.273a2.58,2.58,0,0,0,.39,1.469,1.257,1.257,0,0,0,1.108.581,2.253,2.253,0,0,0,.914-.168,2.568,2.568,0,0,0,.724-.492l.406.8a2.4,2.4,0,0,1-.87.6A3.156,3.156,0,0,1,58.862,50.133Zm-.146-6.151a1.016,1.016,0,0,0-.9.546,2.854,2.854,0,0,0-.375,1.383h2.418V45.65a2.232,2.232,0,0,0-.292-1.2A.949.949,0,0,0,58.716,43.982ZM67.5,49.156a1.045,1.045,0,0,0,.813-.371,1.44,1.44,0,0,0,.33-.993H69.8l.013.038a2.117,2.117,0,0,1-.657,1.638,2.279,2.279,0,0,1-1.654.667,2.349,2.349,0,0,1-1.965-.87,3.48,3.48,0,0,1-.682-2.215V46.1a3.507,3.507,0,0,1,.682-2.222A2.335,2.335,0,0,1,67.495,43a2.211,2.211,0,0,1,1.692.7,2.462,2.462,0,0,1,.632,1.8l-.019.038H68.644a1.864,1.864,0,0,0-.314-1.123.983.983,0,0,0-.835-.432,1.08,1.08,0,0,0-1.044.6,3.3,3.3,0,0,0-.308,1.514v.948a3.288,3.288,0,0,0,.308,1.521A1.087,1.087,0,0,0,67.5,49.156Zm3.206-3.021a3.457,3.457,0,0,1,.714-2.247,2.614,2.614,0,0,1,3.913,0,3.444,3.444,0,0,1,.717,2.25v.876a3.439,3.439,0,0,1-.714,2.25,2.633,2.633,0,0,1-3.917,0,3.439,3.439,0,0,1-.714-2.25ZM72,47a3.108,3.108,0,0,0,.343,1.546,1.2,1.2,0,0,0,2.079,0A3.085,3.085,0,0,0,74.763,47v-.878a3.074,3.074,0,0,0-.346-1.537,1.194,1.194,0,0,0-2.079,0A3.094,3.094,0,0,0,72,46.127Zm6.449-3.873.07,1.016a2.3,2.3,0,0,1,.724-.841,1.705,1.705,0,0,1,.99-.3,1.655,1.655,0,0,1,1.4.667,3.449,3.449,0,0,1,.5,2.069V50H80.844V45.753a2.476,2.476,0,0,0-.273-1.352.937.937,0,0,0-.825-.394,1.085,1.085,0,0,0-.7.244,1.769,1.769,0,0,0-.5.663V50H77.264V43.132ZM83.935,50V44.052h-.9v-.92h.9v-.7a2.517,2.517,0,0,1,.619-1.822,2.283,2.283,0,0,1,1.723-.641,3.273,3.273,0,0,1,.79.1,6.751,6.751,0,0,1,.86.282l-.2,1a4.269,4.269,0,0,0-.647-.225,2.849,2.849,0,0,0-.717-.086,1.039,1.039,0,0,0-.863.349,1.643,1.643,0,0,0-.279,1.041v.7h1.162v.92H85.224V50Zm4.6,0H87.249V43.132h1.289ZM93.6,50q-.07-.235-.114-.46a3.284,3.284,0,0,1-.057-.454,2.451,2.451,0,0,1-.717.755,1.673,1.673,0,0,1-.958.292,1.734,1.734,0,0,1-1.362-.549,2.12,2.12,0,0,1-.492-1.469,1.909,1.909,0,0,1,.67-1.546,2.846,2.846,0,0,1,1.882-.562h.958v-.7a1.525,1.525,0,0,0-.279-.975,1.057,1.057,0,0,0-1.539-.035,1.138,1.138,0,0,0-.282.788L90.08,45.08l-.019-.038a1.785,1.785,0,0,1,.635-1.416A2.424,2.424,0,0,1,92.416,43a2.294,2.294,0,0,1,1.647.6,2.247,2.247,0,0,1,.632,1.711V48.5a6.063,6.063,0,0,0,.048.771A4.443,4.443,0,0,0,94.9,50Zm-1.555-.844a1.373,1.373,0,0,0,.822-.268,1.581,1.581,0,0,0,.543-.67v-1.41h-.978a1.145,1.145,0,0,0-.917.38,1.374,1.374,0,0,0-.327.929,1.2,1.2,0,0,0,.222.753A.755.755,0,0,0,92.041,49.156Zm9.2-2.019a3.642,3.642,0,0,1-.59,2.18,1.933,1.933,0,0,1-1.663.816,1.819,1.819,0,0,1-.943-.238,1.926,1.926,0,0,1-.676-.7l-.1.806H96.161V40.1h1.289v3.758a1.9,1.9,0,0,1,.647-.632A1.739,1.739,0,0,1,98.979,43a1.905,1.905,0,0,1,1.676.873,4.088,4.088,0,0,1,.59,2.326ZM99.963,46.2a3.457,3.457,0,0,0-.314-1.593,1.046,1.046,0,0,0-.993-.6,1.092,1.092,0,0,0-.733.257,1.716,1.716,0,0,0-.473.689v3.3a1.514,1.514,0,0,0,.476.651,1.191,1.191,0,0,0,.743.232,1.052,1.052,0,0,0,.987-.54,2.948,2.948,0,0,0,.308-1.46Zm3.885,3.8h-1.289V40.1h1.289Zm4.043.133a2.465,2.465,0,0,1-1.961-.851,3.207,3.207,0,0,1-.736-2.177v-1a3.382,3.382,0,0,1,.72-2.222A2.269,2.269,0,0,1,107.745,43a2.154,2.154,0,0,1,1.8.8,3.365,3.365,0,0,1,.628,2.142v.889h-3.694v.273a2.58,2.58,0,0,0,.39,1.469,1.257,1.257,0,0,0,1.108.581,2.253,2.253,0,0,0,.914-.168,2.568,2.568,0,0,0,.724-.492l.406.8a2.4,2.4,0,0,1-.87.6A3.156,3.156,0,0,1,107.891,50.133Zm-.146-6.151a1.016,1.016,0,0,0-.9.546,2.854,2.854,0,0,0-.375,1.383h2.418V45.65a2.232,2.232,0,0,0-.292-1.2A.949.949,0,0,0,107.745,43.982Zm6.767,4.3a.943.943,0,0,0-.263-.676,3.349,3.349,0,0,0-.993-.606,5.1,5.1,0,0,1-1.571-.879,1.562,1.562,0,0,1-.511-1.209,1.739,1.739,0,0,1,.625-1.349A2.379,2.379,0,0,1,113.439,43a2.344,2.344,0,0,1,1.688.6,1.9,1.9,0,0,1,.6,1.495l-.013.038H114.48a1.322,1.322,0,0,0-.276-.841.918.918,0,0,0-.765-.352,1.01,1.01,0,0,0-.752.273.883.883,0,0,0-.27.641.834.834,0,0,0,.232.622,4.166,4.166,0,0,0,1,.6,4.635,4.635,0,0,1,1.6.879,1.652,1.652,0,0,1,.524,1.26,1.709,1.709,0,0,1-.647,1.384,2.59,2.59,0,0,1-1.7.533,2.439,2.439,0,0,1-1.79-.644,1.943,1.943,0,0,1-.622-1.508l.013-.038h1.2a1.274,1.274,0,0,0,.368.962,1.258,1.258,0,0,0,.851.3,1.122,1.122,0,0,0,.784-.257A.856.856,0,0,0,114.512,48.28Zm3.631,1.568-.806,1.873h-.768l.375-1.917V48.642h1.2ZM2.107,68H.819V61.132H2.107Zm0-8.671H.819V58.1H2.107Zm2.729,1.8.07,1.016a2.3,2.3,0,0,1,.724-.841,1.705,1.705,0,0,1,.99-.3,1.655,1.655,0,0,1,1.4.667,3.449,3.449,0,0,1,.5,2.069V68H7.236V63.753A2.476,2.476,0,0,0,6.963,62.4a.937.937,0,0,0-.825-.394,1.085,1.085,0,0,0-.7.244,1.769,1.769,0,0,0-.5.663V68H3.656V61.132Zm6.316,0,.07,1.016a2.3,2.3,0,0,1,.724-.841,1.705,1.705,0,0,1,.99-.3,1.655,1.655,0,0,1,1.4.667,3.449,3.449,0,0,1,.5,2.069V68H13.552V63.753a2.476,2.476,0,0,0-.273-1.352.937.937,0,0,0-.825-.394,1.085,1.085,0,0,0-.7.244,1.769,1.769,0,0,0-.5.663V68H9.972V61.132Zm4.894,3a3.457,3.457,0,0,1,.714-2.247A2.383,2.383,0,0,1,18.719,61a2.389,2.389,0,0,1,1.955.879,3.444,3.444,0,0,1,.717,2.25v.876a3.439,3.439,0,0,1-.714,2.25,2.387,2.387,0,0,1-1.952.873,2.4,2.4,0,0,1-1.965-.873,3.439,3.439,0,0,1-.714-2.25ZM17.335,65a3.108,3.108,0,0,0,.343,1.546,1.2,1.2,0,0,0,2.079,0A3.085,3.085,0,0,0,20.1,65v-.878a3.074,3.074,0,0,0-.346-1.537,1.194,1.194,0,0,0-2.079,0,3.094,3.094,0,0,0-.343,1.54Zm7.179.932.108.533h.038l.108-.533,1.168-4.805h1.327L25.207,68H24.07L22,61.132h1.333ZM31.586,68q-.07-.235-.114-.46a3.285,3.285,0,0,1-.057-.454,2.451,2.451,0,0,1-.717.755,1.673,1.673,0,0,1-.958.292,1.734,1.734,0,0,1-1.362-.549,2.12,2.12,0,0,1-.492-1.469,1.909,1.909,0,0,1,.67-1.546,2.846,2.846,0,0,1,1.882-.562H31.4v-.7a1.525,1.525,0,0,0-.279-.975,1.057,1.057,0,0,0-1.539-.035,1.138,1.138,0,0,0-.282.788l-1.225-.006-.019-.038a1.785,1.785,0,0,1,.635-1.416A2.424,2.424,0,0,1,30.405,61a2.294,2.294,0,0,1,1.647.6,2.247,2.247,0,0,1,.632,1.711V66.5a6.063,6.063,0,0,0,.048.771,4.442,4.442,0,0,0,.156.727Zm-1.555-.844a1.373,1.373,0,0,0,.822-.268,1.581,1.581,0,0,0,.543-.67v-1.41h-.978a1.145,1.145,0,0,0-.917.38,1.374,1.374,0,0,0-.327.929,1.2,1.2,0,0,0,.222.753A.755.755,0,0,0,30.031,67.156Zm3.878-2.507A5.145,5.145,0,0,1,34.5,62a1.852,1.852,0,0,1,1.673-1,1.7,1.7,0,0,1,.86.216,1.954,1.954,0,0,1,.651.622V58.1h1.282V68H37.845l-.1-.787a1.946,1.946,0,0,1-.67.686,1.754,1.754,0,0,1-.911.235,1.879,1.879,0,0,1-1.666-.914,4.422,4.422,0,0,1-.594-2.437Zm1.289.133a3.956,3.956,0,0,0,.311,1.72,1.031,1.031,0,0,0,.984.635,1.132,1.132,0,0,0,.714-.229,1.629,1.629,0,0,0,.479-.641V62.928a1.783,1.783,0,0,0-.479-.673,1.057,1.057,0,0,0-.7-.248,1.045,1.045,0,0,0-.99.73,4.847,4.847,0,0,0-.317,1.911Zm5.015-.647a3.457,3.457,0,0,1,.714-2.247,2.614,2.614,0,0,1,3.913,0,3.444,3.444,0,0,1,.717,2.25v.876a3.439,3.439,0,0,1-.714,2.25,2.633,2.633,0,0,1-3.917,0,3.439,3.439,0,0,1-.714-2.25ZM41.5,65a3.108,3.108,0,0,0,.343,1.546,1.2,1.2,0,0,0,2.079,0A3.085,3.085,0,0,0,44.269,65v-.878a3.074,3.074,0,0,0-.346-1.537,1.194,1.194,0,0,0-2.079,0,3.094,3.094,0,0,0-.343,1.54Zm8.239-2.788-.6-.032a.945.945,0,0,0-.663.241,1.527,1.527,0,0,0-.4.679V68H46.782V61.132h1.174l.1,1.035a2.183,2.183,0,0,1,.565-.854A1.182,1.182,0,0,1,49.423,61a1.582,1.582,0,0,1,.26.022.985.985,0,0,1,.209.054ZM54.3,68q-.07-.235-.114-.46a3.286,3.286,0,0,1-.057-.454,2.451,2.451,0,0,1-.717.755,1.673,1.673,0,0,1-.958.292,1.734,1.734,0,0,1-1.362-.549,2.12,2.12,0,0,1-.492-1.469,1.909,1.909,0,0,1,.67-1.546,2.846,2.846,0,0,1,1.882-.562h.958v-.7a1.525,1.525,0,0,0-.279-.975,1.057,1.057,0,0,0-1.539-.035,1.138,1.138,0,0,0-.282.788l-1.225-.006-.019-.038a1.785,1.785,0,0,1,.635-1.416A2.424,2.424,0,0,1,53.117,61a2.294,2.294,0,0,1,1.647.6,2.247,2.247,0,0,1,.632,1.711V66.5a6.063,6.063,0,0,0,.048.771A4.442,4.442,0,0,0,55.6,68Zm-1.555-.844a1.373,1.373,0,0,0,.822-.268,1.581,1.581,0,0,0,.543-.67v-1.41H53.13a1.145,1.145,0,0,0-.917.38,1.374,1.374,0,0,0-.327.929,1.2,1.2,0,0,0,.222.753A.755.755,0,0,0,52.743,67.156Zm7.319-.876A.943.943,0,0,0,59.8,65.6,3.349,3.349,0,0,0,58.8,65a5.1,5.1,0,0,1-1.571-.879,1.562,1.562,0,0,1-.511-1.209,1.739,1.739,0,0,1,.625-1.349A2.379,2.379,0,0,1,58.989,61a2.344,2.344,0,0,1,1.688.6,1.9,1.9,0,0,1,.6,1.495l-.013.038H60.03a1.322,1.322,0,0,0-.276-.841.918.918,0,0,0-.765-.352,1.01,1.01,0,0,0-.752.273.883.883,0,0,0-.27.641.834.834,0,0,0,.232.622,4.167,4.167,0,0,0,1,.6,4.635,4.635,0,0,1,1.6.879,1.652,1.652,0,0,1,.524,1.26,1.709,1.709,0,0,1-.647,1.384,2.59,2.59,0,0,1-1.7.533,2.439,2.439,0,0,1-1.79-.644,1.943,1.943,0,0,1-.622-1.508l.013-.038h1.2a1.274,1.274,0,0,0,.368.962,1.258,1.258,0,0,0,.851.3,1.122,1.122,0,0,0,.784-.257A.856.856,0,0,0,60.062,66.28Zm7.217-.647.1.451h.038l1.32-4.951h1.4l-2.406,7.935a3.777,3.777,0,0,1-.654,1.209,1.453,1.453,0,0,1-1.187.5,1.8,1.8,0,0,1-.34-.035q-.181-.035-.359-.079l.14-.952q.07.013.19.025t.19.013a.684.684,0,0,0,.594-.321,2.52,2.52,0,0,0,.34-.759l.229-.7-2.12-6.836h1.4ZM77.34,68q-.07-.235-.114-.46a3.284,3.284,0,0,1-.057-.454,2.451,2.451,0,0,1-.717.755,1.673,1.673,0,0,1-.958.292,1.734,1.734,0,0,1-1.362-.549,2.12,2.12,0,0,1-.492-1.469,1.909,1.909,0,0,1,.67-1.546,2.846,2.846,0,0,1,1.882-.562h.958v-.7a1.525,1.525,0,0,0-.279-.975,1.057,1.057,0,0,0-1.539-.035,1.138,1.138,0,0,0-.282.788l-1.225-.006-.019-.038a1.785,1.785,0,0,1,.635-1.416A2.424,2.424,0,0,1,76.159,61a2.294,2.294,0,0,1,1.647.6,2.247,2.247,0,0,1,.632,1.711V66.5a6.063,6.063,0,0,0,.048.771,4.442,4.442,0,0,0,.156.727Zm-1.555-.844a1.373,1.373,0,0,0,.822-.268,1.581,1.581,0,0,0,.543-.67v-1.41h-.978a1.145,1.145,0,0,0-.917.38,1.374,1.374,0,0,0-.327.929,1.2,1.2,0,0,0,.222.753A.755.755,0,0,0,75.785,67.156Zm5.294-6.024.07.933a2.117,2.117,0,0,1,.711-.784A1.832,1.832,0,0,1,82.869,61a1.54,1.54,0,0,1,.971.314,1.919,1.919,0,0,1,.616.955,2.334,2.334,0,0,1,.711-.933A1.7,1.7,0,0,1,86.22,61a1.6,1.6,0,0,1,1.381.72,3.847,3.847,0,0,1,.5,2.193V68H86.817V63.912a3.024,3.024,0,0,0-.26-1.479.845.845,0,0,0-.768-.425.94.94,0,0,0-.733.333,2.029,2.029,0,0,0-.428.885q-.006-.051.006.162t.013.308V68H83.364V63.912a2.973,2.973,0,0,0-.267-1.463.853.853,0,0,0-.774-.441,1.083,1.083,0,0,0-.692.225,1.461,1.461,0,0,0-.444.625V68H79.9V61.132ZM90.956,68H89.667V61.132h1.289Zm0-8.671H89.667V58.1h1.289Zm1.32,4.964a4.212,4.212,0,0,1,.606-2.384,1.92,1.92,0,0,1,1.685-.9,1.7,1.7,0,0,1,.914.244,2.066,2.066,0,0,1,.673.708l.1-.825H97.36v6.836a2.885,2.885,0,0,1-.7,2.063,2.563,2.563,0,0,1-1.958.743,3.822,3.822,0,0,1-1.8-.5l.273-.965a2.932,2.932,0,0,0,1.517.419,1.223,1.223,0,0,0,1.044-.451,2.171,2.171,0,0,0,.34-1.32V67.34a1.745,1.745,0,0,1-1.517.793,1.961,1.961,0,0,1-1.676-.822,3.592,3.592,0,0,1-.6-2.174Zm1.289.844a2.878,2.878,0,0,0,.317,1.457,1.072,1.072,0,0,0,1,.543,1.177,1.177,0,0,0,.714-.216,1.546,1.546,0,0,0,.479-.609V62.89a1.8,1.8,0,0,0-.482-.644,1.118,1.118,0,0,0-1.7.4,3.606,3.606,0,0,0-.327,1.65ZM102.324,68q-.07-.235-.114-.46a3.284,3.284,0,0,1-.057-.454,2.451,2.451,0,0,1-.717.755,1.673,1.673,0,0,1-.958.292,1.734,1.734,0,0,1-1.362-.549,2.12,2.12,0,0,1-.492-1.469,1.909,1.909,0,0,1,.67-1.546,2.846,2.846,0,0,1,1.882-.562h.958v-.7a1.525,1.525,0,0,0-.279-.975,1.057,1.057,0,0,0-1.539-.035,1.138,1.138,0,0,0-.282.788l-1.225-.006-.019-.038a1.785,1.785,0,0,1,.635-1.416,2.424,2.424,0,0,1,1.72-.621,2.294,2.294,0,0,1,1.647.6,2.247,2.247,0,0,1,.632,1.711V66.5a6.063,6.063,0,0,0,.048.771,4.442,4.442,0,0,0,.156.727Zm-1.555-.844a1.373,1.373,0,0,0,.822-.268,1.581,1.581,0,0,0,.543-.67v-1.41h-.978a1.145,1.145,0,0,0-.917.38,1.374,1.374,0,0,0-.327.929,1.2,1.2,0,0,0,.222.753A.755.755,0,0,0,100.769,67.156Zm9.2-2.019a3.642,3.642,0,0,1-.59,2.18,1.933,1.933,0,0,1-1.663.816,1.819,1.819,0,0,1-.943-.238,1.926,1.926,0,0,1-.676-.7l-.1.806h-1.117V58.1h1.289v3.758a1.9,1.9,0,0,1,.647-.632,1.739,1.739,0,0,1,.882-.219,1.905,1.905,0,0,1,1.676.873,4.088,4.088,0,0,1,.59,2.326Zm-1.282-.933a3.457,3.457,0,0,0-.314-1.593,1.046,1.046,0,0,0-.993-.6,1.092,1.092,0,0,0-.733.257,1.716,1.716,0,0,0-.473.689v3.3a1.514,1.514,0,0,0,.476.651,1.191,1.191,0,0,0,.743.232,1.052,1.052,0,0,0,.987-.54,2.948,2.948,0,0,0,.308-1.46Zm3.885,3.8h-1.289V58.1h1.289Zm4.043.133a2.465,2.465,0,0,1-1.961-.851,3.207,3.207,0,0,1-.736-2.177v-1a3.382,3.382,0,0,1,.72-2.222A2.269,2.269,0,0,1,116.473,61a2.154,2.154,0,0,1,1.8.8,3.365,3.365,0,0,1,.628,2.142v.889H115.2v.273a2.58,2.58,0,0,0,.39,1.469,1.257,1.257,0,0,0,1.108.581,2.253,2.253,0,0,0,.914-.168,2.568,2.568,0,0,0,.724-.492l.406.8a2.4,2.4,0,0,1-.87.6A3.156,3.156,0,0,1,116.619,68.133Zm-.146-6.151a1.016,1.016,0,0,0-.9.546,2.854,2.854,0,0,0-.375,1.383h2.418V63.65a2.232,2.232,0,0,0-.292-1.2A.949.949,0,0,0,116.473,61.982Zm6.767,4.3a.943.943,0,0,0-.263-.676,3.349,3.349,0,0,0-.993-.606,5.1,5.1,0,0,1-1.571-.879,1.562,1.562,0,0,1-.511-1.209,1.739,1.739,0,0,1,.625-1.349A2.379,2.379,0,0,1,122.167,61a2.344,2.344,0,0,1,1.688.6,1.9,1.9,0,0,1,.6,1.495l-.013.038h-1.238a1.322,1.322,0,0,0-.276-.841.918.918,0,0,0-.765-.352,1.01,1.01,0,0,0-.752.273.883.883,0,0,0-.27.641.834.834,0,0,0,.232.622,4.166,4.166,0,0,0,1,.6,4.635,4.635,0,0,1,1.6.879,1.652,1.652,0,0,1,.524,1.26,1.709,1.709,0,0,1-.647,1.384,2.59,2.59,0,0,1-1.7.533,2.439,2.439,0,0,1-1.79-.644,1.943,1.943,0,0,1-.622-1.508l.013-.038h1.2a1.274,1.274,0,0,0,.368.962,1.258,1.258,0,0,0,.851.3,1.122,1.122,0,0,0,.784-.257A.856.856,0,0,0,123.24,66.28Zm7.674.876a1.045,1.045,0,0,0,.813-.371,1.44,1.44,0,0,0,.33-.993h1.155l.013.038a2.117,2.117,0,0,1-.657,1.638,2.279,2.279,0,0,1-1.654.667,2.349,2.349,0,0,1-1.965-.87,3.481,3.481,0,0,1-.682-2.215V64.1a3.507,3.507,0,0,1,.682-2.222A2.335,2.335,0,0,1,130.908,61a2.211,2.211,0,0,1,1.692.7,2.462,2.462,0,0,1,.632,1.8l-.019.038h-1.155a1.864,1.864,0,0,0-.314-1.123.983.983,0,0,0-.835-.432,1.08,1.08,0,0,0-1.044.6,3.3,3.3,0,0,0-.308,1.514v.948a3.288,3.288,0,0,0,.308,1.521A1.087,1.087,0,0,0,130.914,67.156Zm3.206-3.021a3.457,3.457,0,0,1,.714-2.247,2.614,2.614,0,0,1,3.913,0,3.444,3.444,0,0,1,.717,2.25v.876a3.439,3.439,0,0,1-.714,2.25,2.633,2.633,0,0,1-3.917,0,3.439,3.439,0,0,1-.714-2.25Zm1.289.871a3.108,3.108,0,0,0,.343,1.546,1.2,1.2,0,0,0,2.079,0A3.085,3.085,0,0,0,138.176,65v-.878a3.074,3.074,0,0,0-.346-1.537,1.194,1.194,0,0,0-2.079,0,3.094,3.094,0,0,0-.343,1.54Zm6.449-3.873.07,1.016a2.3,2.3,0,0,1,.724-.841,1.705,1.705,0,0,1,.99-.3,1.655,1.655,0,0,1,1.4.667,3.449,3.449,0,0,1,.5,2.069V68h-1.289V63.753a2.476,2.476,0,0,0-.273-1.352.937.937,0,0,0-.825-.394,1.085,1.085,0,0,0-.7.244,1.769,1.769,0,0,0-.5.663V68h-1.289V61.132Zm-138.639,25a2.465,2.465,0,0,1-1.961-.851,3.207,3.207,0,0,1-.736-2.177v-1a3.382,3.382,0,0,1,.72-2.222A2.269,2.269,0,0,1,3.072,79a2.154,2.154,0,0,1,1.8.8A3.365,3.365,0,0,1,5.5,81.944v.889H1.8v.273a2.58,2.58,0,0,0,.39,1.469,1.257,1.257,0,0,0,1.108.581,2.253,2.253,0,0,0,.914-.168,2.568,2.568,0,0,0,.724-.492l.406.8a2.4,2.4,0,0,1-.87.6A3.156,3.156,0,0,1,3.218,86.133Zm-.146-6.151a1.016,1.016,0,0,0-.9.546A2.854,2.854,0,0,0,1.8,81.912H4.221V81.65a2.232,2.232,0,0,0-.292-1.2A.949.949,0,0,0,3.072,79.982ZM8.011,86H6.722V76.1H8.011Zm5.567-6.868.07.933a2.117,2.117,0,0,1,.711-.784A1.832,1.832,0,0,1,15.368,79a1.54,1.54,0,0,1,.971.314,1.919,1.919,0,0,1,.616.955,2.334,2.334,0,0,1,.711-.933A1.7,1.7,0,0,1,18.719,79a1.6,1.6,0,0,1,1.381.72,3.847,3.847,0,0,1,.5,2.193V86H19.316V81.912a3.024,3.024,0,0,0-.26-1.479.845.845,0,0,0-.768-.425.94.94,0,0,0-.733.333,2.029,2.029,0,0,0-.428.885q-.006-.051.006.162t.013.308V86H15.863V81.912a2.973,2.973,0,0,0-.267-1.463.853.853,0,0,0-.774-.441,1.083,1.083,0,0,0-.692.225,1.461,1.461,0,0,0-.444.625V86H12.4V79.132Zm10.988,7a2.465,2.465,0,0,1-1.961-.851,3.207,3.207,0,0,1-.736-2.177v-1a3.382,3.382,0,0,1,.72-2.222A2.269,2.269,0,0,1,24.419,79a2.154,2.154,0,0,1,1.8.8,3.365,3.365,0,0,1,.628,2.142v.889H23.15v.273a2.58,2.58,0,0,0,.39,1.469,1.257,1.257,0,0,0,1.108.581,2.253,2.253,0,0,0,.914-.168,2.568,2.568,0,0,0,.724-.492l.406.8a2.4,2.4,0,0,1-.87.6A3.156,3.156,0,0,1,24.565,86.133Zm-.146-6.151a1.016,1.016,0,0,0-.9.546,2.854,2.854,0,0,0-.375,1.383h2.418V81.65a2.232,2.232,0,0,0-.292-1.2A.949.949,0,0,0,24.419,79.982Zm3.326,2.666A5.145,5.145,0,0,1,28.339,80a1.852,1.852,0,0,1,1.673-1,1.7,1.7,0,0,1,.86.216,1.954,1.954,0,0,1,.651.622V76.1H32.8V86H31.681l-.1-.787a1.946,1.946,0,0,1-.67.686,1.754,1.754,0,0,1-.911.235,1.879,1.879,0,0,1-1.666-.914,4.422,4.422,0,0,1-.594-2.437Zm1.289.133a3.956,3.956,0,0,0,.311,1.72,1.031,1.031,0,0,0,.984.635,1.132,1.132,0,0,0,.714-.229,1.629,1.629,0,0,0,.479-.641V80.928a1.783,1.783,0,0,0-.479-.673,1.057,1.057,0,0,0-.7-.248,1.045,1.045,0,0,0-.99.73,4.847,4.847,0,0,0-.317,1.911ZM35.674,86H34.385V79.132h1.289Zm0-8.671H34.385V76.1h1.289Zm1.308,4.805a3.457,3.457,0,0,1,.714-2.247,2.614,2.614,0,0,1,3.913,0,3.444,3.444,0,0,1,.717,2.25v.876a3.439,3.439,0,0,1-.714,2.25,2.633,2.633,0,0,1-3.917,0,3.439,3.439,0,0,1-.714-2.25ZM38.27,83a3.108,3.108,0,0,0,.343,1.546,1.2,1.2,0,0,0,2.079,0A3.085,3.085,0,0,0,41.038,83v-.878a3.074,3.074,0,0,0-.346-1.537,1.194,1.194,0,0,0-2.079,0,3.094,3.094,0,0,0-.343,1.54Zm11.61,3q-.07-.235-.114-.46a3.286,3.286,0,0,1-.057-.454,2.451,2.451,0,0,1-.717.755,1.673,1.673,0,0,1-.958.292,1.734,1.734,0,0,1-1.362-.549,2.12,2.12,0,0,1-.492-1.469,1.909,1.909,0,0,1,.67-1.546,2.846,2.846,0,0,1,1.882-.562h.958v-.7a1.525,1.525,0,0,0-.279-.975,1.057,1.057,0,0,0-1.539-.035,1.138,1.138,0,0,0-.282.788l-1.225-.006-.019-.038a1.785,1.785,0,0,1,.635-1.416A2.424,2.424,0,0,1,48.7,79a2.294,2.294,0,0,1,1.647.6,2.247,2.247,0,0,1,.632,1.711V84.5a6.063,6.063,0,0,0,.048.771,4.442,4.442,0,0,0,.156.727Zm-1.555-.844a1.373,1.373,0,0,0,.822-.268,1.581,1.581,0,0,0,.543-.67v-1.41h-.978a1.145,1.145,0,0,0-.917.38,1.374,1.374,0,0,0-.327.929,1.2,1.2,0,0,0,.222.753A.755.755,0,0,0,48.325,85.156Zm5.294-6.024.07.933a2.117,2.117,0,0,1,.711-.784A1.832,1.832,0,0,1,55.409,79a1.54,1.54,0,0,1,.971.314,1.919,1.919,0,0,1,.616.955,2.334,2.334,0,0,1,.711-.933A1.7,1.7,0,0,1,58.76,79a1.6,1.6,0,0,1,1.381.72,3.847,3.847,0,0,1,.5,2.193V86H59.357V81.912a3.024,3.024,0,0,0-.26-1.479.845.845,0,0,0-.768-.425.94.94,0,0,0-.733.333,2.029,2.029,0,0,0-.428.885q-.006-.051.006.162t.013.308V86H55.9V81.912a2.973,2.973,0,0,0-.267-1.463.853.853,0,0,0-.774-.441,1.083,1.083,0,0,0-.692.225,1.461,1.461,0,0,0-.444.625V86H52.444V79.132Zm13.59,4.005a3.642,3.642,0,0,1-.59,2.18,1.933,1.933,0,0,1-1.663.816,1.819,1.819,0,0,1-.943-.238,1.926,1.926,0,0,1-.676-.7l-.1.806H62.125V76.1h1.289v3.758a1.9,1.9,0,0,1,.647-.632A1.739,1.739,0,0,1,64.943,79a1.905,1.905,0,0,1,1.676.873,4.088,4.088,0,0,1,.59,2.326ZM65.927,82.2a3.457,3.457,0,0,0-.314-1.593,1.046,1.046,0,0,0-.993-.6,1.092,1.092,0,0,0-.733.257,1.716,1.716,0,0,0-.473.689v3.3a1.514,1.514,0,0,0,.476.651,1.191,1.191,0,0,0,.743.232,1.052,1.052,0,0,0,.987-.54,2.948,2.948,0,0,0,.308-1.46ZM69.812,86H68.523V79.132h1.289Zm0-8.671H68.523V76.1h1.289Zm4.043,8.8a2.465,2.465,0,0,1-1.961-.851,3.207,3.207,0,0,1-.736-2.177v-1a3.382,3.382,0,0,1,.72-2.222A2.269,2.269,0,0,1,73.709,79a2.154,2.154,0,0,1,1.8.8,3.365,3.365,0,0,1,.628,2.142v.889H72.439v.273a2.58,2.58,0,0,0,.39,1.469,1.257,1.257,0,0,0,1.108.581,2.253,2.253,0,0,0,.914-.168,2.568,2.568,0,0,0,.724-.492l.406.8a2.4,2.4,0,0,1-.87.6A3.156,3.156,0,0,1,73.855,86.133Zm-.146-6.151a1.016,1.016,0,0,0-.9.546,2.854,2.854,0,0,0-.375,1.383h2.418V81.65a2.232,2.232,0,0,0-.292-1.2A.949.949,0,0,0,73.709,79.982Zm4.735-.851.07,1.016a2.3,2.3,0,0,1,.724-.841,1.705,1.705,0,0,1,.99-.3,1.655,1.655,0,0,1,1.4.667,3.449,3.449,0,0,1,.5,2.069V86H80.844V81.753a2.476,2.476,0,0,0-.273-1.352.937.937,0,0,0-.825-.394,1.085,1.085,0,0,0-.7.244,1.769,1.769,0,0,0-.5.663V86H77.264V79.132Zm6.792-1.708v1.708h1.073v.92H85.236V84.14a1.363,1.363,0,0,0,.159.759.484.484,0,0,0,.413.225,1.955,1.955,0,0,0,.282-.019q.13-.019.308-.057l.133.889a2.632,2.632,0,0,1-.486.143,2.825,2.825,0,0,1-.555.054,1.4,1.4,0,0,1-1.133-.479,2.33,2.33,0,0,1-.4-1.514V80.052h-.9v-.92h.9V77.424Zm4.824,8.709a2.465,2.465,0,0,1-1.961-.851,3.207,3.207,0,0,1-.736-2.177v-1a3.382,3.382,0,0,1,.72-2.222A2.269,2.269,0,0,1,89.915,79a2.154,2.154,0,0,1,1.8.8,3.365,3.365,0,0,1,.628,2.142v.889H88.645v.273a2.58,2.58,0,0,0,.39,1.469,1.257,1.257,0,0,0,1.108.581,2.253,2.253,0,0,0,.914-.168,2.568,2.568,0,0,0,.724-.492l.406.8a2.4,2.4,0,0,1-.87.6A3.156,3.156,0,0,1,90.061,86.133Zm-.146-6.151a1.016,1.016,0,0,0-.9.546,2.854,2.854,0,0,0-.375,1.383h2.418V81.65a2.232,2.232,0,0,0-.292-1.2A.949.949,0,0,0,89.915,79.982Zm5,6.018H93.615V84.711H94.91Z" transform="translate(222 2200)" fill="#5e5b5c"/><g clip-path="url(#c)"><path d="M119.593,121.316a1.723,1.723,0,1,1,1.723,1.723A1.723,1.723,0,0,1,119.593,121.316Zm-13.288,0a1.723,1.723,0,1,1,1.723,1.723A1.723,1.723,0,0,1,106.305,121.316Zm-13.288,0a1.723,1.723,0,1,1,1.723,1.723A1.723,1.723,0,0,1,93.017,121.316Zm-13.288,0a1.723,1.723,0,1,1,1.723,1.723A1.723,1.723,0,0,1,79.729,121.316Zm-13.288,0a1.723,1.723,0,1,1,1.723,1.723A1.723,1.723,0,0,1,66.441,121.316Zm-13.288,0a1.723,1.723,0,1,1,1.723,1.723A1.723,1.723,0,0,1,53.152,121.316Zm-13.288,0a1.723,1.723,0,1,1,1.723,1.723A1.723,1.723,0,0,1,39.864,121.316Zm-13.288,0a1.723,1.723,0,1,1,1.723,1.723A1.723,1.723,0,0,1,26.576,121.316Zm-13.288,0a1.723,1.723,0,1,1,1.723,1.723A1.723,1.723,0,0,1,13.288,121.316ZM0,121.316a1.723,1.723,0,1,1,1.723,1.723A1.723,1.723,0,0,1,0,121.316Zm119.594-13.288a1.723,1.723,0,1,1,1.723,1.723A1.723,1.723,0,0,1,119.593,108.028Zm-13.288,0a1.723,1.723,0,1,1,1.723,1.723A1.723,1.723,0,0,1,106.305,108.028Zm-13.288,0a1.723,1.723,0,1,1,1.723,1.723A1.723,1.723,0,0,1,93.017,108.028Zm-13.288,0a1.723,1.723,0,1,1,1.723,1.723A1.723,1.723,0,0,1,79.729,108.028Zm-13.288,0a1.723,1.723,0,1,1,1.723,1.723A1.723,1.723,0,0,1,66.441,108.028Zm-13.288,0a1.723,1.723,0,1,1,1.723,1.723A1.723,1.723,0,0,1,53.152,108.028Zm-13.288,0a1.723,1.723,0,1,1,1.723,1.723A1.723,1.723,0,0,1,39.864,108.028Zm-13.288,0a1.723,1.723,0,1,1,1.723,1.723A1.723,1.723,0,0,1,26.576,108.028Zm-13.288,0a1.723,1.723,0,1,1,1.723,1.723A1.723,1.723,0,0,1,13.288,108.028ZM0,108.028a1.723,1.723,0,1,1,1.723,1.723A1.723,1.723,0,0,1,0,108.028ZM119.593,94.74a1.723,1.723,0,1,1,1.723,1.723A1.723,1.723,0,0,1,119.593,94.74Zm-13.288,0a1.723,1.723,0,1,1,1.723,1.723A1.723,1.723,0,0,1,106.305,94.74Zm-13.288,0a1.723,1.723,0,1,1,1.723,1.723A1.723,1.723,0,0,1,93.017,94.74Zm-13.288,0a1.723,1.723,0,1,1,1.723,1.723A1.723,1.723,0,0,1,79.729,94.74Zm-13.288,0a1.723,1.723,0,1,1,1.723,1.723A1.723,1.723,0,0,1,66.441,94.74Zm-13.288,0a1.723,1.723,0,1,1,1.723,1.723A1.723,1.723,0,0,1,53.152,94.74Zm-13.288,0a1.723,1.723,0,1,1,1.723,1.723A1.723,1.723,0,0,1,39.864,94.74Zm-13.288,0A1.723,1.723,0,1,1,28.3,96.462,1.723,1.723,0,0,1,26.576,94.74Zm-13.288,0a1.723,1.723,0,1,1,1.723,1.723A1.723,1.723,0,0,1,13.288,94.74ZM0,94.74a1.723,1.723,0,1,1,1.723,1.723A1.723,1.723,0,0,1,0,94.74ZM119.593,81.452a1.723,1.723,0,1,1,1.723,1.723A1.723,1.723,0,0,1,119.593,81.452Zm-13.288,0a1.723,1.723,0,1,1,1.723,1.723A1.723,1.723,0,0,1,106.305,81.452Zm-13.288,0a1.723,1.723,0,1,1,1.723,1.723A1.723,1.723,0,0,1,93.017,81.452Zm-13.288,0a1.723,1.723,0,1,1,1.723,1.723A1.723,1.723,0,0,1,79.729,81.452Zm-13.288,0a1.723,1.723,0,1,1,1.723,1.723A1.723,1.723,0,0,1,66.441,81.452Zm-13.288,0a1.723,1.723,0,1,1,1.723,1.723A1.723,1.723,0,0,1,53.152,81.452Zm-13.288,0a1.723,1.723,0,1,1,1.723,1.723A1.723,1.723,0,0,1,39.864,81.452Zm-13.288,0A1.723,1.723,0,1,1,28.3,83.174,1.723,1.723,0,0,1,26.576,81.452Zm-13.288,0a1.723,1.723,0,1,1,1.723,1.723A1.723,1.723,0,0,1,13.288,81.452ZM0,81.452a1.723,1.723,0,1,1,1.723,1.723A1.723,1.723,0,0,1,0,81.452ZM119.593,68.163a1.723,1.723,0,1,1,1.723,1.723A1.723,1.723,0,0,1,119.593,68.163Zm-13.288,0a1.723,1.723,0,1,1,1.723,1.723A1.723,1.723,0,0,1,106.305,68.163Zm-13.288,0a1.723,1.723,0,1,1,1.723,1.723A1.723,1.723,0,0,1,93.017,68.163Zm-13.288,0a1.723,1.723,0,1,1,1.723,1.723A1.723,1.723,0,0,1,79.729,68.163Zm-13.288,0a1.723,1.723,0,1,1,1.723,1.723A1.723,1.723,0,0,1,66.441,68.163Zm-13.288,0a1.723,1.723,0,1,1,1.723,1.723A1.723,1.723,0,0,1,53.152,68.163Zm-13.288,0a1.723,1.723,0,1,1,1.723,1.723A1.723,1.723,0,0,1,39.864,68.163Zm-13.288,0A1.723,1.723,0,1,1,28.3,69.886,1.723,1.723,0,0,1,26.576,68.163Zm-13.288,0a1.723,1.723,0,1,1,1.723,1.723A1.723,1.723,0,0,1,13.288,68.163ZM0,68.163a1.723,1.723,0,1,1,1.723,1.723A1.723,1.723,0,0,1,0,68.163ZM119.593,54.875a1.723,1.723,0,1,1,1.723,1.723A1.723,1.723,0,0,1,119.593,54.875Zm-13.288,0a1.723,1.723,0,1,1,1.723,1.723A1.723,1.723,0,0,1,106.305,54.875Zm-13.288,0A1.723,1.723,0,1,1,94.74,56.6,1.723,1.723,0,0,1,93.017,54.875Zm-13.288,0A1.723,1.723,0,1,1,81.452,56.6,1.723,1.723,0,0,1,79.729,54.875Zm-13.288,0A1.723,1.723,0,1,1,68.163,56.6,1.723,1.723,0,0,1,66.441,54.875Zm-13.288,0A1.723,1.723,0,1,1,54.875,56.6,1.723,1.723,0,0,1,53.152,54.875Zm-13.288,0A1.723,1.723,0,1,1,41.587,56.6,1.723,1.723,0,0,1,39.864,54.875Zm-13.288,0A1.723,1.723,0,1,1,28.3,56.6,1.723,1.723,0,0,1,26.576,54.875Zm-13.288,0A1.723,1.723,0,1,1,15.011,56.6,1.723,1.723,0,0,1,13.288,54.875ZM0,54.875A1.723,1.723,0,1,1,1.722,56.6,1.723,1.723,0,0,1,0,54.875ZM119.593,41.587a1.723,1.723,0,1,1,1.723,1.723A1.723,1.723,0,0,1,119.593,41.587Zm-13.288,0a1.723,1.723,0,1,1,1.723,1.723A1.723,1.723,0,0,1,106.305,41.587Zm-13.288,0A1.723,1.723,0,1,1,94.74,43.31,1.723,1.723,0,0,1,93.017,41.587Zm-13.288,0a1.723,1.723,0,1,1,1.723,1.723A1.723,1.723,0,0,1,79.729,41.587Zm-13.288,0a1.723,1.723,0,1,1,1.723,1.723A1.723,1.723,0,0,1,66.441,41.587Zm-13.288,0a1.723,1.723,0,1,1,1.723,1.723A1.723,1.723,0,0,1,53.152,41.587Zm-13.288,0a1.723,1.723,0,1,1,1.723,1.723A1.723,1.723,0,0,1,39.864,41.587Zm-13.288,0A1.723,1.723,0,1,1,28.3,43.31,1.723,1.723,0,0,1,26.576,41.587Zm-13.288,0a1.723,1.723,0,1,1,1.723,1.723A1.723,1.723,0,0,1,13.288,41.587ZM0,41.587A1.723,1.723,0,1,1,1.722,43.31,1.723,1.723,0,0,1,0,41.587ZM119.593,28.3a1.723,1.723,0,1,1,1.723,1.723A1.723,1.723,0,0,1,119.593,28.3Zm-13.288,0a1.723,1.723,0,1,1,1.723,1.723A1.723,1.723,0,0,1,106.305,28.3Zm-13.288,0a1.723,1.723,0,1,1,1.723,1.723A1.723,1.723,0,0,1,93.017,28.3Zm-13.288,0a1.723,1.723,0,1,1,1.723,1.723A1.723,1.723,0,0,1,79.729,28.3Zm-13.288,0a1.723,1.723,0,1,1,1.723,1.723A1.723,1.723,0,0,1,66.441,28.3Zm-13.288,0a1.723,1.723,0,1,1,1.723,1.723A1.723,1.723,0,0,1,53.152,28.3Zm-13.288,0a1.723,1.723,0,1,1,1.723,1.723A1.723,1.723,0,0,1,39.864,28.3Zm-13.288,0A1.723,1.723,0,1,1,28.3,30.021,1.723,1.723,0,0,1,26.576,28.3Zm-13.288,0a1.723,1.723,0,1,1,1.723,1.723A1.723,1.723,0,0,1,13.288,28.3ZM0,28.3a1.723,1.723,0,1,1,1.723,1.723A1.723,1.723,0,0,1,0,28.3ZM119.593,15.011a1.723,1.723,0,1,1,1.723,1.723A1.723,1.723,0,0,1,119.593,15.011Zm-13.288,0a1.723,1.723,0,1,1,1.723,1.723A1.723,1.723,0,0,1,106.305,15.011Zm-13.288,0a1.723,1.723,0,1,1,1.723,1.723A1.723,1.723,0,0,1,93.017,15.011Zm-13.288,0a1.723,1.723,0,1,1,1.723,1.723A1.723,1.723,0,0,1,79.729,15.011Zm-13.288,0a1.723,1.723,0,1,1,1.723,1.723A1.723,1.723,0,0,1,66.441,15.011Zm-13.288,0a1.723,1.723,0,1,1,1.723,1.723A1.723,1.723,0,0,1,53.152,15.011Zm-13.288,0a1.723,1.723,0,1,1,1.723,1.723A1.723,1.723,0,0,1,39.864,15.011Zm-13.288,0A1.723,1.723,0,1,1,28.3,16.733,1.723,1.723,0,0,1,26.576,15.011Zm-13.288,0a1.723,1.723,0,1,1,1.723,1.723A1.723,1.723,0,0,1,13.288,15.011ZM0,15.011a1.723,1.723,0,1,1,1.723,1.723A1.723,1.723,0,0,1,0,15.011ZM119.593,1.722a1.723,1.723,0,1,1,1.723,1.723A1.723,1.723,0,0,1,119.593,1.722Zm-13.288,0a1.723,1.723,0,1,1,1.723,1.723A1.723,1.723,0,0,1,106.305,1.722Zm-13.288,0A1.723,1.723,0,1,1,94.74,3.445,1.723,1.723,0,0,1,93.017,1.722Zm-13.288,0a1.723,1.723,0,1,1,1.723,1.723A1.723,1.723,0,0,1,79.729,1.722Zm-13.288,0a1.723,1.723,0,1,1,1.723,1.723A1.723,1.723,0,0,1,66.441,1.722Zm-13.288,0a1.723,1.723,0,1,1,1.723,1.723A1.723,1.723,0,0,1,53.152,1.722Zm-13.288,0a1.723,1.723,0,1,1,1.723,1.723A1.723,1.723,0,0,1,39.864,1.722Zm-13.288,0A1.723,1.723,0,1,1,28.3,3.445,1.723,1.723,0,0,1,26.576,1.722Zm-13.288,0a1.723,1.723,0,1,1,1.723,1.723A1.723,1.723,0,0,1,13.288,1.722ZM0,1.722A1.723,1.723,0,1,1,1.722,3.445,1.723,1.723,0,0,1,0,1.722Z" transform="translate(203 2273.961) rotate(90)" fill="url(#d)"/></g></g></g></svg>