<svg xmlns="http://www.w3.org/2000/svg" xmlns:xlink="http://www.w3.org/1999/xlink" width="289" height="388" viewBox="0 0 289 388"><defs><filter id="a" x="-57" y="-36" width="402.256" height="500" filterUnits="userSpaceOnUse"><feOffset dy="20" input="SourceAlpha"/><feGaussianBlur stdDeviation="23" result="b"/><feFlood flood-color="#010101" flood-opacity="0.129"/><feComposite operator="in" in2="b"/><feComposite in="SourceGraphic"/></filter><clipPath id="c"><g transform="matrix(1, 0, 0, 1, 0, 0)" filter="url(#a)"><path d="M39,0H225.256a39,39,0,0,1,39,39V323a39,39,0,0,1-39,39H39A39,39,0,0,1,0,323V39A39,39,0,0,1,39,0Z" transform="translate(462 2056.66)" fill="#fff" stroke="#00ff4e" stroke-width="1" opacity="0.7"/></g></clipPath><linearGradient id="d" x1="-0.12" y1="-0.622" x2="1" y2="1" gradientUnits="objectBoundingBox"><stop offset="0" stop-color="#00ff4e"/><stop offset="1" stop-color="#93a5ff" stop-opacity="0"/></linearGradient><clipPath id="f"><rect width="289" height="388"/></clipPath></defs><g id="e" clip-path="url(#f)"><g transform="translate(-449.999 -2043.66)"><g transform="translate(462 2056.66)" fill="#fff" opacity="0.7"><path d="M 225.2564697265625 361.5 L 39.00000762939453 361.5 C 33.80232620239258 361.5 28.76037216186523 360.4821472167969 24.01423454284668 358.4746704101563 C 19.42973518371582 356.5355834960938 15.3123254776001 353.7595520019531 11.77641677856445 350.2236022949219 C 8.240462303161621 346.6876831054688 5.46441650390625 342.5702819824219 3.525325775146484 337.9857788085938 C 1.517871260643005 333.2396240234375 0.5000075697898865 328.1976928710938 0.5000075697898865 323 L 0.5000075697898865 39 C 0.5000075697898865 33.80231857299805 1.517871260643005 28.7603645324707 3.525325775146484 24.01422691345215 C 5.46441650390625 19.42972755432129 8.240462303161621 15.31231784820557 11.77641677856445 11.77640914916992 C 15.3123254776001 8.24045467376709 19.42973518371582 5.464408874511719 24.01423454284668 3.525318145751953 C 28.76037216186523 1.517863631248474 33.80232620239258 0.5 39.00000762939453 0.5 L 225.2564697265625 0.5 C 230.4541473388672 0.5 235.49609375 1.517863631248474 240.2422790527344 3.525318145751953 C 244.8267364501953 5.464408874511719 248.9441375732422 8.24045467376709 252.4801025390625 11.77640914916992 C 256.0160217285156 15.31231784820557 258.7920532226563 19.42972755432129 260.7311401367188 24.01422691345215 C 262.7385864257813 28.7603645324707 263.7564697265625 33.80231857299805 263.7564697265625 39 L 263.7564697265625 323 C 263.7564697265625 328.1976928710938 262.7385864257813 333.2396240234375 260.7311401367188 337.9857788085938 C 258.7920532226563 342.5702819824219 256.0160217285156 346.6876831054688 252.4801025390625 350.2236022949219 C 248.9441375732422 353.7595520019531 244.8267364501953 356.5355834960938 240.2422790527344 358.4746704101563 C 235.49609375 360.4821472167969 230.4541473388672 361.5 225.2564697265625 361.5 Z" stroke="none"/><path d="M 39 1 C 33.86959838867188 1 28.8931884765625 2.00457763671875 24.20901489257813 3.985809326171875 C 19.68409729003906 5.899688720703125 15.62010192871094 8.6397705078125 12.12991333007813 12.12994384765625 C 8.639785766601563 15.62014770507813 5.899688720703125 19.68408203125 3.98583984375 24.20901489257813 C 2.004608154296875 28.8931884765625 1 33.86959838867188 1 39 L 1 323 C 1 328.1304016113281 2.004608154296875 333.1068115234375 3.98583984375 337.791015625 C 5.899688720703125 342.31591796875 8.639785766601563 346.3798522949219 12.12991333007813 349.8700561523438 C 15.62010192871094 353.3602294921875 19.68409729003906 356.1003112792969 24.20901489257813 358.0141906738281 C 28.8931884765625 359.9954223632813 33.86959838867188 361 39 361 L 225.2564697265625 361 C 230.3868713378906 361 235.36328125 359.9954223632813 240.0474548339844 358.0141906738281 C 244.5723724365234 356.1003112792969 248.6363220214844 353.3602294921875 252.1265106201172 349.8700561523438 C 255.6166839599609 346.3798522949219 258.3567810058594 342.31591796875 260.2706298828125 337.791015625 C 262.2518615722656 333.1068115234375 263.2564697265625 328.1304016113281 263.2564697265625 323 L 263.2564697265625 39 C 263.2564697265625 33.86959838867188 262.2518615722656 28.8931884765625 260.2706298828125 24.20901489257813 C 258.3567810058594 19.68408203125 255.6166839599609 15.62014770507813 252.1265106201172 12.12994384765625 C 248.6363220214844 8.6397705078125 244.5723724365234 5.899688720703125 240.0474548339844 3.985809326171875 C 235.36328125 2.00457763671875 230.3868713378906 1 225.2564697265625 1 L 39 1 M 39 0 L 225.2564697265625 0 C 246.7955474853516 0 264.2564697265625 17.46090698242188 264.2564697265625 39 L 264.2564697265625 323 C 264.2564697265625 344.5390930175781 246.7955474853516 362 225.2564697265625 362 L 39 362 C 17.46087646484375 362 0 344.5390930175781 0 323 L 0 39 C 0 17.46090698242188 17.46087646484375 0 39 0 Z" stroke="none" fill="#00ff4e"/></g><path d="M-46.474-7.084l.209,1.066h.114l.209-1.009,4.627-20.7h5.694L-43.37,0h-5.637l-7.75-27.727h5.694ZM-24.518,0a9.247,9.247,0,0,1-.409-1.124A9.172,9.172,0,0,1-25.2-2.361,6.441,6.441,0,0,1-27.06-.352,4.38,4.38,0,0,1-29.6.4a5.268,5.268,0,0,1-4.085-1.676A6.373,6.373,0,0,1-35.22-5.751a5.865,5.865,0,0,1,1.952-4.7q1.952-1.676,5.8-1.676h2.038v-1.676a4.142,4.142,0,0,0-.543-2.314,1.83,1.83,0,0,0-1.628-.809,1.568,1.568,0,0,0-1.371.647,3.254,3.254,0,0,0-.457,1.885l-5.237-.019-.057-.114a5.648,5.648,0,0,1,1.99-4.57,7.878,7.878,0,0,1,5.494-1.885,7.352,7.352,0,0,1,5.227,1.876A6.95,6.95,0,0,1-20-13.768v8.341A18.05,18.05,0,0,0-19.8-2.59,15.459,15.459,0,0,0-19.148,0Zm-3.523-3.675a2.786,2.786,0,0,0,1.514-.438,3.251,3.251,0,0,0,1.095-1.124v-3.79h-2.038a1.97,1.97,0,0,0-1.79.857A3.936,3.936,0,0,0-29.812-6a2.758,2.758,0,0,0,.476,1.676A1.522,1.522,0,0,0-28.041-3.675ZM-10.921,0h-5.408V-29.707h5.408ZM-7.8-11.559a10.244,10.244,0,0,1,2.2-6.789,7.579,7.579,0,0,1,6.16-2.637,7.607,7.607,0,0,1,6.17,2.637,10.215,10.215,0,0,1,2.209,6.789v2.552a10.16,10.16,0,0,1-2.209,6.8A7.623,7.623,0,0,1,.581.4,7.639,7.639,0,0,1-5.6-2.209a10.189,10.189,0,0,1-2.2-6.8Zm5.389,2.544a8.6,8.6,0,0,0,.667,3.738A2.374,2.374,0,0,0,.581-3.923,2.345,2.345,0,0,0,2.856-5.287a8.506,8.506,0,0,0,.676-3.729V-11.57a8.529,8.529,0,0,0-.676-3.71A2.356,2.356,0,0,0,.562-16.663,2.354,2.354,0,0,0-1.733-15.27a8.541,8.541,0,0,0-.676,3.7Zm23.937-6.657-2.038-.057a2.308,2.308,0,0,0-1.419.419,2.662,2.662,0,0,0-.866,1.181V0H11.8V-20.6h5.046l.209,2.761.1.038a5.619,5.619,0,0,1,1.381-2.333,2.9,2.9,0,0,1,2.066-.847,4.811,4.811,0,0,1,.771.067,5.239,5.239,0,0,1,.714.162ZM31.926.4a7.868,7.868,0,0,1-6.17-2.552A9.287,9.287,0,0,1,23.47-8.588v-2.895a10.635,10.635,0,0,1,2.123-6.836,7.094,7.094,0,0,1,5.875-2.666,6.828,6.828,0,0,1,5.6,2.418,10.1,10.1,0,0,1,1.98,6.589v3.313H28.86v.076a5.7,5.7,0,0,0,.924,3.352,3.183,3.183,0,0,0,2.79,1.314,7.446,7.446,0,0,0,2.476-.343,13.022,13.022,0,0,0,2.266-1.143l1.371,3.447A8.168,8.168,0,0,1,35.839-.267,11.082,11.082,0,0,1,31.926.4Zm-.457-17.062a2.009,2.009,0,0,0-1.9,1.186,7.692,7.692,0,0,0-.686,3.194h4.856v-.765a5.494,5.494,0,0,0-.533-2.668A1.837,1.837,0,0,0,31.469-16.663ZM50.74-5.389A2,2,0,0,0,50.054-6.9a11.54,11.54,0,0,0-2.628-1.571A13.856,13.856,0,0,1,42.771-11.1a5,5,0,0,1-1.552-3.809,5.561,5.561,0,0,1,1.99-4.294,7.6,7.6,0,0,1,5.265-1.781,7.879,7.879,0,0,1,5.465,1.828A5.766,5.766,0,0,1,55.9-14.492l-.057.114H50.626a3.527,3.527,0,0,0-.533-2.057,1.863,1.863,0,0,0-1.638-.762,2.055,2.055,0,0,0-1.485.59,1.915,1.915,0,0,0-.609,1.428,1.913,1.913,0,0,0,.609,1.476,12.275,12.275,0,0,0,2.647,1.533,12.833,12.833,0,0,1,4.8,2.618,5.28,5.28,0,0,1,1.562,3.97,5.267,5.267,0,0,1-2.095,4.3A8.546,8.546,0,0,1,48.379.4a7.617,7.617,0,0,1-5.637-2.076,6.129,6.129,0,0,1-1.98-4.685l.038-.114h4.951a3.361,3.361,0,0,0,.762,2.361,2.7,2.7,0,0,0,2,.724,2.342,2.342,0,0,0,1.657-.533A1.908,1.908,0,0,0,50.74-5.389Z" transform="translate(594 2164)" fill="#44d62c"/><g transform="translate(560 2339.898)" opacity="0.27"><path d="M-280.759-302.041-260.3-290.23l-20.459,11.811Z" transform="translate(280.759 302.041)" fill="#00ff4e"/><path d="M-258.409-302.041l20.459,11.811-20.459,11.811Z" transform="translate(287.882 302.041)" fill="#00ff4e"/></g><g transform="translate(647.867 2313.442)" opacity="0.27"><path d="M-434.805-271.284h-46.461v-61.595l8.008-8.008h16.2v45.393h30.261v16.2Zm-44.948-1.512h44.323l7.121-7.121V-293.98H-458.57v-45.395h-14.062l-7.121,7.123Z" transform="translate(481.266 340.887)" fill="#00ff4e"/><path d="M-431.234-279.217h-46.151V-340.5h1.514v59.768h44.637Z" transform="translate(484.949 341.256)" fill="#00ff4e"/><rect width="10.7" height="1.513" transform="matrix(0.707, -0.707, 0.707, 0.707, 38.049, 68.312)" fill="#00ff4e"/><rect width="10.7" height="1.513" transform="matrix(0.707, -0.707, 0.707, 0.707, 30.484, 68.312)" fill="#00ff4e"/><rect width="10.7" height="1.513" transform="matrix(0.707, -0.707, 0.707, 0.707, 22.918, 68.312)" fill="#00ff4e"/><rect width="10.7" height="1.513" transform="matrix(0.707, -0.707, 0.707, 0.707, 15.353, 68.312)" fill="#00ff4e"/><rect width="10.7" height="1.514" transform="matrix(0.706, -0.708, 0.708, 0.706, 7.789, 68.316)" fill="#00ff4e"/><rect width="10.7" height="1.515" transform="matrix(0.706, -0.708, 0.708, 0.706, 0.223, 68.316)" fill="#00ff4e"/><rect width="10.7" height="1.515" transform="matrix(0.706, -0.708, 0.708, 0.706, 0.223, 60.75)" fill="#00ff4e"/><rect width="10.7" height="1.515" transform="matrix(0.706, -0.708, 0.708, 0.706, 0.223, 53.185)" fill="#00ff4e"/><rect width="10.7" height="1.515" transform="matrix(0.706, -0.708, 0.708, 0.706, 0.223, 45.619)" fill="#00ff4e"/><rect width="10.7" height="1.515" transform="matrix(0.706, -0.708, 0.708, 0.706, 0.223, 38.054)" fill="#00ff4e"/><rect width="10.7" height="1.515" transform="matrix(0.706, -0.708, 0.708, 0.706, 0.223, 30.487)" fill="#00ff4e"/><rect width="10.7" height="1.515" transform="matrix(0.706, -0.708, 0.708, 0.706, 0.223, 22.922)" fill="#00ff4e"/><rect width="10.7" height="1.515" transform="matrix(0.706, -0.708, 0.708, 0.706, 0.223, 15.357)" fill="#00ff4e"/></g><path d="M.819,8.966a1.274,1.274,0,0,1,.333-.908A1.164,1.164,0,0,1,2.044,7.7a1.182,1.182,0,0,1,.9.355,1.267,1.267,0,0,1,.336.908v.457a1.258,1.258,0,0,1-.333.911,1.181,1.181,0,0,1-.892.346,1.2,1.2,0,0,1-.9-.346,1.251,1.251,0,0,1-.336-.911ZM9.185,14H7.9V4.758H9.185ZM12.08,7.132l.07,1.016a2.3,2.3,0,0,1,.724-.841,1.705,1.705,0,0,1,.99-.3,1.655,1.655,0,0,1,1.4.667,3.449,3.449,0,0,1,.5,2.069V14H14.479V9.753A2.476,2.476,0,0,0,14.206,8.4a.937.937,0,0,0-.825-.394,1.085,1.085,0,0,0-.7.244,1.769,1.769,0,0,0-.5.663V14H10.9V7.132Zm6.792-1.708V7.132h1.073v.92H18.872V12.14a1.363,1.363,0,0,0,.159.759.484.484,0,0,0,.413.225,1.955,1.955,0,0,0,.282-.019q.13-.019.308-.057l.133.889a2.631,2.631,0,0,1-.486.143,2.825,2.825,0,0,1-.555.054,1.4,1.4,0,0,1-1.133-.479,2.33,2.33,0,0,1-.4-1.514V8.052h-.9v-.92h.9V5.424ZM23.7,14.133a2.465,2.465,0,0,1-1.961-.851A3.207,3.207,0,0,1,21,11.105v-1a3.382,3.382,0,0,1,.72-2.222A2.269,2.269,0,0,1,23.55,7a2.154,2.154,0,0,1,1.8.8,3.365,3.365,0,0,1,.628,2.142v.889H22.28v.273a2.58,2.58,0,0,0,.39,1.469,1.257,1.257,0,0,0,1.108.581,2.253,2.253,0,0,0,.914-.168,2.568,2.568,0,0,0,.724-.492l.406.8a2.4,2.4,0,0,1-.87.6A3.156,3.156,0,0,1,23.7,14.133ZM23.55,7.982a1.016,1.016,0,0,0-.9.546,2.854,2.854,0,0,0-.375,1.383H24.7V9.65a2.232,2.232,0,0,0-.292-1.2A.949.949,0,0,0,23.55,7.982Zm3.326,2.311a4.212,4.212,0,0,1,.606-2.384A1.92,1.92,0,0,1,29.167,7a1.7,1.7,0,0,1,.914.244,2.066,2.066,0,0,1,.673.708l.1-.825H31.96v6.836a2.885,2.885,0,0,1-.7,2.063,2.563,2.563,0,0,1-1.958.743,3.822,3.822,0,0,1-1.8-.5l.273-.965a2.932,2.932,0,0,0,1.517.419,1.223,1.223,0,0,0,1.044-.451,2.171,2.171,0,0,0,.34-1.32V13.34a1.745,1.745,0,0,1-1.517.793,1.961,1.961,0,0,1-1.676-.822,3.592,3.592,0,0,1-.6-2.174Zm1.289.844a2.878,2.878,0,0,0,.317,1.457,1.072,1.072,0,0,0,1,.543,1.177,1.177,0,0,0,.714-.216,1.546,1.546,0,0,0,.479-.609V8.89a1.8,1.8,0,0,0-.482-.644,1.118,1.118,0,0,0-1.7.4,3.606,3.606,0,0,0-.327,1.65Zm8.22-2.92-.6-.032a.945.945,0,0,0-.663.241,1.527,1.527,0,0,0-.4.679V14H33.427V7.132H34.6l.1,1.035a2.183,2.183,0,0,1,.565-.854A1.183,1.183,0,0,1,36.067,7a1.582,1.582,0,0,1,.26.022.985.985,0,0,1,.209.054ZM38.816,14H37.527V7.132h1.289Zm0-8.671H37.527V4.1h1.289Zm1.32,5.319A5.145,5.145,0,0,1,40.73,8,1.852,1.852,0,0,1,42.4,7a1.7,1.7,0,0,1,.86.216,1.954,1.954,0,0,1,.651.622V4.1H45.2V14H44.072l-.1-.787a1.946,1.946,0,0,1-.67.686,1.754,1.754,0,0,1-.911.235,1.879,1.879,0,0,1-1.666-.914,4.422,4.422,0,0,1-.594-2.437Zm1.289.133a3.956,3.956,0,0,0,.311,1.72,1.031,1.031,0,0,0,.984.635,1.132,1.132,0,0,0,.714-.229,1.629,1.629,0,0,0,.479-.641V8.928a1.783,1.783,0,0,0-.479-.673,1.057,1.057,0,0,0-.7-.248,1.045,1.045,0,0,0-.99.73,4.847,4.847,0,0,0-.317,1.911ZM50.191,14q-.07-.235-.114-.46a3.286,3.286,0,0,1-.057-.454,2.451,2.451,0,0,1-.717.755,1.673,1.673,0,0,1-.958.292,1.734,1.734,0,0,1-1.362-.549,2.12,2.12,0,0,1-.492-1.469,1.909,1.909,0,0,1,.67-1.546,2.846,2.846,0,0,1,1.882-.562H50v-.7a1.525,1.525,0,0,0-.279-.975A1.057,1.057,0,0,0,48.182,8.3a1.138,1.138,0,0,0-.282.788L46.674,9.08l-.019-.038a1.785,1.785,0,0,1,.635-1.416A2.424,2.424,0,0,1,49.01,7a2.294,2.294,0,0,1,1.647.6,2.247,2.247,0,0,1,.632,1.711V12.5a6.063,6.063,0,0,0,.048.771,4.442,4.442,0,0,0,.156.727Zm-1.555-.844a1.373,1.373,0,0,0,.822-.268,1.581,1.581,0,0,0,.543-.67v-1.41h-.978a1.145,1.145,0,0,0-.917.38,1.374,1.374,0,0,0-.327.929,1.2,1.2,0,0,0,.222.753A.755.755,0,0,0,48.636,13.156Zm3.878-2.507A5.145,5.145,0,0,1,53.108,8,1.852,1.852,0,0,1,54.78,7a1.7,1.7,0,0,1,.86.216,1.954,1.954,0,0,1,.651.622V4.1h1.282V14H56.45l-.1-.787a1.946,1.946,0,0,1-.67.686,1.754,1.754,0,0,1-.911.235,1.879,1.879,0,0,1-1.666-.914,4.422,4.422,0,0,1-.594-2.437Zm1.289.133a3.956,3.956,0,0,0,.311,1.72,1.031,1.031,0,0,0,.984.635,1.132,1.132,0,0,0,.714-.229,1.629,1.629,0,0,0,.479-.641V8.928a1.783,1.783,0,0,0-.479-.673,1.057,1.057,0,0,0-.7-.248,1.045,1.045,0,0,0-.99.73,4.847,4.847,0,0,0-.317,1.911ZM.819,26.966a1.274,1.274,0,0,1,.333-.908,1.164,1.164,0,0,1,.892-.355,1.182,1.182,0,0,1,.9.355,1.267,1.267,0,0,1,.336.908v.457a1.258,1.258,0,0,1-.333.911,1.181,1.181,0,0,1-.892.346,1.2,1.2,0,0,1-.9-.346,1.251,1.251,0,0,1-.336-.911Zm12.46,2.228.019.038a2.985,2.985,0,0,1-.736,2.142,2.729,2.729,0,0,1-2.063.759,2.761,2.761,0,0,1-2.171-.914,3.71,3.71,0,0,1-.812-2.552V26.1a3.763,3.763,0,0,1,.8-2.558,2.7,2.7,0,0,1,2.142-.92,2.8,2.8,0,0,1,2.088.743,3.034,3.034,0,0,1,.749,2.171l-.019.038H12.061a2.47,2.47,0,0,0-.4-1.495,1.44,1.44,0,0,0-1.2-.479,1.406,1.406,0,0,0-1.231.642,3.234,3.234,0,0,0-.438,1.831v2.588a3.219,3.219,0,0,0,.448,1.85,1.447,1.447,0,0,0,1.26.642,1.407,1.407,0,0,0,1.171-.467,2.455,2.455,0,0,0,.384-1.495Zm1-1.06A3.457,3.457,0,0,1,15,25.887,2.383,2.383,0,0,1,16.955,25a2.389,2.389,0,0,1,1.955.879,3.444,3.444,0,0,1,.717,2.25v.876a3.439,3.439,0,0,1-.714,2.25,2.387,2.387,0,0,1-1.952.873A2.4,2.4,0,0,1,15,31.26a3.439,3.439,0,0,1-.714-2.25ZM15.571,29a3.108,3.108,0,0,0,.343,1.546,1.2,1.2,0,0,0,2.079,0A3.085,3.085,0,0,0,18.338,29v-.878a3.074,3.074,0,0,0-.346-1.537,1.194,1.194,0,0,0-2.079,0,3.094,3.094,0,0,0-.343,1.54Zm6.449-3.873.07,1.016a2.3,2.3,0,0,1,.724-.841,1.705,1.705,0,0,1,.99-.3,1.655,1.655,0,0,1,1.4.667,3.449,3.449,0,0,1,.5,2.069V32H24.419V27.753a2.476,2.476,0,0,0-.273-1.352.937.937,0,0,0-.825-.394,1.085,1.085,0,0,0-.7.244,1.769,1.769,0,0,0-.5.663V32H20.839V25.132ZM27.511,32V26.052h-.9v-.92h.9v-.7a2.517,2.517,0,0,1,.619-1.822,2.283,2.283,0,0,1,1.723-.641,3.273,3.273,0,0,1,.79.1,6.751,6.751,0,0,1,.86.282l-.2,1a4.269,4.269,0,0,0-.647-.225,2.849,2.849,0,0,0-.717-.086,1.039,1.039,0,0,0-.863.349,1.643,1.643,0,0,0-.279,1.041v.7h1.162v.92H28.8V32Zm4.6,0H30.824V25.132h1.289Zm5.059,0q-.07-.235-.114-.46A3.286,3.286,0,0,1,37,31.086a2.451,2.451,0,0,1-.717.755,1.673,1.673,0,0,1-.958.292,1.734,1.734,0,0,1-1.362-.549,2.12,2.12,0,0,1-.492-1.469,1.909,1.909,0,0,1,.67-1.546,2.846,2.846,0,0,1,1.882-.562h.958v-.7a1.525,1.525,0,0,0-.279-.975,1.057,1.057,0,0,0-1.539-.035,1.138,1.138,0,0,0-.282.788l-1.225-.006-.019-.038a1.785,1.785,0,0,1,.635-1.416A2.424,2.424,0,0,1,35.991,25a2.294,2.294,0,0,1,1.647.6,2.247,2.247,0,0,1,.632,1.711V30.5a6.063,6.063,0,0,0,.048.771,4.442,4.442,0,0,0,.156.727Zm-1.555-.844a1.373,1.373,0,0,0,.822-.268,1.581,1.581,0,0,0,.543-.67v-1.41H36a1.145,1.145,0,0,0-.917.38,1.374,1.374,0,0,0-.327.929,1.2,1.2,0,0,0,.222.753A.755.755,0,0,0,35.617,31.156ZM40.9,25.132l.07,1.016a2.3,2.3,0,0,1,.724-.841,1.705,1.705,0,0,1,.99-.3,1.655,1.655,0,0,1,1.4.667,3.449,3.449,0,0,1,.5,2.069V32H43.3V27.753a2.476,2.476,0,0,0-.273-1.352.937.937,0,0,0-.825-.394,1.085,1.085,0,0,0-.7.244,1.769,1.769,0,0,0-.5.663V32H39.724V25.132Zm6.3,5.891h3.167V32H45.8v-.812l3.009-5.059H45.862v-1h4.38v.8ZM55.041,32q-.07-.235-.114-.46a3.286,3.286,0,0,1-.057-.454,2.451,2.451,0,0,1-.717.755,1.673,1.673,0,0,1-.958.292,1.734,1.734,0,0,1-1.362-.549,2.12,2.12,0,0,1-.492-1.469,1.909,1.909,0,0,1,.67-1.546,2.846,2.846,0,0,1,1.882-.562h.958v-.7a1.525,1.525,0,0,0-.279-.975,1.057,1.057,0,0,0-1.539-.035,1.138,1.138,0,0,0-.282.788l-1.225-.006-.019-.038a1.785,1.785,0,0,1,.635-1.416A2.424,2.424,0,0,1,53.86,25a2.294,2.294,0,0,1,1.647.6,2.247,2.247,0,0,1,.632,1.711V30.5a6.063,6.063,0,0,0,.048.771,4.442,4.442,0,0,0,.156.727Zm-1.555-.844a1.373,1.373,0,0,0,.822-.268,1.581,1.581,0,0,0,.543-.67v-1.41h-.978a1.145,1.145,0,0,0-.917.38,1.374,1.374,0,0,0-.327.929,1.2,1.2,0,0,0,.222.753A.755.755,0,0,0,53.485,31.156ZM.819,44.966a1.274,1.274,0,0,1,.333-.908,1.164,1.164,0,0,1,.892-.355,1.182,1.182,0,0,1,.9.355,1.267,1.267,0,0,1,.336.908v.457a1.258,1.258,0,0,1-.333.911,1.181,1.181,0,0,1-.892.346,1.2,1.2,0,0,1-.9-.346,1.251,1.251,0,0,1-.336-.911Zm12.46,2.228.019.038a2.985,2.985,0,0,1-.736,2.142,2.729,2.729,0,0,1-2.063.759,2.761,2.761,0,0,1-2.171-.914,3.71,3.71,0,0,1-.812-2.552V44.1a3.763,3.763,0,0,1,.8-2.558,2.7,2.7,0,0,1,2.142-.92,2.8,2.8,0,0,1,2.088.743,3.034,3.034,0,0,1,.749,2.171l-.019.038H12.061a2.47,2.47,0,0,0-.4-1.495,1.44,1.44,0,0,0-1.2-.479,1.406,1.406,0,0,0-1.231.642,3.234,3.234,0,0,0-.438,1.831v2.588a3.219,3.219,0,0,0,.448,1.85,1.447,1.447,0,0,0,1.26.642,1.407,1.407,0,0,0,1.171-.467,2.455,2.455,0,0,0,.384-1.495Zm1-1.06A3.457,3.457,0,0,1,15,43.887,2.383,2.383,0,0,1,16.955,43a2.389,2.389,0,0,1,1.955.879,3.444,3.444,0,0,1,.717,2.25v.876a3.439,3.439,0,0,1-.714,2.25,2.387,2.387,0,0,1-1.952.873A2.4,2.4,0,0,1,15,49.26a3.439,3.439,0,0,1-.714-2.25ZM15.571,47a3.108,3.108,0,0,0,.343,1.546,1.2,1.2,0,0,0,2.079,0A3.085,3.085,0,0,0,18.338,47v-.878a3.074,3.074,0,0,0-.346-1.537,1.194,1.194,0,0,0-2.079,0,3.094,3.094,0,0,0-.343,1.54Zm6.456-3.873.07.933a2.117,2.117,0,0,1,.711-.784A1.832,1.832,0,0,1,23.816,43a1.54,1.54,0,0,1,.971.314,1.919,1.919,0,0,1,.616.955,2.334,2.334,0,0,1,.711-.933A1.7,1.7,0,0,1,27.168,43a1.6,1.6,0,0,1,1.381.72,3.847,3.847,0,0,1,.5,2.193V50H27.765V45.912a3.024,3.024,0,0,0-.26-1.479.845.845,0,0,0-.768-.425.94.94,0,0,0-.733.333,2.029,2.029,0,0,0-.428.885q-.006-.051.006.162t.013.308V50H24.312V45.912a2.973,2.973,0,0,0-.267-1.463.853.853,0,0,0-.774-.441,1.083,1.083,0,0,0-.692.225,1.461,1.461,0,0,0-.444.625V50H20.852V43.132ZM35.61,47.137a3.617,3.617,0,0,1-.6,2.177,1.935,1.935,0,0,1-1.657.819,1.9,1.9,0,0,1-.882-.2,1.843,1.843,0,0,1-.654-.578v3.282H30.532V43.132h1.149l.083.787a2.018,2.018,0,0,1,.667-.676A1.731,1.731,0,0,1,33.344,43a1.893,1.893,0,0,1,1.669.9,4.261,4.261,0,0,1,.6,2.387Zm-1.289-.844a3.551,3.551,0,0,0-.333-1.647A1.065,1.065,0,0,0,33,44.008a1.089,1.089,0,0,0-.7.235,1.654,1.654,0,0,0-.47.641v3.472a1.4,1.4,0,0,0,.463.594,1.212,1.212,0,0,0,.717.206,1.077,1.077,0,0,0,.993-.555,2.866,2.866,0,0,0,.327-1.463Zm5.484-2.076-.6-.032a.945.945,0,0,0-.663.241,1.527,1.527,0,0,0-.4.679V50H36.848V43.132h1.174l.1,1.035a2.183,2.183,0,0,1,.565-.854A1.182,1.182,0,0,1,39.489,43a1.582,1.582,0,0,1,.26.022.985.985,0,0,1,.209.054Zm.679,1.917a3.457,3.457,0,0,1,.714-2.247,2.614,2.614,0,0,1,3.913,0,3.444,3.444,0,0,1,.717,2.25v.876a3.439,3.439,0,0,1-.714,2.25,2.633,2.633,0,0,1-3.917,0,3.439,3.439,0,0,1-.714-2.25ZM41.774,47a3.108,3.108,0,0,0,.343,1.546,1.2,1.2,0,0,0,2.079,0A3.085,3.085,0,0,0,44.542,47v-.878A3.074,3.074,0,0,0,44.2,44.59a1.194,1.194,0,0,0-2.079,0,3.094,3.094,0,0,0-.343,1.54Zm6.456-3.873.07.933a2.117,2.117,0,0,1,.711-.784A1.832,1.832,0,0,1,50.02,43a1.54,1.54,0,0,1,.971.314,1.919,1.919,0,0,1,.616.955,2.334,2.334,0,0,1,.711-.933A1.7,1.7,0,0,1,53.371,43a1.6,1.6,0,0,1,1.381.72,3.847,3.847,0,0,1,.5,2.193V50H53.968V45.912a3.024,3.024,0,0,0-.26-1.479.845.845,0,0,0-.768-.425.94.94,0,0,0-.733.333,2.029,2.029,0,0,0-.428.885q-.006-.051.006.162t.013.308V50H50.515V45.912a2.973,2.973,0,0,0-.267-1.463.853.853,0,0,0-.774-.441,1.083,1.083,0,0,0-.692.225,1.461,1.461,0,0,0-.444.625V50H47.055V43.132ZM58.106,50H56.818V43.132h1.289Zm0-8.671H56.818V40.1h1.289Zm4.761,6.951A.943.943,0,0,0,62.6,47.6,3.349,3.349,0,0,0,61.61,47a5.1,5.1,0,0,1-1.571-.879,1.562,1.562,0,0,1-.511-1.209,1.739,1.739,0,0,1,.625-1.349A2.379,2.379,0,0,1,61.794,43a2.344,2.344,0,0,1,1.688.6,1.9,1.9,0,0,1,.6,1.495l-.013.038H62.835a1.322,1.322,0,0,0-.276-.841.918.918,0,0,0-.765-.352,1.01,1.01,0,0,0-.752.273.883.883,0,0,0-.27.641A.834.834,0,0,0,61,45.48a4.167,4.167,0,0,0,1,.6,4.635,4.635,0,0,1,1.6.879,1.652,1.652,0,0,1,.524,1.26,1.709,1.709,0,0,1-.647,1.384,2.59,2.59,0,0,1-1.7.533,2.439,2.439,0,0,1-1.79-.644,1.943,1.943,0,0,1-.622-1.508l.013-.038h1.2a1.274,1.274,0,0,0,.368.962,1.258,1.258,0,0,0,.851.3,1.122,1.122,0,0,0,.784-.257A.856.856,0,0,0,62.867,48.28Zm2.2-2.146a3.457,3.457,0,0,1,.714-2.247,2.614,2.614,0,0,1,3.913,0,3.444,3.444,0,0,1,.717,2.25v.876a3.439,3.439,0,0,1-.714,2.25,2.633,2.633,0,0,1-3.917,0,3.439,3.439,0,0,1-.714-2.25ZM66.358,47a3.108,3.108,0,0,0,.343,1.546,1.2,1.2,0,0,0,2.079,0A3.085,3.085,0,0,0,69.126,47v-.878a3.074,3.074,0,0,0-.346-1.537,1.194,1.194,0,0,0-2.079,0,3.094,3.094,0,0,0-.343,1.54Z" transform="translate(526 2197)" fill="#5e5b5c"/><g clip-path="url(#c)"><path d="M119.593,121.316a1.723,1.723,0,1,1,1.723,1.723A1.723,1.723,0,0,1,119.593,121.316Zm-13.288,0a1.723,1.723,0,1,1,1.723,1.723A1.723,1.723,0,0,1,106.305,121.316Zm-13.288,0a1.723,1.723,0,1,1,1.723,1.723A1.723,1.723,0,0,1,93.017,121.316Zm-13.288,0a1.723,1.723,0,1,1,1.723,1.723A1.723,1.723,0,0,1,79.729,121.316Zm-13.288,0a1.723,1.723,0,1,1,1.723,1.723A1.723,1.723,0,0,1,66.441,121.316Zm-13.288,0a1.723,1.723,0,1,1,1.723,1.723A1.723,1.723,0,0,1,53.152,121.316Zm-13.288,0a1.723,1.723,0,1,1,1.723,1.723A1.723,1.723,0,0,1,39.864,121.316Zm-13.288,0a1.723,1.723,0,1,1,1.723,1.723A1.723,1.723,0,0,1,26.576,121.316Zm-13.288,0a1.723,1.723,0,1,1,1.723,1.723A1.723,1.723,0,0,1,13.288,121.316ZM0,121.316a1.723,1.723,0,1,1,1.723,1.723A1.723,1.723,0,0,1,0,121.316Zm119.594-13.288a1.723,1.723,0,1,1,1.723,1.723A1.723,1.723,0,0,1,119.593,108.028Zm-13.288,0a1.723,1.723,0,1,1,1.723,1.723A1.723,1.723,0,0,1,106.305,108.028Zm-13.288,0a1.723,1.723,0,1,1,1.723,1.723A1.723,1.723,0,0,1,93.017,108.028Zm-13.288,0a1.723,1.723,0,1,1,1.723,1.723A1.723,1.723,0,0,1,79.729,108.028Zm-13.288,0a1.723,1.723,0,1,1,1.723,1.723A1.723,1.723,0,0,1,66.441,108.028Zm-13.288,0a1.723,1.723,0,1,1,1.723,1.723A1.723,1.723,0,0,1,53.152,108.028Zm-13.288,0a1.723,1.723,0,1,1,1.723,1.723A1.723,1.723,0,0,1,39.864,108.028Zm-13.288,0a1.723,1.723,0,1,1,1.723,1.723A1.723,1.723,0,0,1,26.576,108.028Zm-13.288,0a1.723,1.723,0,1,1,1.723,1.723A1.723,1.723,0,0,1,13.288,108.028ZM0,108.028a1.723,1.723,0,1,1,1.723,1.723A1.723,1.723,0,0,1,0,108.028ZM119.593,94.74a1.723,1.723,0,1,1,1.723,1.723A1.723,1.723,0,0,1,119.593,94.74Zm-13.288,0a1.723,1.723,0,1,1,1.723,1.723A1.723,1.723,0,0,1,106.305,94.74Zm-13.288,0a1.723,1.723,0,1,1,1.723,1.723A1.723,1.723,0,0,1,93.017,94.74Zm-13.288,0a1.723,1.723,0,1,1,1.723,1.723A1.723,1.723,0,0,1,79.729,94.74Zm-13.288,0a1.723,1.723,0,1,1,1.723,1.723A1.723,1.723,0,0,1,66.441,94.74Zm-13.288,0a1.723,1.723,0,1,1,1.723,1.723A1.723,1.723,0,0,1,53.152,94.74Zm-13.288,0a1.723,1.723,0,1,1,1.723,1.723A1.723,1.723,0,0,1,39.864,94.74Zm-13.288,0A1.723,1.723,0,1,1,28.3,96.462,1.723,1.723,0,0,1,26.576,94.74Zm-13.288,0a1.723,1.723,0,1,1,1.723,1.723A1.723,1.723,0,0,1,13.288,94.74ZM0,94.74a1.723,1.723,0,1,1,1.723,1.723A1.723,1.723,0,0,1,0,94.74ZM119.593,81.452a1.723,1.723,0,1,1,1.723,1.723A1.723,1.723,0,0,1,119.593,81.452Zm-13.288,0a1.723,1.723,0,1,1,1.723,1.723A1.723,1.723,0,0,1,106.305,81.452Zm-13.288,0a1.723,1.723,0,1,1,1.723,1.723A1.723,1.723,0,0,1,93.017,81.452Zm-13.288,0a1.723,1.723,0,1,1,1.723,1.723A1.723,1.723,0,0,1,79.729,81.452Zm-13.288,0a1.723,1.723,0,1,1,1.723,1.723A1.723,1.723,0,0,1,66.441,81.452Zm-13.288,0a1.723,1.723,0,1,1,1.723,1.723A1.723,1.723,0,0,1,53.152,81.452Zm-13.288,0a1.723,1.723,0,1,1,1.723,1.723A1.723,1.723,0,0,1,39.864,81.452Zm-13.288,0A1.723,1.723,0,1,1,28.3,83.174,1.723,1.723,0,0,1,26.576,81.452Zm-13.288,0a1.723,1.723,0,1,1,1.723,1.723A1.723,1.723,0,0,1,13.288,81.452ZM0,81.452a1.723,1.723,0,1,1,1.723,1.723A1.723,1.723,0,0,1,0,81.452ZM119.593,68.163a1.723,1.723,0,1,1,1.723,1.723A1.723,1.723,0,0,1,119.593,68.163Zm-13.288,0a1.723,1.723,0,1,1,1.723,1.723A1.723,1.723,0,0,1,106.305,68.163Zm-13.288,0a1.723,1.723,0,1,1,1.723,1.723A1.723,1.723,0,0,1,93.017,68.163Zm-13.288,0a1.723,1.723,0,1,1,1.723,1.723A1.723,1.723,0,0,1,79.729,68.163Zm-13.288,0a1.723,1.723,0,1,1,1.723,1.723A1.723,1.723,0,0,1,66.441,68.163Zm-13.288,0a1.723,1.723,0,1,1,1.723,1.723A1.723,1.723,0,0,1,53.152,68.163Zm-13.288,0a1.723,1.723,0,1,1,1.723,1.723A1.723,1.723,0,0,1,39.864,68.163Zm-13.288,0A1.723,1.723,0,1,1,28.3,69.886,1.723,1.723,0,0,1,26.576,68.163Zm-13.288,0a1.723,1.723,0,1,1,1.723,1.723A1.723,1.723,0,0,1,13.288,68.163ZM0,68.163a1.723,1.723,0,1,1,1.723,1.723A1.723,1.723,0,0,1,0,68.163ZM119.593,54.875a1.723,1.723,0,1,1,1.723,1.723A1.723,1.723,0,0,1,119.593,54.875Zm-13.288,0a1.723,1.723,0,1,1,1.723,1.723A1.723,1.723,0,0,1,106.305,54.875Zm-13.288,0A1.723,1.723,0,1,1,94.74,56.6,1.723,1.723,0,0,1,93.017,54.875Zm-13.288,0A1.723,1.723,0,1,1,81.452,56.6,1.723,1.723,0,0,1,79.729,54.875Zm-13.288,0A1.723,1.723,0,1,1,68.163,56.6,1.723,1.723,0,0,1,66.441,54.875Zm-13.288,0A1.723,1.723,0,1,1,54.875,56.6,1.723,1.723,0,0,1,53.152,54.875Zm-13.288,0A1.723,1.723,0,1,1,41.587,56.6,1.723,1.723,0,0,1,39.864,54.875Zm-13.288,0A1.723,1.723,0,1,1,28.3,56.6,1.723,1.723,0,0,1,26.576,54.875Zm-13.288,0A1.723,1.723,0,1,1,15.011,56.6,1.723,1.723,0,0,1,13.288,54.875ZM0,54.875A1.723,1.723,0,1,1,1.722,56.6,1.723,1.723,0,0,1,0,54.875ZM119.593,41.587a1.723,1.723,0,1,1,1.723,1.723A1.723,1.723,0,0,1,119.593,41.587Zm-13.288,0a1.723,1.723,0,1,1,1.723,1.723A1.723,1.723,0,0,1,106.305,41.587Zm-13.288,0A1.723,1.723,0,1,1,94.74,43.31,1.723,1.723,0,0,1,93.017,41.587Zm-13.288,0a1.723,1.723,0,1,1,1.723,1.723A1.723,1.723,0,0,1,79.729,41.587Zm-13.288,0a1.723,1.723,0,1,1,1.723,1.723A1.723,1.723,0,0,1,66.441,41.587Zm-13.288,0a1.723,1.723,0,1,1,1.723,1.723A1.723,1.723,0,0,1,53.152,41.587Zm-13.288,0a1.723,1.723,0,1,1,1.723,1.723A1.723,1.723,0,0,1,39.864,41.587Zm-13.288,0A1.723,1.723,0,1,1,28.3,43.31,1.723,1.723,0,0,1,26.576,41.587Zm-13.288,0a1.723,1.723,0,1,1,1.723,1.723A1.723,1.723,0,0,1,13.288,41.587ZM0,41.587A1.723,1.723,0,1,1,1.722,43.31,1.723,1.723,0,0,1,0,41.587ZM119.593,28.3a1.723,1.723,0,1,1,1.723,1.723A1.723,1.723,0,0,1,119.593,28.3Zm-13.288,0a1.723,1.723,0,1,1,1.723,1.723A1.723,1.723,0,0,1,106.305,28.3Zm-13.288,0a1.723,1.723,0,1,1,1.723,1.723A1.723,1.723,0,0,1,93.017,28.3Zm-13.288,0a1.723,1.723,0,1,1,1.723,1.723A1.723,1.723,0,0,1,79.729,28.3Zm-13.288,0a1.723,1.723,0,1,1,1.723,1.723A1.723,1.723,0,0,1,66.441,28.3Zm-13.288,0a1.723,1.723,0,1,1,1.723,1.723A1.723,1.723,0,0,1,53.152,28.3Zm-13.288,0a1.723,1.723,0,1,1,1.723,1.723A1.723,1.723,0,0,1,39.864,28.3Zm-13.288,0A1.723,1.723,0,1,1,28.3,30.021,1.723,1.723,0,0,1,26.576,28.3Zm-13.288,0a1.723,1.723,0,1,1,1.723,1.723A1.723,1.723,0,0,1,13.288,28.3ZM0,28.3a1.723,1.723,0,1,1,1.723,1.723A1.723,1.723,0,0,1,0,28.3ZM119.593,15.011a1.723,1.723,0,1,1,1.723,1.723A1.723,1.723,0,0,1,119.593,15.011Zm-13.288,0a1.723,1.723,0,1,1,1.723,1.723A1.723,1.723,0,0,1,106.305,15.011Zm-13.288,0a1.723,1.723,0,1,1,1.723,1.723A1.723,1.723,0,0,1,93.017,15.011Zm-13.288,0a1.723,1.723,0,1,1,1.723,1.723A1.723,1.723,0,0,1,79.729,15.011Zm-13.288,0a1.723,1.723,0,1,1,1.723,1.723A1.723,1.723,0,0,1,66.441,15.011Zm-13.288,0a1.723,1.723,0,1,1,1.723,1.723A1.723,1.723,0,0,1,53.152,15.011Zm-13.288,0a1.723,1.723,0,1,1,1.723,1.723A1.723,1.723,0,0,1,39.864,15.011Zm-13.288,0A1.723,1.723,0,1,1,28.3,16.733,1.723,1.723,0,0,1,26.576,15.011Zm-13.288,0a1.723,1.723,0,1,1,1.723,1.723A1.723,1.723,0,0,1,13.288,15.011ZM0,15.011a1.723,1.723,0,1,1,1.723,1.723A1.723,1.723,0,0,1,0,15.011ZM119.593,1.722a1.723,1.723,0,1,1,1.723,1.723A1.723,1.723,0,0,1,119.593,1.722Zm-13.288,0a1.723,1.723,0,1,1,1.723,1.723A1.723,1.723,0,0,1,106.305,1.722Zm-13.288,0A1.723,1.723,0,1,1,94.74,3.445,1.723,1.723,0,0,1,93.017,1.722Zm-13.288,0a1.723,1.723,0,1,1,1.723,1.723A1.723,1.723,0,0,1,79.729,1.722Zm-13.288,0a1.723,1.723,0,1,1,1.723,1.723A1.723,1.723,0,0,1,66.441,1.722Zm-13.288,0a1.723,1.723,0,1,1,1.723,1.723A1.723,1.723,0,0,1,53.152,1.722Zm-13.288,0a1.723,1.723,0,1,1,1.723,1.723A1.723,1.723,0,0,1,39.864,1.722Zm-13.288,0A1.723,1.723,0,1,1,28.3,3.445,1.723,1.723,0,0,1,26.576,1.722Zm-13.288,0a1.723,1.723,0,1,1,1.723,1.723A1.723,1.723,0,0,1,13.288,1.722ZM0,1.722A1.723,1.723,0,1,1,1.722,3.445,1.723,1.723,0,0,1,0,1.722Z" transform="translate(786 2179.961) rotate(90)" fill="url(#d)"/></g></g></g></svg>