<svg xmlns="http://www.w3.org/2000/svg" xmlns:xlink="http://www.w3.org/1999/xlink" width="289" height="388" viewBox="0 0 289 388"><defs><linearGradient id="a" x1="-0.12" y1="-0.622" x2="1" y2="1" gradientUnits="objectBoundingBox"><stop offset="0" stop-color="#00ff4e"/><stop offset="1" stop-color="#93a5ff" stop-opacity="0"/></linearGradient><clipPath id="c"><rect width="289" height="388"/></clipPath></defs><g id="b" clip-path="url(#c)"><g transform="translate(-449 -1627.66)"><g transform="translate(462 1640.66)" fill="#fff" stroke="#00ff4e" stroke-width="1" opacity="0.7"><rect width="264" height="362" rx="39" stroke="none"/><rect x="0.5" y="0.5" width="263" height="361" rx="38.5" fill="none"/></g><g transform="translate(570.5 1829.5)"><g transform="translate(12.716 32.448)"><path d="M140.113,353.775l-.027-.027a.918.918,0,1,0-1.3,1.3l.03.03a.918.918,0,1,0,1.292-1.3Z" transform="translate(-138.521 -353.481)" fill="#fff"/></g><g transform="translate(8.63 8.636)"><path d="M119.4,98.425a14.873,14.873,0,0,0-23.41,17.931.918.918,0,0,0,1.591-.916,13.035,13.035,0,1,1,4.739,4.767.918.918,0,1,0-.925,1.586A14.873,14.873,0,0,0,119.4,98.425Z" transform="translate(-94.016 -94.076)" fill="#fff"/></g><g transform="translate(0)"><path d="M47,19.467a.918.918,0,0,0-.774-.906l-3.388-.537-1.8-4.335,2.014-2.777a.918.918,0,0,0-.094-1.188L37.263,4.033a.918.918,0,0,0-1.188-.093L33.3,5.955l-4.338-1.8L28.423.774A.918.918,0,0,0,27.516,0h0L19.467,0a.918.918,0,0,0-.906.774l-.537,3.388-4.335,1.8L10.911,3.949a.918.918,0,0,0-1.188.094L4.033,9.737a.918.918,0,0,0-.093,1.188L5.956,13.7l-1.8,4.338-3.387.539A.918.918,0,0,0,0,19.484l0,8.049a.918.918,0,0,0,.774.906l3.388.537,1.8,4.335L3.949,36.089a.918.918,0,0,0,.094,1.188l5.693,5.689a.918.918,0,0,0,1.188.093L13.7,41.044l4.338,1.8.539,3.387a.918.918,0,0,0,.906.774h0l8.049,0a.918.918,0,0,0,.906-.774l.537-3.388,4.335-1.8,2.777,2.014a.918.918,0,0,0,1.188-.094l5.689-5.693a.918.918,0,0,0,.093-1.188L41.044,33.3l1.8-4.338,3.387-.539A.918.918,0,0,0,47,27.516Zm-4.953,7.763a.918.918,0,0,0-.7.556l-2.188,5.288a.918.918,0,0,0,.106.891l1.857,2.556L36.533,41.1l-2.559-1.856a.918.918,0,0,0-.891-.1L27.8,41.335a.918.918,0,0,0-.555.7l-.495,3.122-6.482,0-.5-3.12a.918.918,0,0,0-.556-.7l-5.288-2.188a.918.918,0,0,0-.89.106l-2.556,1.857L5.9,36.533l1.856-2.559a.918.918,0,0,0,.1-.891L5.665,27.8a.918.918,0,0,0-.7-.555l-3.122-.495,0-6.482,3.12-.5a.918.918,0,0,0,.7-.556l2.188-5.288a.918.918,0,0,0-.106-.891L5.886,10.48,10.468,5.9l2.559,1.856a.918.918,0,0,0,.891.1L19.2,5.665a.918.918,0,0,0,.555-.7l.495-3.122,6.482,0,.5,3.12a.918.918,0,0,0,.556.7l5.288,2.188a.918.918,0,0,0,.891-.106L36.52,5.886,41.1,10.467l-1.856,2.559a.918.918,0,0,0-.1.891L41.335,19.2a.918.918,0,0,0,.7.555l3.122.495,0,6.482Z" transform="translate(0)" fill="#fff"/></g><g transform="translate(13.464 13.462)"><path d="M165.069,157.828a5.084,5.084,0,0,0-4.214-1.259l-4.031-4.031a5.108,5.108,0,0,0-6.948-5.524.918.918,0,0,0-.308,1.5l1.331,1.331a.723.723,0,0,1-1.022,1.022l-1.336-1.336a.918.918,0,0,0-1.5.3,5.1,5.1,0,0,0,5.521,6.963l4.028,4.028a5.107,5.107,0,0,0,6.963,5.522.918.918,0,0,0,.305-1.5l-1.325-1.325a.723.723,0,0,1,1.022-1.022l1.322,1.322a.918.918,0,0,0,1.5-.307A5.135,5.135,0,0,0,165.069,157.828Zm-.216,3.376a2.559,2.559,0,0,0-3.618,3.618l.045.045a3.274,3.274,0,0,1-2.8-4.1.918.918,0,0,0-.238-.886l-4.729-4.729a.918.918,0,0,0-.884-.238,3.262,3.262,0,0,1-4.1-2.8l.053.053a2.559,2.559,0,1,0,3.618-3.618l-.043-.043a3.274,3.274,0,0,1,2.784,4.1.918.918,0,0,0,.238.885l4.731,4.731a.918.918,0,0,0,.884.238,3.261,3.261,0,0,1,4.094,2.78Z" transform="translate(-146.67 -146.646)" fill="#fff"/></g><g transform="translate(24.726 13.094)"><path d="M276.515,146.493a10.67,10.67,0,0,0-6.039-3.828.918.918,0,1,0-.4,1.791,8.828,8.828,0,0,1,5,3.169.918.918,0,0,0,1.446-1.132Z" transform="translate(-269.356 -142.643)" fill="#fff"/></g><g transform="translate(31.834 19.577)"><path d="M348.588,213.946l-.013-.042a.918.918,0,0,0-1.747.564l.012.036a.918.918,0,1,0,1.749-.559Z" transform="translate(-346.783 -213.268)" fill="#fff"/></g></g><path d="M-37.124-7.084l.209,1.066h.114l.209-1.009,4.627-20.7h5.694L-34.02,0h-5.637l-7.75-27.727h5.694ZM-18.672,0H-24.08V-20.6h5.408Zm0-25.575H-24.08v-4.132h5.408ZM-5.932-5.389A2,2,0,0,0-6.617-6.9,11.54,11.54,0,0,0-9.245-8.474,13.856,13.856,0,0,1-13.9-11.1a5,5,0,0,1-1.552-3.809,5.561,5.561,0,0,1,1.99-4.294A7.6,7.6,0,0,1-8.2-20.985a7.879,7.879,0,0,1,5.465,1.828A5.766,5.766,0,0,1-.771-14.492l-.057.114H-6.046a3.527,3.527,0,0,0-.533-2.057A1.863,1.863,0,0,0-8.217-17.2a2.055,2.055,0,0,0-1.485.59,1.915,1.915,0,0,0-.609,1.428A1.913,1.913,0,0,0-9.7-13.7a12.275,12.275,0,0,0,2.647,1.533,12.833,12.833,0,0,1,4.8,2.618A5.28,5.28,0,0,1-.7-5.58a5.267,5.267,0,0,1-2.095,4.3A8.546,8.546,0,0,1-8.293.4,7.617,7.617,0,0,1-13.93-1.676,6.129,6.129,0,0,1-15.91-6.36l.038-.114h4.951a3.361,3.361,0,0,0,.762,2.361,2.7,2.7,0,0,0,2,.724A2.342,2.342,0,0,0-6.5-3.923,1.908,1.908,0,0,0-5.932-5.389ZM7.665,0H2.257V-20.6H7.665Zm0-25.575H2.257v-4.132H7.665Zm3.123,14.016a10.244,10.244,0,0,1,2.2-6.789,7.579,7.579,0,0,1,6.16-2.637,7.607,7.607,0,0,1,6.17,2.637,10.215,10.215,0,0,1,2.209,6.789v2.552a10.16,10.16,0,0,1-2.209,6.8A7.623,7.623,0,0,1,19.167.4a7.639,7.639,0,0,1-6.179-2.609,10.189,10.189,0,0,1-2.2-6.8Zm5.389,2.544a8.6,8.6,0,0,0,.667,3.738,2.374,2.374,0,0,0,2.323,1.354,2.345,2.345,0,0,0,2.276-1.364,8.506,8.506,0,0,0,.676-3.729V-11.57a8.529,8.529,0,0,0-.676-3.71,2.356,2.356,0,0,0-2.295-1.383,2.354,2.354,0,0,0-2.295,1.392,8.541,8.541,0,0,0-.676,3.7Zm3.542-19.626h5.694l.057.114-4.742,4.951-4.361-.01ZM35.334-20.6l.229,2.837a6.866,6.866,0,0,1,2.1-2.371,4.791,4.791,0,0,1,2.752-.847A4.772,4.772,0,0,1,44.465-19q1.476,1.98,1.476,6.227V0H40.514V-12.792a5.526,5.526,0,0,0-.6-3,2.1,2.1,0,0,0-1.857-.867,2.465,2.465,0,0,0-1.333.381A3.249,3.249,0,0,0,35.7-15.233V0H30.288V-20.6Z" transform="translate(594 1743)" fill="#44d62c"/><g transform="translate(1033.9 2244.374)" opacity="0.27"><path d="M-370.278-319.822v-39.706l.5-.5h44.667l.33.868-44.669,39.7Zm.992-39.209v38.1l42.866-38.1Z" transform="translate(3.837 2.558)" fill="#00ff4e"/><path d="M-381.331-326.924v-40.467h45.314l15.549,10.367L-365.9-316.637Zm.993-39.474v38.943l14.349,9.566,43.9-39.023-14.228-9.487Z" transform="translate(0 0)" fill="#00ff4e"/><rect width="0.992" height="17.895" transform="translate(-381.108 -366.485) rotate(-56.288)" fill="#00ff4e"/><rect width="0.992" height="17.895" transform="matrix(0.554, -0.832, 0.832, 0.554, -376.15, -366.477)" fill="#00ff4e"/><rect width="0.992" height="17.895" transform="translate(-371.182 -366.485) rotate(-56.288)" fill="#00ff4e"/><rect width="0.992" height="17.895" transform="matrix(0.554, -0.832, 0.832, 0.554, -366.224, -366.477)" fill="#00ff4e"/><rect width="0.992" height="17.895" transform="translate(-361.255 -366.485) rotate(-56.288)" fill="#00ff4e"/><rect width="0.992" height="17.895" transform="matrix(0.554, -0.832, 0.832, 0.554, -356.297, -366.477)" fill="#00ff4e"/><rect width="0.992" height="17.895" transform="translate(-351.329 -366.485) rotate(-56.288)" fill="#00ff4e"/><rect width="0.992" height="17.895" transform="matrix(0.554, -0.832, 0.832, 0.554, -346.371, -366.477)" fill="#00ff4e"/><rect width="0.992" height="17.895" transform="translate(-341.403 -366.485) rotate(-56.288)" fill="#00ff4e"/><rect width="0.992" height="17.895" transform="translate(-381.108 -361.522) rotate(-56.288)" fill="#00ff4e"/><rect width="0.992" height="17.895" transform="translate(-381.108 -356.559) rotate(-56.288)" fill="#00ff4e"/><rect width="0.992" height="17.895" transform="translate(-381.108 -351.596) rotate(-56.288)" fill="#00ff4e"/><rect width="0.992" height="17.895" transform="translate(-381.108 -346.633) rotate(-56.288)" fill="#00ff4e"/><rect width="0.992" height="17.895" transform="translate(-381.108 -341.67) rotate(-56.288)" fill="#00ff4e"/><rect width="0.992" height="17.895" transform="translate(-381.108 -336.706) rotate(-56.288)" fill="#00ff4e"/><rect width="0.992" height="17.895" transform="translate(-381.108 -331.743) rotate(-56.288)" fill="#00ff4e"/><rect width="0.992" height="17.895" transform="translate(-381.108 -326.78) rotate(-56.288)" fill="#00ff4e"/></g><path d="M5.123,11.67A1.565,1.565,0,0,0,4.754,10.6a3.024,3.024,0,0,0-1.289-.736A5.215,5.215,0,0,1,1.441,8.818a2.195,2.195,0,0,1-.7-1.7A2.3,2.3,0,0,1,1.52,5.325a2.911,2.911,0,0,1,2.015-.7A2.746,2.746,0,0,1,5.6,5.434,2.615,2.615,0,0,1,6.36,7.386l-.013.038H5.11a2.006,2.006,0,0,0-.416-1.315A1.43,1.43,0,0,0,3.523,5.6a1.434,1.434,0,0,0-1.108.422A1.523,1.523,0,0,0,2.025,7.1a1.324,1.324,0,0,0,.419.993,3.794,3.794,0,0,0,1.384.733A4.5,4.5,0,0,1,5.751,9.9a2.421,2.421,0,0,1,.66,1.76,2.252,2.252,0,0,1-.781,1.8,3.046,3.046,0,0,1-2.05.667A3.374,3.374,0,0,1,1.419,13.4a2.408,2.408,0,0,1-.892-2.066L.54,11.3H1.777a1.813,1.813,0,0,0,.5,1.4,1.858,1.858,0,0,0,1.3.455,1.545,1.545,0,0,0,1.133-.4A1.45,1.45,0,0,0,5.123,11.67Zm5,2.463a2.465,2.465,0,0,1-1.961-.851,3.207,3.207,0,0,1-.736-2.177v-1a3.382,3.382,0,0,1,.72-2.222A2.269,2.269,0,0,1,9.972,7a2.154,2.154,0,0,1,1.8.8A3.365,3.365,0,0,1,12.4,9.944v.889H8.7v.273a2.58,2.58,0,0,0,.39,1.469,1.257,1.257,0,0,0,1.108.581,2.253,2.253,0,0,0,.914-.168,2.568,2.568,0,0,0,.724-.492l.406.8a2.4,2.4,0,0,1-.87.6A3.156,3.156,0,0,1,10.118,14.133ZM9.972,7.982a1.016,1.016,0,0,0-.9.546A2.854,2.854,0,0,0,8.7,9.912h2.418V9.65a2.232,2.232,0,0,0-.292-1.2A.949.949,0,0,0,9.972,7.982Zm6.525.235-.6-.032a.945.945,0,0,0-.663.241,1.527,1.527,0,0,0-.4.679V14H13.54V7.132h1.174l.1,1.035a2.183,2.183,0,0,1,.565-.854A1.183,1.183,0,0,1,16.18,7a1.582,1.582,0,0,1,.26.022.985.985,0,0,1,.209.054Zm6.373,5.916a2.465,2.465,0,0,1-1.961-.851,3.207,3.207,0,0,1-.736-2.177v-1a3.382,3.382,0,0,1,.72-2.222A2.269,2.269,0,0,1,22.725,7a2.154,2.154,0,0,1,1.8.8,3.365,3.365,0,0,1,.628,2.142v.889H21.455v.273a2.58,2.58,0,0,0,.39,1.469,1.257,1.257,0,0,0,1.108.581,2.253,2.253,0,0,0,.914-.168,2.568,2.568,0,0,0,.724-.492l.406.8a2.4,2.4,0,0,1-.87.6A3.156,3.156,0,0,1,22.871,14.133Zm-.146-6.151a1.016,1.016,0,0,0-.9.546,2.854,2.854,0,0,0-.375,1.383h2.418V9.65a2.232,2.232,0,0,0-.292-1.2A.949.949,0,0,0,22.725,7.982ZM27.663,14H26.375V4.1h1.289Zm9.471-2.863a3.617,3.617,0,0,1-.6,2.177,1.935,1.935,0,0,1-1.657.819,1.9,1.9,0,0,1-.882-.2,1.843,1.843,0,0,1-.654-.578v3.282H32.056V7.132H33.2l.083.787a2.018,2.018,0,0,1,.667-.676A1.731,1.731,0,0,1,34.868,7a1.893,1.893,0,0,1,1.669.9,4.261,4.261,0,0,1,.6,2.387Zm-1.289-.844a3.551,3.551,0,0,0-.333-1.647,1.065,1.065,0,0,0-.993-.638,1.089,1.089,0,0,0-.7.235,1.654,1.654,0,0,0-.47.641v3.472a1.4,1.4,0,0,0,.463.594,1.212,1.212,0,0,0,.717.206,1.077,1.077,0,0,0,.993-.555,2.866,2.866,0,0,0,.327-1.463ZM41.33,8.217l-.6-.032a.945.945,0,0,0-.663.241,1.527,1.527,0,0,0-.4.679V14H38.372V7.132h1.174l.1,1.035a2.183,2.183,0,0,1,.565-.854A1.183,1.183,0,0,1,41.012,7a1.582,1.582,0,0,1,.26.022.985.985,0,0,1,.209.054Zm.679,1.917a3.457,3.457,0,0,1,.714-2.247,2.614,2.614,0,0,1,3.913,0,3.444,3.444,0,0,1,.717,2.25v.876a3.439,3.439,0,0,1-.714,2.25,2.633,2.633,0,0,1-3.917,0,3.439,3.439,0,0,1-.714-2.25ZM43.3,11a3.108,3.108,0,0,0,.343,1.546,1.2,1.2,0,0,0,2.079,0A3.085,3.085,0,0,0,46.065,11v-.878a3.074,3.074,0,0,0-.346-1.537,1.194,1.194,0,0,0-2.079,0,3.094,3.094,0,0,0-.343,1.54Zm7.179.932.108.533h.038l.108-.533L51.9,7.132h1.327L51.168,14H50.032L47.963,7.132H49.3Zm6.068,2.2a2.465,2.465,0,0,1-1.961-.851,3.207,3.207,0,0,1-.736-2.177v-1a3.382,3.382,0,0,1,.72-2.222A2.269,2.269,0,0,1,56.4,7a2.154,2.154,0,0,1,1.8.8,3.365,3.365,0,0,1,.628,2.142v.889H55.129v.273a2.58,2.58,0,0,0,.39,1.469,1.257,1.257,0,0,0,1.108.581,2.253,2.253,0,0,0,.914-.168,2.568,2.568,0,0,0,.724-.492l.406.8a2.4,2.4,0,0,1-.87.6A3.156,3.156,0,0,1,56.545,14.133ZM56.4,7.982a1.016,1.016,0,0,0-.9.546,2.854,2.854,0,0,0-.375,1.383h2.418V9.65a2.232,2.232,0,0,0-.292-1.2A.949.949,0,0,0,56.4,7.982Zm6.049,6.151a2.465,2.465,0,0,1-1.961-.851,3.207,3.207,0,0,1-.736-2.177v-1a3.382,3.382,0,0,1,.72-2.222A2.269,2.269,0,0,1,62.3,7a2.154,2.154,0,0,1,1.8.8,3.365,3.365,0,0,1,.628,2.142v.889H61.033v.273a2.58,2.58,0,0,0,.39,1.469,1.257,1.257,0,0,0,1.108.581,2.253,2.253,0,0,0,.914-.168,2.568,2.568,0,0,0,.724-.492l.406.8a2.4,2.4,0,0,1-.87.6A3.156,3.156,0,0,1,62.448,14.133ZM62.3,7.982a1.016,1.016,0,0,0-.9.546,2.854,2.854,0,0,0-.375,1.383h2.418V9.65a2.232,2.232,0,0,0-.292-1.2A.949.949,0,0,0,62.3,7.982Zm3.326,2.666A5.145,5.145,0,0,1,66.222,8a1.852,1.852,0,0,1,1.673-1,1.7,1.7,0,0,1,.86.216,1.954,1.954,0,0,1,.651.622V4.1h1.282V14H69.564l-.1-.787a1.946,1.946,0,0,1-.67.686,1.754,1.754,0,0,1-.911.235,1.879,1.879,0,0,1-1.666-.914,4.422,4.422,0,0,1-.594-2.437Zm1.289.133a3.956,3.956,0,0,0,.311,1.72,1.031,1.031,0,0,0,.984.635,1.132,1.132,0,0,0,.714-.229,1.629,1.629,0,0,0,.479-.641V8.928a1.783,1.783,0,0,0-.479-.673,1.057,1.057,0,0,0-.7-.248,1.045,1.045,0,0,0-.99.73,4.847,4.847,0,0,0-.317,1.911Zm5.015-.647a3.457,3.457,0,0,1,.714-2.247,2.614,2.614,0,0,1,3.913,0,3.444,3.444,0,0,1,.717,2.25v.876a3.439,3.439,0,0,1-.714,2.25,2.633,2.633,0,0,1-3.917,0,3.439,3.439,0,0,1-.714-2.25ZM73.22,11a3.108,3.108,0,0,0,.343,1.546,1.2,1.2,0,0,0,2.079,0A3.085,3.085,0,0,0,75.988,11v-.878a3.074,3.074,0,0,0-.346-1.537,1.194,1.194,0,0,0-2.079,0,3.094,3.094,0,0,0-.343,1.54Zm8.239-2.788-.6-.032a.945.945,0,0,0-.663.241,1.527,1.527,0,0,0-.4.679V14H78.5V7.132h1.174l.1,1.035a2.183,2.183,0,0,1,.565-.854A1.183,1.183,0,0,1,81.142,7a1.582,1.582,0,0,1,.26.022.985.985,0,0,1,.209.054Zm5.065-1.085.07.933a2.117,2.117,0,0,1,.711-.784A1.832,1.832,0,0,1,88.315,7a1.54,1.54,0,0,1,.971.314,1.919,1.919,0,0,1,.616.955,2.334,2.334,0,0,1,.711-.933A1.7,1.7,0,0,1,91.667,7a1.6,1.6,0,0,1,1.381.72,3.847,3.847,0,0,1,.5,2.193V14H92.263V9.912A3.024,3.024,0,0,0,92,8.433a.845.845,0,0,0-.768-.425.94.94,0,0,0-.733.333,2.029,2.029,0,0,0-.428.885q-.006-.051.006.162t.013.308V14H88.81V9.912a2.973,2.973,0,0,0-.267-1.463.853.853,0,0,0-.774-.441,1.083,1.083,0,0,0-.692.225,1.461,1.461,0,0,0-.444.625V14H85.351V7.132Zm12,6.868q-.07-.235-.114-.46a3.284,3.284,0,0,1-.057-.454,2.451,2.451,0,0,1-.717.755,1.673,1.673,0,0,1-.958.292,1.734,1.734,0,0,1-1.362-.549,2.12,2.12,0,0,1-.492-1.469,1.909,1.909,0,0,1,.67-1.546,2.846,2.846,0,0,1,1.882-.562h.958v-.7a1.525,1.525,0,0,0-.279-.975A1.057,1.057,0,0,0,96.519,8.3a1.138,1.138,0,0,0-.282.788L95.012,9.08l-.019-.038a1.785,1.785,0,0,1,.635-1.416A2.424,2.424,0,0,1,97.348,7a2.294,2.294,0,0,1,1.647.6,2.247,2.247,0,0,1,.632,1.711V12.5a6.063,6.063,0,0,0,.048.771A4.443,4.443,0,0,0,99.83,14Zm-1.555-.844a1.373,1.373,0,0,0,.822-.268,1.581,1.581,0,0,0,.543-.67v-1.41H97.36a1.145,1.145,0,0,0-.917.38,1.374,1.374,0,0,0-.327.929,1.2,1.2,0,0,0,.222.753A.755.755,0,0,0,96.973,13.156Zm7.319-.876a.943.943,0,0,0-.263-.676,3.349,3.349,0,0,0-.993-.606,5.1,5.1,0,0,1-1.571-.879,1.562,1.562,0,0,1-.511-1.209,1.739,1.739,0,0,1,.625-1.349A2.379,2.379,0,0,1,103.219,7a2.344,2.344,0,0,1,1.688.6,1.9,1.9,0,0,1,.6,1.495l-.013.038H104.26a1.322,1.322,0,0,0-.276-.841.918.918,0,0,0-.765-.352,1.01,1.01,0,0,0-.752.273.883.883,0,0,0-.27.641.834.834,0,0,0,.232.622,4.166,4.166,0,0,0,1,.6,4.635,4.635,0,0,1,1.6.879,1.652,1.652,0,0,1,.524,1.26,1.709,1.709,0,0,1-.647,1.384,2.59,2.59,0,0,1-1.7.533,2.439,2.439,0,0,1-1.79-.644,1.943,1.943,0,0,1-.622-1.508l.013-.038h1.2a1.274,1.274,0,0,0,.368.962,1.258,1.258,0,0,0,.851.3,1.122,1.122,0,0,0,.784-.257A.856.856,0,0,0,104.292,12.28Zm7.674.876a1.045,1.045,0,0,0,.813-.371,1.44,1.44,0,0,0,.33-.993h1.155l.013.038a2.117,2.117,0,0,1-.657,1.638,2.279,2.279,0,0,1-1.654.667,2.349,2.349,0,0,1-1.965-.87,3.48,3.48,0,0,1-.682-2.215V10.1A3.507,3.507,0,0,1,110,7.881,2.335,2.335,0,0,1,111.96,7a2.211,2.211,0,0,1,1.692.7,2.462,2.462,0,0,1,.632,1.8l-.019.038h-1.155a1.864,1.864,0,0,0-.314-1.123.983.983,0,0,0-.835-.432,1.08,1.08,0,0,0-1.044.6,3.3,3.3,0,0,0-.308,1.514v.948a3.288,3.288,0,0,0,.308,1.521A1.087,1.087,0,0,0,111.966,13.156Zm3.206-3.021a3.457,3.457,0,0,1,.714-2.247,2.614,2.614,0,0,1,3.913,0,3.444,3.444,0,0,1,.717,2.25v.876a3.439,3.439,0,0,1-.714,2.25,2.633,2.633,0,0,1-3.917,0,3.439,3.439,0,0,1-.714-2.25ZM116.46,11a3.108,3.108,0,0,0,.343,1.546,1.2,1.2,0,0,0,2.079,0A3.085,3.085,0,0,0,119.228,11v-.878a3.074,3.074,0,0,0-.346-1.537,1.194,1.194,0,0,0-2.079,0,3.094,3.094,0,0,0-.343,1.54Zm6.449-3.873.07,1.016a2.3,2.3,0,0,1,.724-.841,1.705,1.705,0,0,1,.99-.3,1.655,1.655,0,0,1,1.4.667,3.449,3.449,0,0,1,.5,2.069V14h-1.289V9.753a2.476,2.476,0,0,0-.273-1.352.937.937,0,0,0-.825-.394,1.085,1.085,0,0,0-.7.244,1.769,1.769,0,0,0-.5.663V14h-1.289V7.132ZM128.4,14V8.052h-.9v-.92h.9v-.7a2.517,2.517,0,0,1,.619-1.822,2.283,2.283,0,0,1,1.723-.641,3.273,3.273,0,0,1,.79.1,6.751,6.751,0,0,1,.86.282l-.2,1a4.27,4.27,0,0,0-.647-.225,2.849,2.849,0,0,0-.717-.086,1.039,1.039,0,0,0-.863.349,1.643,1.643,0,0,0-.279,1.041v.7h1.162v.92h-1.162V14Zm4.6,0h-1.289V7.132H133Zm5.059,0q-.07-.235-.114-.46a3.287,3.287,0,0,1-.057-.454,2.451,2.451,0,0,1-.717.755,1.673,1.673,0,0,1-.958.292,1.734,1.734,0,0,1-1.362-.549,2.12,2.12,0,0,1-.492-1.469,1.909,1.909,0,0,1,.67-1.546,2.846,2.846,0,0,1,1.882-.562h.958v-.7a1.525,1.525,0,0,0-.279-.975,1.057,1.057,0,0,0-1.539-.035,1.138,1.138,0,0,0-.282.788l-1.225-.006-.019-.038a1.785,1.785,0,0,1,.635-1.416A2.424,2.424,0,0,1,136.881,7a2.294,2.294,0,0,1,1.647.6,2.247,2.247,0,0,1,.632,1.711V12.5a6.063,6.063,0,0,0,.048.771,4.442,4.442,0,0,0,.156.727Zm-1.555-.844a1.373,1.373,0,0,0,.822-.268,1.581,1.581,0,0,0,.543-.67v-1.41h-.978a1.145,1.145,0,0,0-.917.38,1.374,1.374,0,0,0-.327.929,1.2,1.2,0,0,0,.222.753A.755.755,0,0,0,136.506,13.156Zm9.2-2.019a3.642,3.642,0,0,1-.59,2.18,1.933,1.933,0,0,1-1.663.816,1.819,1.819,0,0,1-.943-.238,1.926,1.926,0,0,1-.676-.7l-.1.806h-1.117V4.1h1.289V7.855a1.9,1.9,0,0,1,.647-.632A1.739,1.739,0,0,1,143.444,7a1.905,1.905,0,0,1,1.676.873,4.088,4.088,0,0,1,.59,2.326Zm-1.282-.933a3.457,3.457,0,0,0-.314-1.593,1.046,1.046,0,0,0-.993-.6,1.092,1.092,0,0,0-.733.257,1.716,1.716,0,0,0-.473.689v3.3a1.514,1.514,0,0,0,.476.651,1.191,1.191,0,0,0,.743.232,1.052,1.052,0,0,0,.987-.54,2.948,2.948,0,0,0,.308-1.46Zm3.885,3.8h-1.289V4.1h1.289Zm4.043.133a2.465,2.465,0,0,1-1.961-.851,3.207,3.207,0,0,1-.736-2.177v-1a3.382,3.382,0,0,1,.72-2.222A2.269,2.269,0,0,1,152.21,7a2.154,2.154,0,0,1,1.8.8,3.365,3.365,0,0,1,.628,2.142v.889h-3.694v.273a2.58,2.58,0,0,0,.39,1.469,1.257,1.257,0,0,0,1.108.581,2.253,2.253,0,0,0,.914-.168,2.568,2.568,0,0,0,.724-.492l.406.8a2.4,2.4,0,0,1-.87.6A3.156,3.156,0,0,1,152.356,14.133Zm-.146-6.151a1.016,1.016,0,0,0-.9.546,2.854,2.854,0,0,0-.375,1.383h2.418V9.65a2.232,2.232,0,0,0-.292-1.2A.949.949,0,0,0,152.21,7.982ZM3.218,32.133a2.465,2.465,0,0,1-1.961-.851,3.207,3.207,0,0,1-.736-2.177v-1a3.382,3.382,0,0,1,.72-2.222A2.269,2.269,0,0,1,3.072,25a2.154,2.154,0,0,1,1.8.8A3.365,3.365,0,0,1,5.5,27.944v.889H1.8v.273a2.58,2.58,0,0,0,.39,1.469,1.257,1.257,0,0,0,1.108.581,2.253,2.253,0,0,0,.914-.168,2.568,2.568,0,0,0,.724-.492l.406.8a2.4,2.4,0,0,1-.87.6A3.156,3.156,0,0,1,3.218,32.133Zm-.146-6.151a1.016,1.016,0,0,0-.9.546A2.854,2.854,0,0,0,1.8,27.912H4.221V27.65a2.232,2.232,0,0,0-.292-1.2A.949.949,0,0,0,3.072,25.982ZM10.842,32H9.553V25.132h1.289Zm0-8.671H9.553V22.1h1.289Zm2.729,1.8.07,1.016a2.3,2.3,0,0,1,.724-.841,1.705,1.705,0,0,1,.99-.3,1.655,1.655,0,0,1,1.4.667,3.449,3.449,0,0,1,.5,2.069V32H15.971V27.753A2.476,2.476,0,0,0,15.7,26.4a.937.937,0,0,0-.825-.394,1.085,1.085,0,0,0-.7.244,1.769,1.769,0,0,0-.5.663V32H12.391V25.132Zm6.316,0,.07,1.016a2.3,2.3,0,0,1,.724-.841,1.705,1.705,0,0,1,.99-.3,1.655,1.655,0,0,1,1.4.667,3.449,3.449,0,0,1,.5,2.069V32H22.287V27.753a2.476,2.476,0,0,0-.273-1.352.937.937,0,0,0-.825-.394,1.085,1.085,0,0,0-.7.244,1.769,1.769,0,0,0-.5.663V32H18.707V25.132Zm4.894,3a3.457,3.457,0,0,1,.714-2.247,2.614,2.614,0,0,1,3.913,0,3.444,3.444,0,0,1,.717,2.25v.876a3.439,3.439,0,0,1-.714,2.25,2.633,2.633,0,0,1-3.917,0,3.439,3.439,0,0,1-.714-2.25ZM26.07,29a3.108,3.108,0,0,0,.343,1.546,1.2,1.2,0,0,0,2.079,0A3.085,3.085,0,0,0,28.837,29v-.878a3.074,3.074,0,0,0-.346-1.537,1.194,1.194,0,0,0-2.079,0,3.094,3.094,0,0,0-.343,1.54Zm7.179.932.108.533H33.4l.108-.533,1.168-4.805H36L33.941,32H32.8l-2.069-6.868h1.333ZM40.32,32q-.07-.235-.114-.46a3.286,3.286,0,0,1-.057-.454,2.451,2.451,0,0,1-.717.755,1.673,1.673,0,0,1-.958.292,1.734,1.734,0,0,1-1.362-.549,2.12,2.12,0,0,1-.492-1.469,1.909,1.909,0,0,1,.67-1.546,2.846,2.846,0,0,1,1.882-.562h.958v-.7a1.525,1.525,0,0,0-.279-.975,1.057,1.057,0,0,0-1.539-.035,1.138,1.138,0,0,0-.282.788L36.8,27.08l-.019-.038a1.785,1.785,0,0,1,.635-1.416A2.424,2.424,0,0,1,39.14,25a2.294,2.294,0,0,1,1.647.6,2.247,2.247,0,0,1,.632,1.711V30.5a6.063,6.063,0,0,0,.048.771,4.442,4.442,0,0,0,.156.727Zm-1.555-.844a1.373,1.373,0,0,0,.822-.268,1.581,1.581,0,0,0,.543-.67v-1.41h-.978a1.145,1.145,0,0,0-.917.38,1.374,1.374,0,0,0-.327.929,1.2,1.2,0,0,0,.222.753A.755.755,0,0,0,38.765,31.156Zm3.878-2.507A5.145,5.145,0,0,1,43.237,26a1.852,1.852,0,0,1,1.673-1,1.7,1.7,0,0,1,.86.216,1.954,1.954,0,0,1,.651.622V22.1H47.7V32H46.579l-.1-.787a1.946,1.946,0,0,1-.67.686,1.754,1.754,0,0,1-.911.235,1.879,1.879,0,0,1-1.666-.914,4.422,4.422,0,0,1-.594-2.437Zm1.289.133a3.956,3.956,0,0,0,.311,1.72,1.031,1.031,0,0,0,.984.635,1.132,1.132,0,0,0,.714-.229,1.629,1.629,0,0,0,.479-.641V26.928a1.783,1.783,0,0,0-.479-.673,1.057,1.057,0,0,0-.7-.248,1.045,1.045,0,0,0-.99.73,4.847,4.847,0,0,0-.317,1.911Zm5.015-.647a3.457,3.457,0,0,1,.714-2.247,2.614,2.614,0,0,1,3.913,0,3.444,3.444,0,0,1,.717,2.25v.876a3.439,3.439,0,0,1-.714,2.25,2.633,2.633,0,0,1-3.917,0,3.439,3.439,0,0,1-.714-2.25ZM50.235,29a3.108,3.108,0,0,0,.343,1.546,1.2,1.2,0,0,0,2.079,0A3.085,3.085,0,0,0,53,29v-.878a3.074,3.074,0,0,0-.346-1.537,1.194,1.194,0,0,0-2.079,0,3.094,3.094,0,0,0-.343,1.54Zm8.239-2.788-.6-.032a.945.945,0,0,0-.663.241,1.527,1.527,0,0,0-.4.679V32H55.517V25.132h1.174l.1,1.035a2.183,2.183,0,0,1,.565-.854A1.182,1.182,0,0,1,58.157,25a1.582,1.582,0,0,1,.26.022.985.985,0,0,1,.209.054Zm3.65,2.431A5.145,5.145,0,0,1,62.718,26a1.852,1.852,0,0,1,1.673-1,1.7,1.7,0,0,1,.86.216,1.954,1.954,0,0,1,.651.622V22.1h1.282V32H66.06l-.1-.787a1.946,1.946,0,0,1-.67.686,1.754,1.754,0,0,1-.911.235,1.879,1.879,0,0,1-1.666-.914,4.422,4.422,0,0,1-.594-2.437Zm1.289.133a3.956,3.956,0,0,0,.311,1.72,1.031,1.031,0,0,0,.984.635,1.132,1.132,0,0,0,.714-.229,1.629,1.629,0,0,0,.479-.641V26.928a1.783,1.783,0,0,0-.479-.673,1.057,1.057,0,0,0-.7-.248,1.045,1.045,0,0,0-.99.73,4.847,4.847,0,0,0-.317,1.911Zm7.75,3.352a2.465,2.465,0,0,1-1.961-.851,3.207,3.207,0,0,1-.736-2.177v-1a3.382,3.382,0,0,1,.72-2.222A2.269,2.269,0,0,1,71.018,25a2.154,2.154,0,0,1,1.8.8,3.365,3.365,0,0,1,.628,2.142v.889H69.748v.273a2.58,2.58,0,0,0,.39,1.469,1.257,1.257,0,0,0,1.108.581,2.253,2.253,0,0,0,.914-.168,2.568,2.568,0,0,0,.724-.492l.406.8a2.4,2.4,0,0,1-.87.6A3.156,3.156,0,0,1,71.164,32.133Zm-.146-6.151a1.016,1.016,0,0,0-.9.546,2.854,2.854,0,0,0-.375,1.383h2.418V27.65a2.232,2.232,0,0,0-.292-1.2A.949.949,0,0,0,71.018,25.982Zm8.88,6.151a2.465,2.465,0,0,1-1.961-.851,3.207,3.207,0,0,1-.736-2.177v-1a3.382,3.382,0,0,1,.72-2.222A2.269,2.269,0,0,1,79.752,25a2.154,2.154,0,0,1,1.8.8,3.365,3.365,0,0,1,.628,2.142v.889H78.482v.273a2.58,2.58,0,0,0,.39,1.469,1.257,1.257,0,0,0,1.108.581,2.253,2.253,0,0,0,.914-.168,2.568,2.568,0,0,0,.724-.492l.406.8a2.4,2.4,0,0,1-.87.6A3.156,3.156,0,0,1,79.9,32.133Zm-.146-6.151a1.016,1.016,0,0,0-.9.546,2.854,2.854,0,0,0-.375,1.383H80.9V27.65a2.232,2.232,0,0,0-.292-1.2A.949.949,0,0,0,79.752,25.982Zm4.742-.851.07.933a2.117,2.117,0,0,1,.711-.784A1.832,1.832,0,0,1,86.284,25a1.54,1.54,0,0,1,.971.314,1.919,1.919,0,0,1,.616.955,2.334,2.334,0,0,1,.711-.933A1.7,1.7,0,0,1,89.635,25a1.6,1.6,0,0,1,1.381.72,3.847,3.847,0,0,1,.5,2.193V32H90.232V27.912a3.024,3.024,0,0,0-.26-1.479.845.845,0,0,0-.768-.425.94.94,0,0,0-.733.333,2.029,2.029,0,0,0-.428.885q-.006-.051.006.162t.013.308V32H86.779V27.912a2.973,2.973,0,0,0-.267-1.463.853.853,0,0,0-.774-.441,1.083,1.083,0,0,0-.692.225,1.461,1.461,0,0,0-.444.625V32H83.319V25.132Zm13.584,4.005a3.617,3.617,0,0,1-.6,2.177,1.935,1.935,0,0,1-1.657.819,1.9,1.9,0,0,1-.882-.2,1.843,1.843,0,0,1-.654-.578v3.282H93V25.132h1.149l.083.787a2.018,2.018,0,0,1,.667-.676A1.731,1.731,0,0,1,95.812,25a1.893,1.893,0,0,1,1.669.9,4.261,4.261,0,0,1,.6,2.387Zm-1.289-.844a3.551,3.551,0,0,0-.333-1.647,1.065,1.065,0,0,0-.993-.638,1.089,1.089,0,0,0-.7.235,1.654,1.654,0,0,0-.47.641v3.472a1.4,1.4,0,0,0,.463.594,1.212,1.212,0,0,0,.717.206,1.077,1.077,0,0,0,.993-.555,2.866,2.866,0,0,0,.327-1.463ZM102.813,32q-.07-.235-.114-.46a3.284,3.284,0,0,1-.057-.454,2.451,2.451,0,0,1-.717.755,1.673,1.673,0,0,1-.958.292,1.734,1.734,0,0,1-1.362-.549,2.12,2.12,0,0,1-.492-1.469,1.909,1.909,0,0,1,.67-1.546,2.846,2.846,0,0,1,1.882-.562h.958v-.7a1.525,1.525,0,0,0-.279-.975A1.057,1.057,0,0,0,100.8,26.3a1.138,1.138,0,0,0-.282.788L99.3,27.08l-.019-.038a1.785,1.785,0,0,1,.635-1.416,2.424,2.424,0,0,1,1.72-.621,2.294,2.294,0,0,1,1.647.6,2.247,2.247,0,0,1,.632,1.711V30.5a6.063,6.063,0,0,0,.048.771,4.443,4.443,0,0,0,.156.727Zm-1.555-.844a1.373,1.373,0,0,0,.822-.268,1.581,1.581,0,0,0,.543-.67v-1.41h-.978a1.145,1.145,0,0,0-.917.38,1.374,1.374,0,0,0-.327.929,1.2,1.2,0,0,0,.222.753A.755.755,0,0,0,101.258,31.156Zm3.878-2.863a4.261,4.261,0,0,1,.6-2.387A1.893,1.893,0,0,1,107.4,25a1.7,1.7,0,0,1,.885.229,2.035,2.035,0,0,1,.663.66l.1-.762h1.117v9.509h-1.289V31.384a1.863,1.863,0,0,1-.641.559,1.8,1.8,0,0,1-.838.19,1.939,1.939,0,0,1-1.666-.819,3.631,3.631,0,0,1-.594-2.177Zm1.289.844a2.982,2.982,0,0,0,.311,1.466,1.048,1.048,0,0,0,.984.552,1.15,1.15,0,0,0,.686-.2,1.506,1.506,0,0,0,.47-.579V26.8a1.582,1.582,0,0,0-.463-.6,1.082,1.082,0,0,0-.679-.22,1.042,1.042,0,0,0-.99.641,3.764,3.764,0,0,0-.317,1.667Zm8.893,1.942a2.062,2.062,0,0,1-.7.781,1.77,1.77,0,0,1-.978.273,1.694,1.694,0,0,1-1.454-.717,3.82,3.82,0,0,1-.521-2.228V25.132h1.282V29.2A3.228,3.228,0,0,0,113.2,30.7a.813.813,0,0,0,.752.441,1.365,1.365,0,0,0,.8-.222,1.529,1.529,0,0,0,.511-.635V25.132h1.289V32H115.4Zm5.173,1.054a2.465,2.465,0,0,1-1.961-.851,3.207,3.207,0,0,1-.736-2.177v-1a3.382,3.382,0,0,1,.72-2.222A2.269,2.269,0,0,1,120.345,25a2.154,2.154,0,0,1,1.8.8,3.365,3.365,0,0,1,.628,2.142v.889h-3.694v.273a2.58,2.58,0,0,0,.39,1.469,1.257,1.257,0,0,0,1.108.581,2.253,2.253,0,0,0,.914-.168,2.568,2.568,0,0,0,.724-.492l.406.8a2.4,2.4,0,0,1-.87.6A3.156,3.156,0,0,1,120.491,32.133Zm-.146-6.151a1.016,1.016,0,0,0-.9.546,2.854,2.854,0,0,0-.375,1.383h2.418V27.65a2.232,2.232,0,0,0-.292-1.2A.949.949,0,0,0,120.345,25.982Zm6.767,4.3a.943.943,0,0,0-.263-.676,3.349,3.349,0,0,0-.993-.606,5.1,5.1,0,0,1-1.571-.879,1.562,1.562,0,0,1-.511-1.209,1.739,1.739,0,0,1,.625-1.349A2.379,2.379,0,0,1,126.039,25a2.344,2.344,0,0,1,1.688.6,1.9,1.9,0,0,1,.6,1.495l-.013.038H127.08a1.322,1.322,0,0,0-.276-.841.918.918,0,0,0-.765-.352,1.01,1.01,0,0,0-.752.273.883.883,0,0,0-.27.641.834.834,0,0,0,.232.622,4.166,4.166,0,0,0,1,.6,4.635,4.635,0,0,1,1.6.879,1.652,1.652,0,0,1,.524,1.26,1.709,1.709,0,0,1-.647,1.384,2.59,2.59,0,0,1-1.7.533,2.439,2.439,0,0,1-1.79-.644,1.943,1.943,0,0,1-.622-1.508l.013-.038h1.2a1.274,1.274,0,0,0,.368.962,1.258,1.258,0,0,0,.851.3,1.122,1.122,0,0,0,.784-.257A.856.856,0,0,0,127.112,30.28ZM131,32H129.7V30.711H131Z" transform="translate(516 1783)" fill="#5e5b5c"/><path d="M119.593,121.316a1.723,1.723,0,1,1,1.723,1.723A1.723,1.723,0,0,1,119.593,121.316Zm-13.288,0a1.723,1.723,0,1,1,1.723,1.723A1.723,1.723,0,0,1,106.305,121.316Zm-13.288,0a1.723,1.723,0,1,1,1.723,1.723A1.723,1.723,0,0,1,93.017,121.316Zm-13.288,0a1.723,1.723,0,1,1,1.723,1.723A1.723,1.723,0,0,1,79.729,121.316Zm-13.288,0a1.723,1.723,0,1,1,1.723,1.723A1.723,1.723,0,0,1,66.441,121.316Zm-13.288,0a1.723,1.723,0,1,1,1.723,1.723A1.723,1.723,0,0,1,53.152,121.316Zm-13.288,0a1.723,1.723,0,1,1,1.723,1.723A1.723,1.723,0,0,1,39.864,121.316Zm-13.288,0a1.723,1.723,0,1,1,1.723,1.723A1.723,1.723,0,0,1,26.576,121.316Zm-13.288,0a1.723,1.723,0,1,1,1.723,1.723A1.723,1.723,0,0,1,13.288,121.316ZM0,121.316a1.723,1.723,0,1,1,1.723,1.723A1.723,1.723,0,0,1,0,121.316Zm119.594-13.288a1.723,1.723,0,1,1,1.723,1.723A1.723,1.723,0,0,1,119.593,108.028Zm-13.288,0a1.723,1.723,0,1,1,1.723,1.723A1.723,1.723,0,0,1,106.305,108.028Zm-13.288,0a1.723,1.723,0,1,1,1.723,1.723A1.723,1.723,0,0,1,93.017,108.028Zm-13.288,0a1.723,1.723,0,1,1,1.723,1.723A1.723,1.723,0,0,1,79.729,108.028Zm-13.288,0a1.723,1.723,0,1,1,1.723,1.723A1.723,1.723,0,0,1,66.441,108.028Zm-13.288,0a1.723,1.723,0,1,1,1.723,1.723A1.723,1.723,0,0,1,53.152,108.028Zm-13.288,0a1.723,1.723,0,1,1,1.723,1.723A1.723,1.723,0,0,1,39.864,108.028Zm-13.288,0a1.723,1.723,0,1,1,1.723,1.723A1.723,1.723,0,0,1,26.576,108.028Zm-13.288,0a1.723,1.723,0,1,1,1.723,1.723A1.723,1.723,0,0,1,13.288,108.028ZM0,108.028a1.723,1.723,0,1,1,1.723,1.723A1.723,1.723,0,0,1,0,108.028ZM119.593,94.74a1.723,1.723,0,1,1,1.723,1.723A1.723,1.723,0,0,1,119.593,94.74Zm-13.288,0a1.723,1.723,0,1,1,1.723,1.723A1.723,1.723,0,0,1,106.305,94.74Zm-13.288,0a1.723,1.723,0,1,1,1.723,1.723A1.723,1.723,0,0,1,93.017,94.74Zm-13.288,0a1.723,1.723,0,1,1,1.723,1.723A1.723,1.723,0,0,1,79.729,94.74Zm-13.288,0a1.723,1.723,0,1,1,1.723,1.723A1.723,1.723,0,0,1,66.441,94.74Zm-13.288,0a1.723,1.723,0,1,1,1.723,1.723A1.723,1.723,0,0,1,53.152,94.74Zm-13.288,0a1.723,1.723,0,1,1,1.723,1.723A1.723,1.723,0,0,1,39.864,94.74Zm-13.288,0A1.723,1.723,0,1,1,28.3,96.462,1.723,1.723,0,0,1,26.576,94.74Zm-13.288,0a1.723,1.723,0,1,1,1.723,1.723A1.723,1.723,0,0,1,13.288,94.74ZM0,94.74a1.723,1.723,0,1,1,1.723,1.723A1.723,1.723,0,0,1,0,94.74ZM119.593,81.452a1.723,1.723,0,1,1,1.723,1.723A1.723,1.723,0,0,1,119.593,81.452Zm-13.288,0a1.723,1.723,0,1,1,1.723,1.723A1.723,1.723,0,0,1,106.305,81.452Zm-13.288,0a1.723,1.723,0,1,1,1.723,1.723A1.723,1.723,0,0,1,93.017,81.452Zm-13.288,0a1.723,1.723,0,1,1,1.723,1.723A1.723,1.723,0,0,1,79.729,81.452Zm-13.288,0a1.723,1.723,0,1,1,1.723,1.723A1.723,1.723,0,0,1,66.441,81.452Zm-13.288,0a1.723,1.723,0,1,1,1.723,1.723A1.723,1.723,0,0,1,53.152,81.452Zm-13.288,0a1.723,1.723,0,1,1,1.723,1.723A1.723,1.723,0,0,1,39.864,81.452Zm-13.288,0A1.723,1.723,0,1,1,28.3,83.174,1.723,1.723,0,0,1,26.576,81.452Zm-13.288,0a1.723,1.723,0,1,1,1.723,1.723A1.723,1.723,0,0,1,13.288,81.452ZM0,81.452a1.723,1.723,0,1,1,1.723,1.723A1.723,1.723,0,0,1,0,81.452ZM119.593,68.163a1.723,1.723,0,1,1,1.723,1.723A1.723,1.723,0,0,1,119.593,68.163Zm-13.288,0a1.723,1.723,0,1,1,1.723,1.723A1.723,1.723,0,0,1,106.305,68.163Zm-13.288,0a1.723,1.723,0,1,1,1.723,1.723A1.723,1.723,0,0,1,93.017,68.163Zm-13.288,0a1.723,1.723,0,1,1,1.723,1.723A1.723,1.723,0,0,1,79.729,68.163Zm-13.288,0a1.723,1.723,0,1,1,1.723,1.723A1.723,1.723,0,0,1,66.441,68.163Zm-13.288,0a1.723,1.723,0,1,1,1.723,1.723A1.723,1.723,0,0,1,53.152,68.163Zm-13.288,0a1.723,1.723,0,1,1,1.723,1.723A1.723,1.723,0,0,1,39.864,68.163Zm-13.288,0A1.723,1.723,0,1,1,28.3,69.886,1.723,1.723,0,0,1,26.576,68.163Zm-13.288,0a1.723,1.723,0,1,1,1.723,1.723A1.723,1.723,0,0,1,13.288,68.163ZM0,68.163a1.723,1.723,0,1,1,1.723,1.723A1.723,1.723,0,0,1,0,68.163ZM119.593,54.875a1.723,1.723,0,1,1,1.723,1.723A1.723,1.723,0,0,1,119.593,54.875Zm-13.288,0a1.723,1.723,0,1,1,1.723,1.723A1.723,1.723,0,0,1,106.305,54.875Zm-13.288,0A1.723,1.723,0,1,1,94.74,56.6,1.723,1.723,0,0,1,93.017,54.875Zm-13.288,0A1.723,1.723,0,1,1,81.452,56.6,1.723,1.723,0,0,1,79.729,54.875Zm-13.288,0A1.723,1.723,0,1,1,68.163,56.6,1.723,1.723,0,0,1,66.441,54.875Zm-13.288,0A1.723,1.723,0,1,1,54.875,56.6,1.723,1.723,0,0,1,53.152,54.875Zm-13.288,0A1.723,1.723,0,1,1,41.587,56.6,1.723,1.723,0,0,1,39.864,54.875Zm-13.288,0A1.723,1.723,0,1,1,28.3,56.6,1.723,1.723,0,0,1,26.576,54.875Zm-13.288,0A1.723,1.723,0,1,1,15.011,56.6,1.723,1.723,0,0,1,13.288,54.875ZM0,54.875A1.723,1.723,0,1,1,1.722,56.6,1.723,1.723,0,0,1,0,54.875ZM119.593,41.587a1.723,1.723,0,1,1,1.723,1.723A1.723,1.723,0,0,1,119.593,41.587Zm-13.288,0a1.723,1.723,0,1,1,1.723,1.723A1.723,1.723,0,0,1,106.305,41.587Zm-13.288,0A1.723,1.723,0,1,1,94.74,43.31,1.723,1.723,0,0,1,93.017,41.587Zm-13.288,0a1.723,1.723,0,1,1,1.723,1.723A1.723,1.723,0,0,1,79.729,41.587Zm-13.288,0a1.723,1.723,0,1,1,1.723,1.723A1.723,1.723,0,0,1,66.441,41.587Zm-13.288,0a1.723,1.723,0,1,1,1.723,1.723A1.723,1.723,0,0,1,53.152,41.587Zm-13.288,0a1.723,1.723,0,1,1,1.723,1.723A1.723,1.723,0,0,1,39.864,41.587Zm-13.288,0A1.723,1.723,0,1,1,28.3,43.31,1.723,1.723,0,0,1,26.576,41.587Zm-13.288,0a1.723,1.723,0,1,1,1.723,1.723A1.723,1.723,0,0,1,13.288,41.587ZM0,41.587A1.723,1.723,0,1,1,1.722,43.31,1.723,1.723,0,0,1,0,41.587ZM119.593,28.3a1.723,1.723,0,1,1,1.723,1.723A1.723,1.723,0,0,1,119.593,28.3Zm-13.288,0a1.723,1.723,0,1,1,1.723,1.723A1.723,1.723,0,0,1,106.305,28.3Zm-13.288,0a1.723,1.723,0,1,1,1.723,1.723A1.723,1.723,0,0,1,93.017,28.3Zm-13.288,0a1.723,1.723,0,1,1,1.723,1.723A1.723,1.723,0,0,1,79.729,28.3Zm-13.288,0a1.723,1.723,0,1,1,1.723,1.723A1.723,1.723,0,0,1,66.441,28.3Zm-13.288,0a1.723,1.723,0,1,1,1.723,1.723A1.723,1.723,0,0,1,53.152,28.3Zm-13.288,0a1.723,1.723,0,1,1,1.723,1.723A1.723,1.723,0,0,1,39.864,28.3Zm-13.288,0A1.723,1.723,0,1,1,28.3,30.021,1.723,1.723,0,0,1,26.576,28.3Zm-13.288,0a1.723,1.723,0,1,1,1.723,1.723A1.723,1.723,0,0,1,13.288,28.3ZM0,28.3a1.723,1.723,0,1,1,1.723,1.723A1.723,1.723,0,0,1,0,28.3ZM119.593,15.011a1.723,1.723,0,1,1,1.723,1.723A1.723,1.723,0,0,1,119.593,15.011Zm-13.288,0a1.723,1.723,0,1,1,1.723,1.723A1.723,1.723,0,0,1,106.305,15.011Zm-13.288,0a1.723,1.723,0,1,1,1.723,1.723A1.723,1.723,0,0,1,93.017,15.011Zm-13.288,0a1.723,1.723,0,1,1,1.723,1.723A1.723,1.723,0,0,1,79.729,15.011Zm-13.288,0a1.723,1.723,0,1,1,1.723,1.723A1.723,1.723,0,0,1,66.441,15.011Zm-13.288,0a1.723,1.723,0,1,1,1.723,1.723A1.723,1.723,0,0,1,53.152,15.011Zm-13.288,0a1.723,1.723,0,1,1,1.723,1.723A1.723,1.723,0,0,1,39.864,15.011Zm-13.288,0A1.723,1.723,0,1,1,28.3,16.733,1.723,1.723,0,0,1,26.576,15.011Zm-13.288,0a1.723,1.723,0,1,1,1.723,1.723A1.723,1.723,0,0,1,13.288,15.011ZM0,15.011a1.723,1.723,0,1,1,1.723,1.723A1.723,1.723,0,0,1,0,15.011ZM119.593,1.722a1.723,1.723,0,1,1,1.723,1.723A1.723,1.723,0,0,1,119.593,1.722Zm-13.288,0a1.723,1.723,0,1,1,1.723,1.723A1.723,1.723,0,0,1,106.305,1.722Zm-13.288,0A1.723,1.723,0,1,1,94.74,3.445,1.723,1.723,0,0,1,93.017,1.722Zm-13.288,0a1.723,1.723,0,1,1,1.723,1.723A1.723,1.723,0,0,1,79.729,1.722Zm-13.288,0a1.723,1.723,0,1,1,1.723,1.723A1.723,1.723,0,0,1,66.441,1.722Zm-13.288,0a1.723,1.723,0,1,1,1.723,1.723A1.723,1.723,0,0,1,53.152,1.722Zm-13.288,0a1.723,1.723,0,1,1,1.723,1.723A1.723,1.723,0,0,1,39.864,1.722Zm-13.288,0A1.723,1.723,0,1,1,28.3,3.445,1.723,1.723,0,0,1,26.576,1.722Zm-13.288,0a1.723,1.723,0,1,1,1.723,1.723A1.723,1.723,0,0,1,13.288,1.722ZM0,1.722A1.723,1.723,0,1,1,1.722,3.445,1.723,1.723,0,0,1,0,1.722Z" transform="translate(636 1842.961) rotate(90)" fill="url(#a)"/></g></g></svg>