<svg xmlns="http://www.w3.org/2000/svg" xmlns:xlink="http://www.w3.org/1999/xlink" width="160" height="190" viewBox="0 0 160 190"><defs><clipPath id="b"><rect width="160" height="190"/></clipPath></defs><g id="a" clip-path="url(#b)"><path d="M14,0H114a14,14,0,0,1,14,14V141a14,14,0,0,1-14,14H14A14,14,0,0,1,0,141V14A14,14,0,0,1,14,0Z" transform="translate(16 18)" fill="none" opacity="0.93"/><path d="M-28.53-2.977l.019.038a3.177,3.177,0,0,1-.724,2.3,2.857,2.857,0,0,1-2.171.774A3.054,3.054,0,0,1-33.7-.746a3.422,3.422,0,0,1-.857-2.491V-6a3.508,3.508,0,0,1,.828-2.491,2.893,2.893,0,0,1,2.219-.885,2.937,2.937,0,0,1,2.225.787,3.334,3.334,0,0,1,.778,2.33l-.019.038h-1.739a2.157,2.157,0,0,0-.248-1.312,1.14,1.14,0,0,0-1-.4,1.059,1.059,0,0,0-.933.477,2.589,2.589,0,0,0-.324,1.442v2.777a2.483,2.483,0,0,0,.346,1.455,1.172,1.172,0,0,0,1.012.477,1.023,1.023,0,0,0,.911-.378,2.256,2.256,0,0,0,.225-1.292ZM-24.188,0a3.082,3.082,0,0,1-.136-.375,3.057,3.057,0,0,1-.092-.413,2.147,2.147,0,0,1-.619.67,1.46,1.46,0,0,1-.847.251,1.756,1.756,0,0,1-1.362-.559,2.124,2.124,0,0,1-.511-1.492A1.955,1.955,0,0,1-27.1-3.485a2.9,2.9,0,0,1,1.933-.559h.679V-4.6a1.381,1.381,0,0,0-.181-.771.61.61,0,0,0-.543-.27.523.523,0,0,0-.457.216,1.085,1.085,0,0,0-.152.628l-1.746-.006-.019-.038a1.883,1.883,0,0,1,.663-1.523A2.626,2.626,0,0,1-25.1-7a2.451,2.451,0,0,1,1.742.625,2.317,2.317,0,0,1,.67,1.781v2.78a6.017,6.017,0,0,0,.07.946A5.153,5.153,0,0,0-22.4,0Zm-1.174-1.225a.929.929,0,0,0,.5-.146,1.084,1.084,0,0,0,.365-.375V-3.009h-.679a.657.657,0,0,0-.6.286A1.312,1.312,0,0,0-25.952-2a.919.919,0,0,0,.159.559A.507.507,0,0,0-25.362-1.225Zm7.065-4-.679-.019a.769.769,0,0,0-.473.14.887.887,0,0,0-.289.394V0h-1.8V-6.868h1.682l.07.92.032.013a1.873,1.873,0,0,1,.46-.778A.965.965,0,0,1-18.608-7a1.6,1.6,0,0,1,.257.022,1.746,1.746,0,0,1,.238.054ZM-12-2.907a3.812,3.812,0,0,1-.574,2.215A1.923,1.923,0,0,1-14.26.133,1.564,1.564,0,0,1-15.1-.089a1.865,1.865,0,0,1-.613-.647L-15.822,0h-1.562V-9.9h1.8v3.618a1.739,1.739,0,0,1,.568-.527A1.481,1.481,0,0,1-14.273-7a1.912,1.912,0,0,1,1.695.86A4.055,4.055,0,0,1-12-3.84Zm-1.8-.937A3.188,3.188,0,0,0-14-5.1a.737.737,0,0,0-.74-.451.854.854,0,0,0-.5.146,1.077,1.077,0,0,0-.343.413v3.21a.854.854,0,0,0,.34.353,1.041,1.041,0,0,0,.511.118.741.741,0,0,0,.74-.4A2.857,2.857,0,0,0-13.8-2.91Zm2.514-.009a3.415,3.415,0,0,1,.733-2.263A2.526,2.526,0,0,1-8.5-7a2.536,2.536,0,0,1,2.057.879A3.4,3.4,0,0,1-5.7-3.853V-3A3.387,3.387,0,0,1-6.44-.736a2.541,2.541,0,0,1-2.05.87,2.546,2.546,0,0,1-2.06-.87A3.4,3.4,0,0,1-11.283-3Zm1.8.848a2.867,2.867,0,0,0,.222,1.246.791.791,0,0,0,.774.451.782.782,0,0,0,.759-.455,2.835,2.835,0,0,0,.225-1.243v-.852a2.843,2.843,0,0,0-.225-1.237A.785.785,0,0,0-8.5-5.554a.785.785,0,0,0-.765.464,2.847,2.847,0,0,0-.225,1.233ZM-3.1-6.868l.076.946a2.289,2.289,0,0,1,.7-.79A1.6,1.6,0,0,1-1.406-7a1.591,1.591,0,0,1,1.349.66A3.5,3.5,0,0,1,.435-4.259V0H-1.374V-4.264a1.842,1.842,0,0,0-.2-1,.7.7,0,0,0-.619-.289.822.822,0,0,0-.444.127,1.083,1.083,0,0,0-.343.349V0h-1.8V-6.868ZM4.91,0a3.082,3.082,0,0,1-.136-.375,3.057,3.057,0,0,1-.092-.413,2.147,2.147,0,0,1-.619.67,1.46,1.46,0,0,1-.847.251A1.756,1.756,0,0,1,1.854-.425a2.124,2.124,0,0,1-.511-1.492,1.955,1.955,0,0,1,.651-1.568,2.9,2.9,0,0,1,1.933-.559h.679V-4.6a1.381,1.381,0,0,0-.181-.771.61.61,0,0,0-.543-.27.523.523,0,0,0-.457.216,1.085,1.085,0,0,0-.152.628L1.527-4.805l-.019-.038a1.883,1.883,0,0,1,.663-1.523A2.626,2.626,0,0,1,4-7a2.451,2.451,0,0,1,1.742.625,2.317,2.317,0,0,1,.67,1.781v2.78a6.017,6.017,0,0,0,.07.946A5.153,5.153,0,0,0,6.7,0ZM3.736-1.225a.929.929,0,0,0,.5-.146,1.084,1.084,0,0,0,.365-.375V-3.009H3.926a.657.657,0,0,0-.6.286A1.312,1.312,0,0,0,3.145-2a.919.919,0,0,0,.159.559A.507.507,0,0,0,3.736-1.225ZM9.7-8.576v1.708h.952v1.308H9.7v3.447a1.122,1.122,0,0,0,.121.6.377.377,0,0,0,.33.181,2.076,2.076,0,0,0,.279-.016,2.043,2.043,0,0,0,.254-.054l.14,1.371A3.6,3.6,0,0,1,10.28.1a4.109,4.109,0,0,1-.59.038A1.656,1.656,0,0,1,8.36-.4a2.589,2.589,0,0,1-.46-1.7V-5.561H7.087V-6.868H7.9V-8.576ZM15.015,0a3.082,3.082,0,0,1-.136-.375,3.057,3.057,0,0,1-.092-.413,2.147,2.147,0,0,1-.619.67,1.46,1.46,0,0,1-.847.251,1.756,1.756,0,0,1-1.362-.559,2.124,2.124,0,0,1-.511-1.492A1.955,1.955,0,0,1,12.1-3.485a2.9,2.9,0,0,1,1.933-.559h.679V-4.6a1.381,1.381,0,0,0-.181-.771.61.61,0,0,0-.543-.27.523.523,0,0,0-.457.216,1.085,1.085,0,0,0-.152.628l-1.746-.006-.019-.038a1.883,1.883,0,0,1,.663-1.523A2.626,2.626,0,0,1,14.108-7a2.451,2.451,0,0,1,1.742.625,2.317,2.317,0,0,1,.67,1.781v2.78a6.017,6.017,0,0,0,.07.946A5.153,5.153,0,0,0,16.805,0ZM13.841-1.225a.929.929,0,0,0,.5-.146,1.084,1.084,0,0,0,.365-.375V-3.009h-.679a.657.657,0,0,0-.6.286A1.312,1.312,0,0,0,13.251-2a.919.919,0,0,0,.159.559A.507.507,0,0,0,13.841-1.225ZM17.421-3.4A5.013,5.013,0,0,1,18.018-6,1.867,1.867,0,0,1,19.7-7a1.4,1.4,0,0,1,.724.19A1.9,1.9,0,0,1,21-6.259V-9.9h1.8V0H21.236l-.121-.749a2.019,2.019,0,0,1-.619.657,1.458,1.458,0,0,1-.8.225A1.882,1.882,0,0,1,18.015-.8a4.531,4.531,0,0,1-.594-2.466Zm1.8.134a3.89,3.89,0,0,0,.213,1.439.737.737,0,0,0,.72.516.9.9,0,0,0,.489-.131A1.078,1.078,0,0,0,21-1.817V-4.949a1.272,1.272,0,0,0-.355-.446.766.766,0,0,0-.476-.159.764.764,0,0,0-.724.592A4.553,4.553,0,0,0,19.224-3.4ZM27.323,0a3.082,3.082,0,0,1-.136-.375,3.057,3.057,0,0,1-.092-.413,2.147,2.147,0,0,1-.619.67,1.46,1.46,0,0,1-.847.251,1.756,1.756,0,0,1-1.362-.559,2.124,2.124,0,0,1-.511-1.492,1.955,1.955,0,0,1,.651-1.568,2.9,2.9,0,0,1,1.933-.559h.679V-4.6a1.381,1.381,0,0,0-.181-.771.61.61,0,0,0-.543-.27.523.523,0,0,0-.457.216,1.085,1.085,0,0,0-.152.628L23.94-4.805l-.019-.038a1.883,1.883,0,0,1,.663-1.523A2.626,2.626,0,0,1,26.416-7a2.451,2.451,0,0,1,1.742.625,2.317,2.317,0,0,1,.67,1.781v2.78a6.017,6.017,0,0,0,.07.946A5.153,5.153,0,0,0,29.114,0ZM26.149-1.225a.929.929,0,0,0,.5-.146,1.084,1.084,0,0,0,.365-.375V-3.009H26.34a.657.657,0,0,0-.6.286A1.312,1.312,0,0,0,25.559-2a.919.919,0,0,0,.159.559A.507.507,0,0,0,26.149-1.225ZM32.96-1.8a.667.667,0,0,0-.229-.5,3.847,3.847,0,0,0-.876-.524A4.619,4.619,0,0,1,30.3-3.7a1.667,1.667,0,0,1-.517-1.27A1.854,1.854,0,0,1,30.45-6.4,2.533,2.533,0,0,1,32.2-7a2.626,2.626,0,0,1,1.822.609,1.922,1.922,0,0,1,.654,1.555l-.019.038H32.922a1.176,1.176,0,0,0-.178-.686.621.621,0,0,0-.546-.254.685.685,0,0,0-.5.2.638.638,0,0,0-.2.476.638.638,0,0,0,.2.492,4.091,4.091,0,0,0,.882.511,4.278,4.278,0,0,1,1.6.873,1.76,1.76,0,0,1,.521,1.323,1.756,1.756,0,0,1-.7,1.435,2.849,2.849,0,0,1-1.834.559,2.539,2.539,0,0,1-1.879-.692,2.043,2.043,0,0,1-.66-1.562l.013-.038H31.3a1.12,1.12,0,0,0,.254.787.9.9,0,0,0,.667.241.781.781,0,0,0,.552-.178A.636.636,0,0,0,32.96-1.8Z" transform="translate(80 155)" fill="#5e5b5c"/><g transform="translate(-20.371 20.289)"><g transform="translate(92.063 65.378)"><path d="M106.238,160.138a3.958,3.958,0,1,1,3.958-3.958A3.963,3.963,0,0,1,106.238,160.138Zm0-6.011a2.053,2.053,0,1,0,2.052,2.052A2.055,2.055,0,0,0,106.238,154.127Z" transform="translate(-102.28 -152.221)" fill="#5e5b5c"/></g><g transform="translate(98.953 55.702)"><path d="M129.6,132.322a5.424,5.424,0,1,1,5.425-5.424A5.431,5.431,0,0,1,129.6,132.322Zm0-8.943a3.519,3.519,0,1,0,3.519,3.519A3.523,3.523,0,0,0,129.6,123.379Z" transform="translate(-124.176 -121.473)" fill="#5e5b5c"/></g><path d="M114.109,69.988c.043-.263.084-.8.084-.8v0c0-.108.008-.215.008-.323V54.819q0-.692-.066-1.379v-.013a14.67,14.67,0,0,0-1.815-5.794l-4.81-8.54h0l-.881-1.565a15.793,15.793,0,0,1-1.59-4.048,2.329,2.329,0,0,0,1.541-2.193V27.761a2.261,2.261,0,0,0-2.261-2.261h-7a2.324,2.324,0,0,0-2.324,2.324v3.451a2.325,2.325,0,0,0,1.541,2.189,15.74,15.74,0,0,1-1.59,4.04l-.882,1.563L89.253,47.59a14.611,14.611,0,0,0-1.815,5.782v.013q-.065.685-.066,1.376V68.824s.082.869.127,1.14l1.315,7.482a12.827,12.827,0,0,1-.556,6.338,15.883,15.883,0,0,0-.886,4.988v.991a15.444,15.444,0,0,0,1.907,7.26L89.93,98.2a4.973,4.973,0,0,0,4.092,2.509H96.43a3.409,3.409,0,0,0,2.43-1.332A.655.655,0,0,1,99.5,99.1h2.665a.655.655,0,0,1,.641.281,6.014,6.014,0,0,0,2.43,1.332h2.437a4.551,4.551,0,0,0,3.991-2.365l.741-1.353a14.6,14.6,0,0,0,1.8-7.015V88.653a14.34,14.34,0,0,0-.834-4.769,12.958,12.958,0,0,1-.567-6.377ZM97.341,27.809a.11.11,0,0,1,.11-.11h6.818a.11.11,0,0,1,.11.11v3.445a.11.11,0,0,1-.11.11H97.451a.11.11,0,0,1-.11-.11Zm1.567,5.9h3.851a17.619,17.619,0,0,0,1.842,4.838H97.066A17.622,17.622,0,0,0,98.907,33.71ZM112,55.995V67.179l-.173,3.05-1.207,6.855a15,15,0,0,0,.623,7.339A13.258,13.258,0,0,1,112,88.758v.982a12.787,12.787,0,0,1-1.6,6.179l-.652,1.177a2.463,2.463,0,0,1-2.154,1.269h-2.326a.785.785,0,0,1-.638-.323,3.111,3.111,0,0,0-2.518-1.29H99.574a2.708,2.708,0,0,0-2.284,1.236.82.82,0,0,1-.689.377H94.07a2.463,2.463,0,0,1-2.155-1.271l-.7-1.258a13.23,13.23,0,0,1-1.649-6.388v-.69a13.255,13.255,0,0,1,.757-4.337,15,15,0,0,0,.621-7.349l-1.231-6.856-.147-2.639V55.995h0V54.841l.165-.165h3.034a1.132,1.132,0,0,0,1.139-.967,1.1,1.1,0,0,0-1.1-1.233H89.788a12.386,12.386,0,0,1,1.382-3.72l4.554-8.009h10.219l4.554,8.009a12.378,12.378,0,0,1,1.382,3.72H98a1.132,1.132,0,0,0-1.139.966,1.1,1.1,0,0,0,1.1,1.233h13.877l.165.165Z" transform="translate(0)" fill="#5e5b5c"/><g transform="translate(90.157 75.347)"><rect width="21.552" height="1.906" transform="translate(0)" fill="#5e5b5c"/></g></g></g></svg>