<svg xmlns="http://www.w3.org/2000/svg" xmlns:xlink="http://www.w3.org/1999/xlink" width="160" height="190" viewBox="0 0 160 190"><defs><clipPath id="b"><rect width="160" height="190"/></clipPath></defs><g id="a" clip-path="url(#b)"><path d="M14,0H114a14,14,0,0,1,14,14V141a14,14,0,0,1-14,14H14A14,14,0,0,1,0,141V14A14,14,0,0,1,14,0Z" transform="translate(16 18)" fill="none" opacity="0.93"/><path d="M-36.378,0h-1.8L-41-5.91l-.038.013V0h-1.809V-9.242h1.809l2.825,5.9.038-.013V-9.242h1.8ZM-35.3-3.853a3.415,3.415,0,0,1,.733-2.263A2.526,2.526,0,0,1-32.513-7a2.536,2.536,0,0,1,2.057.879,3.4,3.4,0,0,1,.736,2.263V-3a3.387,3.387,0,0,1-.736,2.266,2.541,2.541,0,0,1-2.05.87,2.546,2.546,0,0,1-2.06-.87A3.4,3.4,0,0,1-35.3-3Zm1.8.848a2.867,2.867,0,0,0,.222,1.246.791.791,0,0,0,.774.451.782.782,0,0,0,.759-.455,2.835,2.835,0,0,0,.225-1.243v-.852a2.843,2.843,0,0,0-.225-1.237.785.785,0,0,0-.765-.461.785.785,0,0,0-.765.464A2.847,2.847,0,0,0-33.5-3.857Zm13.5.028.019.038a3.177,3.177,0,0,1-.724,2.3,2.857,2.857,0,0,1-2.171.774,3.054,3.054,0,0,1-2.292-.879,3.422,3.422,0,0,1-.857-2.491V-6A3.508,3.508,0,0,1-25.2-8.49a2.893,2.893,0,0,1,2.219-.885,2.937,2.937,0,0,1,2.225.787,3.334,3.334,0,0,1,.778,2.33L-20-6.221h-1.739a2.157,2.157,0,0,0-.248-1.312,1.14,1.14,0,0,0-1-.4,1.059,1.059,0,0,0-.933.477,2.589,2.589,0,0,0-.324,1.442v2.777A2.483,2.483,0,0,0-23.9-1.784a1.172,1.172,0,0,0,1.012.477,1.023,1.023,0,0,0,.911-.378,2.256,2.256,0,0,0,.225-1.292ZM-15.666,0A3.082,3.082,0,0,1-15.8-.375a3.057,3.057,0,0,1-.092-.413,2.147,2.147,0,0,1-.619.67,1.46,1.46,0,0,1-.847.251,1.756,1.756,0,0,1-1.362-.559,2.124,2.124,0,0,1-.511-1.492,1.955,1.955,0,0,1,.651-1.568,2.9,2.9,0,0,1,1.933-.559h.679V-4.6a1.381,1.381,0,0,0-.181-.771.61.61,0,0,0-.543-.27.523.523,0,0,0-.457.216A1.085,1.085,0,0,0-17.3-4.8l-1.746-.006-.019-.038a1.883,1.883,0,0,1,.663-1.523A2.626,2.626,0,0,1-16.574-7a2.451,2.451,0,0,1,1.742.625,2.317,2.317,0,0,1,.67,1.781v2.78a6.016,6.016,0,0,0,.07.946A5.153,5.153,0,0,0-13.876,0ZM-16.84-1.225a.929.929,0,0,0,.5-.146,1.084,1.084,0,0,0,.365-.375V-3.009h-.679a.657.657,0,0,0-.6.286A1.312,1.312,0,0,0-17.431-2a.919.919,0,0,0,.159.559A.507.507,0,0,0-16.84-1.225Zm7.065-4-.679-.019a.769.769,0,0,0-.473.14.887.887,0,0,0-.289.394V0h-1.8V-6.868h1.682l.07.92.032.013a1.873,1.873,0,0,1,.46-.778A.965.965,0,0,1-10.086-7a1.6,1.6,0,0,1,.257.022,1.746,1.746,0,0,1,.238.054Zm6.3,2.317A3.812,3.812,0,0,1-4.053-.692,1.923,1.923,0,0,1-5.738.133a1.564,1.564,0,0,1-.841-.222,1.865,1.865,0,0,1-.613-.647L-7.3,0H-8.861V-9.9h1.8v3.618a1.739,1.739,0,0,1,.568-.527A1.481,1.481,0,0,1-5.751-7a1.912,1.912,0,0,1,1.695.86A4.055,4.055,0,0,1-3.479-3.84Zm-1.8-.937a3.188,3.188,0,0,0-.2-1.259.737.737,0,0,0-.74-.451.854.854,0,0,0-.5.146,1.077,1.077,0,0,0-.343.413v3.21a.854.854,0,0,0,.34.353,1.041,1.041,0,0,0,.511.118.741.741,0,0,0,.74-.4A2.857,2.857,0,0,0-5.275-2.91Zm2.514-.009a3.415,3.415,0,0,1,.733-2.263A2.526,2.526,0,0,1,.025-7a2.536,2.536,0,0,1,2.057.879,3.4,3.4,0,0,1,.736,2.263V-3A3.387,3.387,0,0,1,2.082-.736a2.541,2.541,0,0,1-2.05.87,2.546,2.546,0,0,1-2.06-.87A3.4,3.4,0,0,1-2.761-3Zm1.8.848A2.867,2.867,0,0,0-.743-1.759a.791.791,0,0,0,.774.451A.782.782,0,0,0,.79-1.762a2.835,2.835,0,0,0,.225-1.243v-.852A2.843,2.843,0,0,0,.79-5.093a.785.785,0,0,0-.765-.461A.785.785,0,0,0-.74-5.09,2.847,2.847,0,0,0-.965-3.857ZM5.421-6.868l.076.946a2.289,2.289,0,0,1,.7-.79A1.6,1.6,0,0,1,7.116-7a1.591,1.591,0,0,1,1.349.66,3.5,3.5,0,0,1,.492,2.076V0H7.147V-4.264a1.842,1.842,0,0,0-.2-1,.7.7,0,0,0-.619-.289.822.822,0,0,0-.444.127,1.083,1.083,0,0,0-.343.349V0h-1.8V-6.868ZM13.432,0A3.082,3.082,0,0,1,13.3-.375,3.057,3.057,0,0,1,13.2-.787a2.147,2.147,0,0,1-.619.67,1.46,1.46,0,0,1-.847.251,1.756,1.756,0,0,1-1.362-.559,2.124,2.124,0,0,1-.511-1.492,1.955,1.955,0,0,1,.651-1.568,2.9,2.9,0,0,1,1.933-.559h.679V-4.6a1.381,1.381,0,0,0-.181-.771.61.61,0,0,0-.543-.27.523.523,0,0,0-.457.216,1.085,1.085,0,0,0-.152.628l-1.746-.006-.019-.038a1.883,1.883,0,0,1,.663-1.523A2.626,2.626,0,0,1,12.524-7a2.451,2.451,0,0,1,1.742.625,2.317,2.317,0,0,1,.67,1.781v2.78a6.016,6.016,0,0,0,.07.946A5.153,5.153,0,0,0,15.222,0ZM12.257-1.225a.929.929,0,0,0,.5-.146,1.084,1.084,0,0,0,.365-.375V-3.009h-.679a.657.657,0,0,0-.6.286A1.312,1.312,0,0,0,11.667-2a.919.919,0,0,0,.159.559A.507.507,0,0,0,12.257-1.225Zm5.967-7.351v1.708h.952v1.308h-.952v3.447a1.122,1.122,0,0,0,.121.6.377.377,0,0,0,.33.181,2.076,2.076,0,0,0,.279-.016,2.043,2.043,0,0,0,.254-.054l.14,1.371A3.6,3.6,0,0,1,18.8.1a4.109,4.109,0,0,1-.59.038A1.656,1.656,0,0,1,16.882-.4a2.589,2.589,0,0,1-.46-1.7V-5.561h-.812V-6.868h.813V-8.576ZM23.537,0A3.082,3.082,0,0,1,23.4-.375a3.057,3.057,0,0,1-.092-.413,2.147,2.147,0,0,1-.619.67,1.46,1.46,0,0,1-.847.251,1.756,1.756,0,0,1-1.362-.559,2.124,2.124,0,0,1-.511-1.492,1.955,1.955,0,0,1,.651-1.568,2.9,2.9,0,0,1,1.933-.559h.679V-4.6a1.381,1.381,0,0,0-.181-.771.61.61,0,0,0-.543-.27.523.523,0,0,0-.457.216A1.085,1.085,0,0,0,21.9-4.8l-1.746-.006-.019-.038A1.883,1.883,0,0,1,20.8-6.367,2.626,2.626,0,0,1,22.629-7a2.451,2.451,0,0,1,1.742.625,2.317,2.317,0,0,1,.67,1.781v2.78a6.017,6.017,0,0,0,.07.946A5.153,5.153,0,0,0,25.327,0ZM22.363-1.225a.929.929,0,0,0,.5-.146,1.084,1.084,0,0,0,.365-.375V-3.009h-.679a.657.657,0,0,0-.6.286A1.312,1.312,0,0,0,21.772-2a.919.919,0,0,0,.159.559A.507.507,0,0,0,22.363-1.225ZM25.943-3.4A5.013,5.013,0,0,1,26.54-6,1.867,1.867,0,0,1,28.222-7a1.4,1.4,0,0,1,.724.19,1.9,1.9,0,0,1,.578.546V-9.9h1.8V0H29.758l-.121-.749a2.019,2.019,0,0,1-.619.657,1.458,1.458,0,0,1-.8.225A1.882,1.882,0,0,1,26.536-.8a4.531,4.531,0,0,1-.594-2.466Zm1.8.134a3.89,3.89,0,0,0,.213,1.439.737.737,0,0,0,.72.516.9.9,0,0,0,.489-.131,1.078,1.078,0,0,0,.355-.379V-4.949a1.272,1.272,0,0,0-.355-.446.766.766,0,0,0-.476-.159.764.764,0,0,0-.724.592A4.553,4.553,0,0,0,27.746-3.4ZM35.845,0a3.082,3.082,0,0,1-.136-.375,3.057,3.057,0,0,1-.092-.413A2.147,2.147,0,0,1,35-.117a1.46,1.46,0,0,1-.847.251,1.756,1.756,0,0,1-1.362-.559,2.124,2.124,0,0,1-.511-1.492,1.955,1.955,0,0,1,.651-1.568,2.9,2.9,0,0,1,1.933-.559h.679V-4.6a1.381,1.381,0,0,0-.181-.771.61.61,0,0,0-.543-.27.523.523,0,0,0-.457.216,1.085,1.085,0,0,0-.152.628l-1.746-.006-.019-.038a1.883,1.883,0,0,1,.663-1.523A2.626,2.626,0,0,1,34.938-7a2.451,2.451,0,0,1,1.742.625,2.317,2.317,0,0,1,.67,1.781v2.78a6.016,6.016,0,0,0,.07.946A5.153,5.153,0,0,0,37.635,0ZM34.671-1.225a.929.929,0,0,0,.5-.146,1.084,1.084,0,0,0,.365-.375V-3.009h-.679a.657.657,0,0,0-.6.286A1.312,1.312,0,0,0,34.081-2a.919.919,0,0,0,.159.559A.507.507,0,0,0,34.671-1.225ZM41.482-1.8a.667.667,0,0,0-.229-.5,3.847,3.847,0,0,0-.876-.524A4.619,4.619,0,0,1,38.825-3.7a1.667,1.667,0,0,1-.517-1.27A1.854,1.854,0,0,1,38.971-6.4,2.533,2.533,0,0,1,40.727-7a2.626,2.626,0,0,1,1.822.609A1.922,1.922,0,0,1,43.2-4.831l-.019.038H41.444a1.176,1.176,0,0,0-.178-.686.621.621,0,0,0-.546-.254.685.685,0,0,0-.5.2.638.638,0,0,0-.2.476.638.638,0,0,0,.2.492,4.091,4.091,0,0,0,.882.511,4.278,4.278,0,0,1,1.6.873,1.76,1.76,0,0,1,.521,1.323,1.756,1.756,0,0,1-.7,1.435,2.849,2.849,0,0,1-1.834.559,2.539,2.539,0,0,1-1.879-.692,2.043,2.043,0,0,1-.66-1.562l.013-.038h1.65a1.12,1.12,0,0,0,.254.787.9.9,0,0,0,.667.241.781.781,0,0,0,.552-.178A.636.636,0,0,0,41.482-1.8Z" transform="translate(80 155)" fill="#5e5b5c"/><g transform="translate(-16.549 20.5)"><circle cx="1.302" cy="1.302" r="1.302" transform="translate(87.555 91.93)" fill="#5e5b5c"/><path d="M111.957,53V48.771a11.092,11.092,0,0,0-4.392-8.8,7.56,7.56,0,0,1-2.552-6.059v-.076h.955a1.306,1.306,0,0,0,1.3-1.3V26.8a1.306,1.306,0,0,0-1.3-1.3H87.392a1.306,1.306,0,0,0-1.3,1.3v5.729a1.306,1.306,0,0,0,1.3,1.3H88.4a9.282,9.282,0,0,1-3.412,6.832c-.017.018-.034.035-.051.035a10.078,10.078,0,0,0-3.361,8.17v4.068a1.327,1.327,0,0,0,.41.956l2.542,2.434V75.607L81.985,78.04a1.327,1.327,0,0,0-.41.956V99.2a1.306,1.306,0,0,0,1.3,1.3h27.778a1.306,1.306,0,0,0,1.3-1.3V79.024a1.3,1.3,0,0,0-.423-.955l-2.875-2.656V56.42l2.84-2.43h0A1.321,1.321,0,0,0,111.957,53ZM88.694,28.1h15.972v3.125H88.694Zm20.66,24.239-2.84,2.433a1.322,1.322,0,0,0-.459.991v20.2a1.376,1.376,0,0,0,.423.956h0l2.875,2.659V97.9H84.18V79.578l2.542-2.433a1.327,1.327,0,0,0,.41-.956V55.767a1.327,1.327,0,0,0-.41-.956L84.18,52.378V48.71A7.36,7.36,0,0,1,86.7,42.628a11.829,11.829,0,0,0,4.282-8.794H102.3a10.088,10.088,0,0,0,3.475,8.116c.035.035.07.052.106.087a8.39,8.39,0,0,1,3.475,6.778Z" transform="translate(0 0)" fill="#5e5b5c"/><path d="M103.048,212.281v-5.554a1.334,1.334,0,0,0-.978-1.306,1.308,1.308,0,0,0-1.626,1.262v5.642a1.308,1.308,0,0,0,1.626,1.262A1.334,1.334,0,0,0,103.048,212.281Z" transform="translate(-12.966 -123.433)" fill="#5e5b5c"/></g></g></svg>