<svg xmlns="http://www.w3.org/2000/svg" width="1397.419" height="476.998" viewBox="0 0 1397.419 476.998">
  <g id="Grupo_1754" data-name="Grupo 1754" transform="translate(9.477 -224.333)">
    <rect id="Rect치ngulo_3110" data-name="Rect치ngulo 3110" width="1397.419" height="267.475" transform="translate(-9.477 433.856)" fill="#5c9f33"/>
    <rect id="Rect치ngulo_3111" data-name="Rect치ngulo 3111" width="1393.87" height="355.763" transform="translate(-7.2 224.333)" fill="#00893a"/>
    <g id="Grupo_1752" data-name="Grupo 1752" transform="translate(233.933 276.808)">
      <path id="Trazado_7991" data-name="Trazado 7991" d="M63.325,242.9l11.154.03q10.131,0,10.134,11.157v8.616q0,8.235-7.3,10.6a17.845,17.845,0,0,1-5.259.585h-2.22v24.564h-6.51Zm6.51,6.4v18.165H72.61a8.721,8.721,0,0,0,2.688-.291,4.369,4.369,0,0,0,2.8-4.467v-8.616q0-4.789-4.467-4.791Z" transform="translate(-63.325 -233.293)" fill="#fff"/>
      <path id="Trazado_7992" data-name="Trazado 7992" d="M70.99,242.9l11.157.03q10.136,0,10.134,11.157v8.616q0,6.951-6.747,9.432l9.171,26.316H87.52L80.044,273.16l-2.541.351v24.942H70.99Zm6.513,6.4v18.165h2.772a8.707,8.707,0,0,0,2.688-.291,4.367,4.367,0,0,0,2.805-4.467v-8.616q0-4.789-4.47-4.791Z" transform="translate(-45.363 -233.293)" fill="#fff"/>
      <path id="Trazado_7993" data-name="Trazado 7993" d="M78.987,242.9H85.5v55.551H78.987Z" transform="translate(-26.622 -233.293)" fill="#fff"/>
      <path id="Trazado_7994" data-name="Trazado 7994" d="M99.826,284.929,110.134,242.9h6.69v55.551h-6.165V259.111l-8.643,39.342H97.81l-8.847-39.138v39.138H82.714V242.9h6.717Z" transform="translate(-17.888 -233.293)" fill="#fff"/>
      <path id="Trazado_7995" data-name="Trazado 7995" d="M94.65,242.9h19.686v6.4H101.163v18.165h11.331v6.426H101.163v18.165h13.173v6.4H94.65Z" transform="translate(10.083 -233.293)" fill="#fff"/>
      <path id="Trazado_7996" data-name="Trazado 7996" d="M101.836,242.9l11.154.03q10.131,0,10.134,11.157v8.616q0,6.951-6.747,9.432l9.174,26.316h-7.188l-7.476-25.293-2.541.351v24.942h-6.51Zm6.51,6.4v18.165h2.775a8.722,8.722,0,0,0,2.688-.291,4.373,4.373,0,0,0,2.8-4.467v-8.616q0-4.789-4.467-4.791Z" transform="translate(26.923 -233.293)" fill="#fff"/>
      <path id="Trazado_7997" data-name="Trazado 7997" d="M132.8,279.115l2.568,19.338h-6.6l-1.608-12.15h-9.957l-1.635,12.15H109l2.541-19.248,5.721-36.3h9.843Zm-6.483.762-4.146-31.395-4.149,31.395Z" transform="translate(43.719 -233.293)" fill="#fff"/>
      <path id="Trazado_7998" data-name="Trazado 7998" d="M121.739,242.9h19.686v6.4H128.252v18.165h11.331v6.426H128.252v18.165h13.173v6.4H121.739Z" transform="translate(73.565 -233.293)" fill="#fff"/>
      <path id="Trazado_7999" data-name="Trazado 7999" d="M146.037,284.929,156.345,242.9h6.69v55.551H156.87V259.111l-8.643,39.342h-4.206l-8.847-39.138v39.138h-6.249V242.9h6.714Z" transform="translate(90.405 -233.293)" fill="#fff"/>
      <path id="Trazado_8000" data-name="Trazado 8000" d="M140.861,242.9l11.157.03q10.136,0,10.134,11.157v8.616q0,8.235-7.3,10.6a17.819,17.819,0,0,1-5.256.585h-2.22v24.564h-6.513Zm6.513,6.4v18.165h2.775a8.682,8.682,0,0,0,2.685-.291,4.367,4.367,0,0,0,2.805-4.467v-8.616q0-4.789-4.47-4.791Z" transform="translate(118.376 -233.293)" fill="#fff"/>
      <path id="Trazado_8001" data-name="Trazado 8001" d="M148.527,242.9l11.154.03q10.136,0,10.134,11.157v8.616q0,6.951-6.744,9.432l9.171,26.316h-7.185l-7.479-25.293-2.541.351v24.942h-6.51Zm6.51,6.4v18.165h2.778a8.7,8.7,0,0,0,2.685-.291,4.369,4.369,0,0,0,2.8-4.467v-8.616q0-4.789-4.467-4.791Z" transform="translate(136.341 -233.293)" fill="#fff"/>
      <path id="Trazado_8002" data-name="Trazado 8002" d="M156.48,242.9h19.686v6.4H163v18.165h11.328v6.426H163v18.165h13.17v6.4H156.48Z" transform="translate(154.978 -233.293)" fill="#fff"/>
      <path id="Trazado_8003" data-name="Trazado 8003" d="M163.491,253.789q0-11.159,10.98-11.157,11.013,0,11.01,11.157v6.834h-6.513v-6.834q0-4.734-4.467-4.761h-.06q-4.438,0-4.44,4.761v5.2q0,4.263,8.121,10.077,7.362,5.256,7.359,12.528v7.242q0,11.189-10.98,11.187-11.008-.03-11.01-11.187V282H170v6.834q0,4.759,4.5,4.761,4.469,0,4.467-4.761v-6.54q0-4.589-8.118-10.4-7.362-5.256-7.359-12.735Z" transform="translate(171.408 -233.926)" fill="#fff"/>
      <path id="Trazado_8004" data-name="Trazado 8004" d="M194.644,279.115l2.571,19.338h-6.6l-1.608-12.15h-9.96l-1.635,12.15h-6.57l2.538-19.248,5.724-36.3h9.846Zm-6.486.762-4.146-31.395-4.146,31.395Z" transform="translate(188.635 -233.293)" fill="#fff"/>
      <path id="Trazado_8005" data-name="Trazado 8005" d="M183.578,242.9h19.683v6.4H190.088v18.165h11.334v6.426H190.088v18.165h13.173v6.4H183.578Z" transform="translate(218.481 -233.293)" fill="#fff"/>
      <path id="Trazado_8006" data-name="Trazado 8006" d="M190.764,242.9h6.687l9.4,39.894V243.019l5.9-.087v55.521h-6.687l-9.114-38.9v38.9h-6.189Z" transform="translate(235.321 -233.293)" fill="#fff"/>
      <path id="Trazado_8007" data-name="Trazado 8007" d="M202.976,298.453V242.9h6.513v49.152h13.17v6.4Z" transform="translate(263.939 -233.293)" fill="#fff"/>
      <path id="Trazado_8008" data-name="Trazado 8008" d="M232.827,279.115l2.571,19.338h-6.6l-1.6-12.15h-9.96l-1.635,12.15h-6.57l2.541-19.248,5.724-36.3h9.84Zm-6.483.762L222.2,248.482l-4.149,31.395Z" transform="translate(278.115 -233.293)" fill="#fff"/>
      <path id="Trazado_8009" data-name="Trazado 8009" d="M221.763,242.9l11.154.03q10.136,0,10.134,11.157v8.616q0,6.951-6.747,9.432l9.171,26.316H238.29l-7.473-25.293-2.544.351v24.942h-6.51Zm6.51,6.4v18.165h2.775a8.707,8.707,0,0,0,2.688-.291,4.369,4.369,0,0,0,2.8-4.467v-8.616q0-4.789-4.467-4.791Z" transform="translate(307.965 -233.293)" fill="#fff"/>
      <path id="Trazado_8010" data-name="Trazado 8010" d="M229.716,242.9H249.4v6.4h-13.17v18.165H247.56v6.426H236.226v18.165H249.4v6.4h-19.68Z" transform="translate(326.603 -233.293)" fill="#fff"/>
      <path id="Trazado_8011" data-name="Trazado 8011" d="M258.719,288.832q0,11.159-11.01,11.187-10.983,0-10.983-11.187V253.789q0-11.159,10.983-11.157,11.008,0,11.01,11.157v6.834h-6.513v-6.834q0-4.734-4.47-4.761h-.057q-4.438,0-4.437,4.761v35.043q0,4.759,4.467,4.761,4.494,0,4.5-4.761v-14.31h-4.179V268.1h10.692Z" transform="translate(343.03 -233.926)" fill="#fff"/>
      <path id="Trazado_8012" data-name="Trazado 8012" d="M244.907,242.9h6.51v55.551h-6.51Z" transform="translate(362.202 -233.293)" fill="#fff"/>
      <path id="Trazado_8013" data-name="Trazado 8013" d="M270.539,294.934q0,11.159-11.01,11.187-10.988,0-10.983-11.187V259.891q0-11.159,10.983-11.157,11.008,0,11.01,11.157Zm-6.513-35.043q0-4.734-4.47-4.761H259.5q-4.443,0-4.44,4.761v35.043q0,4.759,4.47,4.761,4.494,0,4.5-4.761Zm4.293-18.984-7.389,4.761h-3.975l6.108-5.64h5.256Z" transform="translate(370.73 -240.028)" fill="#fff"/>
      <path id="Trazado_8014" data-name="Trazado 8014" d="M257.295,242.9h6.687l9.4,39.894V243.019l5.9-.087v55.521H272.6l-9.114-38.9v38.9h-6.189Z" transform="translate(391.233 -233.293)" fill="#fff"/>
      <path id="Trazado_8015" data-name="Trazado 8015" d="M63.325,267.728H83.008v6.4H69.835v18.162H81.169v6.426H69.835v18.168H83.008v6.4H63.325Z" transform="translate(-63.325 -175.115)" fill="#fff"/>
      <path id="Trazado_8016" data-name="Trazado 8016" d="M70.51,267.728H77.2l9.4,39.894V267.848l5.9-.09v55.521H85.813l-9.114-38.9v38.9H70.51Z" transform="translate(-46.487 -175.115)" fill="#fff"/>
      <path id="Trazado_8017" data-name="Trazado 8017" d="M82.723,267.728h19.683v6.4H89.236v18.162h11.328v6.426H89.236v24.564H82.723Z" transform="translate(-17.867 -175.115)" fill="#fff"/>
      <path id="Trazado_8018" data-name="Trazado 8018" d="M89.776,267.728h6.513v55.551H89.776Z" transform="translate(-1.339 -175.115)" fill="#fff"/>
      <path id="Trazado_8019" data-name="Trazado 8019" d="M93.5,267.728l11.154.03q10.131,0,10.134,11.157v8.616q0,6.951-6.747,9.435l9.174,26.313H110.03l-7.476-25.293-2.541.351v24.942H93.5Zm6.51,6.4v18.162h2.775a8.725,8.725,0,0,0,2.688-.291,4.373,4.373,0,0,0,2.8-4.467v-8.616q0-4.79-4.467-4.788Z" transform="translate(7.395 -175.115)" fill="#fff"/>
      <path id="Trazado_8020" data-name="Trazado 8020" d="M118.568,309.755l10.308-42.027h6.69v55.551H129.4V283.937l-8.643,39.342h-4.2l-8.85-39.135v39.135h-6.249V267.728h6.717Z" transform="translate(26.033 -175.115)" fill="#fff"/>
      <path id="Trazado_8021" data-name="Trazado 8021" d="M136.408,303.941l2.571,19.338h-6.6l-1.6-12.15h-9.963l-1.632,12.15h-6.573l2.541-19.248,5.724-36.3h9.843Zm-6.483.762-4.146-31.395L121.633,304.7Z" transform="translate(52.162 -175.115)" fill="#fff"/>
      <path id="Trazado_8022" data-name="Trazado 8022" d="M121.442,267.728l11.157.03q10.136,0,10.134,11.157v8.616q0,6.951-6.747,9.435l9.171,26.313h-7.182L130.5,297.986l-2.541.351v24.942h-6.513Zm6.513,6.4v18.162h2.775a8.686,8.686,0,0,0,2.685-.291,4.367,4.367,0,0,0,2.805-4.467v-8.616q0-4.79-4.47-4.788Z" transform="translate(72.869 -175.115)" fill="#fff"/>
      <path id="Trazado_8023" data-name="Trazado 8023" d="M133.3,267.728H152.98v6.4H139.81v18.162h11.331v6.426H139.81v18.168h13.17v6.4H133.3Z" transform="translate(100.65 -175.115)" fill="#fff"/>
      <path id="Trazado_8024" data-name="Trazado 8024" d="M140.482,323.279V267.728H147v49.155h13.17v6.4Z" transform="translate(117.488 -175.115)" fill="#fff"/>
      <path id="Trazado_8025" data-name="Trazado 8025" d="M173.034,313.658q0,11.159-11.01,11.187-10.978,0-10.98-11.187V278.615q0-11.159,10.98-11.157,11.008,0,11.01,11.157v6.834h-6.513v-6.834q0-4.734-4.467-4.761h-.06q-4.443,0-4.44,4.761v35.043q0,4.764,4.47,4.761,4.494,0,4.5-4.761v-6.834h6.513Z" transform="translate(142.239 -175.747)" fill="#fff"/>
      <path id="Trazado_8026" data-name="Trazado 8026" d="M180.909,313.658q0,11.159-11.01,11.187-10.978,0-10.98-11.187V278.615q0-11.159,10.98-11.157,11.008,0,11.01,11.157ZM174.4,278.615q0-4.734-4.467-4.761h-.06q-4.443,0-4.44,4.761v35.043q0,4.764,4.47,4.761,4.494,0,4.5-4.761Z" transform="translate(160.694 -175.747)" fill="#fff"/>
      <path id="Trazado_8027" data-name="Trazado 8027" d="M184.171,309.755l10.308-42.027h6.687v55.551h-6.159V283.937l-8.65,39.342h-4.206L173.3,284.144v39.135h-6.249V267.728h6.714Z" transform="translate(179.763 -175.115)" fill="#fff"/>
      <path id="Trazado_8028" data-name="Trazado 8028" d="M178.992,267.728l11.157.03q10.131,0,10.131,11.157v8.616q0,8.235-7.3,10.6a17.846,17.846,0,0,1-5.259.585H185.5v24.564h-6.51Zm6.51,6.4v18.162h2.775a8.71,8.71,0,0,0,2.688-.291,4.367,4.367,0,0,0,2.805-4.467v-8.616q0-4.79-4.47-4.788Z" transform="translate(207.734 -175.115)" fill="#fff"/>
      <path id="Trazado_8029" data-name="Trazado 8029" d="M186.658,267.728l11.157.03q10.131,0,10.131,11.157v8.616q0,6.951-6.744,9.435l9.171,26.313h-7.188l-7.473-25.293-2.544.351v24.942h-6.51Zm6.51,6.4v18.162h2.775a8.711,8.711,0,0,0,2.688-.291,4.367,4.367,0,0,0,2.805-4.467v-8.616q0-4.79-4.47-4.788Z" transform="translate(225.699 -175.115)" fill="#fff"/>
      <path id="Trazado_8030" data-name="Trazado 8030" d="M216.429,313.658q0,11.159-11.01,11.187-10.983,0-10.983-11.187V278.615q0-11.159,10.983-11.157,11.008,0,11.01,11.157Zm-6.513-35.043q0-4.734-4.47-4.761h-.057q-4.438,0-4.437,4.761v35.043q0,4.764,4.467,4.761,4.494,0,4.5-4.761Z" transform="translate(243.926 -175.747)" fill="#fff"/>
      <path id="Trazado_8031" data-name="Trazado 8031" d="M219.686,309.755,230,267.728h6.687v55.551h-6.162V283.937l-8.643,39.342h-4.206l-8.85-39.135v39.135h-6.249V267.728h6.717Z" transform="translate(262.997 -175.115)" fill="#fff"/>
      <path id="Trazado_8032" data-name="Trazado 8032" d="M214.555,267.728h6.51v55.551h-6.51Z" transform="translate(291.074 -175.115)" fill="#fff"/>
      <path id="Trazado_8033" data-name="Trazado 8033" d="M218.1,278.615q0-11.159,10.98-11.157,11.013,0,11.01,11.157v6.834h-6.51v-6.834q0-4.734-4.47-4.761h-.057q-4.438,0-4.437,4.761v5.2q0,4.258,8.115,10.074,7.362,5.256,7.359,12.528v7.242q0,11.189-10.98,11.187-11.008-.03-11.01-11.187v-6.834h6.516v6.834q0,4.764,4.494,4.761,4.469,0,4.47-4.761v-6.54q0-4.589-8.121-10.4-7.357-5.256-7.359-12.735Z" transform="translate(299.393 -175.747)" fill="#fff"/>
      <path id="Trazado_8034" data-name="Trazado 8034" d="M248.058,313.658q0,11.159-11.01,11.187-10.978,0-10.98-11.187V278.615q0-11.159,10.98-11.157,11.013,0,11.01,11.157Zm-6.51-35.043q0-4.734-4.47-4.761h-.057q-4.438,0-4.44,4.761v35.043q0,4.764,4.467,4.761,4.5,0,4.5-4.761Z" transform="translate(318.054 -175.747)" fill="#fff"/>
      <path id="Trazado_8035" data-name="Trazado 8035" d="M259.924,313.658q0,11.159-11.01,11.187-10.983,0-10.983-11.187V278.615q0-11.159,10.983-11.157,11.008,0,11.01,11.157v6.834h-6.513v-6.834q0-4.734-4.47-4.761h-.057q-4.438,0-4.437,4.761v35.043q0,4.764,4.467,4.761,4.494,0,4.5-4.761v-14.31h-4.179v-6.426h10.692Z" transform="translate(345.854 -175.747)" fill="#fff"/>
      <path id="Trazado_8036" data-name="Trazado 8036" d="M246.068,323.279V267.728h6.51v49.155h13.173v6.4Z" transform="translate(364.923 -175.115)" fill="#fff"/>
      <path id="Trazado_8037" data-name="Trazado 8037" d="M274.719,313.658q0,11.159-11.007,11.187-10.983,0-10.983-11.187V278.615q0-11.159,10.983-11.157,11.008,0,11.007,11.157Zm-6.51-35.043q0-4.734-4.47-4.761h-.057q-4.438,0-4.437,4.761v35.043q0,4.764,4.467,4.761,4.494,0,4.5-4.761Z" transform="translate(380.532 -175.747)" fill="#fff"/>
      <path id="Trazado_8038" data-name="Trazado 8038" d="M260.866,267.728l11.856.03q10.131,0,10.134,11.157v8.616q0,5.111-5.547,7.971,5.542,2.864,5.547,7.974v8.646q0,11.129-10.134,11.127c-.137,0-.321.01-.555.03h-11.3Zm6.51,6.4v18.162h3.477a8.726,8.726,0,0,0,2.688-.291,4.369,4.369,0,0,0,2.8-4.467v-8.616q0-4.79-4.467-4.788Zm0,24.588v18.168h4.5q4.469,0,4.467-4.761v-8.646a4.282,4.282,0,0,0-2.8-4.437,7.788,7.788,0,0,0-2.688-.324Z" transform="translate(399.601 -175.115)" fill="#fff"/>
      <path id="Trazado_8039" data-name="Trazado 8039" d="M291.932,303.941l2.568,19.338h-6.6l-1.608-12.15h-9.957l-1.635,12.15h-6.57l2.538-19.248,5.724-36.3h9.843Zm-6.486.762L281.3,273.308,277.154,304.7Z" transform="translate(416.624 -175.115)" fill="#fff"/>
      <path id="Trazado_8040" data-name="Trazado 8040" d="M276.965,323.279V267.728h6.51v49.155h13.17v6.4Z" transform="translate(437.328 -175.115)" fill="#fff"/>
      <path id="Trazado_8041" data-name="Trazado 8041" d="M63.325,292.556l11.154.027q10.131,0,10.134,11.157v8.616q0,8.235-7.3,10.6a17.733,17.733,0,0,1-5.259.585h-2.22V348.1h-6.51Zm6.51,6.4v18.162H72.61a8.725,8.725,0,0,0,2.688-.291,4.366,4.366,0,0,0,2.8-4.467V303.74q0-4.789-4.467-4.788Z" transform="translate(-63.325 -116.932)" fill="#fff"/>
      <path id="Trazado_8042" data-name="Trazado 8042" d="M93.255,328.769,95.826,348.1h-6.6l-1.6-12.15H77.658L76.026,348.1H69.453l2.541-19.248,5.724-36.3h9.843Zm-6.483.759-4.149-31.392-4.146,31.392Z" transform="translate(-48.964 -116.932)" fill="#fff"/>
      <path id="Trazado_8043" data-name="Trazado 8043" d="M78.289,292.556l11.157.027q10.131,0,10.134,11.157v8.616q0,6.951-6.747,9.435L102,348.1H94.819l-7.476-25.293-2.541.351V348.1H78.289Zm6.513,6.4v18.162h2.772a8.711,8.711,0,0,0,2.688-.291,4.364,4.364,0,0,0,2.805-4.467V303.74q0-4.789-4.47-4.788Z" transform="translate(-28.258 -116.932)" fill="#fff"/>
      <path id="Trazado_8044" data-name="Trazado 8044" d="M109.256,328.769l2.571,19.335h-6.6l-1.608-12.15H93.662L92.027,348.1h-6.57L88,328.856l5.724-36.3h9.84Zm-6.48.759-4.149-31.392-4.149,31.392Z" transform="translate(-11.46 -116.932)" fill="#fff"/>
      <path id="Trazado_8045" data-name="Trazado 8045" d="M120.1,337.85q0,11.159-11.01,11.187-10.978,0-10.98-11.187V292.556h6.513V337.85q0,4.764,4.467,4.761,4.5,0,4.5-4.761V292.556H120.1Z" transform="translate(18.182 -116.932)" fill="#fff"/>
      <path id="Trazado_8046" data-name="Trazado 8046" d="M106.33,292.556h6.687l9.4,39.891V292.673l5.9-.09V348.1h-6.687l-9.114-38.9v38.9H106.33Z" transform="translate(37.455 -116.932)" fill="#fff"/>
      <path id="Trazado_8047" data-name="Trazado 8047" d="M137.655,328.769l2.571,19.335h-6.6l-1.6-12.15h-9.96l-1.635,12.15h-6.57l2.541-19.248,5.724-36.3h9.84Zm-6.48.759-4.146-31.392-4.149,31.392Z" transform="translate(55.091 -116.932)" fill="#fff"/>
      <path id="Trazado_8048" data-name="Trazado 8048" d="M126.593,292.556h6.687l9.4,39.891V292.673l5.9-.09V348.1H141.9l-9.114-38.9v38.9h-6.189Z" transform="translate(84.94 -116.932)" fill="#fff"/>
      <path id="Trazado_8049" data-name="Trazado 8049" d="M156.807,337.85q0,11.159-11.01,11.187-10.978,0-10.98-11.187V292.556h6.513V337.85q0,4.764,4.467,4.761,4.5,0,4.5-4.761V292.556h6.51Z" transform="translate(104.212 -116.932)" fill="#fff"/>
      <path id="Trazado_8050" data-name="Trazado 8050" d="M143.042,292.556h19.686v6.4H149.555v18.162h11.331v6.426H149.555v18.168h13.173v6.4H143.042Z" transform="translate(123.487 -116.932)" fill="#fff"/>
      <path id="Trazado_8051" data-name="Trazado 8051" d="M167.546,348.1h-9.84l-5.724-36.273-2.541-19.275h6.57l6.6,49.968,6.6-49.968h6.6l-2.571,19.332Z" transform="translate(138.483 -116.932)" fill="#fff"/>
      <path id="Trazado_8052" data-name="Trazado 8052" d="M180.949,328.769,183.52,348.1h-6.6l-1.6-12.15h-9.96L163.72,348.1h-6.57l2.541-19.248,5.724-36.3h9.84Zm-6.48.759-4.146-31.392-4.153,31.392Z" transform="translate(156.548 -116.932)" fill="#fff"/>
      <path id="Trazado_8053" data-name="Trazado 8053" d="M169.887,292.556h19.68v6.4H176.4v18.162h11.331v6.426H176.4v18.168h13.17v6.4h-19.68Z" transform="translate(186.397 -116.932)" fill="#fff"/>
      <path id="Trazado_8054" data-name="Trazado 8054" d="M198.886,338.485q0,11.159-11.007,11.187-10.983,0-10.983-11.187V303.442q0-11.159,10.983-11.157,11.008,0,11.007,11.157v6.834h-6.51v-6.834q0-4.729-4.47-4.761h-.057q-4.438,0-4.437,4.761v35.043q0,4.764,4.467,4.761,4.494,0,4.5-4.761v-6.834h6.51Z" transform="translate(202.822 -117.567)" fill="#fff"/>
      <path id="Trazado_8055" data-name="Trazado 8055" d="M206.762,338.485q0,11.159-11.01,11.187-10.978,0-10.98-11.187V303.442q0-11.159,10.98-11.157,11.013,0,11.01,11.157Zm-6.51-35.043q0-4.729-4.47-4.761h-.057q-4.438,0-4.437,4.761v35.043q0,4.764,4.464,4.761,4.5,0,4.5-4.761Z" transform="translate(221.279 -117.567)" fill="#fff"/>
      <path id="Trazado_8056" data-name="Trazado 8056" d="M192.909,292.556H199.6L209,332.447V292.673l5.9-.09V348.1h-6.687L199.1,309.2v38.9h-6.192Z" transform="translate(240.348 -116.932)" fill="#fff"/>
      <path id="Trazado_8057" data-name="Trazado 8057" d="M223.037,338.485q0,11.159-11.01,11.187-10.983,0-10.98-11.187V303.442q0-11.159,10.98-11.157,11.008,0,11.01,11.157Zm-6.51-35.043q0-4.729-4.47-4.761H212q-4.438,0-4.437,4.761v35.043q0,4.764,4.467,4.761,4.494,0,4.5-4.761Z" transform="translate(259.419 -117.567)" fill="#fff"/>
      <path id="Trazado_8058" data-name="Trazado 8058" d="M226.3,334.58l10.311-42.024H243.3V348.1h-6.162V308.762L228.488,348.1h-4.206l-8.847-39.135V348.1h-6.252V292.556H215.9Z" transform="translate(278.485 -116.932)" fill="#fff"/>
      <path id="Trazado_8059" data-name="Trazado 8059" d="M220.954,299.291h6.51v55.548h-6.51Zm12.033-8.733-7.389,4.761h-3.972l6.1-5.637h5.259Z" transform="translate(306.069 -123.667)" fill="#fff"/>
      <path id="Trazado_8060" data-name="Trazado 8060" d="M248.43,328.769,251,348.1h-6.6l-1.608-12.15h-9.957L231.2,348.1h-6.57l2.541-19.248,5.721-36.3h9.843Zm-6.486.759L237.8,298.136l-4.146,31.392Z" transform="translate(314.679 -116.932)" fill="#fff"/>
      <path id="Trazado_8061" data-name="Trazado 8061" d="M259.18,338.485q0,11.159-11.01,11.187-10.978,0-10.98-11.187V303.442q0-11.159,10.98-11.157,11.013,0,11.01,11.157v6.834h-6.51v-6.834q0-4.729-4.47-4.761h-.057q-4.438,0-4.437,4.761v35.043q0,4.764,4.464,4.761,4.5,0,4.5-4.761v-6.834h6.51Z" transform="translate(344.118 -117.567)" fill="#fff"/>
      <path id="Trazado_8062" data-name="Trazado 8062" d="M245.284,292.556h6.51V348.1h-6.51Z" transform="translate(363.085 -116.932)" fill="#fff"/>
      <path id="Trazado_8063" data-name="Trazado 8063" d="M249.011,292.556l11.157.027q10.131,0,10.131,11.157v8.616q0,6.951-6.747,9.435l9.171,26.313h-7.185l-7.473-25.293-2.544.351V348.1h-6.51Zm6.51,6.4v18.162H258.3a8.711,8.711,0,0,0,2.688-.291,4.369,4.369,0,0,0,2.805-4.467V303.74q0-4.789-4.47-4.788Z" transform="translate(371.819 -116.932)" fill="#fff"/>
      <path id="Trazado_8064" data-name="Trazado 8064" d="M278.779,338.485q0,11.159-11.01,11.187-10.978,0-10.98-11.187V303.442q0-11.159,10.98-11.157,11.008,0,11.01,11.157v6.834h-6.51v-6.834q0-4.729-4.47-4.761h-.06q-4.433,0-4.437,4.761v35.043q0,4.764,4.467,4.761,4.5,0,4.5-4.761v-6.834h6.51Z" transform="translate(390.047 -117.567)" fill="#fff"/>
      <path id="Trazado_8065" data-name="Trazado 8065" d="M286.745,337.85q0,11.159-11.01,11.187-10.983,0-10.983-11.187V292.556h6.513V337.85q0,4.764,4.47,4.761,4.494,0,4.5-4.761V292.556h6.513Z" transform="translate(408.708 -116.932)" fill="#fff"/>
      <path id="Trazado_8066" data-name="Trazado 8066" d="M272.976,348.1V292.556h6.513v49.152h13.17v6.4Z" transform="translate(427.98 -116.932)" fill="#fff"/>
      <path id="Trazado_8067" data-name="Trazado 8067" d="M302.828,328.769,305.4,348.1h-6.6l-1.6-12.15h-9.96L285.6,348.1h-6.57l2.541-19.248,5.724-36.3h9.84Zm-6.483.759L292.2,298.136l-4.149,31.392Z" transform="translate(442.158 -116.932)" fill="#fff"/>
      <path id="Trazado_8068" data-name="Trazado 8068" d="M287.862,292.556l11.157.027q10.136,0,10.131,11.157v8.616q0,6.951-6.744,9.435l9.171,26.313h-7.185l-7.476-25.293-2.544.351V348.1h-6.51Zm6.51,6.4v18.162h2.775a8.7,8.7,0,0,0,2.688-.291,4.365,4.365,0,0,0,2.805-4.467V303.74q0-4.789-4.47-4.788Z" transform="translate(462.864 -116.932)" fill="#fff"/>
      <path id="Trazado_8069" data-name="Trazado 8069" d="M295.727,306.854h7.743V314.6h-7.743Z" transform="translate(481.296 -83.425)" fill="#fff"/>
    </g>
    <g id="Grupo_1753" data-name="Grupo 1753" transform="translate(430.421 607.441)">
      <path id="Trazado_8070" data-name="Trazado 8070" d="M147.035,391.328q0,12.653-12.488,12.685-12.453,0-12.454-12.685V351.581q0-12.658,12.454-12.652,12.483,0,12.488,12.652v7.75h-7.386v-7.75q0-5.366-5.069-5.4h-.067q-5.035,0-5.035,5.4v39.747q0,5.4,5.069,5.4,5.1,0,5.1-5.4v-7.75h7.386Z" transform="translate(-122.093 -338.892)" fill="#fff"/>
      <path id="Trazado_8071" data-name="Trazado 8071" d="M155.966,391.328q0,12.653-12.484,12.685-12.458,0-12.458-12.685V351.581q0-12.658,12.458-12.652,12.483,0,12.484,12.652Zm-7.386-39.747q0-5.366-5.065-5.4h-.067q-5.04,0-5.039,5.4v39.747q0,5.4,5.072,5.4,5.1,0,5.1-5.4Z" transform="translate(-101.164 -338.892)" fill="#fff"/>
      <path id="Trazado_8072" data-name="Trazado 8072" d="M159.663,386.9l11.692-47.668h7.586v63h-6.988V357.621l-9.8,44.618h-4.771l-10.037-44.384v44.384h-7.088v-63h7.616Z" transform="translate(-79.534 -338.175)" fill="#fff"/>
      <path id="Trazado_8073" data-name="Trazado 8073" d="M153.793,339.235l12.652.034q11.495,0,11.491,12.655v9.77q0,9.343-8.278,12.026a20.308,20.308,0,0,1-5.961.662h-2.518v27.858h-7.386Zm7.386,7.255v20.6h3.146a9.947,9.947,0,0,0,3.046-.331,4.958,4.958,0,0,0,3.183-5.069v-9.77q0-5.436-5.069-5.433Z" transform="translate(-47.806 -338.175)" fill="#fff"/>
      <path id="Trazado_8074" data-name="Trazado 8074" d="M162.487,339.235l12.652.034q11.495,0,11.495,12.655v9.77q0,7.884-7.65,10.7l10.4,29.847h-8.145l-8.486-28.687-2.879.4v28.289h-7.386Zm7.386,7.255v20.6h3.15a9.976,9.976,0,0,0,3.046-.331,4.96,4.96,0,0,0,3.18-5.069v-9.77q0-5.436-5.069-5.433Z" transform="translate(-27.432 -338.175)" fill="#fff"/>
      <path id="Trazado_8075" data-name="Trazado 8075" d="M196.251,391.328q0,12.653-12.484,12.685-12.453,0-12.458-12.685V351.581q0-12.658,12.458-12.652,12.483,0,12.484,12.652Zm-7.386-39.747q0-5.366-5.065-5.4h-.067q-5.04,0-5.039,5.4v39.747q0,5.4,5.072,5.4,5.1,0,5.1-5.4Z" transform="translate(-6.758 -338.892)" fill="#fff"/>
      <path id="Trazado_8076" data-name="Trazado 8076" d="M199.948,386.9l11.7-47.668h7.583v63h-6.991V357.621l-9.8,44.618h-4.771l-10.034-44.384v44.384h-7.088v-63h7.616Z" transform="translate(14.872 -338.175)" fill="#fff"/>
      <path id="Trazado_8077" data-name="Trazado 8077" d="M194.127,339.235h7.386v63h-7.386Z" transform="translate(46.714 -338.175)" fill="#fff"/>
      <path id="Trazado_8078" data-name="Trazado 8078" d="M198.154,351.581q0-12.658,12.454-12.652,12.488,0,12.488,12.652v7.75H215.71v-7.75q0-5.366-5.069-5.4h-.067q-5.035,0-5.035,5.4v5.894q0,4.835,9.211,11.428,8.345,5.963,8.345,14.21v8.215q0,12.688-12.454,12.685-12.488-.03-12.488-12.685v-7.75h7.386v7.75q0,5.4,5.1,5.4,5.065,0,5.069-5.4v-7.419q0-5.2-9.211-11.792-8.345-5.963-8.345-14.44Z" transform="translate(56.152 -338.892)" fill="#fff"/>
      <path id="Trazado_8079" data-name="Trazado 8079" d="M232.126,391.328q0,12.653-12.488,12.685-12.453,0-12.454-12.685V351.581q0-12.658,12.454-12.652,12.488,0,12.488,12.652Zm-7.386-39.747q0-5.366-5.065-5.4h-.07q-5.035,0-5.035,5.4v39.747q0,5.4,5.069,5.4,5.105,0,5.1-5.4Z" transform="translate(77.313 -338.892)" fill="#fff"/>
      <path id="Trazado_8080" data-name="Trazado 8080" d="M216.216,351.581q0-12.658,12.451-12.652,12.493,0,12.491,12.652v7.75h-7.386v-7.75q0-5.366-5.069-5.4h-.067q-5.035,0-5.035,5.4v5.894q0,4.835,9.211,11.428,8.345,5.963,8.345,14.21v8.215q0,12.688-12.454,12.685-12.488-.03-12.488-12.685v-7.75H223.6v7.75q0,5.4,5.1,5.4,5.065,0,5.069-5.4v-7.419q0-5.2-9.211-11.792-8.345-5.963-8.345-14.44Z" transform="translate(98.479 -338.892)" fill="#fff"/>
      <path id="Trazado_8081" data-name="Trazado 8081" d="M229.869,390.029q0-8.28,8.312-14.243,9.208-6.53,9.245-11.428V351.606q0-5.4-5.035-5.4h-.067q-5.065,0-5.069,5.4v7.717h-7.386v-7.717q0-12.684,12.454-12.688,12.488,0,12.488,12.688v12.986q0,8.441-8.349,14.44-9.208,6.56-9.208,11.789v4.9h17.556v7.255H229.869Z" transform="translate(130.474 -338.918)" fill="#fff"/>
      <path id="Trazado_8082" data-name="Trazado 8082" d="M264.139,391.353q0,12.653-12.484,12.655-12.458,0-12.458-12.655V351.606q0-12.684,12.458-12.688,12.488,0,12.484,12.688Zm-7.386-39.747q0-5.4-5.069-5.4h-.064q-5.035,0-5.035,5.4v39.747q0,5.4,5.069,5.4,5.1,0,5.1-5.4Z" transform="translate(152.333 -338.918)" fill="#fff"/>
      <path id="Trazado_8083" data-name="Trazado 8083" d="M248.526,390.029q0-8.28,8.315-14.243,9.2-6.53,9.241-11.428V351.606q0-5.4-5.035-5.4h-.067q-5.065,0-5.069,5.4v7.717h-7.386v-7.717q0-12.684,12.454-12.688,12.488,0,12.488,12.688v12.986q0,8.441-8.349,14.44-9.208,6.56-9.208,11.789v4.9h17.556v7.255H248.526Z" transform="translate(174.195 -338.918)" fill="#fff"/>
      <path id="Trazado_8084" data-name="Trazado 8084" d="M275.51,390.61V372.161c0-2.735-.685-4.4-2.053-4.969a7.159,7.159,0,0,0-2.949-.465c-.311,0-.632.013-.96.033q-3.651.166-4.109,3.447l-.067,1.722h-7.386l1.324-32.7H282.9v7.255H266.4l-.829,17.791q3.977-4.579,7.62-4.574a8.558,8.558,0,0,1,1.06.067,8.853,8.853,0,0,1,6.757,3.541q1.886,2.588,1.889,8.847V390.61q0,11.429-8.977,12.488a30.313,30.313,0,0,1-3.377.167q-1.028,0-2.12-.033-10.472-.467-10.468-12.621v-6.687h7.386v6.687q0,5.236,4.24,5.4h.7a9.481,9.481,0,0,0,3.183-.395Q275.509,394.718,275.51,390.61Z" transform="translate(196.289 -338.175)" fill="#fff"/>
    </g>
  </g>
</svg>
