<svg xmlns="http://www.w3.org/2000/svg" xmlns:xlink="http://www.w3.org/1999/xlink" width="160" height="190" viewBox="0 0 160 190"><defs><clipPath id="b"><rect width="160" height="190"/></clipPath></defs><g id="a" clip-path="url(#b)"><g transform="translate(-874 -12.66)"><g transform="translate(343)"><rect width="128" height="155" rx="14" transform="translate(547 30.66)" fill="none" opacity="0.93"/></g><path d="M-32.633-2.977l.019.038a3.177,3.177,0,0,1-.724,2.3,2.857,2.857,0,0,1-2.171.774A3.054,3.054,0,0,1-37.8-.746a3.422,3.422,0,0,1-.857-2.491V-6a3.508,3.508,0,0,1,.828-2.491,2.893,2.893,0,0,1,2.219-.885,2.937,2.937,0,0,1,2.225.787,3.334,3.334,0,0,1,.778,2.33l-.019.038h-1.739a2.157,2.157,0,0,0-.248-1.312,1.14,1.14,0,0,0-1-.4,1.059,1.059,0,0,0-.933.477,2.589,2.589,0,0,0-.324,1.442v2.777a2.483,2.483,0,0,0,.346,1.455,1.172,1.172,0,0,0,1.012.477,1.023,1.023,0,0,0,.911-.378,2.256,2.256,0,0,0,.225-1.292ZM-28.292,0a3.082,3.082,0,0,1-.136-.375,3.057,3.057,0,0,1-.092-.413,2.147,2.147,0,0,1-.619.67,1.46,1.46,0,0,1-.847.251,1.756,1.756,0,0,1-1.362-.559,2.124,2.124,0,0,1-.511-1.492,1.955,1.955,0,0,1,.651-1.568,2.9,2.9,0,0,1,1.933-.559h.679V-4.6a1.381,1.381,0,0,0-.181-.771.61.61,0,0,0-.543-.27.523.523,0,0,0-.457.216,1.085,1.085,0,0,0-.152.628l-1.746-.006-.019-.038a1.883,1.883,0,0,1,.663-1.523A2.626,2.626,0,0,1-29.2-7a2.451,2.451,0,0,1,1.742.625,2.317,2.317,0,0,1,.67,1.781v2.78a6.017,6.017,0,0,0,.07.946A5.153,5.153,0,0,0-26.5,0Zm-1.174-1.225a.929.929,0,0,0,.5-.146,1.084,1.084,0,0,0,.365-.375V-3.009h-.679a.657.657,0,0,0-.6.286A1.312,1.312,0,0,0-30.056-2a.919.919,0,0,0,.159.559A.507.507,0,0,0-29.466-1.225Zm5.745-5.643V.209a2.832,2.832,0,0,1-.571,1.9,1.978,1.978,0,0,1-1.587.667,2.682,2.682,0,0,1-.406-.028q-.184-.028-.406-.085l.076-1.4a2.6,2.6,0,0,0,.254.057,1.551,1.551,0,0,0,.254.019.466.466,0,0,0,.428-.28A1.823,1.823,0,0,0-25.53.22V-6.868Zm-.038-1.657h-1.8V-9.9h1.8ZM-19.208,0a3.082,3.082,0,0,1-.136-.375,3.057,3.057,0,0,1-.092-.413,2.147,2.147,0,0,1-.619.67A1.46,1.46,0,0,1-20.9.133a1.756,1.756,0,0,1-1.362-.559,2.124,2.124,0,0,1-.511-1.492,1.955,1.955,0,0,1,.651-1.568,2.9,2.9,0,0,1,1.933-.559h.679V-4.6a1.381,1.381,0,0,0-.181-.771.61.61,0,0,0-.543-.27.523.523,0,0,0-.457.216,1.085,1.085,0,0,0-.152.628l-1.746-.006-.019-.038a1.883,1.883,0,0,1,.663-1.523A2.626,2.626,0,0,1-20.116-7a2.451,2.451,0,0,1,1.742.625,2.317,2.317,0,0,1,.67,1.781v2.78a6.017,6.017,0,0,0,.07.946A5.153,5.153,0,0,0-17.418,0Zm-1.174-1.225a.929.929,0,0,0,.5-.146,1.084,1.084,0,0,0,.365-.375V-3.009h-.679a.657.657,0,0,0-.6.286A1.312,1.312,0,0,0-20.973-2a.919.919,0,0,0,.159.559A.507.507,0,0,0-20.382-1.225Zm6.811-.571a.667.667,0,0,0-.229-.5,3.847,3.847,0,0,0-.876-.524A4.619,4.619,0,0,1-16.228-3.7a1.667,1.667,0,0,1-.517-1.27A1.854,1.854,0,0,1-16.082-6.4,2.533,2.533,0,0,1-14.327-7a2.626,2.626,0,0,1,1.822.609,1.922,1.922,0,0,1,.654,1.555l-.019.038h-1.739a1.176,1.176,0,0,0-.178-.686.621.621,0,0,0-.546-.254.685.685,0,0,0-.5.2.638.638,0,0,0-.2.476.638.638,0,0,0,.2.492,4.091,4.091,0,0,0,.882.511,4.278,4.278,0,0,1,1.6.873,1.76,1.76,0,0,1,.521,1.323,1.756,1.756,0,0,1-.7,1.435,2.849,2.849,0,0,1-1.834.559,2.539,2.539,0,0,1-1.879-.692A2.043,2.043,0,0,1-16.9-2.12l.013-.038h1.65a1.12,1.12,0,0,0,.254.787.9.9,0,0,0,.667.241.781.781,0,0,0,.552-.178A.636.636,0,0,0-13.571-1.8ZM-3.8-1.974H-6.24L-6.735,0H-8.557l2.6-9.242h1.879L-1.479,0H-3.3ZM-5.872-3.415h1.7L-5-6.684H-5.04Zm4.754-.336A4.148,4.148,0,0,1-.517-6.1,1.921,1.921,0,0,1,1.174-7a1.424,1.424,0,0,1,.806.232A2.042,2.042,0,0,1,2.59-6.1L2.7-6.868H4.272V-.133A2.864,2.864,0,0,1,3.488,2a2.917,2.917,0,0,1-2.149.778,3.459,3.459,0,0,1-.946-.143A4.344,4.344,0,0,1-.54,2.247L-.222.857a3.228,3.228,0,0,0,.736.3,3.1,3.1,0,0,0,.813.1A1.029,1.029,0,0,0,2.184.9,1.646,1.646,0,0,0,2.469-.14V-.533a1.749,1.749,0,0,1-.578.5,1.559,1.559,0,0,1-.73.168A1.947,1.947,0,0,1-.521-.7a3.714,3.714,0,0,1-.6-2.206Zm1.8.848A2.617,2.617,0,0,0,.9-1.73a.749.749,0,0,0,.724.423,1.022,1.022,0,0,0,.492-.114.94.94,0,0,0,.352-.337V-5.014a1.109,1.109,0,0,0-.346-.394.845.845,0,0,0-.486-.14.753.753,0,0,0-.73.493A3.217,3.217,0,0,0,.686-3.749ZM8.677-5.224,8-5.243a.769.769,0,0,0-.473.14.887.887,0,0,0-.289.394V0h-1.8V-6.868H7.116l.07.92.032.013a1.873,1.873,0,0,1,.46-.778A.965.965,0,0,1,8.366-7a1.6,1.6,0,0,1,.257.022,1.746,1.746,0,0,1,.238.054ZM11.534,0H9.725V-6.868h1.809Zm-.7-9.414h1.9l.019.038-1.581,1.65-1.454,0Zm4.526,8.106a.63.63,0,0,0,.555-.273,1.387,1.387,0,0,0,.187-.787h1.638l.019.038a2.353,2.353,0,0,1-.663,1.771,2.335,2.335,0,0,1-1.736.692,2.5,2.5,0,0,1-2.047-.87,3.426,3.426,0,0,1-.714-2.247v-.882a3.465,3.465,0,0,1,.711-2.25A2.469,2.469,0,0,1,15.342-7a2.288,2.288,0,0,1,1.774.717,2.69,2.69,0,0,1,.638,1.936l-.013.032H16.1a1.876,1.876,0,0,0-.187-.9.609.609,0,0,0-.568-.341A.743.743,0,0,0,14.6-5.1a3.072,3.072,0,0,0-.2,1.227v.884a3.036,3.036,0,0,0,.2,1.233A.755.755,0,0,0,15.355-1.308Zm3.053-2.545a3.415,3.415,0,0,1,.733-2.263A2.526,2.526,0,0,1,21.195-7a2.536,2.536,0,0,1,2.057.879,3.4,3.4,0,0,1,.736,2.263V-3a3.387,3.387,0,0,1-.736,2.266,2.541,2.541,0,0,1-2.05.87,2.546,2.546,0,0,1-2.06-.87A3.4,3.4,0,0,1,18.408-3Zm1.8.848a2.867,2.867,0,0,0,.222,1.246.791.791,0,0,0,.774.451.782.782,0,0,0,.759-.455,2.835,2.835,0,0,0,.225-1.243v-.852a2.843,2.843,0,0,0-.225-1.237.785.785,0,0,0-.765-.461.785.785,0,0,0-.765.464A2.847,2.847,0,0,0,20.2-3.857ZM26.825,0h-1.8V-9.9h1.8Zm4.6,0a3.082,3.082,0,0,1-.136-.375A3.057,3.057,0,0,1,31.2-.787a2.147,2.147,0,0,1-.619.67,1.46,1.46,0,0,1-.847.251,1.756,1.756,0,0,1-1.362-.559,2.124,2.124,0,0,1-.511-1.492,1.955,1.955,0,0,1,.651-1.568,2.9,2.9,0,0,1,1.933-.559h.679V-4.6a1.381,1.381,0,0,0-.181-.771.61.61,0,0,0-.543-.27.523.523,0,0,0-.457.216,1.085,1.085,0,0,0-.152.628l-1.746-.006-.019-.038a1.883,1.883,0,0,1,.663-1.523A2.626,2.626,0,0,1,30.52-7a2.451,2.451,0,0,1,1.742.625,2.317,2.317,0,0,1,.67,1.781v2.78A6.016,6.016,0,0,0,33-.863,5.153,5.153,0,0,0,33.217,0ZM30.253-1.225a.929.929,0,0,0,.5-.146,1.084,1.084,0,0,0,.365-.375V-3.009h-.679a.657.657,0,0,0-.6.286A1.312,1.312,0,0,0,29.663-2a.919.919,0,0,0,.159.559A.507.507,0,0,0,30.253-1.225ZM37.064-1.8a.667.667,0,0,0-.229-.5,3.847,3.847,0,0,0-.876-.524A4.619,4.619,0,0,1,34.407-3.7a1.667,1.667,0,0,1-.517-1.27A1.854,1.854,0,0,1,34.553-6.4,2.533,2.533,0,0,1,36.309-7a2.626,2.626,0,0,1,1.822.609,1.922,1.922,0,0,1,.654,1.555l-.019.038H37.026a1.176,1.176,0,0,0-.178-.686.621.621,0,0,0-.546-.254.685.685,0,0,0-.5.2.638.638,0,0,0-.2.476.638.638,0,0,0,.2.492,4.091,4.091,0,0,0,.882.511,4.278,4.278,0,0,1,1.6.873A1.76,1.76,0,0,1,38.81-1.86a1.756,1.756,0,0,1-.7,1.435,2.849,2.849,0,0,1-1.834.559A2.539,2.539,0,0,1,34.4-.559a2.043,2.043,0,0,1-.66-1.562l.013-.038H35.4a1.12,1.12,0,0,0,.254.787.9.9,0,0,0,.667.241.781.781,0,0,0,.552-.178A.636.636,0,0,0,37.064-1.8Z" transform="translate(954 168)" fill="#5e5b5c"/><g transform="translate(918.001 79)"><path d="M118.794,82.42V72.341a7.521,7.521,0,0,0-7.512-7.513H72.86a7.521,7.521,0,0,0-7.513,7.513V82.42a7.521,7.521,0,0,0,7.513,7.513h38.422a7.521,7.521,0,0,0,7.512-7.513Z" transform="translate(-56.164 -53.16)" fill="none" stroke="#5e5b5c" stroke-width="2"/><path d="M69.9,0H2.051A2.054,2.054,0,0,0,0,2.052V5.841A2.054,2.054,0,0,0,2.051,7.893h.22V56.916a2.969,2.969,0,0,0,2.966,2.966H44.508a1.057,1.057,0,0,0,0-2.114H5.237a.853.853,0,0,1-.852-.852V7.893H7.3a1.057,1.057,0,1,0,0-2.114H2.113V2.114H69.841V5.779H11.857a1.057,1.057,0,0,0,0,2.114H67.57V56.916a.853.853,0,0,1-.852.851H49.2a1.057,1.057,0,1,0,0,2.114H66.718a2.969,2.969,0,0,0,2.966-2.966V7.893h.22a2.054,2.054,0,0,0,2.052-2.052V2.052A2.054,2.054,0,0,0,69.9,0Zm0,0" fill="#5e5b5c"/></g></g></g></svg>