<svg xmlns="http://www.w3.org/2000/svg" xmlns:xlink="http://www.w3.org/1999/xlink" width="160" height="190" viewBox="0 0 160 190"><defs><clipPath id="b"><rect width="160" height="190"/></clipPath></defs><g id="a" clip-path="url(#b)"><g transform="translate(-2628 -12.66)"><path d="M14,0H114a14,14,0,0,1,14,14V141a14,14,0,0,1-14,14H14A14,14,0,0,1,0,141V14A14,14,0,0,1,14,0Z" transform="translate(2644 30.66)" fill="none" opacity="0.93"/><path d="M-15.637-2.977l.019.038a3.177,3.177,0,0,1-.724,2.3,2.857,2.857,0,0,1-2.171.774A3.054,3.054,0,0,1-20.8-.746a3.422,3.422,0,0,1-.857-2.491V-6a3.508,3.508,0,0,1,.828-2.491,2.893,2.893,0,0,1,2.219-.885,2.937,2.937,0,0,1,2.225.787,3.334,3.334,0,0,1,.778,2.33l-.019.038H-17.37a2.157,2.157,0,0,0-.248-1.312,1.14,1.14,0,0,0-1-.4,1.059,1.059,0,0,0-.933.477,2.589,2.589,0,0,0-.324,1.442v2.777a2.483,2.483,0,0,0,.346,1.455,1.172,1.172,0,0,0,1.012.477,1.023,1.023,0,0,0,.911-.378,2.256,2.256,0,0,0,.225-1.292ZM-11.3,0a3.082,3.082,0,0,1-.136-.375,3.057,3.057,0,0,1-.092-.413,2.147,2.147,0,0,1-.619.67,1.46,1.46,0,0,1-.847.251,1.756,1.756,0,0,1-1.362-.559,2.124,2.124,0,0,1-.511-1.492,1.955,1.955,0,0,1,.651-1.568,2.9,2.9,0,0,1,1.933-.559h.679V-4.6a1.381,1.381,0,0,0-.181-.771.61.61,0,0,0-.543-.27.523.523,0,0,0-.457.216,1.085,1.085,0,0,0-.152.628l-1.746-.006-.019-.038a1.883,1.883,0,0,1,.663-1.523A2.626,2.626,0,0,1-12.2-7a2.451,2.451,0,0,1,1.742.625,2.317,2.317,0,0,1,.67,1.781v2.78a6.016,6.016,0,0,0,.07.946A5.153,5.153,0,0,0-9.506,0ZM-12.47-1.225a.929.929,0,0,0,.5-.146,1.084,1.084,0,0,0,.365-.375V-3.009h-.679a.657.657,0,0,0-.6.286A1.312,1.312,0,0,0-13.06-2a.919.919,0,0,0,.159.559A.507.507,0,0,0-12.47-1.225ZM-5.659-1.8a.667.667,0,0,0-.229-.5,3.847,3.847,0,0,0-.876-.524A4.619,4.619,0,0,1-8.315-3.7a1.667,1.667,0,0,1-.517-1.27A1.854,1.854,0,0,1-8.169-6.4,2.533,2.533,0,0,1-6.414-7a2.626,2.626,0,0,1,1.822.609,1.922,1.922,0,0,1,.654,1.555l-.019.038H-5.7a1.176,1.176,0,0,0-.178-.686.621.621,0,0,0-.546-.254.685.685,0,0,0-.5.2.638.638,0,0,0-.2.476.638.638,0,0,0,.2.492,4.091,4.091,0,0,0,.882.511,4.278,4.278,0,0,1,1.6.873A1.76,1.76,0,0,1-3.913-1.86a1.756,1.756,0,0,1-.7,1.435A2.849,2.849,0,0,1-6.446.133,2.539,2.539,0,0,1-8.325-.559a2.043,2.043,0,0,1-.66-1.562l.013-.038h1.65a1.12,1.12,0,0,0,.254.787A.9.9,0,0,0-6.4-1.13a.781.781,0,0,0,.552-.178A.636.636,0,0,0-5.659-1.8ZM-1.127,0h-1.8V-6.868h1.8Zm0-8.525h-1.8V-9.9h1.8ZM2.015,0H.213V-9.9h1.8ZM5.157,0h-1.8V-9.9h1.8ZM9.087.133A2.623,2.623,0,0,1,7.03-.717a3.1,3.1,0,0,1-.762-2.146v-.965a3.545,3.545,0,0,1,.708-2.279A2.365,2.365,0,0,1,8.934-7a2.276,2.276,0,0,1,1.866.806,3.366,3.366,0,0,1,.66,2.2v1.1h-3.4v.025a1.9,1.9,0,0,0,.308,1.117,1.061,1.061,0,0,0,.93.438,2.482,2.482,0,0,0,.825-.114,4.341,4.341,0,0,0,.755-.381L11.34-.654a2.723,2.723,0,0,1-.949.565A3.694,3.694,0,0,1,9.087.133ZM8.934-5.554a.67.67,0,0,0-.635.4,2.564,2.564,0,0,0-.229,1.065H9.69v-.255a1.831,1.831,0,0,0-.178-.889A.612.612,0,0,0,8.934-5.554Zm6.678.33-.679-.019a.769.769,0,0,0-.473.14.887.887,0,0,0-.289.394V0h-1.8V-6.868h1.682l.07.92.032.013a1.873,1.873,0,0,1,.46-.778A.965.965,0,0,1,15.3-7a1.6,1.6,0,0,1,.257.022,1.746,1.746,0,0,1,.238.054Zm.571,1.371a3.415,3.415,0,0,1,.733-2.263A2.526,2.526,0,0,1,18.97-7a2.536,2.536,0,0,1,2.057.879,3.4,3.4,0,0,1,.736,2.263V-3a3.387,3.387,0,0,1-.736,2.266,2.541,2.541,0,0,1-2.05.87,2.546,2.546,0,0,1-2.06-.87A3.4,3.4,0,0,1,16.183-3Zm1.8.848A2.867,2.867,0,0,0,18.2-1.759a.791.791,0,0,0,.774.451.782.782,0,0,0,.759-.455,2.835,2.835,0,0,0,.225-1.243v-.852a2.843,2.843,0,0,0-.225-1.237.785.785,0,0,0-.765-.461.785.785,0,0,0-.765.464,2.847,2.847,0,0,0-.225,1.233ZM-53.412,13h-1.8V3.758h1.8Zm3.034-6.868.076.946a2.289,2.289,0,0,1,.7-.79A1.6,1.6,0,0,1-48.683,6a1.591,1.591,0,0,1,1.349.66,3.5,3.5,0,0,1,.492,2.076V13h-1.809V8.736a1.842,1.842,0,0,0-.2-1,.7.7,0,0,0-.619-.289.822.822,0,0,0-.444.127,1.083,1.083,0,0,0-.343.349V13h-1.8V6.132ZM-45.954,9.6A5.013,5.013,0,0,1-45.357,7,1.867,1.867,0,0,1-43.675,6a1.4,1.4,0,0,1,.724.19,1.9,1.9,0,0,1,.578.546V3.1h1.8V13h-1.568l-.121-.749a2.019,2.019,0,0,1-.619.657,1.458,1.458,0,0,1-.8.225,1.882,1.882,0,0,1-1.679-.93,4.531,4.531,0,0,1-.594-2.466Zm1.8.134a3.889,3.889,0,0,0,.213,1.439.737.737,0,0,0,.72.516.9.9,0,0,0,.489-.131,1.078,1.078,0,0,0,.355-.379V8.051a1.272,1.272,0,0,0-.355-.446.766.766,0,0,0-.476-.159.764.764,0,0,0-.724.592A4.553,4.553,0,0,0-44.151,9.6Zm8.239,2.469a2.027,2.027,0,0,1-.676.689,1.712,1.712,0,0,1-.9.238,1.691,1.691,0,0,1-1.438-.7,3.621,3.621,0,0,1-.517-2.155V6.132h1.8V10.3a2.361,2.361,0,0,0,.178,1.061.567.567,0,0,0,.527.33,1.169,1.169,0,0,0,.524-.111,1.05,1.05,0,0,0,.384-.327V6.132h1.809V13H-35.8Zm5.821-1a.667.667,0,0,0-.229-.5,3.847,3.847,0,0,0-.876-.524A4.619,4.619,0,0,1-32.748,9.3a1.667,1.667,0,0,1-.517-1.27A1.854,1.854,0,0,1-32.6,6.6,2.533,2.533,0,0,1-30.846,6a2.626,2.626,0,0,1,1.822.609,1.922,1.922,0,0,1,.654,1.555l-.019.038h-1.739a1.176,1.176,0,0,0-.178-.686.621.621,0,0,0-.546-.254.685.685,0,0,0-.5.2.638.638,0,0,0-.2.476.638.638,0,0,0,.2.492,4.092,4.092,0,0,0,.882.511,4.278,4.278,0,0,1,1.6.873,1.76,1.76,0,0,1,.521,1.323,1.756,1.756,0,0,1-.7,1.435,2.849,2.849,0,0,1-1.834.559,2.539,2.539,0,0,1-1.879-.692,2.043,2.043,0,0,1-.66-1.562l.013-.038h1.65a1.12,1.12,0,0,0,.254.787.9.9,0,0,0,.667.241.781.781,0,0,0,.552-.178A.636.636,0,0,0-30.091,11.2ZM-25.3,4.424V6.132h.952V7.439H-25.3v3.447a1.122,1.122,0,0,0,.121.6.377.377,0,0,0,.33.181,2.076,2.076,0,0,0,.279-.016,2.043,2.043,0,0,0,.254-.054l.14,1.371a3.6,3.6,0,0,1-.546.127,4.109,4.109,0,0,1-.59.038,1.656,1.656,0,0,1-1.33-.536,2.589,2.589,0,0,1-.46-1.7V7.439h-.812V6.132h.813V4.424Zm5.211,3.352-.679-.019a.769.769,0,0,0-.473.14.887.887,0,0,0-.289.394V13h-1.8V6.132h1.682l.07.92.032.013a1.873,1.873,0,0,1,.46-.778A.965.965,0,0,1-20.4,6a1.6,1.6,0,0,1,.257.022,1.746,1.746,0,0,1,.238.054Zm2.8,5.224h-1.8V6.132h1.8Zm0-8.525h-1.8V3.1h1.8Zm4.6,8.525a3.082,3.082,0,0,1-.136-.375,3.057,3.057,0,0,1-.092-.413,2.147,2.147,0,0,1-.619.67,1.46,1.46,0,0,1-.847.251,1.756,1.756,0,0,1-1.362-.559,2.124,2.124,0,0,1-.511-1.492A1.955,1.955,0,0,1-15.6,9.515a2.9,2.9,0,0,1,1.933-.559h.679V8.4a1.381,1.381,0,0,0-.181-.771.61.61,0,0,0-.543-.27.523.523,0,0,0-.457.216,1.085,1.085,0,0,0-.152.628l-1.746-.006-.019-.038a1.883,1.883,0,0,1,.663-1.523A2.626,2.626,0,0,1-13.594,6a2.451,2.451,0,0,1,1.742.625,2.317,2.317,0,0,1,.67,1.781v2.78a6.016,6.016,0,0,0,.07.946A5.153,5.153,0,0,0-10.9,13Zm-1.174-1.225a.929.929,0,0,0,.5-.146,1.084,1.084,0,0,0,.365-.375V9.991h-.679a.657.657,0,0,0-.6.286A1.312,1.312,0,0,0-14.45,11a.919.919,0,0,0,.159.559A.507.507,0,0,0-13.86,11.775ZM-8.154,13h-1.8V3.1h1.8Zm4.742.793H-4.707L-1.965,3.758H-.657ZM8.814,10.023l.019.038a3.177,3.177,0,0,1-.724,2.3,2.857,2.857,0,0,1-2.171.774,3.054,3.054,0,0,1-2.292-.879A3.422,3.422,0,0,1,2.79,9.763V7A3.508,3.508,0,0,1,3.618,4.51a2.893,2.893,0,0,1,2.219-.885,2.937,2.937,0,0,1,2.225.787,3.334,3.334,0,0,1,.778,2.33l-.019.038H7.081a2.157,2.157,0,0,0-.248-1.312,1.14,1.14,0,0,0-1-.4,1.059,1.059,0,0,0-.933.477A2.589,2.589,0,0,0,4.58,6.984V9.761a2.483,2.483,0,0,0,.346,1.455,1.172,1.172,0,0,0,1.012.477,1.023,1.023,0,0,0,.911-.378,2.256,2.256,0,0,0,.225-1.292Zm.781-.876a3.415,3.415,0,0,1,.733-2.263A2.526,2.526,0,0,1,12.381,6a2.536,2.536,0,0,1,2.057.879,3.4,3.4,0,0,1,.736,2.263V10a3.387,3.387,0,0,1-.736,2.266,2.541,2.541,0,0,1-2.05.87,2.546,2.546,0,0,1-2.06-.87A3.4,3.4,0,0,1,9.594,10Zm1.8.848a2.867,2.867,0,0,0,.222,1.246.791.791,0,0,0,.774.451.782.782,0,0,0,.759-.455,2.835,2.835,0,0,0,.225-1.243V9.143a2.843,2.843,0,0,0-.225-1.237.864.864,0,0,0-1.53,0,2.847,2.847,0,0,0-.225,1.233Zm6.424-3.863.07.876a2.046,2.046,0,0,1,.686-.743A1.735,1.735,0,0,1,19.516,6a1.523,1.523,0,0,1,.908.276,1.7,1.7,0,0,1,.59.841A2.151,2.151,0,0,1,21.7,6.3,1.667,1.667,0,0,1,22.677,6a1.555,1.555,0,0,1,1.343.7,3.757,3.757,0,0,1,.492,2.142V13H22.7V8.844a2.434,2.434,0,0,0-.171-1.1.571.571,0,0,0-.533-.3.751.751,0,0,0-.463.153,1.161,1.161,0,0,0-.336.419q.006.121.013.238t.006.245V13h-1.8V8.844a2.4,2.4,0,0,0-.175-1.093.582.582,0,0,0-.543-.305.8.8,0,0,0-.441.124,1.09,1.09,0,0,0-.333.346V13h-1.8V6.132Zm10.55,7a2.623,2.623,0,0,1-2.057-.851,3.1,3.1,0,0,1-.762-2.146V9.172a3.545,3.545,0,0,1,.708-2.279A2.365,2.365,0,0,1,28.212,6a2.276,2.276,0,0,1,1.866.806,3.366,3.366,0,0,1,.66,2.2v1.1h-3.4v.025a1.9,1.9,0,0,0,.308,1.117,1.061,1.061,0,0,0,.93.438,2.482,2.482,0,0,0,.825-.114,4.341,4.341,0,0,0,.755-.381l.457,1.149a2.723,2.723,0,0,1-.949.565A3.694,3.694,0,0,1,28.365,13.133Zm-.152-5.687a.67.67,0,0,0-.635.4,2.564,2.564,0,0,0-.229,1.065h1.619V8.651a1.831,1.831,0,0,0-.178-.889A.612.612,0,0,0,28.212,7.446Zm6.678.33-.679-.019a.769.769,0,0,0-.473.14.887.887,0,0,0-.289.394V13h-1.8V6.132h1.682l.07.92.032.013a1.873,1.873,0,0,1,.46-.778A.965.965,0,0,1,34.579,6a1.6,1.6,0,0,1,.257.022,1.746,1.746,0,0,1,.238.054Zm3.3,3.917a.63.63,0,0,0,.555-.273,1.387,1.387,0,0,0,.187-.787h1.638l.019.038a2.323,2.323,0,0,1-2.4,2.463,2.5,2.5,0,0,1-2.047-.87,3.426,3.426,0,0,1-.714-2.247V9.134a3.465,3.465,0,0,1,.711-2.25A2.469,2.469,0,0,1,38.178,6a2.288,2.288,0,0,1,1.774.717,2.69,2.69,0,0,1,.638,1.936l-.013.032H38.933a1.876,1.876,0,0,0-.187-.9.609.609,0,0,0-.568-.341.743.743,0,0,0-.743.458,3.072,3.072,0,0,0-.2,1.227v.884a3.036,3.036,0,0,0,.2,1.233A.755.755,0,0,0,38.191,11.692ZM43.345,13h-1.8V6.132h1.8Zm0-8.525h-1.8V3.1h1.8ZM47.947,13a3.162,3.162,0,0,1-.229-.787,2.147,2.147,0,0,1-.619.67,1.46,1.46,0,0,1-.847.251,1.756,1.756,0,0,1-1.362-.559,2.124,2.124,0,0,1-.511-1.492,1.955,1.955,0,0,1,.651-1.568,2.9,2.9,0,0,1,1.933-.559h.679V8.4a1.381,1.381,0,0,0-.181-.771.61.61,0,0,0-.543-.27.523.523,0,0,0-.457.216,1.085,1.085,0,0,0-.152.628l-1.746-.006-.019-.038a1.883,1.883,0,0,1,.663-1.523A2.626,2.626,0,0,1,47.039,6a2.451,2.451,0,0,1,1.742.625,2.317,2.317,0,0,1,.67,1.781v2.78a6.016,6.016,0,0,0,.07.946,5.153,5.153,0,0,0,.216.863Zm-1.174-1.225a.929.929,0,0,0,.5-.146,1.084,1.084,0,0,0,.365-.375V9.991h-.679a.657.657,0,0,0-.6.286,1.312,1.312,0,0,0-.184.724.919.919,0,0,0,.159.559A.507.507,0,0,0,46.773,11.775ZM52.479,13h-1.8V3.1h1.8Z" transform="translate(2708 155)" fill="#5e5b5c"/><g transform="translate(2619.991 13.929)"><path d="M111.027,46.071H65.778a2.772,2.772,0,0,0-2.769,2.769v63.323a2.772,2.772,0,0,0,2.769,2.769h1.835V118.3a2.772,2.772,0,0,0,2.769,2.769h5.075a2.772,2.772,0,0,0,2.769-2.769v-3.368H98.578V118.3a2.772,2.772,0,0,0,2.769,2.769h5.075a2.772,2.772,0,0,0,2.769-2.769v-3.368h1.835a2.772,2.772,0,0,0,2.769-2.769V48.84A2.773,2.773,0,0,0,111.027,46.071Zm-40.09,71.676v-2.814H74.9v2.814Zm34.931,0H101.9v-2.814h3.967Zm4.6-6.137H66.332V49.394h44.141Z" transform="translate(0 0)" fill="#5e5b5c"/><path d="M119.4,71.954H94.728a1.662,1.662,0,1,0,0,3.323H119.4a1.662,1.662,0,1,0,0-3.323Z" transform="translate(-18.664 -16.072)" fill="#5e5b5c"/><path d="M119.4,87.15H94.728a1.662,1.662,0,1,0,0,3.323H119.4a1.662,1.662,0,1,0,0-3.323Z" transform="translate(-18.664 -25.508)" fill="#5e5b5c"/><path d="M119.4,102.347H94.728a1.661,1.661,0,1,0,0,3.323H119.4a1.661,1.661,0,1,0,0-3.323Z" transform="translate(-18.664 -34.944)" fill="#5e5b5c"/><path d="M86.949,165.568a5.749,5.749,0,1,0,5.749,5.749A5.756,5.756,0,0,0,86.949,165.568Zm0,8.175a2.426,2.426,0,1,1,2.426-2.426A2.429,2.429,0,0,1,86.949,173.743Z" transform="translate(-11.295 -74.2)" fill="#5e5b5c"/></g></g></g></svg>