<svg xmlns="http://www.w3.org/2000/svg" xmlns:xlink="http://www.w3.org/1999/xlink" width="160" height="190" viewBox="0 0 160 190"><defs><filter id="a" x="-2" y="2" width="164" height="191" filterUnits="userSpaceOnUse"><feOffset dy="2" input="SourceAlpha"/><feGaussianBlur stdDeviation="6" result="b"/><feFlood flood-color="#44d62c" flood-opacity="0.651"/><feComposite operator="in" in2="b"/><feComposite in="SourceGraphic"/></filter><clipPath id="d"><rect width="160" height="190"/></clipPath></defs><g id="c" clip-path="url(#d)"><g transform="translate(-2299 -328.66)"><g transform="matrix(1, 0, 0, 1, 2299, 328.66)" filter="url(#a)"><g transform="translate(16 18)" fill="#44d62c" stroke="#fff" stroke-width="1" opacity="0.93"><rect width="128" height="155" rx="14" stroke="none"/><rect x="0.5" y="0.5" width="127" height="154" rx="13.5" fill="none"/></g></g><path d="M-48.525-2.977l.019.038a3.177,3.177,0,0,1-.724,2.3A2.857,2.857,0,0,1-51.4.133a3.054,3.054,0,0,1-2.292-.879,3.422,3.422,0,0,1-.857-2.491V-6A3.508,3.508,0,0,1-53.72-8.49,2.893,2.893,0,0,1-51.5-9.375a2.937,2.937,0,0,1,2.225.787,3.334,3.334,0,0,1,.778,2.33l-.019.038h-1.739a2.157,2.157,0,0,0-.248-1.312,1.14,1.14,0,0,0-1-.4,1.059,1.059,0,0,0-.933.477,2.589,2.589,0,0,0-.324,1.442v2.777a2.483,2.483,0,0,0,.346,1.455,1.172,1.172,0,0,0,1.012.477,1.023,1.023,0,0,0,.911-.378,2.256,2.256,0,0,0,.225-1.292Zm.781-.876a3.415,3.415,0,0,1,.733-2.263A2.526,2.526,0,0,1-44.957-7a2.536,2.536,0,0,1,2.057.879,3.4,3.4,0,0,1,.736,2.263V-3A3.387,3.387,0,0,1-42.9-.736a2.541,2.541,0,0,1-2.05.87,2.546,2.546,0,0,1-2.06-.87A3.4,3.4,0,0,1-47.744-3Zm1.8.848a2.867,2.867,0,0,0,.222,1.246.791.791,0,0,0,.774.451.782.782,0,0,0,.759-.455,2.835,2.835,0,0,0,.225-1.243v-.852a2.843,2.843,0,0,0-.225-1.237.785.785,0,0,0-.765-.461.785.785,0,0,0-.765.464,2.847,2.847,0,0,0-.225,1.233Zm6.386-3.863.076.946a2.289,2.289,0,0,1,.7-.79A1.6,1.6,0,0,1-37.867-7a1.591,1.591,0,0,1,1.349.66,3.5,3.5,0,0,1,.492,2.076V0h-1.809V-4.264a1.842,1.842,0,0,0-.2-1,.7.7,0,0,0-.619-.289.822.822,0,0,0-.444.127,1.083,1.083,0,0,0-.343.349V0h-1.8V-6.868Zm6.811-1.708v1.708h.952v1.308h-.952v3.447a1.122,1.122,0,0,0,.121.6.377.377,0,0,0,.33.181,2.076,2.076,0,0,0,.279-.016,2.043,2.043,0,0,0,.254-.054l.14,1.371A3.6,3.6,0,0,1-32.173.1a4.109,4.109,0,0,1-.59.038A1.656,1.656,0,0,1-34.093-.4a2.589,2.589,0,0,1-.46-1.7V-5.561h-.812V-6.868h.813V-8.576Zm4.64,8.709a2.623,2.623,0,0,1-2.057-.851,3.1,3.1,0,0,1-.762-2.146v-.965a3.545,3.545,0,0,1,.708-2.279A2.365,2.365,0,0,1-28.263-7a2.276,2.276,0,0,1,1.866.806,3.366,3.366,0,0,1,.66,2.2v1.1h-3.4v.025a1.9,1.9,0,0,0,.308,1.117,1.061,1.061,0,0,0,.93.438,2.482,2.482,0,0,0,.825-.114,4.341,4.341,0,0,0,.755-.381l.457,1.149a2.723,2.723,0,0,1-.949.565A3.694,3.694,0,0,1-28.111.133Zm-.152-5.687a.67.67,0,0,0-.635.4,2.564,2.564,0,0,0-.229,1.065h1.619v-.255a1.831,1.831,0,0,0-.178-.889A.612.612,0,0,0-28.263-5.554Zm5.084-1.314.076.946a2.289,2.289,0,0,1,.7-.79A1.6,1.6,0,0,1-21.484-7a1.591,1.591,0,0,1,1.349.66,3.5,3.5,0,0,1,.492,2.076V0h-1.809V-4.264a1.842,1.842,0,0,0-.2-1,.7.7,0,0,0-.619-.289.822.822,0,0,0-.444.127,1.083,1.083,0,0,0-.343.349V0h-1.8V-6.868Zm7.338,7A2.623,2.623,0,0,1-17.9-.717a3.1,3.1,0,0,1-.762-2.146v-.965a3.545,3.545,0,0,1,.708-2.279A2.365,2.365,0,0,1-15.993-7a2.276,2.276,0,0,1,1.866.806,3.366,3.366,0,0,1,.66,2.2v1.1h-3.4v.025a1.9,1.9,0,0,0,.308,1.117,1.061,1.061,0,0,0,.93.438,2.482,2.482,0,0,0,.825-.114,4.341,4.341,0,0,0,.755-.381l.457,1.149a2.723,2.723,0,0,1-.949.565A3.694,3.694,0,0,1-15.841.133Zm-.152-5.687a.67.67,0,0,0-.635.4,2.564,2.564,0,0,0-.229,1.065h1.619v-.255a1.831,1.831,0,0,0-.178-.889A.612.612,0,0,0-15.993-5.554ZM-12.8-3.4A5.013,5.013,0,0,1-12.2-6,1.867,1.867,0,0,1-10.521-7,1.4,1.4,0,0,1-9.8-6.8a1.9,1.9,0,0,1,.578.546V-9.9h1.8V0H-8.985l-.121-.749a2.019,2.019,0,0,1-.619.657,1.458,1.458,0,0,1-.8.225A1.882,1.882,0,0,1-12.207-.8,4.531,4.531,0,0,1-12.8-3.263Zm1.8.134a3.889,3.889,0,0,0,.213,1.439.737.737,0,0,0,.72.516.9.9,0,0,0,.489-.131,1.078,1.078,0,0,0,.355-.379V-4.949A1.272,1.272,0,0,0-9.575-5.4a.766.766,0,0,0-.476-.159.764.764,0,0,0-.724.592A4.553,4.553,0,0,0-11-3.4Zm4.539-.591a3.415,3.415,0,0,1,.733-2.263A2.526,2.526,0,0,1-3.672-7a2.536,2.536,0,0,1,2.057.879A3.4,3.4,0,0,1-.879-3.853V-3A3.387,3.387,0,0,1-1.615-.736a2.541,2.541,0,0,1-2.05.87,2.546,2.546,0,0,1-2.06-.87A3.4,3.4,0,0,1-6.459-3Zm1.8.848A2.867,2.867,0,0,0-4.44-1.759a.791.791,0,0,0,.774.451.782.782,0,0,0,.759-.455,2.835,2.835,0,0,0,.225-1.243v-.852a2.843,2.843,0,0,0-.225-1.237.785.785,0,0,0-.765-.461.785.785,0,0,0-.765.464,2.847,2.847,0,0,0-.225,1.233ZM3.317-5.224l-.679-.019a.769.769,0,0,0-.473.14.887.887,0,0,0-.289.394V0H.073V-6.868H1.755l.07.92.032.013a1.873,1.873,0,0,1,.46-.778A.965.965,0,0,1,3.006-7a1.6,1.6,0,0,1,.257.022,1.746,1.746,0,0,1,.238.054ZM9.087,0H7.29V-9.242h1.8Zm3.034-6.868.076.946a2.289,2.289,0,0,1,.7-.79A1.6,1.6,0,0,1,13.816-7a1.591,1.591,0,0,1,1.349.66,3.5,3.5,0,0,1,.492,2.076V0H13.847V-4.264a1.842,1.842,0,0,0-.2-1,.7.7,0,0,0-.619-.289.822.822,0,0,0-.444.127,1.083,1.083,0,0,0-.343.349V0h-1.8V-6.868ZM16.545-3.4A5.013,5.013,0,0,1,17.142-6,1.867,1.867,0,0,1,18.824-7a1.4,1.4,0,0,1,.724.19,1.9,1.9,0,0,1,.578.546V-9.9h1.8V0H20.36L20.24-.749a2.019,2.019,0,0,1-.619.657,1.458,1.458,0,0,1-.8.225A1.882,1.882,0,0,1,17.139-.8a4.531,4.531,0,0,1-.594-2.466Zm1.8.134a3.89,3.89,0,0,0,.213,1.439.737.737,0,0,0,.72.516.9.9,0,0,0,.489-.131,1.078,1.078,0,0,0,.355-.379V-4.949A1.272,1.272,0,0,0,19.77-5.4a.766.766,0,0,0-.476-.159.764.764,0,0,0-.724.592A4.553,4.553,0,0,0,18.348-3.4ZM26.587-.793a2.027,2.027,0,0,1-.676.689,1.712,1.712,0,0,1-.9.238,1.691,1.691,0,0,1-1.438-.7,3.621,3.621,0,0,1-.517-2.155V-6.868h1.8V-2.7a2.361,2.361,0,0,0,.178,1.061.567.567,0,0,0,.527.33,1.169,1.169,0,0,0,.524-.111,1.05,1.05,0,0,0,.384-.327V-6.868h1.809V0H26.7Zm5.821-1a.667.667,0,0,0-.229-.5,3.847,3.847,0,0,0-.876-.524A4.619,4.619,0,0,1,29.751-3.7a1.667,1.667,0,0,1-.517-1.27A1.854,1.854,0,0,1,29.9-6.4,2.533,2.533,0,0,1,31.653-7a2.626,2.626,0,0,1,1.822.609,1.922,1.922,0,0,1,.654,1.555l-.019.038H32.37a1.176,1.176,0,0,0-.178-.686.621.621,0,0,0-.546-.254.685.685,0,0,0-.5.2.638.638,0,0,0-.2.476.638.638,0,0,0,.2.492,4.091,4.091,0,0,0,.882.511,4.278,4.278,0,0,1,1.6.873,1.76,1.76,0,0,1,.521,1.323,1.756,1.756,0,0,1-.7,1.435,2.849,2.849,0,0,1-1.834.559,2.539,2.539,0,0,1-1.879-.692,2.043,2.043,0,0,1-.66-1.562l.013-.038h1.65A1.12,1.12,0,0,0,31-1.371a.9.9,0,0,0,.667.241.781.781,0,0,0,.552-.178A.636.636,0,0,0,32.408-1.8ZM37.2-8.576v1.708h.952v1.308H37.2v3.447a1.122,1.122,0,0,0,.121.6.377.377,0,0,0,.33.181,2.076,2.076,0,0,0,.279-.016,2.043,2.043,0,0,0,.254-.054l.14,1.371A3.6,3.6,0,0,1,37.778.1a4.109,4.109,0,0,1-.59.038A1.656,1.656,0,0,1,35.858-.4a2.589,2.589,0,0,1-.46-1.7V-5.561h-.812V-6.868H35.4V-8.576Zm5.211,3.352-.679-.019a.769.769,0,0,0-.473.14.887.887,0,0,0-.289.394V0h-1.8V-6.868H40.85l.07.92.032.013a1.873,1.873,0,0,1,.46-.778A.965.965,0,0,1,42.1-7a1.6,1.6,0,0,1,.257.022,1.746,1.746,0,0,1,.238.054ZM45.211,0h-1.8V-6.868h1.8Zm0-8.525h-1.8V-9.9h1.8ZM49.813,0a3.082,3.082,0,0,1-.136-.375,3.057,3.057,0,0,1-.092-.413,2.147,2.147,0,0,1-.619.67,1.46,1.46,0,0,1-.847.251,1.756,1.756,0,0,1-1.362-.559,2.124,2.124,0,0,1-.511-1.492A1.955,1.955,0,0,1,46.9-3.485a2.9,2.9,0,0,1,1.933-.559h.679V-4.6a1.381,1.381,0,0,0-.181-.771.61.61,0,0,0-.543-.27.523.523,0,0,0-.457.216,1.085,1.085,0,0,0-.152.628L46.43-4.805l-.019-.038a1.883,1.883,0,0,1,.663-1.523A2.626,2.626,0,0,1,48.906-7a2.451,2.451,0,0,1,1.742.625,2.317,2.317,0,0,1,.67,1.781v2.78a6.016,6.016,0,0,0,.07.946A5.153,5.153,0,0,0,51.6,0ZM48.639-1.225a.929.929,0,0,0,.5-.146,1.084,1.084,0,0,0,.365-.375V-3.009h-.679a.657.657,0,0,0-.6.286A1.312,1.312,0,0,0,48.049-2a.919.919,0,0,0,.159.559A.507.507,0,0,0,48.639-1.225ZM54.345,0h-1.8V-9.9h1.8Z" transform="translate(2379.549 484)" fill="#fff"/><g transform="translate(2342 379.667)"><g transform="translate(0 0)"><path d="M2936.106,1051.374l-.012.216c-.039.078,0,.167-.033.246l-.012.22c-.042.076,0,.164-.033.241l-.014.26c-.038.079,0,.168-.033.248l-.012.217c-.04.077,0,.166-.033.244l-.012.222c-.048.091,0,.195-.036.286q-.006.108-.012.215c-.039.078,0,.167-.033.246l-.012.22c-.042.076,0,.164-.033.242l-.014.26c-.038.079,0,.169-.033.248q-.006.108-.012.217c-.04.078,0,.166-.033.245l-.012.221c-.047.091,0,.195-.035.287l-.012.215c-.039.078,0,.167-.033.246,0,.073-.008.146-.012.219-.042.077,0,.164-.033.242l-.014.259c-.038.079,0,.169-.033.249,0,.072-.008.144-.012.217-.04.078,0,.166-.033.245l-.012.221c-.042.076,0,.163-.033.24,0,.087-.01.174-.014.261-.039.078,0,.168-.033.247,0,.073-.008.146-.012.219-.041.077,0,.165-.033.242,0,.086-.01.173-.014.259-.038.079,0,.169-.033.249l-.012.216c-.039.078,0,.167-.033.245l-.012.221c-.042.076,0,.163-.033.241l-.014.261c-.039.079,0,.168-.033.247l-.012.218c-.041.077,0,.165-.033.243l-.012.222c-.048.091,0,.194-.035.286q-.006.108-.012.216c-.04.078,0,.167-.033.245l-.012.22c-.042.076,0,.164-.033.241l-.014.261c-.038.079,0,.168-.033.248,0,.073-.008.145-.012.218-.041.077,0,.165-.033.244l-.012.222c-.047.091,0,.194-.035.286,0,.072-.008.144-.012.216-.039.078,0,.167-.033.246q-.006.11-.012.22c-.042.076,0,.164-.033.241q-.007.13-.014.261c-.038.079,0,.168-.033.247,0,.073-.008.145-.012.218-.041.077,0,.165-.033.244q-.006.111-.012.222c-.047.091,0,.194-.035.286,0,.072-.008.144-.012.215-.039.078,0,.167-.033.246l-.012.219c-.042.077,0,.164-.033.242,0,.087-.009.173-.014.26-.038.079,0,.169-.033.248,0,.072-.008.145-.012.217-.04.078,0,.166-.033.244l-.012.221c-.047.091,0,.195-.035.287l-.012.215c-.039.078,0,.167-.033.247q-.006.109-.012.219c-.041.077,0,.165-.033.242l-.014.26c-.038.079,0,.168-.033.248,0,.072-.008.144-.012.217-.04.078,0,.166-.033.245q-.006.11-.012.221c-.043.076,0,.163-.033.24,0,.087-.01.174-.014.261-.039.078,0,.167-.033.247.043.211-.074.317-.241.417a4.309,4.309,0,0,1-1.219.61c-.034.008-.13.01-.1.09.049.112.047.258.188.317s.308.131.463.194a1.327,1.327,0,0,1,.764.681c.017.093.052.187-.021.272a.547.547,0,0,0-.054.04c-.15.141-.271.343-.531.25-.079.033-.168-.006-.246.033l-.216.012c-.092.039-.2-.012-.287.035a2.134,2.134,0,0,1-.529-.047,1.114,1.114,0,0,0-.449,0,.951.951,0,0,0-.879.741,13.606,13.606,0,0,0-.3,1.746,2.419,2.419,0,0,0,0,.677,3.586,3.586,0,0,0,.45,1.507,7.4,7.4,0,0,1,.346.69.358.358,0,0,1,0,.228.513.513,0,0,1-.652.222,2.524,2.524,0,0,1-1.213-.664,2.93,2.93,0,0,1-.624-1.231,1.215,1.215,0,0,0-.276-.694.4.4,0,0,0-.231-.128.53.53,0,0,0-.307,0l-.119.022a.1.1,0,0,1-.091-.011c-.19-.279-.372-.563-.573-.834-.1-.132-.049-.183.071-.234a2.179,2.179,0,0,1,.369-.159c.235-.05.3-.183.278-.406-.017-.174,0-.35,0-.526.053-.312-.01-.627.033-.939v-.521c-.828.246-1.641.493-2.458.728-.671.193-1.334.418-2.02.556a2.8,2.8,0,0,1-.316.028c-.109.038-.227-.014-.334.033l-.852,0a.723.723,0,0,1-.021-.411q.006-.2.013-.4c.05-.14-.008-.288.034-.428q.006-.179.012-.357c.05-.139-.008-.287.034-.427q.006-.2.013-.4c.046-.126-.006-.26.033-.387l.013-.4c.046-.126-.006-.26.033-.386q.007-.2.013-.4c.047-.125-.005-.259.033-.385q.007-.2.013-.4c.047-.125-.006-.258.033-.384l.013-.4c.05-.14-.008-.288.034-.429l.011-.357c.05-.139-.008-.288.034-.428l.012-.358c.051-.139-.008-.287.034-.427q.006-.2.013-.4c.046-.126-.006-.26.033-.386q.006-.2.013-.4c.046-.125-.006-.259.033-.385q.006-.2.013-.4c.047-.125-.006-.258.033-.384l.013-.4c.047-.125-.006-.258.033-.383l.013-.4c.05-.14-.008-.288.034-.428l.012-.358c.05-.139-.008-.287.034-.427q.007-.2.013-.4c.046-.126-.006-.26.033-.386,0-.133.009-.266.013-.4.046-.125-.006-.259.033-.385q.007-.2.013-.4c.047-.125-.005-.259.033-.384l.013-.4c.047-.125-.006-.258.033-.383l.013-.4c.05-.14-.008-.288.034-.428l.012-.357c.05-.139-.008-.287.034-.427q.006-.2.013-.4c.046-.126-.006-.26.033-.387l.013-.4c.046-.126-.006-.26.033-.386l.013-.4c.047-.125-.006-.259.033-.385q.006-.2.013-.4c.047-.125-.006-.258.033-.383,0-.134.009-.269.013-.4.05-.14-.008-.288.034-.429l.011-.357c.05-.139-.008-.287.034-.427,0-.12.008-.239.012-.358.05-.139-.008-.287.034-.427l.013-.4c.046-.126-.006-.26.033-.386l.013-.4c.046-.125-.006-.259.033-.385l.013-.4c.047-.125-.006-.258.033-.384l.013-.4c.047-.125-.006-.257.033-.383,0-.134.009-.269.013-.4.05-.14-.008-.287.034-.427,0-.119.008-.239.012-.358.051-.139-.008-.287.034-.427,0-.133.008-.266.013-.4.046-.126-.006-.26.033-.386l.013-.4c.046-.125-.006-.259.033-.385q.006-.2.013-.4c.047-.125-.006-.258.033-.384,0-.134.009-.268.013-.4.047-.124-.005-.258.033-.383l.013-.4c.05-.14-.008-.288.034-.428,0-.119.008-.239.012-.358.05-.139-.008-.287.034-.427q.006-.2.013-.4c.046-.126-.006-.26.033-.387l.013-.4c.046-.125-.006-.259.033-.385l.013-.4c.047-.125-.006-.259.033-.385l.013-.4c.047-.125-.006-.258.033-.383,0-.134.009-.268.013-.4.05-.14-.008-.288.034-.429l.011-.357c.051-.139-.008-.287.034-.427l.012-.358c.051-.139-.008-.287.034-.427q.007-.2.013-.4c.046-.125-.006-.26.033-.386l.013-.4c.047-.125-.006-.259.033-.385,0-.134.009-.267.013-.4.047-.125-.006-.258.033-.384l.013-.4c.049-.14-.009-.288.034-.429l.011-.357c.05-.139-.008-.287.034-.427l.012-.358c.05-.139-.008-.287.034-.427q.006-.2.013-.4c.046-.126-.006-.26.033-.386l.013-.4c.046-.125-.006-.259.033-.385q.007-.2.013-.4c.047-.125-.005-.258.033-.384q.007-.2.013-.4c.048-.124-.005-.257.033-.383l.013-.4c.05-.14-.008-.288.034-.428l.012-.358c.051-.139-.008-.287.034-.427q.006-.2.013-.4c.046-.126-.006-.26.033-.387q.007-.2.013-.4c.046-.125-.006-.259.033-.385l.013-.4c.047-.125-.006-.259.033-.385q.006-.2.013-.4c.047-.125-.006-.258.033-.383,0-.134.009-.269.013-.4.05-.14-.008-.288.034-.429l.012-.357c.05-.139-.008-.287.034-.427l.012-.358c.05-.139-.008-.287.034-.427l.013-.4c.046-.126-.006-.26.033-.386,0-.134.009-.267.013-.4.047-.125-.006-.259.033-.385,0-.134.009-.267.013-.4.047-.125-.006-.258.033-.384.006-.064.015-.113.106-.1.3.056.608.1.909.158.17.035.054.195.1.289-.046.125.006.259-.033.385,0,.133-.009.267-.013.4-.046.125.006.259-.033.385l-.013.4c-.046.125.006.259-.033.385l-.013.4c-.047.125.006.259-.033.384q-.007.2-.013.4c-.047.125.006.258-.033.384q-.007.2-.013.4c-.047.125.006.258-.033.384l-.013.4c-.047.125.006.258-.033.383l-.013.4c-.047.124.006.258-.033.383q-.007.2-.013.4c-.048.124.005.257-.033.382l-.013.4c-.05.14.008.288-.034.429l-.012.357c-.05.14.008.288-.034.428l-.012.357c-.051.139.008.287-.035.428l-.012.357c-.051.139.008.287-.034.427,0,.119-.008.239-.012.358-.05.139.008.287-.034.427,0,.119-.008.239-.012.358-.051.139.008.287-.034.427l-.012.358c-.051.139.008.287-.035.427,0,.133-.008.265-.012.4-.046.126.006.26-.033.387,0,.133-.009.266-.013.4-.046.126.006.26-.033.386,0,.133-.009.266-.013.4-.046.126.006.26-.033.386,0,.133-.009.266-.013.4-.046.125.006.259-.033.385q-.007.2-.013.4c-.046.125.006.259-.033.385,0,.133-.009.267-.013.4-.047.125.006.259-.033.385l-.013.4c-.047.125.006.259-.033.385,0,.134-.009.267-.013.4-.047.125.006.258-.033.384,0,.134-.009.267-.013.4-.047.125.006.258-.033.384q-.006.2-.013.4c-.047.125.006.258-.033.383l-.013.4c-.047.124.006.257-.033.383l-.013.4c-.048.124.005.257-.033.382l-.013.4c-.05.14.009.288-.034.428l-.012.357c-.05.14.008.288-.034.428,0,.119-.008.238-.012.357-.05.139.008.287-.035.428q-.005.179-.012.357c-.05.139.008.287-.034.427l-.012.358c-.05.139.008.287-.034.427q-.006.179-.012.358c-.051.139.008.287-.034.427q-.007.2-.013.4c-.046.126.006.26-.034.387,0,.133-.009.265-.012.4-.046.126.006.26-.033.387,0,.133-.009.266-.013.4-.046.126.006.26-.033.386,0,.133-.009.266-.013.4-.046.126.006.26-.033.386q-.006.2-.013.4c-.046.125.006.259-.033.385q-.006.2-.013.4c-.046.125.006.259-.033.385l-.013.4c-.047.125.006.259-.033.385,0,.133-.009.267-.013.4-.047.125.006.258-.033.384q-.006.2-.013.4c-.047.125.006.258-.033.384q-.007.2-.013.4c-.047.125.006.258-.033.384,0,.134-.009.268-.013.4-.047.125.006.258-.033.383q-.007.2-.013.4c-.048.124.005.257-.033.383q-.007.2-.013.4c-.048.124.005.257-.033.382q-.007.2-.013.4c-.05.14.008.288-.034.428l-.011.357c-.05.139.008.288-.034.428l-.012.357c-.051.139.008.287-.035.428q-.005.178-.012.357c-.05.139.008.287-.034.427l-.012.358c-.05.139.008.287-.034.427l-.012.358c-.051.139.008.287-.034.427q-.006.2-.013.4c-.046.126.006.26-.034.387l-.012.4c-.046.126.006.26-.033.386,0,.133-.009.266-.013.4-.046.126.006.26-.033.386l-.013.4c-.046.126.006.26-.033.386l-.013.4c-.046.125.006.259-.033.385q-.007.2-.013.4c-.046.125.006.259-.033.385,0,.133-.009.267-.013.4-.047.125.006.259-.033.385,0,.134-.009.267-.013.4-.047.125.006.258-.033.384l-.013.4c-.047.125.006.258-.033.384q-.007.2-.013.4c-.047.125.006.258-.033.384q-.007.2-.013.4c-.047.125.006.258-.033.383,0,.134-.009.268-.013.4-.048.124.005.258-.033.382l-.013.4c-.048.124.006.257-.033.382q-.006.2-.013.4c-.05.14.009.288-.034.428l-.011.357c-.05.139.008.288-.034.428l-.012.357c-.05.139.008.287-.035.427l-.012.357a.382.382,0,0,0,0,.257c.1.058.137,0,.143-.09.007-.107,0-.214,0-.321.046-.125-.006-.259.033-.385l.013-.4c.047-.125-.006-.259.033-.385,0-.133.009-.267.013-.4.047-.125-.006-.259.033-.385,0-.134.009-.267.013-.4.047-.125-.006-.258.033-.384q.007-.2.013-.4c.047-.125-.006-.258.033-.384q.007-.2.013-.4c.047-.125-.006-.258.033-.383,0-.134.008-.268.013-.4.047-.125-.006-.258.033-.383q.006-.2.013-.4c.048-.124-.005-.257.033-.382l.013-.4c.05-.14-.008-.288.034-.428l.012-.357c.05-.14-.008-.288.034-.428l.012-.357c.05-.14-.008-.288.034-.428l.012-.357c.05-.139-.008-.287.034-.427l.012-.358c.05-.139-.008-.287.034-.427l.012-.358c.05-.139-.008-.287.034-.427q.007-.2.013-.4c.046-.126-.006-.26.033-.387l.013-.4c.046-.126-.006-.26.033-.386l.013-.4c.046-.126-.006-.26.033-.386q.007-.2.013-.4c.046-.126-.006-.26.033-.386q.007-.2.013-.4c.046-.125-.006-.259.033-.385q.007-.2.013-.4c.046-.125-.006-.259.033-.385l.013-.4c.047-.125-.006-.259.033-.385q.007-.2.013-.4c.047-.125-.006-.258.033-.384,0-.134.009-.267.013-.4.047-.125-.006-.258.033-.384q.006-.2.013-.4c.047-.125-.006-.258.033-.384q.006-.2.013-.4c.047-.125-.006-.258.033-.383,0-.134.009-.268.013-.4.047-.125-.006-.258.033-.383,0-.134.009-.268.013-.4.048-.124-.005-.257.033-.382,0-.134.009-.269.013-.4.05-.14-.009-.288.034-.428l.012-.357c.05-.139-.008-.287.034-.428l.012-.357c.05-.14-.008-.288.034-.428l.012-.358c.051-.139-.008-.287.034-.427l.012-.358c.051-.139-.008-.287.034-.427l.012-.358c.051-.139-.008-.287.034-.427,0-.133.008-.265.013-.4.046-.126-.006-.26.033-.387l.013-.4c.046-.126-.006-.26.033-.386,0-.133.009-.266.013-.4.046-.126-.006-.26.033-.386q.006-.2.013-.4c.046-.126-.006-.26.033-.386l.013-.4c.046-.125-.006-.259.032-.385l.013-.4c.046-.125-.006-.259.033-.385l.013-.4c.047-.125-.006-.259.033-.385l.013-.4c.047-.125-.006-.258.033-.384,0-.134.009-.267.013-.4.047-.125-.006-.258.033-.384q.007-.2.013-.4c.048-.125-.006-.258.033-.384q.007-.2.013-.4c.047-.125-.006-.258.033-.383l.013-.4c.047-.125-.006-.257.033-.383q.007-.2.013-.4c.048-.124-.005-.257.033-.382,0-.134.009-.269.013-.4.05-.14-.008-.288.034-.428l.012-.357c.05-.139-.008-.288.034-.428l.012-.357c.05-.139-.008-.287.034-.427,0-.119.008-.238.012-.358.05-.139-.008-.287.034-.427l.012-.358c.05-.139-.008-.287.034-.427l.012-.358c.05-.139-.008-.287.034-.427q.007-.2.013-.4c.046-.126-.006-.26.033-.387l.013-.4c.046-.126-.006-.26.033-.386q.007-.2.013-.4c.046-.126-.006-.26.033-.386q.007-.2.013-.4c.046-.125-.006-.259.033-.385,0-.133.009-.266.013-.4.046-.125-.006-.259.033-.385l.013-.4c.046-.125-.006-.259.033-.385q.007-.2.013-.4c.047-.125-.006-.259.033-.385l.013-.4c.047-.125-.006-.258.033-.384,0-.134.009-.267.013-.4.047-.125-.006-.258.033-.384l.013-.4c.047-.125-.006-.258.033-.383l.013-.4c.047-.125-.006-.258.033-.383l.013-.4c.047-.124-.006-.257.033-.383l.013-.4c.05-.14-.008-.288.035-.429,0-.119.008-.238.012-.357.05-.14-.008-.288.034-.428l.011-.357c.05-.139-.008-.288.034-.428l.012-.357c.051-.139-.008-.287.034-.427l.012-.358c.051-.139-.008-.287.034-.427q.006-.179.012-.358c.034-.092.1-.094.179-.067.491.095.982.194,1.474.283,1.1.2,2.2.4,3.3.59.87.15,1.742.285,2.613.428.728.119,1.454.244,2.183.355.692.1,1.385.194,2.078.291.211.03.422.064.633.1.017.008.024.018.019.029s-.009.017-.014.017q0,.2-.008.394c-.041.077,0,.165-.033.244l-.012.222c-.047.091,0,.194-.035.286,0,.072-.008.144-.012.215-.039.078,0,.167-.033.246l-.012.22c-.042.076,0,.164-.033.242l-.014.26c-.038.079,0,.168-.033.248l-.012.217c-.04.078,0,.166-.033.244l-.012.221c-.047.091,0,.195-.035.287l-.012.215c-.039.078,0,.167-.033.246q-.006.109-.012.219c-.041.077,0,.164-.033.242l-.014.26c-.038.079,0,.168-.033.248l-.012.217c-.04.078,0,.166-.033.244,0,.074-.008.147-.012.221-.043.076,0,.163-.033.24l-.014.261c-.039.078,0,.168-.033.247l-.012.219c-.041.077,0,.165-.033.243l-.014.259c-.038.079,0,.169-.034.249l-.012.216c-.04.078,0,.166-.033.245l-.012.221c-.042.076,0,.163-.033.24l-.014.261c-.039.079,0,.168-.033.247l-.012.219c-.041.077,0,.165-.033.243l-.014.259c-.038.079,0,.169-.034.249l-.012.216c-.04.078,0,.166-.033.245,0,.073-.008.147-.012.221-.042.076,0,.163-.033.241l-.014.261c-.038.079,0,.168-.033.248,0,.073-.008.145-.012.218-.041.077,0,.165-.033.243l-.012.222c-.048.091,0,.194-.035.286l-.012.216c-.039.078,0,.167-.033.246l-.012.22c-.042.076,0,.164-.033.241l-.014.261c-.039.079,0,.168-.033.248q-.006.109-.012.218c-.04.077,0,.165-.033.244l-.012.222c-.047.091,0,.195-.035.286l-.012.216c-.039.078,0,.167-.033.246l-.012.22c-.042.076,0,.164-.033.242l-.014.26c-.038.079,0,.168-.034.248q-.006.109-.012.217c-.04.077,0,.166-.033.244l-.012.222c-.047.091,0,.194-.035.286l-.012.215c-.039.078,0,.167-.033.246,0,.073-.008.146-.012.22-.041.077,0,.164-.033.242l-.014.26c-.038.079,0,.169-.033.248l-.012.217c-.04.078,0,.166-.033.245l-.012.221c-.047.091,0,.195-.035.287l-.012.215c-.039.078,0,.167-.033.246l-.012.219c-.041.077,0,.165-.033.242l-.014.26c-.038.079,0,.169-.034.249,0,.072-.008.144-.012.217-.04.078,0,.166-.033.245l-.012.221c-.042.076,0,.163-.033.241l-.014.261c-.039.078,0,.168-.033.247q-.006.109-.012.218c-.041.077,0,.165-.033.243l-.014.259c-.038.08,0,.169-.034.249q-.006.108-.012.216c-.04.078,0,.166-.033.245l-.012.221c-.042.076,0,.164-.033.241,0,.087-.01.174-.014.261-.038.079,0,.168-.033.247q-.006.109-.012.218c-.041.077,0,.165-.033.243l-.012.222c-.048.091,0,.194-.035.286q-.006.108-.012.216c-.039.078,0,.167-.033.246,0,.073-.008.147-.012.22-.042.076,0,.164-.033.241l-.014.261c-.039.079,0,.168-.033.248l-.012.218c-.04.077,0,.165-.033.244l-.012.222C2936.094,1051.179,2936.145,1051.282,2936.106,1051.374Z" transform="translate(-2872.719 -1011.691)" fill="#fff"/><path d="M2667.941,999.86l.4-.012c.141-.041.29.015.43-.034l.4-.012c.141-.041.29.015.43-.034.206-.042.353.125.551.144a30.068,30.068,0,0,0,3.505.061q1.8-.042,3.6-.119,2.95-.122,5.9-.306c1.1-.069,2.2-.128,3.293-.2,1.282-.081,2.558-.217,3.836-.345,1.239-.125,2.477-.259,3.714-.395q2.212-.242,4.422-.493,2.1-.237,4.192-.479,2.268-.263,4.534-.532,2.038-.24,4.075-.483a20.491,20.491,0,0,1,2.733-.219,19.49,19.49,0,0,1,3.808.509c1.6.343,3.211.644,4.818.96,1.335.263,2.67.527,4.007.778,1.772.333,3.547.651,5.319.979.785.146,1.567.3,2.352.449.072.013.165.054.235-.024s.149-.032.226-.024l.266.012c.107.048.225-.005.334.035l.266.011c.107.048.225-.005.334.035l.266.012c.107.048.225-.005.334.035l.266.011c.107.049.225-.005.334.035l.266.012c.107.048.225-.005.334.035a3.71,3.71,0,0,1,.865.153,1.38,1.38,0,0,1,.608.41,1.23,1.23,0,0,1,.015.5,7.356,7.356,0,0,1-.05.768c-.027.111.037.13.131.1a.719.719,0,0,0,.325-.188c.057-.08,0-.177.039-.259.094-.3.209-.329.438-.1.074.075.138.158.208.238s0,.2.051.288c0,.119.009.238.013.358.036.11-.012.229.032.338,0,.107.008.214,0,.321a.333.333,0,0,1-.214.321c-.132.053-.2-.05-.281-.119a1.241,1.241,0,0,1-.287-.353c-.074-.134-.161-.092-.269-.07-.149.03-.079.114-.066.188a.522.522,0,0,1-.238.573c-.032.021-.06.048-.091.07a.8.8,0,0,1-.74.11c-.568-.172-1.164-.22-1.739-.363a.667.667,0,0,0-.183.007,2.243,2.243,0,0,1-.55,0l-.449-.013c-.108-.047-.226,0-.335-.034l-.266-.012c-.092-.046-.2,0-.288-.035-.509-.049-1.019-.089-1.527-.15-.407-.049-.811-.129-1.217-.185-.577-.08-1.156-.145-1.732-.229-.449-.066-.9-.159-1.344-.23-.515-.082-1.033-.149-1.549-.231-.4-.063-.789-.144-1.185-.212-.425-.073-.851-.139-1.277-.21q-.549-.092-1.1-.191c-.49-.089-.978-.181-1.468-.271l-1.88-.343c-.622-.115-1.245-.222-1.863-.351a5.115,5.115,0,0,1-.74-.233,8.984,8.984,0,0,0-1.428-.362c-.321-.063-.649-.093-.974-.137-.079-.038-.168,0-.248-.032l-.4-.013c-.233-.052-.473.011-.707-.034l-.7.047c-.08.031-.168-.006-.248.032a9.817,9.817,0,0,0-2.524.514,2.66,2.66,0,0,1-.6.146c-.076.035-.164-.01-.239.035l-.177.011c-.077.036-.165-.008-.241.035l-.221.013c-.076.033-.164-.01-.24.034l-.684.059c-.078.032-.166-.009-.242.033l-.219.012c-.08.033-.169,0-.249.033l-.26.014c-.079.032-.168-.006-.247.033l-.261.013c-.093.038-.2-.012-.287.035l-.221.011c-.094.038-.2-.009-.291.034l-.263.012c-.094.037-.2-.009-.292.034l-.262.012c-.095.037-.2-.009-.293.034l-.307.013c-.094.035-.2-.01-.292.033l-.308.013c-.094.035-.2-.01-.291.033l-.309.013c-.108.039-.226-.014-.334.034l-.312.013c-.095.034-.2-.009-.293.032l-.354.014c-.109.037-.227-.014-.334.033l-.312.012c-.11.038-.229-.012-.338.033l-.354.013c-.111.037-.229-.011-.34.033l-.353.013c-.125.04-.258-.014-.382.034l-.357.013c-.125.04-.258-.015-.382.033l-.356.013c-.127.039-.261-.013-.387.033l-.4.013c-.14.042-.288-.016-.428.034l-.4.013c-.125.038-.259-.014-.384.033l-.4.013c-.14.041-.288-.016-.427.034l-.4.012c-.156.043-.319-.017-.474.034l-.4.012c-.156.043-.319-.017-.473.034l-.4.012c-.156.042-.32-.016-.475.034l-.495.013c-.156.041-.318-.017-.473.033l-.449.012c-.171.043-.349-.017-.519.034l-.451.012c-.172.042-.351-.017-.522.034l-.54.013c-.171.042-.349-.017-.52.033l-.5.012c-.173.042-.352-.017-.524.033l-.584.013c-.187.042-.38-.018-.566.034l-.542.012c-.188.043-.382-.017-.569.033l-.585.013c-.2.041-.412-.016-.614.033l-.632.013c-.2.041-.41-.017-.612.033l-.588.012c-.233.045-.471-.019-.7.034l-.635.012c-.219.043-.443-.018-.661.033l-.678.012c-.248.043-.5-.018-.75.034l-.681.012c-.249.043-.5-.017-.752.034l-.772.013c-.249.042-.5-.017-.752.033l-.817.013c-.28.044-.565-.019-.845.033l-.863.013c-.28.044-.564-.02-.843.034l-.865.012c-.327.045-.658-.019-.985.033l-1,.013c-.326.044-.656-.02-.983.033l-1.094.012c-.086.042-.187-.018-.272.038a1.248,1.248,0,0,1-1.032-.274.281.281,0,0,1-.079-.251q0-.4,0-.8c.052-.3-.01-.594.034-.89a.956.956,0,0,1,.332-.747c.11-.042.229.011.338-.035l.4-.013C2667.652,999.852,2667.8,999.908,2667.941,999.86Z" transform="translate(-2666.402 -991.791)" fill="#fff"/><path d="M2687.365,978.047l.313-.012c.124-.041.257.015.38-.035l.312-.012c.124-.041.257.015.38-.035l.313-.012c.109-.038.227.013.335-.033l.311-.012c.11-.038.229.012.338-.033l.308-.012c.11-.039.23.011.34-.034l.353-.014c.1-.034.2.01.293-.032l.307-.013c.109-.039.228.012.337-.034l.309-.013c.109-.039.226.014.334-.034l.313-.013c.095-.034.2.009.293-.032l.307-.013c.109-.04.227.013.334-.034l.266-.012c.109-.04.228.012.336-.034l.31-.013c.094-.034.2.01.291-.032l.309-.013c.094-.034.2.01.292-.033l.309-.013c.095-.035.2.009.292-.033l.308-.014c.094-.035.2.01.29-.033l.263-.012c.1-.037.2.008.295-.033l.305-.014c.094-.035.2.01.291-.033l.263-.012c.108-.041.226.014.333-.035l.267-.012c.095-.036.2.009.292-.033l.308-.014c.08-.031.168.005.248-.032l.306-.014c.08-.031.168.005.248-.032l.306-.014c.08-.031.168.005.248-.032l.306-.014c.08-.031.168.005.248-.032l.259-.012c.1-.038.2.008.294-.034l.26-.012c.1-.038.2.008.294-.034l.26-.012c.094-.038.2.009.292-.034l.263-.013c.08-.032.169,0,.249-.033l.259-.013c.093-.038.2.011.289-.034l.265-.013c.079-.031.168.006.247-.032l.261-.013c.093-.038.2.012.287-.034l.221-.011c.094-.038.2.009.291-.034l.263-.014c.08-.031.169.005.248-.032l.26-.013c.08-.033.169.005.248-.033l.26-.013c.08-.033.168.005.248-.033l.26-.013c.079-.033.168.005.247-.033l.261-.014c.079-.033.167.006.246-.033l.262-.014c.077-.032.165.009.241-.033l.22-.012c.079-.034.169,0,.248-.033l.26-.014c.079-.032.167.007.245-.033l.217-.012c.08-.034.169,0,.249-.033l.259-.014c.078-.033.165.009.242-.033l.22-.012c.079-.034.167.006.246-.033l.216-.012c.079-.034.169,0,.248-.033.552-.016,1.1-.094,1.645-.153.077-.033.164.01.239-.033l.176-.01c.079-.035.168,0,.247-.034l.215-.013c.078-.035.167.007.243-.034l.219-.013c.077-.034.165.009.24-.034a3.207,3.207,0,0,0,.637-.058c.077-.035.165.008.241-.034a3.236,3.236,0,0,0,.636-.059c.076-.034.164.01.239-.034l.177-.011c.077-.035.166.008.242-.034.68-.03,1.352-.145,2.03-.205.213-.019.424-.055.636-.083.076-.037.165.009.24-.035a6.726,6.726,0,0,0,.96-.1c.076-.038.165.009.24-.036.615-.067,1.231-.13,1.845-.2q1.23-.147,2.458-.309,1.1-.145,2.2-.3c.306-.044.313-.047.313.253,0,.684,0,1.367,0,2.051,0,.087-.041.228.142.159a.39.39,0,0,0,.023-.224c0-.71,0-1.42,0-2.131,0-.072-.032-.153.034-.216l3.588-1.584c.1-.186.271-.083.414-.089a2.76,2.76,0,0,1,1.38.769.5.5,0,0,1,.182.447c0,.03,0,.063,0,.092-.118.573.235.869.656,1.132a12.7,12.7,0,0,0,2.046.894q2.771,1.11,5.548,2.21,2.87,1.139,5.743,2.273c.077.031.154.063.231.095,0,.1-.093.038-.133.068l-1.16-.225c-.554-.106-1.111-.2-1.664-.312-.61-.128-1.229-.217-1.842-.331s-1.212-.239-1.819-.353c-.7-.132-1.407-.252-2.109-.385-.832-.158-1.661-.336-2.495-.482-.469-.082-.941-.161-1.4-.267-1.4-.321-2.81-.567-4.21-.875a14.622,14.622,0,0,0-5.067-.192c-1.486.194-2.976.355-4.464.531q-2.266.268-4.533.534-2.1.244-4.191.479-2.176.247-4.353.488-1.845.2-3.691.388c-1.2.12-2.4.239-3.6.339-.865.072-1.733.119-2.6.168-2.15.121-4.3.25-6.45.35-2.3.107-4.6.2-6.9.147a4.5,4.5,0,0,1-1.206-.128c-.038-.079,0-.168-.035-.247l-.015-.262c-.032-.078.009-.165-.032-.241a2.02,2.02,0,0,1,.329-1.137c.1-.148.187-.257.388-.185a.545.545,0,0,0,.2-.012c.125-.041.259.013.385-.034l.354-.013c.124-.041.257.015.381-.034l.312-.012c.124-.041.257.015.381-.034l.312-.012C2687.109,978.04,2687.242,978.1,2687.365,978.047Z" transform="translate(-2680.567 -972.425)" fill="#fff"/><path d="M2991.806,1045.358a2.648,2.648,0,0,0-.059.633c-.041.078,0,.167-.035.245l-.011.175c-.043.076,0,.164-.034.24a2.667,2.667,0,0,0-.059.634c-.041.077,0,.166-.034.244l-.011.175c-.044.075,0,.163-.035.24a2.64,2.64,0,0,0-.059.635c-.042.076,0,.165-.034.242l-.011.176c-.044.075,0,.163-.034.239a2.671,2.671,0,0,0-.059.635c-.042.076,0,.165-.034.242a2.651,2.651,0,0,0-.059.632c-.04.078,0,.167-.034.245l-.011.174c-.043.076,0,.164-.034.241a2.665,2.665,0,0,0-.059.633c-.041.077,0,.166-.034.244l-.011.175c-.044.076,0,.164-.034.24a2.647,2.647,0,0,0-.059.634c-.042.077,0,.166-.034.243l-.011.176c-.044.075,0,.163-.034.24a2.652,2.652,0,0,0-.059.635c-.042.077,0,.165-.035.243,0,.059-.007.118-.011.176-.044.075,0,.163-.034.239l-.013.216c-.04.078,0,.167-.034.246l-.011.174c-.042.076,0,.165-.034.242a2.656,2.656,0,0,0-.059.632c-.04.078,0,.167-.034.245l-.011.175c-.043.076,0,.164-.035.24a2.692,2.692,0,0,0-.059.633c-.041.077,0,.166-.034.244l-.011.175c-.044.075,0,.163-.034.24a2.635,2.635,0,0,0-.059.634c-.042.077,0,.166-.034.243l-.011.176c-.044.075,0,.163-.034.239a2.681,2.681,0,0,0-.059.635c-.042.076,0,.165-.034.242a2.637,2.637,0,0,0-.059.631c-.04.078,0,.167-.034.246l-.011.174c-.043.076,0,.164-.035.241a2.66,2.66,0,0,0-.059.633c-.041.078,0,.167-.034.245l-.011.175c-.043.076,0,.164-.034.24a2.63,2.63,0,0,0-.059.633c-.041.077,0,.166-.035.244l-.011.175c-.044.075,0,.164-.034.24a2.627,2.627,0,0,0-.059.635c-.042.077,0,.165-.034.243l-.011.176c-.044.075,0,.163-.035.239l-.013.217c-.04.078,0,.167-.034.245l-.012.214c-.039.079,0,.168-.034.247l-.011.176c-.043.075,0,.163-.034.24,0,.073-.009.147-.013.22-.042.076,0,.164-.034.242q-.006.109-.013.217c-.04.077,0,.166-.034.245l-.012.214c-.039.079,0,.168-.034.247l-.01.176c-.044.075,0,.162-.034.239l-.013.22c-.042.076,0,.164-.033.241l-.013.217c-.04.077,0,.166-.034.245,0,.071-.009.143-.013.215-.039.078,0,.168-.034.247l-.01.176c-.044.075,0,.163-.034.239l-.013.22c-.042.076,0,.164-.034.241l-.013.218c-.041.077,0,.166-.034.244l-.013.215c-.039.078,0,.168-.034.247a2.613,2.613,0,0,0-.057.636c-.043.076,0,.164-.034.241l-.013.218c-.041.077,0,.166-.034.244,0,.072-.009.144-.013.215-.039.078,0,.167-.034.246a2.652,2.652,0,0,0-.057.636c-.043.076,0,.164-.033.241l-.013.219c-.041.077,0,.165-.034.243,0,.072-.009.144-.013.215-.039.078,0,.167-.034.246a2.631,2.631,0,0,0-.057.637c-.043.076,0,.163-.034.24,0,.073-.008.146-.013.219-.042.077,0,.165-.034.243,0,.072-.009.144-.013.216-.04.078,0,.167-.034.246a2.644,2.644,0,0,0-.057.637c-.043.075,0,.163-.034.24,0,.073-.009.146-.013.219-.042.077,0,.165-.034.242l-.013.216c-.04.078,0,.167-.034.245.005.17-.078.246-.242.3a1.918,1.918,0,0,0-.8.422.416.416,0,0,0-.019.659,1.214,1.214,0,0,0,.437.328c.13.052.133.1.016.182-.327.222-.726.3-1.045.544a3.088,3.088,0,0,1-.337.194.3.3,0,0,1-.012-.224l.014-.261c.039-.079,0-.168.034-.247,0-.073.008-.146.012-.218.041-.077,0-.165.033-.243l.012-.222c.047-.091,0-.194.035-.286l.012-.216c.04-.078,0-.167.033-.245q.006-.11.012-.22c.042-.076,0-.164.033-.241l.014-.261c.038-.079,0-.168.034-.248,0-.073.008-.145.012-.218.041-.077,0-.165.033-.243l.012-.222c.048-.091,0-.194.035-.286l.012-.216c.039-.078,0-.167.033-.246l.012-.22c.042-.076,0-.164.033-.241l.014-.261c.039-.079,0-.168.033-.248l.012-.218c.04-.077,0-.165.033-.244l.012-.222c.047-.091,0-.194.036-.286l.012-.215c.039-.078,0-.167.033-.246l.012-.22c.042-.076,0-.164.033-.242,0-.087.01-.174.014-.26.038-.079,0-.168.034-.248l.012-.217c.04-.078,0-.166.033-.245l.012-.221c.047-.091,0-.195.035-.287q.006-.108.012-.215c.039-.078,0-.167.033-.246l.012-.219c.042-.076,0-.164.033-.242q.007-.13.014-.26c.038-.079,0-.169.033-.249l.012-.217c.04-.077,0-.166.033-.244q.006-.111.012-.221c.043-.076,0-.163.033-.24,0-.087.01-.174.014-.262.039-.078,0-.167.033-.246q.006-.11.012-.219c.041-.077,0-.165.033-.242l.014-.259c.038-.079,0-.169.034-.249,0-.072.008-.144.012-.216.039-.078,0-.166.033-.245l.012-.22c.042-.076,0-.164.033-.241l.014-.261c.039-.079,0-.168.034-.247l.012-.219c.041-.077,0-.165.033-.243,0-.086.009-.173.014-.259.038-.08,0-.169.034-.249,0-.072.008-.144.012-.216.04-.078,0-.166.033-.245l.012-.221c.042-.076,0-.163.033-.241l.014-.26c.039-.079,0-.168.033-.248l.012-.218c.041-.077,0-.165.033-.243l.012-.222c.047-.091,0-.194.035-.286,0-.072.008-.144.012-.216.039-.078,0-.167.033-.246l.012-.22c.042-.076,0-.164.033-.241l.014-.261c.039-.079,0-.168.034-.247q.006-.109.012-.218c.041-.077,0-.165.033-.244l.012-.222c.047-.091,0-.194.036-.286,0-.072.008-.144.012-.216.039-.078,0-.167.033-.246,0-.073.008-.146.012-.22.042-.077,0-.164.033-.242l.014-.26c.038-.079,0-.168.033-.248q.006-.109.012-.217c.04-.077,0-.166.033-.244l.012-.222c.048-.091,0-.194.036-.286l.012-.215c.039-.078,0-.167.033-.246q.006-.11.012-.219c.042-.077,0-.165.033-.242l.014-.26c.038-.079,0-.169.034-.248q.006-.108.012-.217c.04-.078,0-.166.033-.245,0-.074.008-.147.012-.221.047-.091,0-.195.035-.287l.012-.215c.039-.078,0-.167.033-.246,0-.073.008-.146.012-.219.041-.076,0-.164.033-.242l.014-.26c.038-.079,0-.169.034-.249,0-.072.008-.144.012-.217.04-.078,0-.166.033-.245l.012-.221c.042-.076,0-.163.033-.241l.014-.261c.039-.078,0-.167.033-.247q.006-.109.012-.219c.041-.077,0-.165.033-.243,0-.086.01-.173.014-.259.038-.079,0-.169.033-.249l.012-.216c.039-.078,0-.166.033-.245l.012-.22c.042-.076,0-.164.033-.241l.014-.261c.039-.079,0-.168.033-.247l.012-.218c.041-.077,0-.165.033-.243l.012-.222c.048-.091,0-.194.035-.286l.012-.216c.039-.078,0-.167.033-.246q.006-.11.012-.22c.042-.076,0-.164.033-.241l.014-.26c.039-.079,0-.168.033-.247q.006-.109.012-.218c.04-.077,0-.165.033-.244l.012-.222c.048-.091,0-.194.035-.286l.012-.216c.039-.078,0-.167.033-.246l.012-.22c.042-.076,0-.164.033-.241l.014-.26c.038-.079,0-.168.033-.248l.012-.217c.04-.077,0-.166.033-.244q.006-.111.012-.222c.047-.091,0-.194.035-.287l.012-.215c.039-.078,0-.167.033-.246l.012-.22c.042-.076,0-.164.033-.242,0-.086.009-.173.014-.26.038-.079,0-.168.033-.248l.012-.217c.04-.078,0-.166.033-.245q.006-.111.012-.221c.047-.091,0-.195.035-.287l.012-.215c.039-.078,0-.167.033-.246q.006-.11.012-.219c.041-.077,0-.165.033-.242l.014-.259c.038-.079,0-.169.033-.249,0-.072.008-.144.012-.217.04-.078,0-.166.033-.245q.006-.11.012-.221c.043-.076,0-.163.033-.241,0-.087.009-.174.014-.261.038-.078,0-.168.033-.247l.012-.219c.041-.077,0-.165.033-.242q.007-.13.014-.259c.038-.079,0-.169.034-.249l.012-.216c.04-.078,0-.166.033-.245l.012-.221c.042-.076,0-.163.033-.241l.014-.261c.039-.079,0-.168.033-.247,0-.073.008-.146.012-.219.041-.077,0-.165.033-.243q.006-.111.012-.222c.048-.091,0-.194.035-.286,0-.072.008-.144.012-.216.04-.078,0-.167.033-.245l.012-.221c.042-.076,0-.163.033-.241q.007-.131.014-.261c.038-.079,0-.168.033-.248l.012-.218c.04-.077,0-.165.033-.244l.012-.222c.048-.091,0-.194.035-.286l.012-.216c.039-.078,0-.167.033-.246l.012-.22c.042-.076,0-.164.033-.241q.007-.13.014-.26c.038-.079,0-.168.033-.248q.006-.109.012-.218c.04-.077,0-.165.033-.244q.006-.111.012-.222c.049-.108,0-.225.03-.335a.081.081,0,0,1,.1,0c.368,0,.725.118,1.095.1.076.042.165,0,.242.034l.215.013c.079.038.167,0,.247.033l.26.013c.095.041.2,0,.294.033l.357.012a8.018,8.018,0,0,0,.87.02.846.846,0,0,1,.25.015l1.245.247c.037.013.059.034.045.077l-.09.014c-.124.042-.257-.015-.381.035l-.311.012c-.111.038-.23-.011-.34.033l-.353.013c-.11.038-.229-.012-.338.033-.276.019-.416.256-.615.394-.311.214-.6.461-.894.7-.071.058-.178.107-.141.235-.044.093,0,.2-.033.29l-.012.265c-.044.093,0,.2-.033.289l-.013.266c-.045.092,0,.195-.033.288l-.012.267c-.046.091,0,.194-.033.287l-.013.268c-.046.091,0,.194-.033.286l-.014.307c-.042.094,0,.2-.034.294l-.012.261c-.042.094,0,.2-.034.293q-.006.131-.012.261c-.043.094,0,.2-.034.292l-.012.263c-.043.093,0,.2-.034.291l-.012.263c-.043.093,0,.2-.033.291q-.007.132-.013.264c-.044.093,0,.2-.033.29l-.012.265c-.045.093,0,.2-.034.289l-.012.266c-.045.092,0,.195-.033.288l-.012.267c-.046.092,0,.194-.033.287l-.012.268c-.046.091,0,.193-.033.286,0,.1-.009.2-.014.307-.042.094,0,.2-.034.294l-.012.261c-.042.094,0,.2-.034.293,0,.087-.008.174-.012.262-.043.094,0,.2-.034.292l-.012.263C2991.8,1045.191,2991.841,1045.28,2991.806,1045.358Z" transform="translate(-2924.68 -1021.324)" fill="#fff"/><path d="M2718.479,974.466l.175-.011c.078-.036.167.006.244-.034a3.163,3.163,0,0,0,.633-.059c.076-.035.164.01.239-.034l.176-.011c.078-.036.166.008.242-.034a3.281,3.281,0,0,0,.635-.059c.077-.035.164.009.24-.034l.176-.011c.078-.036.167.006.244-.034a3.143,3.143,0,0,0,.633-.058c.078-.035.166.007.243-.034a3.14,3.14,0,0,0,.634-.058c.077-.035.166.008.242-.034a3.249,3.249,0,0,0,.635-.058c.077-.035.165.009.241-.034l.174-.011c.079-.036.168.005.246-.034l.216-.013c.077-.035.165.009.24-.034l.175-.011c.078-.035.167.006.245-.034l.217-.014c.076-.034.164.01.239-.034l.176-.011c.078-.035.166.007.243-.034a3.137,3.137,0,0,0,.634-.058c.077-.035.166.008.242-.034a3.217,3.217,0,0,0,.635-.058c.077-.035.165.008.241-.034l.174-.011c.079-.035.168.005.246-.034l.216-.013c.077-.035.165.009.24-.034l.176-.011c.078-.035.167.006.245-.034l.217-.013c.076-.034.164.01.239-.034l.176-.011c.078-.035.167.007.244-.034a3.13,3.13,0,0,0,.633-.058c.078-.035.166.008.242-.034a3.134,3.134,0,0,0,.635-.058c.077-.035.165.008.241-.034l.174-.011c.079-.035.168.005.247-.034l.215-.013c.077-.035.165.009.24-.034l.175-.011c.078-.035.168.006.245-.034l.217-.013c.076-.034.164.01.24-.034l.176-.011c.078-.035.167.007.244-.034a3.135,3.135,0,0,0,.633-.058c.077-.035.166.008.243-.034l.219-.013c.058,0,.142-.073.163.05-1,.413-1.993.856-2.974,1.316a3.565,3.565,0,0,1-1.1.254c-.958.122-1.916.249-2.874.373l-2.219.285c-.076.038-.165-.009-.24.036l-1.33.149c-.076.037-.164-.01-.239.036l-.961.1c-.077.037-.166-.008-.242.035l-.174.011c-.076.037-.165-.009-.24.035l-.176.012c-.076.036-.165-.009-.24.035l-.175.011c-.077.036-.165-.009-.241.035l-.175.011c-.077.036-.165-.008-.241.035l-.174.011c-.078.036-.167-.007-.244.034l-.633.058c-.078.035-.166-.008-.242.034l-.635.058c-.077.035-.165-.008-.241.034l-.636.058c-.077.035-.165-.009-.24.034l-.221.013c-.077.033-.165-.01-.24.034l-.637.057c-.08.035-.169,0-.249.034l-.213.012c-.08.035-.169,0-.248.034l-.214.013c-.079.035-.168-.005-.247.034l-.215.013c-.079.034-.168-.006-.246.034l-.216.012c-.092.04-.195-.012-.286.036l-.222.012c-.078.033-.167-.007-.243.033l-.218.012c-.08.034-.169,0-.248.033l-.26.014c-.078.033-.165-.009-.241.033l-.22.012c-.079.033-.168-.006-.246.033l-.216.012c-.092.039-.2-.011-.287.035l-.221.012c-.092.039-.195-.012-.286.035l-.222.011c-.08.033-.169-.005-.248.033l-.26.014c-.079.032-.168-.006-.246.033l-.262.014c-.079.032-.167-.007-.245.033l-.263.014c-.079.032-.167-.008-.244.032l-.264.014c-.079.031-.167-.006-.246.032l-.262.013c-.092.037-.195-.013-.286.034l-.222.011c-.093.038-.2-.01-.289.034l-.265.013c-.08.031-.168-.007-.246.032l-.262.013c-.08.032-.169,0-.249.033l-.259.012c-.094.038-.2-.009-.292.034l-.262.013c-.094.037-.2-.01-.291.034l-.263.013c-.093.037-.2-.012-.288.034l-.266.013c-.08.031-.169-.005-.249.032l-.259.012c-.095.038-.2-.008-.294.034l-.307.014c-.08.031-.169-.005-.248.032l-.305.014c-.093.036-.2-.012-.288.033l-.266.013c-.094.036-.2-.01-.29.033l-.263.012c-.094.037-.2-.009-.292.034l-.308.014c-.093.035-.2-.012-.288.033l-.266.012c-.095.036-.2-.009-.293.033l-.307.014c-.094.035-.2-.01-.291.033l-.263.012c-.108.041-.226-.013-.334.035l-.266.012c-.108.04-.227-.013-.334.034l-.266.012c-.109.04-.227-.013-.335.034l-.265.012c-.109.04-.228-.013-.335.034l-.265.012c-.109.04-.228-.012-.337.034l-.31.013c-.1.035-.2-.009-.294.032l-.306.013c-.109.04-.228-.012-.337.034l-.31.013c-.1.035-.2-.008-.295.032l-.352.014c-.109.038-.226-.014-.334.034l-.312.012c-.109.038-.227-.014-.335.033l-.312.013c-.109.038-.227-.013-.336.033l-.311.013c-.109.038-.228-.013-.337.034l-.31.012c-.11.039-.228-.012-.337.034l-.309.012c-.125.042-.258-.014-.382.034l-.31.012c-.125.042-.258-.014-.382.034l-.31.012c-.125.041-.258-.014-.382.034l-.311.012c-.125.041-.258-.014-.382.034l-.31.012c-.125.041-.259-.013-.384.034l-.355.013c-.052,0-.128.063-.135-.053q1.169-.452,2.307-.975c.077-.041.167.006.243-.037l.311-.012c.125-.042.258.014.383-.034l.356-.013c.11-.037.228.013.337-.033l.355-.013c.11-.037.229.012.338-.033l.354-.013c.11-.037.23.011.34-.033l.353-.013c.111-.037.23.011.341-.033l.352-.013c.124-.041.257.015.38-.034l.22-.011c.077-.036.166.008.243-.035a8.447,8.447,0,0,0,1.05-.1c.077-.035.165.008.241-.035l.174-.011c.078-.036.167.006.245-.034a3.167,3.167,0,0,0,.633-.059c.076-.035.164.009.24-.035l.176-.011c.077-.036.166.008.242-.035a8.444,8.444,0,0,0,1.05-.1c.077-.036.165.009.24-.035l.175-.011c.078-.036.167.006.244-.034a3.164,3.164,0,0,0,.633-.059c.076-.035.164.009.24-.035l.176-.011c.077-.036.166.008.242-.035a8.443,8.443,0,0,0,1.051-.1c.077-.036.165.009.24-.035l.175-.011c.078-.036.167.006.244-.034a3.16,3.16,0,0,0,.633-.059c.077-.035.165.009.24-.035l.176-.011c.077-.036.166.008.242-.035a8.438,8.438,0,0,0,1.051-.1c.077-.036.165.009.241-.035l.175-.011c.078-.036.167.006.244-.034a3.162,3.162,0,0,0,.633-.059c.076-.035.164.009.24-.035l.176-.011c.077-.036.166.008.242-.035a8.423,8.423,0,0,0,1.05-.1c.077-.036.165.009.241-.035l.175-.011c.078-.036.167.006.244-.034a3.171,3.171,0,0,0,.633-.059c.076-.035.164.01.239-.035l.176-.011c.077-.036.166.008.242-.034a8.439,8.439,0,0,0,1.05-.1c.077-.036.165.009.241-.035l.175-.011c.078-.036.167.006.244-.034a3.162,3.162,0,0,0,.633-.059c.076-.035.164.01.24-.034l.176-.011c.077-.036.166.008.242-.034a8.416,8.416,0,0,0,1.05-.1c.077-.036.165.009.241-.035l.175-.011c.078-.036.167.006.244-.034a3.166,3.166,0,0,0,.633-.059c.076-.035.164.01.24-.034l.176-.011c.077-.036.166.008.242-.034a8.418,8.418,0,0,0,1.05-.1C2718.315,974.465,2718.4,974.509,2718.479,974.466Z" transform="translate(-2684.631 -972.63)" fill="#fff"/><path d="M2952.783,1307.389c.422-.006.549.087.635.521a2.863,2.863,0,0,0,.8,1.586,2.171,2.171,0,0,0,1.361.618.516.516,0,0,0,.3,0,.463.463,0,0,0,.359-.311.683.683,0,0,0,0-.35,3.2,3.2,0,0,0-.375-.761,4,4,0,0,1-.421-1.493,1.294,1.294,0,0,1,0-.412c.1-.6.194-1.205.3-1.806a.855.855,0,0,1,.793-.683c.14-.006.221.1.309.173a4.861,4.861,0,0,1,1.421,2.309,9.249,9.249,0,0,1,.24,1.115c.038.094-.009.2.034.293v.755c-.046.092,0,.2-.035.288a4.648,4.648,0,0,1-.635,1.841,2.976,2.976,0,0,1-2.061,1.34,1.411,1.411,0,0,1-1.12-.1,3.234,3.234,0,0,1-.941-1.009,7.514,7.514,0,0,1-.919-2.6c-.07-.408-.122-.815-.155-1.227C2952.663,1307.389,2952.751,1307.424,2952.783,1307.389Z" transform="translate(-2897.612 -1240.466)" fill="#fff"/><path d="M2887.046,1331.382a5.754,5.754,0,0,1-.938,2.638,3.408,3.408,0,0,1-.8.784,3.378,3.378,0,0,0-.622.385,3.786,3.786,0,0,1-.879-.371,3.448,3.448,0,0,1-1.341-1.722,5.65,5.65,0,0,1-.377-1.575c-.035-.078.007-.167-.034-.244l-.013-.31a6.091,6.091,0,0,1,0-.92c.1-.14.223-.167.356-.041a1.142,1.142,0,0,1,.445.818,1.721,1.721,0,0,0,.583,1.082,3.627,3.627,0,0,1,.406.466.486.486,0,0,0,.573.214c.33-.056.663-.1,1-.136.146-.016.139-.073.083-.18-.106-.2-.2-.408-.3-.608a1.082,1.082,0,0,1-.138-.466c-.041-.156.017-.319-.033-.474a.735.735,0,0,0-.176-.333.406.406,0,0,1-.1-.337,3.271,3.271,0,0,0-.111-.894,1.6,1.6,0,0,1,.082-.585c.085-.408.181-.813.27-1.22.021-.095.021-.215.115-.252s.157.075.221.136a5.411,5.411,0,0,1,1.651,2.865c.034.164.056.331.084.5A4.636,4.636,0,0,1,2887.046,1331.382Z" transform="translate(-2840.553 -1258.877)" fill="#fff"/><path d="M2971.956,1308.136a1.445,1.445,0,0,0-.012-.4c-.035-.077.009-.165-.035-.24a5.5,5.5,0,0,0-1.649-3.41c0-.069.012-.073.121-.05.17.106.341,0,.511,0,.079-.034.169.005.247-.033l.261-.014c.078-.033.166.008.242-.033.06-.039.094-.03.143.034a7.194,7.194,0,0,1,1.412,2.911c.039.186.068.374.1.561.036.093-.011.2.033.288q0,.308,0,.615c-.042.094,0,.2-.034.294a6.778,6.778,0,0,1-.649,2.027,2.929,2.929,0,0,1-2.1,1.523,3.39,3.39,0,0,1-.671.106,6.684,6.684,0,0,1-.708.012c-.036,0-.082,0-.055-.062a2.782,2.782,0,0,0,1.5-.673,3.625,3.625,0,0,0,1.259-2.323,3.518,3.518,0,0,0,.09-.779A.7.7,0,0,0,2971.956,1308.136Z" transform="translate(-2910.88 -1240.169)" fill="#fff"/><path d="M2715.882,1273.863c0-.245.02-.491,0-.735a.69.69,0,0,1,.14-.421c.106-.172.242-.155.335.031a7.366,7.366,0,0,1,.776,2.557,3.9,3.9,0,0,1-.51,2.479,1.3,1.3,0,0,1-.472.456.508.508,0,0,1-.274-.006,1.124,1.124,0,0,1-.426-.35,2.469,2.469,0,0,1-.532-1.3c-.016-.086-.007-.189.149-.14.23.074.469.122.7.192.355.107.472-.063.54-.407a2.847,2.847,0,0,0-.268-1.522,2.276,2.276,0,0,1-.127-.59C2715.883,1274.031,2715.92,1273.942,2715.882,1273.863Z" transform="translate(-2705.583 -1214.854)" fill="#fff"/><path d="M2714.275,1266.665l-.012-.588c-.042-.2.016-.411-.034-.613l-.012-.587c-.042-.2.016-.412-.034-.615l.018-.192a15.433,15.433,0,0,0,1.92,1.281,1.849,1.849,0,0,0-.75.321.837.837,0,0,0-.228.715,1.055,1.055,0,0,0,0,.442,3.094,3.094,0,0,0,.238,1.3c.073.189.128.386.191.579a2.369,2.369,0,0,1,0,.55,1.308,1.308,0,0,0-.053.2c-.021.168-.135.186-.26.155-.263-.065-.523-.143-.783-.216-.161-.049-.047-.2-.108-.288l-.012-.585c-.042-.2.016-.413-.034-.616l-.013-.63C2714.267,1267.074,2714.325,1266.867,2714.275,1266.665Z" transform="translate(-2704.993 -1207.975)" fill="#fff"/><path d="M2675.958,1030.716c-.111.083-.261-.023-.368.079a.559.559,0,0,1-.39-.079Z" transform="translate(-2673.508 -1019.504)" fill="#fff"/><path d="M2725.511,1271.162c.123-.008.2.1.312.134a2.894,2.894,0,0,0-.865-.051C2725.129,1271.134,2725.338,1271.268,2725.511,1271.162Z" transform="translate(-2713.695 -1213.702)" fill="#fff"/><path d="M3015.841,1013.746l.134-.068.139.041c.029.051-.016.063-.044.084A.437.437,0,0,0,3015.841,1013.746Z" transform="translate(-2948.629 -1005.743)" fill="#fff"/><path d="M3037.71,1035.834l-.045-.076.251.054A.3.3,0,0,1,3037.71,1035.834Z" transform="translate(-2966.257 -1023.577)" fill="#fff"/><path d="M3017.028,1013.976l.044-.084.144.057v.027Z" transform="translate(-2949.588 -1005.916)" fill="#fff"/><path d="M3010.023,1032.874l-.1.009h-.088l-.005-.047a.392.392,0,0,1,.279.04Z" transform="translate(-2943.776 -1021.211)" fill="#fff"/><path d="M2899.055,1312.209a.151.151,0,0,1-.159,0A.135.135,0,0,1,2899.055,1312.209Z" transform="translate(-2854.178 -1246.834)" fill="#fff"/><g transform="translate(2.083 10.391)"><path d="M2701.25,1026.856c0-.431,0-.431-.436-.386l-.449.012c-.171.051-.349-.009-.52.034l-.449.012c-.171.051-.349-.009-.52.034l-.5.012c-.171.051-.349-.008-.52.034l-.5.012c-.186.052-.379-.009-.565.034l-.54.013c-.148.012-.309.006-.389.117.011.051,0,.117.01.167-.022.838-.041,1.676-.069,2.513-.036,1.1-.081,2.2-.119,3.3q-.156,4.393-.311,8.786-.076,2.18-.15,4.359-.155,4.4-.311,8.809-.077,2.2-.151,4.4-.154,4.393-.311,8.786-.076,2.168-.15,4.335c-.031.892-.061,1.783-.1,2.675,0,.063.046.172-.089.166s-.085-.108-.083-.174q.1-2.779.2-5.557c.037-1.045.072-2.091.108-3.136q.179-5.062.358-10.124.076-2.168.15-4.336.155-4.416.311-8.832c.053-1.53.1-3.06.155-4.589q.152-4.3.307-8.6c.036-1.007.066-2.014.1-3.021h.014a.062.062,0,0,0-.051-.01l-.541.011c-.2.05-.41-.008-.613.034l-.585.013c-.187.05-.381-.009-.569.033l-.588.013c-.2.051-.41-.008-.612.034l-.634.012c-.218.052-.441-.009-.659.034l-.635.012c-.217.052-.44-.009-.657.034l-.677.013c-.234.052-.473-.01-.708.033l-.725.013c-.233.052-.472-.01-.706.033l-.726.013c-.264.053-.533-.01-.8.034l-.773.012c-.263.054-.532-.01-.8.034l-.819.013c-.295.052-.594-.01-.889.034l-.863.012c-.311.053-.626-.01-.937.033l-1,.013c-.327.053-.657-.011-.984.034l-.6.017c-.115.064-.27-.061-.368.079.019.013.036.036.056.038.458.043.911.12,1.365.193.6.1,1.2.167,1.8.249.062.239-.008.484.038.724l.012.954c.053.311-.01.627.034.939l.012.954c.053.311-.01.627.034.939q.006.477.013.954c.053.311-.011.627.033.939q.006.477.013.954c.053.311-.011.627.033.939q.006.477.013.954c.053.312-.011.627.033.939q.007.477.013.954c.053.311-.01.627.033.939q.007.477.013.954c.053.311-.01.627.033.939q.006.477.013.954c.053.311-.011.627.033.939q.006.477.013.954c.053.311-.01.627.033.939q.006.477.013.954c.053.311-.01.627.033.939q.007.477.013.954c.053.311-.011.627.033.939q.007.477.013.954c.053.311-.011.627.033.939q.007.477.013.954c.053.311-.01.627.033.938q.007.477.013.954c.053.311-.01.627.034.938l.013.954c.053.311-.01.627.033.938l.013.954c.053.311-.01.627.033.938l.013.954c.053.311-.01.627.033.938l.013.954c.053.311-.01.627.033.938l.013.954c.053.311-.01.627.033.938l.013.954c.053.311-.01.627.033.938l.012.954c.053.311-.01.627.034.938l.013.954c.048.141-.006.289.033.43a1.027,1.027,0,0,0,.933.931c.175.056.242-.025.247-.191,0-.1,0-.2,0-.3,0-1.67-.01-3.341.006-5.011a2.012,2.012,0,0,0,0-.23c-.018-2.684-.008-5.367-.037-8.051-.056-5.291.014-10.582-.047-15.874-.045-3.907-.008-7.815-.01-11.722,0-.581,0-1.162,0-1.744,0,.629.029,1.258.033,1.886.036,5.253-.015,10.505.045,15.759s-.021,10.505.046,15.758c.041,3.2.02,6.4.015,9.6a.646.646,0,0,1-.021.161,2.183,2.183,0,0,0,.079.281.888.888,0,0,0,.93.544.424.424,0,0,1,.433.265.269.269,0,0,0,.077.1q.571.47,1.183.883a4.92,4.92,0,0,0,1.54.785c.042.051.112.055.138.073a4.371,4.371,0,0,0-.691.011c-.105.02-.21.044-.316.058s-.1.058-.061.139a7.725,7.725,0,0,1,.688,1.847,6.008,6.008,0,0,1,.156,1.037,1.879,1.879,0,0,1,0,.588.947.947,0,0,1-.043.333,3.216,3.216,0,0,1-.6,1.59c-.3.4-.716.631-1.164.177a.092.092,0,0,0-.141-.006,2.341,2.341,0,0,0,.434.64.423.423,0,0,0,.31.162c.538.031,1.075.025,1.613,0a2.448,2.448,0,0,0,1.619-2.129c.061-.442.015-.885.041-1.328-.051-.155.009-.318-.034-.474,0-.088-.008-.175-.012-.263-.04-.078,0-.167-.034-.245a2.519,2.519,0,0,0-.243-.893,1.221,1.221,0,0,1-.131-.8c.6.178,1.184.349,1.766.525a9.664,9.664,0,0,0,2.481.625c.078.032.166-.008.243.032l.265.012a8.179,8.179,0,0,0,1.058,0,.237.237,0,0,1,.173.027,6.154,6.154,0,0,0,.7.281c.676.2,1.356.393,2.037.581.757.209,1.52.4,2.274.618a3.766,3.766,0,0,1,1.126.412c.139.1.223.264.419.323,0-.222,0-.42,0-.619q.009-1.971.019-3.941a.832.832,0,0,0,.013-.252q0-2.526,0-5.053a.6.6,0,0,1,.019-.251c0-.545-.007-1.089,0-1.633q.006-1.991.018-3.982a.832.832,0,0,0,.013-.252q0-2.526,0-5.052a.592.592,0,0,1,.019-.25c0-.314-.009-.628-.008-.943q.008-2.314.02-4.628a.786.786,0,0,0,.014-.252q0-2.549,0-5.1a.584.584,0,0,1,.019-.25c0-.314-.009-.629-.008-.943q.008-2.314.02-4.629a.786.786,0,0,0,.014-.252q0-2.548,0-5.1a.575.575,0,0,1,.019-.25c0-.314-.009-.629-.008-.943q.008-2.315.02-4.63C2701.269,1027.8,2701.245,1027.33,2701.25,1026.856Zm-7.452,28.505q-.147,5.651-.294,11.3-.084,3.218-.172,6.435c-.016.6-.03,1.2-.049,1.8,0,.072.045.192-.1.182-.127-.009-.075-.117-.073-.18q.077-2.964.159-5.928.059-2.18.113-4.36.146-5.605.293-11.21.083-3.172.17-6.343.146-5.547.292-11.095.085-3.206.171-6.412.03-1.13.058-2.26c0-.046,0-.092.006-.138s.013-.108.088-.11.083.051.083.108,0,.092,0,.138q-.148,5.709-.295,11.418-.084,3.218-.172,6.435l-.158,5.905Z" transform="translate(-2677.23 -1026.451)" fill="#fff"/></g><path d="M2730.029,1272.072a.586.586,0,0,1-.41-.113A.772.772,0,0,1,2730.029,1272.072Z" transform="translate(-2717.459 -1214.347)" fill="#fff"/><path d="M2732.459,1272.7a.162.162,0,0,1-.216-.044C2732.334,1272.6,2732.394,1272.68,2732.459,1272.7Z" transform="translate(-2719.579 -1214.894)" fill="#fff"/></g><g transform="translate(26.039 8.432)"><path d="M2827.352,1017a12.185,12.185,0,0,0-3.052-.7c-.095-.034-.2.01-.292-.032l-.854,0c-.07.1.008.229-.048.335l-.012.357c-.042.141.016.289-.034.429l-.013.4c-.039.125.014.258-.033.383l-.013.4c-.038.126.014.26-.033.385,0,.134-.009.267-.013.4-.039.126.013.26-.033.386,0,.133-.009.266-.013.4-.042.14.016.287-.034.427q-.006.179-.012.358c-.042.14.016.288-.034.428q-.006.178-.011.357c-.043.14.015.289-.034.429q-.007.2-.013.4c-.039.126.014.259-.033.384l-.013.4c-.039.126.013.26-.033.385q-.007.2-.013.4c-.039.126.013.26-.033.386q-.007.2-.013.4c-.042.14.016.288-.034.427l-.012.358c-.042.14.016.288-.034.428q-.006.179-.011.357c-.042.141.015.289-.034.429,0,.134-.008.268-.013.4-.039.126.014.259-.033.384q-.006.2-.013.4c-.039.126.013.26-.033.385q-.006.2-.013.4c-.039.126.013.26-.033.386q-.006.2-.013.4c-.042.14.016.288-.034.427q-.005.179-.012.358c-.042.14.016.288-.034.428l-.013.4c-.038.125.015.258-.033.382,0,.134-.009.268-.013.4-.039.126.014.259-.033.384l-.013.4c-.039.126.013.26-.033.385q-.007.2-.013.4c-.039.126.013.261-.033.387q-.007.2-.013.4c-.042.14.016.288-.034.427l-.012.358c-.042.14.016.289-.034.428q-.007.2-.013.4c-.039.125.014.258-.033.383l-.013.4c-.039.126.014.259-.033.385l-.013.4c-.039.126.013.26-.033.385,0,.133-.009.266-.013.4-.039.126.013.261-.033.386l-.013.4c-.042.14.016.288-.034.427,0,.119-.008.238-.012.357-.042.14.016.289-.034.429l-.013.4c-.039.125.014.258-.033.383l-.013.4c-.038.126.014.259-.033.384q-.006.2-.013.4c-.039.126.013.26-.033.386q-.007.2-.013.4c-.042.14.016.288-.034.427l-.012.358c-.042.14.016.288-.034.427,0,.119-.008.238-.012.357-.042.14.016.289-.034.429q-.006.2-.013.4c-.039.126.014.259-.033.384,0,.134-.009.267-.013.4-.039.126.013.26-.033.385,0,.133-.009.266-.013.4-.039.126.013.26-.033.386q-.006.2-.013.4c-.042.14.016.288-.034.427q-.005.179-.011.358c-.042.14.016.288-.034.427,0,.119-.008.238-.011.357-.042.141.015.289-.034.429l-.013.4c-.039.125.014.259-.033.384,0,.134-.009.267-.013.4-.038.126.014.26-.033.385l-.013.4c-.039.126.013.26-.033.386q-.007.2-.013.4c-.042.14.016.288-.034.427q-.006.179-.012.358c-.042.14.016.288-.034.428q-.007.2-.013.4c-.039.125.014.258-.033.382q-.007.2-.013.4c-.039.126.014.259-.033.384l-.013.4c-.039.126.013.26-.033.385,0,.133-.008.266-.013.4-.039.126.013.261-.033.387q-.006.2-.013.4c-.042.14.016.288-.034.427l-.011.358c-.042.14.016.289-.034.428q-.007.2-.013.4c-.039.125.014.259-.033.383q-.006.2-.013.4c-.038.126.014.259-.033.385l-.013.4c-.039.126.013.26-.033.385,0,.133-.009.266-.013.4-.039.126.013.261-.033.387l-.013.4c-.042.14.016.288-.034.427l-.012.357c-.042.14.015.289-.034.429l-.013.4c-.039.125.014.259-.033.383,0,.134-.009.268-.013.4-.039.126.013.26-.033.385q-.007.2-.013.4c-.039.126.013.26-.033.386l-.013.4a2.052,2.052,0,0,0-.108.745c-.026.645-.073,1.288-.108,1.932-.039.713-.085,1.426-.126,2.139-.022.387-.04.775-.08,1.161,0-.708.062-1.412.1-2.118.052-1,.116-1.993.176-2.989a5.861,5.861,0,0,0,.012-1.073c0-.133.009-.266.013-.4.042-.14-.016-.288.034-.427,0-.119.008-.238.012-.357.042-.14-.016-.289.034-.428q.006-.2.013-.4c.039-.125-.014-.259.033-.384l.013-.4c.039-.126-.014-.26.033-.385,0-.133.009-.266.013-.4.039-.126-.013-.26.033-.386l.013-.4c.042-.14-.016-.288.034-.427l.012-.358c.042-.14-.016-.288.034-.428,0-.119.008-.238.012-.357.043-.141-.015-.289.034-.429l.013-.4c.039-.125-.014-.259.033-.384q.007-.2.013-.4c.039-.126-.013-.26.033-.385q.007-.2.013-.4c.039-.126-.013-.26.033-.386,0-.133.008-.266.013-.4.042-.14-.016-.288.034-.427,0-.119.008-.239.012-.358.042-.14-.016-.288.034-.428l.013-.4c.039-.125-.014-.258.033-.383q.006-.2.013-.4c.039-.125-.014-.259.033-.384,0-.134.009-.267.013-.4.038-.126-.013-.26.033-.385l.013-.4c.039-.126-.013-.26.033-.386q.006-.2.013-.4c.042-.14-.016-.288.034-.427q.006-.179.012-.358c.042-.14-.015-.288.034-.428,0-.134.009-.269.013-.4.038-.125-.015-.258.033-.383q.007-.2.013-.4c.039-.126-.014-.259.033-.384l.013-.4c.039-.126-.013-.26.033-.385l.013-.4c.039-.126-.013-.261.033-.386q.006-.2.013-.4c.042-.14-.016-.288.034-.427,0-.119.008-.238.012-.357.042-.14-.016-.289.034-.428,0-.134.008-.269.013-.4.039-.125-.014-.259.033-.383,0-.134.009-.268.013-.4.039-.126-.013-.259.033-.384l.013-.4c.039-.126-.013-.26.033-.386q.006-.2.013-.4c.039-.126-.012-.261.033-.387q.006-.2.013-.4c.042-.14-.016-.288.034-.427q.005-.179.011-.358c.043-.14-.015-.289.034-.428l.013-.4c.039-.125-.014-.259.033-.384,0-.134.009-.268.013-.4.039-.126-.013-.259.033-.385q.007-.2.013-.4c.039-.126-.013-.26.033-.386l.013-.4c.042-.14-.016-.288.034-.427l.012-.358c.042-.14-.016-.288.034-.428q.006-.179.011-.357c.042-.141-.015-.289.034-.429l.013-.4c.039-.126-.014-.259.033-.384q.007-.2.013-.4c.039-.126-.013-.26.033-.385l.013-.4c.039-.126-.013-.26.033-.386l.013-.4c.042-.14-.016-.288.034-.427q.006-.179.012-.358c.042-.14-.016-.288.034-.428l.013-.4c.038-.125-.015-.258.033-.382l.013-.4c.038-.125-.014-.259.033-.384l.013-.4c.039-.126-.014-.26.033-.385l.013-.4c.039-.126-.013-.261.033-.386,0-.133.009-.266.012-.4.042-.14-.016-.288.034-.427q.006-.179.012-.358c.042-.14-.016-.288.034-.428q.007-.2.013-.4c.039-.125-.014-.258.033-.383,0-.134.009-.268.013-.4.039-.126-.014-.259.033-.384q.007-.2.013-.4c.039-.126-.013-.26.033-.385,0-.133.009-.266.013-.4.039-.126-.013-.261.033-.387q.006-.2.013-.4c.042-.14-.016-.288.034-.427q.006-.179.012-.357c.042-.14-.016-.288.034-.428q.006-.2.013-.4c.038-.125-.014-.259.033-.383q.006-.2.013-.4c.039-.126-.014-.26.033-.385l.013-.4c.039-.126-.013-.26.033-.386q.007-.2.013-.4c.039-.126-.013-.261.033-.387q.007-.2.012-.4c.042-.14-.016-.288.035-.427l.011-.357c.043-.14-.015-.289.034-.429,0-.134.009-.268.013-.4.039-.126-.014-.259.033-.384q.007-.2.013-.4c.039-.126-.014-.26.033-.385a1.494,1.494,0,0,1,0-.224c.027-.19-.01-.309-.239-.255a.2.2,0,0,1-.067-.007c-.108.047-.226,0-.335.033a13.372,13.372,0,0,0-2.371.445,2.467,2.467,0,0,1-.76.214c-.075.044-.163,0-.239.034a3.253,3.253,0,0,1-.635.059c-.076.042-.165,0-.242.034l-.126.011c-.091.15.008.321-.055.474q-.007.293-.013.586c-.042.188.018.381-.033.568,0,.2-.009.391-.013.586-.042.188.018.381-.033.568q-.007.293-.013.586c-.042.188.017.381-.033.568l-.013.586c-.042.188.018.381-.033.568q-.006.293-.013.586c-.042.188.017.381-.033.568l-.013.586c-.042.188.018.381-.033.568q-.007.293-.013.586c-.042.188.018.381-.033.568l-.013.586c-.042.188.018.381-.033.568q-.007.293-.013.586c-.042.187.018.381-.033.568q-.007.293-.013.586c-.042.188.018.381-.033.568q-.007.293-.013.586c-.042.188.018.381-.033.568q-.007.293-.013.586c-.042.188.018.381-.033.568q-.007.293-.013.586c-.042.188.018.381-.033.568,0,.2-.009.391-.013.586-.042.188.018.381-.033.568,0,.2-.009.391-.013.586-.042.188.018.381-.033.568,0,.2-.009.391-.013.586-.042.188.018.381-.033.568q-.006.293-.013.586c-.042.188.018.381-.033.568q-.006.293-.013.586c-.042.187.018.381-.033.568q-.006.293-.013.586c-.042.188.017.381-.033.568l-.013.586c-.042.188.018.381-.033.568q-.007.293-.013.586c-.042.188.018.381-.033.568q-.007.293-.013.586c-.042.188.018.381-.033.568q-.007.293-.013.586c-.042.188.018.381-.033.568q-.007.293-.013.586c-.042.188.017.381-.033.568q-.007.293-.013.586c-.042.187.018.381-.033.568q-.007.293-.013.586c-.042.188.017.381-.033.568q-.007.293-.013.586c-.042.188.018.381-.033.568,0,.2-.009.391-.013.586-.042.188.018.381-.033.568l-.013.586c-.042.188.018.381-.033.568q-.006.293-.013.586c-.042.188.017.381-.033.568l-.013.586c-.042.188.018.381-.033.568l-.013.586c-.042.188.018.381-.033.568l-.013.586c-.042.188.018.381-.033.568q-.007.293-.013.586c-.042.187.018.381-.033.568l-.013.586c-.042.188.018.381-.033.568q-.007.293-.013.586c-.042.188.018.381-.033.568q-.007.293-.013.586c-.042.188.018.381-.033.568,0,.2-.009.391-.013.586-.042.188.018.381-.033.568q-.007.292-.013.584a.428.428,0,0,0-.064.263c-.051.781-.068,1.564-.1,2.347-.018.422-.019.845-.048,1.266-.065.934-.085,1.871-.121,2.806-.038.966-.1,1.932-.1,2.9a.852.852,0,0,1-.034.25c-.022-.653.032-1.3.06-1.942.041-.958.077-1.917.117-2.876.023-.559.039-1.121.068-1.68.025-.483.03-.967.058-1.449.033-.566.066-1.135.064-1.7,0-.174-.1-.343-.03-.521l.013-.586c.042-.187-.018-.381.033-.568q.006-.293.013-.586c.042-.187-.017-.381.033-.568l.013-.586c.042-.187-.018-.381.033-.568q.007-.293.013-.586c.042-.187-.018-.381.033-.568l.013-.586c.042-.187-.018-.381.033-.568q.007-.293.013-.586c.042-.188-.018-.381.033-.568l.013-.586c.042-.188-.018-.381.033-.568q.007-.293.013-.586c.042-.188-.018-.381.033-.568q.007-.293.013-.586c.042-.188-.018-.381.033-.568q.007-.293.013-.586c.042-.187-.018-.381.033-.568,0-.2.009-.391.013-.586.042-.187-.018-.381.033-.568q.007-.293.013-.586c.042-.187-.018-.381.033-.568q.007-.293.013-.586c.042-.187-.018-.381.033-.568q.007-.293.013-.586c.042-.187-.017-.381.033-.568q.006-.293.013-.586c.042-.187-.018-.381.033-.568q.007-.293.013-.586c.042-.187-.017-.381.033-.568q.006-.293.013-.586c.042-.187-.018-.381.033-.568q.007-.293.013-.586c.042-.187-.018-.381.033-.568q.007-.293.013-.586c.042-.188-.018-.381.033-.568q.007-.293.013-.586c.042-.187-.017-.381.033-.568q.007-.293.013-.586c.042-.188-.017-.381.033-.568q.007-.293.013-.586c.042-.188-.018-.381.033-.568q.007-.293.013-.586c.042-.188-.018-.381.033-.568l.013-.586c.042-.187-.018-.381.033-.568,0-.2.009-.391.013-.586.042-.187-.018-.381.033-.568l.013-.586c.042-.187-.018-.381.033-.568q.006-.293.013-.586c.042-.187-.018-.381.033-.568l.013-.586c.042-.187-.018-.381.033-.568q.006-.293.013-.586c.042-.187-.018-.381.033-.568l.013-.586c.042-.187-.018-.381.033-.568q.007-.293.013-.586c.042-.187-.018-.381.033-.568q.007-.293.013-.586c.042-.188-.018-.381.033-.568l.013-.586c.042-.188-.018-.381.033-.568q.007-.293.013-.586c.042-.188-.018-.381.033-.568q.007-.293.013-.586c.042-.187-.018-.381.033-.568q.007-.293.013-.586c.042-.187-.018-.381.033-.568,0-.2.009-.391.013-.586.042-.187-.018-.381.033-.568q.007-.293.013-.586c.042-.187-.018-.381.033-.568q.007-.293.013-.586c.025-.141-.063-.115-.146-.1l-.218.012c-.077.041-.165,0-.243.033-.081.01-.162.022-.243.029a.172.172,0,0,0-.182.213c-.042.172.017.351-.033.522l-.013.539c-.042.172.017.351-.033.523q-.007.269-.013.539c-.042.172.017.351-.033.523l-.013.538c-.042.173.017.352-.033.524l-.013.538c-.042.173.016.352-.033.524q-.006.269-.013.538c-.043.186.018.379-.034.565l-.012.5c-.044.186.019.379-.034.565q-.006.248-.012.5c-.043.187.018.38-.034.566q-.006.248-.012.5c-.044.187.018.38-.034.566l-.012.5c-.044.187.018.38-.034.567q-.007.271-.013.542c-.041.172.017.349-.033.52,0,.181-.009.361-.013.541-.042.172.017.35-.033.521l-.013.541c-.042.172.018.35-.033.521q-.006.27-.013.54c-.042.172.017.35-.033.522l-.013.54c-.041.172.017.351-.033.522l-.013.539c-.042.172.017.351-.033.523q-.006.27-.013.539c-.042.172.016.351-.033.523q-.006.269-.013.538c-.042.173.017.352-.033.524l-.013.538c-.042.173.017.352-.033.525q-.006.269-.013.537c-.043.186.018.379-.034.565l-.012.5c-.044.186.019.379-.034.565q-.006.248-.012.5c-.044.187.018.38-.034.566l-.012.5c-.044.187.018.38-.034.566q-.006.248-.012.5c-.044.187.018.38-.034.566q-.007.271-.013.542c-.042.172.017.349-.033.52q-.006.271-.013.541c-.042.172.017.35-.033.521,0,.18-.008.36-.013.541-.041.172.018.35-.033.521,0,.18-.009.36-.013.54-.042.172.017.35-.033.522q-.006.27-.013.54c-.042.172.017.351-.033.522q-.006.27-.013.539c-.042.172.017.351-.033.523q-.006.269-.013.539c-.042.172.016.351-.033.523l-.013.538c-.042.173.017.352-.033.524l-.013.538c-.042.173.016.352-.033.525l-.012.537c-.044.186.018.379-.034.565q-.006.248-.012.5c-.044.186.018.379-.034.565l-.012.5c-.044.187.018.38-.034.566l-.012.5c-.044.187.018.38-.034.566q-.006.248-.012.5c-.045.187.018.38-.035.566q-.006.271-.013.542c-.041.172.017.35-.033.521,0,.18-.008.361-.013.541-.042.172.017.35-.033.521l-.013.541c-.042.172.018.35-.033.521q0,.107-.006.215a.341.341,0,0,0-.069.259c-.006.146,0,.292-.008.438-.071.88-.088,1.763-.126,2.645s-.077,1.749-.109,2.624c-.038,1.036-.081,2.071-.135,3.106a17.372,17.372,0,0,1-.109,1.8c0-.222.037-.442.033-.664-.009-.507.031-1.013.058-1.519.064-1.227.109-2.454.165-3.681.04-.882.074-1.765.113-2.646.021-.49.018-.982.065-1.473a3.147,3.147,0,0,0-.016-.983c0-.139.007-.278.01-.417.044-.187-.018-.38.034-.566,0-.165.008-.331.012-.5.044-.187-.018-.38.034-.566l.012-.5c.044-.187-.018-.38.034-.566,0-.181.008-.361.013-.542.041-.172-.017-.349.033-.521q.006-.271.013-.541c.042-.172-.017-.35.033-.521q.006-.27.013-.541c.041-.172-.018-.35.033-.521q.006-.27.013-.54c.042-.172-.017-.35.033-.522l.013-.54c.041-.172-.017-.351.033-.522q.006-.27.013-.539c.042-.172-.017-.351.033-.523q.007-.27.013-.539c.042-.173-.016-.351.033-.523q.007-.27.013-.539c.042-.172-.016-.351.033-.524l.013-.538c.042-.173-.016-.352.033-.525l.013-.537c.044-.186-.018-.379.034-.565,0-.166.008-.331.012-.5.044-.186-.018-.379.034-.565l.012-.5c.044-.187-.018-.38.034-.566l.012-.5c.044-.187-.018-.38.034-.566l.012-.5c.044-.187-.018-.38.035-.566q.006-.271.012-.542c.042-.172-.017-.35.033-.521q.006-.271.013-.541c.042-.172-.017-.35.033-.521l.013-.541c.042-.172-.017-.35.033-.521q.007-.27.013-.54c.042-.172-.017-.351.033-.522q.007-.27.013-.54c.042-.172-.017-.351.033-.522q.006-.27.013-.539c.042-.172-.017-.351.033-.523q.007-.269.013-.539c.042-.172-.016-.351.033-.523l.013-.539c.042-.173-.016-.352.033-.524q.007-.269.013-.537c.042-.173-.016-.352.033-.525q.006-.268.013-.537c.044-.186-.018-.379.034-.565l.012-.5c.044-.186-.018-.379.034-.565l.012-.5c.044-.187-.018-.38.034-.566l.012-.5c.044-.187-.018-.38.034-.566q.006-.248.012-.5c.044-.187-.018-.38.034-.567q.006-.271.013-.541c.041-.172-.017-.35.033-.521q.006-.271.013-.541c.042-.172-.018-.35.033-.521l.013-.541c.042-.172-.018-.35.033-.521l.013-.54c.041-.172-.017-.35.033-.522,0-.18.009-.36.013-.54.042-.172-.017-.351.033-.522q.007-.27.013-.539c.042-.172-.016-.351.033-.523q.007-.269.013-.539c.042-.173-.017-.352.033-.524q.006-.269.013-.538c.042-.173-.016-.352.033-.524q.007-.269.013-.538c.042-.173-.016-.352.033-.525q.006-.268.013-.537a.748.748,0,0,0-.019-.412l-.112,0c-.078.039-.166,0-.245.032l-.266.014c-.092.045-.2,0-.289.034l-.221.011c-.091.047-.194,0-.286.034l-.263.013c-.094.043-.2,0-.291.033l-.266.012c-.092.045-.2,0-.288.033-.4.042-.4.042-.422.45a.214.214,0,0,1,0,.022c-.041.2.016.412-.033.615q-.006.316-.013.632c-.041.2.016.411-.033.614l-.013.632c-.041.2.016.412-.033.614q-.007.316-.013.632c-.041.2.016.411-.033.614q-.007.316-.013.633c-.041.2.016.411-.033.614q-.007.317-.013.633c-.041.2.016.411-.033.613q-.007.317-.013.633c-.041.2.016.411-.034.613q-.006.317-.013.633c-.041.2.017.411-.033.613q-.007.317-.013.633c-.041.2.017.411-.033.613l-.013.634c-.041.2.017.41-.034.612q-.006.294-.012.588c-.044.218.018.441-.034.659l-.012.588c-.044.218.018.441-.034.659q-.006.294-.012.588c-.044.218.018.441-.034.658q-.006.294-.012.588c-.044.218.018.441-.034.658q-.006.294-.012.588c-.043.218.018.44-.034.658q-.006.294-.012.589c-.043.218.019.44-.034.658q-.006.294-.012.589c-.044.218.018.441-.034.658q-.006.294-.012.589c-.042.2.016.413-.033.617q-.007.315-.013.63c-.042.2.016.413-.033.616l-.013.63c-.041.2.016.413-.033.616,0,.21-.009.42-.013.63-.041.2.016.413-.033.616l-.013.631c-.041.2.016.412-.033.615q-.007.316-.013.631c-.041.2.016.412-.033.615q-.006.315-.013.631c-.041.2.016.412-.033.615q-.006.315-.013.631c-.041.2.016.412-.033.615,0,.211-.009.421-.013.632-.041.2.016.412-.033.615q-.006.316-.013.632c-.041.2.016.411-.033.614q-.007.316-.013.632c-.041.2.016.411-.033.614l-.013.632c-.041.2.016.411-.033.614q-.007.317-.013.633c-.041.2.016.411-.033.614l-.013.633c-.041.2.016.411-.034.613l-.012.633c-.041.2.016.411-.033.613q-.007.317-.013.633a3.456,3.456,0,0,1-.072.453,14.072,14.072,0,0,0-.07,1.565c-.06,1.289-.1,2.579-.148,3.868q-.047,1.185-.088,2.371c-.043,1.275-.1,2.548-.139,3.823-.02.637-.08,1.274-.057,1.912a.594.594,0,0,1-.034.238q.063-1.809.125-3.616c.036-1.082.087-2.165.113-3.247.011-.453.019-.907.045-1.359.063-1.1.079-2.2.132-3.292.031-.644.028-1.29.08-1.934a1.736,1.736,0,0,0-.008-.529,1.742,1.742,0,0,1-.012-.638l.012-.633c.041-.2-.016-.411.034-.613l.013-.634c.041-.2-.017-.411.033-.613l.012-.587c.044-.218-.018-.441.034-.659q.006-.294.012-.588c.044-.218-.019-.441.034-.658q.006-.294.012-.588c.044-.218-.018-.441.034-.658q.006-.294.012-.588c.044-.218-.018-.441.034-.658q.006-.294.012-.588c.044-.217-.018-.441.034-.658l.012-.589c.044-.217-.018-.44.034-.657l.012-.589c.044-.218-.018-.44.034-.657l.012-.589c.042-.2-.016-.413.033-.616q.007-.315.012-.63c.042-.2-.015-.413.034-.617l.013-.63c.042-.2-.016-.413.033-.616q.006-.315.013-.63c.041-.2-.016-.413.033-.616q.007-.315.013-.631c.041-.2-.016-.413.033-.616q.006-.315.013-.631c.041-.2-.016-.412.033-.615l.013-.631c.042-.2-.016-.412.033-.615l.013-.631c.041-.2-.016-.412.033-.615,0-.21.009-.421.013-.631.041-.2-.016-.412.033-.615q.006-.316.013-.632c.041-.2-.016-.411.033-.614q.007-.316.013-.632c.041-.2-.016-.411.033-.614q.007-.316.013-.632c.041-.2-.016-.411.033-.614,0-.211.008-.422.013-.633.041-.2-.017-.411.033-.614q.007-.316.013-.633c.041-.2-.017-.411.033-.613l.013-.633c.041-.2-.017-.411.033-.613q.006-.317.013-.633c.041-.2-.016-.411.034-.613l.013-.633c.041-.2-.017-.411.033-.613l.013-.633c.041-.2-.017-.411.033-.612q.005-.294.012-.588c.044-.218-.018-.441.034-.659q.006-.294.012-.588c.044-.218-.018-.441.034-.658q.006-.294.012-.588c.044-.218-.018-.441.034-.658q.006-.294.012-.588c.044-.218-.018-.441.034-.658q.006-.294.012-.588c.044-.218-.019-.441.034-.658-.1-.066-.206,0-.306-.029-.108.048-.226-.005-.335.034l-.305.013c-.1.041-.2,0-.295.033l-.308.013c-.109.045-.229-.005-.339.034l-.309.012c-.109.045-.228,0-.338.033l-.311.013c-.108.046-.226,0-.335.033l-.354.013c-.109.045-.228,0-.338.033l-.357.013c-.124.049-.258-.007-.382.034l-.352.013c-.126.046-.26-.007-.387.034l-.354.012c-.125.047-.259-.006-.384.033l-.358.012c-.124.048-.256-.006-.381.033l-.4.013c-.139.05-.287-.007-.427.034l-.4.013c-.14.049-.289-.008-.429.034l-.4.012c-.14.049-.288-.007-.429.033l-.447.013c-.141.048-.289-.007-.431.033l-.447.013c-.156.05-.32-.009-.476.034l-.314.012c-.064.073-.031.162-.031.242q0,2.321,0,4.643a.579.579,0,0,1-.019.25c0,.314.009.629.008.943q-.009,2.315-.021,4.63a.814.814,0,0,0-.013.252q0,2.548,0,5.095a.563.563,0,0,1-.019.25c0,.537.007,1.074.005,1.612q-.006,1.981-.018,3.963a.831.831,0,0,0-.013.252q0,2.526,0,5.053a.6.6,0,0,1-.019.251c0,.314.009.628.008.942q-.008,2.313-.02,4.627a.773.773,0,0,0-.014.252q0,2.549,0,5.1a.588.588,0,0,1-.019.251c0,.314.009.629.008.943q-.008,2.314-.02,4.628a.8.8,0,0,0-.013.252q0,2.549,0,5.1a.58.58,0,0,1-.019.25c0,.445.02.891,0,1.336-.007.161.061.194.177.218a12.858,12.858,0,0,1,1.519.431c.782.266,1.54.6,2.33.844.7.215,1.4.424,2.092.652a12.5,12.5,0,0,0,3.343.852,1.592,1.592,0,0,0,.458,0,3.675,3.675,0,0,0,.572-.135,2.335,2.335,0,0,1,1.093-.235c.08.033.17,0,.25.033l.4.06c.11.037.228-.012.338.033l.355.013c.11.037.228-.012.338.033a.287.287,0,0,1,.09,0c.553.155,1.106.312,1.659.467.188.052.283.156.224.359.054.326-.011.656.034.981q.007.478.012.955c.053.311-.01.626.033.938l.013.957a1.434,1.434,0,0,1,0,.551,1.018,1.018,0,0,1-.654.343.164.164,0,0,0-.141.092.37.37,0,0,0,.007.228,1.817,1.817,0,0,0,.8.827c.081.057.112.022.17-.018.146-.1.282-.127.4.056a1.851,1.851,0,0,0,.221.234.972.972,0,0,1,.269.554,1.364,1.364,0,0,0,.238.74c.264.312.532.62.8.933a.2.2,0,0,0,.2.085c.312-.043.622-.093.934-.128.144-.016.142-.059.08-.172a2.013,2.013,0,0,1-.32-.841.327.327,0,0,1-.035-.236.839.839,0,0,0-.222-.66.279.279,0,0,1-.067-.252.417.417,0,0,1,0-.306h0q-.045-.289-.09-.577a.335.335,0,0,1,0-.338h0c.086-.6.232-1.192.367-1.784a.333.333,0,0,1,.23-.236,1.916,1.916,0,0,1,.774-.146,3.005,3.005,0,0,1,.662-.034l.22-.011a.563.563,0,0,1,.288-.035l.22-.011a.568.568,0,0,1,.288-.035c.134.111.015.153-.061.171a1.441,1.441,0,0,1-.295.01h0a.565.565,0,0,1-.288.035l-.22.011a.567.567,0,0,1-.288.035,3.95,3.95,0,0,0-1.1.122,3.545,3.545,0,0,1,.834.89,5.04,5.04,0,0,1,1.056,2.537.527.527,0,0,1,.034.288v.511a.521.521,0,0,1-.034.288h0a4.515,4.515,0,0,1-2.248,3.676h.938c.077-.042.165,0,.243-.035a4.31,4.31,0,0,0,1.653-.61,2.306,2.306,0,0,0,1.126-1.43c.111-.459.187-.923.276-1.385.034-.08,0-.169.033-.249l.013-.351a3.441,3.441,0,0,0,0-.689q-.007-.179-.013-.358c-.043-.076,0-.165-.035-.242a2.263,2.263,0,0,1-.052-.221,4.97,4.97,0,0,0-.726-2,4.516,4.516,0,0,0-.753-.9c.072-.127.321-.052.271-.246a1.557,1.557,0,0,0-.9-1.217c-.3-.108-.339-.253-.295-.5l.008-.045c.041-.156-.017-.319.033-.474-.063-.238.016-.345.271-.4.326-.064.637-.2.96-.287a2.289,2.289,0,0,1,1.128-.219.811.811,0,0,0,.413-.015c0-.075.007-.15.01-.225.039-.126-.014-.259.033-.384l.013-.4c.039-.126-.013-.26.033-.385q.006-.2.013-.4c.039-.126-.013-.26.033-.386,0-.133.009-.266.013-.4.042-.14-.016-.288.034-.427,0-.119.008-.239.012-.358.042-.14-.016-.288.034-.427q.005-.179.011-.357c.042-.141-.015-.289.034-.429l.013-.4c.039-.125-.014-.259.033-.383,0-.134.009-.268.013-.4.039-.126-.014-.259.033-.385,0-.133.009-.267.013-.4.039-.126-.014-.26.033-.385q.007-.2.013-.4c.039-.126-.013-.261.033-.387,0-.133.009-.265.012-.4.042-.14-.016-.288.034-.427,0-.119.008-.239.012-.358.042-.14-.016-.288.034-.428,0-.135.009-.269.013-.4.038-.125-.014-.258.033-.383,0-.134.009-.268.013-.4.039-.126-.014-.259.033-.384l.013-.4c.039-.126-.013-.26.033-.385q.006-.2.013-.4c.039-.126-.013-.26.033-.386q.006-.2.013-.4c.042-.14-.016-.288.035-.427,0-.119.008-.239.011-.358.042-.14-.016-.288.035-.428l.013-.4c.038-.125-.015-.258.033-.383q.007-.2.013-.4c.038-.125-.014-.259.033-.384l.013-.4c.039-.126-.014-.26.033-.385q.007-.2.013-.4c.039-.126-.013-.26.033-.386q.007-.2.013-.4c.042-.14-.016-.288.034-.427,0-.119.008-.238.012-.358.042-.14-.016-.288.034-.427l.011-.357c.042-.14-.015-.289.034-.429l.013-.4c.039-.125-.014-.259.033-.383q.006-.2.013-.4c.039-.126-.014-.26.033-.385l.013-.4c.039-.126-.013-.26.033-.386,0-.133.009-.266.013-.4.039-.126-.013-.261.033-.387,0-.133.008-.265.012-.4.042-.14-.016-.288.034-.427q.005-.179.012-.357c.042-.14-.016-.289.034-.428q.006-.2.013-.4c.039-.125-.014-.258.033-.383l.013-.4c.039-.126-.014-.259.033-.384l.013-.4c.039-.126-.013-.26.033-.385l.013-.4c.039-.126-.013-.26.033-.386q.007-.2.013-.4c.042-.14-.016-.288.034-.427q.006-.179.012-.358c.042-.14-.016-.288.034-.428q.006-.2.013-.4c.039-.125-.014-.258.033-.382,0-.134.008-.268.013-.4.039-.125-.014-.259.033-.383q.007-.2.013-.4c.039-.126-.013-.26.033-.385,0-.133.009-.267.013-.4.039-.126-.013-.26.033-.386q.006-.2.012-.4c.042-.14-.016-.287.034-.427,0-.119.008-.239.012-.358.042-.14-.016-.288.034-.427l.011-.357c.042-.141-.015-.289.034-.428q.006-.2.013-.4c.039-.126-.014-.259.033-.383l.013-.4c.038-.126-.014-.26.033-.385,0-.134.009-.267.013-.4.039-.126-.013-.26.033-.386q.007-.2.013-.4c.039-.126-.013-.261.033-.386q.006-.2.013-.4c.042-.14-.016-.288.034-.427,0-.119.008-.238.012-.357.042-.14-.016-.289.034-.428,0-.134.009-.269.013-.4.039-.125-.014-.258.033-.383q.007-.2.013-.4c.039-.126-.014-.259.033-.384q.007-.2.013-.4c.039-.126-.013-.26.033-.385l.013-.4c.039-.126-.013-.261.033-.387q.006-.2.013-.4c.042-.14-.016-.288.034-.427q.006-.179.012-.358c.042-.14-.016-.288.034-.428q.006-.2.013-.4c.039-.125-.015-.258.033-.383q.007-.2.013-.4c.039-.126-.014-.259.033-.384l.013-.4c.039-.126-.014-.26.033-.385l.013-.4c.039-.126-.013-.26.033-.386l.012-.4c.042-.14-.016-.287.034-.427l.012-.358c.042-.14-.016-.288.034-.428,0-.119.008-.238.012-.357.042-.14-.015-.289.034-.429,0-.134.008-.268.013-.4.039-.126-.014-.259.033-.384q.007-.2.013-.4c.039-.126-.014-.259.033-.384q.006-.2.013-.4c.039-.126-.013-.26.033-.386q.006-.2.013-.4c.039-.126-.013-.261.033-.387l.012-.4c.042-.14-.016-.288.034-.427q.005-.179.012-.357c.042-.14-.016-.289.034-.429q.006-.2.013-.4c.007-.107.049-.216-.026-.316A1.423,1.423,0,0,1,2827.352,1017Z" transform="translate(-2801.779 -1016.263)" fill="#fff"/></g></g></g></g></svg>