<svg xmlns="http://www.w3.org/2000/svg" xmlns:xlink="http://www.w3.org/1999/xlink" width="160" height="190" viewBox="0 0 160 190"><defs><filter id="a" x="-2" y="2" width="164" height="191" filterUnits="userSpaceOnUse"><feOffset dy="2" input="SourceAlpha"/><feGaussianBlur stdDeviation="6" result="b"/><feFlood flood-color="#44d62c" flood-opacity="0.651"/><feComposite operator="in" in2="b"/><feComposite in="SourceGraphic"/></filter><clipPath id="d"><rect width="160" height="190"/></clipPath></defs><g id="c" clip-path="url(#d)"><g transform="translate(-3432 -328.66)"><g transform="matrix(1, 0, 0, 1, 3432, 328.66)" filter="url(#a)"><g transform="translate(16 18)" fill="#44d62c" stroke="#fff" stroke-width="1" opacity="0.93"><rect width="128" height="155" rx="14" stroke="none"/><rect x="0.5" y="0.5" width="127" height="154" rx="13.5" fill="none"/></g></g><path d="M-14.124-2.977l.019.038a3.177,3.177,0,0,1-.724,2.3A2.857,2.857,0,0,1-17,.133a3.054,3.054,0,0,1-2.292-.879,3.422,3.422,0,0,1-.857-2.491V-6a3.508,3.508,0,0,1,.828-2.491A2.893,2.893,0,0,1-17.1-9.375a2.937,2.937,0,0,1,2.225.787,3.334,3.334,0,0,1,.778,2.33l-.019.038h-1.739A2.157,2.157,0,0,0-16.1-7.533a1.14,1.14,0,0,0-1-.4,1.059,1.059,0,0,0-.933.477,2.589,2.589,0,0,0-.324,1.442v2.777a2.483,2.483,0,0,0,.346,1.455A1.172,1.172,0,0,0-17-1.308a1.023,1.023,0,0,0,.911-.378,2.256,2.256,0,0,0,.225-1.292ZM-9.642-.793a2.027,2.027,0,0,1-.676.689,1.712,1.712,0,0,1-.9.238,1.691,1.691,0,0,1-1.438-.7,3.621,3.621,0,0,1-.517-2.155V-6.868h1.8V-2.7a2.361,2.361,0,0,0,.178,1.061.567.567,0,0,0,.527.33,1.169,1.169,0,0,0,.524-.111,1.05,1.05,0,0,0,.384-.327V-6.868h1.809V0H-9.534Zm8.214-2.114A3.812,3.812,0,0,1-2-.692,1.923,1.923,0,0,1-3.688.133a1.564,1.564,0,0,1-.841-.222,1.865,1.865,0,0,1-.613-.647L-5.25,0H-6.811V-9.9h1.8v3.618a1.739,1.739,0,0,1,.568-.527A1.481,1.481,0,0,1-3.7-7a1.912,1.912,0,0,1,1.695.86A4.055,4.055,0,0,1-1.428-3.84Zm-1.8-.937a3.188,3.188,0,0,0-.2-1.259.737.737,0,0,0-.74-.451.854.854,0,0,0-.5.146,1.077,1.077,0,0,0-.343.413v3.21a.854.854,0,0,0,.34.353,1.041,1.041,0,0,0,.511.118.741.741,0,0,0,.74-.4A2.857,2.857,0,0,0-3.225-2.91ZM2.177.133A2.623,2.623,0,0,1,.121-.717,3.1,3.1,0,0,1-.641-2.863v-.965A3.545,3.545,0,0,1,.067-6.106,2.365,2.365,0,0,1,2.025-7a2.276,2.276,0,0,1,1.866.806,3.366,3.366,0,0,1,.66,2.2v1.1h-3.4v.025a1.9,1.9,0,0,0,.308,1.117,1.061,1.061,0,0,0,.93.438,2.482,2.482,0,0,0,.825-.114A4.341,4.341,0,0,0,3.974-1.8L4.431-.654a2.723,2.723,0,0,1-.949.565A3.694,3.694,0,0,1,2.177.133ZM2.025-5.554a.67.67,0,0,0-.635.4,2.564,2.564,0,0,0-.229,1.065H2.78v-.255A1.831,1.831,0,0,0,2.6-5.239.612.612,0,0,0,2.025-5.554ZM7.6-8.576v1.708h.952v1.308H7.6v3.447a1.122,1.122,0,0,0,.121.6.377.377,0,0,0,.33.181,2.076,2.076,0,0,0,.279-.016A2.043,2.043,0,0,0,8.588-1.4l.14,1.371A3.6,3.6,0,0,1,8.182.1a4.109,4.109,0,0,1-.59.038A1.656,1.656,0,0,1,6.262-.4a2.589,2.589,0,0,1-.46-1.7V-5.561H4.989V-6.868H5.8V-8.576ZM12.917,0a3.082,3.082,0,0,1-.136-.375,3.057,3.057,0,0,1-.092-.413,2.147,2.147,0,0,1-.619.67,1.46,1.46,0,0,1-.847.251A1.756,1.756,0,0,1,9.861-.425,2.124,2.124,0,0,1,9.35-1.917,1.955,1.955,0,0,1,10-3.485a2.9,2.9,0,0,1,1.933-.559h.679V-4.6a1.381,1.381,0,0,0-.181-.771.61.61,0,0,0-.543-.27.523.523,0,0,0-.457.216,1.085,1.085,0,0,0-.152.628L9.534-4.805l-.019-.038a1.883,1.883,0,0,1,.663-1.523A2.626,2.626,0,0,1,12.01-7a2.451,2.451,0,0,1,1.742.625,2.317,2.317,0,0,1,.67,1.781v2.78a6.016,6.016,0,0,0,.07.946A5.153,5.153,0,0,0,14.708,0ZM11.743-1.225a.929.929,0,0,0,.5-.146,1.084,1.084,0,0,0,.365-.375V-3.009h-.679a.657.657,0,0,0-.6.286A1.312,1.312,0,0,0,11.153-2a.919.919,0,0,0,.159.559A.507.507,0,0,0,11.743-1.225ZM18.554-1.8a.667.667,0,0,0-.229-.5,3.847,3.847,0,0,0-.876-.524A4.619,4.619,0,0,1,15.9-3.7a1.667,1.667,0,0,1-.517-1.27A1.854,1.854,0,0,1,16.044-6.4,2.533,2.533,0,0,1,17.8-7a2.626,2.626,0,0,1,1.822.609,1.922,1.922,0,0,1,.654,1.555l-.019.038H18.516a1.176,1.176,0,0,0-.178-.686.621.621,0,0,0-.546-.254.685.685,0,0,0-.5.2.638.638,0,0,0-.2.476.638.638,0,0,0,.2.492,4.091,4.091,0,0,0,.882.511,4.278,4.278,0,0,1,1.6.873A1.76,1.76,0,0,1,20.3-1.86a1.756,1.756,0,0,1-.7,1.435,2.849,2.849,0,0,1-1.834.559,2.539,2.539,0,0,1-1.879-.692,2.043,2.043,0,0,1-.66-1.562l.013-.038h1.65a1.12,1.12,0,0,0,.254.787.9.9,0,0,0,.667.241.781.781,0,0,0,.552-.178A.636.636,0,0,0,18.554-1.8Z" transform="translate(3512 484)" fill="#fff"/><path d="M4592.735,5920.677a5.287,5.287,0,0,0-1.92-.442l-.144-.012-.059-.005c.239-6.37.447-11.94.5-13.452a9.781,9.781,0,0,0,2.047-2.873,1.039,1.039,0,0,0,.078-.4v-4.976a2.616,2.616,0,0,0-1.763-2.468v-1.82a3.6,3.6,0,0,0,.992-2.4v-3.156c0-2.449-2.812-4.539-8.13-6.042a77.921,77.921,0,0,0-36.106,0c-5.319,1.5-8.131,3.593-8.131,6.042v3.156a3.594,3.594,0,0,0,.993,2.4v1.82a2.616,2.616,0,0,0-1.764,2.468v4.976a1.057,1.057,0,0,0,.078.4,9.8,9.8,0,0,0,2.078,2.9c.15,3.993,1.279,34.11,1.364,36.657.044,1.32,2.246,4.055,5.853,6.35,3.318,2.11,9.064,4.625,17.6,4.625,8.972,0,14.7-2.52,17.929-4.633,3.744-2.453,5.482-5.185,5.52-6.342.042-1.241.331-9.023.634-17.142.188,0,.375.008.566.008a3.152,3.152,0,0,0,3.333-3.116A2.674,2.674,0,0,0,4592.735,5920.677Zm-24.783-11.686a2.474,2.474,0,1,0-2.036.618c.1.274.209.566.335.878H4560.3v-5.4c0-.93.314-1.244,1.244-1.244h9.481c.93,0,1.243.314,1.243,1.244v5.4h-3.71C4568.318,5909.94,4568.117,5909.437,4567.952,5908.991Zm19.892-2.229c-3.981,2.829-9.331,3.6-13.455,3.709v-3.527c12.22-.289,15.768-5.561,16.733-7.859v4.17A10.546,10.546,0,0,1,4587.844,5906.763Zm2.214-14.122a1.061,1.061,0,0,0-.647.67,17.43,17.43,0,0,1-5.647,2.528,75.863,75.863,0,0,1-34.954,0,17.424,17.424,0,0,1-5.646-2.528,1.061,1.061,0,0,0-.648-.67,1.613,1.613,0,0,1-.255-.525,19.3,19.3,0,0,0,5.974,2.6,77.921,77.921,0,0,0,36.106,0,19.311,19.311,0,0,0,5.974-2.6A1.616,1.616,0,0,1,4590.058,5892.641Zm-46.844,3.246a22.413,22.413,0,0,0,5.021,1.991,77.939,77.939,0,0,0,36.106,0,22.384,22.384,0,0,0,5.02-1.991v1.84a7.217,7.217,0,0,1-2.467,3.463c-3.315,2.772-8.447,3.531-12.513,3.636a3.059,3.059,0,0,0-3.352-3.1h-9.481a3.059,3.059,0,0,0-3.353,3.1c-4.066-.105-9.2-.864-12.513-3.636a7.231,7.231,0,0,1-2.467-3.461Zm30.116,16.718c7.782,0,12.638-1.946,15.6-4-.121,3.2-.348,9.288-.58,15.493a25.159,25.159,0,0,1-9.543-2.582,21.613,21.613,0,0,1-7.146-5.888,23.769,23.769,0,0,1-2.029-3.023Zm-24.52-27.929a75.9,75.9,0,0,1,34.954,0c3.039.859,6.587,2.423,6.587,4s-3.548,3.143-6.587,4a75.9,75.9,0,0,1-34.954,0c-3.039-.859-6.586-2.423-6.586-4S4545.771,5885.536,4548.81,5884.676Zm-7.359,14.41c.967,2.3,4.515,7.57,16.734,7.859v3.527c-4.125-.106-9.473-.88-13.455-3.709a10.54,10.54,0,0,1-3.279-3.507Zm46.184,44.261c-.282,1.181-5.789,8.963-21.332,8.963-7.815,0-13.087-2.225-16.136-4.091-3.5-2.144-5.039-4.386-5.2-4.89-.089-2.609-1-26.968-1.291-34.7,2.961,2.047,7.809,3.979,15.566,3.979h7.976a26.217,26.217,0,0,0,2.717,4.262c3.1,3.956,8.744,8.607,18.331,9.348C4587.968,5934.267,4587.681,5941.994,4587.635,5943.347Zm3.317-19.146c-.165,0-.326,0-.488-.005q.034-.932.07-1.857l.11.009c1.413.113,1.522.427,1.522.857C4592.167,5924.083,4591.31,5924.194,4590.952,5924.2Z" transform="translate(-1054.332 -5498.429)" fill="#fff"/></g></g></svg>