<svg xmlns="http://www.w3.org/2000/svg" xmlns:xlink="http://www.w3.org/1999/xlink" width="160" height="190" viewBox="0 0 160 190"><defs><filter id="a" x="-2" y="2" width="164" height="191" filterUnits="userSpaceOnUse"><feOffset dy="2" input="SourceAlpha"/><feGaussianBlur stdDeviation="6" result="b"/><feFlood flood-color="#44d62c" flood-opacity="0.651"/><feComposite operator="in" in2="b"/><feComposite in="SourceGraphic"/></filter><clipPath id="d"><rect width="160" height="190"/></clipPath></defs><g id="c" clip-path="url(#d)"><g transform="translate(-3112 -328.66)"><g transform="matrix(1, 0, 0, 1, 3112, 328.66)" filter="url(#a)"><g transform="translate(16 18)" fill="#44d62c" stroke="#fff" stroke-width="1" opacity="0.93"><rect width="128" height="155" rx="14" stroke="none"/><rect x="0.5" y="0.5" width="127" height="154" rx="13.5" fill="none"/></g></g><path d="M-46.36-4.056h-3.1v2.615h3.65V0h-5.459V-9.242h5.446V-7.8h-3.637v2.3h3.1Zm3.021-2.812.076.946a2.289,2.289,0,0,1,.7-.79A1.6,1.6,0,0,1-41.644-7a1.591,1.591,0,0,1,1.349.66A3.5,3.5,0,0,1-39.8-4.259V0h-1.809V-4.264a1.842,1.842,0,0,0-.2-1,.7.7,0,0,0-.619-.289.822.822,0,0,0-.444.127,1.083,1.083,0,0,0-.343.349V0h-1.8V-6.868ZM-36.47-2.59l.083.521h.038l.089-.521.793-4.278h1.885L-35.487,0h-1.765l-1.911-6.868h1.885ZM-29.653,0a3.082,3.082,0,0,1-.136-.375,3.057,3.057,0,0,1-.092-.413,2.147,2.147,0,0,1-.619.67,1.46,1.46,0,0,1-.847.251,1.756,1.756,0,0,1-1.362-.559,2.124,2.124,0,0,1-.511-1.492,1.955,1.955,0,0,1,.651-1.568,2.9,2.9,0,0,1,1.933-.559h.679V-4.6a1.381,1.381,0,0,0-.181-.771.61.61,0,0,0-.543-.27.523.523,0,0,0-.457.216,1.085,1.085,0,0,0-.152.628l-1.746-.006-.019-.038a1.883,1.883,0,0,1,.663-1.523A2.626,2.626,0,0,1-30.561-7a2.451,2.451,0,0,1,1.742.625,2.317,2.317,0,0,1,.67,1.781v2.78a6.017,6.017,0,0,0,.07.946A5.153,5.153,0,0,0-27.863,0Zm-1.174-1.225a.929.929,0,0,0,.5-.146,1.084,1.084,0,0,0,.365-.375V-3.009h-.679a.657.657,0,0,0-.6.286A1.312,1.312,0,0,0-31.418-2a.919.919,0,0,0,.159.559A.507.507,0,0,0-30.827-1.225Zm6.811-.571a.667.667,0,0,0-.229-.5,3.847,3.847,0,0,0-.876-.524A4.619,4.619,0,0,1-26.673-3.7a1.667,1.667,0,0,1-.517-1.27A1.854,1.854,0,0,1-26.527-6.4,2.533,2.533,0,0,1-24.772-7a2.626,2.626,0,0,1,1.822.609A1.922,1.922,0,0,1-22.3-4.831l-.019.038h-1.739a1.176,1.176,0,0,0-.178-.686.621.621,0,0,0-.546-.254.685.685,0,0,0-.5.2.638.638,0,0,0-.2.476.638.638,0,0,0,.2.492,4.091,4.091,0,0,0,.882.511,4.278,4.278,0,0,1,1.6.873,1.76,1.76,0,0,1,.521,1.323,1.756,1.756,0,0,1-.7,1.435A2.849,2.849,0,0,1-24.8.133a2.539,2.539,0,0,1-1.879-.692,2.043,2.043,0,0,1-.66-1.562l.013-.038h1.65a1.12,1.12,0,0,0,.254.787.9.9,0,0,0,.667.241.781.781,0,0,0,.552-.178A.636.636,0,0,0-24.016-1.8ZM-18.7.133a2.623,2.623,0,0,1-2.057-.851,3.1,3.1,0,0,1-.762-2.146v-.965a3.545,3.545,0,0,1,.708-2.279A2.365,2.365,0,0,1-18.849-7a2.276,2.276,0,0,1,1.866.806,3.366,3.366,0,0,1,.66,2.2v1.1h-3.4v.025a1.9,1.9,0,0,0,.308,1.117,1.061,1.061,0,0,0,.93.438,2.482,2.482,0,0,0,.825-.114A4.341,4.341,0,0,0-16.9-1.8l.457,1.149a2.723,2.723,0,0,1-.949.565A3.694,3.694,0,0,1-18.7.133Zm-.152-5.687a.67.67,0,0,0-.635.4,2.564,2.564,0,0,0-.229,1.065h1.619v-.255a1.831,1.831,0,0,0-.178-.889A.612.612,0,0,0-18.849-5.554Zm8.208,2.234V0h-1.809V-9.242h3.212a2.914,2.914,0,0,1,2.184.818,2.935,2.935,0,0,1,.8,2.143,2.926,2.926,0,0,1-.8,2.146,2.922,2.922,0,0,1-2.18.815Zm0-1.441h1.4a1.017,1.017,0,0,0,.882-.426,1.814,1.814,0,0,0,.3-1.081,1.884,1.884,0,0,0-.3-1.1A1.008,1.008,0,0,0-9.239-7.8h-1.4Zm10.455.7h-3.1v2.615H.359V0H-5.1V-9.242H.346V-7.8H-3.291v2.3h3.1ZM6.04,0h-1.8V-9.242h1.8ZM9.074-6.868l.076.946a2.289,2.289,0,0,1,.7-.79A1.6,1.6,0,0,1,10.769-7a1.591,1.591,0,0,1,1.349.66,3.5,3.5,0,0,1,.492,2.076V0H10.8V-4.264a1.842,1.842,0,0,0-.2-1,.7.7,0,0,0-.619-.289.822.822,0,0,0-.444.127,1.083,1.083,0,0,0-.343.349V0h-1.8V-6.868ZM13.5-3.4A5.013,5.013,0,0,1,14.095-6,1.867,1.867,0,0,1,15.777-7a1.4,1.4,0,0,1,.724.19,1.9,1.9,0,0,1,.578.546V-9.9h1.8V0H17.313l-.121-.749a2.019,2.019,0,0,1-.619.657,1.458,1.458,0,0,1-.8.225A1.882,1.882,0,0,1,14.092-.8,4.531,4.531,0,0,1,13.5-3.263Zm1.8.134a3.889,3.889,0,0,0,.213,1.439.737.737,0,0,0,.72.516.9.9,0,0,0,.489-.131,1.078,1.078,0,0,0,.355-.379V-4.949a1.272,1.272,0,0,0-.355-.446.766.766,0,0,0-.476-.159.764.764,0,0,0-.724.592A4.553,4.553,0,0,0,15.3-3.4ZM23.54-.793a2.027,2.027,0,0,1-.676.689,1.712,1.712,0,0,1-.9.238,1.691,1.691,0,0,1-1.438-.7,3.621,3.621,0,0,1-.517-2.155V-6.868h1.8V-2.7a2.361,2.361,0,0,0,.178,1.061.567.567,0,0,0,.527.33,1.169,1.169,0,0,0,.524-.111,1.05,1.05,0,0,0,.384-.327V-6.868h1.809V0H23.648Zm5.821-1a.667.667,0,0,0-.229-.5,3.847,3.847,0,0,0-.876-.524A4.619,4.619,0,0,1,26.7-3.7a1.667,1.667,0,0,1-.517-1.27A1.854,1.854,0,0,1,26.851-6.4,2.533,2.533,0,0,1,28.606-7a2.626,2.626,0,0,1,1.822.609,1.922,1.922,0,0,1,.654,1.555l-.019.038H29.323a1.176,1.176,0,0,0-.178-.686.621.621,0,0,0-.546-.254.685.685,0,0,0-.5.2.638.638,0,0,0-.2.476.638.638,0,0,0,.2.492,4.091,4.091,0,0,0,.882.511,4.278,4.278,0,0,1,1.6.873,1.76,1.76,0,0,1,.521,1.323,1.756,1.756,0,0,1-.7,1.435,2.849,2.849,0,0,1-1.834.559A2.539,2.539,0,0,1,26.7-.559a2.043,2.043,0,0,1-.66-1.562l.013-.038H27.7a1.12,1.12,0,0,0,.254.787.9.9,0,0,0,.667.241.781.781,0,0,0,.552-.178A.636.636,0,0,0,29.361-1.8Zm4.792-6.779v1.708h.952v1.308h-.952v3.447a1.122,1.122,0,0,0,.121.6.377.377,0,0,0,.33.181,2.076,2.076,0,0,0,.279-.016,2.043,2.043,0,0,0,.254-.054l.14,1.371A3.6,3.6,0,0,1,34.731.1a4.109,4.109,0,0,1-.59.038A1.656,1.656,0,0,1,32.811-.4a2.589,2.589,0,0,1-.46-1.7V-5.561h-.812V-6.868h.813V-8.576Zm5.211,3.352-.679-.019a.769.769,0,0,0-.473.14.887.887,0,0,0-.289.394V0h-1.8V-6.868H37.8l.07.92.032.013a1.873,1.873,0,0,1,.46-.778A.965.965,0,0,1,39.054-7a1.6,1.6,0,0,1,.257.022,1.746,1.746,0,0,1,.238.054ZM42.164,0h-1.8V-6.868h1.8Zm0-8.525h-1.8V-9.9h1.8ZM46.766,0a3.082,3.082,0,0,1-.136-.375,3.057,3.057,0,0,1-.092-.413,2.147,2.147,0,0,1-.619.67,1.46,1.46,0,0,1-.847.251A1.756,1.756,0,0,1,43.71-.425,2.124,2.124,0,0,1,43.2-1.917a1.955,1.955,0,0,1,.651-1.568,2.9,2.9,0,0,1,1.933-.559h.679V-4.6a1.381,1.381,0,0,0-.181-.771.61.61,0,0,0-.543-.27.523.523,0,0,0-.457.216,1.085,1.085,0,0,0-.152.628l-1.746-.006-.019-.038a1.883,1.883,0,0,1,.663-1.523A2.626,2.626,0,0,1,45.859-7,2.451,2.451,0,0,1,47.6-6.37a2.317,2.317,0,0,1,.67,1.781v2.78a6.016,6.016,0,0,0,.07.946A5.153,5.153,0,0,0,48.556,0ZM45.592-1.225a.929.929,0,0,0,.5-.146,1.084,1.084,0,0,0,.365-.375V-3.009h-.679a.657.657,0,0,0-.6.286A1.312,1.312,0,0,0,45-2a.919.919,0,0,0,.159.559A.507.507,0,0,0,45.592-1.225ZM51.3,0H49.5V-9.9h1.8Z" transform="translate(3192 484)" fill="#fff"/><path d="M99.584,57.329l-8.434-2.41a1.25,1.25,0,0,1-.908-1.2V51.853h1.25a2.5,2.5,0,0,0,2.5-2.5v-7.5a2.5,2.5,0,0,0-2.5-2.5h-17.5a2.5,2.5,0,0,0-2.5,2.5v7.5a2.5,2.5,0,0,0,2.5,2.5h1.25v1.864a1.25,1.25,0,0,1-.906,1.2L65.9,57.329a11.3,11.3,0,0,0-8.159,10.816V108.1a6.258,6.258,0,0,0,6.25,6.25h37.5a6.258,6.258,0,0,0,6.25-6.25V68.146A11.3,11.3,0,0,0,99.584,57.329ZM73.993,41.853h2.5V45.6h2.5v-3.75h2.5V45.6h2.5v-3.75h2.5V45.6h2.5v-3.75h2.5v7.5h-17.5Zm-7.4,17.875,8.436-2.41a3.767,3.767,0,0,0,2.719-3.6V51.853h10v1.864a3.768,3.768,0,0,0,2.72,3.606l8.435,2.4a8.786,8.786,0,0,1,6.345,8.418v6.207h-45V68.146A8.786,8.786,0,0,1,66.588,59.728Zm38.655,17.125v22.5h-45v-22.5Zm-3.75,35h-37.5a3.75,3.75,0,0,1-3.75-3.75v-6.25h45v6.25A3.75,3.75,0,0,1,101.493,111.853Z" transform="translate(3109.257 341.647)" fill="#fff"/><path d="M107.512,160.1h3.753a8.819,8.819,0,0,1,2.341.239,2.617,2.617,0,0,1,1.23.691,2.369,2.369,0,0,1,.558,1.093,9.8,9.8,0,0,1,.146,1.987v1.248a5.2,5.2,0,0,1-.283,2,1.938,1.938,0,0,1-1.04.965,4.913,4.913,0,0,1-1.978.337h-1v5.771h-3.727Zm3.727,2.452V166.2q.159.009.274.009a.861.861,0,0,0,.712-.252,1.854,1.854,0,0,0,.2-1.049v-1.177a1.383,1.383,0,0,0-.23-.956A1.446,1.446,0,0,0,111.239,162.555Z" transform="translate(3076.707 262.675)" fill="#fff"/><path d="M133.812,160.1h6.214v2.868h-2.487v2.717h2.328v2.726h-2.328v3.151h2.735v2.868h-6.462Z" transform="translate(3059.507 262.675)" fill="#fff"/></g></g></svg>