<svg xmlns="http://www.w3.org/2000/svg" xmlns:xlink="http://www.w3.org/1999/xlink" width="160" height="190" viewBox="0 0 160 190"><defs><clipPath id="b"><rect width="160" height="190"/></clipPath></defs><g id="a" clip-path="url(#b)"><g transform="translate(-2462 -12.66)"><rect width="128" height="155" rx="14" transform="translate(2478 30.66)" fill="none" opacity="0.93"/><path d="M-13.749,0h-1.8V-3.828h-2.869V0H-20.23V-9.242h1.809v3.974h2.869V-9.242h1.8Zm3.167,0h-1.8V-6.868h1.8Zm0-8.525h-1.8V-9.9h1.8ZM-6.652.133A2.623,2.623,0,0,1-8.709-.717a3.1,3.1,0,0,1-.762-2.146v-.965a3.545,3.545,0,0,1,.708-2.279A2.365,2.365,0,0,1-6.8-7a2.276,2.276,0,0,1,1.866.806,3.366,3.366,0,0,1,.66,2.2v1.1h-3.4v.025a1.9,1.9,0,0,0,.308,1.117,1.061,1.061,0,0,0,.93.438,2.482,2.482,0,0,0,.825-.114A4.341,4.341,0,0,0-4.856-1.8L-4.4-.654a2.723,2.723,0,0,1-.949.565A3.694,3.694,0,0,1-6.652.133ZM-6.8-5.554a.67.67,0,0,0-.635.4,2.564,2.564,0,0,0-.229,1.065h1.619v-.255a1.831,1.831,0,0,0-.178-.889A.612.612,0,0,0-6.8-5.554ZM-1.485,0h-1.8V-9.9h1.8ZM2.444.133A2.623,2.623,0,0,1,.387-.717,3.1,3.1,0,0,1-.375-2.863v-.965A3.545,3.545,0,0,1,.333-6.106,2.365,2.365,0,0,1,2.292-7a2.276,2.276,0,0,1,1.866.806,3.366,3.366,0,0,1,.66,2.2v1.1h-3.4v.025A1.9,1.9,0,0,0,1.73-1.746a1.061,1.061,0,0,0,.93.438,2.482,2.482,0,0,0,.825-.114A4.341,4.341,0,0,0,4.24-1.8L4.7-.654a2.723,2.723,0,0,1-.949.565A3.694,3.694,0,0,1,2.444.133ZM2.292-5.554a.67.67,0,0,0-.635.4,2.564,2.564,0,0,0-.229,1.065H3.047v-.255a1.831,1.831,0,0,0-.178-.889A.612.612,0,0,0,2.292-5.554Zm6.678.33L8.29-5.243a.769.769,0,0,0-.473.14.887.887,0,0,0-.289.394V0h-1.8V-6.868H7.408l.07.92.032.013a1.873,1.873,0,0,1,.46-.778A.965.965,0,0,1,8.658-7a1.6,1.6,0,0,1,.257.022,1.746,1.746,0,0,1,.238.054ZM13.229,0a3.082,3.082,0,0,1-.136-.375A3.057,3.057,0,0,1,13-.787a2.147,2.147,0,0,1-.619.67,1.46,1.46,0,0,1-.847.251,1.756,1.756,0,0,1-1.362-.559,2.124,2.124,0,0,1-.511-1.492,1.955,1.955,0,0,1,.651-1.568,2.9,2.9,0,0,1,1.933-.559h.679V-4.6a1.381,1.381,0,0,0-.181-.771.61.61,0,0,0-.543-.27.523.523,0,0,0-.457.216,1.085,1.085,0,0,0-.152.628L9.845-4.805l-.019-.038a1.883,1.883,0,0,1,.663-1.523A2.626,2.626,0,0,1,12.321-7a2.451,2.451,0,0,1,1.742.625,2.317,2.317,0,0,1,.67,1.781v2.78a6.016,6.016,0,0,0,.07.946A5.153,5.153,0,0,0,15.019,0ZM12.054-1.225a.929.929,0,0,0,.5-.146,1.084,1.084,0,0,0,.365-.375V-3.009h-.679a.657.657,0,0,0-.6.286A1.312,1.312,0,0,0,11.464-2a.919.919,0,0,0,.159.559A.507.507,0,0,0,12.054-1.225ZM18.865-1.8a.667.667,0,0,0-.229-.5,3.847,3.847,0,0,0-.876-.524A4.619,4.619,0,0,1,16.209-3.7a1.667,1.667,0,0,1-.517-1.27A1.854,1.854,0,0,1,16.355-6.4,2.533,2.533,0,0,1,18.11-7a2.626,2.626,0,0,1,1.822.609,1.922,1.922,0,0,1,.654,1.555l-.019.038H18.827a1.176,1.176,0,0,0-.178-.686.621.621,0,0,0-.546-.254.685.685,0,0,0-.5.2.638.638,0,0,0-.2.476.638.638,0,0,0,.2.492,4.091,4.091,0,0,0,.882.511,4.278,4.278,0,0,1,1.6.873,1.76,1.76,0,0,1,.521,1.323,1.756,1.756,0,0,1-.7,1.435,2.849,2.849,0,0,1-1.834.559A2.539,2.539,0,0,1,16.2-.559a2.043,2.043,0,0,1-.66-1.562l.013-.038H17.2a1.12,1.12,0,0,0,.254.787.9.9,0,0,0,.667.241.781.781,0,0,0,.552-.178A.636.636,0,0,0,18.865-1.8Z" transform="translate(2542 168)" fill="#5e5b5c"/><g transform="translate(748.41 -395.441)"><path d="M1844.124,541.76q-.008.694-.016,1.387c-.064.454.012.912-.04,1.366l-.016,1.388c-.064.453.012.911-.041,1.365q-.008.694-.016,1.388c-.064.453.012.911-.041,1.365q-.008.864-.015,1.728c-.056.52-.008,1.042-.025,1.563a2.489,2.489,0,0,1-.016.474q-.008,1-.015,2.009c-.056.52-.008,1.042-.025,1.563a2.477,2.477,0,0,1-.016.474l-.007,1.07-.009.991c-.054.522-.008,1.045-.024,1.567a2.346,2.346,0,0,1-.017.475q-.007,1-.015,2.006c-.055.521-.008,1.044-.024,1.566a2.377,2.377,0,0,1-.017.474q-.007,1-.015,2.008c-.055.521-.008,1.043-.025,1.564a2.4,2.4,0,0,1-.017.474q-.007,1-.015,2.009c-.056.52-.008,1.042-.025,1.563a2.477,2.477,0,0,1-.016.474q-.008,1-.015,2.009c-.056.52-.008,1.042-.025,1.563a2.477,2.477,0,0,1-.016.474l-.016,2.061c-.052.418-.009.839-.024,1.257a1.212,1.212,0,0,1-.017.334,2.886,2.886,0,0,1-1.808,1.692,18.628,18.628,0,0,1-1.907.006q-2.272-.01-4.544-.019-2.09-.007-4.18-.01c-.083,0-.167.009-.251.014-.265-.064-.536.011-.8-.041a1.734,1.734,0,0,1-.51-.225c-.851.038-1.7,0-2.552.018-.541.009-1.083-.03-1.624.023l-4.2.015c-.457.04-.915.013-1.373.016-.851,0-1.7,0-2.554,0a.722.722,0,0,0-.3.022l-4.2.015c-.476.04-.953.013-1.429.016-.842.005-1.684,0-2.525,0a.616.616,0,0,0-.277.023l-4.2.015c-.495.039-.99.013-1.484.016-.823.005-1.646,0-2.469,0a.605.605,0,0,0-.276.023l-4.03.016c-1,.038-2,0-3,.018a3.017,3.017,0,0,0-.669.022l-3.693.016c-1.018.038-2.036,0-3.054.018a2.656,2.656,0,0,0-.613.023l-3.637.015c-.887.04-1.774,0-2.661.019a7.639,7.639,0,0,0-1.061.023l-3.639.015c-.906.04-1.812,0-2.717.019a7.059,7.059,0,0,0-1,.023h-.822c.218-.162.39-.285.556-.416a3.243,3.243,0,0,0,1.13-2.225c.454-2.976.955-5.945,1.437-8.917q.686-4.236,1.37-8.473.6-3.724,1.214-7.447.572-3.516,1.138-7.033a4.311,4.311,0,0,1,.283-.908,10.014,10.014,0,0,1,2.872-4.125,6.98,6.98,0,0,1,4.576-1.647l7.163-.015q12-.026,23.99-.057a7.974,7.974,0,0,1,5.55,2.042,8.145,8.145,0,0,1,2.425,4.31c.277,1.147.387,2.323.566,3.487.335,2.181.656,4.365.984,6.547l.928,6.187.985,6.575c.309,2.062.605,4.127.931,6.186a15.514,15.514,0,0,0,.614,3.244,4.8,4.8,0,0,0,1.574,2.208c.068.051.136.146.227.013.067-.1.064-.152-.035-.227a4.967,4.967,0,0,1-1.821-3.369c-.453-2.91-.868-5.826-1.3-8.74q-.686-4.592-1.382-9.182c-.459-3.061-.9-6.125-1.374-9.183a32.371,32.371,0,0,0-.727-4.226,8.068,8.068,0,0,0-6.278-5.989,11.585,11.585,0,0,0-2.683-.173c-2.182.007-4.363.02-6.545.025q-8.891.018-17.782.031-3.006.006-6.011.02a7.553,7.553,0,0,0-6.251,3.307,11.323,11.323,0,0,0-1.556,2.908,13.008,13.008,0,0,0-.469,2.39c-.436,2.61-.853,5.223-1.277,7.835q-.6,3.711-1.2,7.421t-1.2,7.421c-.4,2.492-.818,4.982-1.209,7.476a3.055,3.055,0,0,1-.824,1.934c-.207.19-.47.313-.668.5-.362.345-.79.271-1.212.281-.3.008-.6.01-.9.015-.821.039-1.642.005-2.464.018a.718.718,0,0,0-.3.023l-2.739.015c-.821.039-1.642.005-2.464.018a.716.716,0,0,0-.3.023h-.471c-.094-.049-.2,0-.3-.041a3.008,3.008,0,0,1-1.589-.591,2.243,2.243,0,0,1-.863-1.7c-.018-.4-.022-.8-.032-1.2-.054-.435.025-.874-.041-1.308l-.015-1.276c-.055-.436.024-.876-.041-1.312l-.016-1.329c-.053-.435.025-.873-.041-1.307l-.015-1.277c-.055-.436.024-.876-.041-1.311l-.016-1.33c-.053-.434.025-.873-.041-1.307l-.015-1.278c-.054-.435.024-.875-.041-1.31l-.016-1.331c-.053-.434.025-.872-.041-1.306l-.015-1.279c-.054-.435.025-.874-.041-1.309l-.015-1.275c-.055-.436.024-.877-.041-1.312l-.016-1.441c-.037-.372-.006-.745-.018-1.118a.761.761,0,0,0-.023-.3l-.016-1.444c-.037-.372-.006-.745-.018-1.117a.761.761,0,0,0-.023-.3l-.016-1.445c-.037-.372-.006-.745-.018-1.117a.756.756,0,0,0-.023-.3l-.015-1.389c-.04-.39-.006-.781-.018-1.172a.74.74,0,0,0-.023-.3l-.015-1.39c-.039-.39-.006-.781-.018-1.171a.728.728,0,0,0-.023-.3l-.015-1.391c-.039-.373-.006-.746-.018-1.12a.791.791,0,0,0-.023-.3l-.016-1.441c-.038-.372-.006-.746-.018-1.119a.779.779,0,0,0-.023-.3l-.016-1.443c-.038-.372-.006-.745-.018-1.118a.767.767,0,0,0-.023-.3l-.016-1.444a10.045,10.045,0,0,1,.006-1.4c.168-.07.091-.283.236-.384a2.334,2.334,0,0,1,1-.343,7.888,7.888,0,0,1,1.4-.074q4.942.063,9.885.135a.4.4,0,0,0,.425-.253,2.4,2.4,0,0,1,1.879-1.52c.893-.083,1.8-.063,2.693-.092a.155.155,0,0,1,.179.132c.057.207.129.41.182.618a.853.853,0,0,1-.785,1.12c-.858.071-1.716.139-2.575.2-.173.011-.219.056-.2.231.051.4.076.8.116,1.2.006.062-.027.153.108.141a3.92,3.92,0,0,1,1.587.293,8.052,8.052,0,0,0,2.818.55,6.4,6.4,0,0,0,2.094-.311,8.8,8.8,0,0,1,2.258-.4c.2-.019.276-.077.267-.287-.017-.374-.012-.749,0-1.123.005-.171-.054-.217-.221-.23-.783-.06-1.566-.133-2.348-.21a.663.663,0,0,1-.646-.414.825.825,0,0,1,.21-.853.827.827,0,0,0,.238-.437c.03-.212.119-.282.345-.276.6.016,1.2-.01,1.8-.008a2.858,2.858,0,0,1,1.824.616,1.759,1.759,0,0,1,.634,1c.042.181.107.256.312.253.926-.013,1.853,0,2.779,0,1.422.06,2.845.046,4.268.059l14.185.13,11.8.112c1.526.015,3.052.026,4.579.048a.51.51,0,0,0,.412-.178,12.328,12.328,0,0,1,1.986-1.732,1.647,1.647,0,0,1,1.052-.306c.775.046,1.553.05,2.33.066.113,0,.2.008.218.148a7.711,7.711,0,0,0,.29.935.886.886,0,0,1-.734,1.055c-.875.092-1.749.189-2.625.27-.178.016-.212.062-.185.236.061.388.092.78.139,1.17.009.076-.008.177.13.166a5.355,5.355,0,0,1,2.081.386,6.868,6.868,0,0,0,3.957.106c.756-.2,1.5-.431,2.276-.565.228-.04.544.023.661-.137.134-.184.023-.487.024-.738,0-.066-.008-.131-.013-.2-.041-.621-.042-.615-.683-.645s-1.253-.065-1.878-.111c-.287-.021-.579-.089-.687-.4a.825.825,0,0,1,.18-.86.99.99,0,0,0,.255-.58c.015-.151.082-.2.234-.193.571.013,1.149-.041,1.712.029a2.493,2.493,0,0,1,1.723,1.139,4.258,4.258,0,0,1,.28.536c.114.051.24,0,.354.04l.883.015c.3.063.611-.01.914.041l.936.016c.3.062.614-.011.918.041l.882.015c.3.062.612-.011.916.041l.885.015c.3.063.61-.01.913.041l.937.016c.3.062.613-.011.917.041l.884.015c.3.063.611-.01.914.041.2.015.406.022.607.047a1.407,1.407,0,0,1,1.089.75c.077.035.141.073.133.18a5.692,5.692,0,0,1-.019.605l-.015,1.386a9.859,9.859,0,0,0-.024,1.061,1.124,1.124,0,0,1-.017.306q-.008.694-.016,1.387c-.064.454.013.912-.041,1.366l-.016,1.387C1844.1,540.848,1844.177,541.306,1844.124,541.76Z" transform="translate(-5.479 -48.288)" fill="#5e5b5c"/><path d="M1845.151,503.564c1.938,0,3.877.036,5.813-.009a1.314,1.314,0,0,1,1.356.693,11.535,11.535,0,0,0,1.027,1.438,3.468,3.468,0,0,0,2.291,1.392,11.384,11.384,0,0,0,1.458.014q6.727-.025,13.453-.053c1.516-.007,3.033-.014,4.549-.044a6.436,6.436,0,0,0,2.2-.39,1.915,1.915,0,0,0,.981-.79c.424-.671.916-1.3,1.367-1.955a.372.372,0,0,1,.365-.144l5.982-.041c1.348-.01,2.7-.016,4.044-.036.248,0,.353.044.371.325.087,1.335.2,2.668.308,4a.487.487,0,0,1-.119.383,1.561,1.561,0,0,0-.374.921c-.01.19-.092.2-.243.2-.786-.025-1.573-.029-2.358-.07a1.678,1.678,0,0,0-1.006.277,11.272,11.272,0,0,0-2.055,1.735.61.61,0,0,1-.487.2q-7.625-.077-15.25-.14-5.9-.054-11.8-.113-3.538-.035-7.077-.077c-.1,0-.2.007-.307.01-.916-.01-1.832-.025-2.748-.026a.314.314,0,0,1-.356-.243,2.534,2.534,0,0,0-1.983-1.551,3.135,3.135,0,0,0-.807-.076c-.58.01-1.16.007-1.739.021-.162,0-.236-.028-.236-.21a3.181,3.181,0,0,0-.073-.526.712.712,0,0,0-.253-.446.932.932,0,0,1-.309-.908q.278-1.757.528-3.519c.027-.187.1-.242.283-.241C1843.019,503.575,1844.085,503.567,1845.151,503.564Z" transform="translate(-71.637 -28.247)" fill="#5e5b5c"/><path d="M1748.966,507.456a4.162,4.162,0,0,1,1.762-.7c.842-.2,1.7-.29,2.561-.414.1-.043.2.008.3-.041l.264-.016c.1-.04.206.006.3-.04l.316-.015c.132-.049.275.017.406-.042l.381-.015c.152-.048.314.018.466-.04l.489-.015c.175-.011.257-.081.167-.261a10.91,10.91,0,0,0-1.333-.015c-.464-.053-.931-.011-1.4-.024-.438-.012-.877.021-1.314-.017l-2.627-.015c-.093-.051-.2,0-.3-.042a2.394,2.394,0,0,0-1.492.208c-.07.041-.1.046-.139-.05a2.343,2.343,0,0,1,.138-2.135,2.589,2.589,0,0,1,.479-.455.4.4,0,0,1,.1-.056,1.315,1.315,0,0,1,.39-.029q6.031,0,12.063,0a.688.688,0,0,1,.485.083c1.825,0,3.651.012,5.476,0,.284,0,.369.063.377.36.038,1.263.106,2.525.168,3.787a.522.522,0,0,1-.131.406,1.717,1.717,0,0,0-.415,1.136c0,.176-.064.215-.229.218-.683.01-1.367.069-2.049.045a2.632,2.632,0,0,0-2.518,1.47.58.58,0,0,1-.6.342q-4.83-.088-9.66-.143a6.313,6.313,0,0,0-1.892.2,1.092,1.092,0,0,0-.871.722.485.485,0,0,1-.115-.339c0-.749.011-1.5-.022-2.247-.016-.368.04-.731.014-1.1A2.316,2.316,0,0,0,1748.966,507.456Z" transform="translate(0 -27.995)" fill="#5e5b5c"/><path d="M1755.877,476.561a2.93,2.93,0,0,1,.178-1.767,3.67,3.67,0,0,1,2.576-2.108c.509-.141,1.02-.272,1.527-.42.157-.046.2-.005.2.149,0,1.038.007,2.076-.006,3.113a.967.967,0,0,1-.8.91c-.1.026-.2.05-.3.075-.625.043-1.251.006-1.876.02a.871.871,0,0,0-.333.023,6.471,6.471,0,0,0-.935.006A.155.155,0,0,1,1755.877,476.561Z" transform="translate(-6.299 -4.27)" fill="#5e5b5c"/><path d="M1753.235,515.095l.617.02c.018.051-.012.075-.054.092a17.422,17.422,0,0,0-2.643.572c-.044.015-.085.039-.13.049-.267.064-.547.4-.726.286s-.344-.382-.556-.542a.12.12,0,0,1-.038-.041c-.06-.127-.316-.117-.266-.274s.265-.124.406-.178a1.11,1.11,0,0,1,.191-.039,3.459,3.459,0,0,1,.783,0l.209.014c.54.053,1.081.008,1.621.024A3.628,3.628,0,0,1,1753.235,515.095Z" transform="translate(-1.412 -37.026)" fill="#5e5b5c"/><path d="M1768.078,515.524l.054-.092h.37A.553.553,0,0,1,1768.078,515.524Z" transform="translate(-15.691 -37.344)" fill="#5e5b5c"/><path d="M2070.385,511.857l-.936-.016c-.3-.062-.614.011-.918-.041l-.883-.015c-.3-.062-.612.01-.915-.041-.244.03-.362-.094-.489-.3a3.178,3.178,0,0,0-1.744-1.408.963.963,0,0,0-.3-.037c-.561,0-1.123-.017-1.684-.01-.177,0-.25-.052-.268-.227a1.317,1.317,0,0,0-.452-1,.844.844,0,0,1-.229-.8q.182-1.475.362-2.95a5.178,5.178,0,0,0,.072-.584c0-.209.079-.26.284-.258,5.9.066,11.808.03,17.711.051a.791.791,0,0,1,.782.75,12.384,12.384,0,0,1-.048,1.678c-.035.241-.174.317-.358.249-.231-.086-.473-.024-.7-.1-.093-.052-.2,0-.3-.042l-.211-.014c-.093-.052-.2,0-.294-.042l-.267-.015c-.112-.055-.238,0-.351-.042l-.318-.015c-.133-.055-.278.007-.412-.041l-.43-.015c-.191-.059-.39.01-.582-.041a19.086,19.086,0,0,0-2.083,0c-.15.049-.311-.02-.46.042a6.948,6.948,0,0,0-1.429.229l.958.169a39.634,39.634,0,0,1,5.436,1.176c.125.04.235.168.389.1.115.03.079.111.063.185l-.015,1.441c-.065.436.013.876-.041,1.312q-.008.693-.016,1.386c-.062.039.045.179-.1.168a1.768,1.768,0,0,0-1.055-.6c-.171-.059-.351.009-.522-.041l-.883-.015c-.3-.062-.612.011-.915-.041l-.885-.015c-.3-.063-.61.01-.913-.041l-.938-.016c-.3-.062-.613.011-.917-.041l-.884-.015C2071,511.835,2070.688,511.908,2070.385,511.857Z" transform="translate(-240.456 -28.711)" fill="#5e5b5c"/><path d="M1915.475,503.777a.253.253,0,0,1-.079.2c-.449.645-.9,1.29-1.35,1.931a1.466,1.466,0,0,1-.708.483,6.138,6.138,0,0,1-2.2.383c-3.472.029-6.945.041-10.417.059q-4.338.022-8.676.044a2.587,2.587,0,0,1-1.44-.489,3.677,3.677,0,0,1-1.029-.981c-.4-.584-.824-1.153-1.271-1.775Z" transform="translate(-107.772 -28.311)" fill="#5e5b5c"/><path d="M2119.738,515.333l.381.015c.112.055.237,0,.35.041l.321.017c.094.049.2,0,.3.04l.265.015c.094.05.2,0,.3.041l1.089.156a1.719,1.719,0,0,1-.648.412.576.576,0,0,0-.3.236c-.1.21-.2.183-.4.114a24.2,24.2,0,0,0-3.538-.867,5.274,5.274,0,0,1-1.057-.221c-.12-.05.042-.021.025-.052.636-.035,1.271-.029,1.907,0l.548.015C2119.426,515.352,2119.587,515.286,2119.738,515.333Z" transform="translate(-282.735 -37.21)" fill="#5e5b5c"/><g transform="translate(1747.693 466.672)"><path d="M1839.923,472.616a1.256,1.256,0,0,0-.445,0l-.27.014c-.247.067-.109-.156-.172-.228q-.007-.218-.014-.436c-.062-.169.009-.349-.042-.519l-.014-.436c-.053-.092,0-.2-.045-.295a3.761,3.761,0,0,0-.723-1.2,4.363,4.363,0,0,0-2.529-1.212c-.335-.055-.679-.055-.865-.421-.042-.084-.149-.136-.23-.2a3.221,3.221,0,0,0-1.449-.519c-.116-.042-.242.011-.357-.04h-.467a20.7,20.7,0,0,1-2.225,0l-1.783-.015a1.488,1.488,0,0,0-.362-.016c-.466-.015-.932.028-1.4-.024l-1.78-.015a1.451,1.451,0,0,0-.362-.017c-.483-.017-.968.031-1.451-.025l-1.784-.015a1.489,1.489,0,0,0-.362-.016c-.466-.015-.932.028-1.4-.024l-1.78-.015a1.452,1.452,0,0,0-.361-.017c-.484-.017-.968.031-1.451-.025l-1.784-.015a1.491,1.491,0,0,0-.362-.016c-.466-.015-.932.028-1.4-.024l-1.78-.015a1.449,1.449,0,0,0-.361-.017c-.484-.017-.968.031-1.451-.025l-1.784-.015a1.49,1.49,0,0,0-.362-.016c-.466-.015-.932.028-1.4-.024l-1.78-.015a1.45,1.45,0,0,0-.362-.017c-.483-.017-.968.031-1.45-.025-.588,0-1.175-.007-1.763,0a1.663,1.663,0,0,0-1.089.243,1.507,1.507,0,0,1-1.09.262c-.224,0-.448,0-.672,0l-4.228,0a8.38,8.38,0,0,1-1.47-.005c-.153-.368-.265-.447-.641-.449-.075,0-.15,0-.225,0H1786.9a.722.722,0,0,1-.3.023l-4.969,0a1,1,0,0,0-.307.016c-.084,0-.168.01-.252.01q-3.521.008-7.042.015c-.954,0-1.907-.006-2.86-.01a.841.841,0,0,1-.332.023c-.812.013-1.625-.022-2.437.018l-1.781.015a.747.747,0,0,1-.3.023c-.559.013-1.12-.021-1.679.018h-2.42q-1.4-.041-2.806,0l-.992.015a1.334,1.334,0,0,1-.546,0l-.6-.016a9.7,9.7,0,0,0-1.288,0c-.137.024-.274.044-.41.074a1.257,1.257,0,0,0-1.021.729c-.036.092-.084.2.08.234a.468.468,0,0,1,.028.272q0,1.466,0,2.931a.733.733,0,0,1-.024.33,1.263,1.263,0,0,1-.938.946,7.273,7.273,0,0,1-2.135.117,4.638,4.638,0,0,1-1.537-.062c-.054-.027-.1-.076-.169-.06a3.032,3.032,0,0,0-1.126.336,1.389,1.389,0,0,0-.682,1.243,3.157,3.157,0,0,0,0,.726c-.016.24.1.344.336.329a.451.451,0,0,1,.294.131c.148-.015.294-.042.445-.043,4.713-.02,9.426.048,14.139-.047,1.216-.025,2.432,0,3.648,0a.983.983,0,0,0,.306-.016c.38-.022.374-.022.381-.4.03-1.691-.035-3.381-.118-5.07.1-.322.148-.356.474-.311.121.017.242.008.364.012.794.031,1.586-.046,2.379-.054.278,0,.33.048.3.3-.056.52-.1,1.041-.129,1.562a3.989,3.989,0,0,0-.056,1.136c-.107.834-.207,1.67-.324,2.5-.034.237,0,.319.271.314.955-.016,1.91,0,2.865,0,.112,0,.224-.009.336-.009,4.476,0,8.951-.011,13.427.034,2.322.023,4.644.019,6.966.03,4.691.023,9.382.063,14.072.067,3.474,0,6.947-.04,10.421-.055.2,0,.227-.071.223-.244-.047-1.731-.121-3.461-.3-5.185-.02-.188.035-.218.2-.225,1.057-.047,2.113-.1,3.169-.162.235-.015.272.062.265.277-.062,1.778-.238,3.547-.44,5.314-.022.193-.013.288.224.281.449-.012.9.015,1.348.016q7.908.014,15.815.027c.322,0,.665-.088.95.157.129-.067.284.03.409-.062.046-.245.1-.488.136-.734A1.652,1.652,0,0,0,1839.923,472.616Zm-1.326.079c-.992,0-1.984,0-2.975-.023a1.9,1.9,0,0,1-1.148-.392,1.051,1.051,0,0,1-.419-.877c0-.514,0-1.029,0-1.544h-.005c0-.524,0-1.048,0-1.571,0-.109-.052-.263.156-.255.188.007.135.148.135.247,0,1.011.014,2.021,0,3.032a.9.9,0,0,0,.6.915,1.954,1.954,0,0,0,.789.169q1.431.005,2.863.018c.1,0,.239-.044.243.142S1838.7,472.7,1838.6,472.695Z" transform="translate(-1748.028 -466.672)" fill="#5e5b5c"/></g></g></g></g></svg>