<svg xmlns="http://www.w3.org/2000/svg" xmlns:xlink="http://www.w3.org/1999/xlink" width="160" height="190" viewBox="0 0 160 190"><defs><filter id="a" x="-2" y="2" width="164" height="191" filterUnits="userSpaceOnUse"><feOffset dy="2" input="SourceAlpha"/><feGaussianBlur stdDeviation="6" result="b"/><feFlood flood-color="#44d62c" flood-opacity="0.651"/><feComposite operator="in" in2="b"/><feComposite in="SourceGraphic"/></filter><clipPath id="d"><rect width="160" height="190"/></clipPath></defs><g id="c" clip-path="url(#d)"><g transform="translate(-2796 -328.66)"><g transform="matrix(1, 0, 0, 1, 2796, 328.66)" filter="url(#a)"><g transform="translate(16 18)" fill="#44d62c" stroke="#fff" stroke-width="1" opacity="0.93"><rect width="128" height="155" rx="14" stroke="none"/><rect x="0.5" y="0.5" width="127" height="154" rx="13.5" fill="none"/></g></g><path d="M-18.192-1.441h3.377V0H-20V-9.242h1.809ZM-11.356.133a2.623,2.623,0,0,1-2.057-.851,3.1,3.1,0,0,1-.762-2.146v-.965a3.545,3.545,0,0,1,.708-2.279A2.365,2.365,0,0,1-11.508-7a2.276,2.276,0,0,1,1.866.806,3.366,3.366,0,0,1,.66,2.2v1.1h-3.4v.025a1.9,1.9,0,0,0,.308,1.117,1.061,1.061,0,0,0,.93.438,2.482,2.482,0,0,0,.825-.114A4.341,4.341,0,0,0-9.56-1.8L-9.1-.654a2.723,2.723,0,0,1-.949.565A3.694,3.694,0,0,1-11.356.133Zm-.152-5.687a.67.67,0,0,0-.635.4,2.564,2.564,0,0,0-.229,1.065h1.619v-.255a1.831,1.831,0,0,0-.178-.889A.612.612,0,0,0-11.508-5.554Zm5.58-3.021v1.708h.952v1.308h-.952v3.447a1.122,1.122,0,0,0,.121.6.377.377,0,0,0,.33.181A2.076,2.076,0,0,0-5.2-1.349,2.043,2.043,0,0,0-4.945-1.4l.14,1.371A3.6,3.6,0,0,1-5.351.1a4.109,4.109,0,0,1-.59.038A1.656,1.656,0,0,1-7.271-.4a2.589,2.589,0,0,1-.46-1.7V-5.561h-.812V-6.868h.813V-8.576ZM-.717-5.224-1.4-5.243a.769.769,0,0,0-.473.14.887.887,0,0,0-.289.394V0h-1.8V-6.868h1.682l.07.92.032.013a1.873,1.873,0,0,1,.46-.778A.965.965,0,0,1-1.028-7a1.6,1.6,0,0,1,.257.022,1.746,1.746,0,0,1,.238.054ZM2.082,0H.279V-6.868h1.8Zm0-8.525H.279V-9.9h1.8ZM4.989-6.868l.076.946a2.289,2.289,0,0,1,.7-.79A1.6,1.6,0,0,1,6.684-7a1.591,1.591,0,0,1,1.349.66,3.5,3.5,0,0,1,.492,2.076V0H6.716V-4.264a1.842,1.842,0,0,0-.2-1A.7.7,0,0,0,5.9-5.554a.822.822,0,0,0-.444.127,1.083,1.083,0,0,0-.343.349V0h-1.8V-6.868ZM13,0a3.082,3.082,0,0,1-.136-.375,3.057,3.057,0,0,1-.092-.413,2.147,2.147,0,0,1-.619.67,1.46,1.46,0,0,1-.847.251A1.756,1.756,0,0,1,9.944-.425a2.124,2.124,0,0,1-.511-1.492,1.955,1.955,0,0,1,.651-1.568,2.9,2.9,0,0,1,1.933-.559H12.7V-4.6a1.381,1.381,0,0,0-.181-.771.61.61,0,0,0-.543-.27.523.523,0,0,0-.457.216,1.085,1.085,0,0,0-.152.628L9.617-4.805,9.6-4.843a1.883,1.883,0,0,1,.663-1.523A2.626,2.626,0,0,1,12.092-7a2.451,2.451,0,0,1,1.742.625,2.317,2.317,0,0,1,.67,1.781v2.78a6.016,6.016,0,0,0,.07.946A5.153,5.153,0,0,0,14.79,0ZM11.826-1.225a.929.929,0,0,0,.5-.146,1.084,1.084,0,0,0,.365-.375V-3.009h-.679a.657.657,0,0,0-.6.286A1.312,1.312,0,0,0,11.235-2a.919.919,0,0,0,.159.559A.507.507,0,0,0,11.826-1.225ZM18.637-1.8a.667.667,0,0,0-.229-.5,3.847,3.847,0,0,0-.876-.524A4.619,4.619,0,0,1,15.98-3.7a1.667,1.667,0,0,1-.517-1.27A1.854,1.854,0,0,1,16.126-6.4,2.533,2.533,0,0,1,17.881-7a2.626,2.626,0,0,1,1.822.609,1.922,1.922,0,0,1,.654,1.555l-.019.038H18.6a1.176,1.176,0,0,0-.178-.686.621.621,0,0,0-.546-.254.685.685,0,0,0-.5.2.638.638,0,0,0-.2.476.638.638,0,0,0,.2.492,4.091,4.091,0,0,0,.882.511,4.278,4.278,0,0,1,1.6.873,1.76,1.76,0,0,1,.521,1.323,1.756,1.756,0,0,1-.7,1.435A2.849,2.849,0,0,1,17.85.133a2.539,2.539,0,0,1-1.879-.692,2.043,2.043,0,0,1-.66-1.562l.013-.038h1.65a1.12,1.12,0,0,0,.254.787.9.9,0,0,0,.667.241.781.781,0,0,0,.552-.178A.636.636,0,0,0,18.637-1.8Z" transform="translate(2876 484)" fill="#fff"/><path d="M2550.62,519.964l-.015-.341c-.051-.14.015-.293-.044-.432l-.017-.517c-.053-.22.022-.449-.043-.668q0-1.552,0-3.1c.064-.221-.012-.451.043-.672l.015-.46c.064-.158-.01-.33.045-.489l.016-.335c.049-.1,0-.215.042-.317.064-.634.1-1.273.2-1.9a21.716,21.716,0,0,1,.652-3.081,37.613,37.613,0,0,1,1.256-3.559,21.088,21.088,0,0,1,1.078-2.248,19.5,19.5,0,0,1,1.893-2.829,9.464,9.464,0,0,1,3.17-2.6,4.228,4.228,0,0,1,1.83-.449c.533,0,1.066,0,1.6,0,.2.064.411-.01.612.043l.233.02c.039.066-.02.078-.056.1a6.315,6.315,0,0,0-3.316,2.379,18.6,18.6,0,0,0-2.746,4.854,43.342,43.342,0,0,0-2.442,7.748,35.27,35.27,0,0,0-.576,7.637,39.874,39.874,0,0,0,1.271,8.743c1.005,4.009,1.965,8.029,2.907,12.053.239,1.022.34,2.076.509,3.148-.394-.072-.75-.138-1.107-.2-.1-.017-.213-.094-.252.089s.091.183.2.2c.417.078.837.142,1.251.236.216.049.3.029.222-.21a.579.579,0,0,1,0-.147c.8.221,1.587.437,2.371.655,5.474,1.519,10.936,3.082,16.426,4.543a20.753,20.753,0,0,0,12.285-.3,15.721,15.721,0,0,0,5.666-3.415c.071-.066.145-.129.271-.241-.21.747-.4,1.427-.591,2.108-.86,3.112-1.7,6.23-2.6,9.331-.111.38-.388.734-.521,1.136-.232.7-.52,1.39-.715,2.1a15.1,15.1,0,0,0-.279,1.678,1.173,1.173,0,0,0-.061.406.323.323,0,0,1,.019.174,9.1,9.1,0,0,1-2.437,5.131,17.835,17.835,0,0,1-6.262,4.129,9.464,9.464,0,0,1-3.472.674,14.051,14.051,0,0,1-3.444-.315c-.819-.193-1.609-.48-2.413-.724-1.22-.371-2.439-.744-3.653-1.133a.672.672,0,0,1-.342-.164q-1.549-.475-3.1-.951-2.015-.621-4.03-1.245l-3.262-1.008c-.891-.275-1.786-.538-2.673-.825a2.081,2.081,0,0,1-1.536-1.728,4.027,4.027,0,0,1,0-.886,3.591,3.591,0,0,1,.276-1.037.675.675,0,0,0,.035-.372c.063-.158-.008-.329.043-.489l.016-.458c.062-.159-.008-.33.043-.491l.016-.456c.061-.16-.009-.332.043-.493l.016-.454c.057-.141-.005-.294.042-.436-.094-.246.067-.423.141-.635a5.592,5.592,0,0,0,.181-.982c.085-.549.118-1.1.22-1.652.069-.368.088-.746.132-1.119q.063-.529.133-1.057.079-.6.162-1.2c.075-.531.165-1.061.223-1.594.038-.356.1-.708.137-1.062.047-.4.1-.8.162-1.2.059-.361.086-.727.139-1.089.08-.55.119-1.1.215-1.652.06-.34.075-.689.14-1.031a.322.322,0,0,0-.3-.375,1.932,1.932,0,0,0-.484-.079,1.081,1.081,0,0,1-1.171-.973c-.287-1.283-.582-2.563-.893-3.839-.292-1.192-.574-2.387-.86-3.58-.21-.879-.426-1.757-.624-2.639-.329-1.466-.7-2.923-1.047-4.384-.247-1.031-.477-2.067-.68-3.109-.134-.685-.234-1.374-.354-2.06-.088-.5-.1-1.021-.142-1.533C2550.621,520.175,2550.673,520.063,2550.62,519.964Z" transform="translate(301.499 -119.961)" fill="#fff"/><path d="M2569.843,541.036c-.192-.792-.374-1.536-.553-2.281-.848-3.519-1.708-7.036-2.538-10.56a31,31,0,0,1-.693-5.1,37.484,37.484,0,0,1,.007-5.155,30.346,30.346,0,0,1,1.677-8.091c.532-1.486,1.014-2.989,1.69-4.419a17,17,0,0,1,2.732-4.312,14.032,14.032,0,0,1,1.142-1.059.631.631,0,0,1,.771-.07,8.223,8.223,0,0,1,2.395,1.7,12.494,12.494,0,0,1,2.994,5.508,18.685,18.685,0,0,1,.591,3.647c.145,1.881.311,3.761.449,5.642q.151,2.069.25,4.142c.078,1.629.152,3.258.12,4.89a17.1,17.1,0,0,1-.16,2.3,1.294,1.294,0,0,1-.334.7c-3.628,4.009-7.214,8.053-10.439,12.4C2569.927,540.945,2569.906,540.965,2569.843,541.036Z" transform="translate(289.85 -122.918)" fill="#fff"/><path d="M2595.894,745.609a11.528,11.528,0,0,1-1.761,4.018,19.271,19.271,0,0,1-2.71,2.95,14.357,14.357,0,0,1-2.684,1.946,16.183,16.183,0,0,1-3.277,1.412,28.041,28.041,0,0,1-2.93.642,2.753,2.753,0,0,1-.322.023c-.1.043-.211-.012-.309.043l-.343.015c-.142.049-.294-.015-.434.043h-2.208c-.142-.057-.3.006-.438-.043l-.335-.017c-.1-.05-.216,0-.318-.044a16.741,16.741,0,0,1-4.124-1.007c-1.211-.392-2.428-.762-3.645-1.134a3.171,3.171,0,0,0-.713-.189c-.695-.284-1.421-.471-2.134-.7-1.265-.407-2.537-.793-3.805-1.19s-2.517-.792-3.776-1.185c-.958-.3-1.917-.593-2.875-.892a5.181,5.181,0,0,1-1.663-.812,3.233,3.233,0,0,1-1.36-2.333,4.623,4.623,0,0,1,0-.885,5.557,5.557,0,0,1,1.219-2.85c.754-1.053,1.463-2.139,2.193-3.21.048-.07.1-.137.156-.212.089.081.013.179.055.254-.059.162.009.335-.043.5l-.016.456c-.061.16.008.332-.043.493l-.016.46c-.065.179.011.369-.045.548a6.828,6.828,0,0,1-.333,1.566,2.27,2.27,0,0,0-.037.495.692.692,0,0,0,0,.4,2.359,2.359,0,0,0,1.746,2.283c1.68.539,3.375,1.034,5.063,1.55q1.946.595,3.889,1.2c1.249.387,2.5.779,3.745,1.167a.662.662,0,0,0,.146.012,12.484,12.484,0,0,1,2.045.571q2.009.625,4.019,1.242a12.384,12.384,0,0,0,3.062.487,12.758,12.758,0,0,0,2.969-.215,12.418,12.418,0,0,0,3.419-1.307,17.642,17.642,0,0,0,3.319-2.217,9.9,9.9,0,0,0,3.193-4.4c.173-.525.261-1.074.385-1.613a.53.53,0,0,1,.133-.321q.154-.878.308-1.756c.057-.121-.011-.257.049-.378.283-.839.56-1.68.855-2.515.029-.083,0-.256.152-.246.1.008.09.154.12.237A15.377,15.377,0,0,1,2596.1,742c.045.121-.013.254.042.374q0,.78,0,1.56c-.055.121,0,.254-.043.376Q2596,744.959,2595.894,745.609Z" transform="translate(299.084 -302.71)" fill="#fff"/><path d="M2608.227,520.2l.016,1.105c.057.342-.024.689.043,1.03l.016,1.105c.057.342-.024.689.043,1.03a.456.456,0,0,0-.014.053c0,.008.008.017.012.025-.03.058-.069.048-.111.015a6.5,6.5,0,0,0-.987.584c-.513.311-1.02.633-1.573.979.073-.565.12-1.081.146-1.6.1-2.067-.006-4.129-.1-6.192-.065-1.351-.167-2.7-.256-4.051-.128-1.961-.315-3.918-.474-5.876a16.544,16.544,0,0,0-1.323-5.346,10.419,10.419,0,0,0-3.371-4.387,5.516,5.516,0,0,0-1.354-.768.877.877,0,0,1-.186-.128.6.6,0,0,1,.174-.089,3.577,3.577,0,0,1,2.421-.144c.1.028.226.125.263-.091.018-.1.11-.031.168-.011a5.672,5.672,0,0,1,2.355,1.56,14.048,14.048,0,0,1,3.037,6.362c.305,1.205.476,2.433.66,3.659.044.1-.009.214.043.314l.016.279c.047.122-.011.256.043.377q.008.346.018.691c.053.322-.022.65.042.971q.008.582.017,1.164c.053.322-.021.65.042.971q.009.582.018,1.164c.055.341-.025.688.042,1.028l.016,1.047c.058.361-.024.727.044,1.087l.016,1.048C2608.24,519.512,2608.159,519.859,2608.227,520.2Z" transform="translate(265.175 -121.046)" fill="#fff"/><path d="M2622.526,675.749c-.328,1.206-1.373,1.949-1.588,3.181-.177-.29-.3-.175-.451-.031a16.084,16.084,0,0,1-8.966,4.21,23.262,23.262,0,0,1-9.727-.781c-5.894-1.666-11.8-3.285-17.706-4.917-.174-.048-.26-.113-.286-.3-.081-.594-.178-1.186-.276-1.824l2.105.612c5.341,1.555,10.676,3.132,16.026,4.656a25.8,25.8,0,0,0,8.357.932,18.222,18.222,0,0,0,8.807-2.554,14.888,14.888,0,0,0,3.337-2.779C2622.263,676.039,2622.369,675.924,2622.526,675.749Z" transform="translate(276.635 -254.968)" fill="#fff"/><path d="M2601.584,496.31l.056-.1.3-.006c.037.018.037.036,0,.055Z" transform="translate(263.041 -120.142)" fill="#fff"/><g transform="translate(2859.829 403.609)"><path d="M2622.1,620.827a8.435,8.435,0,0,0-1.161-3.445,11.691,11.691,0,0,0-2.932-3.281,13.264,13.264,0,0,0-4.123-2.263c-1.681-.537-3.4-.94-5.118-1.346q-3.077-.727-6.161-1.417c-1.524-.339-3.056-.64-4.584-.96-.658-.138-1.314-.283-1.972-.424a.18.18,0,0,0-.179.009c.033.165-.111.192-.2.25q-1.2.76-2.409,1.511a1.792,1.792,0,0,0-.385.32q-2.376,2.608-4.681,5.28c-2.034,2.369-4.041,4.761-5.885,7.284a.559.559,0,0,0-.1.545,4.994,4.994,0,0,1,.194.865.4.4,0,0,0,.35.387c5.493,1.594,10.992,3.171,16.474,4.8a27.733,27.733,0,0,0,11.847,1.113,16.855,16.855,0,0,0,6.5-2.243,14.854,14.854,0,0,0,3.678-3.145c.049-.058.093-.2.194-.12.188.151.188,0,.23-.112a12.786,12.786,0,0,0,.424-1.792c.045-.1-.008-.215.043-.314C2622.132,621.831,2622.156,621.331,2622.1,620.827Zm-7.951-.653a1.477,1.477,0,0,1-.464.963,7.674,7.674,0,0,1-3.8,1.8,13.4,13.4,0,0,1-2.951.255,26.514,26.514,0,0,1-3.738-.359,14.8,14.8,0,0,1-3.836-.961,7.405,7.405,0,0,1-3.052-2.135,2.6,2.6,0,0,1,.643-4.154,9.929,9.929,0,0,1,7.986-1.405,22.57,22.57,0,0,1,6.8,2.757,7.336,7.336,0,0,1,1.794,1.443A2.268,2.268,0,0,1,2614.153,620.174Z" transform="translate(-2582.18 -607.672)" fill="#fff"/></g><path d="M2648.577,642.732a26.165,26.165,0,0,1-3.709-.357,14.327,14.327,0,0,1-3.939-1.018,7,7,0,0,1-2.8-2.028,2.232,2.232,0,0,1-.2-2.91,2.256,2.256,0,0,1,.52-.525,9.247,9.247,0,0,1,6.164-1.851,17.69,17.69,0,0,1,5.538,1.416,18.232,18.232,0,0,1,4.073,2.275,4,4,0,0,1,.986,1.056,1.553,1.553,0,0,1-.363,2.2,7.908,7.908,0,0,1-3.7,1.549A13.258,13.258,0,0,1,2648.577,642.732Z" transform="translate(236.019 -223.898)" fill="#fff"/></g></g></svg>