<svg xmlns="http://www.w3.org/2000/svg" xmlns:xlink="http://www.w3.org/1999/xlink" width="160" height="190" viewBox="0 0 160 190"><defs><filter id="a" x="-2" y="2" width="164" height="191" filterUnits="userSpaceOnUse"><feOffset dy="2" input="SourceAlpha"/><feGaussianBlur stdDeviation="6" result="b"/><feFlood flood-color="#44d62c" flood-opacity="0.651"/><feComposite operator="in" in2="b"/><feComposite in="SourceGraphic"/></filter><clipPath id="d"><rect width="160" height="190"/></clipPath></defs><g id="c" clip-path="url(#d)"><g transform="translate(-3267 -329)"><g transform="matrix(1, 0, 0, 1, 3267, 329)" filter="url(#a)"><g transform="translate(16 18)" fill="#44d62c" stroke="#fff" stroke-width="1" opacity="0.93"><rect width="128" height="155" rx="14" stroke="none"/><rect x="0.5" y="0.5" width="127" height="154" rx="13.5" fill="none"/></g></g><path d="M-19.183-9.242l1.657,6.786h.038l1.676-6.786h2.355V0h-1.8V-2.685l.152-3.593-.038-.006L-16.9,0h-1.2l-1.746-6.233-.038.006.159,3.542V0h-1.8V-9.242ZM-8.722-.793A2.027,2.027,0,0,1-9.4-.1a1.712,1.712,0,0,1-.9.238,1.691,1.691,0,0,1-1.438-.7,3.621,3.621,0,0,1-.517-2.155V-6.868h1.8V-2.7a2.361,2.361,0,0,0,.178,1.061.567.567,0,0,0,.527.33,1.169,1.169,0,0,0,.524-.111,1.05,1.05,0,0,0,.384-.327V-6.868h1.809V0H-8.614ZM-4.005,0h-1.8V-9.9h1.8ZM-.6-8.576v1.708H.349v1.308H-.6v3.447a1.122,1.122,0,0,0,.121.6.377.377,0,0,0,.33.181,2.076,2.076,0,0,0,.279-.016A2.043,2.043,0,0,0,.381-1.4L.521-.032A3.6,3.6,0,0,1-.025.1a4.109,4.109,0,0,1-.59.038A1.656,1.656,0,0,1-1.946-.4a2.589,2.589,0,0,1-.46-1.7V-5.561h-.812V-6.868h.813V-8.576ZM3.25,0h-1.8V-6.868h1.8Zm0-8.525h-1.8V-9.9h1.8ZM9.89-2.907A3.812,3.812,0,0,1,9.315-.692,1.923,1.923,0,0,1,7.63.133a1.564,1.564,0,0,1-.841-.222,1.865,1.865,0,0,1-.613-.647L6.068,0H4.507V-9.9h1.8v3.618a1.739,1.739,0,0,1,.568-.527A1.481,1.481,0,0,1,7.617-7a1.912,1.912,0,0,1,1.695.86A4.055,4.055,0,0,1,9.89-3.84Zm-1.8-.937a3.188,3.188,0,0,0-.2-1.259.737.737,0,0,0-.74-.451.854.854,0,0,0-.5.146,1.077,1.077,0,0,0-.343.413v3.21a.854.854,0,0,0,.34.353,1.041,1.041,0,0,0,.511.118.741.741,0,0,0,.74-.4A2.857,2.857,0,0,0,8.093-2.91Zm2.514-.009a3.415,3.415,0,0,1,.733-2.263A2.526,2.526,0,0,1,13.394-7a2.536,2.536,0,0,1,2.057.879,3.4,3.4,0,0,1,.736,2.263V-3A3.387,3.387,0,0,1,15.45-.736a2.541,2.541,0,0,1-2.05.87,2.546,2.546,0,0,1-2.06-.87A3.4,3.4,0,0,1,10.607-3Zm1.8.848a2.867,2.867,0,0,0,.222,1.246.791.791,0,0,0,.774.451.782.782,0,0,0,.759-.455,2.835,2.835,0,0,0,.225-1.243v-.852a2.843,2.843,0,0,0-.225-1.237.785.785,0,0,0-.765-.461.785.785,0,0,0-.765.464A2.847,2.847,0,0,0,12.4-3.857Zm6.881-1.7h.038l.724-2.165h2.031l-1.7,3.4L22.128,0H20.1l-.755-2.228H19.31L18.554,0H16.523l1.746-3.472-1.7-3.4h2.025Z" transform="translate(3347 484.34)" fill="#fff"/><path d="M3886.756,4473.013h0Z" transform="translate(-530.399 -4069.607)" fill="#fff"/><path d="M3795.722,4481.282l.009-.007-.01-.007S3795.721,4481.277,3795.722,4481.282Z" transform="translate(-446.159 -4077.247)" fill="#fff"/><path d="M3131.088,4392.053l.135-.019A.275.275,0,0,0,3131.088,4392.053Z" transform="translate(168.867 -3994.672)" fill="#fff"/><path d="M3155.758,4398.226h0l-.008-.008,0,.008Z" transform="translate(146.049 -4000.395)" fill="#fff"/><path d="M3882.764,4556.714c0-.032,0-.064,0-.1l0,.08Z" transform="translate(-526.701 -4146.972)" fill="#fff"/><path d="M3886.843,4538.142c0-.067.008-.134.011-.2l-.012-.045C3886.84,4537.978,3886.842,4538.059,3886.843,4538.142Z" transform="translate(-530.478 -4129.648)" fill="#fff"/><path d="M4242.369,4410.621l.016,0,.012,0Z" transform="translate(-859.47 -4011.873)" fill="#fff"/><path d="M3887.964,4471.849a.126.126,0,0,0,.012-.048.423.423,0,0,0-.052.036A.31.31,0,0,0,3887.964,4471.849Z" transform="translate(-531.48 -4068.486)" fill="#fff"/><path d="M3993.6,4602.819c0-.009,0-.017-.006-.025l-.019.027Z" transform="translate(-629.248 -4189.702)" fill="#fff"/><path d="M4335.216,4391.895h.028l-.016,0Z" transform="translate(-945.387 -3994.541)" fill="#fff"/><path d="M4007.118,4492.439Z" transform="translate(-641.778 -4087.584)" fill="#fff"/><path d="M3882.538,4558.04a2.45,2.45,0,0,0,.021-.339l0-.017C3882.549,4557.8,3882.543,4557.921,3882.538,4558.04Z" transform="translate(-526.496 -4147.958)" fill="#fff"/><path d="M4007.062,4490.21a.2.2,0,0,0,.023-.1c0-.026-.008-.052-.011-.078l-.014.18Z" transform="translate(-641.724 -4085.354)" fill="#fff"/><path d="M4001.073,4574.8a.4.4,0,0,0,.018-.052c-.006.017-.012.035-.019.052Z" transform="translate(-636.184 -4163.747)" fill="#fff"/><path d="M4263.286,4520.78a.528.528,0,0,1-.053-.186A.22.22,0,0,0,4263.286,4520.78Z" transform="translate(-878.776 -4113.638)" fill="#fff"/><path d="M4285.984,4427.343c0-.006,0-.013,0-.019-.009.053-.019.1-.028.157A.166.166,0,0,0,4285.984,4427.343Z" transform="translate(-899.799 -4027.329)" fill="#fff"/><path d="M4335.4,4391.326a.287.287,0,0,0,.169-.049.173.173,0,0,1-.053.013l-.131.033Z" transform="translate(-945.541 -3993.972)" fill="#fff"/><path d="M4287.354,4445.331c0,.007,0,.014,0,.021.01-.053.02-.106.028-.16A.163.163,0,0,0,4287.354,4445.331Z" transform="translate(-901.093 -4043.864)" fill="#fff"/><path d="M4289.392,4426.344c0,.012.005.023.009.036.008-.046.017-.091.025-.137C4289.408,4426.274,4289.381,4426.307,4289.392,4426.344Z" transform="translate(-902.981 -4026.329)" fill="#fff"/><path d="M4011.437,4475.844a.115.115,0,0,1,0,.015s0,.005,0,.008,0-.023,0-.034C4011.441,4475.842,4011.438,4475.844,4011.437,4475.844Z" transform="translate(-645.774 -4072.217)" fill="#fff"/><path d="M4003.136,4588.979c0-.069.009-.137.013-.206A.678.678,0,0,0,4003.136,4588.979Z" transform="translate(-638.091 -4176.728)" fill="#fff"/><path d="M4321.037,4626.792c-.008.024-.017.048-.028.072A.177.177,0,0,0,4321.037,4626.792Z" transform="translate(-932.24 -4211.909)" fill="#fff"/><path d="M3224,4367.327h0c-.119.122-.268.057-.405.063h0l-.027,0-.018.02h0c-.114.116-.257.053-.389.063h0l-.032,0-.027.019h0c-.017.018-.034.034-.05.053-.283.331-.25.459-.767.09h0c-.119.122-.268.057-.405.063h0l-.026,0-.018.02h0c-.114.116-.257.053-.389.063h0l-.033,0-.027.019h0c-.017.018-.034.035-.05.053-.284.333-.251.458-.766.09h0c-.118.122-.266.058-.4.063h0l-.028,0-.02.021h0c-.113.115-.256.053-.386.063h0l-.033,0-.028.018h0c-.212.393-.485.435-.816.143h0c-.118.121-.265.057-.4.063h0l-.028,0-.021.02h0c-.113.115-.255.052-.386.063l-.034,0-.029.018h0a1.412,1.412,0,0,0-.151.153c-.14.192-.278.324-.465.045-.045-.067-.128-.055-.2-.056h0c-.118.121-.265.057-.4.063h0l-.028,0-.021.02h0c-.169.318-.493.339-.79.424-.185.053-.239-.166-.37-.208l-.1,0h0c-.117.12-.264.057-.4.063h0l-.029,0-.022.02h0c-.169.317-.493.339-.79.424-.185.053-.238-.165-.369-.208l-.1,0h0c-.117.119-.263.057-.4.063h0l-.03,0-.022.02h0c-.345.511-.8.385-1.262.219h0c-.117.119-.263.057-.4.063h0l-.029,0-.022.02h0a.761.761,0,0,1-1.081.229.509.509,0,0,0-.182-.009h0c-.117.119-.263.056-.4.063h0l-.03,0-.022.02h0a.761.761,0,0,1-1.08.229.531.531,0,0,0-.182-.01h0c-.116.119-.262.056-.4.063h0l-.03,0-.023.02h0c-.335.524-.79.333-1.233.208h0l-.022,0-.013.019h0c-.115.118-.259.055-.392.063h0l-.031,0-.025.02h0c-.334.521-.788.333-1.231.207h0l-.023,0-.014.019h0c-.115.118-.259.055-.392.063h0l-.031,0-.025.019h0c-.335.522-.788.333-1.232.207h0l-.023,0-.014.019h0c-.115.117-.259.055-.392.063h0l-.031,0-.025.019h0c-.326.572-.791.313-1.23.207l-.024,0-.014.019h0c-.115.117-.259.054-.392.063h0l-.031,0-.025.02h0c-.325.569-.789.317-1.228.207h0l-.025,0-.016.02h0c-.114.117-.258.054-.389.063h0l-.032,0-.027.019h0c-.325.562-.785.325-1.224.206h0l-.027,0-.018.02h0c-.114.116-.257.054-.389.063h0l-.032,0-.027.019h0c-.017.018-.034.035-.05.053-.283.331-.249.459-.766.09h0c-.12.122-.268.057-.405.063h0l-.026,0-.018.02h0c-.114.116-.257.054-.389.063h0l-.032,0-.027.019h0c-.017.018-.034.034-.05.053-.283.331-.25.459-.767.09h0c-.119.121-.268.056-.405.063h0l-.027,0-.018.02h0c-.114.116-.257.053-.389.063h0l-.033,0-.027.02h0c-.017.018-.034.034-.05.053-.284.332-.251.458-.766.089h0c-.118.121-.266.057-.4.063h0l-.028,0-.02.02h0c-.113.116-.256.053-.386.063h0l-.033,0-.028.019h0c-.212.393-.485.434-.816.142h0c-.118.121-.265.057-.4.063h0l-.028,0-.021.021h0c-.113.114-.256.052-.386.063l-.034,0-.029.019h0c-.212.392-.485.434-.816.142h0c-.118.121-.265.056-.4.063h0l-.028,0-.021.02h0c-.169.317-.493.339-.79.424-.185.052-.239-.166-.37-.208l-.1,0h0c-.117.12-.264.057-.4.063h0l-.029,0-.022.02h0c-.169.317-.493.339-.79.424-.184.052-.238-.165-.37-.208l-.1,0h0c-.117.12-.263.057-.4.063h0l-.03,0-.022.02h0c-.08.09-.159.182-.242.27s-.187.145-.253.054c-.18-.25-.434-.164-.665-.187l.282-.033a.947.947,0,0,0-.282.033l-.184.019h0a9.079,9.079,0,0,1-1.735.056h0l-.13.009h0c-.078.316-.262.41-.474.2a.568.568,0,0,0-.439-.129,9.394,9.394,0,0,1-1.7-.062h0c-.7-.13-1.408-.066-2.112-.148-1.262-.146-2.529-.252-3.795-.368-.923-.086-1.847-.155-2.769-.243-1.179-.113-2.357-.24-3.536-.355q-1.272-.125-2.545-.235c-.873-.078-1.746-.149-2.619-.225a1.136,1.136,0,0,1,.53.792.881.881,0,0,0,.894.83c.886.093,1.775.156,2.662.236q1.2.108,2.4.226a.381.381,0,0,1,.365.354,7.6,7.6,0,0,1,.071.779c.033,1.255.05,2.511.087,3.765q.1,3.279.221,6.556c.01.283.037.556.469.42.3-.094.564.111.766.181,0-1.013.048-2.032-.015-3.045-.051-.832-.025-1.663-.093-2.495-.089-1.088-.071-2.186-.093-3.279,0-.084-.07-.229.071-.249s.106.136.127.219a1.472,1.472,0,0,1,.029.3c.055,1.75.1,3.5.166,5.252.043,1.19.106,2.378.161,3.584a1.259,1.259,0,0,1-.7-.188.752.752,0,0,0-.579-.04c-.29.043-.414-.1-.47-.343a1.637,1.637,0,0,1-.068-.4c.03-1.008-.061-2.012-.086-3.019-.063-2.559-.149-5.117-.225-7.676-.008-.27-.062-.437-.413-.463-1.27-.094-2.536-.232-3.8-.359-.417-.042-.837-.079-1.25-.149a.958.958,0,0,1-.878-.9.989.989,0,0,0-.53-.76c-.086-.046-.233-.041-.219-.2a.244.244,0,0,1-.212-.024,7.007,7.007,0,0,1-1.592-.075c-.715-.033-1.427-.132-2.142-.2q-1.921-.181-3.842-.356c-.924-.083-1.849-.158-2.773-.241-1.022-.092-2.044-.194-3.066-.284-1.25-.11-2.5-.206-3.75-.317-.973-.086-1.944-.189-2.917-.278-.924-.084-1.85-.158-2.774-.24-1.035-.093-2.069-.194-3.1-.285-.962-.084-1.925-.156-2.886-.24-.456-.04-.91-.094-1.365-.138-.129-.012-.25-.022-.227-.231a4.032,4.032,0,0,0,.945.07l0-.007c-.106-.114-.247-.058-.374-.066s-.225-.015-.275-.14a.319.319,0,0,0-.506-.172c-.2.1-.371-.064-.555-.082l-.135.019a.426.426,0,0,0,.321.414c.547.117.512.484.446.89-.018.11-.005.225-.022.335-.046.308.053.448.392.47.744.048,1.484.151,2.227.209.272.021.389.11.387.4s.046.595.072.892q.321,3.7.641,7.393.314,3.641.625,7.282.318,3.677.641,7.355c.21,2.439.415,4.88.626,7.319.239,2.761.489,5.521.718,8.284a1.059,1.059,0,0,0,.464.842,2.525,2.525,0,0,0,.839.39,6.2,6.2,0,0,0,4.327-.2.989.989,0,0,1,.736-.025c5.08,1.448,10.174,2.85,15.242,4.336,5.009,1.468,9.992,3.021,14.989,4.529.265.08.437.147.369.483a2.271,2.271,0,0,0,.061.889,1.192,1.192,0,0,0,.907,1.017c.874.234,1.739.5,2.609.753a1,1,0,0,0,.583.06,4.567,4.567,0,0,1-.071-1.28.582.582,0,0,0-.118-.407c-.21-.229-.135-.38.2-.454h0a3.731,3.731,0,0,0,.051-.4c.033-1.552.049-3.105.1-4.657.062-2.024.109-4.048.157-6.072.043-1.812.1-3.625.145-5.437.08-2.918.162-5.835.227-8.753.039-1.763.1-3.525.146-5.288.073-2.955.16-5.91.227-8.865.042-1.862.137-3.723.141-5.587a.658.658,0,0,1,.067-.4,3.457,3.457,0,0,0-1.026-.121c-.758-.1-1.525-.12-2.288-.175-.1-.007-.261.043-.264-.12,0-.187.168-.109.255-.1,1.021.081,2.039.193,3.06.253a12.555,12.555,0,0,0,3.107.03h0c.147-.112.314-.044.473-.052h0a.032.032,0,0,0,.049-.016h0c.105-.113.244-.05.368-.07h0a1.059,1.059,0,0,0,.152-.159c.146-.232.3-.27.5-.055.036.039.11.045.167.066h0c.115-.121.26-.057.393-.065h0a.041.041,0,0,0,.057-.015h0a.55.55,0,0,1,.767-.134h0a.038.038,0,0,0,.054-.015h0a.552.552,0,0,1,.772-.133h0a.032.032,0,0,0,.049-.016h0c.017-.018.034-.035.05-.053.258-.307.265-.49.726-.078h0a.029.029,0,0,0,.045-.017h0c.017-.018.034-.036.05-.054.273-.32.258-.478.731-.077h0a.026.026,0,0,0,.041-.017h0c.056-.062.117-.12.168-.186.144-.187.285-.27.447-.018.044.068.128.056.2.056h0c.057-.062.118-.119.169-.185.144-.187.285-.272.448-.019.044.069.128.056.2.057h0c.114-.12.258-.057.391-.065h0a.046.046,0,0,0,.059-.015h0a.549.549,0,0,1,.767-.133h0a.037.037,0,0,0,.054-.015h0a.551.551,0,0,1,.77-.133h0a.034.034,0,0,0,.051-.016h0a1.049,1.049,0,0,0,.149-.153c.156-.239.312-.288.495-.027.022.031.087.032.132.048h0a.029.029,0,0,0,.045-.016h0c.016-.018.033-.035.049-.054.346-.422.365-.422.764.012h0a.032.032,0,0,0,.015.048h0c.1.137.116.272-.037.379a.252.252,0,0,1-.4-.087c-.024-.037-.079-.054-.12-.08h0l-.027,0-.018.021h0c-.008.01-.015.02-.023.029-.327.369-.294.494-.758.1h0l-.025,0-.015.02h0c-.056.062-.118.119-.168.186-.144.187-.284.27-.447.017-.044-.068-.128-.055-.2-.056h0l0,0h0a1.055,1.055,0,0,0-.152.158c-.146.232-.3.271-.5.055-.036-.04-.11-.045-.167-.066h0c-.115.12-.26.057-.393.065h0l-.031,0-.025.02h0a.549.549,0,0,1-.767.133h0l-.03,0-.024.02h0a.552.552,0,0,1-.771.133h0l-.029,0-.021.02c-.017.018-.034.035-.05.054-.258.306-.265.49-.726.077h0l-.027,0-.018.021h0c-.2.271-.553.468-.449.9.022.092-.009.19.063.277.16.194.065.279-.141.308.063.372-.1.763.124,1.128.081.133-.061.207-.2.215.045.371-.092.765.146,1.114a.191.191,0,0,1-.023.175.826.826,0,0,0-.007,1.126c.063.083.021.161-.034.237a.755.755,0,0,0-.056,1.035.274.274,0,0,1-.054.4.759.759,0,0,0-.077.938c.08.1.166.208.055.283-.328.22-.225.542-.242.838-.007.121.036.251-.061.356h0l-.019.183h0a4.048,4.048,0,0,1-.056,1.16h0l-.017.138a4.634,4.634,0,0,1-.058,1.206h0c-.113.184-.053.438-.24.591a.209.209,0,0,1-.055.32.181.181,0,0,1-.288-.044c-.115-.176-.289-.094-.439-.122-.257-.048-.541.12-.774-.1h0v-.167h0c.123-.189.313-.09.471-.1.306-.017.613,0,.919,0h0l.093-.1h0c.033-.289-.069-.588.063-.869h0q.009-.066.019-.132h0c-.067-.375.106-.771-.124-1.139-.083-.134.059-.208.2-.218-.062-.372.1-.762-.124-1.128-.081-.133.061-.207.2-.215-.046-.369.092-.761-.145-1.109a.19.19,0,0,1,.038-.208.744.744,0,0,0,.01-1.021.274.274,0,0,1,.041-.371.715.715,0,0,0,.049-.96.275.275,0,0,1,.015-.4.739.739,0,0,0,.066-.982c-.056-.077-.116-.176-.041-.229.4-.28.22-.69.262-1.051a.8.8,0,0,1,.06-.169h0c.006-.061.012-.122.019-.183h0a4.056,4.056,0,0,1,.056-1.16h0l.017-.138h0l-.013-.481h0l-.064.026h0c-.056.062-.117.119-.168.185-.144.186-.284.27-.447.018-.044-.069-.128-.056-.2-.056h0c-.057.062-.119.12-.17.185-.144.188-.285.272-.448.019-.044-.068-.129-.056-.2-.057h0c-.114.12-.258.057-.391.066h0l-.032,0-.027.02a.55.55,0,0,1-.767.133h0l-.03,0-.023.02h0c-.107.113-.246.051-.37.068h0c-.215.12-.369.314-.6.435-.163.084-.14.455.03.665.224.277.078.387-.179.466h0c0,.043,0,.086,0,.128h0q0,1.362.006,2.724c0,.1.02.2-.061.282h0c-.006.137-.013.274-.019.411h0c0,.816,0,1.633.008,2.449,0,.118-.035.244.078.346.293.265.082.364-.155.451h0c0,.044,0,.087-.006.131h0q0,1.361.006,2.721c0,.1.02.2-.062.282h0q-.01.212-.02.425h0c0,.757,0,1.515.009,2.271a.964.964,0,0,0,.1.609c.106.151,0,.251-.169.278h0a.332.332,0,0,0-.015.257h0c0,.707,0,1.414.008,2.12a.948.948,0,0,0,.179.759c.149.159.025.38-.259.371h0c0,.043,0,.087,0,.13q0,1.361.006,2.722c0,.1.02.2-.061.282h0l-.021.42h0c0,.759,0,1.518.01,2.275a.97.97,0,0,0,.1.61c.106.152,0,.251-.171.278a.247.247,0,0,0-.014.206h0c0,.756,0,1.513.006,2.269a.949.949,0,0,0,.158.661c.168.213-.04.319-.236.372h0l0,.128h0c0,.77,0,1.538.008,2.307a.911.911,0,0,0,.1.571c.105.152,0,.25-.169.278h0a.353.353,0,0,0-.017.26v0c0,.705,0,1.411.01,2.117a.944.944,0,0,0,.179.758c.149.158.026.379-.259.371h0c0,.043,0,.087,0,.13h0q0,1.36.006,2.721c0,.1.02.2-.061.282h0q-.01.212-.02.424h0c0,.757,0,1.515.009,2.271a.966.966,0,0,0,.1.609c.106.151,0,.251-.17.278h0c0,.068-.01.137-.015.206h0q0,1.22.006,2.439a.526.526,0,0,0,.116.407c.21.23.136.379-.194.455h0c0,.044,0,.089,0,.133h0q0,.375.007.75h0a2.371,2.371,0,0,0,1.722-.315c.28-.191.593-.335.89-.5-.014-.195.022-.368.24-.427.132-.036.2.033.219.167h0l2.6-1.531h0c0-.327.172-.324.4-.2h0l1.464-.841h0c-.014-.194.022-.367.239-.427.132-.036.2.033.219.167h0l1.483-.858c-.014-.2.022-.368.24-.428.132-.036.2.034.218.167l1.482-.858c-.013-.2.022-.368.24-.428.133-.036.2.035.218.168h0l2-1.159c-.014-.2.022-.368.24-.428.133-.036.2.035.218.167l2-1.158c-.014-.2.022-.367.239-.427.132-.037.2.033.219.167l1.483-.866c.042-.434.135-.488.607-.349-.021-.337.146-.347.392-.222l1.464-.84c-.013-.2.022-.368.24-.428.133-.036.2.034.218.167l2.079-1.233c0-.327.172-.325.4-.2l1.464-.84c-.014-.2.022-.367.239-.428.132-.036.2.033.219.166l1.482-.857c-.014-.2.022-.368.24-.428.132-.036.2.033.219.167h0l1.482-.858c-.013-.2.022-.369.24-.428.133-.037.2.035.218.167l2.079-1.232c0-.328.172-.325.4-.205l.942-.549c-.014-.195.027-.363.242-.421.132-.035.2.035.216.167l.438-.269c-.014-.195.027-.363.242-.421.132-.035.2.036.216.167a8.457,8.457,0,0,1,1.022-.61.859.859,0,0,0,.54-.9c.009-.131-.049-.271.056-.387q.01-.142.019-.284c.009-.131-.05-.272.056-.388l.019-.282h0c.008-.132-.051-.272.056-.39q.01-.14.019-.281c.008-.132-.051-.273.056-.391q.009-.141.019-.28c.008-.132-.051-.274.056-.392q.01-.139.019-.278c.007-.133-.051-.275.056-.394l.019-.277c.007-.133-.051-.275.055-.395.032-.339.063-.679.1-1.018.007-.135-.053-.279.054-.4l.018-.281c.008-.132-.05-.272.055-.391q.011-.17.022-.34a.385.385,0,0,0-.063-.24c-.169-.187-.074-.274.126-.317l.01-.126c.007-.133-.051-.275.055-.395l.1-1.018c.007-.135-.053-.279.055-.4h0q.009-.141.018-.282h0c.008-.131-.05-.272.055-.39.007-.113.015-.227.022-.34a.386.386,0,0,0-.063-.24c-.168-.187-.074-.275.126-.317,0-.042.007-.085.01-.127.007-.133-.051-.274.055-.394q.048-.51.1-1.019c.007-.135-.053-.279.055-.4q.01-.138.019-.278c.007-.132-.051-.275.055-.393.006-.094.012-.188.018-.282.008-.131-.05-.271.055-.39l.1-1.014a.385.385,0,0,0-.064-.239c-.169-.188-.073-.274.127-.316,0-.042.007-.083.01-.124.007-.134-.052-.276.055-.4.006-.094.012-.187.019-.28.008-.132-.051-.273.055-.392l.17-1.688c.007-.136-.054-.28.055-.4q.01-.138.019-.277c.007-.133-.052-.275.055-.4q.01-.141.019-.281c.008-.132-.05-.272.055-.391l.1-1.02c-.316-.392-.3-.52.068-.625l.018-.021-.013-.025c.007-.135-.053-.278.055-.4h0q.009-.14.019-.279c.007-.133-.051-.274.055-.394l.113-.887c-.068-.009-.136-.019-.173-.089h0c-.109-.108-.088-.3-.251-.379a.124.124,0,0,1-.008-.194c.295-.149.214-.461.32-.689h0l.018-.109h0c.017-.238-.071-.483.057-.712h0l.011-.073h0a3.062,3.062,0,0,1-.09-.652c.138-.343.02-.663.068-.964.038-.239.232-.4-.027-.642-.091-.084,0-.266.129-.343.212-.128.185-.264.028-.407-.081-.074-.159-.194-.07-.248.279-.168.221-.466.322-.7h0c0-.026.007-.051.011-.077h0c.03-.247-.067-.505.065-.744h0a.057.057,0,0,0,.012-.069h0c-.031-.223.073-.468-.122-.668a.122.122,0,0,1,.06-.186.421.421,0,0,1,.38.069.453.453,0,0,1,.05.709c-.147.156.013.373-.135.516h0l-.011.077h0c-.03.248.067.506-.065.745h0a.058.058,0,0,0-.012.069h0a2.783,2.783,0,0,1,.089.655.935.935,0,0,0,.042.935c.01.015-.058.107-.106.14a.509.509,0,0,0-.131.122c0,.069,0,.138,0,.207a.508.508,0,0,0,.1.114c.178.161.086.325-.068.43-.2.139-.183.267-.025.409.082.074.159.2.069.249-.279.167-.221.467-.322.7h0l-.011.076h0c-.03.247.067.506-.065.745h0a.058.058,0,0,0-.012.069h0c.008.68.025.708.474.76h0c.234,0,.548.02.573-.251a2.123,2.123,0,0,0,.081-.707c.008-.131-.049-.272.054-.391.007-.118.014-.237.021-.355s-.05-.272.054-.391h0l.021-.354c.007-.132-.05-.273.054-.392.007-.118.014-.237.021-.355s-.05-.272.054-.392c.007-.118.014-.235.021-.353s-.051-.274.053-.393l.021-.353c.007-.133-.051-.274.053-.393l.021-.352c.007-.133-.051-.275.054-.4.007-.116.014-.233.021-.349h0c.006-.135-.052-.277.053-.4l.021-.348c.006-.135-.052-.277.054-.4l.021-.346c.006-.135-.053-.279.054-.4.006-.1.012-.2.018-.3a14.373,14.373,0,0,0-2.157.332c-1.025.167-2.049.337-3.1.511.364.463.144.929-.033,1.4h0a.065.065,0,0,0-.012.07h0c0,.061-.025.146.006.179.439.453-.089.781-.144,1.168h0a.057.057,0,0,0-.012.067h0c0,.062-.024.147.007.18.44.454-.087.783-.145,1.171h0a.045.045,0,0,0-.013.062h0c.021.186-.042.38.16.533.15.112.029.247-.083.329-.144.105-.205.21-.059.357.048.048.078.14.034.162-.281.143-.13.451-.26.647h0l-.011.074c.016.167-.047.346.105.489.068.063.075.207.024.239-.237.149-.156.423-.269.615h0c0,.024-.008.048-.012.071h0a.463.463,0,0,0,.132.352.354.354,0,0,1-.219.618h0l-.063.073h0c-.015.14.057.3-.116.4s-.28,0-.414-.109c-.164-.131-.385-.057-.579-.055-.215,0-.312-.053-.311-.292.007-2.2,0-4.4.006-6.593,0-.115-.038-.281.158-.27s.136.179.137.291c0,2.011,0,4.023.007,6.034,0,.178-.125.446.249.457.325.009.439-.151.429-.44-.007-.218.129-.238.292-.233,0-.056,0-.11,0-.165a.048.048,0,0,0-.007-.011c-.434-.45.077-.776.143-1.159l0-.011a.046.046,0,0,0,.013-.062c-.021-.187.042-.381-.16-.533-.15-.112-.029-.247.083-.329.144-.105.205-.21.059-.357-.048-.048-.078-.14-.034-.162.282-.143.13-.451.26-.647h0l.011-.074c0-.192.042-.393-.169-.528a.137.137,0,0,1,.006-.226c.252-.127.2-.4.3-.589h0c0-.024.008-.048.012-.071s.045-.063.034-.1c0-.013-.006-.025-.009-.038l-.025.139c0-.061.024-.146-.006-.179-.438-.453.089-.781.145-1.169h0a.053.053,0,0,0,.012-.065h0c0-.061.023-.147-.008-.18-.439-.455.084-.785.145-1.173h0a.047.047,0,0,0,.013-.062h0c-.005-.225-.105-.349-.323-.221-.194.114-.376,0-.571.026-.593.093-1.186.169-1.774.3a1.772,1.772,0,0,1-.917-.044c.065-.018.131-.034.2-.05l-.016,0a.319.319,0,0,0-.181.053h0c-.131.13-.3.048-.445.074h0c-.131.129-.3.048-.445.074h0c-.131.129-.3.048-.445.074h0c-.13.129-.3.047-.444.074h0l0,0h0c-.131.127-.3.047-.444.073h0c-.131.128-.3.047-.444.073h0c-.123.121-.273.055-.413.062h0l-.023,0-.014.019h0c-.122.12-.272.053-.411.06h0l-.023,0-.014.019h0c-.122.119-.272.053-.411.061h0l-.023,0-.014.019h0c-.12.119-.267.055-.4.061h0l-.026,0-.018.02h0c-.12.117-.267.053-.4.059h0l-.026,0-.018.02h0c-.12.117-.267.054-.4.06h0l-.026,0-.018.02h0c-.12.117-.267.054-.4.06h0l-.026,0-.018.021h0c-.119.117-.264.054-.4.06h0l-.028,0-.021.02h0c-.119.115-.264.053-.4.059h0l-.028,0-.021.02h0c-.119.116-.264.054-.4.06h0l-.028,0-.021.02h0c-.117.116-.262.053-.4.06h0l-.03,0-.022.021h0c-.118.114-.262.053-.4.059h0l-.03,0-.022.02h0c-.118.115-.262.053-.4.06h0l-.029,0-.022.02h0c-.116.115-.259.052-.391.061h0l-.031,0-.025.02h0c-.116.113-.259.052-.391.06h0l-.031,0-.025.02h0c-.116.113-.259.052-.391.061h0l-.031,0-.025.019h0c-.116.113-.259.052-.391.06h0l-.031,0-.025.02h0c-.115.113-.257.052-.388.061h0l-.033,0-.027.019h0c-.115.112-.257.051-.388.061h0l-.032,0-.027.02h0c-.115.111-.257.051-.388.06h0l-.032,0-.027.019h0c-.114.112-.255.051-.385.062h0l-.034,0-.029.019h0c-.114.111-.255.051-.385.061h0l-.034,0-.029.019h0c-.114.111-.255.051-.385.061h0l-.034,0-.029.019h0c-.327.515-.9.377-1.367.488-.641.151-1.3.229-1.948.348-.19.035-.291.228-.523.3-.008.021-.015.044-.022.066.24.175.253.335.013.5-.039.025-.1.093-.092.1.319.49-.386,1.039.09,1.527.109.112.029.273-.083.359a.485.485,0,0,0-.19.248c0,.036-.006.072-.009.107a.591.591,0,0,0,.167.321c.053.06.111.161.06.194-.369.234-.214.644-.338.957h0c-.007.042-.013.083-.021.125h0a2.511,2.511,0,0,1-.055.92h0l-.02.121h0c.055.281-.071.579.125.856.088.125-.059.207-.2.208.044.259-.063.541.139.78a.207.207,0,0,1-.053.27.426.426,0,0,0-.011.675.254.254,0,0,1-.045.415c-.284.212-.212.431-.045.654.065.086.149.2.059.253-.345.207-.222.542-.271.833-.005.031-.044.056-.067.084h0l-.217.448h0c.123.273.084.389-.259.334a5.272,5.272,0,0,0-.926-.03c-.215,0-.312-.052-.311-.29q.009-4.838,0-9.674c0-.227.059-.348.3-.184h0q0,4.662,0,9.323c0,.526,0,.526.523.522.066,0,.133-.006.2-.011l.019-.026c-.095-.406.245-.6.441-.856h0l.02-.121h0c-.055-.281.072-.578-.125-.856-.088-.125.059-.207.2-.208-.062-.268.092-.567-.129-.814-.054-.061,0-.138.05-.2a.782.782,0,0,0,.1-.144c.012-.129.027-.258.039-.386a.648.648,0,0,0-.132-.214.208.208,0,0,1,.027-.346.669.669,0,0,0,.15-.167q.008-.159.018-.318a.676.676,0,0,0-.146-.2.2.2,0,0,1-.01-.3.493.493,0,0,0,.23-.348c0-.03.007-.06.011-.09.009-.113,0-.232.01-.347,0-.033.034-.063.052-.1h0l.02-.127h0a2.516,2.516,0,0,1,.055-.918h0c.007-.04.013-.08.02-.121h0c-.054-.281.072-.578-.125-.856-.088-.125.059-.207.2-.208-.052-.281.086-.594-.142-.845a.783.783,0,0,0-.009-1.07.109.109,0,0,1,.029-.1c.282-.146.228-.45.329-.681h0a.955.955,0,0,1,.455-.835h0c.108-.1.244-.045.368-.063h0c.131-.129.3-.047.445-.073h0c.131-.129.3-.048.445-.074h0c.13-.129.3-.047.444-.074h0c.131-.128.3-.047.444-.073h0c.131-.128.3-.047.444-.073h0l0,0h0c.123-.121.273-.055.413-.062h0l.023,0,.014-.019h0c.122-.12.272-.053.411-.061h0l.023,0,.014-.019h0c.122-.12.272-.053.411-.061h0l.023,0,.014-.019h0c.121-.119.27-.053.408-.06h0l.024,0,.016-.02h0c.12-.118.267-.054.4-.06h0a.028.028,0,0,0,.044-.015h0c.12-.118.267-.054.4-.06h0a.027.027,0,0,0,.044-.015h0c.12-.118.267-.054.4-.06h0a.028.028,0,0,0,.044-.015h0c.118-.117.264-.054.4-.06h0a.032.032,0,0,0,.049-.015h0c.119-.116.264-.054.4-.06h0a.031.031,0,0,0,.049-.015h0c.119-.116.264-.053.4-.059h0a.032.032,0,0,0,.049-.016h0c.117-.115.262-.053.4-.06h0a.035.035,0,0,0,.052-.016h0c.118-.114.262-.053.4-.06h0a.035.035,0,0,0,.052-.015h0c.118-.115.262-.053.4-.06h0a.035.035,0,0,0,.052-.016h0c.116-.114.259-.053.392-.061h0a.041.041,0,0,0,.056-.015h0c.116-.113.259-.052.391-.06h0a.041.041,0,0,0,.057-.014h0c.116-.113.259-.053.391-.061h0a.04.04,0,0,0,.057-.015h0c.116-.113.259-.052.391-.06h0a.041.041,0,0,0,.057-.014h0c.115-.113.257-.052.388-.061h0a.045.045,0,0,0,.059-.015h0c.115-.112.257-.051.388-.06h0a.045.045,0,0,0,.06-.015h0c.115-.112.257-.051.388-.06h0a.045.045,0,0,0,.06-.014h0c.114-.112.255-.051.385-.062h0a.05.05,0,0,0,.063-.014h0c.114-.111.255-.051.385-.061h0a.05.05,0,0,0,.062-.014h0c.114-.111.255-.051.385-.061h0a.05.05,0,0,0,.063-.014h0c.3-.511.856-.408,1.3-.485.808-.141,1.618-.282,2.428-.415,1.031-.17,2.06-.348,3.1-.492.76-.105,1.537-.1,2.279-.28a11.478,11.478,0,0,0,1.539-.3c.155-.061.263.147.422.131l.053-.013h0c.131-.129.3-.047.445-.073h0c.131-.129.3-.048.445-.073h0l0,0h0c.13-.129.3-.047.444-.074h0l.07-.021a.9.9,0,0,1,.679-.049,4.074,4.074,0,0,0,.894-.214c.039-.35.264-.187.44-.159a2.85,2.85,0,0,0,.014-.9C3224.35,4367.617,3224.187,4367.441,3224,4367.327Zm-86.5,15.078a4.04,4.04,0,0,1-.849-.053.581.581,0,0,1-.435-.54c-.082-1.1-.147-2.2-.227-3.3-.091-1.248-.2-2.5-.288-3.742-.062-.853-.12-1.706-.153-2.561-.012-.312-.069-.53-.425-.56-.122-.01-.2-.09-.235-.243a1.408,1.408,0,0,1,.522.1.348.348,0,0,1,.3.366c.066,1,.141,2,.218,3,.118,1.543.246,3.087.359,4.631.048.655.079,1.313.1,1.97.018.628.386.891,1,.7.15-.047.1-.152.1-.237-.025-.683-.021-1.369-.1-2.045-.072-.619-.054-1.239-.1-1.857-.1-1.274-.115-2.554-.176-3.831-.034-.718-.094-1.436-.136-2.153a1.136,1.136,0,0,1,.032-.366.164.164,0,0,1,.213-.105c.1.037.029.116.012.186a3.348,3.348,0,0,0-.014.927c.038.8.087,1.609.132,2.414.1,1.759.209,3.517.286,5.276.027.6.04,1.191.086,1.786C3137.733,4382.333,3137.7,4382.429,3137.505,4382.4Zm3.295,29.334c-.185-.008-.1-.2-.1-.3q-.031-3.04-.05-6.081c-.02-3.345,0-6.691-.063-10.036-.064-3.557.015-7.113-.07-10.668s-.005-7.088-.071-10.632c-.008-.446-.036-.893-.039-1.34,0-.1-.1-.287.123-.273.174.01.1.174.1.266.013,1.355,0,2.712.032,4.067.09,3.593-.007,7.188.077,10.781.036,1.517.026,3.033.044,4.549h.1q0,8.357,0,16.713c0,.883.033,1.765.039,2.647C3140.922,4411.536,3141.027,4411.748,3140.8,4411.739Zm5.837-28.8c-1.1.181-1.183.1-1.247-1-.1-1.669-.236-3.337-.353-5.006q-.085-1.2-.156-2.412c-.032-.532-.061-1.064-.081-1.6-.006-.147-.062-.179-.2-.235a7.567,7.567,0,0,0-1.359-.164c-.17-.036-.142.1-.133.187.111,1.016.019,2.039.106,3.055.01.124.025.248.028.372.056,2.3.094,4.6.171,6.9.055,1.652.107,3.3.143,4.955.038,1.739.1,3.478.15,5.217q.073,2.479.146,4.956c.052,1.751.089,3.5.157,5.253.064,1.639.1,3.279.151,4.918.029.845.053,1.688.06,2.534,0,.1.094.294-.087.3-.137,0-.071-.181-.084-.281-.133-1.063-.052-2.135-.12-3.2-.087-1.35-.062-2.708-.1-4.062q-.108-4.024-.232-8.049-.069-2.366-.14-4.731c-.053-1.813-.091-3.627-.161-5.44-.065-1.689-.106-3.378-.147-5.067-.061-2.5-.144-4.993-.216-7.49,0-.123.01-.246.016-.369h0a8.791,8.791,0,0,0-1.753-.216c-.788-.089-1.581-.145-2.371-.219-.085-.008-.224.038-.208-.13s.147-.1.228-.087q2.052.222,4.1.453h0a6.537,6.537,0,0,0,1.56.152c.494-.065.456.147.476.468.054.865.137,1.729.2,2.593q.155,2.15.3,4.3c.057.854.111,1.708.147,2.563.013.3.131.484.432.484.507,0,.632-.105.607-.5-.116-1.831-.252-3.66-.357-5.491-.047-.817-.087-1.635-.147-2.451-.074-1-.112-2.006-.157-3.01,0-.09-.081-.257.087-.266.145-.008.076.158.095.238a8.736,8.736,0,0,1,.1,1.292c.093,1.024.108,2.056.171,3.083.114,1.844.245,3.686.359,5.529a12.887,12.887,0,0,0,.08,1.375C3146.931,4382.834,3146.848,4382.9,3146.637,4382.938Zm28.6,37.508c-.03,0-.111-.186-.117-.289-.029-.458-.04-.916-.075-1.375-.083-1.088-.105-2.181-.172-3.271-.112-1.832-.245-3.661-.357-5.492-.064-1.053-.1-2.107-.161-3.16-.088-1.46-.2-2.919-.287-4.379-.06-.953-.1-1.908-.155-2.861-.094-1.572-.207-3.143-.288-4.716q-.065-1.263-.149-2.525c-.1-1.472-.161-2.947-.236-4.421a.545.545,0,0,1,.026-.329,1.433,1.433,0,0,1-.093-.584c.022-1.33-.052-2.657-.08-3.985q-.077-3.706-.153-7.412c0-.223-.054-.325-.3-.351-.686-.072-1.368-.18-2.052-.274-.079-.011-.191.023-.176-.122.019-.181.127-.084.216-.073.7.089,1.394.185,2.094.251.257.024.386.106.393.375.013.521.049,1.042.061,1.563.059,2.645.1,5.29.176,7.934.027.894.066,1.785.032,2.679a7.83,7.83,0,0,1,.149,1.737c.123,1.508.166,3.022.25,4.533.095,1.708.2,3.417.3,5.125q.11,1.857.221,3.714.152,2.563.3,5.125.108,1.819.219,3.639.153,2.6.305,5.2c.069,1.15.145,2.3.209,3.452C3175.34,4420.254,3175.432,4420.423,3175.237,4420.445Zm1.482-32.216c-.112.006-.224,0-.336,0-.087,0-.174,0-.261,0-.476-.012-.638-.179-.643-.652q-.049-4.754-.1-9.507c-.008-.708-.038-1.416-.042-2.124,0-.264-.048-.4-.363-.42-.528-.032-1.052-.13-1.577-.2-.086-.011-.189-.005-.15-.142.035-.12.122-.039.181-.034.566.051,1.133.094,1.7.167.349.045.438.309.439.627,0,1.219-.014,2.438.032,3.655.079,2.1,0,4.2.067,6.3.017.583.041,1.167.042,1.75,0,.235.078.348.316.351s.471.015.707.023c.073,0,.16-.009.171.094C3176.913,4388.266,3176.8,4388.226,3176.719,4388.229Z" transform="translate(168.867 -3971.81)" fill="#fff"/><path d="M3888.66,4509.23h0a.165.165,0,0,0-.01.023C3888.654,4509.245,3888.656,4509.238,3888.66,4509.23Z" transform="translate(-532.152 -4103.122)" fill="#fff"/><path d="M3884.008,4590.388c0-.159,0-.317.006-.476A3.594,3.594,0,0,0,3884.008,4590.388Z" transform="translate(-527.851 -4177.782)" fill="#fff"/><path d="M3886.86,4533.344c.007-.139.014-.277.02-.416a2.284,2.284,0,0,0-.032.371C3886.852,4533.314,3886.856,4533.329,3886.86,4533.344Z" transform="translate(-530.484 -4125.051)" fill="#fff"/><path d="M3881.021,4585.782a.456.456,0,0,0,.022-.048.463.463,0,0,1-.022.048Z" transform="translate(-525.092 -4173.916)" fill="#fff"/><path d="M4006.456,4544.167a.514.514,0,0,0-.022.065c.008-.022.015-.044.022-.065Z" transform="translate(-641.145 -4135.451)" fill="#fff"/><path d="M3885.661,4499.323c0,.159,0,.317-.006.476A3.636,3.636,0,0,0,3885.661,4499.323Z" transform="translate(-529.38 -4093.954)" fill="#fff"/><path d="M4309.035,4738.833a.7.7,0,0,1-.027.07A.174.174,0,0,0,4309.035,4738.833Z" transform="translate(-921.135 -4315.587)" fill="#fff"/><path d="M4314.035,4691.825a.661.661,0,0,1-.027.071A.176.176,0,0,0,4314.035,4691.825Z" transform="translate(-925.762 -4272.088)" fill="#fff"/><path d="M3889.784,4491.236Z" transform="translate(-533.202 -4086.471)" fill="#fff"/><path d="M3224.522,4301.845a2,2,0,0,0-.831-.178c-1.566-.039-3.133-.084-4.7-.124-3.319-.085-6.64-.141-9.958-.259q-8.034-.287-16.066-.645c-2.385-.1-4.771-.219-7.15-.4a45.959,45.959,0,0,0-7.482.057c-2.638.225-5.282.389-7.923.578q-3.348.24-6.7.477-3.925.281-7.85.565-3.887.279-7.775.552-3.925.281-7.849.567-3.869.276-7.738.548a2.608,2.608,0,0,0-1.147.287.745.745,0,0,0-.467.662c.008.82.01,1.641.015,2.461a.267.267,0,0,1,.135-.019c.184.018.354.187.555.082a.319.319,0,0,1,.506.172c.05.125.16.132.274.14s.268-.048.374.066l.008.007h0a4.177,4.177,0,0,0,1.1.128c1.538.155,3.08.262,4.62.394,1.675.145,3.349.3,5.023.447s3.326.294,4.987.448c1.784.166,3.567.347,5.352.508,1.269.115,2.541.194,3.809.315,1.416.136,2.829.29,4.25.368a.655.655,0,0,1,.339.134c.113-.212.249.066.367-.018a3.355,3.355,0,0,1,1.244.055c1,.054,1.994.179,2.99.278,1.168.117,2.335.24,3.5.354.862.084,1.725.158,2.586.24,1.243.118,2.485.241,3.727.359.567.055,1.133.117,1.7.155a50.254,50.254,0,0,0,6.741-.02,31.954,31.954,0,0,0,3.243-.527c1.357-.234,2.713-.476,4.07-.712,1.5-.262,3.007-.519,4.511-.78s3-.525,4.507-.789,3.028-.534,4.543-.8c1.492-.259,2.984-.512,4.476-.771s3-.524,4.507-.786q2.036-.354,4.072-.707c1.5-.262,3-.533,4.509-.781.267-.044.534-.2.818-.067h0c.054-.012.045-.091.138-.087.417.017.51-.084.526-.5.021-.51.031-1.02.073-1.528A.859.859,0,0,0,3224.522,4301.845Zm-3.589.521c-1.169.262-2.361.366-3.546.52-.952.124-1.917.2-2.857.349-1.494.241-2.994.416-4.49.628q-2.636.374-5.274.733c-1.394.188-2.791.351-4.184.537s-2.783.4-4.178.578c-.955.123-1.916.206-2.873.315-.981.113-1.96.241-2.941.354-.957.11-1.916.207-2.873.315-.994.113-1.984.266-2.98.343a32,32,0,0,1-3.7.48,6.367,6.367,0,0,1-1.506-.176,16.479,16.479,0,0,0-3.124-.342c-1.332-.123-2.668-.2-4-.292-.829-.058-1.658-.105-2.486-.163-1.36-.094-2.719-.192-4.078-.287-.8-.056-1.608-.1-2.412-.16-1.384-.1-2.768-.2-4.152-.288-.916-.061-1.833-.1-2.748-.166-1.235-.087-2.47-.188-3.705-.28-.779-.058-1.558-.106-2.336-.162-1.334-.1-2.668-.2-4-.288-.878-.061-1.763-.067-2.635-.175-1.221-.151-2.45-.151-3.674-.257-1.245-.107-2.485-.268-3.734-.337-.192-.01-.514.022-.525-.2-.012-.25.307-.206.5-.244a27.881,27.881,0,0,1,3.475-.3q2.208-.152,4.416-.292c.928-.059,1.857-.1,2.786-.156,1.534-.094,3.067-.209,4.6-.287.879-.044,1.758-.1,2.636-.153,1.6-.092,3.194-.176,4.789-.3.952-.072,1.907-.1,2.859-.162,1.26-.086,2.519-.193,3.779-.286.779-.058,1.558-.1,2.337-.158,1.334-.1,2.668-.2,4-.292.779-.056,1.558-.111,2.337-.154,1.285-.07,2.565-.183,3.841-.362.929-.13,1.862-.245,2.8-.306a21.092,21.092,0,0,1,2.875.258,28.51,28.51,0,0,0,3.739.251,2.706,2.706,0,0,0,.609-.142,6,6,0,0,1,2.1-.053c.78.041,1.559.055,2.339.056.155,0,.347.021.38.166.037.163-.2.183-.346.342.73.027,1.4.029,2.062.062,1.3.063,2.609.064,3.914.1,2.571.071,5.143.138,7.712.234.368.013.739.062,1.11.068a1.926,1.926,0,0,0,1.075-.181,1.576,1.576,0,0,1,1.054-.11,5.058,5.058,0,0,0,1,.054c1.132-.045,2.26.122,3.392.055.048,0,.119-.009.144.019.357.39.824.209,1.237.214,1.8.024,3.607.013,5.41.017.2,0,.506-.043.536.174C3221.443,4302.35,3221.121,4302.324,3220.933,4302.366Z" transform="translate(169.05 -3909.609)" fill="#fff"/><path d="M3776.191,4527.286h0a1.228,1.228,0,0,0-.052.438c-.01.065.024.169-.089.164s-.087-.1-.086-.171q.013-1.305.032-2.61c0-.173.03-.347.033-.521.032-1.888.047-3.777.1-5.666.063-2.41.1-4.819.158-7.229.043-1.925.092-3.85.134-5.775.056-2.609.084-5.218.159-7.826q.093-3.278.149-6.558c.051-3.279.142-6.558.219-9.837,0-.089-.049-.229.1-.239.185-.013.125.147.126.244,0,.4,0,.8,0,1.193h0c.256-.08.4-.188.178-.466-.17-.21-.193-.581-.03-.665.232-.12.386-.314.6-.435a19.549,19.549,0,0,1-3.062.077.612.612,0,0,1-.376-.075l-.01.007a21,21,0,0,1-.035,2.217c-.068.979-.028,1.961-.073,2.943-.073,1.588-.056,3.18-.106,4.77-.092,2.93-.162,5.86-.232,8.791-.04,1.664-.095,3.327-.138,4.991-.054,2.111-.115,4.222-.16,6.333-.039,1.813-.1,3.625-.146,5.438-.076,2.918-.158,5.835-.231,8.754-.024.956-.033,1.912-.067,2.868-.005.146.031.421-.123.416-.218-.008-.089-.26-.093-.4-.013-.534,0-1.068,0-1.6-.331.074-.406.224-.2.454a.581.581,0,0,1,.118.407,4.568,4.568,0,0,0,.071,1.28,1.231,1.231,0,0,0,.687-.111c.642-.264,1.288-.515,1.926-.788a.718.718,0,0,1,.525-.062h0Q3776.195,4527.661,3776.191,4527.286Z" transform="translate(-424.906 -4077.301)" fill="#fff"/><path d="M4248.656,4389.819c-2.068.343-4.13.714-6.205,1.018-.655.1-1.308.211-1.958.332a1.5,1.5,0,0,1-.334-.018l-.011,0c-.066.016-.132.032-.2.049a1.757,1.757,0,0,0,.917.044c.588-.132,1.181-.208,1.773-.3.195-.031.377.088.571-.026.218-.128.317,0,.323.22h0c.068-.039.038-.194.169-.153.1.032.051.123.055.189.024.36-.127.708-.07,1.07.176-.467.4-.933.033-1.4,1.054-.173,2.079-.344,3.1-.51a14.191,14.191,0,0,1,2.157-.333c.031-.142.182-.284,0-.427h0C4248.962,4389.78,4248.8,4389.8,4248.656,4389.819Z" transform="translate(-857.231 -3992.403)" fill="#fff"/><path d="M4375.948,4365.371c.186.113.348.289.6.222-.005-.131.125-.292-.082-.38h0C4376.364,4365.5,4376.109,4365.278,4375.948,4365.371Z" transform="translate(-983.079 -3969.854)" fill="#fff"/><path d="M4331.932,4508.248h0Z" transform="translate(-942.347 -4102.213)" fill="#fff"/><path d="M4332.226,4497.217h0a.835.835,0,0,0-.064.532c.007.182-.063.265-.228.292v0h0c.037.07.1.079.173.089l.594-.153h0C4332.25,4497.925,4332.232,4497.9,4332.226,4497.217Z" transform="translate(-942.347 -4092.005)" fill="#fff"/><path d="M4064.509,4969.59c-.471-.139-.565-.085-.607.349a2.039,2.039,0,0,0,.607-.344A.024.024,0,0,1,4064.509,4969.59Z" transform="translate(-694.323 -4529.058)" fill="#fff"/><path d="M4327.263,4536.929a1.557,1.557,0,0,0,.067-.625C4326.96,4536.408,4326.946,4536.537,4327.263,4536.929Z" transform="translate(-937.819 -4128.175)" fill="#fff"/><path d="M4156.111,4916.36c-.218.06-.253.232-.24.427l.458-.261C4156.315,4916.392,4156.243,4916.324,4156.111,4916.36Z" transform="translate(-779.426 -4479.855)" fill="#fff"/><path d="M3854.111,5090.36c-.217.06-.253.232-.24.427l.458-.261h0C3854.316,5090.394,3854.244,5090.324,3854.111,5090.36Z" transform="translate(-499.967 -4640.868)" fill="#fff"/><path d="M4272.114,4849.36c-.215.058-.256.226-.242.421a1.289,1.289,0,0,0,.458-.254C4272.316,4849.4,4272.246,4849.325,4272.114,4849.36Z" transform="translate(-886.769 -4417.857)" fill="#fff"/><path d="M4260.114,4856.36c-.215.057-.255.226-.242.42a1.313,1.313,0,0,0,.458-.254C4260.316,4856.4,4260.245,4856.325,4260.114,4856.36Z" transform="translate(-875.664 -4424.334)" fill="#fff"/><path d="M4208.112,4886.362c-.218.059-.253.233-.24.428l.458-.26C4208.316,4886.4,4208.245,4886.325,4208.112,4886.362Z" transform="translate(-827.546 -4452.096)" fill="#fff"/><path d="M4182.111,4901.36c-.218.06-.253.232-.24.428h0l.458-.261h0C4182.316,4901.394,4182.244,4901.324,4182.111,4901.36Z" transform="translate(-803.486 -4465.975)" fill="#fff"/><path d="M4097.112,4950.361c-.218.06-.253.232-.24.428l.458-.26C4097.316,4950.4,4097.244,4950.325,4097.112,4950.361Z" transform="translate(-724.83 -4511.319)" fill="#fff"/><path d="M4038.111,4984.36c-.217.06-.253.232-.239.427h0l.458-.261C4038.316,4984.393,4038.243,4984.323,4038.111,4984.36Z" transform="translate(-670.234 -4542.78)" fill="#fff"/><path d="M4005.112,5003.361c-.218.06-.253.232-.24.427l.458-.26C4005.316,5003.4,4005.245,5003.325,4005.112,5003.361Z" transform="translate(-639.697 -4560.363)" fill="#fff"/><path d="M3972.112,5022.361c-.218.06-.254.232-.24.428l.458-.26h0C3972.316,5022.4,3972.245,5022.325,3972.112,5022.361Z" transform="translate(-609.16 -4577.945)" fill="#fff"/><path d="M3946.111,5037.36c-.218.06-.253.232-.24.427h0l.458-.26C3946.316,5037.393,3946.243,5037.324,3946.111,5037.36Z" transform="translate(-585.1 -4591.824)" fill="#fff"/><path d="M3920.111,5052.359c-.217.06-.253.232-.239.427h0l.458-.262h0C3920.316,5052.392,3920.243,5052.323,3920.111,5052.359Z" transform="translate(-561.041 -4605.704)" fill="#fff"/><path d="M4319.079,4620.62a.389.389,0,0,1,.064.24.638.638,0,0,0,.027-.072,1.412,1.412,0,0,0,.036-.484C4319.006,4620.347,4318.91,4620.433,4319.079,4620.62Z" transform="translate(-930.374 -4205.905)" fill="#fff"/><path d="M4312.079,4685.622a.383.383,0,0,1,.063.24c.011-.024.02-.047.028-.071a1.428,1.428,0,0,0,.036-.487C4312,4685.347,4311.911,4685.434,4312.079,4685.622Z" transform="translate(-923.896 -4266.054)" fill="#fff"/><path d="M3894.9,5068.747h0a.656.656,0,0,0,.4-.2h0C3895.075,5068.422,3894.905,5068.419,3894.9,5068.747Z" transform="translate(-537.938 -4620.619)" fill="#fff"/><path d="M4072.011,4966.772v0h0a.975.975,0,0,0,.392-.227C4072.157,4966.425,4071.99,4966.436,4072.011,4966.772Z" transform="translate(-701.826 -4526.24)" fill="#fff"/><path d="M4130.9,4932.747a.655.655,0,0,0,.4-.2C4131.075,4932.422,4130.9,4932.419,4130.9,4932.747Z" transform="translate(-756.323 -4494.77)" fill="#fff"/><path d="M4241.9,4868.747a.656.656,0,0,0,.4-.2C4242.075,4868.422,4241.9,4868.419,4241.9,4868.747Z" transform="translate(-859.038 -4435.547)" fill="#fff"/><path d="M4307.08,4732.622a.383.383,0,0,1,.063.24.6.6,0,0,0,.027-.07,1.407,1.407,0,0,0,.036-.487C4307.005,4732.347,4306.911,4732.434,4307.08,4732.622Z" transform="translate(-919.27 -4309.545)" fill="#fff"/><path d="M4377.9,4381.7c.158-.023.355.064.44-.159C4378.167,4381.51,4377.942,4381.347,4377.9,4381.7Z" transform="translate(-984.888 -3984.903)" fill="#fff"/><path d="M4356.832,4386.724a.357.357,0,0,1,.3.035h0c.1-.129.278.069.375-.084A.894.894,0,0,0,4356.832,4386.724Z" transform="translate(-965.39 -3989.665)" fill="#fff"/><path d="M4355.885,4388.252Z" transform="translate(-964.513 -3991.173)" fill="#fff"/><path d="M4354.875,4449.729a.716.716,0,0,0,.054-.394C4354.824,4449.456,4354.882,4449.6,4354.875,4449.729Z" transform="translate(-963.57 -4047.698)" fill="#fff"/><path d="M4355.875,4439.729a.7.7,0,0,0,.054-.394C4355.825,4439.456,4355.882,4439.6,4355.875,4439.729Z" transform="translate(-964.495 -4038.444)" fill="#fff"/><path d="M4353.875,4459.728a.714.714,0,0,0,.054-.392C4353.825,4459.455,4353.882,4459.6,4353.875,4459.728Z" transform="translate(-962.644 -4056.952)" fill="#fff"/><path d="M4352.875,4469.729a.714.714,0,0,0,.054-.392C4352.825,4469.457,4352.882,4469.6,4352.875,4469.729Z" transform="translate(-961.719 -4066.207)" fill="#fff"/><path d="M4351.875,4479.729a.715.715,0,0,0,.054-.391h0C4351.826,4479.457,4351.883,4479.6,4351.875,4479.729Z" transform="translate(-960.794 -4075.461)" fill="#fff"/><path d="M4350.875,4489.728a.719.719,0,0,0,.054-.391C4350.826,4489.456,4350.883,4489.6,4350.875,4489.728Z" transform="translate(-959.869 -4084.713)" fill="#fff"/><path d="M4359.876,4399.734a.724.724,0,0,0,.054-.4C4359.823,4399.455,4359.883,4399.6,4359.876,4399.734Z" transform="translate(-968.196 -4001.427)" fill="#fff"/><path d="M4331.875,4521.726a.706.706,0,0,0,.055-.393C4331.824,4521.452,4331.883,4521.594,4331.875,4521.726Z" transform="translate(-942.287 -4114.321)" fill="#fff"/><path d="M4358.876,4409.732a.724.724,0,0,0,.053-.4C4358.824,4409.454,4358.883,4409.6,4358.876,4409.732Z" transform="translate(-967.271 -4010.681)" fill="#fff"/><path d="M4330.876,4530.73a.711.711,0,0,0,.055-.4h0C4330.823,4530.452,4330.882,4530.6,4330.876,4530.73Z" transform="translate(-941.361 -4122.648)" fill="#fff"/><path d="M4327.875,4558.723a.709.709,0,0,0,.056-.39C4327.825,4558.451,4327.882,4558.591,4327.875,4558.723Z" transform="translate(-938.585 -4148.56)" fill="#fff"/><path d="M4326.876,4567.727a.7.7,0,0,0,.055-.395C4326.824,4567.451,4326.882,4567.594,4326.876,4567.727Z" transform="translate(-937.66 -4156.887)" fill="#fff"/><path d="M4325.876,4576.731a.706.706,0,0,0,.055-.4C4325.822,4576.451,4325.882,4576.6,4325.876,4576.731Z" transform="translate(-936.734 -4165.213)" fill="#fff"/><path d="M4322.875,4604.725a.7.7,0,0,0,.055-.392C4322.824,4604.451,4322.883,4604.592,4322.875,4604.725Z" transform="translate(-933.958 -4191.126)" fill="#fff"/><path d="M4321.876,4613.728a.7.7,0,0,0,.055-.4C4321.824,4613.451,4321.883,4613.594,4321.876,4613.728Z" transform="translate(-933.034 -4199.453)" fill="#fff"/><path d="M4357.876,4419.731h0a.716.716,0,0,0,.054-.4C4357.825,4419.455,4357.882,4419.6,4357.876,4419.731Z" transform="translate(-966.346 -4019.935)" fill="#fff"/><path d="M4318.874,4641.724a.709.709,0,0,0,.055-.39C4318.824,4641.452,4318.882,4641.592,4318.874,4641.724Z" transform="translate(-930.257 -4225.366)" fill="#fff"/><path d="M4317.876,4650.726a.7.7,0,0,0,.055-.394C4317.825,4650.451,4317.883,4650.593,4317.876,4650.726Z" transform="translate(-929.332 -4233.692)" fill="#fff"/><path d="M4316.876,4659.73a.715.715,0,0,0,.055-.4C4316.823,4659.452,4316.882,4659.6,4316.876,4659.73Z" transform="translate(-928.406 -4242.02)" fill="#fff"/><path d="M4314.876,4678.727a.708.708,0,0,0,.055-.394C4314.825,4678.452,4314.883,4678.594,4314.876,4678.727Z" transform="translate(-926.556 -4259.603)" fill="#fff"/><path d="M4312.874,4697.725h0a.7.7,0,0,0,.055-.39C4312.824,4697.453,4312.882,4697.594,4312.874,4697.725Z" transform="translate(-924.704 -4277.187)" fill="#fff"/><path d="M4311.876,4706.731a.718.718,0,0,0,.055-.4h0C4311.823,4706.452,4311.882,4706.6,4311.876,4706.731Z" transform="translate(-923.779 -4285.511)" fill="#fff"/><path d="M4307.875,4744.726a.711.711,0,0,0,.055-.391C4307.825,4744.453,4307.882,4744.594,4307.875,4744.726Z" transform="translate(-920.078 -4320.679)" fill="#fff"/><path d="M4306.876,4753.731a.713.713,0,0,0,.055-.4C4306.823,4753.452,4306.882,4753.6,4306.876,4753.731Z" transform="translate(-919.152 -4329.003)" fill="#fff"/><path d="M4304.876,4772.727a.714.714,0,0,0,.055-.395C4304.824,4772.451,4304.882,4772.594,4304.876,4772.727Z" transform="translate(-917.302 -4346.586)" fill="#fff"/><path d="M4303.876,4781.725a.7.7,0,0,0,.056-.394C4303.824,4781.449,4303.883,4781.592,4303.876,4781.725Z" transform="translate(-916.377 -4354.914)" fill="#fff"/><path d="M4302.875,4790.724a.7.7,0,0,0,.056-.392C4302.824,4790.45,4302.883,4790.591,4302.875,4790.724Z" transform="translate(-915.451 -4363.243)" fill="#fff"/><path d="M4301.874,4799.723a.7.7,0,0,0,.057-.391C4301.824,4799.449,4301.882,4799.591,4301.874,4799.723Z" transform="translate(-914.525 -4371.571)" fill="#fff"/><path d="M4300.874,4808.722h0a.7.7,0,0,0,.056-.39C4300.824,4808.45,4300.882,4808.591,4300.874,4808.722Z" transform="translate(-913.6 -4379.899)" fill="#fff"/><path d="M4299.875,4817.722a.7.7,0,0,0,.056-.389C4299.825,4817.45,4299.883,4817.591,4299.875,4817.722Z" transform="translate(-912.676 -4388.229)" fill="#fff"/><path d="M4356.876,4429.731a.713.713,0,0,0,.054-.4C4356.825,4429.456,4356.882,4429.6,4356.876,4429.731Z" transform="translate(-965.421 -4029.191)" fill="#fff"/><path d="M4298.874,4826.72a.69.69,0,0,0,.057-.387C4298.825,4826.45,4298.883,4826.589,4298.874,4826.72Z" transform="translate(-911.75 -4396.557)" fill="#fff"/><path d="M4309.875,4725.728a.715.715,0,0,0,.055-.395C4309.824,4725.452,4309.882,4725.594,4309.875,4725.728Z" transform="translate(-921.929 -4303.095)" fill="#fff"/><path d="M4191.433,4391.046c1.8-.31,3.6-.625,5.4-.9.9-.135,1.794-.292,2.689-.445a1.381,1.381,0,0,1,.311.022.06.06,0,0,1,.013,0l.13-.033c-.159.017-.267-.192-.422-.131a11.4,11.4,0,0,1-1.539.3c-.742.18-1.519.175-2.279.281-1.036.144-2.065.322-3.1.491-.81.133-1.62.275-2.428.416-.442.077-1-.026-1.3.485h0A14.667,14.667,0,0,1,4191.433,4391.046Z" transform="translate(-810.007 -3992.374)" fill="#fff"/><path d="M4337.186,4391.277l-.053.013a.17.17,0,0,0,.053-.013Z" transform="translate(-947.161 -3993.972)" fill="#fff"/><path d="M4015.543,4440.968c-.207.043-.419.06-.623.112a.666.666,0,0,0-.441.478c.232-.068.333-.261.523-.3.649-.118,1.307-.2,1.948-.348.468-.111,1.039.027,1.367-.488h0A20.593,20.593,0,0,1,4015.543,4440.968Z" transform="translate(-648.589 -4039.453)" fill="#fff"/><path d="M4010.905,4456.618c-.107.433-.02.879-.156,1.3l0,.009c0,.011,0,.023,0,.034a4.332,4.332,0,0,1-.062,1.257.487.487,0,0,1,.19-.249c.111-.086.192-.248.083-.359-.476-.489.229-1.037-.09-1.527-.007-.011.053-.079.092-.1.24-.161.227-.321-.013-.5C4010.929,4456.527,4010.916,4456.573,4010.905,4456.618Z" transform="translate(-645.074 -4054.312)" fill="#fff"/><path d="M4009.184,4494.885c.026.382-.112.77-.11,1.162h0c.125-.313-.031-.723.338-.958.051-.033-.007-.133-.06-.193a.591.591,0,0,1-.167-.32A2.338,2.338,0,0,0,4009.184,4494.885Z" transform="translate(-643.587 -4089.561)" fill="#fff"/><path d="M4260.771,4439.64a1.546,1.546,0,0,0-.408-.021c-.469,0-.47,0-.47-.451q0-3.1,0-6.194c0-.075,0-.149,0-.224s-.011-.2.108-.2.107.114.111.2,0,.174,0,.261q0,2.948,0,5.9c0,.055-.011.117-.014.176a.518.518,0,0,0,.053.186.3.3,0,0,0,.2.06c.431.008.639-.09.69-.393.019-.108,0-.225.076-.317v0c-.163,0-.3.016-.292.233.009.29-.1.449-.429.44-.374-.011-.248-.279-.249-.457-.007-2.012,0-4.023-.007-6.034,0-.112.053-.279-.137-.291s-.158.155-.158.27c0,2.2,0,4.4-.006,6.593,0,.239.1.294.311.292.194,0,.415-.077.579.055.134.108.23.216.414.109s.1-.26.116-.4A.4.4,0,0,1,4260.771,4439.64Z" transform="translate(-875.646 -4032.125)" fill="#fff"/><path d="M3981.063,4480.55c-.335.014-.67,0-1,0a.141.141,0,0,1-.163-.154c0-.05,0-.1,0-.149q0-4.767,0-9.532c0-.156-.064-.4.256-.269-.238-.165-.3-.043-.3.184q0,4.837,0,9.674c0,.238.1.295.311.291a5.271,5.271,0,0,1,.926.03c.343.054.381-.062.258-.335h0C3981.3,4480.43,3981.224,4480.543,3981.063,4480.55Z" transform="translate(-616.546 -4067.166)" fill="#fff"/><path d="M3878.988,4505.771a.063.063,0,0,0,0-.016,10.512,10.512,0,0,1,.069-1.6c.008-.039.014-.078.02-.117q.007-.179.016-.356l0-.079a5.276,5.276,0,0,1,.011-.713,11.845,11.845,0,0,0,.094-1.743c-.013-.454.075-.9.106-1.345,0-.158.005-.317.006-.475h0a.779.779,0,0,0-.06.169c-.042.361.136.771-.262,1.051-.074.053-.015.152.041.229a.739.739,0,0,1-.066.982.275.275,0,0,0-.015.4.715.715,0,0,1-.049.959.274.274,0,0,0-.041.372.743.743,0,0,1-.01,1.021.19.19,0,0,0-.038.209c.237.348.1.74.146,1.109h0A.382.382,0,0,0,3878.988,4505.771Z" transform="translate(-523.038 -4093.952)" fill="#fff"/><path d="M3884.417,4509.252l0,.006a14.336,14.336,0,0,1-.079,1.639c-.008.033-.015.067-.021.1-.006.139-.013.277-.02.416,0,.066-.007.133-.011.2a5.021,5.021,0,0,1-.006.549,15.169,15.169,0,0,0-.09,1.743c.013.454-.075.9-.106,1.345,0,.159-.006.317-.006.476h0c.1-.105.054-.236.061-.356.017-.3-.086-.619.242-.838.111-.075.025-.187-.055-.283a.759.759,0,0,1,.077-.937.274.274,0,0,0,.054-.4.755.755,0,0,1,.056-1.035c.056-.076.1-.154.035-.236a.826.826,0,0,1,.007-1.126.194.194,0,0,0,.023-.176c-.238-.349-.1-.743-.146-1.114h0Z" transform="translate(-527.919 -4103.12)" fill="#fff"/><path d="M4337.178,4460.317a.274.274,0,0,0-.033.18c.108.411-.114.792-.1,1.194.1-.234.043-.534.322-.7.09-.054.013-.174-.069-.249-.158-.143-.178-.27.025-.409.154-.1.246-.269.068-.43a.515.515,0,0,1-.1-.114A1.407,1.407,0,0,1,4337.178,4460.317Z" transform="translate(-947.077 -4057.37)" fill="#fff"/><path d="M4340.445,4433.657c-.01.132-.007.269-.008.406a.515.515,0,0,1,.131-.122c.048-.033.117-.125.106-.14a.934.934,0,0,1-.042-.935,2.82,2.82,0,0,0-.088-.655h0A13.463,13.463,0,0,1,4340.445,4433.657Z" transform="translate(-950.218 -4031.851)" fill="#fff"/><path d="M4332.8,4428.836a2.877,2.877,0,0,1,.139-1.177.2.2,0,0,0,.019-.145c-.109-.411.114-.792.1-1.193-.1.235-.043.534-.322.7-.089.054-.012.175.07.249.157.144.184.279-.028.407-.129.078-.221.259-.129.343.259.24.065.4.027.643a3.623,3.623,0,0,1-.068.964,3.066,3.066,0,0,0,.09.652h0A11.058,11.058,0,0,1,4332.8,4428.836Z" transform="translate(-942.967 -4026.401)" fill="#fff"/><path d="M4003.059,4544.232a.088.088,0,0,0,0,.037c.114.583-.169,1.161-.02,1.743-.282.445,0,.966-.192,1.431a.366.366,0,0,0-.017.053c0,.069-.009.138-.013.207a.93.93,0,0,1-.028.427c.023-.027.062-.053.068-.084.049-.29-.074-.626.271-.832.09-.054.006-.167-.059-.254-.167-.222-.239-.441.045-.653a.254.254,0,0,0,.045-.415.426.426,0,0,1,.011-.675.208.208,0,0,0,.053-.27c-.2-.239-.1-.521-.139-.779h0C4003.075,4544.188,4003.067,4544.21,4003.059,4544.232Z" transform="translate(-637.77 -4135.451)" fill="#fff"/><path d="M3999.312,4545.418q.008-.185.018-.372a.66.66,0,0,1-.149.167.208.208,0,0,0-.027.346.648.648,0,0,1,.132.214C3999.3,4545.655,3999.307,4545.536,3999.312,4545.418Z" transform="translate(-634.333 -4136.264)" fill="#fff"/><path d="M4000.106,4529.458a.5.5,0,0,1-.23.349.2.2,0,0,0,.011.3.67.67,0,0,1,.146.2C4000.051,4530.022,4000.074,4529.739,4000.106,4529.458Z" transform="translate(-635.018 -4121.84)" fill="#fff"/><path d="M4003.952,4522.321c-.018.032-.049.063-.052.1-.009.115,0,.233-.01.347.018-.148.039-.3.063-.442Z" transform="translate(-638.79 -4115.235)" fill="#fff"/><path d="M3999.177,4561.067a.583.583,0,0,0,0-.238,3.591,3.591,0,0,1,0-.866.758.758,0,0,1-.1.144c-.054.06-.1.137-.05.2.221.247.067.547.128.814h0C3999.166,4561.1,3999.172,4561.084,3999.177,4561.067Z" transform="translate(-634.27 -4150.069)" fill="#fff"/><path d="M4005.139,4458.832c-.069-.554.145-1.1.056-1.665a4.243,4.243,0,0,1,.137-.851h0c-.1.23-.047.536-.329.681a.109.109,0,0,0-.029.1.782.782,0,0,1,.009,1.069c.228.251.09.564.142.846h0C4005.13,4458.952,4005.134,4458.892,4005.139,4458.832Z" transform="translate(-639.789 -4054.156)" fill="#fff"/><path d="M3818.963,5053.952a.506.506,0,0,1-.091.418h0c.33-.076.4-.225.194-.455a.527.527,0,0,1-.116-.407q0-1.22-.006-2.44h0A19.664,19.664,0,0,0,3818.963,5053.952Z" transform="translate(-467.582 -4604.519)" fill="#fff"/><path d="M3826.963,4689.6a.5.5,0,0,1-.091.416h0c.284.009.408-.212.259-.371a.948.948,0,0,1-.18-.759c-.01-.706-.006-1.413-.008-2.12A18.992,18.992,0,0,0,3826.963,4689.6Z" transform="translate(-474.985 -4267.408)" fill="#fff"/><path d="M3821.975,4917.642a.5.5,0,0,1-.09.417h0c.284.008.407-.213.258-.372a.947.947,0,0,1-.179-.758c-.011-.705-.007-1.411-.01-2.117A19.144,19.144,0,0,0,3821.975,4917.642Z" transform="translate(-470.37 -4478.432)" fill="#fff"/><path d="M3823.953,4825.947a.5.5,0,0,1-.092.418h0c.2-.053.4-.159.237-.372a.946.946,0,0,1-.158-.661c0-.756,0-1.512-.006-2.269h0A19.671,19.671,0,0,0,3823.953,4825.947Z" transform="translate(-472.198 -4393.531)" fill="#fff"/><path d="M3829.978,4552.67a.485.485,0,0,1-.08.385h0c.237-.087.448-.187.155-.451-.113-.1-.077-.228-.078-.346-.005-.816-.006-1.633-.008-2.449A21.778,21.778,0,0,0,3829.978,4552.67Z" transform="translate(-477.785 -4140.671)" fill="#fff"/><path d="M4338.139,4402.97c0-.11.014-.2.148-.2.111-.006.143.062.165.155.024.108.088.229.03.323a2.088,2.088,0,0,0-.14.749c.148-.143-.011-.36.136-.516a.452.452,0,0,0-.05-.708.419.419,0,0,0-.38-.069.121.121,0,0,0-.06.186c.2.2.091.445.122.668h0A1.591,1.591,0,0,0,4338.139,4402.97Z" transform="translate(-947.929 -4004.522)" fill="#fff"/><path d="M3886.9,4471.483a.12.12,0,0,0,.01-.023l-.04-.012-.04,0a.132.132,0,0,1-.045.052h0q.007.241.013.481h0c.064-.117.02-.245.037-.366.01-.069.04-.119.114-.116a.114.114,0,0,1,.117.119,9.043,9.043,0,0,1-.058,1.241h0l0,0h0v0c.206-.029.3-.114.141-.308-.072-.086-.041-.185-.063-.276-.1-.429.246-.625.449-.9h0A.912.912,0,0,1,3886.9,4471.483Z" transform="translate(-530.423 -4068.097)" fill="#fff"/><path d="M3793.617,4458.417a.57.57,0,0,1,.439.129c.212.209.4.116.474-.2a.329.329,0,0,1-.273.1c-.775-.149-1.561,0-2.338-.088h0A9.351,9.351,0,0,0,3793.617,4458.417Z" transform="translate(-442.641 -4056.035)" fill="#fff"/><path d="M3900.726,4447.817c.3-.085.621-.106.79-.424a2.738,2.738,0,0,1-1.16.216C3900.487,4447.652,3900.541,4447.87,3900.726,4447.817Z" transform="translate(-542.984 -4045.9)" fill="#fff"/><path d="M3877.727,4451.82c.3-.085.62-.107.79-.424h0a2.742,2.742,0,0,1-1.159.216C3877.488,4451.655,3877.542,4451.873,3877.727,4451.82Z" transform="translate(-521.702 -4049.604)" fill="#fff"/><path d="M4262.725,4384.817c.3-.085.621-.106.79-.424a2.73,2.73,0,0,1-1.16.216C4262.486,4384.652,4262.54,4384.87,4262.725,4384.817Z" transform="translate(-877.964 -3987.602)" fill="#fff"/><path d="M4283.164,4465.365c-.041.259-.089.518-.115.78h0c.131-.2-.021-.5.26-.647.044-.022.013-.114-.034-.162-.146-.147-.085-.251.059-.357.112-.082.233-.216.083-.33-.2-.152-.14-.347-.16-.532A10.945,10.945,0,0,1,4283.164,4465.365Z" transform="translate(-897.114 -4061.376)" fill="#fff"/><path d="M4239.732,4388.82c.3-.085.62-.107.79-.424h0a2.742,2.742,0,0,1-1.159.216C4239.494,4388.655,4239.548,4388.873,4239.732,4388.82Z" transform="translate(-856.688 -3991.306)" fill="#fff"/><path d="M4276.209,4469.1c.041-.26.089-.519.114-.781h0c-.13.2.021.5-.26.647-.043.022-.013.114.035.162.146.147.084.251-.06.356-.112.083-.232.217-.083.33.2.152.14.347.16.532A10.937,10.937,0,0,1,4276.209,4469.1Z" transform="translate(-890.484 -4065.264)" fill="#fff"/><path d="M3825.073,4780.73a.471.471,0,0,1-.056.351h0c.166-.027.277-.126.171-.278a.97.97,0,0,1-.1-.61c-.007-.758-.007-1.517-.01-2.275A26.97,26.97,0,0,0,3825.073,4780.73Z" transform="translate(-473.268 -4351.754)" fill="#fff"/><path d="M3823.1,4871.828a.477.477,0,0,1-.054.351c.166-.028.274-.126.168-.278a.915.915,0,0,1-.1-.571c-.005-.769-.006-1.537-.008-2.306h0A26.1,26.1,0,0,0,3823.1,4871.828Z" transform="translate(-471.441 -4436.061)" fill="#fff"/><path d="M3820.086,5008.786a.476.476,0,0,1-.055.351c.166-.027.276-.126.169-.278a.965.965,0,0,1-.1-.609c-.007-.757-.007-1.515-.009-2.272h0A26.677,26.677,0,0,0,3820.086,5008.786Z" transform="translate(-468.655 -4562.792)" fill="#fff"/><path d="M3828.086,4643.786a.475.475,0,0,1-.055.35c.166-.027.275-.126.169-.278a.964.964,0,0,1-.1-.609c-.007-.757-.006-1.515-.009-2.272A26.555,26.555,0,0,0,3828.086,4643.786Z" transform="translate(-476.058 -4225.035)" fill="#fff"/><path d="M4216.236,4392.4a3.027,3.027,0,0,1-1.263.219h0C4215.436,4392.784,4215.891,4392.91,4216.236,4392.4Z" transform="translate(-834.119 -3995.01)" fill="#fff"/><path d="M4055.663,4420.411a2.855,2.855,0,0,1-1.228.207C4054.875,4420.728,4055.338,4420.98,4055.663,4420.411Z" transform="translate(-685.563 -4020.932)" fill="#fff"/><path d="M4032.712,4424.418h0a2.853,2.853,0,0,1-1.224.206h0C4031.928,4424.743,4032.387,4424.979,4032.712,4424.418Z" transform="translate(-664.329 -4024.64)" fill="#fff"/><path d="M4078.635,4416.411a2.845,2.845,0,0,1-1.23.207C4077.844,4416.724,4078.309,4416.983,4078.635,4416.411Z" transform="translate(-706.818 -4017.23)" fill="#fff"/><path d="M4169.161,4400.628a.761.761,0,0,0,1.08-.229,3.259,3.259,0,0,1-1.262.22h0A.5.5,0,0,1,4169.161,4400.628Z" transform="translate(-791.558 -4002.414)" fill="#fff"/><path d="M4192.155,4396.628a.761.761,0,0,0,1.081-.229,3.234,3.234,0,0,1-1.263.219h0A.509.509,0,0,1,4192.155,4396.628Z" transform="translate(-812.836 -3998.712)" fill="#fff"/><path d="M4147.6,4404.4a2.858,2.858,0,0,1-1.233.208C4146.812,4404.736,4147.267,4404.927,4147.6,4404.4Z" transform="translate(-770.634 -4006.119)" fill="#fff"/><path d="M4101.621,4412.411a2.857,2.857,0,0,1-1.231.207h0C4100.833,4412.744,4101.286,4412.933,4101.621,4412.411Z" transform="translate(-728.087 -4013.529)" fill="#fff"/><path d="M4124.622,4408.411a2.856,2.856,0,0,1-1.231.207h0C4123.833,4408.744,4124.287,4408.933,4124.622,4408.411Z" transform="translate(-749.371 -4009.828)" fill="#fff"/><path d="M3994.067,4591.32h0c-.2.261-.537.451-.441.856,0,.009,0,.017.005.026A1.471,1.471,0,0,0,3994.067,4591.32Z" transform="translate(-629.277 -4179.084)" fill="#fff"/><path d="M3826.1,4734.2a5.917,5.917,0,0,1-.023.853c.081-.081.062-.184.062-.282q0-1.362-.006-2.722C3826.058,4732.76,3826.118,4733.479,3826.1,4734.2Z" transform="translate(-474.246 -4309.305)" fill="#fff"/><path d="M3829.1,4597.2a6.054,6.054,0,0,1-.023.852c.081-.081.061-.184.061-.282q0-1.361-.005-2.721C3829.057,4595.769,3829.118,4596.487,3829.1,4597.2Z" transform="translate(-477.023 -4182.539)" fill="#fff"/><path d="M3821.1,4962.2a5.917,5.917,0,0,1-.023.853c.081-.081.062-.184.062-.282q0-1.36-.005-2.721C3821.057,4960.769,3821.118,4961.487,3821.1,4962.2Z" transform="translate(-469.619 -4520.296)" fill="#fff"/><path d="M3831.1,4506.176a5.85,5.85,0,0,1-.023.853c.081-.081.062-.185.062-.282q0-1.362-.006-2.723h0C3831.058,4504.739,3831.118,4505.458,3831.1,4506.176Z" transform="translate(-478.873 -4098.303)" fill="#fff"/><path d="M3859.413,4640.339a6.967,6.967,0,0,1-1.39-.078h0c.233.22.518.053.774.1.15.028.324-.055.439.122a.181.181,0,0,0,.288.044.209.209,0,0,0,.055-.32h0C3859.539,4640.273,3859.48,4640.347,3859.413,4640.339Z" transform="translate(-503.811 -4224.324)" fill="#fff"/><path d="M4283.729,4412.512a3.6,3.6,0,0,1,.109-1.195c-.062.388-.584.718-.146,1.173.031.032.006.118.008.179h0C4283.709,4412.617,4283.719,4412.564,4283.729,4412.512Z" transform="translate(-897.548 -4012.517)" fill="#fff"/><path d="M4285.951,4429.438Z" transform="translate(-899.799 -4029.286)" fill="#fff"/><path d="M4274.845,4496.467c-.067.383-.577.709-.144,1.159a.04.04,0,0,1,.007.011A6.462,6.462,0,0,1,4274.845,4496.467Z" transform="translate(-889.229 -4091.311)" fill="#fff"/><path d="M4285.783,4430.318Z" transform="translate(-899.643 -4030.1)" fill="#fff"/><path d="M4281.845,4430.319c-.056.387-.583.715-.145,1.168.031.032.005.118.006.179.009-.046.017-.093.025-.139A3.879,3.879,0,0,1,4281.845,4430.319Z" transform="translate(-895.706 -4030.1)" fill="#fff"/><path d="M4288.141,4426.38a3.892,3.892,0,0,1-.113,1.21c.055-.388.583-.716.145-1.168-.031-.032-.006-.118-.006-.179h0C4288.157,4426.289,4288.149,4426.334,4288.141,4426.38Z" transform="translate(-901.721 -4026.329)" fill="#fff"/><path d="M4289.881,4426.243Z" transform="translate(-903.436 -4026.328)" fill="#fff"/><path d="M4286.123,4445.353a3.666,3.666,0,0,1-.11,1.191c.058-.388.585-.717.145-1.171-.03-.032-.006-.119-.007-.179h0C4286.142,4445.246,4286.132,4445.3,4286.123,4445.353Z" transform="translate(-899.857 -4043.864)" fill="#fff"/><path d="M4287.864,4445.193Z" transform="translate(-901.569 -4043.864)" fill="#fff"/><path d="M4279.249,4449.32c-.1.195-.05.462-.3.59a.137.137,0,0,0-.005.226c.211.135.165.336.169.527A9.125,9.125,0,0,1,4279.249,4449.32Z" transform="translate(-893.26 -4047.683)" fill="#fff"/><path d="M4328.194,4492.584c-.2-.431.083-.84.06-1.264-.106.229-.025.541-.32.689a.124.124,0,0,0,.008.194c.163.083.142.272.251.379h0Z" transform="translate(-938.608 -4086.549)" fill="#fff"/><path d="M4331.965,4508.281Z" transform="translate(-942.378 -4102.244)" fill="#fff"/><path d="M4331.954,4508.251v0h0A.005.005,0,0,1,4331.954,4508.251Z" transform="translate(-942.368 -4102.214)" fill="#fff"/><path d="M4279.846,4511.655a.414.414,0,0,1-.123.555.354.354,0,0,0,.218-.618.465.465,0,0,1-.132-.352A.455.455,0,0,0,4279.846,4511.655Z" transform="translate(-894.036 -4104.982)" fill="#fff"/><path d="M4330.719,4373.471c.015-.019.033-.035.05-.053h0a1.6,1.6,0,0,1-.816.143h0C4330.468,4373.929,4330.435,4373.8,4330.719,4373.471Z" transform="translate(-940.516 -3977.446)" fill="#fff"/><path d="M3968.718,4436.472c.016-.018.033-.035.05-.053h0a1.6,1.6,0,0,1-.816.143h0C3968.467,4436.93,3968.434,4436.8,3968.718,4436.472Z" transform="translate(-605.535 -4035.745)" fill="#fff"/><path d="M4353.715,4369.471c.016-.018.034-.035.051-.053h0a1.6,1.6,0,0,1-.816.143C4353.466,4369.93,4353.433,4369.8,4353.715,4369.471Z" transform="translate(-961.797 -3973.745)" fill="#fff"/><path d="M3991.715,4432.472c.016-.018.034-.035.05-.053h0a1.6,1.6,0,0,1-.816.143C3991.466,4432.931,3991.433,4432.8,3991.715,4432.472Z" transform="translate(-626.816 -4032.044)" fill="#fff"/><path d="M3855.009,4455.722c.065.091.181.022.253-.054s.162-.179.242-.269h0a1.4,1.4,0,0,1-.878.1l-.282.033C3854.576,4455.558,3854.829,4455.473,3855.009,4455.722Z" transform="translate(-500.407 -4053.308)" fill="#fff"/><path d="M4014.715,4428.472c.016-.019.034-.035.05-.053h0a1.6,1.6,0,0,1-.816.143C4014.466,4428.931,4014.433,4428.8,4014.715,4428.472Z" transform="translate(-648.099 -4028.342)" fill="#fff"/><path d="M3966.725,4450.611c-.4-.434-.417-.434-.764-.012-.015.018-.032.036-.048.053h0C3966.18,4450.56,3966.442,4450.387,3966.725,4450.611Z" transform="translate(-603.648 -4048.575)" fill="#fff"/><path d="M4307.774,4377.426h0a1.734,1.734,0,0,1-.816.143C4307.289,4377.86,4307.562,4377.818,4307.774,4377.426Z" transform="translate(-919.238 -3981.155)" fill="#fff"/><path d="M3945.769,4440.426h0a1.741,1.741,0,0,1-.816.142C3945.284,4440.859,3945.557,4440.819,3945.769,4440.426Z" transform="translate(-584.252 -4039.453)" fill="#fff"/><path d="M3922.775,4444.427h0a1.741,1.741,0,0,1-.816.142h0C3922.29,4444.861,3922.563,4444.819,3922.775,4444.427Z" transform="translate(-562.975 -4043.155)" fill="#fff"/><path d="M4281.039,4493.63c.112-.193.032-.466.269-.615.051-.032.043-.176-.024-.239-.152-.143-.09-.322-.105-.489A8.433,8.433,0,0,1,4281.039,4493.63Z" transform="translate(-895.254 -4087.443)" fill="#fff"/><path d="M3897.5,4469.527c.461.412.468.229.726-.078.016-.019.033-.035.05-.053A1.32,1.32,0,0,1,3897.5,4469.527Z" transform="translate(-540.342 -4066.261)" fill="#fff"/><path d="M3958.426,4458.512h0c.465.392.431.268.758-.1l.023-.029h0A1.292,1.292,0,0,1,3958.426,4458.512Z" transform="translate(-596.72 -4056.068)" fill="#fff"/><path d="M3894.693,4463.5c-.473-.4-.458-.243-.731.077-.016.019-.033.036-.049.054h0A1.3,1.3,0,0,1,3894.693,4463.5Z" transform="translate(-537.022 -4060.588)" fill="#fff"/><path d="M3935.952,4462.5h0c.056.021.13.027.167.066.2.215.354.177.5-.055a1.07,1.07,0,0,1,.152-.159h0A1.592,1.592,0,0,1,3935.952,4462.5Z" transform="translate(-575.923 -4059.742)" fill="#fff"/><path d="M3969.5,4455.527h0c.041.026.1.043.121.08a.252.252,0,0,0,.4.088c.152-.106.136-.242.037-.379C3969.975,4455.656,3969.7,4455.5,3969.5,4455.527Z" transform="translate(-606.967 -4053.232)" fill="#fff"/><path d="M3883.189,4465.589a.17.17,0,0,1,.033.027l.072-.044a.175.175,0,0,1,0-.042c.124-.115.27,0,.4-.041h0c-.461-.412-.468-.229-.726.077-.016.019-.033.036-.05.054A.4.4,0,0,1,3883.189,4465.589Z" transform="translate(-526.844 -4062.424)" fill="#fff"/><path d="M3844.706,4472.7c-.057-.021-.13-.027-.167-.066-.2-.215-.354-.177-.5.055a1.085,1.085,0,0,1-.152.159A1.6,1.6,0,0,1,3844.706,4472.7Z" transform="translate(-490.73 -4069.121)" fill="#fff"/><path d="M3863.953,4475.5c.072,0,.156-.012.2.056.163.253.3.169.448-.019.051-.066.113-.124.169-.185A1.912,1.912,0,0,1,3863.953,4475.5Z" transform="translate(-509.298 -4071.774)" fill="#fff"/><path d="M3946.965,4460.516h0c.072,0,.156-.012.2.056.163.252.3.169.447-.018.051-.065.112-.124.168-.185h0A1.883,1.883,0,0,1,3946.965,4460.516Z" transform="translate(-586.115 -4057.908)" fill="#fff"/><path d="M3905.728,4461.619c-.072,0-.156.013-.2-.056-.163-.252-.3-.169-.447.017-.051.066-.112.124-.168.185h0A1.905,1.905,0,0,1,3905.728,4461.619Z" transform="translate(-547.2 -4058.866)" fill="#fff"/><path d="M3916.7,4459.62h0c-.072,0-.157.012-.2-.057-.164-.254-.3-.169-.449.019-.051.066-.112.124-.169.186h0A1.9,1.9,0,0,1,3916.7,4459.62Z" transform="translate(-557.355 -4057.015)" fill="#fff"/><path d="M4284.159,4381.625c.187.28.325.147.465-.045a1.476,1.476,0,0,1,.15-.152h0a2.015,2.015,0,0,1-.815.142C4284.031,4381.569,4284.114,4381.557,4284.159,4381.625Z" transform="translate(-897.956 -3984.857)" fill="#fff"/><path d="M3874.972,4473.519h0c.072,0,.156-.012.2.057.163.252.3.168.447-.018.051-.066.112-.124.168-.186A1.9,1.9,0,0,1,3874.972,4473.519Z" transform="translate(-519.495 -4069.94)" fill="#fff"/><path d="M3955.69,4452.677h0c-.045-.015-.11-.016-.132-.047-.183-.261-.339-.211-.495.027a1.079,1.079,0,0,1-.149.153A1.6,1.6,0,0,1,3955.69,4452.677Z" transform="translate(-593.471 -4050.584)" fill="#fff"/><path d="M3877.158,4604.681c-.007-.113-.026-.213.06-.3v0c-.139.009-.281.084-.2.218.23.369.056.764.124,1.139h0A4.344,4.344,0,0,0,3877.158,4604.681Z" transform="translate(-521.366 -4191.167)" fill="#fff"/><path d="M3888.86,4491.177a4.286,4.286,0,0,0-.017,1.037c.006.115.031.219-.06.308v0h0c.138-.009.28-.083.2-.215-.223-.366-.062-.756-.124-1.128v0Z" transform="translate(-532.275 -4086.416)" fill="#fff"/><path d="M3878.148,4587.723a4.3,4.3,0,0,0,.016-1.036c-.006-.115-.031-.219.06-.309h0c-.139.009-.28.083-.2.215.224.366.062.756.125,1.128v0Z" transform="translate(-522.296 -4174.51)" fill="#fff"/><path d="M3830.374,4457.474h0c-.576.074-1.159-.033-1.735.056A9,9,0,0,0,3830.374,4457.474Z" transform="translate(-476.62 -4055.229)" fill="#fff"/><path d="M4006.791,4530.668c.01.112.03.213-.063.3l0,0h0c.143,0,.29-.083.2-.208-.2-.278-.07-.575-.125-.856A2.462,2.462,0,0,0,4006.791,4530.668Z" transform="translate(-641.415 -4122.252)" fill="#fff"/><path d="M4004.154,4492.739c-.01-.114-.032-.217.068-.3h0l0,0,0,0h0c-.143,0-.29.083-.2.208.2.278.07.575.125.856h0A2.469,2.469,0,0,0,4004.154,4492.739Z" transform="translate(-638.882 -4087.584)" fill="#fff"/><path d="M3998.154,4575.737c-.01-.112-.03-.213.063-.3l0,0h0c-.142,0-.29.084-.2.209.2.277.07.575.124.855h0A2.454,2.454,0,0,0,3998.154,4575.737Z" transform="translate(-633.33 -4164.387)" fill="#fff"/><path d="M3861.683,4471.142a.549.549,0,0,0-.767.133A2.631,2.631,0,0,1,3861.683,4471.142Z" transform="translate(-506.488 -4067.782)" fill="#fff"/><path d="M3847.612,4478.553a.549.549,0,0,0,.767-.133h0A2.644,2.644,0,0,1,3847.612,4478.553Z" transform="translate(-494.177 -4074.611)" fill="#fff"/><path d="M3858.793,4637.17a2.332,2.332,0,0,0,.614-.04c-.306,0-.614-.012-.919,0-.158.008-.348-.091-.471.1C3858.265,4637.095,3858.535,4637.2,3858.793,4637.17Z" transform="translate(-503.804 -4221.463)" fill="#fff"/><path d="M3944.686,4456.144a.55.55,0,0,0-.77.133h0A2.581,2.581,0,0,1,3944.686,4456.144Z" transform="translate(-583.293 -4053.902)" fill="#fff"/><path d="M3919.615,4465.547h0a.548.548,0,0,0,.767-.133h0A2.625,2.625,0,0,1,3919.615,4465.547Z" transform="translate(-560.806 -4062.576)" fill="#fff"/><path d="M3933.684,4458.137a.548.548,0,0,0-.767.133h0A2.625,2.625,0,0,1,3933.684,4458.137Z" transform="translate(-573.115 -4055.747)" fill="#fff"/><path d="M3908.552,4467.541h0a.552.552,0,0,0,.772-.133h0A2.613,2.613,0,0,1,3908.552,4467.541Z" transform="translate(-550.568 -4064.42)" fill="#fff"/><path d="M3872.688,4469.145h0a.551.551,0,0,0-.772.133A2.593,2.593,0,0,1,3872.688,4469.145Z" transform="translate(-516.667 -4065.933)" fill="#fff"/><path d="M3882.073,4617.336h0a4.632,4.632,0,0,0,.058-1.206C3882.041,4616.529,3882.145,4616.937,3882.073,4617.336Z" transform="translate(-526.066 -4202.042)" fill="#fff"/><path d="M3885.846,4481.32h0a4.059,4.059,0,0,0-.056,1.161C3885.874,4482.1,3885.777,4481.7,3885.846,4481.32Z" transform="translate(-529.491 -4077.295)" fill="#fff"/><path d="M3883.075,4599.9h0a4.048,4.048,0,0,0,.056-1.16C3883.048,4599.125,3883.144,4599.518,3883.075,4599.9Z" transform="translate(-526.993 -4185.953)" fill="#fff"/><path d="M3877.871,4624.32h0c-.132.282-.03.581-.062.869C3877.909,4624.905,3877.795,4624.605,3877.871,4624.32Z" transform="translate(-522.112 -4209.622)" fill="#fff"/><path d="M4004.862,4508.321h0a2.519,2.519,0,0,0-.056.918h0C4004.89,4508.937,4004.79,4508.624,4004.862,4508.321Z" transform="translate(-639.624 -4102.28)" fill="#fff"/><path d="M4008.06,4516.886h0a2.516,2.516,0,0,0,.055-.92h0C4008.033,4516.269,4008.132,4516.583,4008.06,4516.886Z" transform="translate(-642.649 -4109.354)" fill="#fff"/><path d="M4338.884,4415.32c-.132.238-.036.5-.065.745h0C4338.916,4415.823,4338.806,4415.563,4338.884,4415.32Z" transform="translate(-948.715 -4016.221)" fill="#fff"/><path d="M4342.029,4422.058c.132-.238.036-.5.065-.745h0C4342,4421.555,4342.107,4421.814,4342.029,4422.058Z" transform="translate(-951.691 -4021.767)" fill="#fff"/><path d="M4336.027,4487.058h0c.133-.238.036-.5.066-.745h0C4336,4486.555,4336.105,4486.814,4336.027,4487.058Z" transform="translate(-946.137 -4081.915)" fill="#fff"/><path d="M4332.89,4480.32c-.128.229-.041.474-.057.712C4332.91,4480.8,4332.819,4480.553,4332.89,4480.32Z" transform="translate(-943.169 -4076.369)" fill="#fff"/><path d="M4209.974,4415.428h0c.148-.026.313.055.444-.073h0C4210.279,4415.442,4210.108,4415.327,4209.974,4415.428Z" transform="translate(-829.492 -4016.253)" fill="#fff"/><path d="M4021.333,4443.251c-.148.026-.314-.056-.445.073C4021.026,4443.237,4021.2,4443.352,4021.333,4443.251Z" transform="translate(-654.52 -4042.066)" fill="#fff"/><path d="M4215.974,4414.42h0c.147-.026.313.056.444-.074C4216.28,4414.434,4216.108,4414.319,4215.974,4414.42Z" transform="translate(-835.044 -4015.32)" fill="#fff"/><path d="M4045.329,4439.252h0c-.147.026-.313-.055-.444.073h0C4045.023,4439.239,4045.194,4439.353,4045.329,4439.252Z" transform="translate(-676.726 -4038.366)" fill="#fff"/><path d="M4344.334,4389.252c-.148.026-.314-.056-.445.073C4344.027,4389.237,4344.2,4389.352,4344.334,4389.252Z" transform="translate(-953.413 -3992.097)" fill="#fff"/><path d="M4338.333,4390.252c-.148.026-.313-.056-.444.073C4338.027,4390.238,4338.2,4390.352,4338.333,4390.252Z" transform="translate(-947.861 -3993.022)" fill="#fff"/><path d="M4203.973,4416.428h0c.147-.026.313.055.444-.073h0C4204.279,4416.442,4204.108,4416.327,4203.973,4416.428Z" transform="translate(-823.94 -4017.179)" fill="#fff"/><path d="M4033.332,4441.251h0c-.147.026-.313-.055-.443.074C4033.025,4441.237,4033.2,4441.353,4033.332,4441.251Z" transform="translate(-665.624 -4040.216)" fill="#fff"/><path d="M4233.958,4411.414c.148-.026.314.056.444-.074C4234.265,4411.429,4234.094,4411.313,4233.958,4411.414Z" transform="translate(-851.687 -4012.538)" fill="#fff"/><path d="M4350.333,4388.252h0c-.147.027-.313-.055-.444.074C4350.026,4388.237,4350.2,4388.353,4350.333,4388.252Z" transform="translate(-958.965 -3991.171)" fill="#fff"/><path d="M3832.394,4478.259h0c-.159.008-.326-.06-.473.053h0C3832.074,4478.254,3832.241,4478.326,3832.394,4478.259Z" transform="translate(-479.657 -4074.45)" fill="#fff"/><path d="M4027.333,4442.251c-.148.026-.314-.056-.445.074C4027.026,4442.237,4027.2,4442.352,4027.333,4442.251Z" transform="translate(-660.072 -4041.14)" fill="#fff"/><path d="M4227.958,4412.42c.148-.026.314.055.445-.074C4228.265,4412.434,4228.094,4412.319,4227.958,4412.42Z" transform="translate(-846.135 -4013.469)" fill="#fff"/><path d="M4221.958,4413.42c.148-.026.314.055.445-.074C4222.265,4413.434,4222.094,4413.319,4221.958,4413.42Z" transform="translate(-840.582 -4014.394)" fill="#fff"/><path d="M4039.329,4440.252h0c-.148.026-.313-.054-.444.074h0C4039.023,4440.239,4039.193,4440.354,4039.329,4440.252Z" transform="translate(-671.174 -4039.291)" fill="#fff"/><path d="M3893.97,4450.349c-.125.075-.273-.005-.4.063C3893.707,4450.405,3893.853,4450.469,3893.97,4450.349Z" transform="translate(-536.706 -4048.635)" fill="#fff"/><path d="M3870.983,4454.349c-.124.075-.273-.005-.4.063C3870.72,4454.405,3870.866,4454.469,3870.983,4454.349Z" transform="translate(-515.435 -4052.337)" fill="#fff"/><path d="M4066.725,4439.486c.13-.01.271.051.385-.061h0C4066.989,4439.492,4066.845,4439.411,4066.725,4439.486Z" transform="translate(-696.936 -4038.527)" fill="#fff"/><path d="M3927.279,4461.278c-.132.009-.277-.054-.39.065C3927.01,4461.266,3927.158,4461.353,3927.279,4461.278Z" transform="translate(-567.537 -4058.74)" fill="#fff"/><path d="M3930.649,4464.407c.133-.008.278.055.393-.065C3930.92,4464.419,3930.771,4464.334,3930.649,4464.407Z" transform="translate(-571.016 -4061.584)" fill="#fff"/><path d="M3957.1,4439.39h0c-.12.072-.267-.013-.386.063h0C3956.849,4439.443,3956.991,4439.5,3957.1,4439.39Z" transform="translate(-595.139 -4038.494)" fill="#fff"/><path d="M3934.107,4443.393h0c-.121.072-.267-.014-.386.063C3933.851,4443.445,3933.994,4443.508,3934.107,4443.393Z" transform="translate(-573.859 -4042.199)" fill="#fff"/><path d="M4072.725,4438.486c.13-.01.271.051.385-.061h0C4072.989,4438.492,4072.845,4438.411,4072.725,4438.486Z" transform="translate(-702.488 -4037.602)" fill="#fff"/><path d="M4051.3,4438.279c-.14.007-.291-.059-.413.062h0C4051.015,4438.271,4051.167,4438.341,4051.3,4438.279Z" transform="translate(-682.278 -4037.456)" fill="#fff"/><path d="M3962.934,4438.342h0c-.125.075-.275,0-.4.063C3962.668,4438.4,3962.815,4438.463,3962.934,4438.342Z" transform="translate(-600.519 -4037.524)" fill="#fff"/><path d="M4370.892,4367.34c-.126.074-.276,0-.4.063h0C4370.624,4367.4,4370.772,4367.461,4370.892,4367.34Z" transform="translate(-978.025 -3971.822)" fill="#fff"/><path d="M4365.073,4368.384h0c-.121.072-.268-.011-.389.063C4364.815,4368.437,4364.958,4368.5,4365.073,4368.384Z" transform="translate(-972.656 -3972.788)" fill="#fff"/><path d="M4078.725,4437.479c.13-.01.271.05.385-.062h0C4078.99,4437.486,4078.845,4437.4,4078.725,4437.479Z" transform="translate(-708.04 -4036.669)" fill="#fff"/><path d="M3855.283,4474.278h0c-.134.009-.279-.055-.394.065C3855.012,4474.266,3855.16,4474.351,3855.283,4474.278Z" transform="translate(-500.911 -4070.77)" fill="#fff"/><path d="M4347.893,4371.34c-.127.074-.276,0-.4.063C4347.625,4371.4,4347.773,4371.461,4347.893,4371.34Z" transform="translate(-956.743 -3975.523)" fill="#fff"/><path d="M4347.488,4372.179Z" transform="translate(-956.743 -3976.3)" fill="#fff"/><path d="M3839.284,4477.271c-.123.02-.262-.044-.368.069C3839.028,4477.266,3839.175,4477.365,3839.284,4477.271Z" transform="translate(-486.13 -4073.548)" fill="#fff"/><path d="M3858.681,4477.407c.132-.01.277.054.391-.066h0C3858.951,4477.419,3858.8,4477.332,3858.681,4477.407Z" transform="translate(-504.42 -4073.613)" fill="#fff"/><path d="M4342.074,4372.384h0c-.122.072-.268-.011-.389.063h0C4341.816,4372.437,4341.959,4372.5,4342.074,4372.384Z" transform="translate(-951.373 -3976.489)" fill="#fff"/><path d="M4324.936,4375.342h0c-.126.075-.275,0-.4.063C4324.669,4375.4,4324.816,4375.463,4324.936,4375.342Z" transform="translate(-935.501 -3979.227)" fill="#fff"/><path d="M3841.93,4480.474h0c.124-.018.263.044.37-.068h0C3842.186,4480.48,3842.041,4480.383,3841.93,4480.474Z" transform="translate(-488.919 -4076.449)" fill="#fff"/><path d="M4319.1,4376.39h0c-.12.072-.266-.014-.386.063h0C4318.848,4376.443,4318.99,4376.505,4319.1,4376.39Z" transform="translate(-930.12 -3980.197)" fill="#fff"/><path d="M4057.323,4437.278c-.139.007-.288-.06-.411.06C4057.042,4437.271,4057.192,4437.338,4057.323,4437.278Z" transform="translate(-687.855 -4036.529)" fill="#fff"/><path d="M4301.946,4379.346c-.125.075-.274,0-.4.063h0C4301.681,4379.4,4301.828,4379.467,4301.946,4379.346Z" transform="translate(-914.229 -3982.932)" fill="#fff"/><path d="M4084.685,4436.478h0c.131-.009.273.052.388-.061h0C4084.951,4436.485,4084.806,4436.405,4084.685,4436.478Z" transform="translate(-713.555 -4035.744)" fill="#fff"/><path d="M4296.107,4380.393c-.12.072-.267-.014-.386.063C4295.852,4380.446,4295.994,4380.508,4296.107,4380.393Z" transform="translate(-908.84 -3983.901)" fill="#fff"/><path d="M4278.947,4383.347h0c-.125.074-.274,0-.4.063h0C4278.682,4383.4,4278.829,4383.467,4278.947,4383.347Z" transform="translate(-892.947 -3986.635)" fill="#fff"/><path d="M4255.97,4387.348h0c-.125.075-.273,0-.4.063C4255.706,4387.4,4255.853,4387.468,4255.97,4387.348Z" transform="translate(-871.686 -3990.337)" fill="#fff"/><path d="M4232.982,4391.354c-.125.074-.273-.005-.4.063C4232.719,4391.41,4232.865,4391.473,4232.982,4391.354Z" transform="translate(-850.415 -3994.044)" fill="#fff"/><path d="M4209.984,4395.355h0c-.124.074-.273-.006-.4.063C4209.721,4395.411,4209.867,4395.474,4209.984,4395.355Z" transform="translate(-829.134 -3997.746)" fill="#fff"/><path d="M4063.323,4436.278c-.139.007-.289-.06-.411.061C4063.042,4436.271,4063.192,4436.338,4063.323,4436.278Z" transform="translate(-693.407 -4035.603)" fill="#fff"/><path d="M4186.984,4399.355h0c-.124.074-.273-.006-.4.063C4186.721,4399.411,4186.867,4399.474,4186.984,4399.355Z" transform="translate(-807.85 -4001.448)" fill="#fff"/><path d="M4090.685,4435.478h0c.131-.01.273.052.388-.061h0C4090.951,4435.484,4090.806,4435.405,4090.685,4435.478Z" transform="translate(-719.107 -4034.819)" fill="#fff"/><path d="M4069.319,4435.278c-.138.006-.286-.06-.407.06C4069.041,4435.27,4069.19,4435.339,4069.319,4435.278Z" transform="translate(-698.959 -4034.678)" fill="#fff"/><path d="M4164.007,4403.358c-.124.074-.272-.007-.4.063h0C4163.745,4403.414,4163.891,4403.476,4164.007,4403.358Z" transform="translate(-786.59 -4005.152)" fill="#fff"/><path d="M3980.074,4435.384h0c-.121.072-.268-.012-.388.063h0C3979.816,4435.437,3979.96,4435.5,3980.074,4435.384Z" transform="translate(-616.392 -4034.787)" fill="#fff"/><path d="M4096.685,4434.472h0c.131-.009.273.052.389-.061h0C4096.952,4434.479,4096.806,4434.4,4096.685,4434.472Z" transform="translate(-724.66 -4033.887)" fill="#fff"/><path d="M4141.036,4407.369c-.122.073-.269-.009-.392.063h0C4140.776,4407.424,4140.921,4407.487,4141.036,4407.369Z" transform="translate(-765.337 -4008.864)" fill="#fff"/><path d="M4075.316,4434.278h0c-.137.006-.283-.058-.4.06h0C4075.04,4434.27,4075.188,4434.341,4075.316,4434.278Z" transform="translate(-704.513 -4033.753)" fill="#fff"/><path d="M3985.488,4435.179Z" transform="translate(-621.762 -4034.598)" fill="#fff"/><path d="M3985.893,4434.34c-.127.074-.277,0-.405.063C3985.625,4434.4,3985.773,4434.461,3985.893,4434.34Z" transform="translate(-621.762 -4033.821)" fill="#fff"/><path d="M4118.037,4411.372c-.122.073-.269-.009-.392.063C4117.777,4411.426,4117.921,4411.489,4118.037,4411.372Z" transform="translate(-744.055 -4012.568)" fill="#fff"/><path d="M4095.038,4415.373c-.122.073-.269-.009-.392.063C4094.779,4415.427,4094.923,4415.49,4095.038,4415.373Z" transform="translate(-722.773 -4016.27)" fill="#fff"/><path d="M4102.648,4433.47c.132-.008.275.053.391-.06h0C4102.916,4433.477,4102.771,4433.4,4102.648,4433.47Z" transform="translate(-730.177 -4032.961)" fill="#fff"/><path d="M4183.3,4416.275c-.13.01-.271-.05-.385.061h0C4183.038,4416.27,4183.183,4416.352,4183.3,4416.275Z" transform="translate(-804.455 -4017.098)" fill="#fff"/><path d="M4177.3,4417.275c-.131.01-.271-.05-.386.061h0C4177.038,4417.271,4177.183,4417.352,4177.3,4417.275Z" transform="translate(-798.903 -4018.023)" fill="#fff"/><path d="M4081.316,4433.278h0c-.136.006-.283-.058-.4.06h0C4081.041,4433.27,4081.188,4433.341,4081.316,4433.278Z" transform="translate(-710.065 -4032.828)" fill="#fff"/><path d="M4108.648,4432.47c.132-.008.275.053.391-.06h0C4108.916,4432.478,4108.771,4432.4,4108.648,4432.47Z" transform="translate(-735.729 -4032.035)" fill="#fff"/><path d="M4198.388,4417.417c.14-.007.291.059.413-.062h0C4198.671,4417.425,4198.52,4417.355,4198.388,4417.417Z" transform="translate(-818.772 -4018.104)" fill="#fff"/><path d="M4087.316,4432.278h0c-.137.006-.283-.058-.4.059h0C4087.041,4432.27,4087.188,4432.341,4087.316,4432.278Z" transform="translate(-715.617 -4031.902)" fill="#fff"/><path d="M4171.3,4418.276c-.13.01-.271-.051-.385.061C4171.038,4418.27,4171.183,4418.352,4171.3,4418.276Z" transform="translate(-793.351 -4018.949)" fill="#fff"/><path d="M4192.388,4418.433h0c.139-.008.289.06.411-.061C4192.669,4418.439,4192.519,4418.372,4192.388,4418.433Z" transform="translate(-813.22 -4019.045)" fill="#fff"/><path d="M4072.04,4419.375h0c-.123.072-.269-.009-.392.063C4071.78,4419.429,4071.924,4419.492,4072.04,4419.375Z" transform="translate(-701.491 -4019.973)" fill="#fff"/><path d="M4165.306,4419.276c-.131.009-.273-.052-.389.06C4165.039,4419.27,4165.185,4419.349,4165.306,4419.276Z" transform="translate(-787.799 -4019.874)" fill="#fff"/><path d="M4186.388,4419.433h0c.139-.008.289.06.411-.061C4186.669,4419.44,4186.519,4419.372,4186.388,4419.433Z" transform="translate(-807.667 -4019.97)" fill="#fff"/><path d="M4114.648,4431.47c.132-.008.275.053.391-.06h0C4114.916,4431.477,4114.771,4431.4,4114.648,4431.47Z" transform="translate(-741.282 -4031.11)" fill="#fff"/><path d="M4093.312,4431.278h0c-.135.006-.281-.057-.4.06h0C4093.039,4431.27,4093.186,4431.343,4093.312,4431.278Z" transform="translate(-721.169 -4030.977)" fill="#fff"/><path d="M4159.306,4420.276c-.132.009-.273-.052-.389.06C4159.039,4420.27,4159.184,4420.349,4159.306,4420.276Z" transform="translate(-782.247 -4020.799)" fill="#fff"/><path d="M4003.073,4431.384h0c-.122.072-.268-.012-.389.063C4002.815,4431.437,4002.958,4431.5,4003.073,4431.384Z" transform="translate(-637.675 -4031.086)" fill="#fff"/><path d="M4120.648,4430.46c.132-.008.275.053.391-.061h0C4120.916,4430.467,4120.771,4430.389,4120.648,4430.46Z" transform="translate(-746.834 -4030.174)" fill="#fff"/><path d="M4099.313,4430.278h0c-.135.006-.28-.057-.4.059C4099.04,4430.27,4099.187,4430.343,4099.313,4430.278Z" transform="translate(-726.722 -4030.052)" fill="#fff"/><path d="M4180.487,4420.432h0c.137-.006.284.058.4-.06C4180.763,4420.441,4180.615,4420.369,4180.487,4420.432Z" transform="translate(-802.206 -4020.896)" fill="#fff"/><path d="M4008.892,4430.34c-.127.074-.277,0-.405.063h0C4008.624,4430.4,4008.773,4430.461,4008.892,4430.34Z" transform="translate(-643.044 -4030.12)" fill="#fff"/><path d="M4153.3,4421.276c-.131.009-.274-.052-.389.061h0C4153.038,4421.27,4153.183,4421.35,4153.3,4421.276Z" transform="translate(-776.694 -4021.725)" fill="#fff"/><path d="M4174.488,4421.443h0c.136-.006.284.058.4-.06h0C4174.764,4421.452,4174.616,4421.381,4174.488,4421.443Z" transform="translate(-796.655 -4021.832)" fill="#fff"/><path d="M4147.308,4422.277c-.132.008-.275-.053-.392.061h0C4147.04,4422.271,4147.185,4422.348,4147.308,4422.277Z" transform="translate(-771.141 -4022.65)" fill="#fff"/><path d="M4126.587,4429.458h0c.134-.007.278.055.4-.06h0C4126.858,4429.466,4126.712,4429.391,4126.587,4429.458Z" transform="translate(-752.33 -4029.249)" fill="#fff"/><path d="M4168.488,4422.443h0c.137-.006.283.058.4-.06h0C4168.764,4422.451,4168.616,4422.381,4168.488,4422.443Z" transform="translate(-791.103 -4022.758)" fill="#fff"/><path d="M4049.069,4423.378h0c-.121.073-.268-.011-.389.063h0C4048.812,4423.432,4048.955,4423.495,4049.069,4423.378Z" transform="translate(-680.237 -4023.677)" fill="#fff"/><path d="M4105.313,4429.278h0c-.135.006-.28-.057-.4.059C4105.04,4429.27,4105.187,4429.343,4105.313,4429.278Z" transform="translate(-732.274 -4029.126)" fill="#fff"/><path d="M4141.307,4423.277c-.132.008-.275-.053-.391.06h0C4141.04,4423.271,4141.185,4423.348,4141.307,4423.277Z" transform="translate(-765.589 -4023.576)" fill="#fff"/><path d="M4162.488,4423.443h0c.136-.006.283.058.4-.06h0C4162.764,4423.451,4162.616,4423.381,4162.488,4423.443Z" transform="translate(-785.551 -4023.683)" fill="#fff"/><path d="M4135.307,4424.277c-.132.008-.275-.053-.391.06h0C4135.039,4424.271,4135.185,4424.348,4135.307,4424.277Z" transform="translate(-760.037 -4024.501)" fill="#fff"/><path d="M4132.587,4428.458h0c.134-.006.278.056.4-.059h0C4132.858,4428.466,4132.711,4428.392,4132.587,4428.458Z" transform="translate(-757.882 -4028.324)" fill="#fff"/><path d="M4111.31,4428.277h0c-.134.006-.278-.056-.4.06C4111.039,4428.269,4111.185,4428.345,4111.31,4428.277Z" transform="translate(-737.827 -4028.201)" fill="#fff"/><path d="M4156.547,4424.443h0c.135-.006.28.057.4-.06h0C4156.82,4424.453,4156.673,4424.378,4156.547,4424.443Z" transform="translate(-780.053 -4024.608)" fill="#fff"/><path d="M4129.307,4425.277c-.132.008-.276-.054-.392.061h0C4129.038,4425.269,4129.184,4425.348,4129.307,4425.277Z" transform="translate(-754.484 -4025.426)" fill="#fff"/><path d="M4150.547,4425.451h0c.135-.006.28.057.4-.059C4150.82,4425.459,4150.673,4425.387,4150.547,4425.451Z" transform="translate(-774.501 -4025.541)" fill="#fff"/><path d="M4123.311,4426.278h0c-.134.006-.278-.055-.4.059h0C4123.04,4426.271,4123.186,4426.345,4123.311,4426.278Z" transform="translate(-748.932 -4026.351)" fill="#fff"/><path d="M4144.547,4426.452h0c.135-.006.28.056.4-.06C4144.82,4426.459,4144.673,4426.387,4144.547,4426.452Z" transform="translate(-768.949 -4026.467)" fill="#fff"/><path d="M4026.071,4427.384h0c-.122.072-.268-.011-.389.063C4025.813,4427.438,4025.957,4427.5,4026.071,4427.384Z" transform="translate(-658.956 -4027.384)" fill="#fff"/><path d="M4117.311,4427.278h0c-.134.006-.277-.055-.4.06h0C4117.04,4427.271,4117.186,4427.345,4117.311,4427.278Z" transform="translate(-743.38 -4027.276)" fill="#fff"/><path d="M4138.587,4427.452h0c.134-.007.279.056.4-.06C4138.858,4427.46,4138.712,4427.385,4138.587,4427.452Z" transform="translate(-763.434 -4027.392)" fill="#fff"/><path d="M4016.289,4444.271c-.123.019-.259-.04-.368.063C4016.036,4444.272,4016.178,4444.363,4016.289,4444.271Z" transform="translate(-649.923 -4043.011)" fill="#fff"/><path d="M3916.947,4446.347c-.125.074-.274,0-.4.063h0C3916.682,4446.4,3916.829,4446.468,3916.947,4446.347Z" transform="translate(-557.966 -4044.932)" fill="#fff"/><path d="M3939.946,4442.343c-.125.075-.274,0-.4.063h0C3939.681,4442.4,3939.828,4442.464,3939.946,4442.343Z" transform="translate(-579.248 -4041.227)" fill="#fff"/><path d="M3887.034,4469.675c.082-.051.171-.1-.039-.171l-.007,0-.072.045-.01.006,0,.157.033,0,.04,0A.38.38,0,0,1,3887.034,4469.675Z" transform="translate(-530.538 -4066.361)" fill="#fff"/><path d="M3806.264,4322.287l-.01,0,.005,0Z" transform="translate(-455.906 -3930.132)" fill="#fff"/><path d="M3355.059,4322.527c-1,.065-2,.154-3,.215-1.372.083-2.742.2-4.113.292q-2.632.183-5.263.376-2.057.151-4.115.3-2.633.183-5.265.375-2.076.151-4.153.3-2.615.182-5.229.374c-1.434.1-2.869.179-4.3.317-.2.152-.465-.022-.668.125h0c.2.026.392.062.589.076q2.057.152,4.114.3l5.374.378,4.263.294,5.524.376,4.338.3c1.458.1,2.916.2,4.375.3,1.3.084,2.6.132,3.9.246a11.474,11.474,0,0,1,2.055.254,6.642,6.642,0,0,0,3.131.066c1.064-.226,2.14-.342,3.215-.476,1.2-.15,2.407-.254,3.609-.392,1.41-.162,2.817-.342,4.226-.508,1.336-.157,2.675-.29,4.009-.464,1.943-.253,3.882-.541,5.824-.8,1.589-.213,3.181-.4,4.77-.613,1.808-.241,3.615-.5,5.422-.746l-.176-.1a.06.06,0,0,1-.045-.026h0c-1.156-.016-2.312-.059-3.466-.107a4.207,4.207,0,0,0-1.8.249,2.6,2.6,0,0,1-.359.078,6.823,6.823,0,0,1-1.956-.064q-3.61-.155-7.22-.308c-1.439-.059-2.881-.086-4.319-.167-.559-.031-1.11.072-1.667.019-.233-.022-.5-.058-.532-.308-.048-.367-.273-.359-.53-.359-.721,0-1.444.021-2.164-.008a4.269,4.269,0,0,0-1.314.166,2.114,2.114,0,0,1-.985.113,16.425,16.425,0,0,0-1.959-.193c-1.185-.107-2.373-.169-3.561-.232-.146-.008-.2-.117-.3-.153A.346.346,0,0,1,3355.059,4322.527Z" transform="translate(-4.973 -3930.214)" fill="#fff"/><path d="M3250.842,4308.412c-1.006.112-2.01.244-3.018.339-.8.077-1.608.109-2.412.167-1.31.093-2.619.192-3.929.286-.8.058-1.608.105-2.412.163-1.285.093-2.569.192-3.854.283-.841.06-1.682.11-2.522.166-1.4.093-2.8.193-4.193.278-1.053.064-2.107.1-3.159.167-1.794.112-3.587.25-5.381.352q-1.8.1-3.6.222c-1.856.124-3.716.193-5.572.319a15.141,15.141,0,0,0-2.6.243,1.136,1.136,0,0,0,.542.114c.9.075,1.8.16,2.7.236,1.023.087,2.045.2,3.074.2a.306.306,0,0,1,.239-.054q1.929-.122,3.857-.245c.729-.048,1.458-.1,2.187-.155,1.284-.094,2.567-.192,3.852-.285.8-.058,1.607-.106,2.41-.164,1.284-.093,2.567-.191,3.852-.284.8-.058,1.607-.106,2.41-.164,1.271-.092,2.542-.191,3.814-.283.815-.059,1.631-.106,2.447-.165,1.271-.092,2.542-.191,3.813-.283.815-.059,1.631-.106,2.447-.165q1.887-.138,3.774-.284,1.351-.1,2.7-.214a.943.943,0,0,1,.522.063l-.021-1.039-.16-.006C3252.046,4308.285,3251.444,4308.345,3250.842,4308.412Z" transform="translate(97.519 -3917.117)" fill="#fff"/><path d="M3806.262,4322.226l-.011-.005v.01Z" transform="translate(-455.903 -3930.07)" fill="#fff"/><path d="M3841.812,4309.641a.588.588,0,0,1-.172-.055,2.479,2.479,0,0,0-1.385-.227c-1.031-.012-2.062,0-3.093-.071a1.82,1.82,0,0,0-1.025.068,2.465,2.465,0,0,1-1.219.228,8.31,8.31,0,0,1-1-.083c-1.151-.129-2.308-.065-3.462-.122-2-.1-4-.123-6-.172-1.329-.033-2.658-.054-3.987-.083-.111,0-.22-.037-.33-.046-.3-.025-.439-.136-.194-.48-.432,0-.813.008-1.193,0a11.174,11.174,0,0,0-3.388.074,8.631,8.631,0,0,1-3.025-.089c-1.106-.088-2.208-.235-3.311-.356l-.157.006c0,.261.005.522,0,.784,0,.113.018.179.159.187.667.042,1.334.094,2,.146.852.066,1.7.152,2.554.2a5.172,5.172,0,0,0,1.553.066,5.306,5.306,0,0,1,1.881-.216,18.139,18.139,0,0,0,2.162.013c.263,0,.455.1.5.347.036.212.15.236.316.284a5.831,5.831,0,0,0,1.368-.034c1.623.089,3.248.156,4.873.222,1.5.062,3,.106,4.5.168.744.031,1.486.116,2.229.117a6.41,6.41,0,0,0,2.433,0,6.1,6.1,0,0,1,2.519-.258c.708.019,1.415.073,2.124.062a10.113,10.113,0,0,1,1.511.126,2.376,2.376,0,0,0,.739.1c.291-.051.582-.1.875-.143,1.394-.182,2.79-.345,4.181-.549.237-.035.53.031.719-.206Q3844.943,4309.641,3841.812,4309.641Z" transform="translate(-458.329 -3917.118)" fill="#fff"/><path d="M4333.46,4326.987l-.05-.016Z" transform="translate(-943.716 -3934.466)" fill="#fff"/><path d="M4254.1,4326.438q-3.111,0-6.224,0a.6.6,0,0,0,.172.055q3.131,0,6.261,0l-.05-.016A.519.519,0,0,0,4254.1,4326.438Z" transform="translate(-864.57 -3933.973)" fill="#fff"/><path d="M3314.7,4358.287a2.589,2.589,0,0,0-1.065.125h.4C3314.232,4358.265,3314.5,4358.438,3314.7,4358.287Z" transform="translate(-0.052 -3963.431)" fill="#fff"/><path d="M3292.778,4357.414a.857.857,0,0,0,.613.065c-.107-.117-.283.017-.374-.119A.308.308,0,0,0,3292.778,4357.414Z" transform="translate(19.245 -3962.582)" fill="#fff"/><path d="M3803.83,4306.626l.16.006h.216l.157-.006C3804.186,4306.509,3804.008,4306.406,3803.83,4306.626Z" transform="translate(-453.663 -3915.52)" fill="#fff"/><path d="M4244.958,4339.352h0l.306-.112c-.2-.025-.335-.075-.455.045l.1.046A.089.089,0,0,1,4244.958,4339.352Z" transform="translate(-861.728 -3945.789)" fill="#fff"/><path d="M4236.892,4339.3l.045.025.175.1h.151a.311.311,0,0,0,0-.052.483.483,0,0,0-.372-.073Z" transform="translate(-854.402 -3945.858)" fill="#fff"/><path d="M4242.236,4340.308h0l-.047-.021-.1-.046-.22.016a.238.238,0,0,1,0,.053Z" transform="translate(-859.006 -3946.745)" fill="#fff"/></g></g></svg>