<svg xmlns="http://www.w3.org/2000/svg" xmlns:xlink="http://www.w3.org/1999/xlink" width="160" height="190" viewBox="0 0 160 190"><defs><clipPath id="b"><rect width="160" height="190"/></clipPath></defs><g id="a" clip-path="url(#b)"><g transform="translate(-2960 -12.66)"><rect width="128" height="155" rx="14" transform="translate(2976 30.66)" fill="none" opacity="0.93"/><path d="M-13.9-7.8h-2.082V0h-1.8V-7.8h-2.069V-9.242H-13.9ZM-10.518,0a3.082,3.082,0,0,1-.136-.375,3.057,3.057,0,0,1-.092-.413,2.147,2.147,0,0,1-.619.67,1.46,1.46,0,0,1-.847.251,1.756,1.756,0,0,1-1.362-.559,2.124,2.124,0,0,1-.511-1.492,1.955,1.955,0,0,1,.651-1.568A2.9,2.9,0,0,1-11.5-4.043h.679V-4.6A1.381,1.381,0,0,0-11-5.373a.61.61,0,0,0-.543-.27A.523.523,0,0,0-12-5.427a1.085,1.085,0,0,0-.152.628L-13.9-4.805l-.019-.038a1.883,1.883,0,0,1,.663-1.523A2.626,2.626,0,0,1-11.426-7a2.451,2.451,0,0,1,1.742.625,2.317,2.317,0,0,1,.67,1.781v2.78a6.016,6.016,0,0,0,.07.946A5.153,5.153,0,0,0-8.728,0Zm-1.174-1.225a.929.929,0,0,0,.5-.146,1.084,1.084,0,0,0,.365-.375V-3.009H-11.5a.657.657,0,0,0-.6.286A1.312,1.312,0,0,0-12.283-2a.919.919,0,0,0,.159.559A.507.507,0,0,0-11.692-1.225Zm7.065-4-.679-.019a.769.769,0,0,0-.473.14.887.887,0,0,0-.289.394V0h-1.8V-6.868h1.682l.07.92.032.013a1.873,1.873,0,0,1,.46-.778A.965.965,0,0,1-4.938-7a1.6,1.6,0,0,1,.257.022,1.746,1.746,0,0,1,.238.054ZM-1.828,0h-1.8V-6.868h1.8Zm0-8.525h-1.8V-9.9h1.8ZM1.117-6.868l.07.876a2.046,2.046,0,0,1,.686-.743A1.735,1.735,0,0,1,2.818-7a1.523,1.523,0,0,1,.908.276,1.7,1.7,0,0,1,.59.841A2.151,2.151,0,0,1,5-6.7,1.667,1.667,0,0,1,5.979-7a1.555,1.555,0,0,1,1.343.7,3.757,3.757,0,0,1,.492,2.142V0H6V-4.156a2.434,2.434,0,0,0-.171-1.1.571.571,0,0,0-.533-.3.751.751,0,0,0-.463.153,1.161,1.161,0,0,0-.336.419q.006.121.013.238T4.52-4.5V0h-1.8V-4.156a2.4,2.4,0,0,0-.175-1.093.582.582,0,0,0-.543-.305.8.8,0,0,0-.441.124,1.09,1.09,0,0,0-.333.346V0h-1.8V-6.868ZM12.34,0A3.082,3.082,0,0,1,12.2-.375a3.057,3.057,0,0,1-.092-.413,2.147,2.147,0,0,1-.619.67,1.46,1.46,0,0,1-.847.251A1.756,1.756,0,0,1,9.283-.425a2.124,2.124,0,0,1-.511-1.492,1.955,1.955,0,0,1,.651-1.568,2.9,2.9,0,0,1,1.933-.559h.679V-4.6a1.381,1.381,0,0,0-.181-.771.61.61,0,0,0-.543-.27.523.523,0,0,0-.457.216A1.085,1.085,0,0,0,10.7-4.8L8.957-4.805l-.019-.038A1.883,1.883,0,0,1,9.6-6.367,2.626,2.626,0,0,1,11.432-7a2.451,2.451,0,0,1,1.742.625,2.317,2.317,0,0,1,.67,1.781v2.78a6.016,6.016,0,0,0,.07.946A5.153,5.153,0,0,0,14.13,0ZM11.166-1.225a.929.929,0,0,0,.5-.146,1.084,1.084,0,0,0,.365-.375V-3.009h-.679a.657.657,0,0,0-.6.286A1.312,1.312,0,0,0,10.575-2a.919.919,0,0,0,.159.559A.507.507,0,0,0,11.166-1.225ZM17.977-1.8a.667.667,0,0,0-.229-.5,3.847,3.847,0,0,0-.876-.524A4.619,4.619,0,0,1,15.32-3.7,1.667,1.667,0,0,1,14.8-4.97,1.854,1.854,0,0,1,15.466-6.4,2.533,2.533,0,0,1,17.221-7a2.626,2.626,0,0,1,1.822.609A1.922,1.922,0,0,1,19.7-4.831l-.019.038H17.938a1.176,1.176,0,0,0-.178-.686.621.621,0,0,0-.546-.254.685.685,0,0,0-.5.2.638.638,0,0,0-.2.476.638.638,0,0,0,.2.492,4.091,4.091,0,0,0,.882.511,4.278,4.278,0,0,1,1.6.873,1.76,1.76,0,0,1,.521,1.323,1.756,1.756,0,0,1-.7,1.435,2.849,2.849,0,0,1-1.834.559,2.539,2.539,0,0,1-1.879-.692,2.043,2.043,0,0,1-.66-1.562l.013-.038h1.65a1.12,1.12,0,0,0,.254.787.9.9,0,0,0,.667.241.781.781,0,0,0,.552-.178A.636.636,0,0,0,17.977-1.8Z" transform="translate(3040 168)" fill="#5e5b5c"/><g transform="translate(842.513 -1173.35)"><path d="M2236.657,1397.164l-.892.016a3.943,3.943,0,0,1-.844,0c-.965-1.57-1.947-3.13-2.889-4.713-.517-.869-1.055-1.724-1.566-2.6a.4.4,0,0,0-.226-.22c-.5.042-1.007.007-1.511.02a.826.826,0,0,0-.329.025l-1.8.016c-.5.042-1.007.007-1.51.02a.811.811,0,0,0-.328.025l-1.8.017c-.5.041-1.006.006-1.509.02a.794.794,0,0,0-.328.025l-1.806.017c-.5.041-1.006.006-1.508.019a.785.785,0,0,0-.328.025l-1.807.016c-.5.041-1.006.006-1.508.019a.785.785,0,0,0-.328.025l-1.807.016c-.483.042-.968.005-1.452.019a.847.847,0,0,0-.329.025l-1.8.016c-.317.063-.642-.031-.957.051a1.573,1.573,0,0,0-.018.525c-.069.348.014.7-.044,1.052l-.016,1.016c-.07.347.013.7-.044,1.048l-.017,1.072c-.069.349.014.7-.044,1.053q-.011.3-.021.6c0,.088.015.187-.113.205-.544.041-1.089.006-1.633.019a.837.837,0,0,0-.329.025l-1.983.017c-.544.042-1.089.006-1.634.02a.84.84,0,0,0-.329.024l-1.983.017c-.563.043-1.127.006-1.69.02a.787.787,0,0,0-.328.025l-1.928.016c-.563.043-1.127.006-1.691.02a.785.785,0,0,0-.328.025l-1.928.016c-.563.043-1.127.006-1.69.02a.784.784,0,0,0-.328.025,4.075,4.075,0,0,0-.513,0c-.249.028-.322-.079-.382-.313-.512-1.981-1.047-3.956-1.563-5.936-.055-.211-.15-.269-.351-.251-.231.02-.464.017-.7.024-.409.059-.823-.026-1.231.045l-1.2.017c-.389.056-.783-.024-1.172.044l-1.2.017c-.39.056-.784-.024-1.173.044l-1.194.017c-.408.059-.822-.027-1.229.045l-1.139.016c-.409.059-.823-.026-1.23.045l-1.2.017c-.389.056-.782-.024-1.171.044l-1.2.017c-.389.056-.784-.024-1.173.044l-1.195.017c-.408.059-.821-.027-1.229.045l-1.139.016c-.408.059-.822-.026-1.229.045-.353,0-.705.009-1.058,0-.149,0-.206.083-.268.2-.717,1.3-1.441,2.588-2.157,3.885-.377.682-.742,1.371-1.113,2.057-.138.18-.35.028-.509.113l-3.076.017c-.9.042-1.8.006-2.7.019a.943.943,0,0,0-.36.024c-.889,0-1.782-.041-2.667.018a1.432,1.432,0,0,1-1.389-.841,8.577,8.577,0,0,1-.7-2.109c-.312-.974-.565-1.967-.84-2.953q-.527-1.889-1.05-3.779c-.058-.206-.126-.408-.205-.661h4.139a1.233,1.233,0,0,1,.362-.017l31.14,0a1.038,1.038,0,0,0,.391-.024c1.263.005,2.527.015,3.791.014q6.341,0,12.681-.013,7.57-.006,15.139-.008c.1,0,.2-.007.3-.011a1.227,1.227,0,0,1,.362-.017l31.14,0a1.036,1.036,0,0,0,.39-.024c.06.005.12.014.18.015.509.007.515.006.523.54a9.416,9.416,0,0,1-.244,1.63c-.181,1.124-.383,2.244-.576,3.366q-.378,2.2-.756,4.4c-.222.09-.462-.017-.686.06l-.894.016c-.307.058-.621-.025-.928.044l-.893.016c-.308.058-.622-.025-.928.044l-.893.016c-.308.058-.622-.024-.929.044l-.892.016c-.308.058-.622-.024-.929.044l-.892.016C2237.278,1397.178,2236.964,1397.1,2236.657,1397.164Z" transform="translate(0 -96.307)" fill="#fff"/><g transform="translate(2147.607 1257.937)"><path d="M2249.659,1358.84a6.985,6.985,0,0,0-5.995.667,2.586,2.586,0,0,0-.809.766,1.413,1.413,0,0,0,.17,1.924,2.52,2.52,0,0,0,.905.588,6.08,6.08,0,0,0,2.224.378,7.15,7.15,0,0,0,3.575-.878,2.874,2.874,0,0,0,1.153-1.09,1.4,1.4,0,0,0-.214-1.7A2.4,2.4,0,0,0,2249.659,1358.84Z" transform="translate(-2218.628 -1333.026)" fill="none"/><path d="M2276.019,1281.345a2.893,2.893,0,0,0-.805-.34,6.49,6.49,0,0,0-2.8-.021,4.543,4.543,0,0,0-2.2.938,1,1,0,0,0,.369,1.818,6.63,6.63,0,0,0,1.887.284,8.518,8.518,0,0,0,1.525-.172,7.547,7.547,0,0,0,2.042-.732c.238-.134.5-.295.509-.6A1.213,1.213,0,0,0,2276.019,1281.345Z" transform="translate(-2238.962 -1275.048)" fill="none"/><path d="M2261.086,1328.209a5.2,5.2,0,0,0-2.181-.427,6.754,6.754,0,0,0-1.914.268,4.194,4.194,0,0,0-2.077,1.182,1.392,1.392,0,0,0-.268,1.571,1.769,1.769,0,0,0,1.3.983,7.029,7.029,0,0,0,5.36-.75A1.524,1.524,0,0,0,2261.086,1328.209Z" transform="translate(-2227.563 -1310.115)" fill="none"/><path d="M2268,1301.923a6.458,6.458,0,0,0-4.845.559,2.2,2.2,0,0,0-.85.762,1.051,1.051,0,0,0,.108,1.338,2.156,2.156,0,0,0,1.257.732,5.727,5.727,0,0,0,1.326.127,7.462,7.462,0,0,0,3.175-.671,2.118,2.118,0,0,0,1.025-.991,1.043,1.043,0,0,0-.2-1.3A2.2,2.2,0,0,0,2268,1301.923Z" transform="translate(-2233.236 -1290.619)" fill="none"/><path d="M2320.438,1360.7a5.574,5.574,0,0,0-2.586-.543,4.13,4.13,0,0,0-.813.072,3.628,3.628,0,0,0-2.044.906,1.245,1.245,0,0,0-.08,1.819,2.808,2.808,0,0,0,1.2.852,6,6,0,0,0,3.075.269,3.449,3.449,0,0,0,1.984-.958,1.252,1.252,0,0,0,.042-1.843A2.591,2.591,0,0,0,2320.438,1360.7Z" transform="translate(-2272.418 -1334.296)" fill="none"/><path d="M2354.13,1297.855a2.266,2.266,0,0,0,1.593-.827.964.964,0,0,0,.01-1.321,2.094,2.094,0,0,0-.84-.58,4.735,4.735,0,0,0-2.588-.266,2.85,2.85,0,0,0-1.488.624.983.983,0,0,0-.05,1.557,2.829,2.829,0,0,0,1.837.823c.05.021.1.042.15.061a.928.928,0,0,0-.268.043,3.207,3.207,0,0,0-1.828.644,1,1,0,0,0-.026,1.641,2.2,2.2,0,0,0,.67.406,4.918,4.918,0,0,0,3.635-.006,1.22,1.22,0,0,0,.856-1.073,1.13,1.13,0,0,0-.641-1.057,3.743,3.743,0,0,0-1.8-.556l-.084,0a.573.573,0,0,0,.083-.037C2353.607,1297.9,2353.87,1297.89,2354.13,1297.855Z" transform="translate(-2299.056 -1285.469)" fill="none"/><path d="M2338.911,1277.848a3.591,3.591,0,0,0-1.461.553.826.826,0,0,0-.293,1.176,1.086,1.086,0,0,0,.694.582,8.089,8.089,0,0,0,5.058.119.865.865,0,0,0,.715-.873.982.982,0,0,0-.436-.905,2.776,2.776,0,0,0-.692-.369,6.794,6.794,0,0,0-2.353-.389A8.235,8.235,0,0,0,2338.911,1277.848Z" transform="translate(-2289.205 -1272.731)" fill="none"/><path d="M2187.663,1333.445a7.421,7.421,0,0,0-3.876-.334,4.27,4.27,0,0,0-2.234.929,1.261,1.261,0,0,0-.017,2.023,3.407,3.407,0,0,0,1.353.777,9.8,9.8,0,0,0,2.331.306c.355-.035.829-.062,1.3-.13a3.768,3.768,0,0,0,2.26-1.055,1.212,1.212,0,0,0,0-1.807A2.975,2.975,0,0,0,2187.663,1333.445Z" transform="translate(-2172.67 -1314.011)" fill="none"/><path d="M2217.536,1281.882a2.751,2.751,0,0,0-.785-.385,6.75,6.75,0,0,0-3.851-.072,2.675,2.675,0,0,0-1.247.651.844.844,0,0,0-.192,1.047,1.117,1.117,0,0,0,.663.621,7.339,7.339,0,0,0,3.713.42,4.406,4.406,0,0,0,1.65-.56A.953.953,0,0,0,2217.536,1281.882Z" transform="translate(-2195.325 -1275.3)" fill="none"/><path d="M2198.131,1313.44a4.375,4.375,0,0,0-1.837-.461,4.8,4.8,0,0,0-2.92.6.976.976,0,0,0-.414,1.424,1.151,1.151,0,0,0,.724.558,6.466,6.466,0,0,0,2.289.373,4.753,4.753,0,0,0,2.166-.481c.406-.213.781-.485.787-.992C2198.932,1313.935,2198.545,1313.661,2198.131,1313.44Z" transform="translate(-2181.466 -1299.045)" fill="none"/><path d="M2204.96,1302.2a2.033,2.033,0,0,0-.733-.35,6.7,6.7,0,0,0-3.328-.073,2.423,2.423,0,0,0-1.022.436.576.576,0,0,0-.112.9,1.186,1.186,0,0,0,.666.445,6.281,6.281,0,0,0,1.944.249,5.963,5.963,0,0,0,1.178-.074,3.056,3.056,0,0,0,1.406-.514A.582.582,0,0,0,2204.96,1302.2Z" transform="translate(-2186.54 -1290.558)" fill="none"/><path d="M2424.31,1357.273a7.269,7.269,0,0,0-5.011-.113,3.114,3.114,0,0,0-1.587,1.062,1.4,1.4,0,0,0-.19,1.458,2.168,2.168,0,0,0,1.063,1.151,7.486,7.486,0,0,0,3.382.752,5.585,5.585,0,0,0,1.337-.131,4.105,4.105,0,0,0,2.376-1.155,1.49,1.49,0,0,0,.021-2.084A3.355,3.355,0,0,0,2424.31,1357.273Z" transform="translate(-2349.243 -1331.769)" fill="none"/><path d="M2480.443,1299.844a5.494,5.494,0,0,0,1.743-.357.721.721,0,0,0,.46-.411.982.982,0,0,0-.409-1.194,2.7,2.7,0,0,0-.705-.345,6.78,6.78,0,0,0-3.026-.259,3.241,3.241,0,0,0-1.693.6.869.869,0,0,0,.172,1.521,2.963,2.963,0,0,0,.426.157,7.539,7.539,0,0,0,2.335.294C2479.978,1299.848,2480.212,1299.866,2480.443,1299.844Z" transform="translate(-2393.35 -1287.28)" fill="none"/><path d="M2472.357,1282.21a.819.819,0,0,0,.167-1.507,2.543,2.543,0,0,0-.672-.344,6.609,6.609,0,0,0-2.87-.309,3.9,3.9,0,0,0-1.784.529.8.8,0,0,0,.042,1.478,2.734,2.734,0,0,0,.271.135,6.245,6.245,0,0,0,2.455.474A5.947,5.947,0,0,0,2472.357,1282.21Z" transform="translate(-2386.096 -1274.428)" fill="none"/><path d="M2481.965,1311.49a6.144,6.144,0,0,0,2.3.366,5.168,5.168,0,0,0,.985-.072,3.431,3.431,0,0,0,1.5-.536.736.736,0,0,0,.05-1.286,2.227,2.227,0,0,0-.657-.369,6.69,6.69,0,0,0-3.552-.256,2.731,2.731,0,0,0-1.354.565.692.692,0,0,0-.021,1.145A2.224,2.224,0,0,0,2481.965,1311.49Z" transform="translate(-2396.697 -1296.242)" fill="none"/><path d="M2420.519,1329.733a1.485,1.485,0,0,0,.186-2.5,3.434,3.434,0,0,0-.979-.6,6.572,6.572,0,0,0-3.511-.39,4.3,4.3,0,0,0-2.167.868,1.449,1.449,0,0,0-.429,1.919,1.7,1.7,0,0,0,.73.7,5.714,5.714,0,0,0,2.826.791A5.954,5.954,0,0,0,2420.519,1329.733Z" transform="translate(-2346.278 -1308.902)" fill="none"/><path d="M2488.6,1329.69a7.464,7.464,0,0,0-4.555-.255,3.365,3.365,0,0,0-1.74.928,1.129,1.129,0,0,0-.21,1.368,2.328,2.328,0,0,0,1.342,1.194,9.418,9.418,0,0,0,2.684.409,6.79,6.79,0,0,0,1.507-.131,4.039,4.039,0,0,0,2.022-.893,1.22,1.22,0,0,0,.047-1.932A3.061,3.061,0,0,0,2488.6,1329.69Z" transform="translate(-2397.465 -1311.17)" fill="none"/><path d="M2410.854,1281.4a7.919,7.919,0,0,0,2.449-.373,1.228,1.228,0,0,0,.815-1.13,1.056,1.056,0,0,0-.548-.982,2.53,2.53,0,0,0-.58-.324,6.824,6.824,0,0,0-3.987-.309,3.134,3.134,0,0,0-1.478.658.913.913,0,0,0-.266,1.192,1.749,1.749,0,0,0,.983.849A8.014,8.014,0,0,0,2410.854,1281.4Z" transform="translate(-2341.58 -1273.018)" fill="none"/><path d="M2353.359,1361.293a5.533,5.533,0,0,0-2.936-.4,3.88,3.88,0,0,0-1.84.639,1.308,1.308,0,0,0-.7,1.314,1.554,1.554,0,0,0,.944,1.307,7.233,7.233,0,0,0,2.789.5,6.627,6.627,0,0,0,1.6-.261,1.678,1.678,0,0,0,1.241-.951,1.291,1.291,0,0,0-.167-1.487A2.639,2.639,0,0,0,2353.359,1361.293Z" transform="translate(-2297.301 -1334.819)" fill="none"/><path d="M2338.436,1333.17c.6-.182,1.121-.432,1.174-1.22a1.469,1.469,0,0,0-.334-1.2,3.029,3.029,0,0,0-1.138-.729,7.425,7.425,0,0,0-2.685-.471,8.256,8.256,0,0,0-1.576.171,3.652,3.652,0,0,0-1.808.859,1.171,1.171,0,0,0-.255,1.459,1.732,1.732,0,0,0,1,.946,6.672,6.672,0,0,0,1.844.45A9.117,9.117,0,0,0,2338.436,1333.17Z" transform="translate(-2285.2 -1311.437)" fill="none"/><path d="M2407.161,1262.938a4.9,4.9,0,0,0,2.082.584,5.789,5.789,0,0,0,3.1-.488.776.776,0,0,0,.2-1.34,2.141,2.141,0,0,0-.673-.4,6.412,6.412,0,0,0-2.351-.4,4.923,4.923,0,0,0-2.389.548A.8.8,0,0,0,2407.161,1262.938Z" transform="translate(-2341.197 -1260.146)" fill="none"/><path d="M2414.082,1304.431a8.185,8.185,0,0,0,2.655-.476,1.208,1.208,0,0,0,.4-1.841,2.5,2.5,0,0,0-1.081-.7,6.637,6.637,0,0,0-3.612-.263,3.091,3.091,0,0,0-1.706.79.965.965,0,0,0-.078,1.367,1.934,1.934,0,0,0,.779.606A6.766,6.766,0,0,0,2414.082,1304.431Z" transform="translate(-2344.027 -1290.117)" fill="none"/><path d="M2248.072,1289.6q-.693-1.677-1.379-3.357-1.735-4.277-3.464-8.555-1.934-4.763-3.874-9.522-2.027-5-4.037-10.005a.318.318,0,0,0-.362-.228c-.474.015-.949.007-1.424.008a.785.785,0,0,1-.328.025c-.462.013-.925-.021-1.387.019l-1.74.017a.846.846,0,0,1-.329.025c-.464.013-.928-.023-1.392.02l-1.68.016a.846.846,0,0,1-.329.025c-.463.013-.927-.023-1.391.02l-1.68.016a.844.844,0,0,1-.329.025c-.463.013-.928-.022-1.391.02l-1.681.016a.832.832,0,0,1-.329.024c-.463.013-.927-.022-1.39.02l-1.682.016a.83.83,0,0,1-.329.025c-.463.013-.927-.022-1.389.02l-1.682.016a.822.822,0,0,1-.328.025c-.463.013-.927-.022-1.389.02l-1.682.016a.818.818,0,0,1-.328.025c-.463.013-.926-.022-1.389.02l-1.683.016a.82.82,0,0,1-.328.025c-.463.013-.926-.022-1.388.019l-1.684.016a.8.8,0,0,1-.328.025c-.463.013-.926-.021-1.388.02l-1.685.016a.785.785,0,0,1-.328.025c-.462.013-.925-.021-1.387.019l-1.685.016a.789.789,0,0,1-.328.025c-.462.013-.925-.021-1.387.019l-1.685.016a.789.789,0,0,1-.328.025c-.462.013-.925-.021-1.387.019l-1.686.016a.787.787,0,0,1-.327.025c-.462.013-.925-.021-1.387.019l-1.686.016a.784.784,0,0,1-.327.025c-.462.013-.925-.021-1.387.019l-1.741.017a.844.844,0,0,1-.329.025c-.463.013-.927-.023-1.391.02l-1.68.016a.844.844,0,0,1-.329.024c-.463.013-.928-.023-1.391.02l-1.681.016a.839.839,0,0,1-.329.025c-.463.013-.927-.022-1.39.02l-1.681.016a.833.833,0,0,1-.329.025c-.463.013-.927-.022-1.39.02l-1.682.016a.827.827,0,0,1-.329.025c-.463.013-.927-.022-1.39.02-.354.007-.708.035-1.061.017a.792.792,0,0,0-.87.484c-.558,1.061-1.149,2.106-1.76,3.14-.629,1.066-1.2,2.166-1.807,3.246-.588,1.046-1.193,2.083-1.781,3.129-.548.976-1.08,1.962-1.627,2.938-.461.822-.942,1.633-1.4,2.455-.436.778-.851,1.567-1.286,2.345-.4.71-.814,1.409-1.212,2.119-.431.769-.846,1.547-1.278,2.316-.4.709-.814,1.407-1.212,2.116-.432.77-.846,1.549-1.279,2.319-.4.708-.812,1.407-1.211,2.114-.454.8-.9,1.613-1.348,2.419.005.286.227.142.333.142q14.408.012,28.817.007a.928.928,0,0,0,.3-.017c.1,0,.2-.011.3-.011q7.585,0,15.171-.008,6.326,0,12.652-.013c1.264,0,2.527.01,3.791.015a1.007,1.007,0,0,1,.39-.024l31.138,0a1.251,1.251,0,0,0,.362-.017l6.37-.013C2248.386,1290.357,2248.383,1290.359,2248.072,1289.6Zm-84-9.718a3.766,3.766,0,0,1-2.26,1.055c-.468.068-.942.1-1.3.13a9.8,9.8,0,0,1-2.331-.306,3.409,3.409,0,0,1-1.353-.777,1.261,1.261,0,0,1,.017-2.023,4.269,4.269,0,0,1,2.234-.929,7.42,7.42,0,0,1,3.876.334,2.971,2.971,0,0,1,1.116.708A1.212,1.212,0,0,1,2164.073,1279.887Zm.567-5.544a4.755,4.755,0,0,1-2.166.481,6.467,6.467,0,0,1-2.289-.373,1.15,1.15,0,0,1-.724-.558.976.976,0,0,1,.414-1.424,4.8,4.8,0,0,1,2.92-.6,4.371,4.371,0,0,1,1.837.461c.414.221.8.494.8,1.018C2165.421,1273.858,2165.046,1274.13,2164.64,1274.343Zm1.745-3.748a3.059,3.059,0,0,1-1.406.514,5.963,5.963,0,0,1-1.178.074,6.288,6.288,0,0,1-1.944-.249,1.186,1.186,0,0,1-.666-.445.576.576,0,0,1,.112-.895,2.422,2.422,0,0,1,1.022-.436,6.7,6.7,0,0,1,3.328.073,2.033,2.033,0,0,1,.733.35A.582.582,0,0,1,2166.385,1270.595Zm3.742-4.354a4.4,4.4,0,0,1-1.65.56,7.338,7.338,0,0,1-3.713-.42,1.118,1.118,0,0,1-.663-.621.844.844,0,0,1,.192-1.047,2.674,2.674,0,0,1,1.247-.651,6.75,6.75,0,0,1,3.851.072,2.754,2.754,0,0,1,.785.385A.953.953,0,0,1,2170.127,1266.24Zm10.093,19.866a2.871,2.871,0,0,1-1.152,1.09,7.149,7.149,0,0,1-3.576.878,6.076,6.076,0,0,1-2.224-.378,2.519,2.519,0,0,1-.905-.588,1.413,1.413,0,0,1-.17-1.924,2.59,2.59,0,0,1,.81-.766,6.985,6.985,0,0,1,5.995-.667,2.4,2.4,0,0,1,1.01.65A1.4,1.4,0,0,1,2180.22,1286.106Zm1.491-7.247a7.029,7.029,0,0,1-5.36.75,1.769,1.769,0,0,1-1.3-.983,1.392,1.392,0,0,1,.268-1.571,4.193,4.193,0,0,1,2.077-1.182,6.752,6.752,0,0,1,1.913-.268,5.2,5.2,0,0,1,2.181.427A1.524,1.524,0,0,1,2181.711,1278.859Zm2.211-7.762a2.119,2.119,0,0,1-1.025.991,7.463,7.463,0,0,1-3.175.671,5.727,5.727,0,0,1-1.326-.127,2.157,2.157,0,0,1-1.257-.732,1.051,1.051,0,0,1-.108-1.338,2.2,2.2,0,0,1,.85-.762,6.457,6.457,0,0,1,4.844-.559,2.2,2.2,0,0,1,1,.554A1.043,1.043,0,0,1,2183.922,1271.1Zm1.121-5.088a7.539,7.539,0,0,1-2.042.732,8.518,8.518,0,0,1-1.525.172,6.625,6.625,0,0,1-1.887-.284,1,1,0,0,1-.369-1.818,4.543,4.543,0,0,1,2.2-.938,6.494,6.494,0,0,1,2.8.021,2.893,2.893,0,0,1,.805.34,1.213,1.213,0,0,1,.529,1.179C2185.548,1265.714,2185.281,1265.875,2185.043,1266.009Zm17.213,4.427a3.743,3.743,0,0,1,1.8.556,1.13,1.13,0,0,1,.641,1.057,1.219,1.219,0,0,1-.856,1.073,4.918,4.918,0,0,1-3.635.006,2.2,2.2,0,0,1-.669-.406,1,1,0,0,1,.026-1.641,3.207,3.207,0,0,1,1.828-.644.927.927,0,0,1,.268-.043c-.05-.019-.1-.04-.149-.061a2.828,2.828,0,0,1-1.837-.823.983.983,0,0,1,.05-1.557,2.851,2.851,0,0,1,1.488-.624,4.736,4.736,0,0,1,2.588.266,2.092,2.092,0,0,1,.84.58.964.964,0,0,1-.01,1.321,2.266,2.266,0,0,1-1.593.827c-.26.035-.523.049-.784.072a.573.573,0,0,1-.083.037Zm-1.8-10.246a2.785,2.785,0,0,1,1.255-.568,4.819,4.819,0,0,1,2.307-.051,1.706,1.706,0,0,1,.2.063c.273.105.554.243.546.573a.791.791,0,0,1-.488.712,5.611,5.611,0,0,1-2.29.488,2.3,2.3,0,0,1-1.5-.322A.526.526,0,0,1,2200.459,1260.19Zm.8,3.146a2.785,2.785,0,0,1,.692.369.984.984,0,0,1,.436.905.865.865,0,0,1-.716.873,8.087,8.087,0,0,1-5.058-.119,1.085,1.085,0,0,1-.694-.582.826.826,0,0,1,.293-1.176,3.59,3.59,0,0,1,1.461-.553,8.234,8.234,0,0,1,1.232-.107A6.8,6.8,0,0,1,2201.257,1263.336Zm-7.048-3.106a1.705,1.705,0,0,1,.6-.457,5.038,5.038,0,0,1,3.338-.373,1.669,1.669,0,0,1,.555.236.809.809,0,0,1,0,1.389,4.7,4.7,0,0,1-1.686.553,6.083,6.083,0,0,1-1.1.078,5.342,5.342,0,0,1-.956-.07,1.136,1.136,0,0,1-.776-.475A.647.647,0,0,1,2194.209,1260.23Zm2.509,26.526a3.449,3.449,0,0,1-1.984.958,6,6,0,0,1-3.075-.269,2.808,2.808,0,0,1-1.2-.852,1.245,1.245,0,0,1,.08-1.819,3.628,3.628,0,0,1,2.044-.906,4.13,4.13,0,0,1,.813-.072,5.574,5.574,0,0,1,2.586.543,2.591,2.591,0,0,1,.775.575A1.252,1.252,0,0,1,2196.719,1286.756Zm-1.138-7.268a1.732,1.732,0,0,1-1-.946,1.171,1.171,0,0,1,.255-1.459,3.651,3.651,0,0,1,1.808-.859,8.236,8.236,0,0,1,1.576-.171,7.423,7.423,0,0,1,2.685.471,3.03,3.03,0,0,1,1.138.729,1.469,1.469,0,0,1,.334,1.2c-.053.788-.571,1.038-1.174,1.22a9.117,9.117,0,0,1-3.776.268A6.672,6.672,0,0,1,2195.581,1279.488Zm9.542,7.072a1.677,1.677,0,0,1-1.241.951,6.626,6.626,0,0,1-1.6.261,7.235,7.235,0,0,1-2.789-.5,1.554,1.554,0,0,1-.944-1.307,1.308,1.308,0,0,1,.7-1.314,3.879,3.879,0,0,1,1.84-.639,5.536,5.536,0,0,1,2.936.4,2.644,2.644,0,0,1,.932.661A1.291,1.291,0,0,1,2205.123,1286.56Zm8.779-27.326a4.921,4.921,0,0,1,2.389-.548,6.411,6.411,0,0,1,2.351.4,2.138,2.138,0,0,1,.673.4.776.776,0,0,1-.2,1.34,5.791,5.791,0,0,1-3.1.488,4.9,4.9,0,0,1-2.082-.584A.8.8,0,0,1,2213.9,1259.234Zm-.256,5.821a.913.913,0,0,1,.266-1.192,3.134,3.134,0,0,1,1.478-.658,6.823,6.823,0,0,1,3.987.309,2.532,2.532,0,0,1,.58.324,1.055,1.055,0,0,1,.547.982,1.228,1.228,0,0,1-.815,1.13,7.918,7.918,0,0,1-2.449.373,8.011,8.011,0,0,1-2.611-.42A1.749,1.749,0,0,1,2213.646,1265.054Zm.955,6.07a.964.964,0,0,1,.078-1.367,3.091,3.091,0,0,1,1.706-.79,6.637,6.637,0,0,1,3.612.263,2.5,2.5,0,0,1,1.081.7,1.207,1.207,0,0,1-.4,1.841,8.183,8.183,0,0,1-2.655.476,6.763,6.763,0,0,1-2.641-.52A1.934,1.934,0,0,1,2214.6,1271.125Zm.706,6.939a1.449,1.449,0,0,1,.43-1.919,4.3,4.3,0,0,1,2.167-.868,6.572,6.572,0,0,1,3.511.39,3.431,3.431,0,0,1,.979.6,1.485,1.485,0,0,1-.186,2.5,5.953,5.953,0,0,1-3.343.791,5.714,5.714,0,0,1-2.826-.791A1.7,1.7,0,0,1,2215.308,1278.063Zm9.1,8.4a4.105,4.105,0,0,1-2.376,1.155,5.579,5.579,0,0,1-1.337.131,7.486,7.486,0,0,1-3.382-.752,2.168,2.168,0,0,1-1.063-1.151,1.4,1.4,0,0,1,.19-1.458,3.114,3.114,0,0,1,1.587-1.062,7.269,7.269,0,0,1,5.011.113,3.355,3.355,0,0,1,1.391.941A1.49,1.49,0,0,1,2224.4,1286.466Zm4.708-20.9a.8.8,0,0,1-.042-1.478,3.9,3.9,0,0,1,1.784-.529,6.608,6.608,0,0,1,2.869.309,2.545,2.545,0,0,1,.672.344.819.819,0,0,1-.168,1.507,5.946,5.946,0,0,1-2.39.456,6.247,6.247,0,0,1-2.455-.474A2.761,2.761,0,0,1,2229.112,1265.566Zm2.489,4.487a.869.869,0,0,1-.172-1.521,3.239,3.239,0,0,1,1.693-.6,6.778,6.778,0,0,1,3.026.259,2.7,2.7,0,0,1,.7.345.981.981,0,0,1,.409,1.194.72.72,0,0,1-.46.412,5.5,5.5,0,0,1-1.743.357c-.231.021-.465,0-.7,0a7.538,7.538,0,0,1-2.334-.294A2.953,2.953,0,0,1,2231.6,1270.054Zm.9,1.544a2.732,2.732,0,0,1,1.354-.565,6.691,6.691,0,0,1,3.552.256,2.229,2.229,0,0,1,.657.369.736.736,0,0,1-.05,1.286,3.43,3.43,0,0,1-1.5.536,5.172,5.172,0,0,1-.985.072,6.146,6.146,0,0,1-2.3-.366,2.224,2.224,0,0,1-.752-.443A.692.692,0,0,1,2232.5,1271.6Zm7.646,7.479a4.038,4.038,0,0,1-2.022.893,6.8,6.8,0,0,1-1.507.131,9.422,9.422,0,0,1-2.684-.409,2.329,2.329,0,0,1-1.342-1.194,1.129,1.129,0,0,1,.21-1.369,3.366,3.366,0,0,1,1.74-.928,7.466,7.466,0,0,1,4.555.255,3.064,3.064,0,0,1,1.1.687A1.22,1.22,0,0,1,2240.149,1279.076Z" transform="translate(-2147.966 -1257.937)" fill="#fff"/></g><path d="M2423.962,1367.279a9.479,9.479,0,0,1-2.717-.327,2.731,2.731,0,0,1-1.121-.635c-.237-.222-.239-.355.014-.568a2.671,2.671,0,0,1,1.215-.513,9.494,9.494,0,0,1,4.82.195,2.3,2.3,0,0,1,.856.44c.3.259.287.484-.03.716a3.879,3.879,0,0,1-1.757.6A9,9,0,0,1,2423.962,1367.279Z" transform="translate(-203.54 -79.992)" fill="#fff"/><path d="M2418.671,1360.451a1.081,1.081,0,0,1,.1-1.144,2.492,2.492,0,0,1,1.249-.92,6.861,6.861,0,0,1,5.278.122,2.576,2.576,0,0,1,1.137.879,1.157,1.157,0,0,1,.071,1.324,3.51,3.51,0,0,0-2.478-1.142,9.7,9.7,0,0,0-4.057.143A2.363,2.363,0,0,0,2418.671,1360.451Z" transform="translate(-202.498 -74.69)" fill="#fff"/><path d="M2247.994,1366.851a5.127,5.127,0,0,1-2.209-.363,2.668,2.668,0,0,1-.469-.273.583.583,0,0,1-.152-.853,1.74,1.74,0,0,1,.7-.612,7.592,7.592,0,0,1,5.407-.648,1.928,1.928,0,0,1,.783.383.626.626,0,0,1,.119.957,2.512,2.512,0,0,1-.968.711A7.87,7.87,0,0,1,2247.994,1366.851Z" transform="translate(-72.879 -79.138)" fill="#fff"/><path d="M2251.628,1361.506a2.3,2.3,0,0,0-1.793-.99,8.233,8.233,0,0,0-4.6.559,2.555,2.555,0,0,0-1.44,1.256,1.157,1.157,0,0,1,.179-.988,2.737,2.737,0,0,1,1.073-.917,6.868,6.868,0,0,1,5.117-.538,2.4,2.4,0,0,1,1.253.756A.875.875,0,0,1,2251.628,1361.506Z" transform="translate(-71.913 -75.963)" fill="#fff"/><path d="M2337.325,1337.576a6.325,6.325,0,0,1-2.669-.5,2.915,2.915,0,0,1-.811-.522.231.231,0,0,1,0-.386,1.734,1.734,0,0,1,.653-.371,8.486,8.486,0,0,1,3.5-.33,6.442,6.442,0,0,1,2.06.455c.258.11.629.207.65.48.022.294-.337.447-.589.584A5.513,5.513,0,0,1,2337.325,1337.576Z" transform="translate(-139.141 -57.884)" fill="#fff"/><path d="M2332.828,1332.515a.911.911,0,0,1,.372-.932,3.631,3.631,0,0,1,1.706-.732,7.145,7.145,0,0,1,3.907.277,2.751,2.751,0,0,1,1.1.681.972.972,0,0,1,.3.715C2338.556,1331.259,2333.933,1331.345,2332.828,1332.515Z" transform="translate(-138.443 -54.357)" fill="#fff"/><path d="M2418.429,1331.692a7.721,7.721,0,0,1,2.7.467,2.086,2.086,0,0,1,.789.5.443.443,0,0,1-.012.714,2.705,2.705,0,0,1-1.486.693,8.223,8.223,0,0,1-4.045-.2,2.2,2.2,0,0,1-1.061-.671c-.249-.294-.233-.49.073-.747a3.15,3.15,0,0,1,1.381-.585A9.307,9.307,0,0,1,2418.429,1331.692Z" transform="translate(-199.952 -55.098)" fill="#fff"/><path d="M2421.881,1329.356a3.038,3.038,0,0,0-1.735-.966,8.57,8.57,0,0,0-3.993-.053,3,3,0,0,0-1.565.8,1.265,1.265,0,0,1,.528-.96,3.678,3.678,0,0,1,1.589-.71,6.269,6.269,0,0,1,3.86.329,2.8,2.8,0,0,1,.884.576A1.276,1.276,0,0,1,2421.881,1329.356Z" transform="translate(-199.537 -51.819)" fill="#fff"/><path d="M2487.843,1336.437a8.376,8.376,0,0,1,2.452.364,2.5,2.5,0,0,1,.678.328c.37.268.362.531-.032.771a3.308,3.308,0,0,1-1.136.386,7.08,7.08,0,0,1-4.21-.39,4.145,4.145,0,0,1-.6-.345c-.232-.151-.194-.3-.018-.457a1.694,1.694,0,0,1,.553-.305A7.188,7.188,0,0,1,2487.843,1336.437Z" transform="translate(-252.011 -58.643)" fill="#fff"/><path d="M2483.3,1332.537a.8.8,0,0,1,0-1.029,2.08,2.08,0,0,1,1-.714,6.96,6.96,0,0,1,5.309.121,2.253,2.253,0,0,1,.832.595.908.908,0,0,1-.159,1.447,1.075,1.075,0,0,0-.678-.789,5.544,5.544,0,0,0-1.889-.508,8.392,8.392,0,0,0-3.332.212A1.833,1.833,0,0,0,2483.3,1332.537Z" transform="translate(-250.726 -54.078)" fill="#fff"/><path d="M2187.648,1342.072a5.813,5.813,0,0,1-2.595-.464,2.766,2.766,0,0,1-.373-.2c-.274-.179-.292-.4-.048-.615a2.045,2.045,0,0,1,.833-.415,8.14,8.14,0,0,1,4.394,0,2.249,2.249,0,0,1,.711.329c.376.268.371.538-.028.761a5.237,5.237,0,0,1-2.138.594C2188.154,1342.09,2187.9,1342.072,2187.648,1342.072Z" transform="translate(-27.622 -61.364)" fill="#fff"/><path d="M2182.474,1336.544a.913.913,0,0,1,.105-1.384,3.349,3.349,0,0,1,1.5-.756,6.96,6.96,0,0,1,4.513.252,2.343,2.343,0,0,1,.913.634.869.869,0,0,1-.022,1.258,2.462,2.462,0,0,0-1.922-1.043,8.516,8.516,0,0,0-3.784.137A1.864,1.864,0,0,0,2182.474,1336.544Z" transform="translate(-25.937 -56.931)" fill="#fff"/><path d="M2258.936,1334.721a4.328,4.328,0,0,1-1.992-.374,2.038,2.038,0,0,1-.551-.371.494.494,0,0,1-.073-.749,2.019,2.019,0,0,1,.793-.645,7.046,7.046,0,0,1,4.808-.543,2.017,2.017,0,0,1,.815.388.55.55,0,0,1,.107.886,3.619,3.619,0,0,1-1.922,1.139A6.6,6.6,0,0,1,2258.936,1334.721Z" transform="translate(-81.201 -55.21)" fill="#fff"/><path d="M2262.872,1329.967a4.242,4.242,0,0,0-2.375-.6,7.808,7.808,0,0,0-2.855.47,4.137,4.137,0,0,0-1.38.8c-.062.011-.094-.006-.073-.075a1.64,1.64,0,0,1,.673-.717,5.948,5.948,0,0,1,5.131-.611,1.778,1.778,0,0,1,.947.668C2262.959,1329.963,2262.931,1329.981,2262.872,1329.967Z" transform="translate(-81.201 -53.02)" fill="#fff"/><path d="M2255.934,1335.428l.073.075-.162.2A.3.3,0,0,1,2255.934,1335.428Z" transform="translate(-80.946 -57.889)" fill="#33b2f0"/><path d="M2282.627,1332.887l.068-.068c.075.042.083.118.12.2A.225.225,0,0,1,2282.627,1332.887Z" transform="translate(-100.956 -55.94)" fill="#71c9f5"/><path d="M2320.21,1367.443a5.41,5.41,0,0,1-2.417-.494,2.3,2.3,0,0,1-.41-.254.585.585,0,0,1-.045-.961,1.913,1.913,0,0,1,.783-.444,5.536,5.536,0,0,1,3.68.082,1.983,1.983,0,0,1,.742.457.618.618,0,0,1-.109,1.044,3.689,3.689,0,0,1-1.419.494A4.125,4.125,0,0,1,2320.21,1367.443Z" transform="translate(-126.716 -79.991)" fill="#fff"/><path d="M2322.092,1363.437a1.937,1.937,0,0,0-1.448-1.215,5.813,5.813,0,0,0-3.605,0,1.839,1.839,0,0,0-1.226.977.834.834,0,0,1,.117-.82,2.035,2.035,0,0,1,1.043-.747,5.427,5.427,0,0,1,4.076.1,2.231,2.231,0,0,1,.879.63A.961.961,0,0,1,2322.092,1363.437Z" transform="translate(-125.703 -77.203)" fill="#fff"/><path d="M2268.237,1306.585a5.192,5.192,0,0,1,1.713.2,2.075,2.075,0,0,1,.413.181c.382.233.4.467.055.752a4.65,4.65,0,0,1-2.115.915,5.927,5.927,0,0,1-2.933-.079,2.458,2.458,0,0,1-.579-.256.332.332,0,0,1-.111-.552,1.77,1.77,0,0,1,.72-.537A6.868,6.868,0,0,1,2268.237,1306.585Z" transform="translate(-87.472 -36.342)" fill="#fff"/><path d="M2263.341,1304.986a.857.857,0,0,1,.251-.934,3.63,3.63,0,0,1,1.707-.934,6.087,6.087,0,0,1,3.554-.043,1.952,1.952,0,0,1,.811.457.776.776,0,0,1,.257.673,2.97,2.97,0,0,0-2.089-.709,7.581,7.581,0,0,0-3.322.551A2.226,2.226,0,0,0,2263.341,1304.986Z" transform="translate(-86.511 -33.537)" fill="#fff"/><path d="M2415.4,1306.607a7.717,7.717,0,0,1,2.713.379c.223.082.551.151.563.39.01.205-.3.328-.5.437a4.883,4.883,0,0,1-2.6.428,6.482,6.482,0,0,1-1.992-.336,2.443,2.443,0,0,1-.64-.335c-.235-.179-.234-.295.017-.463a3.243,3.243,0,0,1,1.317-.417A6.763,6.763,0,0,1,2415.4,1306.607Z" transform="translate(-198.177 -36.358)" fill="#fff"/><path d="M2417.979,1303.722c-1.472-1.013-5.545-.956-6.35.036a.655.655,0,0,1,.228-.809,2.88,2.88,0,0,1,1.415-.641,6.31,6.31,0,0,1,3.46.2,2.5,2.5,0,0,1,.959.562A.892.892,0,0,1,2417.979,1303.722Z" transform="translate(-197.278 -33.033)" fill="#fff"/><path d="M2412.2,1283.381a6.751,6.751,0,0,1,2.472.352c.244.089.607.171.612.418s-.352.348-.59.452a5.652,5.652,0,0,1-2.729.392,5.487,5.487,0,0,1-2.019-.469,3.125,3.125,0,0,1-.291-.161c-.371-.231-.367-.368.03-.573a4.568,4.568,0,0,1,1.757-.407C2411.695,1283.364,2411.948,1283.381,2412.2,1283.381Z" transform="translate(-195.648 -19.002)" fill="#fff"/><path d="M2414.711,1280.755c-1.833-1.012-5.175-1.02-6.343.009a.615.615,0,0,1,.152-.663,2.122,2.122,0,0,1,.991-.558,6.559,6.559,0,0,1,4.078.1,2.376,2.376,0,0,1,.813.458A.714.714,0,0,1,2414.711,1280.755Z" transform="translate(-194.861 -15.934)" fill="#fff"/><path d="M2352.929,1369.231a5.171,5.171,0,0,1-1.949-.352,3.021,3.021,0,0,1-.628-.36c-.394-.3-.389-.458.069-.676a5.638,5.638,0,0,1,2.815-.405,5.485,5.485,0,0,1,1.716.335c.3.118.72.221.72.555,0,.276-.408.4-.677.535A4.588,4.588,0,0,1,2352.929,1369.231Z" transform="translate(-151.336 -81.786)" fill="#fff"/><path d="M2349.076,1363.819a.932.932,0,0,1,.3-.988,2.875,2.875,0,0,1,1.453-.7,5.173,5.173,0,0,1,3.479.383,1.988,1.988,0,0,1,.681.544.926.926,0,0,1,.168.906,4.586,4.586,0,0,0-3.013-.878A4.641,4.641,0,0,0,2349.076,1363.819Z" transform="translate(-150.566 -77.737)" fill="#fff"/><path d="M2275.73,1285.088a5.443,5.443,0,0,1,1.663.238c.243.087.258.2.1.388a2.107,2.107,0,0,1-.913.633,7.892,7.892,0,0,1-4.024.376,1.939,1.939,0,0,1-.72-.3c-.166-.108-.151-.215-.023-.336a2.123,2.123,0,0,1,.674-.4A9.4,9.4,0,0,1,2275.73,1285.088Z" transform="translate(-92.805 -20.283)" fill="#fff"/><path d="M2270.932,1283.551a1.055,1.055,0,0,1,.509-.693,4.991,4.991,0,0,1,2.169-.784,5.8,5.8,0,0,1,2.461.087,1.573,1.573,0,0,1,.925.546A8.431,8.431,0,0,0,2270.932,1283.551Z" transform="translate(-92.219 -17.964)" fill="#fff"/><path d="M2216.007,1287.364a8.791,8.791,0,0,1-1.953-.227,2.04,2.04,0,0,1-.679-.323c-.293-.216-.286-.3.043-.481a3.207,3.207,0,0,1,1.038-.319,9.012,9.012,0,0,1,3.524.088,2.063,2.063,0,0,1,.778.324c.157.117.168.234,0,.361a2.474,2.474,0,0,1-1,.4A10.106,10.106,0,0,1,2216.007,1287.364Z" transform="translate(-49.063 -20.877)" fill="#fff"/><path d="M2212.55,1283.521c.031-.282.263-.446.5-.593a3.933,3.933,0,0,1,1.692-.517,6.42,6.42,0,0,1,2.868.266,2.422,2.422,0,0,1,.74.4.681.681,0,0,1,.3.519A7.9,7.9,0,0,0,2212.55,1283.521Z" transform="translate(-48.606 -18.246)" fill="#fff"/><path d="M2342.125,1284a8.317,8.317,0,0,1-2.16-.231,2.7,2.7,0,0,1-.765-.352c-.215-.138-.144-.224.033-.3a4.013,4.013,0,0,1,1.322-.305,10.064,10.064,0,0,1,3.489.229c.165.043.322.115.483.175.212.078.182.167.017.275a3.576,3.576,0,0,1-1.782.512C2342.55,1284.009,2342.337,1284,2342.125,1284Z" transform="translate(-143.118 -18.536)" fill="#fff"/><path d="M2344.136,1280.1a9.321,9.321,0,0,0-6.028-.067c-.058-.27.149-.437.365-.581a3.077,3.077,0,0,1,1.128-.418,6.545,6.545,0,0,1,3.666.258,1.939,1.939,0,0,1,.646.386A.552.552,0,0,1,2344.136,1280.1Z" transform="translate(-142.396 -15.651)" fill="#fff"/><path d="M2410.729,1265.334a8.615,8.615,0,0,1,2.658.312c.153.049.4.1.4.224,0,.183-.241.249-.412.3a8.486,8.486,0,0,1-2.8.186,6.493,6.493,0,0,1-1.638-.283c-.169-.056-.426-.113-.425-.286,0-.192.271-.2.436-.246A6.437,6.437,0,0,1,2410.729,1265.334Z" transform="translate(-194.998 -5.525)" fill="#fff"/><path d="M2407.812,1262.958a1,1,0,0,1,.641-.547,5.475,5.475,0,0,1,2.5-.338,5.178,5.178,0,0,1,1.82.409,1.057,1.057,0,0,1,.644.583A9.265,9.265,0,0,0,2407.812,1262.958Z" transform="translate(-194.475 -3.076)" fill="#fff"/><path d="M2471.75,1285.658a9.551,9.551,0,0,1-2.217-.214,2.01,2.01,0,0,1-.665-.275c-.135-.091-.123-.156.019-.227a2.887,2.887,0,0,1,.929-.249,9.2,9.2,0,0,1,3.659.2c.178.049.468.083.463.263s-.288.241-.477.3A6.508,6.508,0,0,1,2471.75,1285.658Z" transform="translate(-240.015 -19.917)" fill="#fff"/><path d="M2467.923,1282.166c-.034-.247.173-.375.366-.5a3.411,3.411,0,0,1,1.5-.446,6.284,6.284,0,0,1,2.953.318,1.849,1.849,0,0,1,.6.348.481.481,0,0,1,.21.384A8.564,8.564,0,0,0,2467.923,1282.166Z" transform="translate(-239.378 -17.362)" fill="#fff"/><path d="M2483.616,1301.908a2.359,2.359,0,0,1-1.273.581,6.83,6.83,0,0,1-3.178-.136,2.488,2.488,0,0,1-.861-.432c-.149-.119-.14-.2.035-.272a4.092,4.092,0,0,1,1.293-.3,9.271,9.271,0,0,1,3.28.221A1.669,1.669,0,0,1,2483.616,1301.908Z" transform="translate(-247.057 -32.393)" fill="#fff"/><path d="M2477.94,1299.178a1.051,1.051,0,0,1,.617-.479,4.986,4.986,0,0,1,2.016-.344,5.557,5.557,0,0,1,2.22.4,1.333,1.333,0,0,1,.713.569A8.834,8.834,0,0,0,2477.94,1299.178Z" transform="translate(-246.863 -30.194)" fill="#fff"/><path d="M2197.089,1317.37a5.262,5.262,0,0,1,2.018.323c.209.087.49.159.493.428s-.278.354-.489.428a5.886,5.886,0,0,1-3.8.058,2.091,2.091,0,0,1-.605-.336c-.2-.147-.166-.272.015-.4a2.45,2.45,0,0,1,.864-.349A6.309,6.309,0,0,1,2197.089,1317.37Z" transform="translate(-35.176 -44.399)" fill="#fff"/><path d="M2193.915,1315.3a.967.967,0,0,1,.558-.7,3.979,3.979,0,0,1,1.619-.46,5.256,5.256,0,0,1,2.558.329,1.589,1.589,0,0,1,.666.46.494.494,0,0,1,.094.575,1.7,1.7,0,0,0-1.1-.661,7.171,7.171,0,0,0-3.274-.042A2.534,2.534,0,0,0,2193.915,1315.3Z" transform="translate(-34.684 -41.962)" fill="#fff"/><path d="M2486.138,1312.664a5.621,5.621,0,0,1,1.99.344c.211.086.491.166.49.433s-.292.346-.5.41a5.843,5.843,0,0,1-3.777-.094c-.211-.077-.494-.167-.482-.438.011-.249.289-.317.493-.392A5.275,5.275,0,0,1,2486.138,1312.664Z" transform="translate(-251.282 -40.883)" fill="#fff"/><path d="M2487.661,1311.679a1.126,1.126,0,0,0-.757-.684,6.112,6.112,0,0,0-2.591-.328,4.969,4.969,0,0,0-1.132.186,1.306,1.306,0,0,0-.97.721c-.2-.3-.047-.485.153-.636a2.982,2.982,0,0,1,1.438-.509,6.372,6.372,0,0,1,3.074.268,1.883,1.883,0,0,1,.678.387A.415.415,0,0,1,2487.661,1311.679Z" transform="translate(-249.984 -39.157)" fill="#fff"/><path d="M2329.457,1301.312a3.884,3.884,0,0,1-2.019-.513c-.324-.2-.333-.431-.021-.656a2.574,2.574,0,0,1,1.252-.412,4.5,4.5,0,0,1,2.32.279c.265.112.6.24.58.582-.017.3-.357.346-.588.449A4.062,4.062,0,0,1,2329.457,1301.312Z" transform="translate(-134.246 -31.191)" fill="#fff"/><path d="M2326.057,1297.69a.719.719,0,0,1,.333-.806,2.825,2.825,0,0,1,1.433-.521,4.034,4.034,0,0,1,2.659.477.887.887,0,0,1,.519.951,3.118,3.118,0,0,0-2.456-.9A3.052,3.052,0,0,0,2326.057,1297.69Z" transform="translate(-133.379 -28.674)" fill="#fff"/><path d="M2355.666,1299.945a4.738,4.738,0,0,1,1.52.233,2.409,2.409,0,0,1,.36.155c.168.092.365.194.369.406s-.228.268-.384.332a4.226,4.226,0,0,1-3.542-.093c-.406-.192-.408-.44-.015-.667A3.516,3.516,0,0,1,2355.666,1299.945Z" transform="translate(-154.037 -31.382)" fill="#fff"/><path d="M2352.257,1297.454a.684.684,0,0,1,.239-.93,3.08,3.08,0,0,1,1.727-.573,4.235,4.235,0,0,1,2.072.327,1.7,1.7,0,0,1,.683.488.609.609,0,0,1,.094.74,3.052,3.052,0,0,0-2.41-.836A2.844,2.844,0,0,0,2352.257,1297.454Z" transform="translate(-152.905 -28.386)" fill="#fff"/><path d="M2326.389,1314.683a3.54,3.54,0,0,1-2.05-.491c-.159-.1-.389-.207-.376-.4.015-.216.267-.286.454-.349a5.153,5.153,0,0,1,3.612.085c.21.081.474.187.465.459s-.281.321-.476.409A3.665,3.665,0,0,1,2326.389,1314.683Z" transform="translate(-131.836 -41.25)" fill="#fff"/><path d="M2328.384,1311.021c-.747-.943-3.654-1.145-4.932-.32a.682.682,0,0,1,.354-.6,2.966,2.966,0,0,1,1.5-.522,4.258,4.258,0,0,1,2.362.358,1.562,1.562,0,0,1,.6.457A.623.623,0,0,1,2328.384,1311.021Z" transform="translate(-131.453 -38.555)" fill="#fff"/><path d="M2354.806,1313.3a4.744,4.744,0,0,1-1.944-.377c-.2-.1-.469-.195-.452-.471s.272-.365.49-.439a5.119,5.119,0,0,1,3.609.084c.2.079.457.184.459.432,0,.23-.25.32-.431.422A3.669,3.669,0,0,1,2354.806,1313.3Z" transform="translate(-153.086 -40.183)" fill="#fff"/><path d="M2356.373,1309.673c-1.081-.921-4.091-.938-5,.012a.8.8,0,0,1,.383-.72,3.15,3.15,0,0,1,1.741-.541,3.91,3.91,0,0,1,2.306.492A1.016,1.016,0,0,1,2356.373,1309.673Z" transform="translate(-152.314 -37.708)" fill="#fff"/><path d="M2201.51,1305.727a2.3,2.3,0,0,1,1.113-.366,7.017,7.017,0,0,1,2.907.14c.168.047.434.077.434.26s-.265.21-.433.255a6.555,6.555,0,0,1-3.372.02A1.707,1.707,0,0,1,2201.51,1305.727Z" transform="translate(-40.358 -35.362)" fill="#fff"/><path d="M2200.666,1303.644a.713.713,0,0,1,.449-.484,3.784,3.784,0,0,1,1.314-.338,6.028,6.028,0,0,1,2.721.263,1.118,1.118,0,0,1,.55.359.2.2,0,0,1,0,.276c-.1.08-.12-.062-.174-.1a2.57,2.57,0,0,0-1.31-.421,8.264,8.264,0,0,0-2.715.089A2.229,2.229,0,0,0,2200.666,1303.644Z" transform="translate(-39.728 -33.497)" fill="#fff"/><path d="M2336.417,1267.475a2.125,2.125,0,0,1-.977.569,5.205,5.205,0,0,1-2.446.192,1.385,1.385,0,0,1-.264-.064c-.135-.052-.359-.05-.363-.208,0-.142.208-.2.342-.262a4.734,4.734,0,0,1,1.247-.354,6.171,6.171,0,0,1,2.047-.033A.892.892,0,0,1,2336.417,1267.475Z" transform="translate(-138.115 -6.953)" fill="#fff"/><path d="M2331.2,1265.547a.609.609,0,0,1,.32-.533,3.789,3.789,0,0,1,1.9-.629,4.027,4.027,0,0,1,1.621.114.813.813,0,0,1,.615.471A6.183,6.183,0,0,0,2331.2,1265.547Z" transform="translate(-137.245 -4.793)" fill="#fff"/><path d="M2357.166,1268.295a5.406,5.406,0,0,1,3.329-.406A4.585,4.585,0,0,1,2357.166,1268.295Z" transform="translate(-156.64 -7.362)" fill="#fff"/><path d="M2359.7,1265.6a6.47,6.47,0,0,0-3.237.17,1.927,1.927,0,0,0-.576.259c-.041.028-.076.116-.143.039a.143.143,0,0,1,0-.17.9.9,0,0,1,.409-.347,4.2,4.2,0,0,1,1.688-.433,3.622,3.622,0,0,1,1.41.114A.584.584,0,0,1,2359.7,1265.6Z" transform="translate(-155.555 -5.349)" fill="#fff"/></g><g transform="translate(835.513 -1175.348)"><path d="M2249.073,1398.6l-1.017.018a4.493,4.493,0,0,1-.962,0c-1.1-1.789-2.218-3.566-3.291-5.37-.589-.99-1.2-1.964-1.784-2.957a.454.454,0,0,0-.257-.251c-.573.048-1.147.007-1.721.022a.941.941,0,0,0-.374.028l-2.054.019c-.573.048-1.147.008-1.721.023a.923.923,0,0,0-.374.028l-2.055.019c-.573.047-1.146.007-1.719.022a.905.905,0,0,0-.374.028l-2.057.019c-.572.046-1.146.007-1.718.022a.894.894,0,0,0-.373.029l-2.058.019c-.573.046-1.146.007-1.719.022a.9.9,0,0,0-.373.029l-2.058.019c-.551.047-1.1.006-1.654.021a.968.968,0,0,0-.375.028l-2.051.019c-.361.071-.731-.035-1.091.058a1.8,1.8,0,0,0-.02.6c-.078.4.016.8-.05,1.2l-.018,1.157c-.08.4.014.8-.05,1.194l-.02,1.222c-.078.4.016.8-.051,1.2q-.012.34-.024.68c0,.1.017.213-.129.234-.62.047-1.24.007-1.861.022a.953.953,0,0,0-.375.028l-2.26.019c-.62.048-1.241.007-1.862.022a.958.958,0,0,0-.375.028l-2.259.019c-.642.049-1.284.007-1.926.023a.9.9,0,0,0-.374.029l-2.2.018c-.642.049-1.284.006-1.926.022a.894.894,0,0,0-.373.029l-2.2.018c-.641.049-1.284.006-1.926.023a.893.893,0,0,0-.374.028,4.658,4.658,0,0,0-.585,0c-.284.032-.366-.09-.436-.357-.583-2.257-1.193-4.507-1.781-6.762-.062-.24-.171-.307-.4-.286-.263.023-.529.019-.794.027-.466.068-.937-.029-1.4.051l-1.365.019c-.443.064-.892-.027-1.335.05l-1.362.019c-.444.064-.894-.027-1.337.05l-1.36.019c-.465.067-.936-.031-1.4.051l-1.3.018c-.466.068-.937-.03-1.4.051l-1.365.019c-.443.064-.892-.028-1.334.05l-1.364.019c-.444.064-.893-.027-1.336.05l-1.361.019c-.465.067-.936-.031-1.4.051l-1.3.018c-.465.067-.936-.03-1.4.051-.4,0-.8.01-1.205,0-.17,0-.235.095-.306.223-.817,1.476-1.641,2.949-2.457,4.426-.429.777-.845,1.562-1.268,2.343-.157.205-.4.032-.579.129l-3.5.019c-1.024.048-2.048.007-3.071.022a1.074,1.074,0,0,0-.41.028c-1.013,0-2.03-.046-3.039.021a1.632,1.632,0,0,1-1.582-.959,9.777,9.777,0,0,1-.792-2.4c-.356-1.109-.643-2.241-.957-3.364q-.6-2.152-1.2-4.305c-.066-.234-.144-.465-.234-.753h4.716a1.4,1.4,0,0,1,.412-.02l35.476,0a1.18,1.18,0,0,0,.445-.027c1.439.006,2.879.017,4.318.016q7.224,0,14.447-.015,8.624-.007,17.247-.009c.115,0,.23-.008.345-.012a1.4,1.4,0,0,1,.412-.02l35.477,0a1.182,1.182,0,0,0,.445-.027c.068.006.137.016.205.017.58.008.586.007.6.615a10.762,10.762,0,0,1-.278,1.857c-.206,1.28-.437,2.557-.656,3.834q-.431,2.5-.861,5.008c-.253.1-.526-.019-.781.068l-1.019.019c-.35.066-.708-.028-1.057.05l-1.018.019c-.35.066-.708-.028-1.058.051l-1.017.019c-.351.066-.708-.028-1.058.051l-1.017.018c-.351.066-.708-.028-1.058.051l-1.017.019C2249.781,1398.615,2249.423,1398.521,2249.073,1398.6Z" transform="translate(0 -91.766)" fill="#5e5b5c"/><g transform="translate(2147.624 1257.937)"><path d="M2250.648,1358.894a7.958,7.958,0,0,0-6.829.76,2.947,2.947,0,0,0-.922.873,1.61,1.61,0,0,0,.194,2.192,2.872,2.872,0,0,0,1.031.67,6.927,6.927,0,0,0,2.534.43,8.145,8.145,0,0,0,4.073-1,3.274,3.274,0,0,0,1.313-1.242,1.591,1.591,0,0,0-.243-1.942A2.737,2.737,0,0,0,2250.648,1358.894Z" transform="translate(-2215.296 -1329.485)" fill="none"/><path d="M2276.888,1281.415a3.293,3.293,0,0,0-.917-.387,7.392,7.392,0,0,0-3.185-.025,5.176,5.176,0,0,0-2.51,1.069,1.144,1.144,0,0,0,.42,2.072,7.552,7.552,0,0,0,2.15.324,9.711,9.711,0,0,0,1.738-.2,8.592,8.592,0,0,0,2.327-.834c.271-.153.575-.336.58-.68A1.381,1.381,0,0,0,2276.888,1281.415Z" transform="translate(-2234.671 -1274.241)" fill="none"/><path d="M2262,1328.269a5.92,5.92,0,0,0-2.484-.486,7.7,7.7,0,0,0-2.18.306,4.778,4.778,0,0,0-2.366,1.346,1.586,1.586,0,0,0-.3,1.789,2.015,2.015,0,0,0,1.482,1.12,8.008,8.008,0,0,0,6.107-.854A1.736,1.736,0,0,0,2262,1328.269Z" transform="translate(-2223.81 -1307.655)" fill="none"/><path d="M2268.815,1301.956a7.357,7.357,0,0,0-5.519.637,2.511,2.511,0,0,0-.969.869,1.2,1.2,0,0,0,.123,1.525,2.456,2.456,0,0,0,1.432.834,6.521,6.521,0,0,0,1.511.144,8.5,8.5,0,0,0,3.617-.765,2.414,2.414,0,0,0,1.168-1.129,1.188,1.188,0,0,0-.227-1.484A2.506,2.506,0,0,0,2268.815,1301.956Z" transform="translate(-2229.215 -1289.078)" fill="none"/><path d="M2321.257,1360.773a6.351,6.351,0,0,0-2.946-.619,4.7,4.7,0,0,0-.926.082,4.133,4.133,0,0,0-2.328,1.032,1.418,1.418,0,0,0-.091,2.072,3.2,3.2,0,0,0,1.363.971,6.837,6.837,0,0,0,3.5.307,3.93,3.93,0,0,0,2.26-1.091,1.426,1.426,0,0,0,.048-2.1A2.95,2.95,0,0,0,2321.257,1360.773Z" transform="translate(-2266.55 -1330.696)" fill="none"/><path d="M2354.675,1298.281a2.582,2.582,0,0,0,1.814-.942,1.1,1.1,0,0,0,.011-1.5,2.383,2.383,0,0,0-.957-.66,5.393,5.393,0,0,0-2.948-.3,3.249,3.249,0,0,0-1.7.711,1.12,1.12,0,0,0-.057,1.774,3.223,3.223,0,0,0,2.093.938c.056.024.113.048.17.07a1.061,1.061,0,0,0-.305.049,3.653,3.653,0,0,0-2.082.733,1.141,1.141,0,0,0-.03,1.869,2.513,2.513,0,0,0,.763.462,5.6,5.6,0,0,0,4.141-.007,1.39,1.39,0,0,0,.975-1.222,1.288,1.288,0,0,0-.73-1.2,4.265,4.265,0,0,0-2.055-.633c-.032,0-.064,0-.1-.005a.653.653,0,0,0,.094-.042C2354.079,1298.337,2354.378,1298.321,2354.675,1298.281Z" transform="translate(-2291.932 -1284.171)" fill="none"/><path d="M2339.173,1277.863a4.09,4.09,0,0,0-1.665.63.941.941,0,0,0-.334,1.34,1.237,1.237,0,0,0,.79.663,9.215,9.215,0,0,0,5.763.135.986.986,0,0,0,.815-.994,1.119,1.119,0,0,0-.5-1.031,3.158,3.158,0,0,0-.789-.421,7.736,7.736,0,0,0-2.68-.444A9.36,9.36,0,0,0,2339.173,1277.863Z" transform="translate(-2282.546 -1272.034)" fill="none"/><path d="M2188.585,1333.507a8.454,8.454,0,0,0-4.416-.381,4.864,4.864,0,0,0-2.545,1.058,1.437,1.437,0,0,0-.02,2.3,3.881,3.881,0,0,0,1.541.886,11.158,11.158,0,0,0,2.656.349c.4-.04.945-.071,1.478-.149a4.292,4.292,0,0,0,2.575-1.2,1.381,1.381,0,0,0,0-2.059A3.388,3.388,0,0,0,2188.585,1333.507Z" transform="translate(-2171.506 -1311.367)" fill="none"/><path d="M2218.4,1281.98a3.134,3.134,0,0,0-.894-.439,7.69,7.69,0,0,0-4.387-.082,3.046,3.046,0,0,0-1.42.741.962.962,0,0,0-.219,1.192,1.274,1.274,0,0,0,.755.708,8.362,8.362,0,0,0,4.23.479,5.018,5.018,0,0,0,1.88-.638A1.086,1.086,0,0,0,2218.4,1281.98Z" transform="translate(-2193.092 -1274.481)" fill="none"/><path d="M2198.873,1313.506a4.986,4.986,0,0,0-2.093-.526,5.465,5.465,0,0,0-3.326.681,1.112,1.112,0,0,0-.471,1.622,1.31,1.31,0,0,0,.825.635,7.365,7.365,0,0,0,2.607.425,5.417,5.417,0,0,0,2.468-.548c.462-.243.89-.553.9-1.13C2199.785,1314.07,2199.344,1313.758,2198.873,1313.506Z" transform="translate(-2179.886 -1297.106)" fill="none"/><path d="M2205.707,1302.285a2.317,2.317,0,0,0-.835-.4,7.632,7.632,0,0,0-3.792-.083,2.761,2.761,0,0,0-1.165.5.656.656,0,0,0-.127,1.02,1.351,1.351,0,0,0,.759.507,7.158,7.158,0,0,0,2.215.284,6.791,6.791,0,0,0,1.342-.084,3.481,3.481,0,0,0,1.6-.585A.663.663,0,0,0,2205.707,1302.285Z" transform="translate(-2184.721 -1289.02)" fill="none"/><path d="M2425.273,1357.343a8.281,8.281,0,0,0-5.708-.129,3.545,3.545,0,0,0-1.808,1.209,1.592,1.592,0,0,0-.217,1.661,2.471,2.471,0,0,0,1.211,1.312,8.53,8.53,0,0,0,3.853.857,6.37,6.37,0,0,0,1.523-.149,4.677,4.677,0,0,0,2.707-1.316,1.7,1.7,0,0,0,.024-2.374A3.823,3.823,0,0,0,2425.273,1357.343Z" transform="translate(-2339.752 -1328.287)" fill="none"/><path d="M2481,1300.21a6.257,6.257,0,0,0,1.986-.407.821.821,0,0,0,.524-.469,1.119,1.119,0,0,0-.466-1.361,3.078,3.078,0,0,0-.8-.393,7.72,7.72,0,0,0-3.447-.295,3.692,3.692,0,0,0-1.929.681.99.99,0,0,0,.2,1.733,3.369,3.369,0,0,0,.485.179,8.586,8.586,0,0,0,2.66.335C2480.47,1300.214,2480.737,1300.235,2481,1300.21Z" transform="translate(-2381.78 -1285.897)" fill="none"/><path d="M2473.141,1282.516a.934.934,0,0,0,.191-1.717,2.892,2.892,0,0,0-.765-.392,7.53,7.53,0,0,0-3.269-.352,4.446,4.446,0,0,0-2.032.6.914.914,0,0,0,.048,1.684,3.124,3.124,0,0,0,.308.153,7.115,7.115,0,0,0,2.8.54A6.777,6.777,0,0,0,2473.141,1282.516Z" transform="translate(-2374.868 -1273.651)" fill="none"/><path d="M2482.111,1311.807a7,7,0,0,0,2.621.417,5.9,5.9,0,0,0,1.122-.082,3.91,3.91,0,0,0,1.705-.61.839.839,0,0,0,.057-1.465,2.541,2.541,0,0,0-.749-.42,7.622,7.622,0,0,0-4.046-.292,3.112,3.112,0,0,0-1.542.643.788.788,0,0,0-.024,1.3A2.533,2.533,0,0,0,2482.111,1311.807Z" transform="translate(-2384.969 -1294.436)" fill="none"/><path d="M2421.507,1330.231a1.692,1.692,0,0,0,.212-2.853,3.914,3.914,0,0,0-1.115-.681,7.488,7.488,0,0,0-4-.444,4.9,4.9,0,0,0-2.468.989,1.651,1.651,0,0,0-.489,2.186,1.937,1.937,0,0,0,.831.8,6.51,6.51,0,0,0,3.22.9A6.784,6.784,0,0,0,2421.507,1330.231Z" transform="translate(-2336.928 -1306.499)" fill="none"/><path d="M2489.525,1329.759a8.5,8.5,0,0,0-5.189-.291,3.835,3.835,0,0,0-1.983,1.057,1.286,1.286,0,0,0-.239,1.559,2.651,2.651,0,0,0,1.529,1.36,10.727,10.727,0,0,0,3.057.465,7.733,7.733,0,0,0,1.717-.149,4.6,4.6,0,0,0,2.3-1.017,1.39,1.39,0,0,0,.054-2.2A3.487,3.487,0,0,0,2489.525,1329.759Z" transform="translate(-2385.701 -1308.66)" fill="none"/><path d="M2411.371,1281.86a9.023,9.023,0,0,0,2.791-.425,1.4,1.4,0,0,0,.928-1.288,1.2,1.2,0,0,0-.624-1.119,2.883,2.883,0,0,0-.66-.37,7.775,7.775,0,0,0-4.543-.352,3.57,3.57,0,0,0-1.683.75,1.039,1.039,0,0,0-.3,1.358,1.992,1.992,0,0,0,1.12.967A9.128,9.128,0,0,0,2411.371,1281.86Z" transform="translate(-2332.451 -1272.307)" fill="none"/><path d="M2354.124,1361.355a6.3,6.3,0,0,0-3.344-.452,4.421,4.421,0,0,0-2.1.728,1.491,1.491,0,0,0-.8,1.5,1.771,1.771,0,0,0,1.075,1.49,8.239,8.239,0,0,0,3.177.566,7.551,7.551,0,0,0,1.823-.3,1.911,1.911,0,0,0,1.413-1.083,1.471,1.471,0,0,0-.191-1.694A3.007,3.007,0,0,0,2354.124,1361.355Z" transform="translate(-2290.26 -1331.194)" fill="none"/><path d="M2339.378,1333.673c.687-.208,1.277-.492,1.337-1.39a1.674,1.674,0,0,0-.381-1.363,3.448,3.448,0,0,0-1.3-.83,8.458,8.458,0,0,0-3.058-.536,9.4,9.4,0,0,0-1.8.195,4.16,4.16,0,0,0-2.06.979,1.333,1.333,0,0,0-.291,1.662,1.974,1.974,0,0,0,1.142,1.078,7.61,7.61,0,0,0,2.1.512A10.386,10.386,0,0,0,2339.378,1333.673Z" transform="translate(-2278.729 -1308.915)" fill="none"/><path d="M2407.236,1263.223a5.581,5.581,0,0,0,2.372.665,6.6,6.6,0,0,0,3.535-.556.884.884,0,0,0,.228-1.526,2.435,2.435,0,0,0-.767-.456,7.3,7.3,0,0,0-2.678-.456,5.607,5.607,0,0,0-2.721.625A.909.909,0,0,0,2407.236,1263.223Z" transform="translate(-2332.086 -1260.042)" fill="none"/><path d="M2414.593,1304.906a9.327,9.327,0,0,0,3.024-.542,1.376,1.376,0,0,0,.457-2.1,2.849,2.849,0,0,0-1.231-.8,7.563,7.563,0,0,0-4.115-.3,3.522,3.522,0,0,0-1.943.9,1.1,1.1,0,0,0-.089,1.557,2.2,2.2,0,0,0,.887.69A7.708,7.708,0,0,0,2414.593,1304.906Z" transform="translate(-2334.783 -1288.6)" fill="none"/><path d="M2262.011,1294.014q-.79-1.91-1.571-3.824-1.977-4.872-3.947-9.746-2.2-5.426-4.414-10.848-2.309-5.7-4.6-11.4a.362.362,0,0,0-.412-.259c-.54.017-1.081.008-1.622.009a.9.9,0,0,1-.373.029c-.526.015-1.054-.024-1.58.022l-1.982.02a.963.963,0,0,1-.375.028c-.528.015-1.058-.026-1.585.023l-1.914.019a.965.965,0,0,1-.375.028c-.528.015-1.057-.026-1.584.023l-1.914.018a.962.962,0,0,1-.375.028c-.528.015-1.057-.026-1.584.023l-1.915.018a.949.949,0,0,1-.375.028c-.528.015-1.056-.026-1.583.023l-1.916.018a.942.942,0,0,1-.374.028c-.528.015-1.056-.026-1.583.023l-1.916.018a.936.936,0,0,1-.374.028c-.528.015-1.056-.025-1.583.022l-1.917.019a.934.934,0,0,1-.374.028c-.527.015-1.055-.025-1.582.022l-1.917.019a.935.935,0,0,1-.374.028c-.527.015-1.055-.025-1.582.022l-1.918.019a.909.909,0,0,1-.373.028c-.527.015-1.055-.025-1.581.022l-1.92.018a.893.893,0,0,1-.373.028c-.527.015-1.054-.024-1.58.022l-1.92.019a.9.9,0,0,1-.373.029c-.526.015-1.054-.024-1.58.022l-1.92.019a.9.9,0,0,1-.373.029c-.527.015-1.054-.024-1.58.022l-1.92.019a.9.9,0,0,1-.373.028c-.527.015-1.054-.024-1.58.022l-1.92.019a.893.893,0,0,1-.373.028c-.526.015-1.054-.024-1.58.022l-1.983.02a.962.962,0,0,1-.375.028c-.528.015-1.057-.026-1.584.023l-1.914.018a.962.962,0,0,1-.375.028c-.528.015-1.057-.026-1.584.023l-1.915.018a.952.952,0,0,1-.374.028c-.528.015-1.057-.026-1.584.023l-1.915.019a.951.951,0,0,1-.375.028c-.528.015-1.056-.026-1.583.022l-1.916.019a.944.944,0,0,1-.375.028c-.527.015-1.056-.025-1.583.022-.4.008-.807.04-1.208.02a.9.9,0,0,0-.991.551c-.635,1.208-1.31,2.4-2,3.577-.717,1.214-1.368,2.467-2.059,3.7-.669,1.192-1.359,2.373-2.028,3.564-.625,1.112-1.23,2.235-1.854,3.347-.526.936-1.074,1.86-1.6,2.8-.5.886-.97,1.785-1.465,2.672-.452.809-.928,1.605-1.381,2.414-.491.876-.964,1.763-1.455,2.639-.453.807-.927,1.6-1.381,2.411-.492.877-.964,1.765-1.457,2.641-.452.807-.925,1.6-1.38,2.408-.517.916-1.024,1.837-1.536,2.756.006.325.259.161.379.161q16.415.014,32.829.008a1.056,1.056,0,0,0,.343-.02c.115,0,.23-.012.344-.012q8.642,0,17.283-.009,7.207-.005,14.414-.015c1.44,0,2.879.011,4.319.017a1.148,1.148,0,0,1,.445-.028l35.474,0a1.425,1.425,0,0,0,.412-.02l7.257-.015C2262.369,1294.871,2262.366,1294.874,2262.011,1294.014Zm-95.7-11.071a4.29,4.29,0,0,1-2.575,1.2c-.533.078-1.074.109-1.478.149a11.162,11.162,0,0,1-2.656-.349,3.882,3.882,0,0,1-1.541-.886,1.437,1.437,0,0,1,.02-2.3,4.863,4.863,0,0,1,2.545-1.058,8.454,8.454,0,0,1,4.416.381,3.383,3.383,0,0,1,1.272.807A1.381,1.381,0,0,1,2166.315,1282.943Zm.646-6.316a5.415,5.415,0,0,1-2.467.548,7.365,7.365,0,0,1-2.608-.425,1.309,1.309,0,0,1-.825-.635,1.112,1.112,0,0,1,.471-1.622,5.463,5.463,0,0,1,3.326-.681,4.98,4.98,0,0,1,2.093.526c.471.251.912.563.906,1.16C2167.852,1276.074,2167.424,1276.385,2166.961,1276.627Zm1.989-4.27a3.487,3.487,0,0,1-1.6.585,6.791,6.791,0,0,1-1.342.084,7.164,7.164,0,0,1-2.215-.284,1.351,1.351,0,0,1-.759-.507.656.656,0,0,1,.127-1.02,2.76,2.76,0,0,1,1.165-.5,7.634,7.634,0,0,1,3.792.083,2.316,2.316,0,0,1,.836.4A.663.663,0,0,1,2168.95,1272.357Zm4.263-4.961a5.014,5.014,0,0,1-1.88.638,8.36,8.36,0,0,1-4.229-.479,1.273,1.273,0,0,1-.755-.708.961.961,0,0,1,.219-1.192,3.046,3.046,0,0,1,1.42-.742,7.691,7.691,0,0,1,4.387.083,3.133,3.133,0,0,1,.894.439A1.086,1.086,0,0,1,2173.213,1267.4Zm11.5,22.632a3.271,3.271,0,0,1-1.313,1.242,8.145,8.145,0,0,1-4.074,1,6.921,6.921,0,0,1-2.533-.43,2.867,2.867,0,0,1-1.031-.67,1.61,1.61,0,0,1-.194-2.192,2.953,2.953,0,0,1,.922-.873,7.957,7.957,0,0,1,6.829-.76,2.734,2.734,0,0,1,1.15.741A1.591,1.591,0,0,1,2184.711,1290.029Zm1.7-8.256a8.008,8.008,0,0,1-6.107.854,2.015,2.015,0,0,1-1.482-1.12,1.586,1.586,0,0,1,.305-1.789,4.776,4.776,0,0,1,2.366-1.346,7.693,7.693,0,0,1,2.18-.306,5.919,5.919,0,0,1,2.484.486A1.736,1.736,0,0,1,2186.41,1281.773Zm2.519-8.843a2.413,2.413,0,0,1-1.168,1.129,8.5,8.5,0,0,1-3.617.765,6.523,6.523,0,0,1-1.511-.144,2.457,2.457,0,0,1-1.432-.834,1.2,1.2,0,0,1-.123-1.525,2.51,2.51,0,0,1,.969-.869,7.356,7.356,0,0,1,5.519-.637,2.509,2.509,0,0,1,1.136.631A1.188,1.188,0,0,1,2188.929,1272.93Zm1.278-5.8a8.592,8.592,0,0,1-2.327.834,9.7,9.7,0,0,1-1.738.2,7.547,7.547,0,0,1-2.15-.324,1.144,1.144,0,0,1-.42-2.072,5.176,5.176,0,0,1,2.51-1.069,7.4,7.4,0,0,1,3.185.024,3.294,3.294,0,0,1,.917.387,1.381,1.381,0,0,1,.6,1.343C2190.781,1266.8,2190.478,1266.981,2190.206,1267.133Zm19.609,5.044a4.262,4.262,0,0,1,2.055.633,1.287,1.287,0,0,1,.731,1.2,1.389,1.389,0,0,1-.975,1.222,5.6,5.6,0,0,1-4.141.007,2.506,2.506,0,0,1-.763-.462,1.141,1.141,0,0,1,.029-1.869,3.654,3.654,0,0,1,2.083-.733,1.059,1.059,0,0,1,.3-.049c-.057-.022-.114-.045-.17-.07a3.221,3.221,0,0,1-2.093-.938,1.119,1.119,0,0,1,.057-1.774,3.248,3.248,0,0,1,1.7-.711,5.393,5.393,0,0,1,2.949.3,2.384,2.384,0,0,1,.957.66,1.1,1.1,0,0,1-.011,1.5,2.581,2.581,0,0,1-1.814.942c-.3.04-.6.055-.894.082a.642.642,0,0,1-.095.042Zm-2.047-11.673a3.174,3.174,0,0,1,1.429-.647,5.49,5.49,0,0,1,2.628-.059,1.944,1.944,0,0,1,.229.072c.311.12.631.277.622.652a.9.9,0,0,1-.556.811,6.393,6.393,0,0,1-2.609.556,2.618,2.618,0,0,1-1.712-.367A.6.6,0,0,1,2207.768,1260.5Zm.91,3.584a3.175,3.175,0,0,1,.789.421,1.121,1.121,0,0,1,.5,1.031.986.986,0,0,1-.815.994,9.214,9.214,0,0,1-5.762-.135,1.236,1.236,0,0,1-.79-.663.941.941,0,0,1,.334-1.34,4.088,4.088,0,0,1,1.665-.63,9.359,9.359,0,0,1,1.4-.122A7.743,7.743,0,0,1,2208.678,1264.088Zm-8.029-3.539a1.944,1.944,0,0,1,.682-.52,5.74,5.74,0,0,1,3.8-.425,1.9,1.9,0,0,1,.632.269.922.922,0,0,1,0,1.583,5.353,5.353,0,0,1-1.921.63,6.933,6.933,0,0,1-1.25.089,6.082,6.082,0,0,1-1.089-.08,1.294,1.294,0,0,1-.884-.541A.737.737,0,0,1,2200.649,1260.549Zm2.859,30.22a3.929,3.929,0,0,1-2.26,1.091,6.839,6.839,0,0,1-3.5-.307,3.2,3.2,0,0,1-1.363-.971,1.418,1.418,0,0,1,.091-2.072,4.133,4.133,0,0,1,2.328-1.032,4.705,4.705,0,0,1,.926-.082,6.348,6.348,0,0,1,2.946.619,2.951,2.951,0,0,1,.883.655A1.427,1.427,0,0,1,2203.507,1290.769Zm-1.3-8.28a1.974,1.974,0,0,1-1.142-1.078,1.334,1.334,0,0,1,.291-1.662,4.16,4.16,0,0,1,2.06-.979,9.386,9.386,0,0,1,1.8-.195,8.454,8.454,0,0,1,3.058.536,3.453,3.453,0,0,1,1.3.83,1.674,1.674,0,0,1,.381,1.363c-.06.9-.65,1.183-1.337,1.39a10.386,10.386,0,0,1-4.3.306A7.607,7.607,0,0,1,2202.211,1282.489Zm10.871,8.056a1.91,1.91,0,0,1-1.413,1.083,7.548,7.548,0,0,1-1.823.3,8.241,8.241,0,0,1-3.177-.566,1.77,1.77,0,0,1-1.075-1.49,1.49,1.49,0,0,1,.8-1.5,4.419,4.419,0,0,1,2.1-.728,6.308,6.308,0,0,1,3.345.452,3.014,3.014,0,0,1,1.061.753A1.471,1.471,0,0,1,2213.082,1290.545Zm10-31.131a5.606,5.606,0,0,1,2.721-.625,7.3,7.3,0,0,1,2.678.456,2.435,2.435,0,0,1,.767.456.884.884,0,0,1-.228,1.526,6.6,6.6,0,0,1-3.535.556,5.583,5.583,0,0,1-2.372-.665A.909.909,0,0,1,2223.083,1259.414Zm-.292,6.631a1.04,1.04,0,0,1,.3-1.358,3.571,3.571,0,0,1,1.683-.75,7.772,7.772,0,0,1,4.542.352,2.887,2.887,0,0,1,.661.37,1.2,1.2,0,0,1,.624,1.119,1.4,1.4,0,0,1-.928,1.288,9.027,9.027,0,0,1-2.791.425,9.13,9.13,0,0,1-2.974-.479A1.992,1.992,0,0,1,2222.792,1266.046Zm1.088,6.916a1.1,1.1,0,0,1,.089-1.557,3.521,3.521,0,0,1,1.943-.9,7.562,7.562,0,0,1,4.115.3,2.849,2.849,0,0,1,1.231.8,1.376,1.376,0,0,1-.457,2.1,9.325,9.325,0,0,1-3.024.542,7.705,7.705,0,0,1-3.009-.592A2.2,2.2,0,0,1,2223.88,1272.961Zm.8,7.9a1.651,1.651,0,0,1,.49-2.186,4.9,4.9,0,0,1,2.468-.989,7.488,7.488,0,0,1,4,.444,3.911,3.911,0,0,1,1.115.681,1.692,1.692,0,0,1-.212,2.853,6.782,6.782,0,0,1-3.808.9,6.509,6.509,0,0,1-3.22-.9A1.938,1.938,0,0,1,2224.685,1280.866Zm10.363,9.573a4.677,4.677,0,0,1-2.707,1.316,6.357,6.357,0,0,1-1.523.149,8.53,8.53,0,0,1-3.853-.857,2.471,2.471,0,0,1-1.211-1.312,1.592,1.592,0,0,1,.217-1.661,3.547,3.547,0,0,1,1.808-1.209,8.281,8.281,0,0,1,5.708.129,3.823,3.823,0,0,1,1.585,1.072A1.7,1.7,0,0,1,2235.047,1290.438Zm5.364-23.81a.914.914,0,0,1-.048-1.684,4.441,4.441,0,0,1,2.032-.6,7.529,7.529,0,0,1,3.269.352,2.9,2.9,0,0,1,.765.392.933.933,0,0,1-.191,1.717,6.773,6.773,0,0,1-2.723.52,7.115,7.115,0,0,1-2.8-.54A3.119,3.119,0,0,1,2240.411,1266.629Zm2.835,5.112a.99.99,0,0,1-.2-1.733,3.689,3.689,0,0,1,1.929-.681,7.721,7.721,0,0,1,3.447.294,3.086,3.086,0,0,1,.8.393,1.118,1.118,0,0,1,.466,1.361.82.82,0,0,1-.524.469,6.258,6.258,0,0,1-1.986.407c-.263.024-.53,0-.795,0a8.59,8.59,0,0,1-2.659-.335A3.359,3.359,0,0,1,2243.247,1271.741Zm1.028,1.759a3.112,3.112,0,0,1,1.542-.643,7.622,7.622,0,0,1,4.047.292,2.539,2.539,0,0,1,.749.42.839.839,0,0,1-.057,1.465,3.909,3.909,0,0,1-1.705.61,5.9,5.9,0,0,1-1.122.082,7,7,0,0,1-2.621-.417,2.535,2.535,0,0,1-.857-.5A.788.788,0,0,1,2244.274,1273.5Zm8.711,8.52a4.6,4.6,0,0,1-2.3,1.018,7.749,7.749,0,0,1-1.717.149,10.732,10.732,0,0,1-3.057-.465,2.652,2.652,0,0,1-1.529-1.36,1.286,1.286,0,0,1,.239-1.559,3.836,3.836,0,0,1,1.982-1.057,8.505,8.505,0,0,1,5.19.291,3.49,3.49,0,0,1,1.25.783A1.39,1.39,0,0,1,2252.985,1282.02Z" transform="translate(-2147.966 -1257.937)" fill="#5e5b5c"/></g><path d="M2424.521,1367.594a10.8,10.8,0,0,1-3.1-.372,3.111,3.111,0,0,1-1.277-.724c-.27-.253-.272-.4.016-.647a3.044,3.044,0,0,1,1.384-.584,10.817,10.817,0,0,1,5.491.222,2.618,2.618,0,0,1,.975.5c.337.295.327.551-.034.816a4.418,4.418,0,0,1-2,.688A10.27,10.27,0,0,1,2424.521,1367.594Z" transform="translate(-193.943 -76.22)" fill="#5e5b5c"/><path d="M2418.687,1360.8a1.231,1.231,0,0,1,.118-1.3,2.839,2.839,0,0,1,1.423-1.048,7.816,7.816,0,0,1,6.013.139,2.937,2.937,0,0,1,1.3,1,1.318,1.318,0,0,1,.081,1.509,4,4,0,0,0-2.823-1.3,11.051,11.051,0,0,0-4.622.163A2.692,2.692,0,0,0,2418.687,1360.8Z" transform="translate(-192.95 -71.168)" fill="#5e5b5c"/><path d="M2248.405,1367.266a5.84,5.84,0,0,1-2.516-.414,3.032,3.032,0,0,1-.534-.312.664.664,0,0,1-.174-.971,1.983,1.983,0,0,1,.8-.7,8.649,8.649,0,0,1,6.16-.739,2.194,2.194,0,0,1,.893.436.714.714,0,0,1,.136,1.09,2.862,2.862,0,0,1-1.1.81A8.966,8.966,0,0,1,2248.405,1367.266Z" transform="translate(-69.443 -75.406)" fill="#5e5b5c"/><path d="M2252.725,1361.769a2.624,2.624,0,0,0-2.043-1.127,9.379,9.379,0,0,0-5.244.637,2.912,2.912,0,0,0-1.641,1.431,1.32,1.32,0,0,1,.2-1.126,3.12,3.12,0,0,1,1.222-1.045,7.825,7.825,0,0,1,5.83-.613,2.738,2.738,0,0,1,1.428.861A1,1,0,0,1,2252.725,1361.769Z" transform="translate(-68.523 -72.381)" fill="#5e5b5c"/><path d="M2337.824,1337.876a7.2,7.2,0,0,1-3.041-.572,3.321,3.321,0,0,1-.924-.595.263.263,0,0,1,0-.44,1.975,1.975,0,0,1,.744-.422,9.667,9.667,0,0,1,3.99-.376,7.337,7.337,0,0,1,2.347.518c.293.125.717.236.74.547.026.335-.384.509-.67.666A6.283,6.283,0,0,1,2337.824,1337.876Z" transform="translate(-132.58 -55.155)" fill="#5e5b5c"/><path d="M2332.831,1332.768a1.038,1.038,0,0,1,.424-1.062,4.136,4.136,0,0,1,1.944-.834,8.141,8.141,0,0,1,4.452.316,3.135,3.135,0,0,1,1.25.776,1.107,1.107,0,0,1,.336.815C2339.357,1331.337,2334.089,1331.434,2332.831,1332.768Z" transform="translate(-131.915 -51.794)" fill="#5e5b5c"/><path d="M2418.886,1331.692a8.8,8.8,0,0,1,3.08.532,2.374,2.374,0,0,1,.9.566.505.505,0,0,1-.013.814,3.082,3.082,0,0,1-1.692.79,9.369,9.369,0,0,1-4.609-.226,2.5,2.5,0,0,1-1.209-.765c-.283-.335-.266-.558.083-.851a3.588,3.588,0,0,1,1.574-.667A10.6,10.6,0,0,1,2418.886,1331.692Z" transform="translate(-190.525 -52.5)" fill="#5e5b5c"/><path d="M2422.9,1329.641a3.461,3.461,0,0,0-1.976-1.1,9.762,9.762,0,0,0-4.549-.06,3.415,3.415,0,0,0-1.783.907,1.441,1.441,0,0,1,.6-1.093,4.191,4.191,0,0,1,1.811-.809,7.142,7.142,0,0,1,4.4.375,3.185,3.185,0,0,1,1.007.656A1.453,1.453,0,0,1,2422.9,1329.641Z" transform="translate(-190.128 -49.376)" fill="#5e5b5c"/><path d="M2488.262,1336.437a9.546,9.546,0,0,1,2.793.415,2.846,2.846,0,0,1,.773.373c.421.305.413.605-.036.879a3.766,3.766,0,0,1-1.294.44,8.066,8.066,0,0,1-4.8-.444,4.717,4.717,0,0,1-.687-.393c-.264-.172-.221-.343-.02-.52a1.934,1.934,0,0,1,.63-.348A8.189,8.189,0,0,1,2488.262,1336.437Z" transform="translate(-240.128 -55.878)" fill="#5e5b5c"/><path d="M2483.324,1332.845a.915.915,0,0,1,0-1.173,2.37,2.37,0,0,1,1.135-.814,7.928,7.928,0,0,1,6.049.138,2.566,2.566,0,0,1,.948.677,1.035,1.035,0,0,1-.181,1.648,1.226,1.226,0,0,0-.772-.9,6.324,6.324,0,0,0-2.153-.578,9.56,9.56,0,0,0-3.8.242A2.086,2.086,0,0,0,2483.324,1332.845Z" transform="translate(-238.904 -51.528)" fill="#5e5b5c"/><path d="M2188.092,1342.349a6.624,6.624,0,0,1-2.956-.528,3.142,3.142,0,0,1-.425-.226c-.312-.2-.333-.454-.054-.7a2.329,2.329,0,0,1,.949-.473,9.273,9.273,0,0,1,5.005.005,2.563,2.563,0,0,1,.81.375c.428.3.423.613-.031.867a5.965,5.965,0,0,1-2.436.677C2188.668,1342.37,2188.379,1342.349,2188.092,1342.349Z" transform="translate(-26.32 -58.471)" fill="#5e5b5c"/><path d="M2182.512,1336.878a1.04,1.04,0,0,1,.12-1.577,3.815,3.815,0,0,1,1.708-.861,7.929,7.929,0,0,1,5.141.287,2.669,2.669,0,0,1,1.04.722.99.99,0,0,1-.025,1.433,2.8,2.8,0,0,0-2.19-1.188,9.7,9.7,0,0,0-4.311.156A2.123,2.123,0,0,0,2182.512,1336.878Z" transform="translate(-24.714 -54.247)" fill="#5e5b5c"/><path d="M2259.319,1335.122a4.931,4.931,0,0,1-2.27-.426,2.324,2.324,0,0,1-.627-.422.563.563,0,0,1-.083-.853,2.3,2.3,0,0,1,.9-.735,8.027,8.027,0,0,1,5.478-.618,2.3,2.3,0,0,1,.929.442.626.626,0,0,1,.122,1.009,4.123,4.123,0,0,1-2.19,1.3A7.526,7.526,0,0,1,2259.319,1335.122Z" transform="translate(-77.372 -52.607)" fill="#5e5b5c"/><path d="M2263.8,1330.115a4.833,4.833,0,0,0-2.705-.687,8.9,8.9,0,0,0-3.253.535,4.714,4.714,0,0,0-1.572.912c-.07.013-.107-.006-.083-.085a1.868,1.868,0,0,1,.767-.816,6.776,6.776,0,0,1,5.845-.7,2.027,2.027,0,0,1,1.079.761C2263.9,1330.11,2263.87,1330.13,2263.8,1330.115Z" transform="translate(-77.373 -50.52)" fill="#5e5b5c"/><path d="M2255.947,1335.428l.083.085-.185.232A.339.339,0,0,1,2255.947,1335.428Z" transform="translate(-77.13 -55.159)" fill="#33b2f0"/><path d="M2282.627,1332.9l.078-.078c.085.048.1.134.137.227A.257.257,0,0,1,2282.627,1332.9Z" transform="translate(-96.196 -53.302)" fill="#71c9f5"/><path d="M2320.642,1367.782a6.165,6.165,0,0,1-2.753-.563,2.629,2.629,0,0,1-.468-.29.667.667,0,0,1-.052-1.095,2.179,2.179,0,0,1,.893-.506,6.306,6.306,0,0,1,4.193.094,2.26,2.26,0,0,1,.846.52.7.7,0,0,1-.124,1.189,4.2,4.2,0,0,1-1.617.563A4.7,4.7,0,0,1,2320.642,1367.782Z" transform="translate(-120.741 -76.22)" fill="#5e5b5c"/><path d="M2322.975,1363.737a2.208,2.208,0,0,0-1.65-1.384,6.621,6.621,0,0,0-4.107,0,2.1,2.1,0,0,0-1.4,1.114.951.951,0,0,1,.133-.935,2.319,2.319,0,0,1,1.189-.851,6.183,6.183,0,0,1,4.644.115,2.542,2.542,0,0,1,1,.717A1.1,1.1,0,0,1,2322.975,1363.737Z" transform="translate(-119.776 -73.562)" fill="#5e5b5c"/><path d="M2268.747,1306.585a5.91,5.91,0,0,1,1.952.226,2.356,2.356,0,0,1,.471.207c.435.265.456.531.063.857a5.294,5.294,0,0,1-2.409,1.043,6.754,6.754,0,0,1-3.342-.09,2.793,2.793,0,0,1-.66-.292.378.378,0,0,1-.127-.629,2.018,2.018,0,0,1,.821-.611A7.825,7.825,0,0,1,2268.747,1306.585Z" transform="translate(-83.348 -34.628)" fill="#5e5b5c"/><path d="M2263.348,1305.286a.977.977,0,0,1,.286-1.064,4.133,4.133,0,0,1,1.945-1.064,6.936,6.936,0,0,1,4.05-.049,2.224,2.224,0,0,1,.924.521.884.884,0,0,1,.293.766,3.383,3.383,0,0,0-2.38-.807,8.636,8.636,0,0,0-3.784.627A2.535,2.535,0,0,0,2263.348,1305.286Z" transform="translate(-82.432 -31.956)" fill="#5e5b5c"/><path d="M2415.761,1306.607a8.791,8.791,0,0,1,3.091.431c.254.093.628.172.641.444.011.234-.337.374-.57.5a5.562,5.562,0,0,1-2.959.488,7.384,7.384,0,0,1-2.269-.382,2.783,2.783,0,0,1-.73-.382c-.268-.2-.266-.336.02-.527a3.7,3.7,0,0,1,1.5-.475A7.7,7.7,0,0,1,2415.761,1306.607Z" transform="translate(-188.833 -34.644)" fill="#5e5b5c"/><path d="M2418.872,1303.94c-1.676-1.154-6.316-1.089-7.234.042a.746.746,0,0,1,.259-.922,3.282,3.282,0,0,1,1.613-.731,7.187,7.187,0,0,1,3.942.226,2.845,2.845,0,0,1,1.092.64A1.015,1.015,0,0,1,2418.872,1303.94Z" transform="translate(-187.976 -31.476)" fill="#5e5b5c"/><path d="M2412.593,1283.382a7.692,7.692,0,0,1,2.817.4c.278.1.692.195.7.476s-.4.4-.672.515a6.44,6.44,0,0,1-3.109.447,6.253,6.253,0,0,1-2.3-.535,3.559,3.559,0,0,1-.332-.183c-.423-.263-.419-.419.034-.653a5.2,5.2,0,0,1,2-.464C2412.016,1283.362,2412.306,1283.382,2412.593,1283.382Z" transform="translate(-186.423 -18.106)" fill="#5e5b5c"/><path d="M2415.6,1280.963c-2.088-1.153-5.9-1.162-7.226.01a.7.7,0,0,1,.173-.755,2.418,2.418,0,0,1,1.13-.635,7.474,7.474,0,0,1,4.646.113,2.706,2.706,0,0,1,.926.522A.813.813,0,0,1,2415.6,1280.963Z" transform="translate(-185.673 -15.183)" fill="#5e5b5c"/><path d="M2353.328,1369.484a5.891,5.891,0,0,1-2.221-.4,3.44,3.44,0,0,1-.716-.411c-.449-.345-.444-.521.079-.77a6.424,6.424,0,0,1,3.207-.462,6.25,6.25,0,0,1,1.954.382c.339.134.82.252.82.633,0,.314-.465.46-.771.61A5.227,5.227,0,0,1,2353.328,1369.484Z" transform="translate(-144.2 -77.93)" fill="#5e5b5c"/><path d="M2349.082,1364.073a1.061,1.061,0,0,1,.342-1.126,3.275,3.275,0,0,1,1.656-.8,5.894,5.894,0,0,1,3.964.436,2.266,2.266,0,0,1,.775.62,1.056,1.056,0,0,1,.191,1.032,5.224,5.224,0,0,0-3.433-1A5.286,5.286,0,0,0,2349.082,1364.073Z" transform="translate(-143.467 -74.071)" fill="#5e5b5c"/><path d="M2276.29,1285.088a6.206,6.206,0,0,1,1.895.271c.277.1.294.232.115.442a2.4,2.4,0,0,1-1.04.722,8.991,8.991,0,0,1-4.585.428,2.207,2.207,0,0,1-.82-.347c-.189-.123-.172-.245-.026-.382a2.419,2.419,0,0,1,.768-.456A10.706,10.706,0,0,1,2276.29,1285.088Z" transform="translate(-88.43 -19.326)" fill="#5e5b5c"/><path d="M2270.932,1283.769a1.2,1.2,0,0,1,.58-.789,5.688,5.688,0,0,1,2.471-.893,6.608,6.608,0,0,1,2.8.1,1.791,1.791,0,0,1,1.053.622A9.6,9.6,0,0,0,2270.932,1283.769Z" transform="translate(-87.871 -17.117)" fill="#5e5b5c"/><path d="M2216.4,1287.571a10.014,10.014,0,0,1-2.225-.259,2.324,2.324,0,0,1-.774-.367c-.333-.246-.326-.345.049-.548a3.656,3.656,0,0,1,1.182-.363,10.268,10.268,0,0,1,4.015.1,2.35,2.35,0,0,1,.886.369c.179.134.192.267,0,.412a2.82,2.82,0,0,1-1.142.46A11.519,11.519,0,0,1,2216.4,1287.571Z" transform="translate(-46.75 -19.893)" fill="#5e5b5c"/><path d="M2212.55,1283.683c.035-.321.3-.508.572-.676a4.479,4.479,0,0,1,1.928-.589,7.316,7.316,0,0,1,3.268.3,2.76,2.76,0,0,1,.844.458.777.777,0,0,1,.342.591A9,9,0,0,0,2212.55,1283.683Z" transform="translate(-46.314 -17.385)" fill="#5e5b5c"/><path d="M2342.551,1284.171a9.478,9.478,0,0,1-2.461-.263,3.072,3.072,0,0,1-.872-.4c-.245-.157-.164-.255.038-.347a4.573,4.573,0,0,1,1.506-.348,11.47,11.47,0,0,1,3.975.261c.188.049.367.131.55.2.242.089.207.191.02.313a4.074,4.074,0,0,1-2.03.583C2343.035,1284.184,2342.792,1284.171,2342.551,1284.171Z" transform="translate(-136.37 -17.662)" fill="#5e5b5c"/><path d="M2344.977,1280.269a10.619,10.619,0,0,0-6.867-.077c-.066-.307.17-.5.416-.662a3.507,3.507,0,0,1,1.286-.476,7.457,7.457,0,0,1,4.176.294,2.21,2.21,0,0,1,.736.44A.629.629,0,0,1,2344.977,1280.269Z" transform="translate(-135.682 -14.913)" fill="#5e5b5c"/><path d="M2411.037,1265.334a9.817,9.817,0,0,1,3.028.355c.174.055.455.111.454.256,0,.209-.274.284-.469.336a9.662,9.662,0,0,1-3.189.211,7.393,7.393,0,0,1-1.866-.322c-.193-.064-.485-.129-.484-.326,0-.218.309-.228.5-.281A7.336,7.336,0,0,1,2411.037,1265.334Z" transform="translate(-185.803 -5.265)" fill="#5e5b5c"/><path d="M2407.812,1263.084a1.145,1.145,0,0,1,.73-.623,6.239,6.239,0,0,1,2.844-.385,5.9,5.9,0,0,1,2.074.466,1.2,1.2,0,0,1,.734.664A10.556,10.556,0,0,0,2407.812,1263.084Z" transform="translate(-185.305 -2.931)" fill="#5e5b5c"/><path d="M2472.164,1285.805a10.879,10.879,0,0,1-2.525-.244,2.29,2.29,0,0,1-.758-.313c-.154-.1-.14-.178.022-.258a3.284,3.284,0,0,1,1.059-.284,10.485,10.485,0,0,1,4.168.231c.2.056.533.1.527.3s-.328.275-.544.344A7.41,7.41,0,0,1,2472.164,1285.805Z" transform="translate(-228.698 -18.978)" fill="#5e5b5c"/><path d="M2467.924,1282.3c-.038-.281.2-.427.417-.564a3.885,3.885,0,0,1,1.7-.509,7.159,7.159,0,0,1,3.364.362,2.107,2.107,0,0,1,.682.4.548.548,0,0,1,.24.438A9.758,9.758,0,0,0,2467.924,1282.3Z" transform="translate(-228.091 -16.543)" fill="#5e5b5c"/><path d="M2484.37,1301.992a2.688,2.688,0,0,1-1.45.662,7.782,7.782,0,0,1-3.62-.155,2.833,2.833,0,0,1-.981-.493c-.17-.135-.16-.223.04-.31a4.662,4.662,0,0,1,1.473-.341,10.564,10.564,0,0,1,3.736.252A1.9,1.9,0,0,1,2484.37,1301.992Z" transform="translate(-235.408 -30.865)" fill="#5e5b5c"/><path d="M2477.94,1299.292a1.2,1.2,0,0,1,.7-.546,5.68,5.68,0,0,1,2.3-.392,6.331,6.331,0,0,1,2.529.456,1.52,1.52,0,0,1,.813.648A10.065,10.065,0,0,0,2477.94,1299.292Z" transform="translate(-235.224 -28.77)" fill="#5e5b5c"/><path d="M2197.439,1317.37a5.994,5.994,0,0,1,2.3.368c.238.1.559.181.562.488s-.317.4-.557.487a6.7,6.7,0,0,1-4.325.066,2.381,2.381,0,0,1-.69-.383c-.225-.167-.189-.31.017-.456a2.789,2.789,0,0,1,.984-.4A7.184,7.184,0,0,1,2197.439,1317.37Z" transform="translate(-33.518 -42.305)" fill="#5e5b5c"/><path d="M2193.915,1315.468a1.1,1.1,0,0,1,.635-.8,4.534,4.534,0,0,1,1.845-.524,5.988,5.988,0,0,1,2.914.375,1.81,1.81,0,0,1,.759.524.563.563,0,0,1,.107.655,1.942,1.942,0,0,0-1.258-.753,8.169,8.169,0,0,0-3.729-.048A2.888,2.888,0,0,0,2193.915,1315.468Z" transform="translate(-33.049 -39.984)" fill="#5e5b5c"/><path d="M2486.456,1312.664a6.406,6.406,0,0,1,2.267.392c.24.1.559.189.558.494s-.333.394-.574.467a6.656,6.656,0,0,1-4.3-.107c-.241-.088-.563-.19-.549-.5.012-.283.329-.362.561-.447A6.01,6.01,0,0,1,2486.456,1312.664Z" transform="translate(-239.434 -38.956)" fill="#5e5b5c"/><path d="M2488.433,1311.864a1.282,1.282,0,0,0-.862-.779,6.963,6.963,0,0,0-2.952-.374,5.663,5.663,0,0,0-1.29.212,1.488,1.488,0,0,0-1.1.821c-.227-.344-.054-.552.174-.725a3.4,3.4,0,0,1,1.638-.58,7.26,7.26,0,0,1,3.5.306,2.145,2.145,0,0,1,.773.441A.473.473,0,0,1,2488.433,1311.864Z" transform="translate(-238.197 -37.311)" fill="#5e5b5c"/><path d="M2329.773,1301.538a4.424,4.424,0,0,1-2.3-.585c-.369-.228-.379-.49-.024-.747a2.932,2.932,0,0,1,1.426-.47,5.129,5.129,0,0,1,2.643.317c.3.128.683.274.66.663-.02.338-.407.394-.67.511A4.629,4.629,0,0,1,2329.773,1301.538Z" transform="translate(-127.916 -29.72)" fill="#fff"/><path d="M2326.061,1297.88a.819.819,0,0,1,.379-.919,3.218,3.218,0,0,1,1.632-.593,4.6,4.6,0,0,1,3.029.543,1.011,1.011,0,0,1,.591,1.084,3.552,3.552,0,0,0-2.8-1.024A3.477,3.477,0,0,0,2326.061,1297.88Z" transform="translate(-127.09 -27.322)" fill="#fff"/><path d="M2355.942,1299.945a5.4,5.4,0,0,1,1.732.266,2.785,2.785,0,0,1,.411.176c.191.105.416.221.42.462s-.26.305-.437.378a4.815,4.815,0,0,1-4.035-.106c-.463-.219-.465-.5-.017-.759A4.006,4.006,0,0,1,2355.942,1299.945Z" transform="translate(-146.774 -29.902)" fill="#5e5b5c"/><path d="M2352.27,1297.666a.779.779,0,0,1,.272-1.059,3.508,3.508,0,0,1,1.967-.652,4.823,4.823,0,0,1,2.36.372,1.933,1.933,0,0,1,.779.556.694.694,0,0,1,.107.843,3.477,3.477,0,0,0-2.745-.953A3.24,3.24,0,0,0,2352.27,1297.666Z" transform="translate(-145.696 -27.047)" fill="#5e5b5c"/><path d="M2326.726,1314.9a4.034,4.034,0,0,1-2.335-.559c-.182-.115-.443-.236-.428-.457.017-.246.3-.326.517-.4a5.87,5.87,0,0,1,4.115.1c.239.093.541.213.53.523-.009.294-.32.365-.542.466A4.176,4.176,0,0,1,2326.726,1314.9Z" transform="translate(-125.62 -39.305)" fill="#fff"/><path d="M2329.071,1311.226c-.851-1.075-4.163-1.3-5.619-.365a.777.777,0,0,1,.4-.681,3.378,3.378,0,0,1,1.7-.594,4.85,4.85,0,0,1,2.691.407,1.779,1.779,0,0,1,.679.521A.71.71,0,0,1,2329.071,1311.226Z" transform="translate(-125.255 -36.737)" fill="#fff"/><path d="M2355.14,1313.521a5.4,5.4,0,0,1-2.215-.43c-.231-.112-.534-.222-.515-.537s.31-.416.558-.5a5.831,5.831,0,0,1,4.111.1c.229.089.521.21.523.492,0,.262-.285.365-.491.481A4.181,4.181,0,0,1,2355.14,1313.521Z" transform="translate(-145.868 -38.289)" fill="#5e5b5c"/><path d="M2357.069,1309.849c-1.232-1.05-4.661-1.069-5.692.014a.914.914,0,0,1,.436-.821,3.589,3.589,0,0,1,1.983-.617,4.456,4.456,0,0,1,2.627.56A1.158,1.158,0,0,1,2357.069,1309.849Z" transform="translate(-145.132 -35.93)" fill="#5e5b5c"/><path d="M2201.51,1305.79a2.618,2.618,0,0,1,1.268-.417,7.991,7.991,0,0,1,3.312.16c.192.054.494.088.494.3s-.3.24-.494.291a7.468,7.468,0,0,1-3.841.023A1.945,1.945,0,0,1,2201.51,1305.79Z" transform="translate(-38.455 -33.694)" fill="#5e5b5c"/><path d="M2200.666,1303.764a.812.812,0,0,1,.512-.552,4.308,4.308,0,0,1,1.5-.385,6.867,6.867,0,0,1,3.1.3,1.274,1.274,0,0,1,.627.41.224.224,0,0,1,0,.315c-.111.091-.137-.07-.2-.117a2.927,2.927,0,0,0-1.492-.479,9.417,9.417,0,0,0-3.093.1A2.54,2.54,0,0,0,2200.666,1303.764Z" transform="translate(-37.855 -31.918)" fill="#5e5b5c"/><path d="M2336.981,1267.507a2.421,2.421,0,0,1-1.113.649,5.931,5.931,0,0,1-2.786.219,1.576,1.576,0,0,1-.3-.073c-.154-.059-.409-.057-.414-.237,0-.162.237-.227.39-.3a5.389,5.389,0,0,1,1.42-.4,7.03,7.03,0,0,1,2.332-.037A1.016,1.016,0,0,1,2336.981,1267.507Z" transform="translate(-131.602 -6.625)" fill="#5e5b5c"/><path d="M2331.2,1265.713a.694.694,0,0,1,.365-.607,4.318,4.318,0,0,1,2.166-.717,4.586,4.586,0,0,1,1.846.13.926.926,0,0,1,.7.537A7.045,7.045,0,0,0,2331.2,1265.713Z" transform="translate(-130.774 -4.567)" fill="#5e5b5c"/><path d="M2357.166,1268.365a6.158,6.158,0,0,1,3.792-.463A5.223,5.223,0,0,1,2357.166,1268.365Z" transform="translate(-149.254 -7.014)" fill="#5e5b5c"/><path d="M2360.253,1265.669a7.371,7.371,0,0,0-3.688.194,2.2,2.2,0,0,0-.657.3c-.046.032-.086.133-.163.044a.162.162,0,0,1,0-.194,1.021,1.021,0,0,1,.467-.4,4.785,4.785,0,0,1,1.922-.493,4.125,4.125,0,0,1,1.606.13A.665.665,0,0,1,2360.253,1265.669Z" transform="translate(-148.22 -5.097)" fill="#5e5b5c"/></g></g></g></svg>