<svg xmlns="http://www.w3.org/2000/svg" xmlns:xlink="http://www.w3.org/1999/xlink" width="160" height="190" viewBox="0 0 160 190"><defs><filter id="a" x="-2" y="2" width="164" height="191" filterUnits="userSpaceOnUse"><feOffset dy="2" input="SourceAlpha"/><feGaussianBlur stdDeviation="6" result="b"/><feFlood flood-color="#44d62c" flood-opacity="0.651"/><feComposite operator="in" in2="b"/><feComposite in="SourceGraphic"/></filter><clipPath id="d"><rect width="160" height="190"/></clipPath></defs><g id="c" clip-path="url(#d)"><g transform="translate(-2960 -328.66)"><g transform="matrix(1, 0, 0, 1, 2960, 328.66)" filter="url(#a)"><g transform="translate(16 18)" fill="#44d62c" stroke="#fff" stroke-width="1" opacity="0.93"><rect width="128" height="155" rx="14" stroke="none"/><rect x="0.5" y="0.5" width="127" height="154" rx="13.5" fill="none"/></g></g><path d="M-13.9-7.8h-2.082V0h-1.8V-7.8h-2.069V-9.242H-13.9ZM-10.518,0a3.082,3.082,0,0,1-.136-.375,3.057,3.057,0,0,1-.092-.413,2.147,2.147,0,0,1-.619.67,1.46,1.46,0,0,1-.847.251,1.756,1.756,0,0,1-1.362-.559,2.124,2.124,0,0,1-.511-1.492,1.955,1.955,0,0,1,.651-1.568A2.9,2.9,0,0,1-11.5-4.043h.679V-4.6A1.381,1.381,0,0,0-11-5.373a.61.61,0,0,0-.543-.27A.523.523,0,0,0-12-5.427a1.085,1.085,0,0,0-.152.628L-13.9-4.805l-.019-.038a1.883,1.883,0,0,1,.663-1.523A2.626,2.626,0,0,1-11.426-7a2.451,2.451,0,0,1,1.742.625,2.317,2.317,0,0,1,.67,1.781v2.78a6.016,6.016,0,0,0,.07.946A5.153,5.153,0,0,0-8.728,0Zm-1.174-1.225a.929.929,0,0,0,.5-.146,1.084,1.084,0,0,0,.365-.375V-3.009H-11.5a.657.657,0,0,0-.6.286A1.312,1.312,0,0,0-12.283-2a.919.919,0,0,0,.159.559A.507.507,0,0,0-11.692-1.225Zm7.065-4-.679-.019a.769.769,0,0,0-.473.14.887.887,0,0,0-.289.394V0h-1.8V-6.868h1.682l.07.92.032.013a1.873,1.873,0,0,1,.46-.778A.965.965,0,0,1-4.938-7a1.6,1.6,0,0,1,.257.022,1.746,1.746,0,0,1,.238.054ZM-1.828,0h-1.8V-6.868h1.8Zm0-8.525h-1.8V-9.9h1.8ZM1.117-6.868l.07.876a2.046,2.046,0,0,1,.686-.743A1.735,1.735,0,0,1,2.818-7a1.523,1.523,0,0,1,.908.276,1.7,1.7,0,0,1,.59.841A2.151,2.151,0,0,1,5-6.7,1.667,1.667,0,0,1,5.979-7a1.555,1.555,0,0,1,1.343.7,3.757,3.757,0,0,1,.492,2.142V0H6V-4.156a2.434,2.434,0,0,0-.171-1.1.571.571,0,0,0-.533-.3.751.751,0,0,0-.463.153,1.161,1.161,0,0,0-.336.419q.006.121.013.238T4.52-4.5V0h-1.8V-4.156a2.4,2.4,0,0,0-.175-1.093.582.582,0,0,0-.543-.305.8.8,0,0,0-.441.124,1.09,1.09,0,0,0-.333.346V0h-1.8V-6.868ZM12.34,0A3.082,3.082,0,0,1,12.2-.375a3.057,3.057,0,0,1-.092-.413,2.147,2.147,0,0,1-.619.67,1.46,1.46,0,0,1-.847.251A1.756,1.756,0,0,1,9.283-.425a2.124,2.124,0,0,1-.511-1.492,1.955,1.955,0,0,1,.651-1.568,2.9,2.9,0,0,1,1.933-.559h.679V-4.6a1.381,1.381,0,0,0-.181-.771.61.61,0,0,0-.543-.27.523.523,0,0,0-.457.216A1.085,1.085,0,0,0,10.7-4.8L8.957-4.805l-.019-.038A1.883,1.883,0,0,1,9.6-6.367,2.626,2.626,0,0,1,11.432-7a2.451,2.451,0,0,1,1.742.625,2.317,2.317,0,0,1,.67,1.781v2.78a6.016,6.016,0,0,0,.07.946A5.153,5.153,0,0,0,14.13,0ZM11.166-1.225a.929.929,0,0,0,.5-.146,1.084,1.084,0,0,0,.365-.375V-3.009h-.679a.657.657,0,0,0-.6.286A1.312,1.312,0,0,0,10.575-2a.919.919,0,0,0,.159.559A.507.507,0,0,0,11.166-1.225ZM17.977-1.8a.667.667,0,0,0-.229-.5,3.847,3.847,0,0,0-.876-.524A4.619,4.619,0,0,1,15.32-3.7,1.667,1.667,0,0,1,14.8-4.97,1.854,1.854,0,0,1,15.466-6.4,2.533,2.533,0,0,1,17.221-7a2.626,2.626,0,0,1,1.822.609A1.922,1.922,0,0,1,19.7-4.831l-.019.038H17.938a1.176,1.176,0,0,0-.178-.686.621.621,0,0,0-.546-.254.685.685,0,0,0-.5.2.638.638,0,0,0-.2.476.638.638,0,0,0,.2.492,4.091,4.091,0,0,0,.882.511,4.278,4.278,0,0,1,1.6.873,1.76,1.76,0,0,1,.521,1.323,1.756,1.756,0,0,1-.7,1.435,2.849,2.849,0,0,1-1.834.559,2.539,2.539,0,0,1-1.879-.692,2.043,2.043,0,0,1-.66-1.562l.013-.038h1.65a1.12,1.12,0,0,0,.254.787.9.9,0,0,0,.667.241.781.781,0,0,0,.552-.178A.636.636,0,0,0,17.977-1.8Z" transform="translate(3040 484)" fill="#fff"/><path d="M2245.525,1398.189l-.981.018a4.329,4.329,0,0,1-.928,0c-1.061-1.726-2.14-3.441-3.176-5.182-.568-.955-1.159-1.9-1.721-2.854a.439.439,0,0,0-.248-.242c-.553.046-1.108.007-1.661.022a.911.911,0,0,0-.361.027l-1.982.018c-.553.046-1.107.007-1.66.022a.891.891,0,0,0-.361.027l-1.983.018c-.553.045-1.106.007-1.659.021a.874.874,0,0,0-.361.027l-1.985.018c-.552.045-1.106.007-1.658.021a.861.861,0,0,0-.36.027l-1.986.018c-.552.045-1.106.007-1.658.021a.863.863,0,0,0-.36.028l-1.986.018c-.531.046-1.064.006-1.6.021a.935.935,0,0,0-.362.027l-1.979.018c-.348.069-.705-.034-1.052.056a1.729,1.729,0,0,0-.02.577c-.076.383.015.773-.049,1.156q-.009.558-.018,1.117c-.077.381.014.771-.048,1.153l-.019,1.179c-.075.383.016.774-.049,1.158q-.012.328-.023.656c0,.1.016.205-.125.226-.6.045-1.2.007-1.8.021a.924.924,0,0,0-.362.027l-2.181.018c-.6.046-1.2.007-1.8.021a.923.923,0,0,0-.362.027l-2.18.018c-.619.047-1.239.006-1.858.022a.865.865,0,0,0-.361.027l-2.119.017c-.619.047-1.24.006-1.859.022a.862.862,0,0,0-.36.027l-2.12.017c-.619.048-1.239.006-1.858.022a.861.861,0,0,0-.361.027,4.493,4.493,0,0,0-.564,0c-.274.031-.354-.087-.42-.344-.563-2.178-1.151-4.349-1.719-6.526a.308.308,0,0,0-.385-.276c-.254.022-.51.019-.766.026-.449.065-.9-.028-1.353.049l-1.317.018c-.428.062-.861-.026-1.288.048l-1.315.019c-.428.061-.862-.026-1.29.048l-1.313.018c-.448.064-.9-.029-1.351.049l-1.252.017c-.449.065-.9-.029-1.353.049l-1.318.018c-.427.062-.86-.027-1.287.048l-1.316.018c-.428.062-.862-.026-1.289.048l-1.314.018c-.448.064-.9-.03-1.351.049l-1.252.017c-.449.065-.9-.029-1.352.049-.388,0-.775.009-1.163,0-.164,0-.227.092-.295.215-.788,1.425-1.584,2.846-2.371,4.271-.414.75-.816,1.507-1.223,2.261-.152.2-.385.031-.559.125l-3.382.019c-.988.047-1.976.006-2.964.021a1.037,1.037,0,0,0-.4.027c-.978,0-1.959-.045-2.933.02a1.575,1.575,0,0,1-1.527-.925,9.435,9.435,0,0,1-.764-2.319c-.344-1.071-.621-2.163-.923-3.247q-.58-2.077-1.155-4.155c-.063-.226-.139-.449-.226-.727h4.551a1.355,1.355,0,0,1,.4-.019l34.237,0a1.14,1.14,0,0,0,.429-.026c1.389.006,2.778.017,4.167.016q6.972,0,13.943-.015,8.323-.006,16.645-.008c.111,0,.222-.008.333-.012a1.345,1.345,0,0,1,.4-.019l34.238,0a1.14,1.14,0,0,0,.429-.026c.066.006.132.015.2.016.56.007.566.007.575.594a10.328,10.328,0,0,1-.268,1.792c-.2,1.236-.421,2.467-.634,3.7q-.416,2.416-.831,4.833c-.245.1-.508-.018-.754.066l-.983.018c-.338.064-.683-.027-1.02.049l-.982.018c-.338.064-.683-.027-1.021.049l-.982.018c-.338.064-.684-.027-1.021.049l-.981.018c-.338.064-.684-.027-1.021.049l-.981.018C2246.209,1398.2,2245.863,1398.114,2245.525,1398.189Z" transform="translate(837.514 -952.413)" fill="#fff"/><g transform="translate(2985.133 398.588)"><path d="M2250.365,1358.878a7.68,7.68,0,0,0-6.591.734,2.842,2.842,0,0,0-.89.842,1.554,1.554,0,0,0,.187,2.115,2.773,2.773,0,0,0,1,.647,6.684,6.684,0,0,0,2.445.415,7.861,7.861,0,0,0,3.931-.965,3.16,3.16,0,0,0,1.267-1.2,1.536,1.536,0,0,0-.235-1.875A2.641,2.641,0,0,0,2250.365,1358.878Z" transform="translate(-2216.248 -1330.497)" fill="none"/><path d="M2276.64,1281.395a3.178,3.178,0,0,0-.885-.374,7.134,7.134,0,0,0-3.073-.024,5,5,0,0,0-2.422,1.031,1.1,1.1,0,0,0,.405,2,7.294,7.294,0,0,0,2.075.313,9.359,9.359,0,0,0,1.677-.189,8.294,8.294,0,0,0,2.246-.8c.262-.147.555-.324.56-.656A1.333,1.333,0,0,0,2276.64,1281.395Z" transform="translate(-2235.897 -1274.471)" fill="none"/><path d="M2261.74,1328.252a5.714,5.714,0,0,0-2.4-.469,7.422,7.422,0,0,0-2.1.3,4.608,4.608,0,0,0-2.283,1.3,1.531,1.531,0,0,0-.294,1.727,1.944,1.944,0,0,0,1.43,1.081,7.727,7.727,0,0,0,5.893-.824A1.676,1.676,0,0,0,2261.74,1328.252Z" transform="translate(-2224.883 -1308.358)" fill="none"/><path d="M2268.58,1301.947a7.1,7.1,0,0,0-5.326.615,2.424,2.424,0,0,0-.935.838,1.156,1.156,0,0,0,.119,1.471,2.371,2.371,0,0,0,1.382.805,6.3,6.3,0,0,0,1.458.139,8.2,8.2,0,0,0,3.49-.738,2.327,2.327,0,0,0,1.127-1.09,1.147,1.147,0,0,0-.219-1.432A2.422,2.422,0,0,0,2268.58,1301.947Z" transform="translate(-2230.364 -1289.519)" fill="none"/><path d="M2321.022,1360.751a6.126,6.126,0,0,0-2.843-.6,4.532,4.532,0,0,0-.894.079,3.988,3.988,0,0,0-2.247,1,1.369,1.369,0,0,0-.088,2,3.088,3.088,0,0,0,1.315.937,6.6,6.6,0,0,0,3.381.3,3.793,3.793,0,0,0,2.181-1.053,1.377,1.377,0,0,0,.046-2.026A2.849,2.849,0,0,0,2321.022,1360.751Z" transform="translate(-2268.227 -1331.724)" fill="none"/><path d="M2354.519,1298.159a2.492,2.492,0,0,0,1.751-.909,1.06,1.06,0,0,0,.01-1.452,2.3,2.3,0,0,0-.923-.637,5.205,5.205,0,0,0-2.845-.293,3.132,3.132,0,0,0-1.636.686,1.08,1.08,0,0,0-.055,1.712,3.11,3.11,0,0,0,2.02.905c.054.024.109.047.165.068a1.019,1.019,0,0,0-.294.047,3.526,3.526,0,0,0-2.01.708,1.1,1.1,0,0,0-.029,1.8,2.426,2.426,0,0,0,.736.446,5.407,5.407,0,0,0,4-.006,1.342,1.342,0,0,0,.941-1.179,1.243,1.243,0,0,0-.705-1.162,4.114,4.114,0,0,0-1.983-.611l-.093-.005a.61.61,0,0,0,.091-.041C2353.944,1298.213,2354.233,1298.2,2354.519,1298.159Z" transform="translate(-2293.968 -1284.542)" fill="none"/><path d="M2339.1,1277.859a3.947,3.947,0,0,0-1.607.608.908.908,0,0,0-.322,1.293,1.194,1.194,0,0,0,.763.64,8.893,8.893,0,0,0,5.562.13.951.951,0,0,0,.786-.96,1.08,1.08,0,0,0-.479-1,3.049,3.049,0,0,0-.761-.406,7.469,7.469,0,0,0-2.586-.428A9.052,9.052,0,0,0,2339.1,1277.859Z" transform="translate(-2284.448 -1272.233)" fill="none"/><path d="M2188.322,1333.49a8.159,8.159,0,0,0-4.262-.367,4.7,4.7,0,0,0-2.456,1.021,1.387,1.387,0,0,0-.019,2.224,3.749,3.749,0,0,0,1.487.855,10.77,10.77,0,0,0,2.563.336c.391-.038.912-.068,1.427-.143a4.143,4.143,0,0,0,2.485-1.16,1.333,1.333,0,0,0,0-1.987A3.268,3.268,0,0,0,2188.322,1333.49Z" transform="translate(-2171.838 -1312.122)" fill="none"/><path d="M2218.15,1281.952a3.022,3.022,0,0,0-.863-.424,7.421,7.421,0,0,0-4.234-.08,2.94,2.94,0,0,0-1.371.716.928.928,0,0,0-.211,1.151,1.228,1.228,0,0,0,.728.683,8.069,8.069,0,0,0,4.082.462,4.843,4.843,0,0,0,1.814-.616A1.048,1.048,0,0,0,2218.15,1281.952Z" transform="translate(-2193.73 -1274.715)" fill="none"/><path d="M2198.66,1313.488a4.808,4.808,0,0,0-2.02-.507,5.272,5.272,0,0,0-3.21.657,1.073,1.073,0,0,0-.455,1.566,1.265,1.265,0,0,0,.8.613,7.106,7.106,0,0,0,2.517.41,5.226,5.226,0,0,0,2.381-.529c.447-.234.859-.534.865-1.091C2199.541,1314.031,2199.115,1313.73,2198.66,1313.488Z" transform="translate(-2180.338 -1297.66)" fill="none"/><path d="M2205.493,1302.261a2.236,2.236,0,0,0-.806-.385,7.367,7.367,0,0,0-3.659-.08,2.664,2.664,0,0,0-1.124.479.633.633,0,0,0-.123.984,1.3,1.3,0,0,0,.732.489,6.9,6.9,0,0,0,2.138.274,6.55,6.55,0,0,0,1.3-.081,3.36,3.36,0,0,0,1.545-.565A.64.64,0,0,0,2205.493,1302.261Z" transform="translate(-2185.241 -1289.459)" fill="none"/><path d="M2425,1357.323a7.992,7.992,0,0,0-5.509-.124,3.424,3.424,0,0,0-1.745,1.167,1.537,1.537,0,0,0-.209,1.6,2.384,2.384,0,0,0,1.169,1.266,8.231,8.231,0,0,0,3.718.827,6.138,6.138,0,0,0,1.47-.144,4.514,4.514,0,0,0,2.613-1.27,1.638,1.638,0,0,0,.023-2.291A3.69,3.69,0,0,0,2425,1357.323Z" transform="translate(-2342.464 -1329.282)" fill="none"/><path d="M2480.841,1300.106a6.044,6.044,0,0,0,1.917-.392.792.792,0,0,0,.506-.453,1.079,1.079,0,0,0-.45-1.313,2.979,2.979,0,0,0-.775-.38,7.455,7.455,0,0,0-3.327-.284,3.565,3.565,0,0,0-1.861.657.956.956,0,0,0,.189,1.672,3.271,3.271,0,0,0,.468.173,8.29,8.29,0,0,0,2.567.323C2480.33,1300.109,2480.587,1300.129,2480.841,1300.106Z" transform="translate(-2385.086 -1286.292)" fill="none"/><path d="M2472.917,1282.428a.9.9,0,0,0,.184-1.657,2.8,2.8,0,0,0-.738-.378,7.266,7.266,0,0,0-3.155-.339,4.289,4.289,0,0,0-1.961.582.882.882,0,0,0,.047,1.625,3.014,3.014,0,0,0,.3.148,6.866,6.866,0,0,0,2.7.521A6.538,6.538,0,0,0,2472.917,1282.428Z" transform="translate(-2378.076 -1273.873)" fill="none"/><path d="M2482.069,1311.716a6.757,6.757,0,0,0,2.529.4,5.685,5.685,0,0,0,1.083-.079,3.772,3.772,0,0,0,1.646-.589.81.81,0,0,0,.055-1.414,2.448,2.448,0,0,0-.723-.405,7.354,7.354,0,0,0-3.905-.281,3,3,0,0,0-1.488.621.761.761,0,0,0-.023,1.259A2.446,2.446,0,0,0,2482.069,1311.716Z" transform="translate(-2388.321 -1294.952)" fill="none"/><path d="M2421.224,1330.088a1.633,1.633,0,0,0,.2-2.753,3.773,3.773,0,0,0-1.076-.657,7.225,7.225,0,0,0-3.86-.428,4.724,4.724,0,0,0-2.382.955,1.593,1.593,0,0,0-.472,2.109,1.871,1.871,0,0,0,.8.774,6.282,6.282,0,0,0,3.108.87A6.546,6.546,0,0,0,2421.224,1330.088Z" transform="translate(-2339.6 -1307.185)" fill="none"/><path d="M2489.26,1329.739a8.206,8.206,0,0,0-5.008-.28,3.7,3.7,0,0,0-1.913,1.02,1.242,1.242,0,0,0-.231,1.5,2.56,2.56,0,0,0,1.476,1.313,10.353,10.353,0,0,0,2.95.449,7.459,7.459,0,0,0,1.657-.144,4.438,4.438,0,0,0,2.224-.982,1.342,1.342,0,0,0,.052-2.125A3.367,3.367,0,0,0,2489.26,1329.739Z" transform="translate(-2389.063 -1309.378)" fill="none"/><path d="M2411.223,1281.73a8.71,8.71,0,0,0,2.693-.41,1.35,1.35,0,0,0,.9-1.243,1.161,1.161,0,0,0-.6-1.08,2.787,2.787,0,0,0-.637-.357,7.5,7.5,0,0,0-4.384-.339,3.446,3.446,0,0,0-1.625.724,1,1,0,0,0-.292,1.31,1.922,1.922,0,0,0,1.081.933A8.81,8.81,0,0,0,2411.223,1281.73Z" transform="translate(-2335.059 -1272.51)" fill="none"/><path d="M2353.906,1361.337a6.085,6.085,0,0,0-3.228-.436,4.267,4.267,0,0,0-2.023.7,1.439,1.439,0,0,0-.767,1.445,1.709,1.709,0,0,0,1.037,1.438,7.952,7.952,0,0,0,3.066.546,7.286,7.286,0,0,0,1.759-.287,1.845,1.845,0,0,0,1.364-1.046,1.419,1.419,0,0,0-.184-1.635A2.9,2.9,0,0,0,2353.906,1361.337Z" transform="translate(-2292.272 -1332.23)" fill="none"/><path d="M2339.108,1333.529c.663-.2,1.232-.475,1.291-1.342a1.615,1.615,0,0,0-.368-1.316,3.331,3.331,0,0,0-1.252-.8,8.163,8.163,0,0,0-2.951-.518,9.07,9.07,0,0,0-1.733.188,4.015,4.015,0,0,0-1.988.945,1.287,1.287,0,0,0-.281,1.6,1.906,1.906,0,0,0,1.1,1.04,7.335,7.335,0,0,0,2.028.495A10.022,10.022,0,0,0,2339.108,1333.529Z" transform="translate(-2280.578 -1309.635)" fill="none"/><path d="M2407.214,1263.142a5.387,5.387,0,0,0,2.289.642,6.365,6.365,0,0,0,3.411-.536.853.853,0,0,0,.22-1.473,2.352,2.352,0,0,0-.74-.44,7.05,7.05,0,0,0-2.585-.44,5.411,5.411,0,0,0-2.626.6A.878.878,0,0,0,2407.214,1263.142Z" transform="translate(-2334.689 -1260.072)" fill="none"/><path d="M2414.447,1304.77a9,9,0,0,0,2.919-.523,1.328,1.328,0,0,0,.441-2.024,2.749,2.749,0,0,0-1.188-.773,7.3,7.3,0,0,0-3.971-.289,3.4,3.4,0,0,0-1.875.869,1.06,1.06,0,0,0-.086,1.5,2.126,2.126,0,0,0,.856.666A7.438,7.438,0,0,0,2414.447,1304.77Z" transform="translate(-2337.424 -1289.034)" fill="none"/><path d="M2258.028,1292.754q-.762-1.843-1.516-3.691-1.908-4.7-3.809-9.406-2.126-5.236-4.26-10.469-2.228-5.5-4.439-11a.35.35,0,0,0-.4-.25c-.521.016-1.043.008-1.565.009a.863.863,0,0,1-.36.028c-.508.015-1.017-.023-1.525.021l-1.913.019a.928.928,0,0,1-.362.027c-.51.015-1.021-.025-1.53.022l-1.847.018a.931.931,0,0,1-.362.027c-.51.015-1.02-.025-1.529.022l-1.847.018a.926.926,0,0,1-.362.027c-.51.015-1.02-.025-1.529.022l-1.848.018a.916.916,0,0,1-.361.027c-.51.015-1.02-.025-1.528.022l-1.849.018a.909.909,0,0,1-.361.027c-.509.015-1.019-.025-1.528.022l-1.849.018a.907.907,0,0,1-.361.027c-.509.014-1.019-.024-1.528.021l-1.85.018a.9.9,0,0,1-.361.027c-.509.015-1.018-.024-1.527.021l-1.85.018a.9.9,0,0,1-.361.027c-.509.014-1.018-.024-1.527.021l-1.852.018a.878.878,0,0,1-.36.027c-.509.015-1.018-.024-1.526.021l-1.853.018a.861.861,0,0,1-.36.027c-.509.015-1.017-.024-1.525.021l-1.853.018a.87.87,0,0,1-.36.027c-.508.015-1.017-.023-1.525.021l-1.853.018a.866.866,0,0,1-.36.027c-.509.015-1.017-.023-1.525.021l-1.853.018a.866.866,0,0,1-.36.028c-.508.015-1.017-.024-1.525.021l-1.853.018a.861.861,0,0,1-.36.027c-.508.015-1.017-.023-1.525.021l-1.914.019a.928.928,0,0,1-.362.027c-.509.015-1.02-.025-1.529.022l-1.847.018a.926.926,0,0,1-.362.027c-.509.015-1.02-.025-1.529.022l-1.848.018a.924.924,0,0,1-.361.027c-.509.015-1.02-.025-1.529.022l-1.848.018a.913.913,0,0,1-.362.027c-.509.015-1.019-.025-1.528.022l-1.849.018a.912.912,0,0,1-.361.027c-.509.015-1.019-.024-1.528.022-.389.008-.779.038-1.166.019a.871.871,0,0,0-.956.532c-.613,1.166-1.264,2.316-1.935,3.453-.692,1.172-1.321,2.381-1.987,3.568-.646,1.15-1.311,2.29-1.958,3.44-.6,1.073-1.187,2.157-1.789,3.23-.507.9-1.036,1.795-1.542,2.7-.479.855-.936,1.723-1.414,2.578-.436.781-.9,1.549-1.333,2.329-.474.846-.93,1.7-1.4,2.547-.437.779-.895,1.547-1.333,2.326-.475.846-.93,1.7-1.406,2.549-.437.779-.893,1.547-1.332,2.324-.5.884-.988,1.773-1.482,2.66.006.314.249.156.366.156q15.841.013,31.683.008a1.02,1.02,0,0,0,.331-.019c.111,0,.222-.012.333-.012q8.34,0,16.679-.008,6.955,0,13.91-.014c1.39,0,2.779.01,4.168.016a1.106,1.106,0,0,1,.429-.027l34.235,0a1.375,1.375,0,0,0,.4-.019l7-.015C2258.373,1293.581,2258.37,1293.583,2258.028,1292.754Zm-92.354-10.684a4.141,4.141,0,0,1-2.485,1.16c-.515.075-1.036.105-1.427.143a10.78,10.78,0,0,1-2.563-.336,3.75,3.75,0,0,1-1.487-.855,1.387,1.387,0,0,1,.019-2.224,4.7,4.7,0,0,1,2.456-1.021,8.158,8.158,0,0,1,4.262.367,3.266,3.266,0,0,1,1.227.778A1.332,1.332,0,0,1,2165.674,1282.07Zm.624-6.1a5.229,5.229,0,0,1-2.381.529,7.112,7.112,0,0,1-2.517-.41,1.264,1.264,0,0,1-.8-.613,1.073,1.073,0,0,1,.455-1.566,5.274,5.274,0,0,1,3.21-.657,4.8,4.8,0,0,1,2.02.507c.455.243.88.543.874,1.119C2167.157,1275.441,2166.745,1275.74,2166.3,1275.975Zm1.919-4.121a3.363,3.363,0,0,1-1.545.565,6.552,6.552,0,0,1-1.3.081,6.911,6.911,0,0,1-2.138-.274,1.3,1.3,0,0,1-.733-.489.633.633,0,0,1,.123-.984,2.663,2.663,0,0,1,1.124-.479,7.367,7.367,0,0,1,3.659.08,2.233,2.233,0,0,1,.806.385A.64.64,0,0,1,2168.217,1271.854Zm4.115-4.787a4.837,4.837,0,0,1-1.814.615,8.069,8.069,0,0,1-4.082-.462,1.229,1.229,0,0,1-.729-.683.928.928,0,0,1,.212-1.151,2.939,2.939,0,0,1,1.371-.716,7.421,7.421,0,0,1,4.234.08,3.025,3.025,0,0,1,.863.424A1.048,1.048,0,0,1,2172.332,1267.066Zm11.1,21.842a3.158,3.158,0,0,1-1.267,1.2,7.86,7.86,0,0,1-3.931.965,6.68,6.68,0,0,1-2.445-.415,2.769,2.769,0,0,1-1-.647,1.554,1.554,0,0,1-.187-2.115,2.847,2.847,0,0,1,.89-.842,7.68,7.68,0,0,1,6.591-.734,2.642,2.642,0,0,1,1.11.715A1.535,1.535,0,0,1,2183.428,1288.908Zm1.639-7.968a7.729,7.729,0,0,1-5.894.824,1.944,1.944,0,0,1-1.43-1.081,1.53,1.53,0,0,1,.294-1.727,4.609,4.609,0,0,1,2.283-1.3,7.428,7.428,0,0,1,2.1-.3,5.716,5.716,0,0,1,2.4.469A1.676,1.676,0,0,1,2185.067,1280.94Zm2.431-8.534a2.33,2.33,0,0,1-1.127,1.09,8.2,8.2,0,0,1-3.491.738,6.292,6.292,0,0,1-1.458-.139,2.372,2.372,0,0,1-1.382-.805,1.156,1.156,0,0,1-.119-1.471,2.422,2.422,0,0,1,.935-.838,7.1,7.1,0,0,1,5.326-.615,2.423,2.423,0,0,1,1.1.609A1.147,1.147,0,0,1,2187.5,1272.406Zm1.233-5.594a8.288,8.288,0,0,1-2.246.8,9.362,9.362,0,0,1-1.677.189,7.286,7.286,0,0,1-2.075-.313,1.1,1.1,0,0,1-.405-2,5,5,0,0,1,2.422-1.031,7.139,7.139,0,0,1,3.073.024,3.175,3.175,0,0,1,.885.374,1.333,1.333,0,0,1,.582,1.3C2189.286,1266.488,2188.993,1266.665,2188.731,1266.812Zm18.925,4.868a4.115,4.115,0,0,1,1.983.611,1.243,1.243,0,0,1,.705,1.162,1.341,1.341,0,0,1-.941,1.179,5.407,5.407,0,0,1-4,.006,2.417,2.417,0,0,1-.736-.446,1.1,1.1,0,0,1,.028-1.8,3.526,3.526,0,0,1,2.01-.708,1.021,1.021,0,0,1,.294-.047c-.055-.021-.11-.044-.164-.068a3.109,3.109,0,0,1-2.02-.9,1.08,1.08,0,0,1,.055-1.712,3.135,3.135,0,0,1,1.636-.686,5.207,5.207,0,0,1,2.846.293,2.3,2.3,0,0,1,.923.637,1.06,1.06,0,0,1-.01,1.452,2.492,2.492,0,0,1-1.751.909c-.286.038-.575.053-.863.079a.61.61,0,0,1-.091.041C2207.594,1271.677,2207.625,1271.679,2207.656,1271.68Zm-1.976-11.266a3.06,3.06,0,0,1,1.379-.625,5.3,5.3,0,0,1,2.536-.057,1.875,1.875,0,0,1,.222.07c.3.116.609.268.6.63a.87.87,0,0,1-.537.783,6.169,6.169,0,0,1-2.518.536,2.526,2.526,0,0,1-1.652-.354A.578.578,0,0,1,2205.68,1260.414Zm.878,3.459a3.064,3.064,0,0,1,.761.406,1.081,1.081,0,0,1,.479,1,.951.951,0,0,1-.787.959,8.892,8.892,0,0,1-5.561-.13,1.193,1.193,0,0,1-.762-.64.908.908,0,0,1,.322-1.293,3.948,3.948,0,0,1,1.607-.608,9.052,9.052,0,0,1,1.355-.118A7.473,7.473,0,0,1,2206.558,1263.873Zm-7.749-3.415a1.874,1.874,0,0,1,.658-.5,5.54,5.54,0,0,1,3.67-.41,1.834,1.834,0,0,1,.61.26.89.89,0,0,1,0,1.528,5.169,5.169,0,0,1-1.854.608,6.683,6.683,0,0,1-1.206.085,5.866,5.866,0,0,1-1.051-.077,1.249,1.249,0,0,1-.853-.522A.712.712,0,0,1,2198.809,1260.458Zm2.759,29.165a3.793,3.793,0,0,1-2.181,1.053,6.6,6.6,0,0,1-3.381-.3,3.087,3.087,0,0,1-1.315-.937,1.368,1.368,0,0,1,.088-2,3.988,3.988,0,0,1,2.247-1,4.54,4.54,0,0,1,.894-.079,6.128,6.128,0,0,1,2.843.6,2.847,2.847,0,0,1,.852.632A1.377,1.377,0,0,1,2201.568,1289.622Zm-1.251-7.991a1.9,1.9,0,0,1-1.1-1.04,1.287,1.287,0,0,1,.281-1.6,4.015,4.015,0,0,1,1.988-.945,9.061,9.061,0,0,1,1.733-.188,8.16,8.16,0,0,1,2.951.518,3.332,3.332,0,0,1,1.252.8,1.616,1.616,0,0,1,.368,1.316c-.058.867-.628,1.141-1.291,1.342a10.024,10.024,0,0,1-4.152.3A7.336,7.336,0,0,1,2200.317,1281.632Zm10.491,7.775a1.844,1.844,0,0,1-1.364,1.045,7.28,7.28,0,0,1-1.759.287,7.955,7.955,0,0,1-3.066-.546,1.708,1.708,0,0,1-1.037-1.437,1.439,1.439,0,0,1,.767-1.444,4.265,4.265,0,0,1,2.023-.7,6.088,6.088,0,0,1,3.228.436,2.91,2.91,0,0,1,1.024.727A1.42,1.42,0,0,1,2210.808,1289.407Zm9.652-30.044a5.411,5.411,0,0,1,2.626-.6,7.047,7.047,0,0,1,2.585.44,2.349,2.349,0,0,1,.74.44.853.853,0,0,1-.22,1.473,6.368,6.368,0,0,1-3.411.536,5.39,5.39,0,0,1-2.289-.642A.878.878,0,0,1,2220.46,1259.363Zm-.281,6.4a1,1,0,0,1,.292-1.31,3.445,3.445,0,0,1,1.625-.724,7.5,7.5,0,0,1,4.384.339,2.781,2.781,0,0,1,.638.357,1.161,1.161,0,0,1,.6,1.08,1.351,1.351,0,0,1-.9,1.243,8.705,8.705,0,0,1-2.693.41,8.808,8.808,0,0,1-2.87-.462A1.922,1.922,0,0,1,2220.179,1265.762Zm1.05,6.674a1.06,1.06,0,0,1,.086-1.5,3.4,3.4,0,0,1,1.875-.868,7.3,7.3,0,0,1,3.971.289,2.749,2.749,0,0,1,1.188.773,1.327,1.327,0,0,1-.441,2.024,8.994,8.994,0,0,1-2.918.523,7.437,7.437,0,0,1-2.9-.571A2.127,2.127,0,0,1,2221.229,1272.437Zm.777,7.629a1.593,1.593,0,0,1,.472-2.109,4.724,4.724,0,0,1,2.382-.955,7.228,7.228,0,0,1,3.86.429,3.774,3.774,0,0,1,1.076.657,1.633,1.633,0,0,1-.2,2.753,6.545,6.545,0,0,1-3.676.869,6.282,6.282,0,0,1-3.107-.87A1.871,1.871,0,0,1,2222.005,1280.065Zm10,9.238a4.513,4.513,0,0,1-2.613,1.27,6.132,6.132,0,0,1-1.47.144,8.231,8.231,0,0,1-3.718-.827,2.382,2.382,0,0,1-1.169-1.266,1.536,1.536,0,0,1,.209-1.6,3.424,3.424,0,0,1,1.745-1.167,7.991,7.991,0,0,1,5.509.124,3.691,3.691,0,0,1,1.53,1.034A1.638,1.638,0,0,1,2232.006,1289.3Zm5.177-22.978a.882.882,0,0,1-.046-1.625,4.286,4.286,0,0,1,1.961-.582,7.265,7.265,0,0,1,3.155.339,2.8,2.8,0,0,1,.739.378.9.9,0,0,1-.184,1.657,6.537,6.537,0,0,1-2.628.5,6.868,6.868,0,0,1-2.7-.521A3.036,3.036,0,0,1,2237.182,1266.325Zm2.737,4.934a.956.956,0,0,1-.189-1.672,3.561,3.561,0,0,1,1.862-.657,7.453,7.453,0,0,1,3.327.284,2.98,2.98,0,0,1,.775.38,1.079,1.079,0,0,1,.449,1.313.79.79,0,0,1-.506.453,6.043,6.043,0,0,1-1.917.392c-.254.023-.511,0-.767,0a8.29,8.29,0,0,1-2.567-.323A3.246,3.246,0,0,1,2239.919,1271.259Zm.992,1.7a3,3,0,0,1,1.488-.621,7.356,7.356,0,0,1,3.905.281,2.453,2.453,0,0,1,.723.406.81.81,0,0,1-.055,1.414,3.771,3.771,0,0,1-1.645.589,5.689,5.689,0,0,1-1.083.079,6.759,6.759,0,0,1-2.529-.4,2.446,2.446,0,0,1-.827-.487A.761.761,0,0,1,2240.911,1272.956Zm8.406,8.222a4.439,4.439,0,0,1-2.223.982,7.47,7.47,0,0,1-1.657.144,10.358,10.358,0,0,1-2.951-.449,2.56,2.56,0,0,1-1.475-1.313,1.242,1.242,0,0,1,.231-1.5,3.7,3.7,0,0,1,1.913-1.02,8.209,8.209,0,0,1,5.009.28,3.372,3.372,0,0,1,1.206.755A1.342,1.342,0,0,1,2249.317,1281.179Z" transform="translate(-2147.966 -1257.937)" fill="#fff"/></g><path d="M2424.361,1367.5a10.422,10.422,0,0,1-2.987-.359,3.006,3.006,0,0,1-1.233-.7c-.261-.245-.263-.391.016-.625a2.937,2.937,0,0,1,1.336-.564,10.439,10.439,0,0,1,5.3.214,2.528,2.528,0,0,1,.941.484c.325.284.315.532-.032.787a4.264,4.264,0,0,1-1.932.664A9.9,9.9,0,0,1,2424.361,1367.5Z" transform="translate(640.828 -936.648)" fill="#fff"/><path d="M2418.683,1360.7a1.188,1.188,0,0,1,.114-1.258,2.739,2.739,0,0,1,1.374-1.011,7.542,7.542,0,0,1,5.8.134,2.831,2.831,0,0,1,1.25.966,1.272,1.272,0,0,1,.078,1.456,3.86,3.86,0,0,0-2.725-1.256,10.668,10.668,0,0,0-4.46.157A2.6,2.6,0,0,0,2418.683,1360.7Z" transform="translate(641.835 -931.524)" fill="#fff"/><path d="M2248.288,1367.147a5.634,5.634,0,0,1-2.428-.4,2.92,2.92,0,0,1-.516-.3.641.641,0,0,1-.168-.937,1.914,1.914,0,0,1,.771-.672,8.347,8.347,0,0,1,5.945-.713,2.12,2.12,0,0,1,.861.421.689.689,0,0,1,.131,1.052,2.763,2.763,0,0,1-1.064.782A8.652,8.652,0,0,1,2248.288,1367.147Z" transform="translate(767.089 -935.822)" fill="#fff"/><path d="M2252.411,1361.694a2.532,2.532,0,0,0-1.971-1.088,9.052,9.052,0,0,0-5.061.615,2.81,2.81,0,0,0-1.583,1.381,1.273,1.273,0,0,1,.2-1.086,3.01,3.01,0,0,1,1.179-1.008,7.551,7.551,0,0,1,5.626-.592,2.64,2.64,0,0,1,1.378.831A.962.962,0,0,1,2252.411,1361.694Z" transform="translate(768.022 -932.755)" fill="#fff"/><path d="M2337.682,1337.791a6.953,6.953,0,0,1-2.935-.552,3.206,3.206,0,0,1-.892-.574.254.254,0,0,1,0-.424,1.907,1.907,0,0,1,.718-.407,9.33,9.33,0,0,1,3.85-.363,7.083,7.083,0,0,1,2.265.5c.283.12.692.228.715.528.025.323-.371.491-.647.642A6.062,6.062,0,0,1,2337.682,1337.791Z" transform="translate(703.059 -915.284)" fill="#fff"/><path d="M2332.83,1332.7a1,1,0,0,1,.409-1.025,3.992,3.992,0,0,1,1.876-.8,7.856,7.856,0,0,1,4.3.3,3.025,3.025,0,0,1,1.207.748,1.068,1.068,0,0,1,.324.786C2339.128,1331.315,2334.044,1331.409,2332.83,1332.7Z" transform="translate(703.733 -911.876)" fill="#fff"/><path d="M2418.756,1331.692a8.488,8.488,0,0,1,2.972.513,2.3,2.3,0,0,1,.867.546.487.487,0,0,1-.013.785,2.975,2.975,0,0,1-1.633.762,9.042,9.042,0,0,1-4.448-.218,2.419,2.419,0,0,1-1.167-.738c-.273-.323-.256-.539.081-.821a3.465,3.465,0,0,1,1.519-.644A10.241,10.241,0,0,1,2418.756,1331.692Z" transform="translate(644.295 -912.592)" fill="#fff"/><path d="M2422.606,1329.56a3.34,3.34,0,0,0-1.907-1.062,9.422,9.422,0,0,0-4.39-.058,3.3,3.3,0,0,0-1.721.875,1.392,1.392,0,0,1,.581-1.055,4.045,4.045,0,0,1,1.748-.781,6.891,6.891,0,0,1,4.244.362,3.069,3.069,0,0,1,.971.634A1.4,1.4,0,0,1,2422.606,1329.56Z" transform="translate(644.697 -909.423)" fill="#fff"/><path d="M2488.142,1336.437a9.21,9.21,0,0,1,2.7.4,2.744,2.744,0,0,1,.746.36c.406.294.4.584-.035.848a3.635,3.635,0,0,1-1.249.424,7.784,7.784,0,0,1-4.628-.429,4.564,4.564,0,0,1-.663-.379c-.255-.166-.213-.331-.019-.5a1.864,1.864,0,0,1,.608-.336A7.908,7.908,0,0,1,2488.142,1336.437Z" transform="translate(593.99 -916.017)" fill="#fff"/><path d="M2483.316,1332.757a.883.883,0,0,1,0-1.132,2.287,2.287,0,0,1,1.1-.785,7.653,7.653,0,0,1,5.837.133,2.479,2.479,0,0,1,.915.654,1,1,0,0,1-.175,1.591,1.183,1.183,0,0,0-.745-.868,6.1,6.1,0,0,0-2.077-.558,9.226,9.226,0,0,0-3.664.233A2.015,2.015,0,0,0,2483.316,1332.757Z" transform="translate(595.231 -911.606)" fill="#fff"/><path d="M2187.965,1342.27a6.394,6.394,0,0,1-2.853-.51,3.046,3.046,0,0,1-.41-.218c-.3-.2-.321-.438-.052-.676a2.25,2.25,0,0,1,.916-.457,8.949,8.949,0,0,1,4.831.005,2.47,2.47,0,0,1,.781.362c.413.294.408.592-.03.837a5.758,5.758,0,0,1-2.351.653C2188.521,1342.29,2188.242,1342.27,2187.965,1342.27Z" transform="translate(810.822 -918.647)" fill="#fff"/><path d="M2182.5,1336.783a1,1,0,0,1,.116-1.522,3.681,3.681,0,0,1,1.648-.831,7.652,7.652,0,0,1,4.961.277,2.576,2.576,0,0,1,1,.7.956.956,0,0,1-.024,1.383,2.707,2.707,0,0,0-2.114-1.146,9.363,9.363,0,0,0-4.16.151A2.049,2.049,0,0,0,2182.5,1336.783Z" transform="translate(812.45 -914.364)" fill="#fff"/><path d="M2259.21,1335.007a4.758,4.758,0,0,1-2.19-.411,2.239,2.239,0,0,1-.605-.408.543.543,0,0,1-.08-.823,2.221,2.221,0,0,1,.872-.709,7.746,7.746,0,0,1,5.287-.6,2.216,2.216,0,0,1,.9.426.6.6,0,0,1,.118.974,3.979,3.979,0,0,1-2.114,1.252A7.261,7.261,0,0,1,2259.21,1335.007Z" transform="translate(759.047 -912.7)" fill="#fff"/><path d="M2263.537,1330.072a4.664,4.664,0,0,0-2.611-.663,8.584,8.584,0,0,0-3.139.516,4.546,4.546,0,0,0-1.517.88c-.068.012-.1-.006-.081-.082a1.8,1.8,0,0,1,.74-.788,6.539,6.539,0,0,1,5.642-.672,1.954,1.954,0,0,1,1.041.734C2263.633,1330.068,2263.6,1330.087,2263.537,1330.072Z" transform="translate(759.047 -910.584)" fill="#fff"/><path d="M2255.943,1335.428l.081.082-.178.224A.326.326,0,0,1,2255.943,1335.428Z" transform="translate(759.294 -915.289)" fill="#33b2f0"/><path d="M2282.627,1332.894l.075-.075c.082.046.092.129.132.219A.247.247,0,0,1,2282.627,1332.894Z" transform="translate(739.958 -913.406)" fill="#71c9f5"/><path d="M2320.519,1367.685a5.948,5.948,0,0,1-2.657-.543,2.544,2.544,0,0,1-.451-.28.643.643,0,0,1-.049-1.057,2.1,2.1,0,0,1,.861-.489,6.087,6.087,0,0,1,4.046.09,2.183,2.183,0,0,1,.816.5.679.679,0,0,1-.12,1.148,4.054,4.054,0,0,1-1.56.543A4.53,4.53,0,0,1,2320.519,1367.685Z" transform="translate(715.066 -936.647)" fill="#fff"/><path d="M2322.723,1363.651a2.129,2.129,0,0,0-1.592-1.336,6.391,6.391,0,0,0-3.964,0,2.022,2.022,0,0,0-1.348,1.075.917.917,0,0,1,.128-.9,2.237,2.237,0,0,1,1.147-.821,5.967,5.967,0,0,1,4.481.112,2.452,2.452,0,0,1,.967.692A1.056,1.056,0,0,1,2322.723,1363.651Z" transform="translate(716.044 -933.952)" fill="#fff"/><path d="M2268.6,1306.585a5.712,5.712,0,0,1,1.884.218,2.273,2.273,0,0,1,.454.2c.42.256.44.513.061.827a5.114,5.114,0,0,1-2.325,1.007,6.517,6.517,0,0,1-3.225-.087,2.7,2.7,0,0,1-.637-.281.365.365,0,0,1-.122-.607,1.947,1.947,0,0,1,.792-.59A7.55,7.55,0,0,1,2268.6,1306.585Z" transform="translate(752.987 -894.468)" fill="#fff"/><path d="M2263.346,1305.2a.943.943,0,0,1,.276-1.026,3.99,3.99,0,0,1,1.877-1.026,6.692,6.692,0,0,1,3.908-.048,2.146,2.146,0,0,1,.892.5.853.853,0,0,1,.283.74,3.265,3.265,0,0,0-2.3-.779,8.334,8.334,0,0,0-3.652.605A2.448,2.448,0,0,0,2263.346,1305.2Z" transform="translate(753.916 -891.757)" fill="#fff"/><path d="M2415.657,1306.607a8.481,8.481,0,0,1,2.983.416c.245.09.606.166.618.428.01.226-.325.361-.55.481a5.37,5.37,0,0,1-2.855.471,7.139,7.139,0,0,1-2.19-.369,2.692,2.692,0,0,1-.7-.369c-.258-.2-.257-.324.019-.509a3.567,3.567,0,0,1,1.448-.458A7.441,7.441,0,0,1,2415.657,1306.607Z" transform="translate(646.011 -894.484)" fill="#fff"/><path d="M2418.617,1303.878c-1.618-1.114-6.1-1.051-6.982.04a.72.72,0,0,1,.25-.89,3.167,3.167,0,0,1,1.556-.705,6.937,6.937,0,0,1,3.8.218,2.751,2.751,0,0,1,1.054.617A.98.98,0,0,1,2418.617,1303.878Z" transform="translate(646.879 -891.27)" fill="#fff"/><path d="M2412.481,1283.382a7.423,7.423,0,0,1,2.718.386c.268.1.667.188.673.46s-.387.383-.648.5a6.214,6.214,0,0,1-3,.431,6.033,6.033,0,0,1-2.22-.516,3.432,3.432,0,0,1-.32-.177c-.408-.254-.4-.4.033-.63a5.023,5.023,0,0,1,1.932-.447C2411.925,1283.362,2412.2,1283.382,2412.481,1283.382Z" transform="translate(648.454 -877.712)" fill="#fff"/><path d="M2415.345,1280.9c-2.015-1.112-5.69-1.121-6.974.01a.676.676,0,0,1,.167-.729,2.334,2.334,0,0,1,1.09-.613,7.213,7.213,0,0,1,4.483.109,2.61,2.61,0,0,1,.894.5A.784.784,0,0,1,2415.345,1280.9Z" transform="translate(649.215 -874.747)" fill="#fff"/><path d="M2353.214,1369.411a5.684,5.684,0,0,1-2.143-.387,3.314,3.314,0,0,1-.691-.4c-.434-.333-.428-.5.076-.743a6.2,6.2,0,0,1,3.095-.446,6.032,6.032,0,0,1,1.886.369c.327.13.792.243.792.61,0,.3-.448.444-.745.589A5.047,5.047,0,0,1,2353.214,1369.411Z" transform="translate(691.274 -938.381)" fill="#fff"/><path d="M2349.08,1364a1.025,1.025,0,0,1,.33-1.086,3.161,3.161,0,0,1,1.6-.768,5.687,5.687,0,0,1,3.825.421,2.186,2.186,0,0,1,.748.6,1.018,1.018,0,0,1,.185,1,5.041,5.041,0,0,0-3.313-.965A5.1,5.1,0,0,0,2349.08,1364Z" transform="translate(692.018 -934.468)" fill="#fff"/><path d="M2276.13,1285.088a5.984,5.984,0,0,1,1.828.262c.267.1.284.224.111.427a2.315,2.315,0,0,1-1,.7,8.678,8.678,0,0,1-4.425.414,2.132,2.132,0,0,1-.792-.335c-.183-.119-.166-.236-.025-.369a2.334,2.334,0,0,1,.741-.44A10.333,10.333,0,0,1,2276.13,1285.088Z" transform="translate(747.834 -878.949)" fill="#fff"/><path d="M2270.932,1283.706a1.16,1.16,0,0,1,.56-.762,5.487,5.487,0,0,1,2.385-.862,6.378,6.378,0,0,1,2.705.1,1.729,1.729,0,0,1,1.017.6A9.268,9.268,0,0,0,2270.932,1283.706Z" transform="translate(748.4 -876.708)" fill="#fff"/><path d="M2216.29,1287.512a9.658,9.658,0,0,1-2.148-.25,2.245,2.245,0,0,1-.747-.354c-.322-.237-.315-.333.047-.529a3.526,3.526,0,0,1,1.141-.35,9.909,9.909,0,0,1,3.875.1,2.269,2.269,0,0,1,.855.356c.173.129.185.257,0,.4a2.72,2.72,0,0,1-1.1.444A11.109,11.109,0,0,1,2216.29,1287.512Z" transform="translate(790.103 -879.524)" fill="#fff"/><path d="M2212.55,1283.637c.034-.31.289-.491.552-.652a4.322,4.322,0,0,1,1.861-.568,7.058,7.058,0,0,1,3.154.292,2.661,2.661,0,0,1,.814.442.749.749,0,0,1,.33.571A8.685,8.685,0,0,0,2212.55,1283.637Z" transform="translate(790.545 -876.981)" fill="#fff"/><path d="M2342.429,1284.121a9.145,9.145,0,0,1-2.375-.254,2.965,2.965,0,0,1-.842-.387c-.236-.152-.158-.246.037-.335a4.41,4.41,0,0,1,1.453-.335,11.065,11.065,0,0,1,3.836.252c.181.048.354.127.531.192.233.086.2.184.019.3a3.931,3.931,0,0,1-1.959.563C2342.9,1284.134,2342.662,1284.121,2342.429,1284.121Z" transform="translate(699.215 -877.261)" fill="#fff"/><path d="M2344.737,1280.221a10.249,10.249,0,0,0-6.627-.074c-.064-.3.164-.481.4-.639a3.385,3.385,0,0,1,1.24-.46,7.2,7.2,0,0,1,4.031.284,2.13,2.13,0,0,1,.71.425A.607.607,0,0,1,2344.737,1280.221Z" transform="translate(699.913 -874.474)" fill="#fff"/><path d="M2410.949,1265.334a9.474,9.474,0,0,1,2.922.343c.168.053.439.107.438.247,0,.2-.265.274-.453.325a9.333,9.333,0,0,1-3.077.2,7.14,7.14,0,0,1-1.8-.311c-.186-.062-.468-.124-.467-.314,0-.211.3-.22.48-.271A7.079,7.079,0,0,1,2410.949,1265.334Z" transform="translate(649.083 -864.689)" fill="#fff"/><path d="M2407.812,1263.048a1.1,1.1,0,0,1,.7-.6,6.018,6.018,0,0,1,2.745-.372,5.694,5.694,0,0,1,2,.45,1.162,1.162,0,0,1,.708.641A10.187,10.187,0,0,0,2407.812,1263.048Z" transform="translate(649.588 -862.322)" fill="#fff"/><path d="M2472.046,1285.763a10.5,10.5,0,0,1-2.437-.236,2.209,2.209,0,0,1-.731-.3c-.148-.1-.135-.172.021-.249a3.173,3.173,0,0,1,1.022-.274,10.119,10.119,0,0,1,4.023.223c.2.054.514.092.509.289s-.316.265-.524.332A7.154,7.154,0,0,1,2472.046,1285.763Z" transform="translate(605.581 -878.596)" fill="#fff"/><path d="M2467.924,1282.264c-.037-.271.191-.413.4-.545a3.752,3.752,0,0,1,1.644-.491,6.91,6.91,0,0,1,3.246.349,2.034,2.034,0,0,1,.658.383.529.529,0,0,1,.231.422A9.416,9.416,0,0,0,2467.924,1282.264Z" transform="translate(606.198 -876.127)" fill="#fff"/><path d="M2484.155,1301.968a2.594,2.594,0,0,1-1.4.639,7.51,7.51,0,0,1-3.494-.149,2.735,2.735,0,0,1-.947-.475c-.164-.131-.154-.216.038-.3a4.5,4.5,0,0,1,1.422-.329,10.194,10.194,0,0,1,3.606.243A1.837,1.837,0,0,1,2484.155,1301.968Z" transform="translate(598.777 -890.651)" fill="#fff"/><path d="M2477.94,1299.26a1.155,1.155,0,0,1,.678-.527,5.48,5.48,0,0,1,2.217-.378,6.108,6.108,0,0,1,2.441.44,1.466,1.466,0,0,1,.784.625A9.714,9.714,0,0,0,2477.94,1299.26Z" transform="translate(598.964 -888.526)" fill="#fff"/><path d="M2197.339,1317.37a5.786,5.786,0,0,1,2.218.355c.23.1.539.174.542.471s-.305.389-.538.47a6.47,6.47,0,0,1-4.174.064,2.294,2.294,0,0,1-.666-.37c-.218-.161-.182-.3.016-.44a2.692,2.692,0,0,1,.95-.384A6.937,6.937,0,0,1,2197.339,1317.37Z" transform="translate(803.522 -902.253)" fill="#fff"/><path d="M2193.915,1315.421a1.063,1.063,0,0,1,.613-.771,4.375,4.375,0,0,1,1.78-.505,5.776,5.776,0,0,1,2.812.362,1.747,1.747,0,0,1,.733.506.543.543,0,0,1,.1.632,1.873,1.873,0,0,0-1.214-.727,7.883,7.883,0,0,0-3.6-.046A2.784,2.784,0,0,0,2193.915,1315.421Z" transform="translate(803.997 -899.899)" fill="#fff"/><path d="M2486.365,1312.664a6.18,6.18,0,0,1,2.188.378c.232.094.54.182.539.476s-.321.38-.554.45a6.423,6.423,0,0,1-4.153-.1c-.232-.085-.543-.184-.53-.481.012-.273.317-.349.542-.431A5.8,5.8,0,0,1,2486.365,1312.664Z" transform="translate(594.695 -898.856)" fill="#fff"/><path d="M2488.212,1311.811a1.238,1.238,0,0,0-.832-.752,6.719,6.719,0,0,0-2.849-.361,5.464,5.464,0,0,0-1.244.2,1.436,1.436,0,0,0-1.066.792c-.219-.332-.052-.533.168-.7a3.277,3.277,0,0,1,1.581-.56,7.007,7.007,0,0,1,3.38.295,2.073,2.073,0,0,1,.746.426A.456.456,0,0,1,2488.212,1311.811Z" transform="translate(595.948 -897.188)" fill="#fff"/><path d="M2329.683,1301.474a4.27,4.27,0,0,1-2.22-.564c-.356-.22-.366-.473-.023-.721a2.83,2.83,0,0,1,1.376-.453,4.949,4.949,0,0,1,2.55.306c.292.123.659.264.637.64-.019.326-.393.38-.647.493A4.465,4.465,0,0,1,2329.683,1301.474Z" transform="translate(707.789 -889.49)" fill="#fff"/><path d="M2326.059,1297.826a.791.791,0,0,1,.366-.887,3.106,3.106,0,0,1,1.575-.572,4.435,4.435,0,0,1,2.923.524.976.976,0,0,1,.571,1.046,3.428,3.428,0,0,0-2.7-.989A3.356,3.356,0,0,0,2326.059,1297.826Z" transform="translate(708.626 -887.058)" fill="#fff"/><path d="M2355.864,1299.945a5.214,5.214,0,0,1,1.671.257,2.653,2.653,0,0,1,.4.17c.185.1.4.214.406.446s-.251.295-.422.365a4.647,4.647,0,0,1-3.894-.1c-.447-.211-.449-.484-.016-.733A3.865,3.865,0,0,1,2355.864,1299.945Z" transform="translate(688.664 -889.674)" fill="#fff"/><path d="M2352.266,1297.605a.752.752,0,0,1,.263-1.022,3.386,3.386,0,0,1,1.9-.63,4.657,4.657,0,0,1,2.278.359,1.865,1.865,0,0,1,.751.537.67.67,0,0,1,.1.813,3.355,3.355,0,0,0-2.649-.919A3.127,3.127,0,0,0,2352.266,1297.605Z" transform="translate(689.758 -886.78)" fill="#fff"/><path d="M2326.63,1314.835a3.891,3.891,0,0,1-2.253-.54c-.175-.111-.427-.228-.413-.441.017-.237.293-.315.5-.384a5.666,5.666,0,0,1,3.972.093c.23.089.521.206.512.505-.009.283-.309.353-.523.449A4.03,4.03,0,0,1,2326.63,1314.835Z" transform="translate(710.118 -899.211)" fill="#fff"/><path d="M2328.874,1311.168c-.821-1.037-4.018-1.258-5.423-.352a.751.751,0,0,1,.389-.657,3.261,3.261,0,0,1,1.645-.574,4.682,4.682,0,0,1,2.6.393,1.715,1.715,0,0,1,.655.5A.685.685,0,0,1,2328.874,1311.168Z" transform="translate(710.488 -896.606)" fill="#fff"/><path d="M2355.045,1313.459a5.215,5.215,0,0,1-2.138-.415c-.223-.108-.515-.214-.5-.518s.3-.4.538-.483a5.628,5.628,0,0,1,3.968.093c.221.086.5.2.5.475,0,.253-.275.352-.474.464A4.033,4.033,0,0,1,2355.045,1313.459Z" transform="translate(689.583 -898.18)" fill="#fff"/><path d="M2356.87,1309.8c-1.189-1.013-4.5-1.032-5.494.013a.882.882,0,0,1,.421-.792,3.463,3.463,0,0,1,1.914-.6,4.3,4.3,0,0,1,2.535.541A1.117,1.117,0,0,1,2356.87,1309.8Z" transform="translate(690.329 -895.787)" fill="#fff"/><path d="M2201.51,1305.772a2.529,2.529,0,0,1,1.224-.4,7.714,7.714,0,0,1,3.2.154c.185.052.477.085.477.286s-.292.231-.476.281a7.208,7.208,0,0,1-3.707.022A1.876,1.876,0,0,1,2201.51,1305.772Z" transform="translate(798.515 -893.521)" fill="#fff"/><path d="M2200.666,1303.73a.784.784,0,0,1,.494-.533,4.162,4.162,0,0,1,1.444-.371,6.629,6.629,0,0,1,2.992.289,1.23,1.23,0,0,1,.6.4.216.216,0,0,1,0,.3c-.107.088-.132-.068-.192-.113a2.825,2.825,0,0,0-1.44-.463,9.084,9.084,0,0,0-2.985.1A2.452,2.452,0,0,0,2200.666,1303.73Z" transform="translate(799.124 -891.719)" fill="#fff"/><path d="M2336.82,1267.5a2.338,2.338,0,0,1-1.074.626,5.723,5.723,0,0,1-2.689.211,1.519,1.519,0,0,1-.29-.07c-.149-.057-.4-.055-.4-.229,0-.156.229-.219.376-.288a5.2,5.2,0,0,1,1.371-.389,6.787,6.787,0,0,1,2.25-.036A.982.982,0,0,1,2336.82,1267.5Z" transform="translate(704.051 -866.068)" fill="#fff"/><path d="M2331.2,1265.666a.67.67,0,0,1,.352-.586,4.168,4.168,0,0,1,2.09-.692,4.426,4.426,0,0,1,1.782.126.893.893,0,0,1,.676.518A6.8,6.8,0,0,0,2331.2,1265.666Z" transform="translate(704.891 -863.981)" fill="#fff"/><path d="M2357.166,1268.345a5.944,5.944,0,0,1,3.66-.447A5.041,5.041,0,0,1,2357.166,1268.345Z" transform="translate(686.149 -866.464)" fill="#fff"/><path d="M2360.094,1265.649a7.113,7.113,0,0,0-3.559.187,2.119,2.119,0,0,0-.634.285c-.045.031-.083.128-.157.042a.157.157,0,0,1,0-.187.986.986,0,0,1,.45-.382,4.62,4.62,0,0,1,1.855-.476,3.98,3.98,0,0,1,1.55.125A.642.642,0,0,1,2360.094,1265.649Z" transform="translate(687.197 -864.518)" fill="#fff"/></g></g></svg>