<svg xmlns="http://www.w3.org/2000/svg" xmlns:xlink="http://www.w3.org/1999/xlink" width="160" height="190" viewBox="0 0 160 190"><defs><clipPath id="b"><rect width="160" height="190"/></clipPath></defs><g id="a" clip-path="url(#b)"><g transform="translate(-35 -195.66)"><rect width="128.168" height="155.306" rx="14" transform="translate(51 212.66)" fill="none" opacity="0.93"/><path d="M-16.646-2.126h-2.625L-19.8,0h-1.962l2.8-9.953h2.023L-14.144,0h-1.962Zm-2.229-1.552h1.832l-.9-3.521h-.041Zm8.08,2.27a.678.678,0,0,0,.6-.294,1.493,1.493,0,0,0,.2-.848H-8.23l.021.041A2.534,2.534,0,0,1-8.924-.6a2.514,2.514,0,0,1-1.87.745A2.69,2.69,0,0,1-13-.793a3.689,3.689,0,0,1-.769-2.42v-.95A3.731,3.731,0,0,1-13-6.586a2.659,2.659,0,0,1,2.194-.947A2.464,2.464,0,0,1-8.9-6.761,2.9,2.9,0,0,1-8.21-4.676l-.014.034H-9.994a2.02,2.02,0,0,0-.2-.972.656.656,0,0,0-.612-.368.8.8,0,0,0-.8.493,3.309,3.309,0,0,0-.219,1.321v.952a3.27,3.27,0,0,0,.219,1.328A.813.813,0,0,0-10.794-1.408ZM-4.4.144A2.824,2.824,0,0,1-6.61-.772a3.334,3.334,0,0,1-.82-2.311V-4.122a3.818,3.818,0,0,1,.762-2.454A2.547,2.547,0,0,1-4.56-7.533a2.451,2.451,0,0,1,2.01.868A3.625,3.625,0,0,1-1.839-4.3V-3.11H-5.5v.027a2.044,2.044,0,0,0,.332,1.2,1.142,1.142,0,0,0,1,.472,2.673,2.673,0,0,0,.889-.123,4.675,4.675,0,0,0,.813-.41L-1.969-.7A2.932,2.932,0,0,1-2.991-.1,3.978,3.978,0,0,1-4.4.144ZM-4.56-5.981a.721.721,0,0,0-.684.426,2.761,2.761,0,0,0-.246,1.147h1.743v-.275a1.972,1.972,0,0,0-.191-.958A.659.659,0,0,0-4.56-5.981ZM1.169,0H-.772V-7.4H1.169Zm0-9.181H-.772v-1.483H1.169Zm3.664-.055V-7.4H5.858v1.408H4.833v3.712a1.208,1.208,0,0,0,.13.646.406.406,0,0,0,.355.195,2.235,2.235,0,0,0,.3-.017,2.2,2.2,0,0,0,.273-.058l.15,1.477A3.872,3.872,0,0,1,5.455.1a4.425,4.425,0,0,1-.636.041A1.783,1.783,0,0,1,3.387-.434a2.788,2.788,0,0,1-.5-1.835V-5.988H2.017V-7.4h.875V-9.235Zm5,9.379A2.824,2.824,0,0,1,7.615-.772a3.334,3.334,0,0,1-.82-2.311V-4.122a3.818,3.818,0,0,1,.762-2.454,2.547,2.547,0,0,1,2.109-.957,2.451,2.451,0,0,1,2.01.868A3.625,3.625,0,0,1,12.387-4.3V-3.11H8.729v.027a2.044,2.044,0,0,0,.332,1.2,1.142,1.142,0,0,0,1,.472,2.673,2.673,0,0,0,.889-.123,4.675,4.675,0,0,0,.813-.41L12.257-.7A2.932,2.932,0,0,1,11.235-.1,3.978,3.978,0,0,1,9.83.144ZM9.666-5.981a.721.721,0,0,0-.684.426,2.761,2.761,0,0,0-.246,1.147h1.743v-.275a1.972,1.972,0,0,0-.191-.958A.659.659,0,0,0,9.666-5.981Zm6.918,4.047a.718.718,0,0,0-.246-.543,4.143,4.143,0,0,0-.943-.564,4.974,4.974,0,0,1-1.671-.943,1.8,1.8,0,0,1-.557-1.367,2,2,0,0,1,.714-1.542,2.728,2.728,0,0,1,1.89-.639,2.828,2.828,0,0,1,1.962.656,2.07,2.07,0,0,1,.7,1.675l-.021.041H16.543a1.266,1.266,0,0,0-.191-.738.669.669,0,0,0-.588-.273.738.738,0,0,0-.533.212.688.688,0,0,0-.219.513.687.687,0,0,0,.219.53,4.406,4.406,0,0,0,.95.55,4.607,4.607,0,0,1,1.723.94A1.9,1.9,0,0,1,18.464-2a1.891,1.891,0,0,1-.752,1.545,3.068,3.068,0,0,1-1.976.6A2.734,2.734,0,0,1,13.713-.6,2.2,2.2,0,0,1,13-2.283l.014-.041h1.777a1.207,1.207,0,0,0,.273.848.97.97,0,0,0,.718.26.841.841,0,0,0,.595-.191A.685.685,0,0,0,16.584-1.935Z" transform="translate(116.766 350)" fill="#5e5b5c"/><g transform="translate(95 240.789)"><path d="M39.221,21.741V15.865a2.573,2.573,0,0,0-2.35-2.56V12.291a3.481,3.481,0,0,0-3.477-3.477H28.9a2.63,2.63,0,0,0,.034-.4V2.6a2.606,2.606,0,0,0-2.6-2.6H12.886a2.606,2.606,0,0,0-2.6,2.6v5.81a2.63,2.63,0,0,0,.034.4H5.827A3.481,3.481,0,0,0,2.35,12.291V13.3A2.573,2.573,0,0,0,0,15.865v5.876A2.573,2.573,0,0,0,2.35,24.3v3.694A2.573,2.573,0,0,0,0,30.554V36.43a2.573,2.573,0,0,0,2.35,2.56v3.694A2.573,2.573,0,0,0,0,45.244V51.12a2.573,2.573,0,0,0,2.35,2.56v3.694A2.573,2.573,0,0,0,0,59.934V65.81a2.573,2.573,0,0,0,2.35,2.56v3.364a3.481,3.481,0,0,0,3.477,3.477H33.394a3.481,3.481,0,0,0,3.477-3.477V68.369a2.573,2.573,0,0,0,2.35-2.56V59.934a2.573,2.573,0,0,0-2.35-2.56V53.68a2.573,2.573,0,0,0,2.35-2.56V45.244a2.573,2.573,0,0,0-2.35-2.56V38.99a2.573,2.573,0,0,0,2.35-2.56V30.554a2.573,2.573,0,0,0-2.35-2.56V24.3a2.573,2.573,0,0,0,2.35-2.56ZM12.486,8.414V2.6a.4.4,0,0,1,.4-.4H26.335a.4.4,0,0,1,.4.4v5.81a.4.4,0,0,1-.4.4h-1.51V5.8a1.1,1.1,0,1,0-2.2,0V8.814h-1.91V5.8a1.1,1.1,0,0,0-2.2,0V8.814H16.6V5.8a1.1,1.1,0,0,0-2.2,0V8.814h-1.51a.4.4,0,0,1-.4-.4Zm-6.659,2.6H33.394a1.275,1.275,0,0,1,1.274,1.274v1H4.554v-1a1.275,1.275,0,0,1,1.274-1.274ZM2.2,21.741V15.865a.368.368,0,0,1,.367-.367h34.08a.368.368,0,0,1,.367.367v5.876a.368.368,0,0,1-.367.367H10.209a1.1,1.1,0,0,0,0,2.2H34.667v3.672H25.687a8.5,8.5,0,0,0-6.076-2.791,8.446,8.446,0,0,0-6.082,2.791H4.554V24.311h.955a1.1,1.1,0,1,0,0-2.2H2.571a.368.368,0,0,1-.367-.367Zm0,14.69V30.554a.368.368,0,0,1,.367-.367h9.246A18.769,18.769,0,0,0,9.336,36.8H2.571A.368.368,0,0,1,2.2,36.43ZM9.045,39a23.281,23.281,0,0,0-.024,3.672H4.554V39ZM2.2,51.12V45.244a.368.368,0,0,1,.367-.367H9.284a19.1,19.1,0,0,0,2.351,6.61H2.571A.368.368,0,0,1,2.2,51.12Zm23.764,2.571h8.7v3.672H4.554V53.691h8.7a8.57,8.57,0,0,0,6.357,3.085A8.57,8.57,0,0,0,25.968,53.691Zm11.05,6.243V65.81a.368.368,0,0,1-.367.367H33.688a1.1,1.1,0,1,0,0,2.2h.979v3.353a1.275,1.275,0,0,1-1.274,1.274H5.828a1.275,1.275,0,0,1-1.274-1.274V68.38H28.987a1.1,1.1,0,1,0,0-2.2H2.571A.368.368,0,0,1,2.2,65.81V59.934a.368.368,0,0,1,.367-.367h34.08a.368.368,0,0,1,.367.367Zm0-14.69V51.12a.368.368,0,0,1-.367.367H27.586a19.1,19.1,0,0,0,2.351-6.61H36.65A.368.368,0,0,1,37.018,45.244ZM30.2,42.673A23.379,23.379,0,0,0,30.177,39h4.491v3.672Zm6.819-12.119V36.43a.368.368,0,0,1-.367.367H29.886q-.123-.671-.285-1.325A1.1,1.1,0,0,0,27.463,36a20.646,20.646,0,0,1,.594,4.98A21.612,21.612,0,0,1,27.9,43.62c0,.024-.006.048-.008.072a16.947,16.947,0,0,1-2.45,7.079c-1.593,2.451-3.663,3.8-5.828,3.8s-4.235-1.35-5.828-3.8a16.947,16.947,0,0,1-2.449-7.079c0-.024-.005-.048-.008-.072a21.5,21.5,0,0,1-.161-2.636A18.142,18.142,0,0,1,13.782,31.2c1.593-2.451,3.663-3.8,5.828-3.8,2.362,0,4.643,1.645,6.259,4.513a1.1,1.1,0,0,0,1.92-1.081q-.185-.33-.382-.641H36.65a.368.368,0,0,1,.367.367Zm0,0" fill="#5e5b5c"/><path d="M105.7,232.822a1.1,1.1,0,0,0-1.556,0,20.536,20.536,0,0,0-2.031,2.443,9.61,9.61,0,0,0-2.112,5.31c0,4.118,2.542,5.586,4.921,5.586s4.921-1.468,4.921-5.586a9.612,9.612,0,0,0-2.113-5.31A20.5,20.5,0,0,0,105.7,232.822Zm-.778,11.136c-2.246,0-2.718-1.84-2.718-3.383,0-1.748,1.577-3.995,2.718-5.34,1.141,1.346,2.718,3.591,2.718,5.34C107.639,242.118,107.167,243.958,104.921,243.958Zm0,0" transform="translate(-85.311 -198.346)" fill="#5e5b5c"/></g></g></g></svg>