<svg xmlns="http://www.w3.org/2000/svg" xmlns:xlink="http://www.w3.org/1999/xlink" width="160" height="190" viewBox="0 0 160 190"><defs><clipPath id="b"><rect width="160" height="190"/></clipPath></defs><g id="a" clip-path="url(#b)"><path d="M14,0H114.168a14,14,0,0,1,14,14V141.306a14,14,0,0,1-14,14H14a14,14,0,0,1-14-14V14A14,14,0,0,1,14,0Z" transform="translate(16 17)" fill="none" opacity="0.93"/><path d="M-47.417-3.206l.021.041A3.421,3.421,0,0,1-48.176-.69a3.077,3.077,0,0,1-2.338.834A3.288,3.288,0,0,1-52.982-.8,3.685,3.685,0,0,1-53.9-3.486V-6.46a3.777,3.777,0,0,1,.892-2.683,3.115,3.115,0,0,1,2.389-.954,3.163,3.163,0,0,1,2.4.848A3.591,3.591,0,0,1-47.39-6.74l-.021.041h-1.873a2.323,2.323,0,0,0-.267-1.413,1.228,1.228,0,0,0-1.073-.432,1.141,1.141,0,0,0-1,.513,2.788,2.788,0,0,0-.349,1.553v2.99A2.674,2.674,0,0,0-51.6-1.921a1.263,1.263,0,0,0,1.09.513,1.1,1.1,0,0,0,.981-.407,2.43,2.43,0,0,0,.243-1.391ZM-42.742,0a3.319,3.319,0,0,1-.147-.4,3.293,3.293,0,0,1-.1-.444,2.312,2.312,0,0,1-.667.721,1.572,1.572,0,0,1-.913.27,1.891,1.891,0,0,1-1.466-.6,2.288,2.288,0,0,1-.55-1.606,2.105,2.105,0,0,1,.7-1.688,3.121,3.121,0,0,1,2.082-.6h.731v-.6a1.487,1.487,0,0,0-.195-.831.657.657,0,0,0-.584-.291.563.563,0,0,0-.492.232,1.168,1.168,0,0,0-.164.677l-1.88-.007-.021-.041a2.027,2.027,0,0,1,.714-1.641,2.828,2.828,0,0,1,1.972-.677,2.639,2.639,0,0,1,1.876.673,2.5,2.5,0,0,1,.721,1.917v2.994A6.479,6.479,0,0,0-41.046-.93a5.549,5.549,0,0,0,.232.93Zm-1.265-1.319a1,1,0,0,0,.543-.157,1.167,1.167,0,0,0,.393-.4V-3.24H-43.8a.707.707,0,0,0-.643.308,1.413,1.413,0,0,0-.2.779.99.99,0,0,0,.171.6A.547.547,0,0,0-44.006-1.319ZM-39.454,0V-5.988h-.909V-7.4h.909v-.82a2.668,2.668,0,0,1,.643-1.917,2.376,2.376,0,0,1,1.8-.673,2.763,2.763,0,0,1,.451.037q.226.037.52.1L-36.2-9.187q-.137-.027-.263-.048a1.882,1.882,0,0,0-.3-.021.645.645,0,0,0-.561.269,1.3,1.3,0,0,0-.191.764V-7.4h1.189v1.408h-1.189V0Zm6.7.144a2.824,2.824,0,0,1-2.215-.916,3.334,3.334,0,0,1-.82-2.311V-4.122a3.818,3.818,0,0,1,.762-2.454,2.547,2.547,0,0,1,2.109-.957,2.451,2.451,0,0,1,2.01.868A3.625,3.625,0,0,1-30.2-4.3V-3.11h-3.657v.027a2.044,2.044,0,0,0,.332,1.2,1.142,1.142,0,0,0,1,.472,2.673,2.673,0,0,0,.889-.123,4.675,4.675,0,0,0,.813-.41L-30.328-.7A2.932,2.932,0,0,1-31.35-.1,3.978,3.978,0,0,1-32.754.144Zm-.164-6.125a.721.721,0,0,0-.684.426,2.761,2.761,0,0,0-.246,1.147H-32.1v-.275a1.972,1.972,0,0,0-.191-.958A.659.659,0,0,0-32.918-5.981Zm.055-4.307h2.044l.021.041L-32.5-8.47l-1.565,0Zm9.092,7.253.014.075,1.08-4.437H-20.6l-2.5,8.511a4.038,4.038,0,0,1-.749,1.336,1.8,1.8,0,0,1-1.432.537,1.966,1.966,0,0,1-.424-.041q-.185-.041-.492-.123l.226-1.449.167.031a.576.576,0,0,0,.113.01.851.851,0,0,0,.639-.222,1.3,1.3,0,0,0,.311-.584l.171-.547L-26.746-7.4h2.085ZM-10.5-3.206l.021.041A3.421,3.421,0,0,1-11.262-.69,3.077,3.077,0,0,1-13.6.144,3.288,3.288,0,0,1-16.068-.8a3.685,3.685,0,0,1-.923-2.683V-6.46A3.777,3.777,0,0,1-16.1-9.143a3.115,3.115,0,0,1,2.389-.954,3.163,3.163,0,0,1,2.4.848,3.591,3.591,0,0,1,.837,2.509L-10.5-6.7H-12.37a2.323,2.323,0,0,0-.267-1.413,1.228,1.228,0,0,0-1.073-.432,1.141,1.141,0,0,0-1,.513,2.788,2.788,0,0,0-.349,1.553v2.99a2.674,2.674,0,0,0,.373,1.567,1.263,1.263,0,0,0,1.09.513,1.1,1.1,0,0,0,.981-.407,2.43,2.43,0,0,0,.243-1.391Zm.841-.943a3.677,3.677,0,0,1,.79-2.437,2.721,2.721,0,0,1,2.211-.947,2.731,2.731,0,0,1,2.215.947,3.667,3.667,0,0,1,.793,2.437v.916a3.647,3.647,0,0,1-.793,2.44A2.736,2.736,0,0,1-6.655.144,2.742,2.742,0,0,1-8.873-.793a3.658,3.658,0,0,1-.79-2.44Zm1.935.913a3.087,3.087,0,0,0,.239,1.342.852.852,0,0,0,.834.486.842.842,0,0,0,.817-.49A3.053,3.053,0,0,0-5.6-3.236v-.917a3.062,3.062,0,0,0-.243-1.332.846.846,0,0,0-.824-.5.845.845,0,0,0-.824.5,3.066,3.066,0,0,0-.243,1.328ZM-.851-7.4l.082,1.019a2.465,2.465,0,0,1,.755-.851,1.72,1.72,0,0,1,.988-.3,1.713,1.713,0,0,1,1.453.711,3.765,3.765,0,0,1,.53,2.235V0H1.008V-4.592A1.984,1.984,0,0,0,.793-5.67a.754.754,0,0,0-.667-.311.885.885,0,0,0-.479.137,1.166,1.166,0,0,0-.369.376V0H-2.663V-7.4ZM3.914-3.657a5.4,5.4,0,0,1,.643-2.81A2.01,2.01,0,0,1,6.368-7.533a1.508,1.508,0,0,1,.779.205,2.045,2.045,0,0,1,.622.588v-3.924H9.71V0H8.022l-.13-.807A2.174,2.174,0,0,1,7.226-.1a1.57,1.57,0,0,1-.865.243,2.027,2.027,0,0,1-1.808-1,4.879,4.879,0,0,1-.639-2.656Zm1.941.144a4.189,4.189,0,0,0,.229,1.55.794.794,0,0,0,.776.555.975.975,0,0,0,.526-.141,1.161,1.161,0,0,0,.383-.408V-5.33a1.37,1.37,0,0,0-.383-.48.825.825,0,0,0-.513-.171.822.822,0,0,0-.779.638,4.9,4.9,0,0,0-.239,1.687ZM13.005,0H11.064V-7.4h1.941Zm0-9.181H11.064v-1.483h1.941ZM16.177-7.4l.075.943a2.2,2.2,0,0,1,.738-.8,1.868,1.868,0,0,1,1.019-.28,1.64,1.64,0,0,1,.978.3,1.832,1.832,0,0,1,.636.906,2.317,2.317,0,0,1,.738-.889,1.8,1.8,0,0,1,1.053-.314,1.674,1.674,0,0,1,1.446.755,4.046,4.046,0,0,1,.53,2.307V0H21.441V-4.476a2.621,2.621,0,0,0-.185-1.181.615.615,0,0,0-.574-.325.809.809,0,0,0-.5.164,1.25,1.25,0,0,0-.362.452q.007.13.014.257t.007.263V0H17.907V-4.476a2.581,2.581,0,0,0-.188-1.177.627.627,0,0,0-.584-.328.862.862,0,0,0-.475.133,1.174,1.174,0,0,0-.359.373V0H14.366V-7.4ZM27.539.144a2.824,2.824,0,0,1-2.215-.916,3.334,3.334,0,0,1-.82-2.311V-4.122a3.818,3.818,0,0,1,.762-2.454,2.547,2.547,0,0,1,2.109-.957,2.451,2.451,0,0,1,2.01.868A3.625,3.625,0,0,1,30.1-4.3V-3.11H26.438v.027a2.044,2.044,0,0,0,.332,1.2,1.142,1.142,0,0,0,1,.472,2.673,2.673,0,0,0,.889-.123,4.675,4.675,0,0,0,.813-.41L29.965-.7A2.932,2.932,0,0,1,28.943-.1,3.978,3.978,0,0,1,27.539.144Zm-.164-6.125a.721.721,0,0,0-.684.426,2.761,2.761,0,0,0-.246,1.147h1.743v-.275A1.972,1.972,0,0,0,28-5.642.659.659,0,0,0,27.375-5.981ZM32.85-7.4l.082,1.019a2.465,2.465,0,0,1,.755-.851,1.72,1.72,0,0,1,.988-.3,1.713,1.713,0,0,1,1.453.711,3.765,3.765,0,0,1,.53,2.235V0H34.709V-4.592a1.984,1.984,0,0,0-.215-1.078.754.754,0,0,0-.667-.311.885.885,0,0,0-.479.137,1.166,1.166,0,0,0-.369.376V0H31.039V-7.4Zm7.335-1.839V-7.4H41.21v1.408H40.185v3.712a1.208,1.208,0,0,0,.13.646.406.406,0,0,0,.355.195,2.235,2.235,0,0,0,.3-.017,2.2,2.2,0,0,0,.273-.058L41.4-.034A3.872,3.872,0,0,1,40.807.1a4.425,4.425,0,0,1-.636.041,1.783,1.783,0,0,1-1.432-.578,2.788,2.788,0,0,1-.5-1.835V-5.988h-.875V-7.4h.875V-9.235Zm1.75,5.086a3.677,3.677,0,0,1,.79-2.437,2.721,2.721,0,0,1,2.211-.947,2.731,2.731,0,0,1,2.215.947,3.667,3.667,0,0,1,.793,2.437v.916a3.647,3.647,0,0,1-.793,2.44,2.736,2.736,0,0,1-2.208.937,2.742,2.742,0,0,1-2.218-.937,3.658,3.658,0,0,1-.79-2.44Zm1.935.913a3.087,3.087,0,0,0,.239,1.342.852.852,0,0,0,.834.486.842.842,0,0,0,.817-.49A3.053,3.053,0,0,0,46-3.236v-.917a3.062,3.062,0,0,0-.243-1.332.846.846,0,0,0-.824-.5.845.845,0,0,0-.824.5,3.066,3.066,0,0,0-.243,1.328Zm8.319,1.3a.718.718,0,0,0-.246-.543A4.143,4.143,0,0,0,51-3.042a4.974,4.974,0,0,1-1.671-.943,1.8,1.8,0,0,1-.557-1.367,2,2,0,0,1,.714-1.542,2.728,2.728,0,0,1,1.89-.639,2.828,2.828,0,0,1,1.962.656,2.07,2.07,0,0,1,.7,1.675l-.021.041H52.148a1.266,1.266,0,0,0-.191-.738.669.669,0,0,0-.588-.273.738.738,0,0,0-.533.212.688.688,0,0,0-.219.513.687.687,0,0,0,.219.53,4.406,4.406,0,0,0,.95.55,4.607,4.607,0,0,1,1.723.94A1.9,1.9,0,0,1,54.069-2a1.891,1.891,0,0,1-.752,1.545,3.068,3.068,0,0,1-1.976.6A2.734,2.734,0,0,1,49.318-.6a2.2,2.2,0,0,1-.711-1.682l.014-.041H50.4a1.207,1.207,0,0,0,.273.848.97.97,0,0,0,.718.26.841.841,0,0,0,.595-.191A.685.685,0,0,0,52.189-1.935Z" transform="translate(79.904 154.34)" fill="#5e5b5c"/><g transform="translate(46.001 119.997) rotate(-90)"><path d="M.32,30.452l.007,0L2.5,32.625a1.1,1.1,0,0,0,.771.32H64.2l.011,0H66.39a1,1,0,0,0,.3-.062.963.963,0,0,0,.109-.022,1.079,1.079,0,0,0,.364-.244l2.166-2.167.007,0a1.09,1.09,0,0,0,0-1.541l-.007,0-1.4-1.4,1.4-1.4.007,0a1.09,1.09,0,0,0,0-1.541l-.007,0-1.4-1.4,1.4-1.4.007,0a1.09,1.09,0,0,0,0-1.541l-.007,0-1.4-1.4,1.4-1.4.007,0a1.09,1.09,0,0,0,0-1.541l-.007,0-1.4-1.4,1.4-1.4.007,0a1.09,1.09,0,0,0,0-1.541l-.007,0L67.161,9.32A1.1,1.1,0,0,0,66.39,9H5.453L5.442,9H3.267a1.033,1.033,0,0,0-.308.062c-.034.011-.07.008-.1.022a1.061,1.061,0,0,0-.364.243L.326,11.492l-.007,0a1.09,1.09,0,0,0,0,1.541l.007,0,1.4,1.4-1.4,1.4-.007,0a1.09,1.09,0,0,0,0,1.541l.007,0,1.4,1.4-1.4,1.4-.007,0a1.09,1.09,0,0,0,0,1.541l.007,0,1.4,1.4-1.4,1.4-.007,0a1.09,1.09,0,0,0,0,1.541l.007,0,1.4,1.4-1.4,1.4-.007,0a1.09,1.09,0,0,0,0,1.541Zm3.4-19.277h.635v3.262a1.083,1.083,0,0,0-.318-.764L2.63,12.266Zm.317,4.037a1.083,1.083,0,0,0,.318-.764V18.79a1.083,1.083,0,0,0-.318-.764L2.63,16.62Zm0,4.354a1.083,1.083,0,0,0,.318-.764v4.343a1.083,1.083,0,0,0-.318-.764L2.63,20.974Zm0,4.354a1.083,1.083,0,0,0,.318-.764V27.5a1.083,1.083,0,0,0-.318-.764L2.63,25.327Zm0,4.354a1.083,1.083,0,0,0,.318-.764v3.26H3.718L2.63,29.681Zm61.9-17.1,1.088,1.087-1.407,1.408a1.086,1.086,0,0,0-.317.759V11.177Zm0,19.593H65.3V27.514a1.086,1.086,0,0,0,.317.759l1.407,1.406Zm-.317-4.037a1.086,1.086,0,0,0-.317.759V23.16a1.086,1.086,0,0,0,.317.759l1.407,1.406Zm0-4.354a1.086,1.086,0,0,0-.317.759V18.807a1.086,1.086,0,0,0,.317.759l1.407,1.406Zm0-4.354a1.086,1.086,0,0,0-.317.759V14.453a1.086,1.086,0,0,0,.317.759l1.407,1.406ZM6.531,11.177h56.6V30.768H6.531Z" fill="#5e5b5c"/><path d="M43.243,20.458a.067.067,0,0,0,0-.014,6.536,6.536,0,0,0-6.526-6.452H34.536a6.537,6.537,0,0,0-6.53,6.53c0,.019,0,.035,0,.053s0,.023,0,.036a6.535,6.535,0,0,0,6.526,6.441h2.179a6.537,6.537,0,0,0,6.53-6.53C43.246,20.5,43.243,20.479,43.243,20.458Zm-8.706-4.289h2.179A4.34,4.34,0,0,1,40.55,18.5a6.292,6.292,0,0,0-5.57,1.143A4.047,4.047,0,0,1,30.236,20a4.343,4.343,0,0,1,4.3-3.833Zm2.179,8.707H34.536A4.339,4.339,0,0,1,30.7,22.539a6.215,6.215,0,0,0,1.65.231A6.507,6.507,0,0,0,36.275,21.4a4.038,4.038,0,0,1,4.741-.354A4.343,4.343,0,0,1,36.715,24.876Z" transform="translate(2.476 0.442)" fill="#5e5b5c"/><path d="M21.079,13.992a1.087,1.087,0,0,0-1.088,1.088V25.973a1.088,1.088,0,0,0,2.177,0V15.08A1.087,1.087,0,0,0,21.079,13.992Z" transform="translate(1.767 0.441)" fill="#5e5b5c"/><path d="M24.091,13.992A1.087,1.087,0,0,0,23,15.08V25.973a1.088,1.088,0,0,0,2.177,0V15.08A1.087,1.087,0,0,0,24.091,13.992Z" transform="translate(2.034 0.441)" fill="#5e5b5c"/><path d="M18.087,15.992A1.087,1.087,0,0,0,17,17.08V23.62a1.088,1.088,0,0,0,2.177,0V17.08a1.087,1.087,0,0,0-1.088-1.088Z" transform="translate(1.503 0.618)" fill="#5e5b5c"/><path d="M41.69,12.95a1.087,1.087,0,0,0,0,1.539,8.705,8.705,0,0,1,0,12.314,1.088,1.088,0,1,0,1.539,1.539,10.881,10.881,0,0,0,0-15.392,1.087,1.087,0,0,0-1.539,0Z" transform="translate(3.657 0.321)" fill="#5e5b5c"/><path d="M.32,54.452l.007,0L2.5,56.625a1.1,1.1,0,0,0,.771.32H64.2l.011,0H66.39a1,1,0,0,0,.3-.062.962.962,0,0,0,.109-.022,1.079,1.079,0,0,0,.364-.244l2.166-2.167.007,0a1.09,1.09,0,0,0,0-1.541l-.007,0-1.4-1.4,1.4-1.4.007,0a1.09,1.09,0,0,0,0-1.541l-.007,0-1.4-1.4,1.4-1.4.007,0a1.09,1.09,0,0,0,0-1.541l-.007,0-1.4-1.4,1.4-1.4.007,0a1.09,1.09,0,0,0,0-1.541l-.007,0-1.4-1.4,1.4-1.4.007,0a1.09,1.09,0,0,0,0-1.541l-.007,0-2.17-2.169A1.1,1.1,0,0,0,66.39,33H5.453l-.011,0H3.267a1.033,1.033,0,0,0-.308.062c-.034.011-.07.008-.1.022a1.08,1.08,0,0,0-.364.244L.326,35.492l-.007,0a1.09,1.09,0,0,0,0,1.541l.007,0,1.4,1.4-1.4,1.4-.007,0a1.09,1.09,0,0,0,0,1.541l.007,0,1.4,1.4-1.4,1.4-.007,0a1.09,1.09,0,0,0,0,1.541l.007,0,1.4,1.4-1.4,1.4-.007,0a1.09,1.09,0,0,0,0,1.541l.007,0,1.4,1.4-1.4,1.4-.007,0a1.09,1.09,0,0,0,0,1.541Zm3.4-19.277h.635v3.262a1.083,1.083,0,0,0-.318-.764L2.63,36.266Zm.317,4.037a1.083,1.083,0,0,0,.318-.764V42.79a1.083,1.083,0,0,0-.318-.764L2.63,40.62Zm0,4.354a1.083,1.083,0,0,0,.318-.764v4.343a1.083,1.083,0,0,0-.318-.764L2.63,44.974Zm0,4.354a1.083,1.083,0,0,0,.318-.764V51.5a1.083,1.083,0,0,0-.318-.764L2.63,49.327Zm0,4.354a1.083,1.083,0,0,0,.318-.764v3.26H3.718L2.63,53.681Zm61.9-17.1,1.088,1.087-1.407,1.408a1.086,1.086,0,0,0-.317.759V35.177Zm0,19.593H65.3V51.514a1.086,1.086,0,0,0,.317.759l1.407,1.406Zm-.317-4.037a1.086,1.086,0,0,0-.317.759V47.16a1.086,1.086,0,0,0,.317.759l1.407,1.406Zm0-4.354a1.086,1.086,0,0,0-.317.759V42.807a1.086,1.086,0,0,0,.317.759l1.407,1.406Zm0-4.354a1.086,1.086,0,0,0-.317.759V38.453a1.086,1.086,0,0,0,.317.759l1.407,1.406ZM6.531,35.177h56.6V54.768H6.531Z" transform="translate(0 2.122)" fill="#5e5b5c"/><path d="M43.243,44.458a.067.067,0,0,0,0-.014,6.536,6.536,0,0,0-6.526-6.452H34.536a6.537,6.537,0,0,0-6.53,6.53c0,.018,0,.035,0,.053s0,.023,0,.036a6.535,6.535,0,0,0,6.526,6.441h2.179a6.537,6.537,0,0,0,6.53-6.53C43.246,44.5,43.243,44.479,43.243,44.458Zm-8.706-4.289h2.179A4.34,4.34,0,0,1,40.55,42.5a6.292,6.292,0,0,0-5.57,1.143A4.046,4.046,0,0,1,30.236,44a4.343,4.343,0,0,1,4.3-3.832Zm2.179,8.707H34.536A4.339,4.339,0,0,1,30.7,46.539a6.215,6.215,0,0,0,1.65.231A6.507,6.507,0,0,0,36.275,45.4a4.039,4.039,0,0,1,4.741-.354A4.343,4.343,0,0,1,36.715,48.876Z" transform="translate(2.476 2.563)" fill="#5e5b5c"/><path d="M21.079,37.992a1.087,1.087,0,0,0-1.088,1.088V49.973a1.088,1.088,0,1,0,2.177,0V39.08A1.087,1.087,0,0,0,21.079,37.992Z" transform="translate(1.767 2.563)" fill="#5e5b5c"/><path d="M24.091,37.992A1.087,1.087,0,0,0,23,39.08V49.973a1.088,1.088,0,1,0,2.177,0V39.08A1.087,1.087,0,0,0,24.091,37.992Z" transform="translate(2.034 2.563)" fill="#5e5b5c"/><path d="M18.087,39.992A1.087,1.087,0,0,0,17,41.08V47.62a1.088,1.088,0,1,0,2.177,0V41.08A1.087,1.087,0,0,0,18.087,39.992Z" transform="translate(1.503 2.74)" fill="#5e5b5c"/><path d="M41.69,36.95a1.087,1.087,0,0,0,0,1.539,8.705,8.705,0,0,1,0,12.314,1.088,1.088,0,1,0,1.539,1.539,10.881,10.881,0,0,0,0-15.392,1.087,1.087,0,0,0-1.539,0Z" transform="translate(3.657 2.443)" fill="#5e5b5c"/></g></g></svg>