<svg xmlns="http://www.w3.org/2000/svg" xmlns:xlink="http://www.w3.org/1999/xlink" width="160" height="190" viewBox="0 0 160 190"><defs><filter id="a" x="-2" y="1" width="164.168" height="191.306" filterUnits="userSpaceOnUse"><feOffset dy="2" input="SourceAlpha"/><feGaussianBlur stdDeviation="6" result="b"/><feFlood flood-color="#44d62c" flood-opacity="0.651"/><feComposite operator="in" in2="b"/><feComposite in="SourceGraphic"/></filter><clipPath id="d"><rect width="160" height="190"/></clipPath></defs><g id="c" clip-path="url(#d)"><g transform="translate(-623 -19.66)"><g transform="matrix(1, 0, 0, 1, 623, 19.66)" filter="url(#a)"><g transform="translate(16 17)" fill="#44d62c" stroke="#fff" stroke-width="1" opacity="0.93"><rect width="128.168" height="155.306" rx="14" stroke="none"/><rect x="0.5" y="0.5" width="127.168" height="154.306" rx="13.5" fill="none"/></g></g><path d="M-45.244-3.206l.021.041A3.421,3.421,0,0,1-46-.69,3.077,3.077,0,0,1-48.34.144,3.288,3.288,0,0,1-50.808-.8a3.685,3.685,0,0,1-.923-2.683V-6.46a3.777,3.777,0,0,1,.892-2.683A3.115,3.115,0,0,1-48.45-10.1a3.163,3.163,0,0,1,2.4.848,3.591,3.591,0,0,1,.837,2.509l-.021.041H-47.11a2.323,2.323,0,0,0-.267-1.413,1.228,1.228,0,0,0-1.073-.432,1.141,1.141,0,0,0-1,.513A2.788,2.788,0,0,0-49.8-6.478v2.99a2.674,2.674,0,0,0,.373,1.567,1.263,1.263,0,0,0,1.09.513,1.1,1.1,0,0,0,.981-.407,2.43,2.43,0,0,0,.243-1.391Zm3.951,3.35a2.824,2.824,0,0,1-2.215-.916,3.334,3.334,0,0,1-.82-2.311V-4.122a3.818,3.818,0,0,1,.762-2.454,2.547,2.547,0,0,1,2.109-.957,2.451,2.451,0,0,1,2.01.868A3.625,3.625,0,0,1-38.736-4.3V-3.11h-3.657v.027a2.044,2.044,0,0,0,.332,1.2,1.142,1.142,0,0,0,1,.472,2.673,2.673,0,0,0,.889-.123,4.675,4.675,0,0,0,.813-.41L-38.866-.7A2.932,2.932,0,0,1-39.888-.1,3.978,3.978,0,0,1-41.292.144Zm-.164-6.125a.721.721,0,0,0-.684.426,2.761,2.761,0,0,0-.246,1.147h1.743v-.275a1.972,1.972,0,0,0-.191-.958A.659.659,0,0,0-41.457-5.981Zm7.191.355L-35-5.646a.829.829,0,0,0-.509.15.956.956,0,0,0-.311.424V0h-1.941V-7.4h1.812l.075.991.034.014a2.017,2.017,0,0,1,.5-.837,1.039,1.039,0,0,1,.742-.3,1.727,1.727,0,0,1,.277.024,1.881,1.881,0,0,1,.256.058Zm3.732,5.77a2.824,2.824,0,0,1-2.215-.916,3.334,3.334,0,0,1-.82-2.311V-4.122a3.818,3.818,0,0,1,.762-2.454A2.547,2.547,0,0,1-30.7-7.533a2.451,2.451,0,0,1,2.01.868A3.625,3.625,0,0,1-27.976-4.3V-3.11h-3.657v.027a2.044,2.044,0,0,0,.332,1.2,1.142,1.142,0,0,0,1,.472,2.673,2.673,0,0,0,.889-.123,4.675,4.675,0,0,0,.813-.41L-28.106-.7A2.932,2.932,0,0,1-29.128-.1,3.978,3.978,0,0,1-30.533.144ZM-30.7-5.981a.721.721,0,0,0-.684.426,2.761,2.761,0,0,0-.246,1.147h1.743v-.275a1.972,1.972,0,0,0-.191-.958A.659.659,0,0,0-30.7-5.981ZM-23.4,0a3.319,3.319,0,0,1-.147-.4,3.293,3.293,0,0,1-.1-.444,2.312,2.312,0,0,1-.667.721,1.572,1.572,0,0,1-.913.27,1.891,1.891,0,0,1-1.466-.6,2.288,2.288,0,0,1-.55-1.606,2.105,2.105,0,0,1,.7-1.688,3.121,3.121,0,0,1,2.082-.6h.731v-.6a1.487,1.487,0,0,0-.195-.831.657.657,0,0,0-.584-.291A.563.563,0,0,0-25-5.845a1.168,1.168,0,0,0-.164.677l-1.88-.007-.021-.041a2.027,2.027,0,0,1,.714-1.641,2.828,2.828,0,0,1,1.972-.677A2.639,2.639,0,0,1-22.5-6.86a2.5,2.5,0,0,1,.721,1.917v2.994A6.479,6.479,0,0,0-21.7-.93a5.549,5.549,0,0,0,.232.93Zm-1.265-1.319a1,1,0,0,0,.543-.157,1.167,1.167,0,0,0,.393-.4V-3.24h-.731a.707.707,0,0,0-.643.308,1.413,1.413,0,0,0-.2.779.99.99,0,0,0,.171.6A.547.547,0,0,0-24.661-1.319ZM-18.515,0h-1.941V-10.664h1.941Zm4.231.144A2.824,2.824,0,0,1-16.5-.772a3.334,3.334,0,0,1-.82-2.311V-4.122a3.818,3.818,0,0,1,.762-2.454,2.547,2.547,0,0,1,2.109-.957,2.451,2.451,0,0,1,2.01.868A3.625,3.625,0,0,1-11.727-4.3V-3.11h-3.657v.027a2.044,2.044,0,0,0,.332,1.2,1.142,1.142,0,0,0,1,.472,2.673,2.673,0,0,0,.889-.123,4.675,4.675,0,0,0,.813-.41L-11.857-.7A2.932,2.932,0,0,1-12.879-.1,3.978,3.978,0,0,1-14.284.144Zm-.164-6.125a.721.721,0,0,0-.684.426,2.761,2.761,0,0,0-.246,1.147h1.743v-.275a1.972,1.972,0,0,0-.191-.958A.659.659,0,0,0-14.448-5.981ZM-7.53-1.935a.718.718,0,0,0-.246-.543,4.143,4.143,0,0,0-.943-.564,4.974,4.974,0,0,1-1.671-.943,1.8,1.8,0,0,1-.557-1.367,2,2,0,0,1,.714-1.542,2.728,2.728,0,0,1,1.89-.639,2.828,2.828,0,0,1,1.962.656,2.07,2.07,0,0,1,.7,1.675l-.021.041H-7.571A1.266,1.266,0,0,0-7.762-5.9a.669.669,0,0,0-.588-.273.738.738,0,0,0-.533.212.688.688,0,0,0-.219.513.687.687,0,0,0,.219.53,4.406,4.406,0,0,0,.95.55,4.607,4.607,0,0,1,1.723.94A1.9,1.9,0,0,1-5.65-2,1.891,1.891,0,0,1-6.4-.458a3.068,3.068,0,0,1-1.976.6A2.734,2.734,0,0,1-10.4-.6a2.2,2.2,0,0,1-.711-1.682l.014-.041h1.777a1.207,1.207,0,0,0,.273.848.97.97,0,0,0,.718.26.841.841,0,0,0,.595-.191A.685.685,0,0,0-7.53-1.935Zm8.3-1.1.014.075L1.863-7.4H3.941l-2.5,8.511A4.038,4.038,0,0,1,.7,2.451a1.8,1.8,0,0,1-1.432.537,1.966,1.966,0,0,1-.424-.041q-.185-.041-.492-.123l.226-1.449.167.031a.576.576,0,0,0,.113.01.851.851,0,0,0,.639-.222A1.3,1.3,0,0,0-.195.608L-.024.062-2.2-7.4H-.12ZM14.776,0H12.834V-4.122H9.745V0H7.8V-9.953H9.745v4.279h3.09V-9.953h1.941Zm4.983,0a3.319,3.319,0,0,1-.147-.4,3.293,3.293,0,0,1-.1-.444,2.312,2.312,0,0,1-.667.721,1.572,1.572,0,0,1-.913.27,1.891,1.891,0,0,1-1.466-.6,2.288,2.288,0,0,1-.55-1.606,2.105,2.105,0,0,1,.7-1.688,3.121,3.121,0,0,1,2.082-.6h.731v-.6a1.487,1.487,0,0,0-.195-.831.657.657,0,0,0-.584-.291.563.563,0,0,0-.492.232A1.168,1.168,0,0,0,18-5.168l-1.88-.007L16.1-5.216a2.027,2.027,0,0,1,.714-1.641,2.828,2.828,0,0,1,1.972-.677,2.639,2.639,0,0,1,1.876.673,2.5,2.5,0,0,1,.721,1.917v2.994A6.479,6.479,0,0,0,21.455-.93a5.549,5.549,0,0,0,.232.93ZM18.495-1.319a1,1,0,0,0,.543-.157,1.167,1.167,0,0,0,.393-.4V-3.24H18.7a.707.707,0,0,0-.643.308,1.413,1.413,0,0,0-.2.779.99.99,0,0,0,.171.6A.547.547,0,0,0,18.495-1.319ZM26.1-5.626l-.731-.021a.829.829,0,0,0-.509.15.956.956,0,0,0-.311.424V0H22.61V-7.4h1.812l.075.991.034.014a2.017,2.017,0,0,1,.5-.837,1.039,1.039,0,0,1,.742-.3,1.727,1.727,0,0,1,.277.024,1.881,1.881,0,0,1,.256.058ZM29.118,0H27.176V-7.4h1.941Zm0-9.181H27.176v-1.483h1.941ZM32.249-7.4l.082,1.019a2.465,2.465,0,0,1,.755-.851,1.72,1.72,0,0,1,.988-.3,1.713,1.713,0,0,1,1.453.711,3.765,3.765,0,0,1,.53,2.235V0H34.108V-4.592a1.984,1.984,0,0,0-.215-1.078.754.754,0,0,0-.667-.311.885.885,0,0,0-.479.137,1.166,1.166,0,0,0-.369.376V0H30.437V-7.4ZM40.875,0a3.319,3.319,0,0,1-.147-.4,3.293,3.293,0,0,1-.1-.444,2.312,2.312,0,0,1-.667.721,1.572,1.572,0,0,1-.913.27,1.891,1.891,0,0,1-1.466-.6,2.288,2.288,0,0,1-.55-1.606,2.105,2.105,0,0,1,.7-1.688,3.121,3.121,0,0,1,2.082-.6h.731v-.6a1.487,1.487,0,0,0-.195-.831.657.657,0,0,0-.584-.291.563.563,0,0,0-.492.232,1.168,1.168,0,0,0-.164.677l-1.88-.007-.021-.041a2.027,2.027,0,0,1,.714-1.641A2.828,2.828,0,0,1,39.9-7.533a2.639,2.639,0,0,1,1.876.673A2.5,2.5,0,0,1,42.5-4.942v2.994A6.479,6.479,0,0,0,42.571-.93,5.549,5.549,0,0,0,42.8,0ZM39.611-1.319a1,1,0,0,0,.543-.157,1.167,1.167,0,0,0,.393-.4V-3.24h-.731a.707.707,0,0,0-.643.308,1.413,1.413,0,0,0-.2.779.99.99,0,0,0,.171.6A.547.547,0,0,0,39.611-1.319Zm7.335-.615a.718.718,0,0,0-.246-.543,4.143,4.143,0,0,0-.943-.564,4.974,4.974,0,0,1-1.671-.943,1.8,1.8,0,0,1-.557-1.367,2,2,0,0,1,.714-1.542,2.728,2.728,0,0,1,1.89-.639,2.828,2.828,0,0,1,1.962.656A2.07,2.07,0,0,1,48.8-5.2l-.021.041H46.9a1.266,1.266,0,0,0-.191-.738.669.669,0,0,0-.588-.273.738.738,0,0,0-.533.212.688.688,0,0,0-.219.513.687.687,0,0,0,.219.53,4.406,4.406,0,0,0,.95.55,4.607,4.607,0,0,1,1.723.94A1.9,1.9,0,0,1,48.826-2a1.891,1.891,0,0,1-.752,1.545,3.068,3.068,0,0,1-1.976.6A2.734,2.734,0,0,1,44.075-.6a2.2,2.2,0,0,1-.711-1.682l.014-.041h1.777a1.207,1.207,0,0,0,.273.848.97.97,0,0,0,.718.26.841.841,0,0,0,.595-.191A.685.685,0,0,0,46.946-1.935Z" transform="translate(704.73 174)" fill="#fff"/><g transform="translate(670 71)"><path d="M117.277,81.606a1.28,1.28,0,0,0,1.28-1.28V75.644c0-.191-.016-.379-.028-.566l.394.394a1.281,1.281,0,0,0,1.81,0l.414-.415c-.014.195-.029.389-.029.588v4.683a1.28,1.28,0,0,0,1.28,1.28h4.682A8.127,8.127,0,0,0,135.2,73.49V68.807a1.28,1.28,0,0,0-1.28-1.28h-4.682a8.054,8.054,0,0,0-3,.582,8.113,8.113,0,0,0-2.193-7.427l-3.311-3.312a1.279,1.279,0,0,0-1.81,0l-3.313,3.31a8.111,8.111,0,0,0-2.194,7.418,8.048,8.048,0,0,0-2.978-.574h-4.683a1.28,1.28,0,0,0-1.28,1.28v4.684a8.127,8.127,0,0,0,8.118,8.117h4.682Zm15.361-11.521v3.4a5.564,5.564,0,0,1-5.558,5.557h-3.4v-3.4a5.563,5.563,0,0,1,5.558-5.558Zm-15.217-7.6,2.406-2.407,2.406,2.407a5.566,5.566,0,0,1,0,7.859l-2.406,2.406-2.406-2.406A5.565,5.565,0,0,1,117.421,62.49Zm-10.384,11v-3.4h3.4A5.564,5.564,0,0,1,116,75.644v3.4h-3.4A5.565,5.565,0,0,1,107.037,73.489Zm0,0" transform="translate(-90.396 -49.313)" fill="#fff"/><path d="M222.293,313.434a3.845,3.845,0,0,0-3.84,3.84h2.56a1.28,1.28,0,1,1,2.56,0h2.56A3.845,3.845,0,0,0,222.293,313.434Zm0,0" transform="translate(-189.012 -271.192)" fill="#fff"/><path d="M298.278,322.934a3.845,3.845,0,0,0-3.84,3.84H297a1.28,1.28,0,0,1,2.56,0h2.56A3.845,3.845,0,0,0,298.278,322.934Zm0,0" transform="translate(-254.756 -279.412)" fill="#fff"/><path d="M53.141,38.655l4.417-16.564a1.3,1.3,0,0,0,.044-.33,2.563,2.563,0,0,0-2.56-2.561h-2.56a2.546,2.546,0,0,0-1.28.352V1.28A1.28,1.28,0,0,0,49.922,0H10.248c-.006,0-.013,0-.019,0s-.013,0-.019,0H1.28A1.28,1.28,0,0,0,0,1.28V60.162a1.282,1.282,0,0,0,.774,1.177l8.93,3.84a1.3,1.3,0,0,0,.506.1l.023,0,.015,0h19.6A24,24,0,0,0,66.688,44.957v-.133c0-3.821-7.9-5.475-13.547-6.169Zm-.659-16.894H55L50.286,39.432v0a.006.006,0,0,1,0,0l-.763,2.93a1.281,1.281,0,0,0,.917,1.562,1.336,1.336,0,0,0,.323.041A1.281,1.281,0,0,0,52,43.013l.483-1.854c8.737,1.03,11.647,3.053,11.647,3.665,0,1.259-7.31,4.215-21.487,4.215s-21.486-2.955-21.486-4.215,7.31-4.216,21.486-4.216c.758,0,1.484.029,2.221.048l-.24.952a1.28,1.28,0,0,0,.93,1.554,1.257,1.257,0,0,0,.313.038,1.284,1.284,0,0,0,1.241-.968l.627-2.491,4.707-17.652a1.338,1.338,0,0,0,.042-.33ZM8.93,62.058,2.56,59.319V2.56H8.93Zm17.521.664H11.528V2.56H48.642V26.394L45.522,38.1c-.943-.029-1.9-.049-2.88-.049-8.318,0-24.047,1.416-24.047,6.777v.133a24.094,24.094,0,0,0,.132,2.5c.026.244.078.482.112.725.077.574.154,1.147.272,1.707.066.319.164.625.242.941.119.471.231.943.376,1.4.116.366.263.719.4,1.078.145.389.282.783.446,1.162s.362.763.55,1.142c.165.333.324.67.5.993.214.385.451.755.685,1.128.19.3.376.6.579.9.248.357.513.7.781,1.044.228.293.456.585.7.867.265.31.543.61.824.908s.572.594.872.88c.136.126.254.266.391.391Zm16.191,3.72A21.36,21.36,0,0,1,30.8,62.867c-.163-.107-.319-.223-.477-.334-.366-.257-.726-.525-1.075-.8-.127-.1-.257-.2-.382-.3q-.684-.572-1.317-1.2c-.078-.078-.154-.157-.231-.236-.416-.424-.818-.86-1.2-1.318-.023-.027-.047-.054-.069-.081q-.614-.747-1.158-1.549c-.044-.064-.087-.13-.13-.195a21.525,21.525,0,0,1-1.84-3.383c-.042-.1-.086-.2-.127-.3-.241-.578-.46-1.167-.649-1.769-.024-.076-.043-.154-.066-.229-.166-.547-.308-1.105-.43-1.669-.024-.113-.053-.224-.076-.338-.059-.293-.089-.594-.137-.891,4.916,2.552,15.072,3.324,21.2,3.324s16.288-.772,21.2-3.324a21.5,21.5,0,0,1-21.2,18.169Zm0,0" fill="#fff"/></g></g></g></svg>