<svg xmlns="http://www.w3.org/2000/svg" xmlns:xlink="http://www.w3.org/1999/xlink" width="160" height="190" viewBox="0 0 160 190"><defs><filter id="a" x="-2" y="2" width="164" height="191" filterUnits="userSpaceOnUse"><feOffset dy="2" input="SourceAlpha"/><feGaussianBlur stdDeviation="6" result="b"/><feFlood flood-color="#44d62c" flood-opacity="0.651"/><feComposite operator="in" in2="b"/><feComposite in="SourceGraphic"/></filter><clipPath id="d"><rect width="160" height="190"/></clipPath></defs><g id="c" clip-path="url(#d)"><g transform="translate(-365 2)"><g transform="matrix(1, 0, 0, 1, 365, -2)" filter="url(#a)"><g transform="translate(16 18)" fill="#44d62c" opacity="0.93"><path d="M 114 154.5 L 14 154.5 C 10.39402008056641 154.5 7.003880023956299 153.0957641601563 4.454060077667236 150.5459442138672 C 1.904240012168884 147.9961395263672 0.5 144.6059875488281 0.5 141 L 0.5 14 C 0.5 10.39402008056641 1.904240012168884 7.003880023956299 4.454060077667236 4.454060077667236 C 7.003880023956299 1.904240012168884 10.39402008056641 0.5 14 0.5 L 114 0.5 C 117.6059799194336 0.5 120.9961166381836 1.904240012168884 123.5459365844727 4.454060077667236 C 126.0957565307617 7.003880023956299 127.5 10.39402008056641 127.5 14 L 127.5 141 C 127.5 144.6059875488281 126.0957565307617 147.9961395263672 123.5459365844727 150.5459442138672 C 120.9961166381836 153.0957641601563 117.6059799194336 154.5 114 154.5 Z" stroke="none"/><path d="M 14 1 C 10.52758026123047 1 7.262977600097656 2.35223388671875 4.8076171875 4.807601928710938 C 2.352241516113281 7.262985229492188 1 10.52757263183594 1 14 L 1 141 C 1 144.472412109375 2.352241516113281 147.7370147705078 4.8076171875 150.1923980712891 C 7.262977600097656 152.6477661132813 10.52758026123047 154 14 154 L 114 154 C 117.4724197387695 154 120.7370223999023 152.6477661132813 123.1923828125 150.1923980712891 C 125.6477584838867 147.7370147705078 127 144.472412109375 127 141 L 127 14 C 127 10.52757263183594 125.6477584838867 7.262985229492188 123.1923828125 4.807601928710938 C 120.7370223999023 2.35223388671875 117.4724197387695 1 114 1 L 14 1 M 14 0 L 114 0 C 121.7319793701172 0 128 6.26800537109375 128 14 L 128 141 C 128 148.7319946289063 121.7319793701172 155 114 155 L 14 155 C 6.268020629882813 155 0 148.7319946289063 0 141 L 0 14 C 0 6.26800537109375 6.268020629882813 0 14 0 Z" stroke="none" fill="#fff"/></g></g><path d="M-37.9-2.977l.019.038a3.177,3.177,0,0,1-.724,2.3,2.857,2.857,0,0,1-2.171.774,3.054,3.054,0,0,1-2.292-.879,3.422,3.422,0,0,1-.857-2.491V-6A3.508,3.508,0,0,1-43.1-8.49a2.893,2.893,0,0,1,2.219-.885,2.937,2.937,0,0,1,2.225.787,3.334,3.334,0,0,1,.778,2.33l-.019.038h-1.739a2.157,2.157,0,0,0-.248-1.312,1.14,1.14,0,0,0-1-.4,1.059,1.059,0,0,0-.933.477,2.589,2.589,0,0,0-.324,1.442v2.777a2.483,2.483,0,0,0,.346,1.455,1.172,1.172,0,0,0,1.012.477,1.023,1.023,0,0,0,.911-.378,2.256,2.256,0,0,0,.225-1.292Zm3.669,3.11A2.623,2.623,0,0,1-36.29-.717a3.1,3.1,0,0,1-.762-2.146v-.965a3.545,3.545,0,0,1,.708-2.279A2.365,2.365,0,0,1-34.385-7a2.276,2.276,0,0,1,1.866.806,3.366,3.366,0,0,1,.66,2.2v1.1h-3.4v.025a1.9,1.9,0,0,0,.308,1.117,1.061,1.061,0,0,0,.93.438,2.482,2.482,0,0,0,.825-.114,4.341,4.341,0,0,0,.755-.381l.457,1.149a2.723,2.723,0,0,1-.949.565A3.694,3.694,0,0,1-34.233.133Zm-.152-5.687a.67.67,0,0,0-.635.4,2.564,2.564,0,0,0-.229,1.065h1.619v-.255a1.831,1.831,0,0,0-.178-.889A.612.612,0,0,0-34.385-5.554Zm6.678.33-.679-.019a.769.769,0,0,0-.473.14.887.887,0,0,0-.289.394V0h-1.8V-6.868h1.682l.07.92.032.013a1.873,1.873,0,0,1,.46-.778A.965.965,0,0,1-28.019-7a1.6,1.6,0,0,1,.257.022,1.746,1.746,0,0,1,.238.054Zm3.231,2.634.083.521h.038l.089-.521.793-4.278h1.885L-23.493,0h-1.765l-1.911-6.868h1.885ZM-18.319.133a2.623,2.623,0,0,1-2.057-.851,3.1,3.1,0,0,1-.762-2.146v-.965a3.545,3.545,0,0,1,.708-2.279A2.365,2.365,0,0,1-18.472-7a2.276,2.276,0,0,1,1.866.806,3.366,3.366,0,0,1,.66,2.2v1.1h-3.4v.025a1.9,1.9,0,0,0,.308,1.117,1.061,1.061,0,0,0,.93.438,2.482,2.482,0,0,0,.825-.114,4.341,4.341,0,0,0,.755-.381l.457,1.149a2.723,2.723,0,0,1-.949.565A3.694,3.694,0,0,1-18.319.133Zm-.152-5.687a.67.67,0,0,0-.635.4,2.564,2.564,0,0,0-.229,1.065h1.619v-.255a1.831,1.831,0,0,0-.178-.889A.612.612,0,0,0-18.472-5.554Zm5.332,4.113h2.685V0h-4.754V-1.073l2.615-4.354h-2.539V-6.868H-10.5v1.047ZM-6.087,0a3.082,3.082,0,0,1-.136-.375,3.057,3.057,0,0,1-.092-.413,2.147,2.147,0,0,1-.619.67,1.46,1.46,0,0,1-.847.251A1.756,1.756,0,0,1-9.144-.425a2.124,2.124,0,0,1-.511-1.492A1.955,1.955,0,0,1-9-3.485a2.9,2.9,0,0,1,1.933-.559h.679V-4.6a1.381,1.381,0,0,0-.181-.771.61.61,0,0,0-.543-.27.523.523,0,0,0-.457.216,1.085,1.085,0,0,0-.152.628l-1.746-.006-.019-.038a1.883,1.883,0,0,1,.663-1.523A2.626,2.626,0,0,1-7-7a2.451,2.451,0,0,1,1.742.625,2.317,2.317,0,0,1,.67,1.781v2.78a6.017,6.017,0,0,0,.07.946A5.153,5.153,0,0,0-4.3,0ZM-7.262-1.225a.929.929,0,0,0,.5-.146,1.084,1.084,0,0,0,.365-.375V-3.009h-.679a.657.657,0,0,0-.6.286A1.312,1.312,0,0,0-7.852-2a.919.919,0,0,0,.159.559A.507.507,0,0,0-7.262-1.225Zm8.88-1.593.013.07,1-4.12h1.93l-2.317,7.9a3.749,3.749,0,0,1-.7,1.241,1.672,1.672,0,0,1-1.33.5,1.825,1.825,0,0,1-.394-.038Q-.343,2.7-.628,2.622l.209-1.346.156.029a.535.535,0,0,0,.1.01.79.79,0,0,0,.594-.206A1.2,1.2,0,0,0,.724.565L.882.057-1.143-6.868H.793ZM9.953-1.441H13.33V0H8.144V-9.242H9.953ZM16,0H14.2V-6.868H16Zm0-8.525H14.2V-9.9H16Zm3.764,7.217a.63.63,0,0,0,.555-.273,1.387,1.387,0,0,0,.187-.787h1.638l.019.038A2.353,2.353,0,0,1,21.5-.559a2.335,2.335,0,0,1-1.736.692,2.5,2.5,0,0,1-2.047-.87,3.426,3.426,0,0,1-.714-2.247v-.882a3.465,3.465,0,0,1,.711-2.25A2.469,2.469,0,0,1,19.754-7a2.288,2.288,0,0,1,1.774.717,2.69,2.69,0,0,1,.638,1.936l-.013.032H20.509a1.876,1.876,0,0,0-.187-.9.609.609,0,0,0-.568-.341.743.743,0,0,0-.743.458,3.072,3.072,0,0,0-.2,1.227v.884a3.036,3.036,0,0,0,.2,1.233A.755.755,0,0,0,19.767-1.308ZM22.82-3.853a3.415,3.415,0,0,1,.733-2.263A2.526,2.526,0,0,1,25.606-7a2.536,2.536,0,0,1,2.057.879A3.4,3.4,0,0,1,28.4-3.853V-3a3.387,3.387,0,0,1-.736,2.266,2.541,2.541,0,0,1-2.05.87,2.546,2.546,0,0,1-2.06-.87A3.4,3.4,0,0,1,22.82-3Zm1.8.848a2.867,2.867,0,0,0,.222,1.246.791.791,0,0,0,.774.451.782.782,0,0,0,.759-.455A2.835,2.835,0,0,0,26.6-3.005v-.852a2.843,2.843,0,0,0-.225-1.237.785.785,0,0,0-.765-.461.785.785,0,0,0-.765.464,2.847,2.847,0,0,0-.225,1.233ZM32.6-5.224l-.679-.019a.769.769,0,0,0-.473.14.887.887,0,0,0-.289.394V0h-1.8V-6.868h1.682l.07.92.032.013a1.873,1.873,0,0,1,.46-.778A.965.965,0,0,1,32.284-7a1.6,1.6,0,0,1,.257.022,1.746,1.746,0,0,1,.238.054ZM36.061.133A2.623,2.623,0,0,1,34-.717a3.1,3.1,0,0,1-.762-2.146v-.965a3.545,3.545,0,0,1,.708-2.279A2.365,2.365,0,0,1,35.909-7a2.276,2.276,0,0,1,1.866.806,3.366,3.366,0,0,1,.66,2.2v1.1h-3.4v.025a1.9,1.9,0,0,0,.308,1.117,1.061,1.061,0,0,0,.93.438,2.482,2.482,0,0,0,.825-.114,4.341,4.341,0,0,0,.755-.381l.457,1.149a2.723,2.723,0,0,1-.949.565A3.694,3.694,0,0,1,36.061.133Zm-.152-5.687a.67.67,0,0,0-.635.4,2.564,2.564,0,0,0-.229,1.065h1.619v-.255a1.831,1.831,0,0,0-.178-.889A.612.612,0,0,0,35.909-5.554ZM42.333-1.8a.667.667,0,0,0-.229-.5,3.847,3.847,0,0,0-.876-.524A4.619,4.619,0,0,1,39.676-3.7a1.667,1.667,0,0,1-.517-1.27A1.854,1.854,0,0,1,39.822-6.4,2.533,2.533,0,0,1,41.577-7a2.626,2.626,0,0,1,1.822.609,1.922,1.922,0,0,1,.654,1.555l-.019.038H42.294a1.176,1.176,0,0,0-.178-.686.621.621,0,0,0-.546-.254.685.685,0,0,0-.5.2.638.638,0,0,0-.2.476.638.638,0,0,0,.2.492,4.091,4.091,0,0,0,.882.511,4.278,4.278,0,0,1,1.6.873,1.76,1.76,0,0,1,.521,1.323,1.756,1.756,0,0,1-.7,1.435,2.849,2.849,0,0,1-1.834.559,2.539,2.539,0,0,1-1.879-.692,2.043,2.043,0,0,1-.66-1.562l.013-.038h1.65a1.12,1.12,0,0,0,.254.787.9.9,0,0,0,.667.241.781.781,0,0,0,.552-.178A.636.636,0,0,0,42.333-1.8Z" transform="translate(445 153)" fill="#fff"/><g transform="translate(344.403 18.5)"><path d="M112.758,59.644l-5.516-6.43a1.22,1.22,0,0,1-.29-.787V32.758h1.21a1.21,1.21,0,0,0,1.21-1.21V29.129a3.629,3.629,0,0,0-3.629-3.629H96.065a3.629,3.629,0,0,0-3.629,3.629v2.419a1.21,1.21,0,0,0,1.21,1.21h1.21V52.428a1.22,1.22,0,0,1-.29.787l-5.516,6.43A6.06,6.06,0,0,0,87.6,63.579V94.452a6.056,6.056,0,0,0,6.048,6.048h14.516a6.056,6.056,0,0,0,6.048-6.048V63.579A6.054,6.054,0,0,0,112.758,59.644Zm-.967,27.549H90.016V82.355h3.945a8.454,8.454,0,0,0,13.885,0h3.945Zm0-7.258h-4.609a1.21,1.21,0,0,0-1.049.6,6.035,6.035,0,0,1-10.459,0,1.21,1.21,0,0,0-1.049-.6H90.016V75.1h4.609a1.21,1.21,0,0,0,1.049-.6,6.035,6.035,0,0,1,10.459,0,1.21,1.21,0,0,0,1.049.6h4.609Zm-3.945-7.258a8.454,8.454,0,0,0-13.885,0H90.016V67.839h21.774v4.839ZM96.065,27.919h9.677a1.21,1.21,0,0,1,1.21,1.21v1.209h-12.1V29.129A1.21,1.21,0,0,1,96.065,27.919Zm-6.049,35.66a3.638,3.638,0,0,1,.874-2.361l5.51-6.43a3.627,3.627,0,0,0,.875-2.361V32.758h7.258V52.428a3.627,3.627,0,0,0,.875,2.361l5.509,6.43a3.631,3.631,0,0,1,.875,2.361v1.84H90.016Zm21.774,30.872a3.629,3.629,0,0,1-3.629,3.629H93.645a3.629,3.629,0,0,1-3.629-3.629h0V89.613h21.774Z" fill="#fff"/><path d="M104.219,243.79h6.011a1.234,1.234,0,0,0,1.235-1.03,1.21,1.21,0,0,0-1.2-1.389h-6.011a1.234,1.234,0,0,0-1.235,1.03A1.21,1.21,0,0,0,104.219,243.79Z" transform="translate(-10.576 -148.129)" fill="#fff"/><path d="M135.058,243.79h1.172a1.234,1.234,0,0,0,1.235-1.03,1.21,1.21,0,0,0-1.2-1.389H135.1a1.234,1.234,0,0,0-1.235,1.03A1.21,1.21,0,0,0,135.058,243.79Z" transform="translate(-31.737 -148.129)" fill="#fff"/></g></g></g></svg>