<svg xmlns="http://www.w3.org/2000/svg" xmlns:xlink="http://www.w3.org/1999/xlink" width="160" height="190" viewBox="0 0 160 190"><defs><filter id="a" x="-2" y="1" width="164.168" height="191.306" filterUnits="userSpaceOnUse"><feOffset dy="2" input="SourceAlpha"/><feGaussianBlur stdDeviation="6" result="b"/><feFlood flood-color="#44d62c" flood-opacity="0.651"/><feComposite operator="in" in2="b"/><feComposite in="SourceGraphic"/></filter><clipPath id="d"><rect width="160" height="190"/></clipPath></defs><g id="c" clip-path="url(#d)"><g transform="translate(-329 -19.66)"><g transform="matrix(1, 0, 0, 1, 329, 19.66)" filter="url(#a)"><g transform="translate(16 17)" fill="#44d62c" stroke="#fff" stroke-width="1" opacity="0.93"><rect width="128.168" height="155.306" rx="14" stroke="none"/><rect x="0.5" y="0.5" width="127.168" height="154.306" rx="13.5" fill="none"/></g></g><path d="M-54.089-1.552h3.637V0h-5.585V-9.953h1.948ZM-46,0a3.319,3.319,0,0,1-.147-.4,3.293,3.293,0,0,1-.1-.444,2.312,2.312,0,0,1-.667.721,1.572,1.572,0,0,1-.913.27,1.891,1.891,0,0,1-1.466-.6,2.288,2.288,0,0,1-.55-1.606,2.105,2.105,0,0,1,.7-1.688,3.121,3.121,0,0,1,2.082-.6h.731v-.6a1.487,1.487,0,0,0-.195-.831.657.657,0,0,0-.584-.291.563.563,0,0,0-.492.232,1.168,1.168,0,0,0-.164.677l-1.88-.007-.021-.041a2.027,2.027,0,0,1,.714-1.641,2.828,2.828,0,0,1,1.972-.677A2.639,2.639,0,0,1-45.1-6.86a2.5,2.5,0,0,1,.721,1.917v2.994A6.479,6.479,0,0,0-44.307-.93a5.549,5.549,0,0,0,.232.93Zm-1.265-1.319a1,1,0,0,0,.543-.157,1.167,1.167,0,0,0,.393-.4V-3.24h-.731a.707.707,0,0,0-.643.308,1.413,1.413,0,0,0-.2.779.99.99,0,0,0,.171.6A.547.547,0,0,0-47.267-1.319Zm.438-8.962h2.044l.021.041-1.7,1.777-1.565,0Zm6.378,8.873a.678.678,0,0,0,.6-.294,1.493,1.493,0,0,0,.2-.848h1.764l.021.041A2.534,2.534,0,0,1-38.582-.6a2.514,2.514,0,0,1-1.87.745,2.69,2.69,0,0,1-2.2-.937,3.689,3.689,0,0,1-.769-2.42v-.95a3.731,3.731,0,0,1,.766-2.423,2.659,2.659,0,0,1,2.194-.947,2.464,2.464,0,0,1,1.911.772,2.9,2.9,0,0,1,.687,2.085l-.014.034h-1.771a2.02,2.02,0,0,0-.2-.972.656.656,0,0,0-.612-.368.8.8,0,0,0-.8.493,3.309,3.309,0,0,0-.219,1.321v.952a3.27,3.27,0,0,0,.219,1.328A.813.813,0,0,0-40.452-1.408Zm5.831-7.827V-7.4H-33.6v1.408h-1.025v3.712a1.208,1.208,0,0,0,.13.646.406.406,0,0,0,.355.195,2.235,2.235,0,0,0,.3-.017,2.2,2.2,0,0,0,.273-.058l.15,1.477A3.872,3.872,0,0,1-34,.1a4.425,4.425,0,0,1-.636.041,1.783,1.783,0,0,1-1.432-.578,2.788,2.788,0,0,1-.5-1.835V-5.988h-.875V-7.4h.875V-9.235Zm5,9.379a2.824,2.824,0,0,1-2.215-.916,3.334,3.334,0,0,1-.82-2.311V-4.122A3.818,3.818,0,0,1-31.9-6.576a2.547,2.547,0,0,1,2.109-.957,2.451,2.451,0,0,1,2.01.868A3.625,3.625,0,0,1-27.067-4.3V-3.11h-3.657v.027a2.044,2.044,0,0,0,.332,1.2,1.142,1.142,0,0,0,1,.472,2.673,2.673,0,0,0,.889-.123,4.675,4.675,0,0,0,.813-.41L-27.2-.7A2.932,2.932,0,0,1-28.219-.1,3.978,3.978,0,0,1-29.624.144Zm-.164-6.125a.721.721,0,0,0-.684.426,2.761,2.761,0,0,0-.246,1.147h1.743v-.275a1.972,1.972,0,0,0-.191-.958A.659.659,0,0,0-29.788-5.981Zm3.466,1.832a3.677,3.677,0,0,1,.79-2.437,2.721,2.721,0,0,1,2.211-.947,2.731,2.731,0,0,1,2.215.947,3.667,3.667,0,0,1,.793,2.437v.916a3.647,3.647,0,0,1-.793,2.44,2.736,2.736,0,0,1-2.208.937,2.742,2.742,0,0,1-2.218-.937,3.658,3.658,0,0,1-.79-2.44Zm1.935.913a3.087,3.087,0,0,0,.239,1.342.852.852,0,0,0,.834.486A.842.842,0,0,0-22.5-1.9a3.053,3.053,0,0,0,.243-1.338v-.917A3.062,3.062,0,0,0-22.5-5.485a.846.846,0,0,0-.824-.5.845.845,0,0,0-.824.5,3.066,3.066,0,0,0-.243,1.328Zm8.319,1.3a.718.718,0,0,0-.246-.543,4.143,4.143,0,0,0-.943-.564,4.974,4.974,0,0,1-1.671-.943,1.8,1.8,0,0,1-.557-1.367,2,2,0,0,1,.714-1.542,2.728,2.728,0,0,1,1.89-.639,2.828,2.828,0,0,1,1.962.656,2.07,2.07,0,0,1,.7,1.675l-.021.041h-1.873A1.266,1.266,0,0,0-16.3-5.9a.669.669,0,0,0-.588-.273.738.738,0,0,0-.533.212.688.688,0,0,0-.219.513.687.687,0,0,0,.219.53,4.406,4.406,0,0,0,.95.55,4.607,4.607,0,0,1,1.723.94A1.9,1.9,0,0,1-14.188-2,1.891,1.891,0,0,1-14.94-.458a3.068,3.068,0,0,1-1.976.6A2.734,2.734,0,0,1-18.939-.6a2.2,2.2,0,0,1-.711-1.682l.014-.041h1.777a1.207,1.207,0,0,0,.273.848.97.97,0,0,0,.718.26.841.841,0,0,0,.595-.191A.685.685,0,0,0-16.068-1.935Zm8.3-1.1.014.075L-6.675-7.4H-4.6l-2.5,8.511a4.038,4.038,0,0,1-.749,1.336,1.8,1.8,0,0,1-1.432.537A1.966,1.966,0,0,1-9.7,2.946q-.185-.041-.492-.123l.226-1.449L-9.8,1.4a.576.576,0,0,0,.113.01.851.851,0,0,0,.639-.222A1.3,1.3,0,0,0-8.733.608l.171-.547L-10.743-7.4h2.085ZM4.549-4.368H1.207v2.816H5.137V0H-.742V-9.953H5.124V-8.4H1.207V-5.92H4.549ZM7.844-7.4l.075.943a2.2,2.2,0,0,1,.738-.8,1.868,1.868,0,0,1,1.019-.28,1.64,1.64,0,0,1,.978.3,1.832,1.832,0,0,1,.636.906,2.317,2.317,0,0,1,.738-.889,1.8,1.8,0,0,1,1.053-.314,1.674,1.674,0,0,1,1.446.755,4.046,4.046,0,0,1,.53,2.307V0H13.108V-4.476a2.621,2.621,0,0,0-.185-1.181.615.615,0,0,0-.574-.325.809.809,0,0,0-.5.164,1.25,1.25,0,0,0-.362.452q.007.13.014.257t.007.263V0H9.574V-4.476a2.581,2.581,0,0,0-.188-1.177A.627.627,0,0,0,8.8-5.981a.862.862,0,0,0-.475.133,1.174,1.174,0,0,0-.359.373V0H6.033V-7.4Zm14.28,4.266a4.105,4.105,0,0,1-.619,2.386,2.07,2.07,0,0,1-1.815.889A1.685,1.685,0,0,1,18.785-.1a2.009,2.009,0,0,1-.66-.7L18.009,0H16.328V-10.664h1.941v3.9a1.873,1.873,0,0,1,.612-.567,1.6,1.6,0,0,1,.8-.2,2.059,2.059,0,0,1,1.825.926,4.367,4.367,0,0,1,.622,2.471ZM20.19-4.14A3.433,3.433,0,0,0,19.975-5.5a.794.794,0,0,0-.8-.486.92.92,0,0,0-.54.157,1.16,1.16,0,0,0-.369.445v3.457a.92.92,0,0,0,.366.38,1.121,1.121,0,0,0,.55.127.8.8,0,0,0,.8-.435,3.077,3.077,0,0,0,.208-1.284ZM26.882-.854a2.183,2.183,0,0,1-.728.742,1.843,1.843,0,0,1-.967.256A1.821,1.821,0,0,1,23.639-.6a3.9,3.9,0,0,1-.557-2.321V-7.4h1.941v4.49a2.542,2.542,0,0,0,.191,1.143.611.611,0,0,0,.567.356,1.259,1.259,0,0,0,.564-.12,1.131,1.131,0,0,0,.414-.352V-7.4h1.948V0H27Zm5.359-8.381V-7.4h1.025v1.408H32.242v3.712a1.208,1.208,0,0,0,.13.646.406.406,0,0,0,.355.195,2.235,2.235,0,0,0,.3-.017,2.2,2.2,0,0,0,.273-.058l.15,1.477A3.872,3.872,0,0,1,32.864.1a4.425,4.425,0,0,1-.636.041A1.783,1.783,0,0,1,30.8-.434a2.788,2.788,0,0,1-.5-1.835V-5.988h-.875V-7.4H30.3V-9.235ZM36.391,0H34.45V-7.4h1.941Zm0-9.181H34.45v-1.483h1.941Zm1.094,5.523a5.4,5.4,0,0,1,.643-2.81,2.01,2.01,0,0,1,1.812-1.066,1.508,1.508,0,0,1,.779.205,2.045,2.045,0,0,1,.622.588v-3.924h1.941V0H41.593l-.13-.807A2.174,2.174,0,0,1,40.8-.1a1.57,1.57,0,0,1-.865.243,2.027,2.027,0,0,1-1.808-1,4.879,4.879,0,0,1-.639-2.656Zm1.941.144a4.189,4.189,0,0,0,.229,1.55.794.794,0,0,0,.776.555.975.975,0,0,0,.526-.141,1.161,1.161,0,0,0,.383-.408V-5.33a1.37,1.37,0,0,0-.383-.48.825.825,0,0,0-.513-.171.822.822,0,0,0-.779.638,4.9,4.9,0,0,0-.239,1.687Zm4.888-.636a3.677,3.677,0,0,1,.79-2.437,2.721,2.721,0,0,1,2.211-.947,2.731,2.731,0,0,1,2.215.947,3.667,3.667,0,0,1,.793,2.437v.916a3.647,3.647,0,0,1-.793,2.44,2.736,2.736,0,0,1-2.208.937A2.742,2.742,0,0,1,45.1-.793a3.658,3.658,0,0,1-.79-2.44Zm1.935.913a3.087,3.087,0,0,0,.239,1.342.852.852,0,0,0,.834.486.842.842,0,0,0,.817-.49,3.053,3.053,0,0,0,.243-1.338v-.917a3.062,3.062,0,0,0-.243-1.332.846.846,0,0,0-.824-.5.845.845,0,0,0-.824.5,3.066,3.066,0,0,0-.243,1.328Zm8.319,1.3a.718.718,0,0,0-.246-.543,4.143,4.143,0,0,0-.943-.564,4.974,4.974,0,0,1-1.671-.943,1.8,1.8,0,0,1-.557-1.367,2,2,0,0,1,.714-1.542,2.728,2.728,0,0,1,1.89-.639,2.828,2.828,0,0,1,1.962.656,2.07,2.07,0,0,1,.7,1.675l-.021.041H54.527a1.266,1.266,0,0,0-.191-.738.669.669,0,0,0-.588-.273.738.738,0,0,0-.533.212A.688.688,0,0,0,53-5.448a.687.687,0,0,0,.219.53,4.406,4.406,0,0,0,.95.55,4.607,4.607,0,0,1,1.723.94A1.9,1.9,0,0,1,56.448-2,1.891,1.891,0,0,1,55.7-.458a3.068,3.068,0,0,1-1.976.6A2.734,2.734,0,0,1,51.7-.6a2.2,2.2,0,0,1-.711-1.682L51-2.324h1.777a1.207,1.207,0,0,0,.273.848.97.97,0,0,0,.718.26.841.841,0,0,0,.595-.191A.685.685,0,0,0,54.568-1.935Z" transform="translate(409.037 174)" fill="#fff"/><g transform="translate(357.325 63)"><g transform="translate(22.671 3)"><path d="M56.157,36.858c0-3.914.363-7.92.713-11.794.357-3.951.727-8.036.727-12.107A4.313,4.313,0,0,0,55.989,9.6a2.862,2.862,0,0,0,.168-.961V1.743A1.442,1.442,0,0,0,55.81.805a2.271,2.271,0,0,0-.923-.633,2.644,2.644,0,0,0-2.835.609l-1.72,1.943L48.622.794a2.271,2.271,0,0,0-.913-.622,2.645,2.645,0,0,0-2.835.609L43.151,2.728,41.444.8a2.271,2.271,0,0,0-.913-.622A2.644,2.644,0,0,0,37.7.788L35.975,2.731,34.266.8a2.273,2.273,0,0,0-.913-.622,2.646,2.646,0,0,0-2.836.609L28.794,2.735,27.089.81a2.267,2.267,0,0,0-.914-.623A2.642,2.642,0,0,0,23.34.8L21.619,2.738,19.91.809A2.264,2.264,0,0,0,19,.187,2.643,2.643,0,0,0,16.162.8L14.438,2.742,12.732.816a2.277,2.277,0,0,0-.914-.622A2.646,2.646,0,0,0,8.984.8L7.263,2.746,5.554.816A2.279,2.279,0,0,0,4.641.194,2.645,2.645,0,0,0,1.807.8a1.439,1.439,0,0,0-.363.956v6.88a2.861,2.861,0,0,0,.168.96A4.314,4.314,0,0,0,0,12.957c0,4.071.37,8.156.727,12.107.35,3.874.713,7.88.713,11.794s-.363,7.92-.713,11.794C.373,52.6,0,56.689,0,60.76a4.313,4.313,0,0,0,1.608,3.359,2.861,2.861,0,0,0-.168.96v6.88a1.442,1.442,0,0,0,.363.957,2.645,2.645,0,0,0,2.834.607,2.274,2.274,0,0,0,.912-.621l1.71-1.93,1.722,1.944a2.644,2.644,0,0,0,2.834.607,2.274,2.274,0,0,0,.912-.621l1.706-1.927,1.725,1.948A2.642,2.642,0,0,0,19,73.53a2.27,2.27,0,0,0,.914-.622l1.709-1.93,1.722,1.944a2.645,2.645,0,0,0,2.833.608,2.27,2.27,0,0,0,.914-.623l1.705-1.925,1.726,1.948a2.644,2.644,0,0,0,2.833.607,2.273,2.273,0,0,0,.914-.623l1.709-1.929L37.7,72.93a2.643,2.643,0,0,0,2.833.608,2.267,2.267,0,0,0,.913-.622L43.15,70.99l1.725,1.948a2.644,2.644,0,0,0,2.834.608,2.277,2.277,0,0,0,.913-.622l1.709-1.93,1.722,1.944a2.514,2.514,0,0,0,1.875.78,2.723,2.723,0,0,0,.959-.172,2.273,2.273,0,0,0,.923-.633,1.441,1.441,0,0,0,.347-.938V65.08a2.862,2.862,0,0,0-.168-.961A4.312,4.312,0,0,0,57.6,60.761c0-4.071-.37-8.157-.727-12.108-.35-3.875-.713-7.881-.713-11.794ZM4.323,3.77,5.392,4.977a2.645,2.645,0,0,0,2.833.608,2.33,2.33,0,0,0,.761-.465,1.5,1.5,0,0,0,.148-.145l1.718-1.939,1.718,1.94a2.645,2.645,0,0,0,2.833.608,2.271,2.271,0,0,0,.914-.623L18.03,3.03l1.719,1.94a2.645,2.645,0,0,0,2.833.608,2.328,2.328,0,0,0,.76-.463,1.522,1.522,0,0,0,.149-.146L25.208,3.03l1.719,1.94a2.643,2.643,0,0,0,2.833.608,2.266,2.266,0,0,0,.915-.623l1.711-1.932L34.1,4.963a2.645,2.645,0,0,0,2.835.608,2.335,2.335,0,0,0,.761-.465,1.476,1.476,0,0,0,.147-.144l1.718-1.939,1.719,1.94a2.644,2.644,0,0,0,2.834.608,2.268,2.268,0,0,0,.912-.621l1.713-1.934,1.719,1.941a2.644,2.644,0,0,0,2.833.608,2.329,2.329,0,0,0,.758-.462,1.443,1.443,0,0,0,.151-.148l1.075-1.213v4.9H20.162a1.44,1.44,0,1,0,0,2.88H53.277a1.441,1.441,0,0,1,1.44,1.44c0,3.941-.363,7.96-.715,11.847-.357,3.938-.725,8.009-.725,12.054s.368,8.116.725,12.053c.352,3.887.715,7.907.715,11.848a1.441,1.441,0,0,1-1.44,1.44H4.323a1.441,1.441,0,0,1-1.44-1.44c0-3.941.364-7.96.715-11.848.356-3.938.724-8.009.724-12.053S3.955,28.743,3.6,24.805c-.352-3.887-.715-7.906-.715-11.847a1.441,1.441,0,0,1,1.44-1.44H7.2a1.44,1.44,0,1,0,0-2.88H4.323ZM53.277,69.976,52.2,68.763a1.471,1.471,0,0,0-.15-.146,2.335,2.335,0,0,0-.759-.463,2.644,2.644,0,0,0-2.835.609L46.742,70.7,45.03,68.768a2.265,2.265,0,0,0-.913-.621,2.644,2.644,0,0,0-2.835.609l-1.718,1.939-1.717-1.939a1.475,1.475,0,0,0-.147-.143,2.32,2.32,0,0,0-.762-.466,2.644,2.644,0,0,0-2.835.609l-1.718,1.939-1.712-1.934a2.27,2.27,0,0,0-.913-.622,2.645,2.645,0,0,0-2.835.609l-1.717,1.939-1.718-1.939a1.39,1.39,0,0,0-.148-.145,2.32,2.32,0,0,0-.76-.464,2.644,2.644,0,0,0-2.835.609L18.03,70.687l-1.713-1.934a2.275,2.275,0,0,0-.913-.622,2.646,2.646,0,0,0-2.835.61L10.852,70.68,9.134,68.74a1.411,1.411,0,0,0-.147-.143,2.331,2.331,0,0,0-.762-.466,2.645,2.645,0,0,0-2.835.61L4.323,69.947V65.078H53.277Zm0,0" transform="translate(0 0)" fill="#fff"/><path d="M241.452,392h0a1.44,1.44,0,1,0,1.441,1.44A1.44,1.44,0,0,0,241.451,392Zm0,0" transform="translate(-205.452 -335.56)" fill="#fff"/><path d="M285.012,393.44a1.44,1.44,0,0,0,1.44,1.44h7.918a1.44,1.44,0,0,0,0-2.88h-7.918A1.44,1.44,0,0,0,285.012,393.44Zm0,0" transform="translate(-243.973 -335.56)" fill="#fff"/><path d="M86.448,62.872a1.44,1.44,0,0,0,0-2.88h0a1.44,1.44,0,0,0,0,2.88Zm0,0" transform="translate(-72.765 -51.355)" fill="#fff"/></g><g transform="translate(4965.248 -1026.486)"><g transform="translate(-4932 1044)"><g transform="translate(0 0)"><path d="M49.7,8.579a3.068,3.068,0,0,0-2.885-1.165,7.3,7.3,0,0,0-3.532,1.309,8.344,8.344,0,0,0-1.246,1.036A9.77,9.77,0,0,0,43,4.888,6.212,6.212,0,0,0,41.245.88,2.435,2.435,0,0,0,38.189.343c-1.221.834-1.139,2.028-1.059,3.183a6.934,6.934,0,0,1-.605,3.916,17.691,17.691,0,0,0-7.546-.013,6.936,6.936,0,0,1-.6-3.9c.08-1.155.162-2.348-1.059-3.183a2.406,2.406,0,0,0-3.053.534,6.205,6.205,0,0,0-1.756,4,9.763,9.763,0,0,0,.963,4.885,8.361,8.361,0,0,0-1.246-1.036A7.3,7.3,0,0,0,18.7,7.413a3.067,3.067,0,0,0-2.885,1.165,3.069,3.069,0,0,0-.024,3.111,7.3,7.3,0,0,0,2.514,2.8,7.378,7.378,0,0,0,3.331,1.294,23.078,23.078,0,0,0-.111,5.572,22.116,22.116,0,0,0,1.125,5.368,7.518,7.518,0,0,0-.289,2.155c0,4.461,3.025,8.09,6.742,8.09a5.9,5.9,0,0,0,3.654-1.285,5.9,5.9,0,0,0,3.654,1.285c3.718,0,6.742-3.629,6.742-8.09a7.516,7.516,0,0,0-.283-2.135A22.387,22.387,0,0,0,43.99,21.36a23.106,23.106,0,0,0-.122-5.57,7.369,7.369,0,0,0,3.34-1.3,7.3,7.3,0,0,0,2.515-2.8A3.069,3.069,0,0,0,49.7,8.579ZM38.657,3.42c-.081-1.176-.053-1.507.4-1.814.292-.2.786.051,1.145.389a4.747,4.747,0,0,1,1.276,3.018,8.392,8.392,0,0,1-.949,4.355A9.181,9.181,0,0,0,38,7.9,8.5,8.5,0,0,0,38.657,3.42ZM24.036,5a4.74,4.74,0,0,1,1.277-3.009c.359-.336.851-.586,1.143-.387.448.306.477.638.4,1.813A8.5,8.5,0,0,0,27.5,7.883a9.123,9.123,0,0,0-2.53,1.459A8.37,8.37,0,0,1,24.036,5ZM21.95,14.277a5.755,5.755,0,0,1-2.788-1.049,5.841,5.841,0,0,1-1.991-2.191,1.66,1.66,0,0,1-.095-1.6,1.66,1.66,0,0,1,1.521-.5,5.846,5.846,0,0,1,2.77,1.047,6.3,6.3,0,0,1,1.671,1.635A10.789,10.789,0,0,0,21.95,14.277Zm20.515,6.951a21.505,21.505,0,0,1-.623,3.634,4.871,4.871,0,0,0-1.6-1.176.765.765,0,1,0-.646,1.387,3.188,3.188,0,0,1,1.748,1.917,5.73,5.73,0,0,1,.282,1.891c0,3.617-2.338,6.56-5.211,6.56a4.513,4.513,0,0,1-3.128-1.318.765.765,0,0,0-1.053,0A4.512,4.512,0,0,1,29.1,35.442c-2.874,0-5.211-2.943-5.211-6.56a5.755,5.755,0,0,1,.282-1.892c.006-.015.012-.03.016-.045.6-1.656,2.167-2.428,4.913-2.428a10.7,10.7,0,0,1,1.659.118,12.747,12.747,0,0,0,3.99,0,9.568,9.568,0,0,1,1.01-.1A.765.765,0,0,0,35.682,23a11.115,11.115,0,0,0-1.172.119,11.219,11.219,0,0,1-3.511,0,12.216,12.216,0,0,0-1.9-.137,9.016,9.016,0,0,0-3.819.7,4.877,4.877,0,0,0-1.608,1.174,21.162,21.162,0,0,1-.627-3.628,20.269,20.269,0,0,1,.255-6.037,9.3,9.3,0,0,1,1.274-3.144,6.809,6.809,0,0,1,.749-.947A7.62,7.62,0,0,1,28.8,9.057a14.065,14.065,0,0,1,3.919-.5,14.069,14.069,0,0,1,3.974.512,7.683,7.683,0,0,1,3.476,2.059c.106.112.209.228.306.346a7.207,7.207,0,0,1,.443.6A9.352,9.352,0,0,1,42.2,15.194,19.991,19.991,0,0,1,42.465,21.229Zm5.873-10.192a5.842,5.842,0,0,1-1.991,2.191,5.729,5.729,0,0,1-2.8,1.051,10.836,10.836,0,0,0-1.089-2.632,6.268,6.268,0,0,1,1.687-1.659,5.846,5.846,0,0,1,2.77-1.047,1.66,1.66,0,0,1,1.521.5A1.659,1.659,0,0,1,48.338,11.037Z" transform="translate(-15.378 0.001)" fill="#fff"/></g><g transform="translate(21.541 23.048)"><path d="M314.765,319.2l-.241-.028a.765.765,0,0,0-.158,1.522l.207.024a.777.777,0,0,0,.1.006.765.765,0,0,0,.1-1.525Z" transform="translate(-313.679 -319.17)" fill="#fff"/></g><g transform="translate(10.991 26.419)"><path d="M169.977,365.846a2.4,2.4,0,1,0,2.4,2.4A2.4,2.4,0,0,0,169.977,365.846Zm0,3.268a.869.869,0,1,1,.869-.869A.87.87,0,0,1,169.977,369.114Z" transform="translate(-167.577 -365.846)" fill="#fff"/></g><g transform="translate(18.962 26.419)"><path d="M280.367,365.846a2.4,2.4,0,1,0,2.4,2.4A2.4,2.4,0,0,0,280.367,365.846Zm0,3.268a.869.869,0,1,1,.869-.869A.87.87,0,0,1,280.367,369.114Z" transform="translate(-277.967 -365.846)" fill="#fff"/></g><g transform="translate(10.831 16.893)"><path d="M166.126,233.93a.765.765,0,0,0-.765.765v.468a.765.765,0,0,0,1.531,0V234.7A.765.765,0,0,0,166.126,233.93Z" transform="translate(-165.361 -233.93)" fill="#fff"/></g><g transform="translate(22.391 16.893)"><path d="M326.207,233.93a.765.765,0,0,0-.765.765v.468a.765.765,0,0,0,1.531,0V234.7A.765.765,0,0,0,326.207,233.93Z" transform="translate(-325.442 -233.93)" fill="#fff"/></g></g></g></g></g></g></svg>