<svg xmlns="http://www.w3.org/2000/svg" xmlns:xlink="http://www.w3.org/1999/xlink" width="160" height="190" viewBox="0 0 160 190"><defs><filter id="a" x="-2" y="1" width="164.168" height="191.306" filterUnits="userSpaceOnUse"><feOffset dy="2" input="SourceAlpha"/><feGaussianBlur stdDeviation="6" result="b"/><feFlood flood-color="#44d62c" flood-opacity="0.651"/><feComposite operator="in" in2="b"/><feComposite in="SourceGraphic"/></filter><clipPath id="d"><rect width="160" height="190"/></clipPath></defs><g id="c" clip-path="url(#d)"><g transform="translate(-476 -19.66)"><g transform="matrix(1, 0, 0, 1, 476, 19.66)" filter="url(#a)"><g transform="translate(16 17)" fill="#44d62c" stroke="#fff" stroke-width="1" opacity="0.93"><rect width="128.168" height="155.306" rx="14" stroke="none"/><rect x="0.5" y="0.5" width="127.168" height="154.306" rx="13.5" fill="none"/></g></g><path d="M-9.946-9.953l1.784,7.308h.041l1.8-7.308H-3.78V0H-5.715V-2.892l.164-3.869-.041-.007L-7.492,0H-8.784l-1.88-6.713-.041.007.171,3.814V0h-1.935V-9.953ZM-.4,0H-2.345V-7.4H-.4Zm0-9.181H-2.345v-1.483H-.4ZM3.828.144A2.824,2.824,0,0,1,1.613-.772a3.334,3.334,0,0,1-.82-2.311V-4.122a3.818,3.818,0,0,1,.762-2.454,2.547,2.547,0,0,1,2.109-.957,2.451,2.451,0,0,1,2.01.868A3.625,3.625,0,0,1,6.385-4.3V-3.11H2.728v.027a2.044,2.044,0,0,0,.332,1.2,1.142,1.142,0,0,0,1,.472,2.673,2.673,0,0,0,.889-.123,4.675,4.675,0,0,0,.813-.41L6.255-.7A2.932,2.932,0,0,1,5.233-.1,3.978,3.978,0,0,1,3.828.144ZM3.664-5.981a.721.721,0,0,0-.684.426,2.761,2.761,0,0,0-.246,1.147H4.478v-.275a1.972,1.972,0,0,0-.191-.958A.659.659,0,0,0,3.664-5.981ZM9.393,0H7.451V-10.664H9.393Z" transform="translate(557.469 174)" fill="#fff"/><path d="M26.7,45.288a5.68,5.68,0,0,0,9.677-4.01V22.365a4.856,4.856,0,0,0,3.238-4.558h38.85a4.856,4.856,0,1,0,9.713,0V8.094a4.856,4.856,0,1,0-9.713,0H39.613a4.835,4.835,0,0,0-7.237-4.209A4.8,4.8,0,0,0,25.9,2.266a4.83,4.83,0,0,0-8.188,0,4.8,4.8,0,0,0-6.475,1.619A4.837,4.837,0,0,0,4,8.094v9.713a4.856,4.856,0,0,0,3.238,4.558V36.422a5.666,5.666,0,0,0,10.2,3.4,6.177,6.177,0,0,0,1.133-4.209,3.238,3.238,0,1,1,6.475,0v5.666a5.633,5.633,0,0,0,1.654,4.01Zm55-37.194a1.619,1.619,0,1,1,3.238,0v9.713a1.619,1.619,0,1,1-3.238,0Zm-3.238,3.238v3.238H39.613V11.331ZM34.756,6.475a1.619,1.619,0,0,1,1.619,1.619v9.713a1.619,1.619,0,1,1-3.238,0V8.094A1.619,1.619,0,0,1,34.756,6.475ZM28.281,4.856A1.619,1.619,0,0,1,29.9,6.475v12.95a1.619,1.619,0,0,1-3.238,0V6.475A1.619,1.619,0,0,1,28.281,4.856Zm-8.094,0a1.619,1.619,0,0,1,3.238,0V21.044a1.619,1.619,0,0,1-3.238,0ZM13.713,6.475a1.619,1.619,0,1,1,3.238,0v12.95a1.619,1.619,0,0,1-3.238,0ZM7.238,8.094a1.619,1.619,0,0,1,3.238,0v9.713a1.619,1.619,0,1,1-3.238,0ZM21.806,29.138a6.475,6.475,0,0,0-6.475,6.475,3.121,3.121,0,0,1-.486,2.266,2.443,2.443,0,0,1-4.371-1.457V22.365a4.857,4.857,0,0,0,.762-.351,4.8,4.8,0,0,0,6.475,1.619,4.83,4.83,0,0,0,8.188,0,4.8,4.8,0,0,0,6.475-1.619,4.857,4.857,0,0,0,.762.351V41.279a2.428,2.428,0,1,1-4.856,0V35.613A6.475,6.475,0,0,0,21.806,29.138Z" transform="translate(510 90)" fill="#fff"/></g></g></svg>