<svg xmlns="http://www.w3.org/2000/svg" xmlns:xlink="http://www.w3.org/1999/xlink" width="160" height="190" viewBox="0 0 160 190"><defs><clipPath id="b"><rect width="160" height="190"/></clipPath></defs><g id="a" clip-path="url(#b)"><g transform="translate(-182 -195.66)"><path d="M14,0H114.168a14,14,0,0,1,14,14V141.306a14,14,0,0,1-14,14H14a14,14,0,0,1-14-14V14A14,14,0,0,1,14,0Z" transform="translate(198 212.66)" fill="none" opacity="0.93"/><path d="M-45.8-2.6a1.334,1.334,0,0,0-.3-.919,3.063,3.063,0,0,0-1.06-.667,7,7,0,0,1-2.328-1.227,2.436,2.436,0,0,1-.776-1.924,2.5,2.5,0,0,1,.9-1.993,3.427,3.427,0,0,1,2.3-.769,3.187,3.187,0,0,1,2.311.858,2.793,2.793,0,0,1,.861,2.164l-.014.041h-1.887a1.71,1.71,0,0,0-.342-1.107,1.168,1.168,0,0,0-.964-.424A1.171,1.171,0,0,0-48-8.213a1.255,1.255,0,0,0-.325.885,1.03,1.03,0,0,0,.362.81,5.106,5.106,0,0,0,1.258.708A5.294,5.294,0,0,1-44.577-4.6a2.727,2.727,0,0,1,.714,1.986,2.512,2.512,0,0,1-.861,2.023,3.419,3.419,0,0,1-2.29.731,3.835,3.835,0,0,1-2.464-.831,2.783,2.783,0,0,1-1.008-2.382l.014-.041h1.894a1.867,1.867,0,0,0,.39,1.326,1.565,1.565,0,0,0,1.176.4,1.172,1.172,0,0,0,.913-.328A1.274,1.274,0,0,0-45.8-2.6ZM-39.167,0a3.319,3.319,0,0,1-.147-.4,3.293,3.293,0,0,1-.1-.444,2.312,2.312,0,0,1-.667.721,1.572,1.572,0,0,1-.913.27,1.891,1.891,0,0,1-1.466-.6,2.288,2.288,0,0,1-.55-1.606,2.105,2.105,0,0,1,.7-1.688,3.121,3.121,0,0,1,2.082-.6h.731v-.6a1.487,1.487,0,0,0-.195-.831.657.657,0,0,0-.584-.291.563.563,0,0,0-.492.232,1.168,1.168,0,0,0-.164.677l-1.88-.007-.021-.041a2.027,2.027,0,0,1,.714-1.641,2.828,2.828,0,0,1,1.972-.677,2.639,2.639,0,0,1,1.876.673,2.5,2.5,0,0,1,.721,1.917v2.994A6.479,6.479,0,0,0-37.471-.93a5.549,5.549,0,0,0,.232.93Zm-1.265-1.319a1,1,0,0,0,.543-.157,1.167,1.167,0,0,0,.393-.4V-3.24h-.731a.707.707,0,0,0-.643.308,1.413,1.413,0,0,0-.2.779.99.99,0,0,0,.171.6A.547.547,0,0,0-40.431-1.319ZM-34.286,0h-1.941V-10.664h1.941Zm4.573-1.935a.718.718,0,0,0-.246-.543,4.143,4.143,0,0,0-.943-.564,4.974,4.974,0,0,1-1.671-.943,1.8,1.8,0,0,1-.557-1.367,2,2,0,0,1,.714-1.542,2.728,2.728,0,0,1,1.89-.639,2.828,2.828,0,0,1,1.962.656,2.07,2.07,0,0,1,.7,1.675l-.021.041h-1.873a1.266,1.266,0,0,0-.191-.738.669.669,0,0,0-.588-.273.738.738,0,0,0-.533.212.688.688,0,0,0-.219.513.687.687,0,0,0,.219.53,4.406,4.406,0,0,0,.95.55,4.607,4.607,0,0,1,1.723.94A1.9,1.9,0,0,1-27.833-2a1.891,1.891,0,0,1-.752,1.545,3.068,3.068,0,0,1-1.976.6A2.734,2.734,0,0,1-32.583-.6a2.2,2.2,0,0,1-.711-1.682l.014-.041H-31.5a1.207,1.207,0,0,0,.273.848.97.97,0,0,0,.718.26.841.841,0,0,0,.595-.191A.685.685,0,0,0-29.712-1.935ZM-23.259,0a3.319,3.319,0,0,1-.147-.4,3.293,3.293,0,0,1-.1-.444,2.312,2.312,0,0,1-.667.721,1.572,1.572,0,0,1-.913.27,1.891,1.891,0,0,1-1.466-.6,2.288,2.288,0,0,1-.55-1.606,2.105,2.105,0,0,1,.7-1.688,3.121,3.121,0,0,1,2.082-.6h.731v-.6a1.487,1.487,0,0,0-.195-.831.657.657,0,0,0-.584-.291.563.563,0,0,0-.492.232,1.168,1.168,0,0,0-.164.677l-1.88-.007-.021-.041a2.027,2.027,0,0,1,.714-1.641,2.828,2.828,0,0,1,1.972-.677,2.639,2.639,0,0,1,1.876.673,2.5,2.5,0,0,1,.721,1.917v2.994A6.479,6.479,0,0,0-21.564-.93a5.549,5.549,0,0,0,.232.93Zm-1.265-1.319a1,1,0,0,0,.543-.157,1.167,1.167,0,0,0,.393-.4V-3.24h-.731a.707.707,0,0,0-.643.308,1.413,1.413,0,0,0-.2.779.99.99,0,0,0,.171.6A.547.547,0,0,0-24.524-1.319Zm7.335-.615a.718.718,0,0,0-.246-.543,4.143,4.143,0,0,0-.943-.564,4.974,4.974,0,0,1-1.671-.943,1.8,1.8,0,0,1-.557-1.367,2,2,0,0,1,.714-1.542A2.728,2.728,0,0,1-18-7.533a2.828,2.828,0,0,1,1.962.656,2.07,2.07,0,0,1,.7,1.675l-.021.041H-17.23a1.266,1.266,0,0,0-.191-.738.669.669,0,0,0-.588-.273.738.738,0,0,0-.533.212.688.688,0,0,0-.219.513.687.687,0,0,0,.219.53,4.406,4.406,0,0,0,.95.55,4.607,4.607,0,0,1,1.723.94A1.9,1.9,0,0,1-15.309-2a1.891,1.891,0,0,1-.752,1.545,3.068,3.068,0,0,1-1.976.6A2.734,2.734,0,0,1-20.06-.6a2.2,2.2,0,0,1-.711-1.682l.014-.041h1.777a1.207,1.207,0,0,0,.273.848.97.97,0,0,0,.718.26.841.841,0,0,0,.595-.191A.685.685,0,0,0-17.189-1.935Zm8.3-1.1.014.075L-7.8-7.4h2.078l-2.5,8.511a4.038,4.038,0,0,1-.749,1.336,1.8,1.8,0,0,1-1.432.537,1.966,1.966,0,0,1-.424-.041q-.185-.041-.492-.123l.226-1.449.167.031a.576.576,0,0,0,.113.01.851.851,0,0,0,.639-.222A1.3,1.3,0,0,0-9.854.608l.171-.547L-11.864-7.4h2.085Zm11.5.909H-.01L-.543,0H-2.505L.3-9.953H2.321L5.117,0H3.155ZM.386-3.678H2.218L1.323-7.2H1.282Zm5.12.021a5.4,5.4,0,0,1,.643-2.81A2.01,2.01,0,0,1,7.96-7.533a1.508,1.508,0,0,1,.779.205,2.045,2.045,0,0,1,.622.588v-3.924H11.3V0H9.615l-.13-.807A2.174,2.174,0,0,1,8.818-.1a1.57,1.57,0,0,1-.865.243,2.027,2.027,0,0,1-1.808-1,4.879,4.879,0,0,1-.639-2.656Zm1.941.144a4.189,4.189,0,0,0,.229,1.55.794.794,0,0,0,.776.555.975.975,0,0,0,.526-.141,1.161,1.161,0,0,0,.383-.408V-5.33a1.37,1.37,0,0,0-.383-.48.825.825,0,0,0-.513-.171.822.822,0,0,0-.779.638,4.9,4.9,0,0,0-.239,1.687Zm8,3.657a2.824,2.824,0,0,1-2.215-.916,3.334,3.334,0,0,1-.82-2.311V-4.122a3.818,3.818,0,0,1,.762-2.454,2.547,2.547,0,0,1,2.109-.957,2.451,2.451,0,0,1,2.01.868A3.625,3.625,0,0,1,18-4.3V-3.11H14.345v.027a2.044,2.044,0,0,0,.332,1.2,1.142,1.142,0,0,0,1,.472,2.673,2.673,0,0,0,.889-.123,4.675,4.675,0,0,0,.813-.41L17.873-.7A2.932,2.932,0,0,1,16.851-.1,3.978,3.978,0,0,1,15.446.144Zm-.164-6.125a.721.721,0,0,0-.684.426,2.761,2.761,0,0,0-.246,1.147H16.1v-.275a1.972,1.972,0,0,0-.191-.958A.659.659,0,0,0,15.282-5.981Zm7.191.355-.731-.021a.829.829,0,0,0-.509.15.956.956,0,0,0-.311.424V0H18.98V-7.4h1.812l.075.991.034.014a2.017,2.017,0,0,1,.5-.837,1.039,1.039,0,0,1,.742-.3,1.727,1.727,0,0,1,.277.024,1.881,1.881,0,0,1,.256.058ZM26.206.144a2.824,2.824,0,0,1-2.215-.916,3.334,3.334,0,0,1-.82-2.311V-4.122a3.818,3.818,0,0,1,.762-2.454,2.547,2.547,0,0,1,2.109-.957,2.451,2.451,0,0,1,2.01.868A3.625,3.625,0,0,1,28.762-4.3V-3.11H25.1v.027a2.044,2.044,0,0,0,.332,1.2,1.142,1.142,0,0,0,1,.472,2.673,2.673,0,0,0,.889-.123,4.675,4.675,0,0,0,.813-.41L28.632-.7A2.932,2.932,0,0,1,27.61-.1,3.978,3.978,0,0,1,26.206.144Zm-.164-6.125a.721.721,0,0,0-.684.426,2.761,2.761,0,0,0-.246,1.147h1.743v-.275a1.972,1.972,0,0,0-.191-.958A.659.659,0,0,0,26.042-5.981Zm5.742,4.43h2.892V0h-5.12V-1.155l2.816-4.689H29.637V-7.4h4.99v1.128Zm3.65-2.6a3.677,3.677,0,0,1,.79-2.437,2.721,2.721,0,0,1,2.211-.947,2.731,2.731,0,0,1,2.215.947,3.667,3.667,0,0,1,.793,2.437v.916a3.647,3.647,0,0,1-.793,2.44,2.736,2.736,0,0,1-2.208.937,2.742,2.742,0,0,1-2.218-.937,3.658,3.658,0,0,1-.79-2.44Zm1.935.913a3.087,3.087,0,0,0,.239,1.342.852.852,0,0,0,.834.486.842.842,0,0,0,.817-.49A3.053,3.053,0,0,0,39.5-3.236v-.917a3.062,3.062,0,0,0-.243-1.332.846.846,0,0,0-.824-.5.845.845,0,0,0-.824.5,3.066,3.066,0,0,0-.243,1.328Zm8.319,1.3a.718.718,0,0,0-.246-.543,4.143,4.143,0,0,0-.943-.564,4.974,4.974,0,0,1-1.671-.943,1.8,1.8,0,0,1-.557-1.367,2,2,0,0,1,.714-1.542,2.728,2.728,0,0,1,1.89-.639,2.828,2.828,0,0,1,1.962.656,2.07,2.07,0,0,1,.7,1.675l-.021.041H45.647a1.266,1.266,0,0,0-.191-.738.669.669,0,0,0-.588-.273.738.738,0,0,0-.533.212.688.688,0,0,0-.219.513.687.687,0,0,0,.219.53,4.406,4.406,0,0,0,.95.55,4.607,4.607,0,0,1,1.723.94A1.9,1.9,0,0,1,47.568-2a1.891,1.891,0,0,1-.752,1.545,3.068,3.068,0,0,1-1.976.6A2.734,2.734,0,0,1,42.817-.6a2.2,2.2,0,0,1-.711-1.682l.014-.041H43.9a1.207,1.207,0,0,0,.273.848.97.97,0,0,0,.718.26.841.841,0,0,0,.595-.191A.685.685,0,0,0,45.688-1.935Z" transform="translate(263.488 350)" fill="#5e5b5c"/><g transform="translate(225 240)"><path d="M32.347,16.866a3.61,3.61,0,0,0,.266-1.35V13.1a3.629,3.629,0,0,0-3.629-3.629h-3.79l-1.061-7.43A1.21,1.21,0,0,0,22.935,1H18.1a1.21,1.21,0,0,0-1.2,1.038l-1.061,7.43h-3.79A3.629,3.629,0,0,0,8.419,13.1v2.419a3.61,3.61,0,0,0,.266,1.35A3.629,3.629,0,0,0,6,20.355V72.371A3.629,3.629,0,0,0,9.629,76H31.4a3.629,3.629,0,0,0,3.629-3.629V20.355A3.629,3.629,0,0,0,32.347,16.866ZM19.146,3.419h2.741l.864,6.048H18.282ZM10.839,13.1a1.21,1.21,0,0,1,1.21-1.21H28.984a1.21,1.21,0,0,1,1.21,1.21v2.419a1.21,1.21,0,0,1-1.21,1.21H12.048a1.21,1.21,0,0,1-1.21-1.21ZM32.613,72.371a1.21,1.21,0,0,1-1.21,1.21H9.629a1.21,1.21,0,0,1-1.21-1.21V20.355a1.21,1.21,0,0,1,1.21-1.21H31.4a1.21,1.21,0,0,1,1.21,1.21Z" transform="translate(0 0)" fill="#5e5b5c"/><path d="M25.419,57H24.21a1.21,1.21,0,0,0,0,2.419h1.21a1.21,1.21,0,0,0,0-2.419Z" transform="translate(3.565 11.742)" fill="#5e5b5c"/><path d="M22.258,57H16.21a1.21,1.21,0,0,0,0,2.419h6.048a1.21,1.21,0,0,0,0-2.419Z" transform="translate(1.887 11.742)" fill="#5e5b5c"/><path d="M60.347,16.866a3.61,3.61,0,0,0,.266-1.35V13.1a3.629,3.629,0,0,0-3.629-3.629h-3.79l-1.061-7.43A1.21,1.21,0,0,0,50.935,1H46.1a1.21,1.21,0,0,0-1.2,1.038l-1.061,7.43h-3.79A3.629,3.629,0,0,0,36.419,13.1v2.419a3.61,3.61,0,0,0,.266,1.35A3.629,3.629,0,0,0,34,20.355V72.371A3.629,3.629,0,0,0,37.629,76H59.4a3.629,3.629,0,0,0,3.629-3.629V20.355a3.629,3.629,0,0,0-2.685-3.489ZM47.146,3.419h2.741l.864,6.048H46.282ZM38.839,13.1a1.21,1.21,0,0,1,1.21-1.21H56.984a1.21,1.21,0,0,1,1.21,1.21v2.419a1.21,1.21,0,0,1-1.21,1.21H40.048a1.21,1.21,0,0,1-1.21-1.21Zm3.629,6.048h1.21v5.444a.6.6,0,0,1-1.21,0ZM46.1,24.589V19.145h1.21V29.427a.6.6,0,0,1-1.21,0ZM60.613,72.371a1.21,1.21,0,0,1-1.21,1.21H37.629a1.21,1.21,0,0,1-1.21-1.21V20.355a1.21,1.21,0,0,1,1.21-1.21h2.419v5.444a3.024,3.024,0,0,0,3.629,2.963v1.876a3.024,3.024,0,0,0,6.048,0V19.145H59.4a1.21,1.21,0,0,1,1.21,1.21Z" transform="translate(5.871 0)" fill="#5e5b5c"/><path d="M53.419,57H52.21a1.21,1.21,0,0,0,0,2.419h1.21a1.21,1.21,0,1,0,0-2.419Z" transform="translate(9.435 11.742)" fill="#5e5b5c"/><path d="M50.258,57H44.21a1.21,1.21,0,0,0,0,2.419h6.048a1.21,1.21,0,0,0,0-2.419Z" transform="translate(7.758 11.742)" fill="#5e5b5c"/></g></g></g></svg>