<svg xmlns="http://www.w3.org/2000/svg" xmlns:xlink="http://www.w3.org/1999/xlink" width="160" height="190" viewBox="0 0 160 190"><defs><clipPath id="b"><rect width="160" height="190"/></clipPath></defs><g id="a" clip-path="url(#b)"><g transform="translate(-770 -195.66)"><rect width="128.168" height="155.306" rx="14" transform="translate(786 212.66)" fill="none" opacity="0.93"/><path d="M-14.68-2.6a1.334,1.334,0,0,0-.3-.919,3.063,3.063,0,0,0-1.06-.667,7,7,0,0,1-2.328-1.227,2.436,2.436,0,0,1-.776-1.924,2.5,2.5,0,0,1,.9-1.993,3.427,3.427,0,0,1,2.3-.769,3.187,3.187,0,0,1,2.311.858,2.793,2.793,0,0,1,.861,2.164l-.014.041h-1.887a1.71,1.71,0,0,0-.342-1.107,1.168,1.168,0,0,0-.964-.424,1.171,1.171,0,0,0-.906.352,1.255,1.255,0,0,0-.325.885,1.03,1.03,0,0,0,.362.81,5.106,5.106,0,0,0,1.258.708A5.294,5.294,0,0,1-13.453-4.6a2.727,2.727,0,0,1,.714,1.986A2.512,2.512,0,0,1-13.6-.588a3.419,3.419,0,0,1-2.29.731,3.835,3.835,0,0,1-2.464-.831,2.783,2.783,0,0,1-1.008-2.382l.014-.041h1.894a1.867,1.867,0,0,0,.39,1.326,1.565,1.565,0,0,0,1.176.4,1.172,1.172,0,0,0,.913-.328A1.274,1.274,0,0,0-14.68-2.6Zm4.813-4.8.082,1.019a2.465,2.465,0,0,1,.755-.851,1.72,1.72,0,0,1,.988-.3,1.713,1.713,0,0,1,1.453.711,3.765,3.765,0,0,1,.53,2.235V0H-8.008V-4.592A1.984,1.984,0,0,0-8.224-5.67a.754.754,0,0,0-.667-.311.885.885,0,0,0-.479.137,1.166,1.166,0,0,0-.369.376V0h-1.941V-7.4ZM-1.241,0a3.319,3.319,0,0,1-.147-.4,3.292,3.292,0,0,1-.1-.444,2.312,2.312,0,0,1-.667.721,1.572,1.572,0,0,1-.913.27,1.891,1.891,0,0,1-1.466-.6,2.288,2.288,0,0,1-.55-1.606,2.105,2.105,0,0,1,.7-1.688,3.121,3.121,0,0,1,2.082-.6h.731v-.6a1.487,1.487,0,0,0-.195-.831.657.657,0,0,0-.584-.291.563.563,0,0,0-.492.232A1.168,1.168,0,0,0-3-5.168l-1.88-.007L-4.9-5.216A2.027,2.027,0,0,1-4.19-6.856a2.828,2.828,0,0,1,1.972-.677A2.639,2.639,0,0,1-.342-6.86,2.5,2.5,0,0,1,.379-4.942v2.994A6.479,6.479,0,0,0,.455-.93,5.549,5.549,0,0,0,.687,0ZM-2.505-1.319a1,1,0,0,0,.543-.157,1.167,1.167,0,0,0,.393-.4V-3.24H-2.3a.707.707,0,0,0-.643.308,1.413,1.413,0,0,0-.2.779.99.99,0,0,0,.171.6A.547.547,0,0,0-2.505-1.319ZM4.31-1.408a.678.678,0,0,0,.6-.294,1.493,1.493,0,0,0,.2-.848H6.874l.021.041A2.534,2.534,0,0,1,6.18-.6,2.514,2.514,0,0,1,4.31.144a2.69,2.69,0,0,1-2.2-.937,3.689,3.689,0,0,1-.769-2.42v-.95A3.731,3.731,0,0,1,2.1-6.586,2.659,2.659,0,0,1,4.3-7.533a2.464,2.464,0,0,1,1.911.772,2.9,2.9,0,0,1,.687,2.085l-.014.034H5.11a2.02,2.02,0,0,0-.2-.972A.656.656,0,0,0,4.3-5.981a.8.8,0,0,0-.8.493,3.309,3.309,0,0,0-.219,1.321v.952A3.27,3.27,0,0,0,3.5-1.887.813.813,0,0,0,4.31-1.408Zm5.817-1.668H9.772V0H7.831V-10.664H9.772v6.057h.321L11.344-7.4H13.58L11.652-4.067,13.9,0H11.679Zm7.506,1.142a.718.718,0,0,0-.246-.543,4.143,4.143,0,0,0-.943-.564,4.974,4.974,0,0,1-1.671-.943,1.8,1.8,0,0,1-.557-1.367,2,2,0,0,1,.714-1.542,2.728,2.728,0,0,1,1.89-.639,2.828,2.828,0,0,1,1.962.656,2.07,2.07,0,0,1,.7,1.675l-.021.041H17.592A1.266,1.266,0,0,0,17.4-5.9a.669.669,0,0,0-.588-.273.738.738,0,0,0-.533.212.688.688,0,0,0-.219.513.687.687,0,0,0,.219.53,4.406,4.406,0,0,0,.95.55,4.607,4.607,0,0,1,1.723.94A1.9,1.9,0,0,1,19.513-2a1.891,1.891,0,0,1-.752,1.545,3.068,3.068,0,0,1-1.976.6A2.734,2.734,0,0,1,14.762-.6a2.2,2.2,0,0,1-.711-1.682l.014-.041h1.777a1.207,1.207,0,0,0,.273.848.97.97,0,0,0,.718.26.841.841,0,0,0,.595-.191A.685.685,0,0,0,17.633-1.935Z" transform="translate(850.364 350)" fill="#5e5b5c"/><g transform="translate(784.992 248)"><path d="M86.633,59.394c3.912-10.544,3.912-41.221,0-51.765l1.148-6.077A1.309,1.309,0,0,0,86.495,0H43.081a1.309,1.309,0,0,0-1.287,1.552l1.147,6.077c-3.912,10.543-3.912,41.22,0,51.765l-1.148,6.077a1.309,1.309,0,0,0,1.287,1.552H86.5a1.311,1.311,0,0,0,1.262-1.66ZM84.915,2.619l-.722,3.82H45.382l-.721-3.82Zm-39.7,6.439H84.362c3.451,10.227,3.451,38.679,0,48.907H45.213C41.762,47.737,41.762,19.285,45.212,9.058ZM44.66,64.4l.722-3.82H84.193l.721,3.82Z" transform="translate(0)" fill="#5e5b5c"/><path d="M79.22,125.277l.011,0,.076.012a2.569,2.569,0,0,0,.32.019,17.778,17.778,0,0,0,4.242-1.03,29.075,29.075,0,0,1,5.728-1.4c.144-.008.287-.012.429-.012a16.425,16.425,0,0,1,3.667.573,22.485,22.485,0,0,0,5.3.754c1.67,0,5.85-.307,8.578-3.148a8.6,8.6,0,0,0,2.266-6.574c-.3-7.34-8.264-10.515-12.26-10.515-6.071,0-9.453,5-10.656,8.262-8.174,1.193-10.93,7.811-10.93,9.561A3.441,3.441,0,0,0,79.22,125.277Zm18.35-18.7c2.741,0,9.408,2.3,9.643,8a6.083,6.083,0,0,1-1.538,4.653c-2.087,2.174-5.647,2.343-6.688,2.343a20.05,20.05,0,0,1-4.7-.686,18.658,18.658,0,0,0-4.259-.641c-.193,0-.386.005-.576.016a18.938,18.938,0,0,0-3.772.741,28.189,28.189,0,0,0,3.473-7.2c0-.006,0-.013.005-.019s0-.008,0-.012C89.242,113.482,91.286,106.576,97.57,106.576ZM85.885,115.1c-1.249,2.992-3.586,7.162-6.412,7.57-.869-.155-.871-.592-.871-.877C78.639,121.1,80.323,116.545,85.885,115.1Z" transform="translate(-28.125 -81.268)" fill="#5e5b5c"/></g></g></g></svg>